<?xml version="1.0" encoding="UTF-8" standalone="no"?>
<!-- Created with Inkscape (http://www.inkscape.org/) -->

<svg
   xmlns:dc="http://purl.org/dc/elements/1.1/"
   xmlns:cc="http://creativecommons.org/ns#"
   xmlns:rdf="http://www.w3.org/1999/02/22-rdf-syntax-ns#"
   xmlns:svg="http://www.w3.org/2000/svg"
   xmlns="http://www.w3.org/2000/svg"
   xmlns:xlink="http://www.w3.org/1999/xlink"
   xmlns:sodipodi="http://sodipodi.sourceforge.net/DTD/sodipodi-0.dtd"
   xmlns:inkscape="http://www.inkscape.org/namespaces/inkscape"
   width="460.62991"
   height="283.46457"
   id="svg2"
   version="1.1"
   inkscape:version="0.48.5 r10040"
   sodipodi:docname="ada.svg"
   inkscape:export-filename="/home/mammique/Documents/daat/banknote/cryptos/dash.png"
   inkscape:export-xdpi="156.31"
   inkscape:export-ydpi="156.31">
  <defs
     id="defs4">
    <linearGradient
       id="linearGradient4925">
      <stop
         style="stop-color:#bd9800;stop-opacity:1;"
         offset="0"
         id="stop4927" />
      <stop
         id="stop3784"
         offset="0.51732481"
         style="stop-color:#ffcc04;stop-opacity:1;" />
      <stop
         offset="1"
         id="stop4929"
         style="stop-color:#a98500;stop-opacity:1;" />
    </linearGradient>
    <linearGradient
       id="linearGradient4835">
      <stop
         style="stop-color:#000000;stop-opacity:0.61572052"
         offset="0"
         id="stop4837" />
      <stop
         style="stop-color:#000000;stop-opacity:0;"
         offset="1"
         id="stop4839" />
    </linearGradient>
    <linearGradient
       inkscape:collect="always"
       id="linearGradient4531">
      <stop
         style="stop-color:#ffffff;stop-opacity:1;"
         offset="0"
         id="stop4533" />
      <stop
         style="stop-color:#ffffff;stop-opacity:0;"
         offset="1"
         id="stop4535" />
    </linearGradient>
    <clipPath
       clipPathUnits="userSpaceOnUse"
       id="clipPath5978">
      <rect
         style="color:#000000;fill:#cccccc;fill-opacity:1;fill-rule:nonzero;stroke:#003a00;stroke-width:0.89999998;stroke-linecap:butt;stroke-linejoin:miter;stroke-miterlimit:4;stroke-opacity:1;stroke-dasharray:none;stroke-dashoffset:0;marker:none;visibility:visible;display:inline;overflow:visible;enable-background:accumulate"
         id="rect5980"
         width="173.74623"
         height="1608.1628"
         x="610.13214"
         y="-378.01382"
         transform="matrix(0,-1,1,0,0,0)" />
    </clipPath>
    <inkscape:perspective
       id="perspective2497"
       inkscape:persp3d-origin="372.04724 : 350.78739 : 1"
       inkscape:vp_z="744.09448 : 526.18109 : 1"
       inkscape:vp_y="0 : 1000 : 0"
       inkscape:vp_x="0 : 526.18109 : 1"
       sodipodi:type="inkscape:persp3d" />
    <linearGradient
       inkscape:collect="always"
       xlink:href="#linearGradient4531"
       id="linearGradient4823"
       gradientUnits="userSpaceOnUse"
       x1="182.81697"
       y1="175.83376"
       x2="183.58928"
       y2="-16.309107"
       gradientTransform="translate(53.033008,825.69937)" />
    <radialGradient
       inkscape:collect="always"
       xlink:href="#linearGradient4835"
       id="radialGradient4845"
       cx="7.3256431"
       cy="198.2952"
       fx="7.3256431"
       fy="198.2952"
       r="109.27257"
       gradientTransform="matrix(0.19829552,0.15553474,-0.16582027,0.21140881,93.302602,945.5672)"
       gradientUnits="userSpaceOnUse" />
    <linearGradient
       id="linearGradient4925-6">
      <stop
         style="stop-color:#bd9800;stop-opacity:1;"
         offset="0"
         id="stop4927-7" />
      <stop
         id="stop3784-5"
         offset="0.5"
         style="stop-color:#ffcc04;stop-opacity:1;" />
      <stop
         offset="1"
         id="stop4929-3"
         style="stop-color:#a98500;stop-opacity:1;" />
    </linearGradient>
    <linearGradient
       gradientTransform="translate(-17.649337,-11.359598)"
       y2="38.317909"
       x2="313.61914"
       y1="142.8687"
       x1="50.479298"
       gradientUnits="userSpaceOnUse"
       id="linearGradient3802"
       xlink:href="#linearGradient4925-6"
       inkscape:collect="always" />
    <linearGradient
       id="linearGradient4925-2">
      <stop
         style="stop-color:#bd9800;stop-opacity:1;"
         offset="0"
         id="stop4927-3" />
      <stop
         id="stop3784-7"
         offset="0.38554054"
         style="stop-color:#ffcc04;stop-opacity:1;" />
      <stop
         offset="1"
         id="stop4929-5"
         style="stop-color:#a98500;stop-opacity:1;" />
    </linearGradient>
    <linearGradient
       y2="38.317909"
       x2="313.61914"
       y1="83.269699"
       x1="19.16457"
       gradientTransform="translate(-17.649337,-11.359581)"
       gradientUnits="userSpaceOnUse"
       id="linearGradient4077"
       xlink:href="#linearGradient4925-2"
       inkscape:collect="always" />
    <linearGradient
       id="linearGradient4925-28">
      <stop
         style="stop-color:#bd9800;stop-opacity:1;"
         offset="0"
         id="stop4927-9" />
      <stop
         id="stop3784-73"
         offset="0.51732481"
         style="stop-color:#ffcc04;stop-opacity:1;" />
      <stop
         offset="1"
         id="stop4929-6"
         style="stop-color:#a98500;stop-opacity:1;" />
    </linearGradient>
    <linearGradient
       y2="19.746481"
       x2="180.76199"
       y1="166.12685"
       x1="180.59314"
       gradientTransform="translate(-17.649337,-11.359581)"
       gradientUnits="userSpaceOnUse"
       id="linearGradient4113"
       xlink:href="#linearGradient4925-28"
       inkscape:collect="always" />
    <linearGradient
       id="linearGradient4925-7">
      <stop
         style="stop-color:#bd9800;stop-opacity:1;"
         offset="0"
         id="stop4927-5" />
      <stop
         id="stop3784-3"
         offset="0.51732481"
         style="stop-color:#ffcc04;stop-opacity:1;" />
      <stop
         offset="1"
         id="stop4929-56"
         style="stop-color:#a98500;stop-opacity:1;" />
    </linearGradient>
    <linearGradient
       y2="19.746481"
       x2="180.76199"
       y1="166.12685"
       x1="180.59314"
       gradientTransform="translate(-17.649337,-11.359581)"
       gradientUnits="userSpaceOnUse"
       id="linearGradient3327"
       xlink:href="#linearGradient4925-7"
       inkscape:collect="always" />
    <linearGradient
       id="linearGradient4925-7-1">
      <stop
         style="stop-color:#bd9800;stop-opacity:1;"
         offset="0"
         id="stop4927-5-2" />
      <stop
         id="stop3784-3-7"
         offset="0.51732481"
         style="stop-color:#ffcc04;stop-opacity:1;" />
      <stop
         offset="1"
         id="stop4929-56-0"
         style="stop-color:#a98500;stop-opacity:1;" />
    </linearGradient>
    <linearGradient
       y2="19.032196"
       x2="138.61914"
       y1="166.12685"
       x1="180.59314"
       gradientTransform="translate(-17.649337,-7.9568844)"
       gradientUnits="userSpaceOnUse"
       id="linearGradient3455"
       xlink:href="#linearGradient4925-7-1"
       inkscape:collect="always" />
    <linearGradient
       inkscape:collect="always"
       xlink:href="#linearGradient4925-7-6"
       id="linearGradient3350-3"
       gradientUnits="userSpaceOnUse"
       gradientTransform="translate(54.548237,823.78353)"
       x1="180.59314"
       y1="166.12685"
       x2="138.61914"
       y2="19.032196" />
    <linearGradient
       id="linearGradient4925-7-6">
      <stop
         style="stop-color:#bd9800;stop-opacity:1;"
         offset="0"
         id="stop4927-5-0" />
      <stop
         id="stop3784-3-6"
         offset="0.51732481"
         style="stop-color:#ffcc04;stop-opacity:1;" />
      <stop
         offset="1"
         id="stop4929-56-2"
         style="stop-color:#a98500;stop-opacity:1;" />
    </linearGradient>
    <linearGradient
       y2="19.032196"
       x2="138.61914"
       y1="166.12685"
       x1="180.59314"
       gradientTransform="translate(-17.649337,-7.9568844)"
       gradientUnits="userSpaceOnUse"
       id="linearGradient3491"
       xlink:href="#linearGradient4925-7-6"
       inkscape:collect="always" />
    <linearGradient
       id="linearGradient4835-7">
      <stop
         style="stop-color:#000000;stop-opacity:0.61572052"
         offset="0"
         id="stop4837-5" />
      <stop
         style="stop-color:#000000;stop-opacity:0;"
         offset="1"
         id="stop4839-9" />
    </linearGradient>
    <radialGradient
       r="109.27257"
       fy="198.2952"
       fx="7.3256431"
       cy="198.2952"
       cx="7.3256431"
       gradientTransform="matrix(0.19829552,0.15553474,-0.16582027,0.21140881,132.487,52.51516)"
       gradientUnits="userSpaceOnUse"
       id="radialGradient3545"
       xlink:href="#linearGradient4835-7"
       inkscape:collect="always" />
    <linearGradient
       id="linearGradient4835-8">
      <stop
         style="stop-color:#000000;stop-opacity:0.61572052"
         offset="0"
         id="stop4837-9" />
      <stop
         style="stop-color:#000000;stop-opacity:0;"
         offset="1"
         id="stop4839-7" />
    </linearGradient>
    <radialGradient
       r="109.27257"
       fy="198.2952"
       fx="7.3256431"
       cy="198.2952"
       cx="7.3256431"
       gradientTransform="matrix(0.19829552,0.15553474,-0.16582027,0.21140881,132.487,52.51516)"
       gradientUnits="userSpaceOnUse"
       id="radialGradient3578"
       xlink:href="#linearGradient4835-8"
       inkscape:collect="always" />
    <linearGradient
       inkscape:collect="always"
       xlink:href="#linearGradient4925-7-6-1"
       id="linearGradient3350-3-6"
       gradientUnits="userSpaceOnUse"
       gradientTransform="translate(54.548237,823.78353)"
       x1="180.59314"
       y1="166.12685"
       x2="138.61914"
       y2="19.032196" />
    <linearGradient
       id="linearGradient4925-7-6-1">
      <stop
         style="stop-color:#bd9800;stop-opacity:1;"
         offset="0"
         id="stop4927-5-0-2" />
      <stop
         id="stop3784-3-6-9"
         offset="0.51732481"
         style="stop-color:#ffcc04;stop-opacity:1;" />
      <stop
         offset="1"
         id="stop4929-56-2-3"
         style="stop-color:#a98500;stop-opacity:1;" />
    </linearGradient>
    <linearGradient
       y2="19.032196"
       x2="138.61914"
       y1="166.12685"
       x1="180.59314"
       gradientTransform="translate(-17.649337,-14.676051)"
       gradientUnits="userSpaceOnUse"
       id="linearGradient3612"
       xlink:href="#linearGradient4925-7-6-1"
       inkscape:collect="always" />
  </defs>
  <sodipodi:namedview
     id="base"
     pagecolor="#5271a5"
     bordercolor="#666666"
     borderopacity="1.0"
     inkscape:pageopacity="1"
     inkscape:pageshadow="2"
     inkscape:zoom="1.979899"
     inkscape:cx="212.5195"
     inkscape:cy="116.06214"
     inkscape:document-units="px"
     inkscape:current-layer="layer1"
     showgrid="false"
     units="mm"
     inkscape:window-width="1364"
     inkscape:window-height="747"
     inkscape:window-x="0"
     inkscape:window-y="19"
     inkscape:window-maximized="1"
     showguides="true"
     inkscape:guide-bbox="true" />
  <metadata
     id="metadata7">
    <rdf:RDF>
      <cc:Work
         rdf:about="">
        <dc:format>image/svg+xml</dc:format>
        <dc:type
           rdf:resource="http://purl.org/dc/dcmitype/StillImage" />
        <dc:title></dc:title>
      </cc:Work>
    </rdf:RDF>
  </metadata>
  <g
     inkscape:label="Calque 1"
     inkscape:groupmode="layer"
     id="layer1"
     transform="translate(0,-768.89763)">
    <path
       style="fill:#0b1e2c;fill-opacity:1"
       d="m 136.18874,880.48104 c -16.94087,0 -30.67074,13.72988 -30.67074,30.67073 0,16.94085 13.72987,30.67072 30.67074,30.67072 16.94087,0 30.67074,-13.72987 30.67074,-30.67072 0,-16.94085 -13.72987,-30.67073 -30.67074,-30.67073 z m -0.19035,11.5164 c 0.8232,-0.0954 1.63959,0.82791 1.2135,1.618 -0.28565,0.73619 -1.35524,0.94243 -1.90354,0.38071 -0.58089,-0.5368 -0.39077,-1.61022 0.35692,-1.90353 0.11479,-0.0592 0.21552,-0.0816 0.33313,-0.0952 z m 10.08874,1.04694 c 0.55248,-0.0878 1.01067,0.4438 1.09454,0.97557 -0.13804,0.51762 -0.5716,0.98233 -1.16592,0.83279 -0.87229,-0.10352 -1.00434,-1.44095 -0.16656,-1.71318 0.0815,-0.0388 0.15902,-0.0826 0.23794,-0.0952 z m -20.10611,0.0476 c 0.50836,-0.0472 1.04968,0.40293 0.99936,0.92798 0.0575,0.64799 -0.7393,1.11765 -1.30868,0.809 -0.75344,-0.28757 -0.68127,-1.48617 0.0952,-1.68939 0.0697,-0.0283 0.14153,-0.0408 0.21415,-0.0476 z m 2.78392,3.99743 c 0.76134,0.0482 1.48791,0.74574 1.38007,1.54662 -0.0479,1.07551 -1.5113,1.70408 -2.33183,0.97556 -0.7937,-0.5713 -0.66007,-1.89089 0.21414,-2.33183 0.23342,-0.14522 0.48384,-0.20641 0.73762,-0.19035 z m 14.77621,0 c 0.53296,-0.012 1.07192,0.24763 1.30868,0.76141 0.46971,0.79944 -0.11781,1.77407 -0.95176,2.0463 -1.10619,0.20322 -2.16135,-0.97113 -1.6418,-1.99871 0.20801,-0.52721 0.75192,-0.79702 1.28488,-0.809 z m -7.3762,1.09453 c 0.58281,0.11503 1.226,0.37472 1.47524,0.95177 0.46585,0.79753 0.0526,1.89428 -0.78521,2.26045 -0.38343,0.21088 -0.84316,0.1201 -1.2611,0.0952 -0.6384,-0.30674 -1.16817,-0.90178 -1.11832,-1.6418 -0.01,-0.90872 0.81326,-1.60232 1.68939,-1.66559 z m 15.77556,2.76013 c 0.6367,-0.0124 1.27965,0.51679 1.21351,1.18971 0.0499,0.81861 -0.97238,1.44492 -1.68939,1.02315 -0.78986,-0.35083 -0.88662,-1.55202 -0.14277,-1.99871 0.18069,-0.13804 0.40642,-0.21002 0.61865,-0.21415 z m -31.50354,0.0714 c 0.66824,0.0886 1.24235,0.79082 0.99936,1.47524 -0.17638,0.78794 -1.24055,1.12094 -1.85595,0.61865 -0.65758,-0.47161 -0.55541,-1.6137 0.19035,-1.95112 0.21328,-0.12941 0.44349,-0.17231 0.66624,-0.14277 z m 19.08296,1.61801 c 0.93388,0.013 1.84663,0.49838 2.35563,1.28488 0.89722,1.27873 0.44198,3.23937 -0.95177,3.97363 -1.44169,0.86847 -3.55772,0.13595 -4.09261,-1.45144 -0.60389,-1.41868 0.275,-3.19574 1.76078,-3.64051 0.29811,-0.10545 0.61667,-0.17091 0.92797,-0.16656 z m -6.87653,0.0476 c 1.0889,-0.0519 2.20995,0.47738 2.68875,1.47524 0.75151,1.29599 0.17799,3.1142 -1.16592,3.78328 -1.34583,0.75343 -3.25234,0.17641 -3.90225,-1.2135 -0.73043,-1.34583 -0.0766,-3.16404 1.33248,-3.78328 0.3307,-0.15337 0.68398,-0.24442 1.04694,-0.26174 z m -6.35305,1.16592 c 0.87421,0.10544 1.56974,0.77142 1.66559,1.6418 -0.0575,0.86271 -0.71391,1.69322 -1.6418,1.68939 -1.02183,0.0863 -1.93252,-0.89434 -1.73698,-1.87974 0.10161,-0.83779 0.90223,-1.39393 1.71319,-1.45145 z m 19.84437,0 c 0.8495,0.0477 1.65252,0.75321 1.61801,1.6418 0.071,1.25572 -1.55065,2.14004 -2.59357,1.40386 -1.0851,-0.61348 -0.9826,-2.33385 0.14276,-2.85531 0.26217,-0.15001 0.54964,-0.20626 0.8328,-0.19035 z m -3.18842,4.4971 c 0.92589,0.0352 1.82779,0.48401 2.30804,1.28489 0.84737,1.22121 0.45055,3.04484 -0.80901,3.83087 -1.32282,0.91446 -3.3641,0.43082 -4.0926,-0.99936 -0.88189,-1.47811 -0.01,-3.57069 1.66559,-4.02122 0.29764,-0.0839 0.61935,-0.10692 0.92798,-0.0952 z m -13.72927,0.0238 c 1.09622,-0.0984 2.23508,0.45806 2.76013,1.42765 0.65758,1.11577 0.37939,2.67722 -0.64244,3.49775 -1.31324,1.20012 -3.72789,0.70926 -4.42572,-0.92798 -0.80328,-1.50111 0.17192,-3.5054 1.83215,-3.90224 0.15289,-0.0415 0.31928,-0.0811 0.47588,-0.0952 z m 21.8431,1.28489 c 0.72467,0.11502 1.43758,0.6988 1.38006,1.47524 0.0671,1.02567 -1.18055,1.71849 -2.0701,1.23729 -0.41602,-0.20897 -0.63263,-0.62055 -0.809,-1.02315 a 1.602724,1.6027229 0 0 1 1.49904,-1.68938 z m -29.79036,0.11897 c 0.92765,-0.0294 1.77961,0.95178 1.40386,1.85594 -0.26074,0.9394 -1.61212,1.28886 -2.30804,0.59486 -0.81478,-0.65183 -0.5164,-2.09568 0.49967,-2.37942 0.13229,-0.0491 0.27198,-0.0672 0.40451,-0.0714 z m 34.92991,0.42829 c 0.40026,-0.0446 0.84327,0.18428 0.97556,0.57106 0.30099,0.56364 -0.26002,1.33124 -0.90418,1.2373 -0.90489,0.0805 -1.19786,-1.27258 -0.45209,-1.66559 0.11215,-0.0781 0.24728,-0.12791 0.38071,-0.14277 z m -40.30741,0.0952 c 0.57523,-0.0703 1.17444,0.41422 1.04695,1.02315 -0.0345,0.78794 -1.23233,1.08779 -1.6656,0.4283 -0.38342,-0.4582 -0.14458,-1.16614 0.38071,-1.40386 0.0796,-0.0343 0.15577,-0.0376 0.23794,-0.0476 z m 16.94149,3.73569 c 1.46759,-8e-5 2.84524,1.25008 2.8553,2.73633 0.10736,1.71583 -1.66486,3.22644 -3.37878,2.83151 -1.32665,-0.21088 -2.37592,-1.46686 -2.33183,-2.78392 -0.004,-1.26147 0.98286,-2.42226 2.23666,-2.68874 0.20945,-0.0534 0.40899,-0.0952 0.61865,-0.0952 z m 6.63858,0 c 1.49404,-0.0218 2.92638,1.24032 2.9029,2.76013 0.0901,1.68324 -1.62799,3.14321 -3.3074,2.80771 -1.58163,-0.19938 -2.74898,-1.91566 -2.30804,-3.42636 0.22239,-1.00458 1.08547,-1.82087 2.09389,-2.0701 0.21257,-0.0585 0.40522,-0.0683 0.61865,-0.0714 z m 6.44823,1.07074 c 0.94931,-0.10393 1.92641,0.70806 1.85595,1.68939 0.0422,1.23272 -1.5679,2.0771 -2.59357,1.35627 -1.1637,-0.64608 -0.9341,-2.53176 0.33312,-2.92669 0.13132,-0.0542 0.26889,-0.10413 0.4045,-0.11897 z m -19.86817,0.0476 c 1.17713,-0.19747 2.26194,1.11242 1.78457,2.21286 -0.34892,1.17328 -2.06466,1.48012 -2.83151,0.52347 -0.89722,-0.92022 -0.22412,-2.6098 1.04694,-2.73633 z m 25.76914,3.80707 c 0.10124,-0.0154 0.20268,-0.0175 0.30933,0 0.42177,-0.008 0.72903,0.31879 0.99935,0.59485 0.0556,0.44669 0.13974,0.98931 -0.23794,1.33248 -0.51188,0.6384 -1.67314,0.45369 -1.95113,-0.30933 -0.35898,-0.65925 0.17173,-1.51027 0.88039,-1.618 z m -31.43216,0.0476 c 0.6491,0.042 1.27728,0.64806 1.14212,1.33247 -0.0958,0.81095 -1.12777,1.26912 -1.80836,0.809 -0.73234,-0.41601 -0.70969,-1.59532 0.0476,-1.97491 0.19891,-0.12989 0.40229,-0.18055 0.61865,-0.16656 z m 15.49004,1.76077 c 0.94996,-0.11578 1.94317,0.67923 1.85594,1.66559 0.0767,1.24614 -1.55177,2.10396 -2.56977,1.35627 -1.13111,-0.64224 -0.94448,-2.52984 0.30932,-2.92669 0.13013,-0.0563 0.2688,-0.0786 0.40451,-0.0952 z m 7.7807,1.618 c 0.74544,0.0386 1.46857,0.66926 1.40386,1.45145 0.023,1.09277 -1.45875,1.78775 -2.30804,1.07074 -0.82053,-0.56172 -0.72298,-1.90894 0.16656,-2.35563 0.22814,-0.13899 0.48914,-0.17944 0.73762,-0.16656 z m -14.7762,0.0238 c 0.70418,0.0752 1.36907,0.71814 1.30868,1.45144 0.0268,0.80136 -0.76522,1.47514 -1.57042,1.35627 -0.66524,-0.0134 -1.09396,-0.60803 -1.30868,-1.16591 0.0115,-0.60773 0.2554,-1.26898 0.88038,-1.49904 l 0,-0.0238 c 0.22143,-0.11455 0.45531,-0.14405 0.69004,-0.11897 z m 17.34598,4.9016 c 0.53104,0.10544 1.08867,0.51635 0.97556,1.11833 -0.0767,0.81861 -1.29717,1.05667 -1.71318,0.35691 -0.40644,-0.60198 0.0801,-1.33721 0.73762,-1.47524 z m -20.1537,0.0952 c 0.0659,-0.002 0.1187,0.008 0.19035,0.0238 0.83396,0.0575 1.08734,1.30788 0.35691,1.68939 -0.65566,0.43519 -1.41773,-0.16833 -1.47524,-0.85659 0.14091,-0.41937 0.4669,-0.84288 0.92798,-0.85659 z m 10.08875,0.57106 c 0.17592,0.01 0.3463,0.0726 0.49967,0.16656 0.40644,0.17254 0.53893,0.61977 0.64245,0.99936 -0.0556,0.19746 -0.11863,0.39739 -0.16656,0.59485 -0.25115,0.2914 -0.55763,0.58065 -0.97556,0.57106 -0.77644,0.0901 -1.48112,-0.78394 -1.18972,-1.49903 0.11934,-0.53201 0.66193,-0.86156 1.18972,-0.8328 z"
       id="circle6"
       inkscape:connector-curvature="0" />
    <path
       style="opacity:0.80000000000000004;color:#000000;fill:#ffffff;fill-opacity:1;fill-rule:nonzero;stroke:none;stroke-width:1;marker:none;visibility:visible;display:inline;overflow:visible;enable-background:accumulate;stroke-linecap:butt;stroke-linejoin:miter;stroke-miterlimit:4;stroke-opacity:1;stroke-dasharray:none;stroke-dashoffset:0"
       d="m 70.50472,842.71385 c -2.215944,-1.17071 -2.96803,-4.48036 -1.465711,-6.45 1.628326,-2.13485 4.67385,-2.57677 6.784772,-0.9845 l 0.636739,0.4803 -0.582719,0.81835 -0.58272,0.81836 -0.85083,-0.51878 c -1.136168,-0.69275 -2.122477,-0.65555 -3.016891,0.11379 -1.591354,1.36883 -0.593979,4.13678 1.490601,4.13678 0.525304,0 1.232177,-0.19406 1.570822,-0.43126 0.584446,-0.40936 0.649688,-0.3973 1.284492,0.23751 0.78444,0.78443 0.665305,1.07648 -0.729376,1.78799 -1.316519,0.67163 -3.25866,0.66798 -4.539179,-0.009 z m 6.667201,0.41524 c 0,-0.0658 0.819381,-2.00418 1.820856,-4.30747 l 1.820855,-4.18778 1.276383,0 1.276376,0 1.806639,4.2402 c 0.993647,2.3321 1.806632,4.27046 1.806632,4.30745 0,0.037 -0.53371,0.0672 -1.186029,0.0672 -1.049706,0 -1.233289,-0.0914 -1.597247,-0.79523 -0.39623,-0.76621 -0.477489,-0.79521 -2.227781,-0.79521 -1.768482,0 -1.825281,0.0211 -2.145952,0.79521 -0.295069,0.71236 -0.450346,0.79523 -1.49006,0.79523 -0.638369,0 -1.160672,-0.0538 -1.160672,-0.11966 z m 5.811967,-3.65765 c -0.01082,-0.18224 -0.235631,-0.80847 -0.4996,-1.39164 l -0.47995,-1.06029 -0.295617,0.72895 c -0.902249,2.22482 -0.922262,2.05432 0.241094,2.05432 0.676757,0 1.046703,-0.11853 1.034073,-0.33134 z m 5.497863,3.60059 c -0.09719,-0.0972 -0.176719,-2.06537 -0.176719,-4.37372 l 0,-4.19701 2.663903,0 c 3.721497,0 5.023252,0.77432 5.023252,2.98796 0,1.06485 -0.626444,2.5786 -1.067109,2.5786 -0.44876,0 -0.283381,0.53066 0.536956,1.72298 0.437375,0.63569 0.795225,1.22379 0.795225,1.30686 0,0.0831 -0.569088,0.15105 -1.264642,0.15105 -1.22558,0 -1.284759,-0.0368 -1.91625,-1.19284 -0.566916,-1.03779 -0.764301,-1.19283 -1.518642,-1.19283 -0.850868,0 -0.867026,0.0222 -0.867026,1.19283 l 0,1.19284 -1.016114,0 c -0.558867,0 -1.095646,-0.0795 -1.192834,-0.17672 z m 4.80071,-4.47711 c 1.281854,-0.89785 0.432787,-2.2381 -1.417858,-2.2381 l -1.173904,0 0,1.14866 c 0,0.63175 0.07952,1.22817 0.17672,1.32537 0.326519,0.32651 1.820397,0.18058 2.415042,-0.23593 z m 5.029121,4.50597 c -0.109344,-0.11306 -0.198808,-2.09423 -0.198808,-4.40258 l 0,-4.19701 2.609056,0 c 2.20326,0 2.7864,0.0938 3.74938,0.60302 2.86934,1.51735 2.89165,5.77686 0.039,7.44291 -0.66114,0.38613 -1.54793,0.55077 -3.44506,0.6396 -1.405107,0.0658 -2.6442,0.0271 -2.753543,-0.0859 z m 5.348518,-2.67117 c 0.61393,-0.78049 0.72344,-2.36633 0.20961,-3.03557 -0.50409,-0.65656 -1.39462,-1.03733 -2.42608,-1.03733 l -0.94519,0 0,2.38567 0,2.38566 1.30614,0 c 1.09531,0 1.3948,-0.11273 1.85552,-0.69843 z m 3.73696,2.62022 c 0.004,-0.10934 0.81684,-2.0477 1.80703,-4.30745 l 1.80036,-4.10865 1.28414,0 1.28415,0 1.68015,3.96326 c 0.92408,2.1798 1.68016,4.11815 1.68016,4.30746 0,0.22447 -0.36645,0.34419 -1.0535,0.34419 -0.90245,0 -1.11245,-0.11402 -1.46472,-0.79523 -0.39622,-0.76621 -0.47748,-0.79522 -2.22777,-0.79522 -1.76848,0 -1.82527,0.0211 -2.14594,0.79522 -0.29507,0.71236 -0.45035,0.79523 -1.49007,0.79523 -0.63837,0 -1.15767,-0.0895 -1.15399,-0.19881 z m 5.6775,-3.84357 c -0.10075,-0.32804 -0.32741,-0.95427 -0.5037,-1.39165 l -0.32052,-0.79521 -0.57446,1.29279 c -0.31596,0.71104 -0.57447,1.33728 -0.57447,1.39164 0,0.0543 0.48517,0.0988 1.07816,0.0988 0.99565,0 1.06414,-0.0457 0.89499,-0.59641 z m 5.63826,3.87828 c -0.10413,-0.10414 -0.18933,-2.07799 -0.18933,-4.38634 l 0,-4.19701 1.12656,0.013 c 1.10487,0.0127 1.1623,0.06 2.98208,2.45194 l 1.85553,2.43893 0.0762,-2.45193 0.0762,-2.45194 1.05035,0 1.05035,0 0,4.37373 0,4.37372 -0.99403,-1.4e-4 c -0.94266,-1.3e-4 -1.08992,-0.12649 -2.84955,-2.44523 l -1.85552,-2.4451 -0.13254,2.37897 -0.13253,2.37896 -0.93724,0.0789 c -0.51548,0.0434 -1.02243,-0.007 -1.12656,-0.11045 z m 12.14202,-0.44208 c -2.64934,-1.5005 -3.0077,-5.20418 -0.69208,-7.15264 2.90009,-2.44028 7.38488,-0.86357 7.87545,2.76874 0.49886,3.69376 -3.78542,6.30839 -7.18337,4.3839 z m 3.56418,-1.64234 c 1.46865,-0.75947 1.66077,-3.07932 0.34099,-4.11745 -1.91216,-1.5041 -4.45766,0.63931 -3.50128,2.94822 0.31399,0.75802 1.33607,1.52944 2.0558,1.55162 0.18948,0.006 0.6865,-0.16624 1.10449,-0.38239 z"
       id="path4073"
       inkscape:connector-curvature="0"
       sodipodi:nodetypes="csscccssscsscccscccssssssscccscssccscssssssssscscsscssscscssscccssscccsscscccsssssssccscsssscsccscccccccssccccccssssssscss" />
    <g
       id="g4189"
       transform="matrix(0.77887629,0,0,0.77887629,133.91997,219.88076)">
      <path
         sodipodi:nodetypes="sssssssscccssssscsssscccsssscscsscccssssscssssscccscssscsssscccs"
         inkscape:connector-curvature="0"
         id="path4114"
         d="m 304.35228,831.02795 c -0.59433,-0.32941 -1.00629,-1.04896 -1.01561,-1.77385 -0.004,-0.30367 1.0286,-3.2408 2.29445,-6.52691 1.26585,-3.28615 2.30154,-6.03219 2.30154,-6.10233 0,-0.0702 -0.9976,-0.12753 -2.21687,-0.12753 -2.18337,0 -2.22571,-0.009 -2.80187,-0.58501 -0.45881,-0.45881 -0.58501,-0.76435 -0.58501,-1.41633 0,-0.65199 0.1262,-0.95753 0.58501,-1.41634 l 0.58501,-0.58501 2.8673,-0.003 c 1.57701,-10e-4 2.97245,-0.07 3.10096,-0.15171 0.18479,-0.11756 1.26734,-2.65546 1.26734,-2.97113 0,-0.042 -0.83305,-0.0782 -1.85124,-0.0807 -1.45113,-0.003 -1.94349,-0.0792 -2.27811,-0.35023 -0.88936,-0.72041 -1.14102,-1.97689 -0.56165,-2.80407 0.60056,-0.8574 1.30093,-1.04389 3.93057,-1.04657 l 2.46157,-0.002 0.74024,-1.94881 c 3.91247,-10.30036 5.17858,-13.38573 5.66569,-13.80673 0.70295,-0.60755 1.89684,-0.60755 2.59466,0 0.50185,0.43694 1.51469,2.82615 5.30257,12.50837 l 1.27232,3.25218 2.68928,0 2.68927,0 0.68045,0.68045 c 0.94672,0.94673 0.94672,1.89519 0,2.84191 -0.67488,0.67488 -0.69548,0.68045 -2.51516,0.68045 -1.81102,0 -1.83288,0.005 -1.69369,0.45031 0.31149,0.9946 1.20191,2.65327 1.437,2.67679 0.13759,0.0137 1.4729,0.0363 2.96736,0.05 l 2.71722,0.025 0.58499,0.58501 c 0.78294,0.78294 0.81005,1.91872 0.0669,2.80192 l -0.51812,0.61576 -2.20538,0 -2.20538,0 0.13018,0.51866 c 0.0716,0.28527 1.11705,3.00872 2.32324,6.05212 2.41977,6.10548 2.58625,6.86345 1.70181,7.74789 -0.68867,0.68867 -2.26619,0.70171 -2.91835,0.0241 -0.25232,-0.26216 -1.64821,-3.48937 -3.18128,-7.35492 l -2.73169,-6.88779 -7.62049,-0.0524 c -5.94422,-0.0409 -7.66535,0.003 -7.82436,0.20013 -0.11213,0.13889 -1.01729,2.36893 -2.01146,4.95567 -3.53104,9.18738 -3.4055,8.89854 -4.02791,9.26622 -0.6835,0.40375 -1.53222,0.42733 -2.19329,0.061 z m 31.90842,-0.81235 c -8.74118,19.38694 -4.37059,9.69347 0,0 z m -10.04359,-17.87609 c 0.0527,-0.0853 -0.17577,-0.80581 -0.50778,-1.60107 l -0.60366,-1.44593 -4.86262,0 c -3.69995,0 -4.88803,0.0598 -4.96895,0.25016 -0.67245,1.58191 -1.07602,2.7464 -0.98379,2.83863 0.17489,0.17489 11.8181,0.13409 11.9268,-0.0418 z m -4.35835,-11.34024 c -0.88983,-2.24973 -1.67855,-4.02842 -1.75272,-3.95264 -0.0742,0.0757 -0.57878,1.30855 -1.12137,2.73951 -0.54259,1.43096 -1.22086,3.20965 -1.50728,3.95264 l -0.52076,1.35091 3.26,0 3.25999,0 z"
         style="opacity:0.8;color:#000000;fill:#ffffff;fill-opacity:1;fill-rule:nonzero;stroke:none;stroke-width:1;marker:none;visibility:visible;display:inline;overflow:visible;enable-background:accumulate" />
      <g
         transform="matrix(1.5101781,0,0,1.5101781,-153.39906,748.7362)"
         style="font-size:40px;font-style:normal;font-variant:normal;font-weight:normal;font-stretch:normal;line-height:125%;letter-spacing:0px;word-spacing:0px;opacity:0.8;color:#000000;fill:#ffffff;fill-opacity:1;fill-rule:nonzero;stroke:none;stroke-width:1;marker:none;visibility:visible;display:inline;overflow:visible;enable-background:accumulate;font-family:Comfortaa;-inkscape-font-specification:Comfortaa"
         id="flowRoot4175">
        <path
           d="m 297.39453,26.577901 0.23438,0 c 0.88541,0.19534 1.32811,0.618517 1.32812,1.269531 l 0,25.390625 c -0.16928,0.937501 -0.63803,1.40625 -1.40625,1.40625 l -0.0781,0 c -0.93751,-0.195312 -1.40626,-0.611978 -1.40625,-1.25 l 0,-23.398437 c -1.32813,0.442732 -2.19402,0.664086 -2.59766,0.664062 -0.61198,2.4e-5 -1.02865,-0.449194 -1.25,-1.347656 l 0,-0.371094 c 0,-0.72914 0.98958,-1.295546 2.96875,-1.699218 l 2.20703,-0.664063"
           style="marker:none"
           id="path4197" />
      </g>
    </g>
  </g>
</svg>
