<?xml version="1.0" encoding="UTF-8" standalone="no"?>
<!-- Created with Inkscape (http://www.inkscape.org/) -->

<svg
   xmlns:dc="http://purl.org/dc/elements/1.1/"
   xmlns:cc="http://creativecommons.org/ns#"
   xmlns:rdf="http://www.w3.org/1999/02/22-rdf-syntax-ns#"
   xmlns:svg="http://www.w3.org/2000/svg"
   xmlns="http://www.w3.org/2000/svg"
   xmlns:xlink="http://www.w3.org/1999/xlink"
   xmlns:sodipodi="http://sodipodi.sourceforge.net/DTD/sodipodi-0.dtd"
   xmlns:inkscape="http://www.inkscape.org/namespaces/inkscape"
   width="460.62991"
   height="283.46457"
   id="svg2"
   version="1.1"
   inkscape:version="0.48.5 r10040"
   sodipodi:docname="banknote_bg_template.svg"
   inkscape:export-filename="/home/mammique/Documents/daat/banknote/cryptos/dash.png"
   inkscape:export-xdpi="156.31"
   inkscape:export-ydpi="156.31">
  <defs
     id="defs4">
    <linearGradient
       id="linearGradient4925">
      <stop
         style="stop-color:#bd9800;stop-opacity:1;"
         offset="0"
         id="stop4927" />
      <stop
         id="stop3784"
         offset="0.51732481"
         style="stop-color:#ffcc04;stop-opacity:1;" />
      <stop
         offset="1"
         id="stop4929"
         style="stop-color:#a98500;stop-opacity:1;" />
    </linearGradient>
    <linearGradient
       id="linearGradient4835">
      <stop
         style="stop-color:#000000;stop-opacity:0.61572052"
         offset="0"
         id="stop4837" />
      <stop
         style="stop-color:#000000;stop-opacity:0;"
         offset="1"
         id="stop4839" />
    </linearGradient>
    <linearGradient
       inkscape:collect="always"
       id="linearGradient4531">
      <stop
         style="stop-color:#ffffff;stop-opacity:1;"
         offset="0"
         id="stop4533" />
      <stop
         style="stop-color:#ffffff;stop-opacity:0;"
         offset="1"
         id="stop4535" />
    </linearGradient>
    <clipPath
       clipPathUnits="userSpaceOnUse"
       id="clipPath5978">
      <rect
         style="color:#000000;fill:#cccccc;fill-opacity:1;fill-rule:nonzero;stroke:#003a00;stroke-width:0.89999998;stroke-linecap:butt;stroke-linejoin:miter;stroke-miterlimit:4;stroke-opacity:1;stroke-dasharray:none;stroke-dashoffset:0;marker:none;visibility:visible;display:inline;overflow:visible;enable-background:accumulate"
         id="rect5980"
         width="173.74623"
         height="1608.1628"
         x="610.13214"
         y="-378.01382"
         transform="matrix(0,-1,1,0,0,0)" />
    </clipPath>
    <inkscape:perspective
       id="perspective2497"
       inkscape:persp3d-origin="372.04724 : 350.78739 : 1"
       inkscape:vp_z="744.09448 : 526.18109 : 1"
       inkscape:vp_y="0 : 1000 : 0"
       inkscape:vp_x="0 : 526.18109 : 1"
       sodipodi:type="inkscape:persp3d" />
    <linearGradient
       inkscape:collect="always"
       xlink:href="#linearGradient4531"
       id="linearGradient4823"
       gradientUnits="userSpaceOnUse"
       x1="182.81697"
       y1="175.83376"
       x2="183.58928"
       y2="-16.309107"
       gradientTransform="translate(53.033008,825.69937)" />
    <radialGradient
       inkscape:collect="always"
       xlink:href="#linearGradient4835"
       id="radialGradient4845"
       cx="7.3256431"
       cy="198.2952"
       fx="7.3256431"
       fy="198.2952"
       r="109.27257"
       gradientTransform="matrix(0.19829552,0.15553474,-0.16582027,0.21140881,93.302602,945.5672)"
       gradientUnits="userSpaceOnUse" />
    <linearGradient
       id="linearGradient4925-6">
      <stop
         style="stop-color:#bd9800;stop-opacity:1;"
         offset="0"
         id="stop4927-7" />
      <stop
         id="stop3784-5"
         offset="0.5"
         style="stop-color:#ffcc04;stop-opacity:1;" />
      <stop
         offset="1"
         id="stop4929-3"
         style="stop-color:#a98500;stop-opacity:1;" />
    </linearGradient>
    <linearGradient
       gradientTransform="translate(-17.649337,-11.359598)"
       y2="38.317909"
       x2="313.61914"
       y1="142.8687"
       x1="50.479298"
       gradientUnits="userSpaceOnUse"
       id="linearGradient3802"
       xlink:href="#linearGradient4925-6"
       inkscape:collect="always" />
    <linearGradient
       id="linearGradient4925-2">
      <stop
         style="stop-color:#bd9800;stop-opacity:1;"
         offset="0"
         id="stop4927-3" />
      <stop
         id="stop3784-7"
         offset="0.38554054"
         style="stop-color:#ffcc04;stop-opacity:1;" />
      <stop
         offset="1"
         id="stop4929-5"
         style="stop-color:#a98500;stop-opacity:1;" />
    </linearGradient>
    <linearGradient
       y2="38.317909"
       x2="313.61914"
       y1="83.269699"
       x1="19.16457"
       gradientTransform="translate(-17.649337,-11.359581)"
       gradientUnits="userSpaceOnUse"
       id="linearGradient4077"
       xlink:href="#linearGradient4925-2"
       inkscape:collect="always" />
    <linearGradient
       id="linearGradient4925-28">
      <stop
         style="stop-color:#bd9800;stop-opacity:1;"
         offset="0"
         id="stop4927-9" />
      <stop
         id="stop3784-73"
         offset="0.51732481"
         style="stop-color:#ffcc04;stop-opacity:1;" />
      <stop
         offset="1"
         id="stop4929-6"
         style="stop-color:#a98500;stop-opacity:1;" />
    </linearGradient>
    <linearGradient
       y2="19.746481"
       x2="180.76199"
       y1="166.12685"
       x1="180.59314"
       gradientTransform="translate(-17.649337,-11.359581)"
       gradientUnits="userSpaceOnUse"
       id="linearGradient4113"
       xlink:href="#linearGradient4925-28"
       inkscape:collect="always" />
    <linearGradient
       id="linearGradient4925-7">
      <stop
         style="stop-color:#bd9800;stop-opacity:1;"
         offset="0"
         id="stop4927-5" />
      <stop
         id="stop3784-3"
         offset="0.51732481"
         style="stop-color:#ffcc04;stop-opacity:1;" />
      <stop
         offset="1"
         id="stop4929-56"
         style="stop-color:#a98500;stop-opacity:1;" />
    </linearGradient>
    <linearGradient
       y2="19.746481"
       x2="180.76199"
       y1="166.12685"
       x1="180.59314"
       gradientTransform="translate(-17.649337,-11.359581)"
       gradientUnits="userSpaceOnUse"
       id="linearGradient3327"
       xlink:href="#linearGradient4925-7"
       inkscape:collect="always" />
    <linearGradient
       id="linearGradient4925-7-1">
      <stop
         style="stop-color:#bd9800;stop-opacity:1;"
         offset="0"
         id="stop4927-5-2" />
      <stop
         id="stop3784-3-7"
         offset="0.51732481"
         style="stop-color:#ffcc04;stop-opacity:1;" />
      <stop
         offset="1"
         id="stop4929-56-0"
         style="stop-color:#a98500;stop-opacity:1;" />
    </linearGradient>
    <linearGradient
       y2="19.032196"
       x2="138.61914"
       y1="166.12685"
       x1="180.59314"
       gradientTransform="translate(-17.649337,-7.9568844)"
       gradientUnits="userSpaceOnUse"
       id="linearGradient3455"
       xlink:href="#linearGradient4925-7-1"
       inkscape:collect="always" />
    <linearGradient
       inkscape:collect="always"
       xlink:href="#linearGradient4925-7-6"
       id="linearGradient3350-3"
       gradientUnits="userSpaceOnUse"
       gradientTransform="translate(54.548237,823.78353)"
       x1="180.59314"
       y1="166.12685"
       x2="138.61914"
       y2="19.032196" />
    <linearGradient
       id="linearGradient4925-7-6">
      <stop
         style="stop-color:#bd9800;stop-opacity:1;"
         offset="0"
         id="stop4927-5-0" />
      <stop
         id="stop3784-3-6"
         offset="0.51732481"
         style="stop-color:#ffcc04;stop-opacity:1;" />
      <stop
         offset="1"
         id="stop4929-56-2"
         style="stop-color:#a98500;stop-opacity:1;" />
    </linearGradient>
    <linearGradient
       y2="19.032196"
       x2="138.61914"
       y1="166.12685"
       x1="180.59314"
       gradientTransform="translate(-17.649337,-7.9568844)"
       gradientUnits="userSpaceOnUse"
       id="linearGradient3491"
       xlink:href="#linearGradient4925-7-6"
       inkscape:collect="always" />
    <linearGradient
       id="linearGradient4835-7">
      <stop
         style="stop-color:#000000;stop-opacity:0.61572052"
         offset="0"
         id="stop4837-5" />
      <stop
         style="stop-color:#000000;stop-opacity:0;"
         offset="1"
         id="stop4839-9" />
    </linearGradient>
    <radialGradient
       r="109.27257"
       fy="198.2952"
       fx="7.3256431"
       cy="198.2952"
       cx="7.3256431"
       gradientTransform="matrix(0.19829552,0.15553474,-0.16582027,0.21140881,132.487,52.51516)"
       gradientUnits="userSpaceOnUse"
       id="radialGradient3545"
       xlink:href="#linearGradient4835-7"
       inkscape:collect="always" />
    <linearGradient
       id="linearGradient4835-8">
      <stop
         style="stop-color:#000000;stop-opacity:0.61572052"
         offset="0"
         id="stop4837-9" />
      <stop
         style="stop-color:#000000;stop-opacity:0;"
         offset="1"
         id="stop4839-7" />
    </linearGradient>
    <radialGradient
       r="109.27257"
       fy="198.2952"
       fx="7.3256431"
       cy="198.2952"
       cx="7.3256431"
       gradientTransform="matrix(0.19829552,0.15553474,-0.16582027,0.21140881,132.487,52.51516)"
       gradientUnits="userSpaceOnUse"
       id="radialGradient3578"
       xlink:href="#linearGradient4835-8"
       inkscape:collect="always" />
    <linearGradient
       inkscape:collect="always"
       xlink:href="#linearGradient4925-7-6-1"
       id="linearGradient3350-3-6"
       gradientUnits="userSpaceOnUse"
       gradientTransform="translate(54.548237,823.78353)"
       x1="180.59314"
       y1="166.12685"
       x2="138.61914"
       y2="19.032196" />
    <linearGradient
       id="linearGradient4925-7-6-1">
      <stop
         style="stop-color:#bd9800;stop-opacity:1;"
         offset="0"
         id="stop4927-5-0-2" />
      <stop
         id="stop3784-3-6-9"
         offset="0.51732481"
         style="stop-color:#ffcc04;stop-opacity:1;" />
      <stop
         offset="1"
         id="stop4929-56-2-3"
         style="stop-color:#a98500;stop-opacity:1;" />
    </linearGradient>
    <linearGradient
       y2="19.032196"
       x2="138.61914"
       y1="166.12685"
       x1="180.59314"
       gradientTransform="translate(-17.649337,-14.676051)"
       gradientUnits="userSpaceOnUse"
       id="linearGradient3612"
       xlink:href="#linearGradient4925-7-6-1"
       inkscape:collect="always" />
  </defs>
  <sodipodi:namedview
     id="base"
     pagecolor="#5271a5"
     bordercolor="#666666"
     borderopacity="1.0"
     inkscape:pageopacity="1"
     inkscape:pageshadow="2"
     inkscape:zoom="1.979899"
     inkscape:cx="130.86135"
     inkscape:cy="141.98826"
     inkscape:document-units="px"
     inkscape:current-layer="layer1"
     showgrid="false"
     units="mm"
     inkscape:window-width="1918"
     inkscape:window-height="1059"
     inkscape:window-x="1366"
     inkscape:window-y="19"
     inkscape:window-maximized="1"
     showguides="true"
     inkscape:guide-bbox="true" />
  <metadata
     id="metadata7">
    <rdf:RDF>
      <cc:Work
         rdf:about="">
        <dc:format>image/svg+xml</dc:format>
        <dc:type
           rdf:resource="http://purl.org/dc/dcmitype/StillImage" />
        <dc:title></dc:title>
      </cc:Work>
    </rdf:RDF>
  </metadata>
  <g
     inkscape:label="Calque 1"
     inkscape:groupmode="layer"
     id="layer1"
     transform="translate(0,-768.89763)">
    <g
       id="g3937">
      <g
         transform="matrix(0.359885,0,0,0.359885,170.02817,659.06272)"
         id="g3933">
        <path
           style="fill:#247fa8;fill-opacity:1"
           d="m -93.5625,-151.90625 0,11.5 0,11.5 4.28125,0 c 2.35945,0 6.97195,0.69798 10.25,1.53125 22.30146,5.66894 40.3132,24.15094 44.96875,46.125 7.78612,36.7504 -18.48147,71.45425 -56,74 -23.31432,1.58195 -46.4127,-11.45304 -57.28125,-32.34375 -4.31988,-8.30337 -7.19305,-18.05138 -7.21875,-24.5625 l 0,-3.75 -11.59375,0 -11.5625,0 0.6875,6.75 c 3.81201,36.54187 28.69349,65.7136 63.28125,74.21875 10.01141,2.46182 28.49278,2.67805 38.34375,0.4375 27.00689,-6.14259 49.89405,-25.76806 59.6875,-51.1875 4.0921,-10.62126 5.48155,-18.82702 5.375,-31.71875 -0.27998,-33.87672 -20.7878,-63.75183 -52.46875,-76.4375 -7.09706,-2.8418 -21.84412,-6.0625 -27.875,-6.0625 z"
           id="path3156"
           transform="translate(0,768.89763)"
           inkscape:connector-curvature="0"
           sodipodi:nodetypes="cccssssscccccssssssc" />
        <path
           inkscape:connector-curvature="0"
           id="path3158"
           d="m -104.30878,748.49093 c -17.47587,-3.79678 -32.06312,-18.10443 -36.73147,-36.02744 -1.26463,-4.85526 -1.53119,-13.67595 -1.53119,-50.66855 l 0,-44.7899 13.45216,0 13.45215,0 0.29785,44.75 0.29784,44.75 c 1.72484,6.53212 4.66259,8.92022 7.5482,10.87777 3.58884,2.39128 7.29185,4.12223 14.042627,4.12223 5.056823,0 8.15211,-0.29183 12.01839,-3.00915 15.07301,-10.59372 10.65735,-34.03405 -7.27717,-38.63053 l -4.83205,-1.23842 0,-13.31095 0,-13.31095 3.2899,0 c 4.83959,0 14.40327,2.70818 19.65209,5.56494 14.62053,7.95749 24.14443,22.56084 25.67716,39.37175 2.16403,23.73498 -14.84055,46.61241 -38.34934,51.59403 -8.21631,1.74107 -12.8323,1.73122 -21.007147,-0.0448 z m 10.737337,-47.48589 0,-15.0381 2.75,0.61728 c 6.98861,1.56873 11.48077,7.21125 11.48077,14.42082 0,7.20957 -4.49216,12.85209 -11.48077,14.42082 l -2.75,0.61728 z"
           style="fill:#134571;fill-opacity:1"
           sodipodi:nodetypes="cssccccccssscccssssccccssscc" />
      </g>
    </g>
    <path
       id="path3163"
       d="m 108.71159,834.3196 c -1.6067,-0.0325 -2.18706,0.1463 -2.9631,0.66014 -2.67041,1.76813 -2.5567,6.07238 0.20254,7.53151 1.22002,0.64516 3.04096,0.73639 4.07332,0.20254 1.0122,-0.52342 2.03323,-1.81491 1.69534,-2.14544 -0.19952,-0.19517 -0.41138,-0.10243 -0.79515,0.36008 -1.0643,1.28265 -2.60045,1.55037 -3.60823,0.63013 -0.77338,-0.70621 -1.40572,-2.70731 -1.20024,-3.78827 0.6119,-3.21889 3.04486,-3.86256 4.41838,-1.17023 0.26498,0.51938 0.58331,0.93769 0.71265,0.93769 0.12934,0 0.24004,-0.68521 0.24004,-1.53031 l 0,-1.53781 -0.78015,-0.0525 c -0.80855,-0.0512 -1.45983,-0.0867 -1.9954,-0.0975 z m -23.937308,0.075 -0.727646,0.075 c -0.705067,0.0701 -0.793032,0.20595 -2.212944,3.66824 -1.157702,2.82293 -1.614214,3.67851 -2.115425,3.96079 -0.351618,0.19805 -0.637392,0.44109 -0.637628,0.54011 -2.37e-4,0.099 0.810163,0.18004 1.800361,0.18004 1.776617,0 2.368625,-0.28437 1.200241,-0.57762 -0.612256,-0.15366 -0.719988,-0.51568 -0.45009,-1.5228 0.130637,-0.48748 0.288534,-0.54011 1.650332,-0.54011 1.476548,0 1.519966,0.0178 1.777856,0.75765 0.354619,1.01726 0.338339,1.10633 -0.217543,1.28276 -1.095779,0.34778 -0.33878,0.60012 1.800362,0.60012 2.291162,0 2.760491,-0.18165 1.710343,-0.66014 -0.437543,-0.19935 -0.90707,-1.11166 -2.070416,-4.0133 z m -13.510212,0.0225 c -2.957497,0 -3.694639,0.22241 -2.385479,0.72015 0.5994,0.22787 0.60012,0.23305 0.60012,3.48069 0,3.23558 -0.003,3.25363 -0.60012,3.52571 -0.330067,0.15039 -0.600121,0.37938 -0.600121,0.5026 0,0.38714 6.753075,0.1053 7.381483,-0.30756 0.71535,-0.46998 1.105363,-1.66432 0.802661,-2.4605 -0.271881,-0.7151 -1.135719,-1.38028 -1.792861,-1.38028 -0.353825,0 -0.269431,-0.12844 0.352572,-0.5476 1.084957,-0.73116 1.384619,-1.61456 0.840168,-2.4455 -0.605963,-0.92481 -1.291473,-1.08771 -4.598423,-1.08771 z m 27.860597,0 c -1.377958,0 -1.800364,0.0819 -1.800364,0.33757 0,0.18372 0.264564,0.39776 0.592619,0.4801 0.73634,0.1848 0.888761,0.74524 0.79516,2.89558 l -0.06751,1.65783 -2.160434,-2.67804 -2.160434,-2.68554 -1.620325,0 c -1.281711,-0.003 -1.620326,0.0677 -1.620326,0.35257 0,0.19804 0.12292,0.36008 0.277556,0.36008 0.154637,0 0.478702,0.17907 0.720144,0.39757 0.3784,0.34245 0.442589,0.79509 0.442589,3.25565 l 0,2.85058 -0.720144,0.41258 c -0.395244,0.2249 -0.719424,0.4861 -0.720145,0.58512 -7.2e-4,0.099 0.810164,0.18003 1.800362,0.18003 1.820506,0 2.324754,-0.28901 1.230247,-0.70514 -0.681607,-0.25914 -0.870174,-1.03631 -0.870174,-3.54821 0,-2.18254 -0.106438,-2.23944 2.903082,1.53031 1.691675,2.11901 2.311069,2.72304 2.760556,2.72304 l 0.57761,0 0,-3.21814 c 0,-3.52666 0.197554,-4.46339 0.952698,-4.46339 0.272,0 0.4876,-0.15857 0.4876,-0.36008 0,-0.28806 -0.36007,-0.36007 -1.800363,-0.36007 z m 19.736463,0 c -0.50828,0.0101 -0.60597,0.32794 -2.4605,4.76346 -0.8361,1.99973 -1.28403,2.78727 -1.70284,2.97809 -0.31327,0.14274 -0.57011,0.35426 -0.57011,0.4651 0,0.11083 0.75615,0.19503 1.68034,0.19503 1.74443,0 2.09251,-0.21323 1.09522,-0.66763 -0.53913,-0.24564 -0.55785,-0.32666 -0.31507,-1.11772 l 0.25505,-0.85518 1.4778,0 1.4703,0 0.31506,0.87018 c 0.26233,0.72547 0.25716,0.90778 -0.015,1.08022 -0.17947,0.11371 -0.40358,0.20812 -0.50261,0.21004 -0.099,0.002 -0.18003,0.10802 -0.18003,0.24005 0,0.14319 0.92018,0.24004 2.28046,0.24004 2.14211,0 2.8925,-0.2511 1.79285,-0.60011 -0.57968,-0.18399 -0.99391,-0.98659 -2.5205,-4.86098 -1.10806,-2.81221 -1.19148,-2.94059 -1.85287,-2.94059 -0.0957,0 -0.17494,-9.7e-4 -0.24755,0 z m -46.509342,0.72015 c 1.343065,0 1.886306,2.0199 0.712643,2.64803 -0.240184,0.12853 -0.657454,0.23254 -0.930187,0.23254 -0.44604,0 -0.495098,-0.14475 -0.495098,-1.44028 0,-1.43783 -7.21e-4,-1.44029 0.712642,-1.44029 z m 45.946732,1.57531 0.54011,1.19274 c 0.29607,0.65599 0.547,1.27375 0.5551,1.37278 0.008,0.099 -0.48697,0.18003 -1.09521,0.18003 -0.78835,0 -1.0678,-0.0862 -0.9827,-0.30006 0.0657,-0.16503 0.3092,-0.7828 0.54761,-1.37277 z m -35.047044,0.33756 c 0.217358,0.008 0.471653,0.67243 1.04271,2.10793 0.08499,0.21365 -0.195365,0.30006 -0.975196,0.30006 l -1.09522,0 0.337568,-0.9602 c 0.333156,-0.94426 0.498352,-1.4546 0.690138,-1.44779 z m -10.944697,1.68784 c 1.063011,0 1.732849,0.61563 1.732849,1.59032 0,0.46329 -0.110879,1.0574 -0.247551,1.31277 -0.245307,0.45836 -1.630285,0.66518 -1.9954,0.30006 -0.08801,-0.088 -0.157531,-0.84417 -0.157531,-1.68034 0,-1.50213 0.0089,-1.52281 0.667633,-1.52281 z"
       style="opacity:0.8;fill:#ffffff"
       inkscape:connector-curvature="0"
       sodipodi:nodetypes="sssssssssssccsccsscssssssssccscsssssssssssccccccsssscccssssscsssssssssscccccscssssssssssscccssccsssccsssssss" />
    <g
       id="g3958"
       transform="matrix(0.57130095,0,0,0.57130095,224.68398,342.51548)">
      <g
         style="opacity:0.8;fill:#ffffff"
         transform="translate(135.86552,-20.266073)"
         id="g3942">
        <g
           style="fill:#ffffff"
           transform="matrix(0.359885,0,0,0.359885,170.02817,659.06272)"
           id="g3944">
          <path
             style="fill:#ffffff;fill-opacity:1"
             d="m -93.5625,-151.90625 0,11.5 0,11.5 4.28125,0 c 2.35945,0 6.97195,0.69798 10.25,1.53125 22.30146,5.66894 40.3132,24.15094 44.96875,46.125 7.78612,36.7504 -18.48147,71.45425 -56,74 -23.31432,1.58195 -46.4127,-11.45304 -57.28125,-32.34375 -4.31988,-8.30337 -7.19305,-18.05138 -7.21875,-24.5625 l 0,-3.75 -11.59375,0 -11.5625,0 0.6875,6.75 c 3.81201,36.54187 28.69349,65.7136 63.28125,74.21875 10.01141,2.46182 28.49278,2.67805 38.34375,0.4375 27.00689,-6.14259 49.89405,-25.76806 59.6875,-51.1875 4.0921,-10.62126 5.48155,-18.82702 5.375,-31.71875 -0.27998,-33.87672 -20.7878,-63.75183 -52.46875,-76.4375 -7.09706,-2.8418 -21.84412,-6.0625 -27.875,-6.0625 z"
             id="path3946"
             transform="translate(0,768.89763)"
             inkscape:connector-curvature="0"
             sodipodi:nodetypes="cccssssscccccssssssc" />
          <path
             inkscape:connector-curvature="0"
             id="path3948"
             d="m -104.30878,748.49093 c -17.47587,-3.79678 -32.06312,-18.10443 -36.73147,-36.02744 -1.26463,-4.85526 -1.53119,-13.67595 -1.53119,-50.66855 l 0,-44.7899 13.45216,0 13.45215,0 0.29785,44.75 0.29784,44.75 c 1.72484,6.53212 4.66259,8.92022 7.5482,10.87777 3.58884,2.39128 7.29185,4.12223 14.042627,4.12223 5.056823,0 8.15211,-0.29183 12.01839,-3.00915 15.07301,-10.59372 10.65735,-34.03405 -7.27717,-38.63053 l -4.83205,-1.23842 0,-13.31095 0,-13.31095 3.2899,0 c 4.83959,0 14.40327,2.70818 19.65209,5.56494 14.62053,7.95749 24.14443,22.56084 25.67716,39.37175 2.16403,23.73498 -14.84055,46.61241 -38.34934,51.59403 -8.21631,1.74107 -12.8323,1.73122 -21.007147,-0.0448 z m 10.737337,-47.48589 0,-15.0381 2.75,0.61728 c 6.98861,1.56873 11.48077,7.21125 11.48077,14.42082 0,7.20957 -4.49216,12.85209 -11.48077,14.42082 l -2.75,0.61728 z"
             style="fill:#ffffff;fill-opacity:1"
             sodipodi:nodetypes="cssccccccssscccssssccccssscc" />
        </g>
      </g>
      <g
         transform="matrix(1.6152321,0,0,2.2058003,374.01313,749.35086)"
         style="font-size:40px;font-style:normal;font-variant:normal;font-weight:bold;font-stretch:normal;line-height:125%;letter-spacing:0px;word-spacing:0px;opacity:0.8;fill:#ffffff;fill-opacity:1;stroke:none;font-family:URW Bookman L;-inkscape-font-specification:URW Bookman L Bold"
         id="flowRoot3950">
        <path
           d="m -87.9625,50.544839 -1.92,0 c -0.24,0.04 -0.52,0.12 -0.68,0.16 -3.679996,0.839999 -4.280002,0.96 -6,1.08 -2.759997,0.16 -2.76,0.16 -2.88,0.16 -0.16,0 -0.36,0 -0.64,-0.04 l 0,3.12 0.56,0.04 c 4.479996,0.24 4.56,0.280003 4.56,2.88 l 0,13.48 c 0,2.399998 -0.400004,2.72 -4.08,3 l -1.04,0.08 0,3.28 17.24,0 0,-3.28 -0.92,-0.08 c -0.08,0 -0.48,-0.04 -0.88,-0.08 -2.799997,-0.2 -3.32,-0.640002 -3.32,-2.92 l 0,-20.88"
           style=""
           id="path3969" />
      </g>
    </g>
  </g>
</svg>
