<?xml version="1.0" encoding="UTF-8" standalone="no"?>
<!-- Created with Inkscape (http://www.inkscape.org/) -->

<svg
   xmlns:dc="http://purl.org/dc/elements/1.1/"
   xmlns:cc="http://creativecommons.org/ns#"
   xmlns:rdf="http://www.w3.org/1999/02/22-rdf-syntax-ns#"
   xmlns:svg="http://www.w3.org/2000/svg"
   xmlns="http://www.w3.org/2000/svg"
   xmlns:xlink="http://www.w3.org/1999/xlink"
   xmlns:sodipodi="http://sodipodi.sourceforge.net/DTD/sodipodi-0.dtd"
   xmlns:inkscape="http://www.inkscape.org/namespaces/inkscape"
   width="460.62991"
   height="283.46457"
   id="svg2"
   version="1.1"
   inkscape:version="0.48.5 r10040"
   sodipodi:docname="bch.svg"
   inkscape:export-filename="/home/mammique/Documents/daat/banknote/cryptos/dash.png"
   inkscape:export-xdpi="156.31"
   inkscape:export-ydpi="156.31">
  <defs
     id="defs4">
    <linearGradient
       id="linearGradient4925">
      <stop
         style="stop-color:#bd9800;stop-opacity:1;"
         offset="0"
         id="stop4927" />
      <stop
         id="stop3784"
         offset="0.51732481"
         style="stop-color:#ffcc04;stop-opacity:1;" />
      <stop
         offset="1"
         id="stop4929"
         style="stop-color:#a98500;stop-opacity:1;" />
    </linearGradient>
    <linearGradient
       id="linearGradient4835">
      <stop
         style="stop-color:#000000;stop-opacity:0.61572052"
         offset="0"
         id="stop4837" />
      <stop
         style="stop-color:#000000;stop-opacity:0;"
         offset="1"
         id="stop4839" />
    </linearGradient>
    <clipPath
       clipPathUnits="userSpaceOnUse"
       id="clipPath5978">
      <rect
         style="color:#000000;fill:#cccccc;fill-opacity:1;fill-rule:nonzero;stroke:#003a00;stroke-width:0.89999998;stroke-linecap:butt;stroke-linejoin:miter;stroke-miterlimit:4;stroke-opacity:1;stroke-dasharray:none;stroke-dashoffset:0;marker:none;visibility:visible;display:inline;overflow:visible;enable-background:accumulate"
         id="rect5980"
         width="173.74623"
         height="1608.1628"
         x="610.13214"
         y="-378.01382"
         transform="matrix(0,-1,1,0,0,0)" />
    </clipPath>
    <inkscape:perspective
       id="perspective2497"
       inkscape:persp3d-origin="372.04724 : 350.78739 : 1"
       inkscape:vp_z="744.09448 : 526.18109 : 1"
       inkscape:vp_y="0 : 1000 : 0"
       inkscape:vp_x="0 : 526.18109 : 1"
       sodipodi:type="inkscape:persp3d" />
    <linearGradient
       id="linearGradient4925-6">
      <stop
         style="stop-color:#bd9800;stop-opacity:1;"
         offset="0"
         id="stop4927-7" />
      <stop
         id="stop3784-5"
         offset="0.5"
         style="stop-color:#ffcc04;stop-opacity:1;" />
      <stop
         offset="1"
         id="stop4929-3"
         style="stop-color:#a98500;stop-opacity:1;" />
    </linearGradient>
    <linearGradient
       gradientTransform="translate(-17.649337,-11.359598)"
       y2="38.317909"
       x2="313.61914"
       y1="142.8687"
       x1="50.479298"
       gradientUnits="userSpaceOnUse"
       id="linearGradient3802"
       xlink:href="#linearGradient4925-6"
       inkscape:collect="always" />
    <linearGradient
       id="linearGradient4925-2">
      <stop
         style="stop-color:#bd9800;stop-opacity:1;"
         offset="0"
         id="stop4927-3" />
      <stop
         id="stop3784-7"
         offset="0.38554054"
         style="stop-color:#ffcc04;stop-opacity:1;" />
      <stop
         offset="1"
         id="stop4929-5"
         style="stop-color:#a98500;stop-opacity:1;" />
    </linearGradient>
    <linearGradient
       y2="38.317909"
       x2="313.61914"
       y1="83.269699"
       x1="19.16457"
       gradientTransform="translate(-17.649337,-11.359581)"
       gradientUnits="userSpaceOnUse"
       id="linearGradient4077"
       xlink:href="#linearGradient4925-2"
       inkscape:collect="always" />
    <linearGradient
       id="linearGradient4925-28">
      <stop
         style="stop-color:#bd9800;stop-opacity:1;"
         offset="0"
         id="stop4927-9" />
      <stop
         id="stop3784-73"
         offset="0.51732481"
         style="stop-color:#ffcc04;stop-opacity:1;" />
      <stop
         offset="1"
         id="stop4929-6"
         style="stop-color:#a98500;stop-opacity:1;" />
    </linearGradient>
    <linearGradient
       y2="19.746481"
       x2="180.76199"
       y1="166.12685"
       x1="180.59314"
       gradientTransform="translate(-17.649337,-11.359581)"
       gradientUnits="userSpaceOnUse"
       id="linearGradient4113"
       xlink:href="#linearGradient4925-28"
       inkscape:collect="always" />
    <linearGradient
       id="linearGradient4925-7">
      <stop
         style="stop-color:#bd9800;stop-opacity:1;"
         offset="0"
         id="stop4927-5" />
      <stop
         id="stop3784-3"
         offset="0.51732481"
         style="stop-color:#ffcc04;stop-opacity:1;" />
      <stop
         offset="1"
         id="stop4929-56"
         style="stop-color:#a98500;stop-opacity:1;" />
    </linearGradient>
    <linearGradient
       y2="19.746481"
       x2="180.76199"
       y1="166.12685"
       x1="180.59314"
       gradientTransform="translate(-17.649337,-11.359581)"
       gradientUnits="userSpaceOnUse"
       id="linearGradient3327"
       xlink:href="#linearGradient4925-7"
       inkscape:collect="always" />
    <linearGradient
       id="linearGradient4925-7-1">
      <stop
         style="stop-color:#bd9800;stop-opacity:1;"
         offset="0"
         id="stop4927-5-2" />
      <stop
         id="stop3784-3-7"
         offset="0.51732481"
         style="stop-color:#ffcc04;stop-opacity:1;" />
      <stop
         offset="1"
         id="stop4929-56-0"
         style="stop-color:#a98500;stop-opacity:1;" />
    </linearGradient>
    <linearGradient
       y2="19.032196"
       x2="138.61914"
       y1="166.12685"
       x1="180.59314"
       gradientTransform="translate(-17.649337,-7.9568844)"
       gradientUnits="userSpaceOnUse"
       id="linearGradient3455"
       xlink:href="#linearGradient4925-7-1"
       inkscape:collect="always" />
    <linearGradient
       id="linearGradient4925-7-6">
      <stop
         style="stop-color:#bd9800;stop-opacity:1;"
         offset="0"
         id="stop4927-5-0" />
      <stop
         id="stop3784-3-6"
         offset="0.51732481"
         style="stop-color:#ffcc04;stop-opacity:1;" />
      <stop
         offset="1"
         id="stop4929-56-2"
         style="stop-color:#a98500;stop-opacity:1;" />
    </linearGradient>
    <linearGradient
       y2="19.032196"
       x2="138.61914"
       y1="166.12685"
       x1="180.59314"
       gradientTransform="translate(-17.649337,-7.9568844)"
       gradientUnits="userSpaceOnUse"
       id="linearGradient3491"
       xlink:href="#linearGradient4925-7-6"
       inkscape:collect="always" />
    <linearGradient
       id="linearGradient4835-7">
      <stop
         style="stop-color:#000000;stop-opacity:0.61572052"
         offset="0"
         id="stop4837-5" />
      <stop
         style="stop-color:#000000;stop-opacity:0;"
         offset="1"
         id="stop4839-9" />
    </linearGradient>
    <radialGradient
       r="109.27257"
       fy="198.2952"
       fx="7.3256431"
       cy="198.2952"
       cx="7.3256431"
       gradientTransform="matrix(0.19829552,0.15553474,-0.16582027,0.21140881,132.487,52.51516)"
       gradientUnits="userSpaceOnUse"
       id="radialGradient3545"
       xlink:href="#linearGradient4835-7"
       inkscape:collect="always" />
    <linearGradient
       id="linearGradient4835-8">
      <stop
         style="stop-color:#000000;stop-opacity:0.61572052"
         offset="0"
         id="stop4837-9" />
      <stop
         style="stop-color:#000000;stop-opacity:0;"
         offset="1"
         id="stop4839-7" />
    </linearGradient>
    <radialGradient
       r="109.27257"
       fy="198.2952"
       fx="7.3256431"
       cy="198.2952"
       cx="7.3256431"
       gradientTransform="matrix(0.19829552,0.15553474,-0.16582027,0.21140881,132.487,52.51516)"
       gradientUnits="userSpaceOnUse"
       id="radialGradient3578"
       xlink:href="#linearGradient4835-8"
       inkscape:collect="always" />
    <linearGradient
       id="linearGradient4925-7-6-1">
      <stop
         style="stop-color:#bd9800;stop-opacity:1;"
         offset="0"
         id="stop4927-5-0-2" />
      <stop
         id="stop3784-3-6-9"
         offset="0.51732481"
         style="stop-color:#ffcc04;stop-opacity:1;" />
      <stop
         offset="1"
         id="stop4929-56-2-3"
         style="stop-color:#a98500;stop-opacity:1;" />
    </linearGradient>
    <linearGradient
       y2="19.032196"
       x2="138.61914"
       y1="166.12685"
       x1="180.59314"
       gradientTransform="translate(-17.649337,-14.676051)"
       gradientUnits="userSpaceOnUse"
       id="linearGradient3612"
       xlink:href="#linearGradient4925-7-6-1"
       inkscape:collect="always" />
  </defs>
  <sodipodi:namedview
     id="base"
     pagecolor="#5271a5"
     bordercolor="#666666"
     borderopacity="1.0"
     inkscape:pageopacity="1"
     inkscape:pageshadow="2"
     inkscape:zoom="2.8"
     inkscape:cx="328.53695"
     inkscape:cy="193.53838"
     inkscape:document-units="px"
     inkscape:current-layer="layer1"
     showgrid="false"
     units="mm"
     inkscape:window-width="1918"
     inkscape:window-height="1059"
     inkscape:window-x="1366"
     inkscape:window-y="19"
     inkscape:window-maximized="1"
     showguides="true"
     inkscape:guide-bbox="true" />
  <metadata
     id="metadata7">
    <rdf:RDF>
      <cc:Work
         rdf:about="">
        <dc:format>image/svg+xml</dc:format>
        <dc:type
           rdf:resource="http://purl.org/dc/dcmitype/StillImage" />
        <dc:title />
      </cc:Work>
    </rdf:RDF>
  </metadata>
  <g
     inkscape:label="Calque 1"
     inkscape:groupmode="layer"
     id="layer1"
     transform="translate(0,-768.89763)">
    <path
       style="color:#000000;fill:#f7931a;fill-opacity:1;fill-rule:nonzero;stroke-width:1;stroke-linecap:butt;stroke-linejoin:miter;stroke-miterlimit:4;stroke-opacity:1;stroke-dasharray:none;stroke-dashoffset:0;marker:none;visibility:visible;display:inline;overflow:visible;enable-background:accumulate"
       d="m 136.20341,880.48104 c -16.93672,0 -30.68541,13.74868 -30.68541,30.6854 0,16.9367 13.7487,30.65605 30.68541,30.65605 16.93671,0 30.65607,-13.71935 30.65607,-30.65605 0,-16.93672 -13.71936,-30.6854 -30.65607,-30.6854 z m -1.1441,11.52903 1.5548,5.39781 c 4.34317,-0.84333 8.07621,-0.52338 9.56352,3.25629 1.09442,2.76383 0.39323,4.82239 -1.2321,6.33657 3.34841,-0.14568 5.85041,1.14531 6.65926,5.42713 1.00626,5.32067 -2.46529,7.84013 -7.89136,9.73954 l 1.55479,5.42714 -3.28562,0.93876 -1.52548,-5.36848 a 126.00162,126.00152 0 0 1 -2.64023,0.7334 l 1.55481,5.39781 -3.28563,0.93876 -1.55481,-5.45648 c -0.76858,0.21658 -1.55146,0.42113 -2.34687,0.64539 l -4.28305,1.2321 -0.46938,-4.10704 c 0,0 2.42793,-0.64984 2.37621,-0.67472 0.92751,-0.26833 1.00005,-1.00238 0.93876,-1.43747 l -2.46423,-8.62475 0.35203,-0.088 c -0.14184,0.0211 -0.2619,0.0338 -0.35203,0.0587 l -1.78949,-6.1312 c -0.31625,-0.63058 -0.95804,-1.2615 -2.2882,-0.88008 0.0288,-0.0575 -2.37621,0.67472 -2.37621,0.67472 l -0.99742,-3.52031 4.51773,-1.29079 0,0.0293 c 0.68042,-0.19551 1.37753,-0.4269 2.08286,-0.64539 l -1.55481,-5.36848 3.28563,-0.93875 1.52547,5.28047 c 0.87208,-0.26834 1.7484,-0.54673 2.61089,-0.79206 l -1.52547,-5.25115 3.28565,-0.93874 z m 2.05351,9.68086 c -1.96171,-0.007 -4.20967,0.81612 -5.25115,1.11476 l 1.87751,6.57126 c 1.85342,-0.53092 7.80911,-1.77709 6.74727,-5.48583 -0.48552,-1.69217 -1.84785,-2.19543 -3.37363,-2.20019 z m 3.87234,9.59285 c -2.33692,0.0428 -5.05659,1.04911 -6.30723,1.40811 l 2.08286,7.21665 c 2.22334,-0.64015 9.32457,-2.1718 8.15541,-6.24855 -0.53332,-1.85988 -2.11342,-2.40949 -3.93103,-2.37621 z"
       id="circle3069"
       inkscape:connector-curvature="0" />
    <g
       style="font-size:12.56434155px;font-style:italic;font-weight:bold;opacity:0.8;fill:#4d4d4d;font-family:Ubuntu"
       id="text3137">
      <path
         d="m 71.158365,844.17887 c -0.477449,0 -0.954893,-0.0168 -1.432335,-0.0503 -0.469071,-0.0251 -0.95908,-0.0921 -1.470028,-0.20103 l 0,-8.44324 c 0.402057,-0.0754 0.841809,-0.12982 1.319256,-0.16334 0.477442,-0.0419 0.921381,-0.0628 1.33182,-0.0628 0.552827,10e-6 1.059588,0.0419 1.520285,0.12565 0.469063,0.0754 0.871122,0.20941 1.206177,0.40205 0.335042,0.19267 0.594705,0.44814 0.778989,0.76643 0.192646,0.30993 0.288973,0.69523 0.28898,1.15592 -7e-6,0.69523 -0.335056,1.24387 -1.005147,1.64593 0.552824,0.20941 0.929754,0.4942 1.13079,0.85437 0.201022,0.36018 0.301537,0.76643 0.301545,1.21874 -8e-6,0.91301 -0.335057,1.59986 -1.005148,2.06056 -0.661728,0.46069 -1.650122,0.69103 -2.965184,0.69103 m -0.992583,-3.90751 0,2.24902 c 0.142393,0.0168 0.297353,0.0293 0.46488,0.0377 0.167521,0.008 0.351798,0.0126 0.552831,0.0126 0.586332,0 1.059588,-0.0838 1.419771,-0.25129 0.360172,-0.16752 0.540261,-0.47744 0.540267,-0.92976 -6e-6,-0.40205 -0.150778,-0.68685 -0.452317,-0.85437 -0.301549,-0.1759 -0.732924,-0.26385 -1.294127,-0.26386 l -1.231305,0 m 0,-1.49515 0.95489,0 c 0.603084,0 1.034459,-0.0754 1.294127,-0.22616 0.259658,-0.15914 0.389489,-0.41043 0.389494,-0.75386 -5e-6,-0.3518 -0.134025,-0.59889 -0.402058,-0.7413 -0.268045,-0.14239 -0.661727,-0.21358 -1.181049,-0.21359 -0.167528,10e-6 -0.347617,0.004 -0.540266,0.0126 -0.192657,10e-6 -0.364369,0.008 -0.515138,0.0251 l 0,1.89722"
         style="fill:#ffffff"
         id="path3342" />
      <path
         d="m 78.444112,844.0658 -1.872087,0 0,-6.60885 1.872087,0 0,6.60885 m 0.175901,-8.51863 c -3e-6,0.34344 -0.113082,0.61566 -0.339238,0.81668 -0.217784,0.19267 -0.477447,0.28899 -0.778989,0.28898 -0.301545,10e-6 -0.565396,-0.0963 -0.791553,-0.28898 -0.217783,-0.20102 -0.326674,-0.47324 -0.326673,-0.81668 -10e-7,-0.34341 0.10889,-0.61145 0.326673,-0.80412 0.226157,-0.20102 0.490008,-0.30153 0.791553,-0.30154 0.301542,10e-6 0.561205,0.10052 0.778989,0.30154 0.226156,0.19267 0.339235,0.46071 0.339238,0.80412"
         style="fill:#ffffff"
         id="path3344" />
      <path
         d="m 80.141083,835.81102 1.872087,-0.30154 0,1.94747 2.249017,0 0,1.55798 -2.249017,0 0,2.3244 c -3e-6,0.39369 0.06701,0.7078 0.201029,0.94233 0.142393,0.23454 0.422997,0.3518 0.841811,0.3518 0.201026,0 0.406243,-0.0168 0.615653,-0.0503 0.217777,-0.0419 0.414619,-0.0963 0.590524,-0.16333 l 0.263851,1.45746 c -0.226163,0.0921 -0.477449,0.17171 -0.75386,0.23872 -0.27642,0.067 -0.615657,0.10052 -1.017712,0.10052 -0.510953,0 -0.933952,-0.067 -1.268998,-0.20103 -0.335051,-0.1424 -0.60309,-0.33505 -0.804118,-0.57796 -0.201031,-0.25129 -0.343427,-0.55283 -0.427188,-0.90463 -0.07539,-0.3518 -0.11308,-0.7413 -0.113079,-1.16849 l 0,-5.55344"
         style="fill:#ffffff"
         id="path3346" />
      <path
         d="m 85.214918,840.76137 c 0,-0.47744 0.07539,-0.92556 0.226158,-1.34438 0.159148,-0.42718 0.385306,-0.79574 0.678475,-1.10566 0.293166,-0.31829 0.649155,-0.56958 1.067969,-0.75386 0.418808,-0.18427 0.896253,-0.27641 1.432335,-0.27642 0.351797,10e-6 0.674281,0.0335 0.967454,0.10052 0.293163,0.0586 0.577954,0.14659 0.854375,0.26385 l -0.389494,1.49515 c -0.175906,-0.067 -0.368559,-0.12563 -0.57796,-0.1759 -0.20941,-0.0503 -0.443945,-0.0754 -0.703603,-0.0754 -0.552835,0 -0.967458,0.17171 -1.24387,0.51514 -0.268042,0.34342 -0.402061,0.79574 -0.402059,1.35694 -2e-6,0.59472 0.125641,1.05541 0.37693,1.38208 0.25966,0.32668 0.707788,0.49001 1.344385,0.49001 0.226154,0 0.469064,-0.0209 0.728732,-0.0628 0.259658,-0.0419 0.49838,-0.10889 0.716167,-0.20103 l 0.263851,1.53285 c -0.217787,0.0921 -0.490014,0.17171 -0.816682,0.23872 -0.326678,0.067 -0.686855,0.10052 -1.080533,0.10052 -0.603092,0 -1.122418,-0.088 -1.557979,-0.26385 -0.435565,-0.18428 -0.795743,-0.43138 -1.080533,-0.7413 -0.276417,-0.30992 -0.481634,-0.67429 -0.615653,-1.0931 -0.125644,-0.42718 -0.188465,-0.88788 -0.188465,-1.38208"
         style="fill:#ffffff"
         id="path3348" />
      <path
         d="m 97.673837,840.74881 c -7e-6,0.51933 -0.07539,0.99677 -0.226159,1.43233 -0.150778,0.42719 -0.36856,0.79575 -0.653345,1.10567 -0.284798,0.30154 -0.628223,0.53608 -1.030276,0.7036 -0.393688,0.16752 -0.837627,0.25129 -1.331821,0.25129 -0.485824,0 -0.929764,-0.0838 -1.33182,-0.25129 -0.393685,-0.16752 -0.732921,-0.40206 -1.017711,-0.7036 -0.284793,-0.30992 -0.506763,-0.67848 -0.665911,-1.10567 -0.159148,-0.43556 -0.238723,-0.913 -0.238722,-1.43233 -10e-7,-0.51932 0.07957,-0.99258 0.238722,-1.41977 0.167524,-0.42718 0.393682,-0.79155 0.678475,-1.0931 0.293166,-0.30154 0.636591,-0.53607 1.030276,-0.7036 0.402056,-0.16752 0.837619,-0.25128 1.306691,-0.25129 0.477441,10e-6 0.913005,0.0838 1.306692,0.25129 0.402053,0.16753 0.745478,0.40206 1.030276,0.7036 0.284785,0.30155 0.506755,0.66592 0.66591,1.0931 0.159141,0.42719 0.238716,0.90045 0.238723,1.41977 m -1.90978,0 c -5e-6,-0.57796 -0.117273,-1.03027 -0.351802,-1.35695 -0.226163,-0.33504 -0.552835,-0.50257 -0.980019,-0.50257 -0.427191,0 -0.758051,0.16753 -0.992583,0.50257 -0.234536,0.32668 -0.351804,0.77899 -0.351801,1.35695 -3e-6,0.57796 0.117265,1.03865 0.351801,1.38208 0.234532,0.33505 0.565392,0.50257 0.992583,0.50257 0.427184,0 0.753856,-0.16752 0.980019,-0.50257 0.234529,-0.34343 0.351797,-0.80412 0.351802,-1.38208"
         style="fill:#ffffff"
         id="path3350" />
      <path
         d="m 100.99612,844.0658 -1.872083,0 0,-6.60885 1.872083,0 0,6.60885 m 0.17591,-8.51863 c -1e-5,0.34344 -0.11309,0.61566 -0.33924,0.81668 -0.21779,0.19267 -0.47745,0.28899 -0.77899,0.28898 -0.301547,10e-6 -0.565398,-0.0963 -0.791555,-0.28898 -0.217783,-0.20102 -0.326673,-0.47324 -0.326673,-0.81668 0,-0.34341 0.10889,-0.61145 0.326673,-0.80412 0.226157,-0.20102 0.490008,-0.30153 0.791555,-0.30154 0.30154,10e-6 0.5612,0.10052 0.77899,0.30154 0.22615,0.19267 0.33923,0.46071 0.33924,0.80412"
         style="fill:#ffffff"
         id="path3352" />
      <path
         d="m 102.75592,837.68311 c 0.31829,-0.0921 0.72873,-0.17589 1.2313,-0.25129 0.50257,-0.0838 1.03027,-0.12563 1.58311,-0.12564 0.5612,10e-6 1.02608,0.0754 1.39464,0.22616 0.37692,0.1424 0.67428,0.34762 0.89207,0.61565 0.21777,0.26805 0.37273,0.58634 0.46488,0.95489 0.0921,0.36856 0.1382,0.77899 0.13821,1.23131 l 0,3.73161 -1.87209,0 0,-3.50546 c -1e-5,-0.60308 -0.0796,-1.03027 -0.23872,-1.28156 -0.15916,-0.25128 -0.45651,-0.37692 -0.89207,-0.37693 -0.13402,1e-5 -0.27642,0.008 -0.42719,0.0251 -0.15077,0.008 -0.28479,0.021 -0.40206,0.0377 l 0,5.10113 -1.87208,0 0,-6.38269"
         style="fill:#ffffff"
         id="path3354" />
      <path
         d="m 114.26289,844.2417 c -1.41559,0 -2.49612,-0.39369 -3.2416,-1.18105 -0.73711,-0.78737 -1.10566,-1.90559 -1.10566,-3.35468 0,-0.72035 0.11308,-1.36113 0.33924,-1.92234 0.22615,-0.56958 0.53607,-1.04703 0.92976,-1.43234 0.39368,-0.39367 0.86275,-0.69103 1.4072,-0.89207 0.54445,-0.20102 1.13498,-0.30153 1.77157,-0.30154 0.36855,10e-6 0.7036,0.0293 1.00515,0.0879 0.30154,0.0503 0.56539,0.11309 0.79156,0.18846 0.22615,0.067 0.41461,0.13822 0.56539,0.2136 0.15077,0.0754 0.25966,0.13402 0.32667,0.1759 l -0.56539,1.5831 c -0.26805,-0.14238 -0.58216,-0.26384 -0.94233,-0.36436 -0.3518,-0.10051 -0.75386,-0.15077 -1.20617,-0.15077 -0.30155,0 -0.59891,0.0503 -0.89207,0.15077 -0.2848,0.10052 -0.54027,0.26386 -0.76643,0.49001 -0.21778,0.21779 -0.39368,0.50258 -0.5277,0.85437 -0.13402,0.35181 -0.20103,0.779 -0.20103,1.28157 0,0.40206 0.0419,0.77899 0.12564,1.13079 0.0921,0.34343 0.23454,0.64078 0.42719,0.89207 0.20103,0.25128 0.46069,0.45231 0.77899,0.60308 0.31829,0.1424 0.7036,0.2136 1.15592,0.2136 0.28479,0 0.54026,-0.0168 0.76643,-0.0503 0.22615,-0.0335 0.42718,-0.0712 0.60308,-0.11308 0.1759,-0.0503 0.33086,-0.1047 0.46488,-0.16334 0.13402,-0.0586 0.25547,-0.11307 0.36437,-0.16333 l 0.54027,1.57054 c -0.27643,0.16753 -0.66592,0.3183 -1.16849,0.45232 -0.50258,0.13402 -1.08472,0.20103 -1.74644,0.20103"
         style="color:#000000;fill:#f7931a;fill-opacity:1;fill-rule:nonzero;stroke-width:1;stroke-linecap:butt;stroke-linejoin:miter;stroke-miterlimit:4;stroke-dashoffset:0;stroke-opacity:1;marker:none;visibility:visible;display:inline;overflow:visible;enable-background:accumulate"
         id="path3356" />
      <path
         d="m 120.96224,842.7591 c 0.18427,10e-6 0.36017,-0.004 0.5277,-0.0126 0.16752,-0.008 0.30154,-0.0209 0.40206,-0.0377 l 0,-1.41977 c -0.0754,-0.0168 -0.18847,-0.0335 -0.33924,-0.0503 -0.15077,-0.0168 -0.28898,-0.0251 -0.41462,-0.0251 -0.17591,0 -0.34343,0.0126 -0.50258,0.0377 -0.15077,0.0168 -0.28479,0.0544 -0.40205,0.11308 -0.11727,0.0586 -0.20941,0.13821 -0.27642,0.23872 -0.067,0.10052 -0.10052,0.22617 -0.10051,0.37694 -10e-6,0.29316 0.0963,0.49838 0.28897,0.61565 0.20103,0.10889 0.47326,0.16334 0.81669,0.16333 m -0.15077,-5.47805 c 0.55282,10e-6 1.01351,0.0628 1.38207,0.18847 0.36855,0.12565 0.66172,0.30574 0.87951,0.54026 0.22615,0.23454 0.3853,0.51933 0.47744,0.85438 0.0921,0.33505 0.1382,0.70779 0.13821,1.11822 l 0,3.89495 c -0.26805,0.0586 -0.64079,0.12564 -1.11823,0.20103 -0.47745,0.0838 -1.05541,0.12564 -1.73388,0.12564 -0.42719,0 -0.81668,-0.0377 -1.16848,-0.11308 -0.34343,-0.0754 -0.64078,-0.19684 -0.89207,-0.36436 -0.25129,-0.1759 -0.44394,-0.40206 -0.57796,-0.67848 -0.13402,-0.27641 -0.20103,-0.61565 -0.20103,-1.01771 0,-0.3853 0.0754,-0.71197 0.22616,-0.98002 0.15915,-0.26803 0.36855,-0.48163 0.62822,-0.64078 0.25966,-0.15914 0.55702,-0.27222 0.89207,-0.33923 0.33504,-0.0754 0.68266,-0.11308 1.04284,-0.11308 0.2429,0 0.4565,0.0126 0.64078,0.0377 0.19265,0.0168 0.34761,0.0419 0.46488,0.0754 l 0,-0.17591 c -10e-6,-0.31829 -0.0963,-0.57376 -0.28898,-0.76642 -0.19266,-0.19265 -0.52771,-0.28897 -1.00515,-0.28898 -0.3183,10e-6 -0.63241,0.0251 -0.94232,0.0754 -0.30993,0.0419 -0.57797,0.1047 -0.80412,0.18846 l -0.23872,-1.50772 c 0.10889,-0.0335 0.2429,-0.067 0.40205,-0.10051 0.16753,-0.0419 0.34762,-0.0754 0.54027,-0.10052 0.19265,-0.0335 0.39368,-0.0586 0.60309,-0.0754 0.21778,-0.0251 0.43556,-0.0377 0.65335,-0.0377"
         style="color:#000000;fill:#f7931a;fill-opacity:1;fill-rule:nonzero;stroke-width:1;stroke-linecap:butt;stroke-linejoin:miter;stroke-miterlimit:4;stroke-dashoffset:0;stroke-opacity:1;marker:none;visibility:visible;display:inline;overflow:visible;enable-background:accumulate"
         id="path3358" />
      <path
         d="m 127.27876,842.72141 c 0.34343,0 0.58634,-0.0335 0.72874,-0.10051 0.14239,-0.067 0.21359,-0.19684 0.21359,-0.3895 0,-0.15077 -0.0921,-0.2806 -0.27642,-0.38949 -0.18428,-0.11727 -0.46488,-0.2471 -0.84181,-0.3895 -0.29317,-0.10889 -0.56121,-0.22196 -0.80411,-0.33923 -0.23454,-0.11727 -0.43557,-0.25548 -0.60309,-0.41463 -0.16753,-0.16752 -0.29736,-0.36436 -0.3895,-0.59052 -0.0921,-0.22616 -0.13821,-0.49838 -0.13821,-0.81668 0,-0.61984 0.23035,-1.10985 0.69104,-1.47003 0.46069,-0.36017 1.0931,-0.54026 1.89722,-0.54027 0.40205,10e-6 0.78736,0.0377 1.15592,0.11308 0.36855,0.067 0.66172,0.1424 0.8795,0.22616 l -0.32667,1.45746 c -0.21779,-0.0754 -0.45651,-0.14239 -0.71617,-0.20103 -0.25129,-0.0586 -0.53608,-0.0879 -0.85437,-0.0879 -0.58634,10e-6 -0.87951,0.16334 -0.87951,0.49001 0,0.0754 0.0126,0.1424 0.0377,0.20103 0.0251,0.0586 0.0754,0.11727 0.15077,0.1759 0.0754,0.0503 0.1759,0.1089 0.30154,0.1759 0.13402,0.0586 0.30154,0.12565 0.50258,0.20103 0.41043,0.15078 0.74966,0.30155 1.01771,0.45232 0.26803,0.1424 0.47744,0.30155 0.62821,0.47744 0.15915,0.16753 0.26804,0.356 0.32668,0.5654 0.067,0.20941 0.10051,0.45232 0.10051,0.72873 0,0.65335 -0.2471,1.14754 -0.74129,1.48259 -0.48583,0.33505 -1.17687,0.50258 -2.07312,0.50258 -0.58634,0 -1.07635,-0.0503 -1.47003,-0.15078 -0.38531,-0.10051 -0.65334,-0.18427 -0.80412,-0.25128 l 0.31411,-1.52029 c 0.3183,0.12565 0.64497,0.22616 0.98002,0.30155 0.33505,0.067 0.66591,0.10051 0.99258,0.10051"
         style="color:#000000;fill:#f7931a;fill-opacity:1;fill-rule:nonzero;stroke-width:1;stroke-linecap:butt;stroke-linejoin:miter;stroke-miterlimit:4;stroke-dashoffset:0;stroke-opacity:1;marker:none;visibility:visible;display:inline;overflow:visible;enable-background:accumulate"
         id="path3360" />
      <path
         d="m 131.4674,844.0658 0,-9.44839 1.87209,-0.30154 0,3.16621 c 0.12564,-0.0419 0.28479,-0.0796 0.47744,-0.11308 0.20103,-0.0419 0.39368,-0.0628 0.57796,-0.0628 0.53608,10e-6 0.98002,0.0754 1.33182,0.22616 0.36018,0.1424 0.64497,0.34762 0.85438,0.61565 0.21777,0.26805 0.36855,0.58634 0.45232,0.95489 0.0921,0.36856 0.1382,0.77899 0.1382,1.23131 l 0,3.73161 -1.87208,0 0,-3.50546 c -1e-5,-0.60308 -0.0796,-1.03027 -0.23873,-1.28156 -0.15077,-0.25128 -0.43556,-0.37692 -0.85437,-0.37693 -0.16753,1e-5 -0.32668,0.0168 -0.47745,0.0503 -0.1424,0.0251 -0.27223,0.0545 -0.38949,0.088 l 0,5.02574 -1.87209,0"
         style="color:#000000;fill:#f7931a;fill-opacity:1;fill-rule:nonzero;stroke-width:1;stroke-linecap:butt;stroke-linejoin:miter;stroke-miterlimit:4;stroke-dashoffset:0;stroke-opacity:1;marker:none;visibility:visible;display:inline;overflow:visible;enable-background:accumulate"
         id="path3362" />
    </g>
    <g
       id="g3222"
       transform="translate(-1.8991387,-1.3582362)">
      <g
         transform="matrix(3.2735174,0,0,3.2735174,313.53243,799.64954)"
         style="font-size:12px;font-style:normal;font-variant:normal;font-weight:600;font-stretch:normal;line-height:125%;letter-spacing:0px;word-spacing:0px;opacity:0.8;fill:#ffffff;fill-opacity:1;stroke:none;font-family:AUdimat;-inkscape-font-specification:FreeSans Semi-Bold"
         id="flowRoot4593">
        <path
           d="m 14.981,14.85075 -2.04,0 0,-1.116 c 1.471998,7e-6 2.339997,-0.507993 2.604,-1.524 l 1.116,0 0,8.508 -1.68,0 0,-5.868"
           style="font-family:FreeSans;-inkscape-font-specification:FreeSans Semi-Bold"
           id="path3365" />
      </g>
      <path
         style="opacity:0.80000000000000004;fill:#f7931a;fill-rule:nonzero;color:#000000;fill-opacity:1;stroke-width:1;stroke-linecap:butt;stroke-linejoin:miter;stroke-miterlimit:4;stroke-opacity:1;stroke-dasharray:none;stroke-dashoffset:0;marker:none;visibility:visible;display:inline;overflow:visible;enable-background:accumulate"
         inkscape:connector-curvature="0"
         d="m 397.25706,846.66554 c -0.37756,-3.90216 -3.74841,-5.20826 -8.00265,-5.57781 l -0.005,-5.41382 -3.29484,0.003 0.005,5.2733 c -0.86547,-6.7e-4 -1.75233,0.0187 -2.63283,0.0362 l -0.003,-5.30734 -3.29249,0.002 6.8e-4,5.41279 c -0.71252,0.0157 -1.41335,0.0308 -2.09665,0.0319 l 1.5e-4,-0.0185 -4.54553,0.003 0.003,3.52194 c 0,0 2.43489,-0.0504 2.39298,-0.005 1.3356,-6.7e-4 1.77025,0.77348 1.89646,1.44261 l 0.007,6.16676 c 0.0902,6.8e-4 0.21038,0.003 0.34758,0.0223 l -0.34839,0.002 0.006,8.64075 c -0.0586,0.42001 -0.30348,1.09074 -1.23614,1.0935 0.0415,0.0365 -2.39727,-4.4e-4 -2.39727,-4.4e-4 l -0.65033,3.93733 4.28834,-0.006 c 0.79765,0.003 1.58288,0.0153 2.35359,0.0186 l 0.007,5.4758 3.29073,-0.002 -0.004,-5.41737 a 121.61558,121.61558 0 0 0 2.6336,0.0216 l 6.8e-4,5.39349 3.29655,-0.003 -0.004,-5.46538 c 5.53936,-0.3232 9.41603,-1.72204 9.89374,-6.92664 0.38529,-4.1882 -1.58583,-6.05618 -4.73185,-6.80931 1.91005,-0.97397 3.10229,-2.68804 2.81987,-5.54325 z m -4.59853,11.71127 c 0.003,4.09348 -7.00327,3.63356 -9.23638,3.63781 l -0.006,-7.25535 c 2.23262,-0.003 9.23646,-0.64974 9.23994,3.61881 z m -1.542,-10.23423 c 6.8e-4,3.72347 -5.84219,3.29393 -7.70303,3.29495 l -0.005,-6.57967 c 1.85905,-0.002 7.70338,-0.59733 7.70717,3.2865 z"
         id="path3087" />
    </g>
  </g>
</svg>
