<?xml version="1.0" encoding="UTF-8" standalone="no"?>
<!-- Created with Inkscape (http://www.inkscape.org/) -->

<svg
   xmlns:dc="http://purl.org/dc/elements/1.1/"
   xmlns:cc="http://creativecommons.org/ns#"
   xmlns:rdf="http://www.w3.org/1999/02/22-rdf-syntax-ns#"
   xmlns:svg="http://www.w3.org/2000/svg"
   xmlns="http://www.w3.org/2000/svg"
   xmlns:xlink="http://www.w3.org/1999/xlink"
   xmlns:sodipodi="http://sodipodi.sourceforge.net/DTD/sodipodi-0.dtd"
   xmlns:inkscape="http://www.inkscape.org/namespaces/inkscape"
   width="460.62991"
   height="283.46457"
   id="svg2"
   version="1.1"
   inkscape:version="0.48.5 r10040"
   sodipodi:docname="bnb.svg"
   inkscape:export-filename="/home/mammique/Documents/daat/banknote/cryptos/dash.png"
   inkscape:export-xdpi="156.31"
   inkscape:export-ydpi="156.31">
  <defs
     id="defs4">
    <linearGradient
       id="linearGradient4925">
      <stop
         style="stop-color:#bd9800;stop-opacity:1;"
         offset="0"
         id="stop4927" />
      <stop
         id="stop3784"
         offset="0.51732481"
         style="stop-color:#ffcc04;stop-opacity:1;" />
      <stop
         offset="1"
         id="stop4929"
         style="stop-color:#a98500;stop-opacity:1;" />
    </linearGradient>
    <linearGradient
       id="linearGradient4835">
      <stop
         style="stop-color:#000000;stop-opacity:0.61572052"
         offset="0"
         id="stop4837" />
      <stop
         style="stop-color:#000000;stop-opacity:0;"
         offset="1"
         id="stop4839" />
    </linearGradient>
    <linearGradient
       inkscape:collect="always"
       id="linearGradient4531">
      <stop
         style="stop-color:#ffffff;stop-opacity:1;"
         offset="0"
         id="stop4533" />
      <stop
         style="stop-color:#ffffff;stop-opacity:0;"
         offset="1"
         id="stop4535" />
    </linearGradient>
    <clipPath
       clipPathUnits="userSpaceOnUse"
       id="clipPath5978">
      <rect
         style="color:#000000;fill:#cccccc;fill-opacity:1;fill-rule:nonzero;stroke:#003a00;stroke-width:0.89999998;stroke-linecap:butt;stroke-linejoin:miter;stroke-miterlimit:4;stroke-opacity:1;stroke-dasharray:none;stroke-dashoffset:0;marker:none;visibility:visible;display:inline;overflow:visible;enable-background:accumulate"
         id="rect5980"
         width="173.74623"
         height="1608.1628"
         x="610.13214"
         y="-378.01382"
         transform="matrix(0,-1,1,0,0,0)" />
    </clipPath>
    <inkscape:perspective
       id="perspective2497"
       inkscape:persp3d-origin="372.04724 : 350.78739 : 1"
       inkscape:vp_z="744.09448 : 526.18109 : 1"
       inkscape:vp_y="0 : 1000 : 0"
       inkscape:vp_x="0 : 526.18109 : 1"
       sodipodi:type="inkscape:persp3d" />
    <linearGradient
       inkscape:collect="always"
       xlink:href="#linearGradient4531"
       id="linearGradient4823"
       gradientUnits="userSpaceOnUse"
       x1="182.81697"
       y1="175.83376"
       x2="183.58928"
       y2="-16.309107"
       gradientTransform="translate(53.033008,825.69937)" />
    <radialGradient
       inkscape:collect="always"
       xlink:href="#linearGradient4835"
       id="radialGradient4845"
       cx="7.3256431"
       cy="198.2952"
       fx="7.3256431"
       fy="198.2952"
       r="109.27257"
       gradientTransform="matrix(0.19829552,0.15553474,-0.16582027,0.21140881,93.302602,945.5672)"
       gradientUnits="userSpaceOnUse" />
    <linearGradient
       id="linearGradient4925-6">
      <stop
         style="stop-color:#bd9800;stop-opacity:1;"
         offset="0"
         id="stop4927-7" />
      <stop
         id="stop3784-5"
         offset="0.5"
         style="stop-color:#ffcc04;stop-opacity:1;" />
      <stop
         offset="1"
         id="stop4929-3"
         style="stop-color:#a98500;stop-opacity:1;" />
    </linearGradient>
    <linearGradient
       gradientTransform="translate(-17.649337,-11.359598)"
       y2="38.317909"
       x2="313.61914"
       y1="142.8687"
       x1="50.479298"
       gradientUnits="userSpaceOnUse"
       id="linearGradient3802"
       xlink:href="#linearGradient4925-6"
       inkscape:collect="always" />
    <linearGradient
       id="linearGradient4925-2">
      <stop
         style="stop-color:#bd9800;stop-opacity:1;"
         offset="0"
         id="stop4927-3" />
      <stop
         id="stop3784-7"
         offset="0.38554054"
         style="stop-color:#ffcc04;stop-opacity:1;" />
      <stop
         offset="1"
         id="stop4929-5"
         style="stop-color:#a98500;stop-opacity:1;" />
    </linearGradient>
    <linearGradient
       y2="38.317909"
       x2="313.61914"
       y1="83.269699"
       x1="19.16457"
       gradientTransform="translate(-17.649337,-11.359581)"
       gradientUnits="userSpaceOnUse"
       id="linearGradient4077"
       xlink:href="#linearGradient4925-2"
       inkscape:collect="always" />
    <linearGradient
       id="linearGradient4925-28">
      <stop
         style="stop-color:#bd9800;stop-opacity:1;"
         offset="0"
         id="stop4927-9" />
      <stop
         id="stop3784-73"
         offset="0.51732481"
         style="stop-color:#ffcc04;stop-opacity:1;" />
      <stop
         offset="1"
         id="stop4929-6"
         style="stop-color:#a98500;stop-opacity:1;" />
    </linearGradient>
    <linearGradient
       y2="19.746481"
       x2="180.76199"
       y1="166.12685"
       x1="180.59314"
       gradientTransform="translate(-17.649337,-11.359581)"
       gradientUnits="userSpaceOnUse"
       id="linearGradient4113"
       xlink:href="#linearGradient4925-28"
       inkscape:collect="always" />
    <linearGradient
       id="linearGradient4925-7">
      <stop
         style="stop-color:#bd9800;stop-opacity:1;"
         offset="0"
         id="stop4927-5" />
      <stop
         id="stop3784-3"
         offset="0.51732481"
         style="stop-color:#ffcc04;stop-opacity:1;" />
      <stop
         offset="1"
         id="stop4929-56"
         style="stop-color:#a98500;stop-opacity:1;" />
    </linearGradient>
    <linearGradient
       y2="19.746481"
       x2="180.76199"
       y1="166.12685"
       x1="180.59314"
       gradientTransform="translate(-17.649337,-11.359581)"
       gradientUnits="userSpaceOnUse"
       id="linearGradient3327"
       xlink:href="#linearGradient4925-7"
       inkscape:collect="always" />
    <linearGradient
       id="linearGradient4925-7-1">
      <stop
         style="stop-color:#bd9800;stop-opacity:1;"
         offset="0"
         id="stop4927-5-2" />
      <stop
         id="stop3784-3-7"
         offset="0.51732481"
         style="stop-color:#ffcc04;stop-opacity:1;" />
      <stop
         offset="1"
         id="stop4929-56-0"
         style="stop-color:#a98500;stop-opacity:1;" />
    </linearGradient>
    <linearGradient
       y2="19.032196"
       x2="138.61914"
       y1="166.12685"
       x1="180.59314"
       gradientTransform="translate(-17.649337,-7.9568844)"
       gradientUnits="userSpaceOnUse"
       id="linearGradient3455"
       xlink:href="#linearGradient4925-7-1"
       inkscape:collect="always" />
    <linearGradient
       inkscape:collect="always"
       xlink:href="#linearGradient4925-7-6"
       id="linearGradient3350-3"
       gradientUnits="userSpaceOnUse"
       gradientTransform="translate(54.548237,823.78353)"
       x1="180.59314"
       y1="166.12685"
       x2="138.61914"
       y2="19.032196" />
    <linearGradient
       id="linearGradient4925-7-6">
      <stop
         style="stop-color:#bd9800;stop-opacity:1;"
         offset="0"
         id="stop4927-5-0" />
      <stop
         id="stop3784-3-6"
         offset="0.51732481"
         style="stop-color:#ffcc04;stop-opacity:1;" />
      <stop
         offset="1"
         id="stop4929-56-2"
         style="stop-color:#a98500;stop-opacity:1;" />
    </linearGradient>
    <linearGradient
       y2="19.032196"
       x2="138.61914"
       y1="166.12685"
       x1="180.59314"
       gradientTransform="translate(-17.649337,-7.9568844)"
       gradientUnits="userSpaceOnUse"
       id="linearGradient3491"
       xlink:href="#linearGradient4925-7-6"
       inkscape:collect="always" />
    <linearGradient
       id="linearGradient4835-7">
      <stop
         style="stop-color:#000000;stop-opacity:0.61572052"
         offset="0"
         id="stop4837-5" />
      <stop
         style="stop-color:#000000;stop-opacity:0;"
         offset="1"
         id="stop4839-9" />
    </linearGradient>
    <radialGradient
       r="109.27257"
       fy="198.2952"
       fx="7.3256431"
       cy="198.2952"
       cx="7.3256431"
       gradientTransform="matrix(0.19829552,0.15553474,-0.16582027,0.21140881,132.487,52.51516)"
       gradientUnits="userSpaceOnUse"
       id="radialGradient3545"
       xlink:href="#linearGradient4835-7"
       inkscape:collect="always" />
    <linearGradient
       id="linearGradient4835-8">
      <stop
         style="stop-color:#000000;stop-opacity:0.61572052"
         offset="0"
         id="stop4837-9" />
      <stop
         style="stop-color:#000000;stop-opacity:0;"
         offset="1"
         id="stop4839-7" />
    </linearGradient>
    <radialGradient
       r="109.27257"
       fy="198.2952"
       fx="7.3256431"
       cy="198.2952"
       cx="7.3256431"
       gradientTransform="matrix(0.19829552,0.15553474,-0.16582027,0.21140881,132.487,52.51516)"
       gradientUnits="userSpaceOnUse"
       id="radialGradient3578"
       xlink:href="#linearGradient4835-8"
       inkscape:collect="always" />
    <linearGradient
       inkscape:collect="always"
       xlink:href="#linearGradient4925-7-6-1"
       id="linearGradient3350-3-6"
       gradientUnits="userSpaceOnUse"
       gradientTransform="translate(54.548237,823.78353)"
       x1="180.59314"
       y1="166.12685"
       x2="138.61914"
       y2="19.032196" />
    <linearGradient
       id="linearGradient4925-7-6-1">
      <stop
         style="stop-color:#bd9800;stop-opacity:1;"
         offset="0"
         id="stop4927-5-0-2" />
      <stop
         id="stop3784-3-6-9"
         offset="0.51732481"
         style="stop-color:#ffcc04;stop-opacity:1;" />
      <stop
         offset="1"
         id="stop4929-56-2-3"
         style="stop-color:#a98500;stop-opacity:1;" />
    </linearGradient>
    <linearGradient
       y2="19.032196"
       x2="138.61914"
       y1="166.12685"
       x1="180.59314"
       gradientTransform="translate(-17.649337,-14.676051)"
       gradientUnits="userSpaceOnUse"
       id="linearGradient3612"
       xlink:href="#linearGradient4925-7-6-1"
       inkscape:collect="always" />
  </defs>
  <sodipodi:namedview
     id="base"
     pagecolor="#5271a5"
     bordercolor="#666666"
     borderopacity="1.0"
     inkscape:pageopacity="1"
     inkscape:pageshadow="2"
     inkscape:zoom="2.8"
     inkscape:cx="242.36639"
     inkscape:cy="162.42601"
     inkscape:document-units="px"
     inkscape:current-layer="layer1"
     showgrid="false"
     units="mm"
     inkscape:window-width="1918"
     inkscape:window-height="1059"
     inkscape:window-x="1366"
     inkscape:window-y="19"
     inkscape:window-maximized="1"
     showguides="true"
     inkscape:guide-bbox="true" />
  <metadata
     id="metadata7">
    <rdf:RDF>
      <cc:Work
         rdf:about="">
        <dc:format>image/svg+xml</dc:format>
        <dc:type
           rdf:resource="http://purl.org/dc/dcmitype/StillImage" />
        <dc:title></dc:title>
      </cc:Work>
    </rdf:RDF>
  </metadata>
  <g
     inkscape:label="Calque 1"
     inkscape:groupmode="layer"
     id="layer1"
     transform="translate(0,-768.89763)">
    <path
       style="color:#000000;fill:#4d4d4d;fill-opacity:1;fill-rule:nonzero;stroke:none;stroke-width:0.99999987999999995;marker:none;visibility:visible;display:inline;overflow:visible;enable-background:accumulate"
       d="m 136.18875,880.48104 c -16.94019,0 -30.67075,13.73057 -30.67075,30.67068 0,16.94025 13.73056,30.67077 30.67075,30.67077 16.94017,0 30.67074,-13.73052 30.67074,-30.67077 0,-16.94011 -13.73057,-30.67068 -30.67074,-30.67068 z"
       id="path3893"
       inkscape:connector-curvature="0"
       sodipodi:nodetypes="sssss" />
    <path
       style="opacity:0.8;color:#000000;fill:#ffffff;fill-opacity:1;fill-rule:nonzero;stroke:none;stroke-width:1;marker:none;visibility:visible;display:inline;overflow:visible;enable-background:accumulate"
       d="m 116.14268,842.93897 c -0.99545,-0.26082 -1.90794,-0.89397 -2.43598,-1.69026 -0.54069,-0.81536 -0.75875,-1.55867 -0.75472,-2.57261 0.0108,-2.70871 2.23809,-4.63913 4.99255,-4.3271 0.99026,0.11218 1.76636,0.43088 2.40085,0.98592 l 0.33039,0.28902 -0.57615,0.65809 c -0.31688,0.36194 -0.58818,0.65808 -0.60287,0.65808 -0.0147,0 -0.1747,-0.11055 -0.35558,-0.24566 -0.728,-0.54383 -1.40258,-0.73691 -2.19571,-0.62844 -0.74051,0.10127 -1.4312,0.61783 -1.78008,1.33131 -0.61193,1.25147 -0.23401,2.85988 0.84058,3.57746 0.47502,0.31722 0.87664,0.41184 1.56731,0.36927 0.7037,-0.0434 1.23408,-0.27851 1.79305,-0.79493 l 0.17508,-0.16174 0.60279,0.59734 0.60278,0.59735 -0.42175,0.38524 c -0.52107,0.47594 -1.12672,0.80923 -1.76908,0.97351 -0.65798,0.16829 -1.76736,0.16744 -2.41346,-0.002 z m -47.886676,-4.2305 0,-4.23144 2.238927,0 c 1.403784,0 2.363764,0.0263 2.573602,0.0704 0.496467,0.10442 0.986361,0.35692 1.298926,0.66948 0.865463,0.86547 0.74616,2.39249 -0.242895,3.10895 l -0.257105,0.18625 0.328876,0.16666 c 0.462739,0.23449 0.904139,0.66871 1.068761,1.05138 0.157845,0.36692 0.191418,1.10102 0.07071,1.54608 -0.221038,0.81497 -1.033784,1.4144 -2.167117,1.59832 -0.218372,0.0354 -1.413059,0.0646 -2.65486,0.0649 l -2.257825,6.6e-4 0,-4.23145 z m 4.930121,2.41788 c 0.282439,-0.17566 0.396118,-0.38486 0.395701,-0.72819 -3.26e-4,-0.38192 -0.15719,-0.64227 -0.481034,-0.79904 -0.253469,-0.1227 -0.380614,-0.13277 -1.675353,-0.13277 l -1.401069,0 0,0.91995 0,0.91997 1.468376,-0.0201 c 1.387755,-0.0188 1.480729,-0.0277 1.693379,-0.15993 z m -0.722219,-3.33249 c 0.436397,-0.1296 0.606963,-0.32829 0.637594,-0.74275 0.03035,-0.41079 -0.11243,-0.66887 -0.464492,-0.83948 -0.211082,-0.1023 -0.403128,-0.11878 -1.412677,-0.12126 l -1.168382,-0.003 -0.01752,0.89997 -0.01752,0.89997 1.063925,0 c 0.756057,0 1.155115,-0.0271 1.37908,-0.0936 z m 5.328641,0.91461 0,-4.23144 0.915762,0 0.915761,0 0,4.23144 0,4.23145 -0.915761,0 -0.915762,0 z m 4.67354,0 0,-4.23144 0.868393,3e-5 0.868392,10e-6 1.957834,2.58423 1.957834,2.58421 0.01648,-2.58424 0.01648,-2.58424 0.915059,0 0.915062,0 0,4.23144 0,4.23145 -0.784563,0 -0.784561,0 -2.041665,-2.69365 -2.041667,-2.69367 -0.01648,2.69367 -0.01648,2.69365 -0.915082,0 -0.915082,0 0,-4.23145 z m 9.601523,4.18577 c 0.001,-0.027 0.804499,-1.93899 1.78555,-4.24892 l 1.783726,-4.19987 0.875526,0 0.875523,0 1.791415,4.22547 c 0.98528,2.324 1.79142,4.23599 1.79142,4.24887 0,0.0129 -0.43263,0.0155 -0.9614,0.006 l -0.961386,-0.0175 -0.378324,-0.93155 -0.378333,-0.93154 -1.80463,0 -1.804635,0 -0.378322,0.93154 -0.378323,0.93155 -0.929815,0.0175 c -0.5114,0.01 -0.928998,-0.005 -0.927992,-0.0316 z m 5.545371,-3.54205 c -0.01158,-0.028 -0.261592,-0.63909 -0.555586,-1.35786 -0.293991,-0.71877 -0.54977,-1.30671 -0.568401,-1.30655 -0.0281,2.6e-4 -0.29307,0.62926 -1.057391,2.51015 l -0.08341,0.20526 1.142918,0 c 0.628606,0 1.133443,-0.0229 1.121868,-0.051 z m 5.441929,-0.64372 0,-4.23144 0.84949,0 0.8495,0 1.87452,2.47886 c 1.03099,1.36338 1.92763,2.53492 1.99252,2.60344 0.11534,0.12174 0.118,0.0657 0.118,-2.47888 l 0,-2.60342 0.91576,0 0.91577,0 0,4.23144 0,4.23145 -0.80524,-6.5e-4 -0.80525,-6.5e-4 -2.02098,-2.6799 c -1.11154,-1.47393 -2.0423,-2.68146 -2.06835,-2.68338 -0.026,-0.002 -0.0473,1.20435 -0.0473,2.68063 l 0,2.68413 -0.88419,0 -0.88418,0 0,-4.23145 z m 19.89411,0 0,-4.23144 3.18937,0 3.18938,0 0,0.82103 0,0.82102 -2.27361,0 -2.27362,0 0,0.85261 0,0.8526 1.98942,0 1.98941,0 0,0.82103 0,0.82103 -1.98941,0 -1.98942,0 0,0.91576 0,0.91576 2.27362,0 2.27361,0 0,0.82102 0,0.82103 -3.18938,0 -3.18937,0 z"
       id="path3086"
       inkscape:connector-curvature="0"
       sodipodi:nodetypes="csssscsssssssscccssccccscsscssssccccccsscccsccccsccccsccccccccccccccccccccccccccccccccccscccsscccccccccccssscscccccscscccccccscscccccccccccccccccccccccccccccc" />
    <path
       style="color:#000000;fill:#f3ba2f;fill-opacity:1;fill-rule:nonzero;stroke-width:1;stroke-linecap:butt;stroke-linejoin:miter;stroke-miterlimit:4;stroke-opacity:1;stroke-dasharray:none;stroke-dashoffset:0;marker:none;visibility:visible;display:inline;overflow:visible;enable-background:accumulate"
       inkscape:connector-curvature="0"
       d="m 126.34003,907.10476 9.84871,-9.84871 9.85379,9.85378 5.73071,-5.73071 -15.5845,-15.5845 -15.57943,15.57943 5.73072,5.73071 z m -15.50843,4.047 5.73071,-5.73071 5.73072,5.73071 -5.73072,5.73071 -5.73071,-5.73071 z m 15.50843,4.047 9.84871,9.84871 9.85379,-9.85378 5.73071,5.72818 -15.5845,15.58703 -15.57943,-15.57943 -0.008,-0.008 5.73833,-5.72311 z m 23.74442,-4.047 5.73072,-5.73071 5.73071,5.73071 -5.73071,5.73071 -5.73072,-5.73071 z m -8.08385,-0.005 h 0.005 v 0.005 l -5.81693,5.81693 -5.80932,-5.80679 -0.0101,-0.0101 0.0101,-0.008 1.01682,-1.01935 0.49446,-0.49447 4.29804,-4.2955 5.81439,5.81439 z"
       id="path3101" />
    <g
       id="g3170"
       transform="matrix(0.90668219,0,0,0.90668219,60.527899,128.14973)">
      <path
         style="opacity:0.8;color:#000000;fill:#ffffff;fill-opacity:1;fill-rule:nonzero;stroke:none;stroke-width:1;marker:none;visibility:visible;display:inline;overflow:visible;enable-background:accumulate"
         inkscape:connector-curvature="0"
         d="m 348.26113,792.88299 6.48725,-6.48725 6.4906,6.49059 3.77476,-3.77476 -10.26536,-10.26536 -10.26202,10.26202 3.77477,3.77476 z m -10.21525,2.66572 3.77476,-3.77476 3.77477,3.77476 -3.77477,3.77476 -3.77476,-3.77476 z m 10.21525,2.66572 6.48725,6.48725 6.4906,-6.49059 3.77476,3.7731 -10.26536,10.26702 -10.26202,-10.26202 -0.005,-0.005 3.77978,-3.76974 z m 15.64022,-2.66572 3.77477,-3.77476 3.77476,3.77476 -3.77476,3.77476 -3.77477,-3.77476 z m -5.32475,-0.003 h 0.003 v 0.003 l -3.83156,3.83156 -3.82654,-3.82488 -0.007,-0.007 0.007,-0.005 0.66977,-0.67143 0.32569,-0.3257 2.83108,-2.82941 3.82988,3.82988 z"
         id="path3126" />
      <path
         inkscape:connector-curvature="0"
         id="rect3165"
         d="m 331.0625,778.84616 -13.19196,8.4821 0,6.23621 7.71893,-4.97152 0,23.65832 5.47303,0 0,-27.16891 0,-2.48576 0,-3.75044 z"
         style="opacity:0.8;color:#000000;fill:#ffffff;fill-opacity:1;fill-rule:nonzero;stroke:none;stroke-width:1;marker:none;visibility:visible;display:inline;overflow:visible;enable-background:accumulate" />
    </g>
  </g>
</svg>
