<?xml version="1.0" encoding="UTF-8" standalone="no"?>
<!-- Created with Inkscape (http://www.inkscape.org/) -->

<svg
   xmlns:dc="http://purl.org/dc/elements/1.1/"
   xmlns:cc="http://creativecommons.org/ns#"
   xmlns:rdf="http://www.w3.org/1999/02/22-rdf-syntax-ns#"
   xmlns:svg="http://www.w3.org/2000/svg"
   xmlns="http://www.w3.org/2000/svg"
   xmlns:xlink="http://www.w3.org/1999/xlink"
   xmlns:sodipodi="http://sodipodi.sourceforge.net/DTD/sodipodi-0.dtd"
   xmlns:inkscape="http://www.inkscape.org/namespaces/inkscape"
   width="460.62991"
   height="283.46457"
   id="svg2"
   version="1.1"
   inkscape:version="0.48.5 r10040"
   sodipodi:docname="bts.svg"
   inkscape:export-filename="/home/mammique/Documents/daat/banknote/cryptos/dash.png"
   inkscape:export-xdpi="156.31"
   inkscape:export-ydpi="156.31">
  <defs
     id="defs4">
    <linearGradient
       id="linearGradient4925">
      <stop
         style="stop-color:#bd9800;stop-opacity:1;"
         offset="0"
         id="stop4927" />
      <stop
         id="stop3784"
         offset="0.51732481"
         style="stop-color:#ffcc04;stop-opacity:1;" />
      <stop
         offset="1"
         id="stop4929"
         style="stop-color:#a98500;stop-opacity:1;" />
    </linearGradient>
    <linearGradient
       id="linearGradient4835">
      <stop
         style="stop-color:#000000;stop-opacity:0.61572052"
         offset="0"
         id="stop4837" />
      <stop
         style="stop-color:#000000;stop-opacity:0;"
         offset="1"
         id="stop4839" />
    </linearGradient>
    <linearGradient
       inkscape:collect="always"
       id="linearGradient4531">
      <stop
         style="stop-color:#ffffff;stop-opacity:1;"
         offset="0"
         id="stop4533" />
      <stop
         style="stop-color:#ffffff;stop-opacity:0;"
         offset="1"
         id="stop4535" />
    </linearGradient>
    <clipPath
       clipPathUnits="userSpaceOnUse"
       id="clipPath5978">
      <rect
         style="color:#000000;fill:#cccccc;fill-opacity:1;fill-rule:nonzero;stroke:#003a00;stroke-width:0.89999998;stroke-linecap:butt;stroke-linejoin:miter;stroke-miterlimit:4;stroke-opacity:1;stroke-dasharray:none;stroke-dashoffset:0;marker:none;visibility:visible;display:inline;overflow:visible;enable-background:accumulate"
         id="rect5980"
         width="173.74623"
         height="1608.1628"
         x="610.13214"
         y="-378.01382"
         transform="matrix(0,-1,1,0,0,0)" />
    </clipPath>
    <inkscape:perspective
       id="perspective2497"
       inkscape:persp3d-origin="372.04724 : 350.78739 : 1"
       inkscape:vp_z="744.09448 : 526.18109 : 1"
       inkscape:vp_y="0 : 1000 : 0"
       inkscape:vp_x="0 : 526.18109 : 1"
       sodipodi:type="inkscape:persp3d" />
    <linearGradient
       inkscape:collect="always"
       xlink:href="#linearGradient4531"
       id="linearGradient4823"
       gradientUnits="userSpaceOnUse"
       x1="182.81697"
       y1="175.83376"
       x2="183.58928"
       y2="-16.309107"
       gradientTransform="translate(53.033008,825.69937)" />
    <radialGradient
       inkscape:collect="always"
       xlink:href="#linearGradient4835"
       id="radialGradient4845"
       cx="7.3256431"
       cy="198.2952"
       fx="7.3256431"
       fy="198.2952"
       r="109.27257"
       gradientTransform="matrix(0.19829552,0.15553474,-0.16582027,0.21140881,93.302602,945.5672)"
       gradientUnits="userSpaceOnUse" />
    <linearGradient
       id="linearGradient4925-6">
      <stop
         style="stop-color:#bd9800;stop-opacity:1;"
         offset="0"
         id="stop4927-7" />
      <stop
         id="stop3784-5"
         offset="0.5"
         style="stop-color:#ffcc04;stop-opacity:1;" />
      <stop
         offset="1"
         id="stop4929-3"
         style="stop-color:#a98500;stop-opacity:1;" />
    </linearGradient>
    <linearGradient
       gradientTransform="translate(-17.649337,-11.359598)"
       y2="38.317909"
       x2="313.61914"
       y1="142.8687"
       x1="50.479298"
       gradientUnits="userSpaceOnUse"
       id="linearGradient3802"
       xlink:href="#linearGradient4925-6"
       inkscape:collect="always" />
    <linearGradient
       id="linearGradient4925-2">
      <stop
         style="stop-color:#bd9800;stop-opacity:1;"
         offset="0"
         id="stop4927-3" />
      <stop
         id="stop3784-7"
         offset="0.38554054"
         style="stop-color:#ffcc04;stop-opacity:1;" />
      <stop
         offset="1"
         id="stop4929-5"
         style="stop-color:#a98500;stop-opacity:1;" />
    </linearGradient>
    <linearGradient
       y2="38.317909"
       x2="313.61914"
       y1="83.269699"
       x1="19.16457"
       gradientTransform="translate(-17.649337,-11.359581)"
       gradientUnits="userSpaceOnUse"
       id="linearGradient4077"
       xlink:href="#linearGradient4925-2"
       inkscape:collect="always" />
    <linearGradient
       id="linearGradient4925-28">
      <stop
         style="stop-color:#bd9800;stop-opacity:1;"
         offset="0"
         id="stop4927-9" />
      <stop
         id="stop3784-73"
         offset="0.51732481"
         style="stop-color:#ffcc04;stop-opacity:1;" />
      <stop
         offset="1"
         id="stop4929-6"
         style="stop-color:#a98500;stop-opacity:1;" />
    </linearGradient>
    <linearGradient
       y2="19.746481"
       x2="180.76199"
       y1="166.12685"
       x1="180.59314"
       gradientTransform="translate(-17.649337,-11.359581)"
       gradientUnits="userSpaceOnUse"
       id="linearGradient4113"
       xlink:href="#linearGradient4925-28"
       inkscape:collect="always" />
    <linearGradient
       id="linearGradient4925-7">
      <stop
         style="stop-color:#bd9800;stop-opacity:1;"
         offset="0"
         id="stop4927-5" />
      <stop
         id="stop3784-3"
         offset="0.51732481"
         style="stop-color:#ffcc04;stop-opacity:1;" />
      <stop
         offset="1"
         id="stop4929-56"
         style="stop-color:#a98500;stop-opacity:1;" />
    </linearGradient>
    <linearGradient
       y2="19.746481"
       x2="180.76199"
       y1="166.12685"
       x1="180.59314"
       gradientTransform="translate(-17.649337,-11.359581)"
       gradientUnits="userSpaceOnUse"
       id="linearGradient3327"
       xlink:href="#linearGradient4925-7"
       inkscape:collect="always" />
    <linearGradient
       id="linearGradient4925-7-1">
      <stop
         style="stop-color:#bd9800;stop-opacity:1;"
         offset="0"
         id="stop4927-5-2" />
      <stop
         id="stop3784-3-7"
         offset="0.51732481"
         style="stop-color:#ffcc04;stop-opacity:1;" />
      <stop
         offset="1"
         id="stop4929-56-0"
         style="stop-color:#a98500;stop-opacity:1;" />
    </linearGradient>
    <linearGradient
       y2="19.032196"
       x2="138.61914"
       y1="166.12685"
       x1="180.59314"
       gradientTransform="translate(-17.649337,-7.9568844)"
       gradientUnits="userSpaceOnUse"
       id="linearGradient3455"
       xlink:href="#linearGradient4925-7-1"
       inkscape:collect="always" />
    <linearGradient
       inkscape:collect="always"
       xlink:href="#linearGradient4925-7-6"
       id="linearGradient3350-3"
       gradientUnits="userSpaceOnUse"
       gradientTransform="translate(54.548237,823.78353)"
       x1="180.59314"
       y1="166.12685"
       x2="138.61914"
       y2="19.032196" />
    <linearGradient
       id="linearGradient4925-7-6">
      <stop
         style="stop-color:#bd9800;stop-opacity:1;"
         offset="0"
         id="stop4927-5-0" />
      <stop
         id="stop3784-3-6"
         offset="0.51732481"
         style="stop-color:#ffcc04;stop-opacity:1;" />
      <stop
         offset="1"
         id="stop4929-56-2"
         style="stop-color:#a98500;stop-opacity:1;" />
    </linearGradient>
    <linearGradient
       y2="19.032196"
       x2="138.61914"
       y1="166.12685"
       x1="180.59314"
       gradientTransform="translate(-17.649337,-7.9568844)"
       gradientUnits="userSpaceOnUse"
       id="linearGradient3491"
       xlink:href="#linearGradient4925-7-6"
       inkscape:collect="always" />
    <linearGradient
       id="linearGradient4835-7">
      <stop
         style="stop-color:#000000;stop-opacity:0.61572052"
         offset="0"
         id="stop4837-5" />
      <stop
         style="stop-color:#000000;stop-opacity:0;"
         offset="1"
         id="stop4839-9" />
    </linearGradient>
    <radialGradient
       r="109.27257"
       fy="198.2952"
       fx="7.3256431"
       cy="198.2952"
       cx="7.3256431"
       gradientTransform="matrix(0.19829552,0.15553474,-0.16582027,0.21140881,132.487,52.51516)"
       gradientUnits="userSpaceOnUse"
       id="radialGradient3545"
       xlink:href="#linearGradient4835-7"
       inkscape:collect="always" />
    <linearGradient
       id="linearGradient4835-8">
      <stop
         style="stop-color:#000000;stop-opacity:0.61572052"
         offset="0"
         id="stop4837-9" />
      <stop
         style="stop-color:#000000;stop-opacity:0;"
         offset="1"
         id="stop4839-7" />
    </linearGradient>
    <radialGradient
       r="109.27257"
       fy="198.2952"
       fx="7.3256431"
       cy="198.2952"
       cx="7.3256431"
       gradientTransform="matrix(0.19829552,0.15553474,-0.16582027,0.21140881,132.487,52.51516)"
       gradientUnits="userSpaceOnUse"
       id="radialGradient3578"
       xlink:href="#linearGradient4835-8"
       inkscape:collect="always" />
    <linearGradient
       inkscape:collect="always"
       xlink:href="#linearGradient4925-7-6-1"
       id="linearGradient3350-3-6"
       gradientUnits="userSpaceOnUse"
       gradientTransform="translate(54.548237,823.78353)"
       x1="180.59314"
       y1="166.12685"
       x2="138.61914"
       y2="19.032196" />
    <linearGradient
       id="linearGradient4925-7-6-1">
      <stop
         style="stop-color:#bd9800;stop-opacity:1;"
         offset="0"
         id="stop4927-5-0-2" />
      <stop
         id="stop3784-3-6-9"
         offset="0.51732481"
         style="stop-color:#ffcc04;stop-opacity:1;" />
      <stop
         offset="1"
         id="stop4929-56-2-3"
         style="stop-color:#a98500;stop-opacity:1;" />
    </linearGradient>
    <linearGradient
       y2="19.032196"
       x2="138.61914"
       y1="166.12685"
       x1="180.59314"
       gradientTransform="translate(-17.649337,-14.676051)"
       gradientUnits="userSpaceOnUse"
       id="linearGradient3612"
       xlink:href="#linearGradient4925-7-6-1"
       inkscape:collect="always" />
    <clipPath
       id="clipPath118"
       clipPathUnits="userSpaceOnUse">
      <path
         inkscape:connector-curvature="0"
         id="path116"
         d="m 52.337,812.842 h 4.555 c 0.078,0.352 0.226,0.686 0.424,0.969 v 0 l -4.979,4.905 z" />
    </clipPath>
    <clipPath
       id="clipPath128"
       clipPathUnits="userSpaceOnUse">
      <path
         inkscape:connector-curvature="0"
         id="path126"
         d="m 52.337,811.821 c 0.104,-1.608 0.749,-3.058 1.75,-4.214 v 0 l 3.229,3.224 c -0.182,0.304 -0.33,0.633 -0.391,0.99 v 0 z" />
    </clipPath>
    <clipPath
       id="clipPath138"
       clipPathUnits="userSpaceOnUse">
      <path
         inkscape:connector-curvature="0"
         id="path136"
         d="m 59.871,814.784 c 0.364,-0.07 0.686,-0.2 0.964,-0.409 v 0 l 3.25,3.229 c -1.139,0.993 -2.599,1.637 -4.214,1.751 v 0 z" />
    </clipPath>
    <clipPath
       id="clipPath148"
       clipPathUnits="userSpaceOnUse">
      <path
         inkscape:connector-curvature="0"
         id="path146"
         d="m 61.898,811.821 c -0.086,-0.334 -0.197,-0.626 -0.368,-0.891 v 0 l 3.187,-3.195 c 0.948,1.122 1.545,2.527 1.665,4.086 v 0 z" />
    </clipPath>
    <clipPath
       id="clipPath158"
       clipPathUnits="userSpaceOnUse">
      <path
         inkscape:connector-curvature="0"
         id="path156"
         d="m 61.53,813.833 c 0.192,-0.304 0.331,-0.643 0.41,-0.991 v 0 h 4.57 c -0.104,1.608 -0.749,3.058 -1.75,4.214 v 0 z" />
    </clipPath>
    <clipPath
       id="clipPath168"
       clipPathUnits="userSpaceOnUse">
      <path
         inkscape:connector-curvature="0"
         id="path166"
         d="m 54.763,806.931 c 1.138,-0.993 2.598,-1.637 4.214,-1.75 v 0 4.571 c -0.365,0.07 -0.687,0.2 -0.965,0.409 v 0 z" />
    </clipPath>
    <clipPath
       id="clipPath178"
       clipPathUnits="userSpaceOnUse">
      <path
         inkscape:connector-curvature="0"
         id="path176"
         d="m 59.999,809.752 v -4.571 c 1.615,0.105 3.075,0.757 4.213,1.75 v 0 l -3.215,3.23 c -0.313,-0.209 -0.643,-0.339 -0.998,-0.409" />
    </clipPath>
    <clipPath
       id="clipPath188"
       clipPathUnits="userSpaceOnUse">
      <path
         inkscape:connector-curvature="0"
         id="path186"
         d="m 52.337,828.165 c 0,-0.009 0.018,-7.769 0.018,-7.951 v 0 c 1.225,-1.218 5.075,-5.063 5.717,-5.712 v 0 c 0.279,0.155 0.566,0.294 0.905,0.363 v 0 7.441 z" />
    </clipPath>
  </defs>
  <sodipodi:namedview
     id="base"
     pagecolor="#5271a5"
     bordercolor="#666666"
     borderopacity="1.0"
     inkscape:pageopacity="1"
     inkscape:pageshadow="2"
     inkscape:zoom="2.8"
     inkscape:cx="171.06217"
     inkscape:cy="153.08402"
     inkscape:document-units="px"
     inkscape:current-layer="layer1"
     showgrid="false"
     units="mm"
     inkscape:window-width="1918"
     inkscape:window-height="1059"
     inkscape:window-x="1366"
     inkscape:window-y="19"
     inkscape:window-maximized="1"
     showguides="true"
     inkscape:guide-bbox="true" />
  <metadata
     id="metadata7">
    <rdf:RDF>
      <cc:Work
         rdf:about="">
        <dc:format>image/svg+xml</dc:format>
        <dc:type
           rdf:resource="http://purl.org/dc/dcmitype/StillImage" />
        <dc:title></dc:title>
      </cc:Work>
    </rdf:RDF>
  </metadata>
  <g
     inkscape:label="Calque 1"
     inkscape:groupmode="layer"
     id="layer1"
     transform="translate(0,-768.89763)">
    <g
       id="g829"
       transform="matrix(7.5942781,0,0,7.5942781,-475.77609,-351.80232)">
      <g
         transform="matrix(0.35277777,0,0,-0.35277777,59.923615,454.32432)"
         id="g112">
        <g
           id="g114"
           clip-path="url(#clipPath118)">
          <path
             d="m 51.699,819.354 h 6.257 v -7.15 h -6.257 z"
             style="fill:#00a9e0;fill-opacity:1;fill-rule:nonzero;stroke:none"
             id="path120"
             inkscape:connector-curvature="0" />
        </g>
      </g>
      <g
         transform="matrix(0.35277777,0,0,-0.35277777,59.923615,454.32432)"
         id="g122">
        <g
           id="g124"
           clip-path="url(#clipPath128)">
          <path
             d="m 51.699,812.459 h 6.257 v -5.491 h -6.257 z"
             style="fill:#00a9e0;fill-opacity:1;fill-rule:nonzero;stroke:none"
             id="path130"
             inkscape:connector-curvature="0" />
        </g>
      </g>
      <g
         transform="matrix(0.35277777,0,0,-0.35277777,59.923615,454.32432)"
         id="g132">
        <g
           id="g134"
           clip-path="url(#clipPath138)">
          <path
             d="m 59.232,819.993 h 5.491 v -6.257 h -5.491 z"
             style="fill:#00a9e0;fill-opacity:1;fill-rule:nonzero;stroke:none"
             id="path140"
             inkscape:connector-curvature="0" />
        </g>
      </g>
      <g
         transform="matrix(0.35277777,0,0,-0.35277777,59.923615,454.32432)"
         id="g142">
        <g
           id="g144"
           clip-path="url(#clipPath148)">
          <path
             d="m 60.892,812.459 h 6.129 v -5.363 h -6.129 z"
             style="fill:#00a9e0;fill-opacity:1;fill-rule:nonzero;stroke:none"
             id="path150"
             inkscape:connector-curvature="0" />
        </g>
      </g>
      <g
         transform="matrix(0.35277777,0,0,-0.35277777,59.923615,454.32432)"
         id="g152">
        <g
           id="g154"
           clip-path="url(#clipPath158)">
          <path
             d="m 60.892,817.694 h 6.257 v -5.491 h -6.257 z"
             style="fill:#00a9e0;fill-opacity:1;fill-rule:nonzero;stroke:none"
             id="path160"
             inkscape:connector-curvature="0" />
        </g>
      </g>
      <g
         transform="matrix(0.35277777,0,0,-0.35277777,59.923615,454.32432)"
         id="g162">
        <g
           id="g164"
           clip-path="url(#clipPath168)">
          <path
             d="m 54.125,810.799 h 5.491 v -6.257 h -5.491 z"
             style="fill:#00a9e0;fill-opacity:1;fill-rule:nonzero;stroke:none"
             id="path170"
             inkscape:connector-curvature="0" />
        </g>
      </g>
      <g
         transform="matrix(0.35277777,0,0,-0.35277777,59.923615,454.32432)"
         id="g172">
        <g
           id="g174"
           clip-path="url(#clipPath178)">
          <path
             d="m 59.36,810.799 h 5.491 v -6.257 H 59.36 z"
             style="fill:#00a9e0;fill-opacity:1;fill-rule:nonzero;stroke:none"
             id="path180"
             inkscape:connector-curvature="0" />
        </g>
      </g>
      <g
         transform="matrix(0.35277777,0,0,-0.35277777,59.923615,454.32432)"
         id="g182">
        <g
           id="g184"
           clip-path="url(#clipPath188)">
          <path
             d="m 51.699,828.803 h 7.917 v -14.939 h -7.917 z"
             style="fill:#00a9e0;fill-opacity:1;fill-rule:nonzero;stroke:none"
             id="path190"
             inkscape:connector-curvature="0" />
        </g>
      </g>
    </g>
    <path
       style="opacity:0.8;color:#000000;fill:#ffffff;fill-opacity:1;fill-rule:nonzero;stroke:none;stroke-width:1;marker:none;visibility:visible;display:inline;overflow:visible;enable-background:accumulate"
       d="m 87.041776,845.61637 -0.178911,-0.0222 0,-5.57817 c 0,-5.0358 0.0084,-5.58144 0.08707,-5.61161 0.0479,-0.0184 0.183894,-0.0334 0.302225,-0.0334 l 0.215148,0 0.01431,2.53077 0.01431,2.53077 0.273047,-0.2154 c 0.409028,-0.32269 0.799901,-0.49203 1.298349,-0.56252 1.303038,-0.18428 2.494508,0.62036 2.830877,1.91178 0.06933,0.26619 0.08429,0.74162 0.08429,2.6792 0,2.20647 -0.0061,2.35561 -0.09634,2.35618 -0.05299,2.5e-4 -0.187823,0.0158 -0.299639,0.0343 l -0.203302,0.0336 -0.0169,-2.47017 -0.0169,-2.47018 -0.155457,-0.33638 c -0.399667,-0.8648 -1.344345,-1.32849 -2.239381,-1.09919 -0.642267,0.16453 -1.082345,0.5531 -1.368837,1.2086 -0.113959,0.26075 -0.117343,0.3389 -0.117343,2.71121 l 0,2.44272 -0.123862,-0.009 c -0.06812,-0.005 -0.204371,-0.0188 -0.302772,-0.031 z m 12.496325,0 -0.178917,-0.0222 0,-3.43024 0,-3.43025 0.17203,-0.0344 c 0.413376,-0.0827 0.433525,-0.0688 0.433525,0.29957 l 0,0.33399 0.237811,-0.19487 c 0.13079,-0.10717 0.38438,-0.26197 0.56355,-0.34399 0.27796,-0.12726 0.39901,-0.14913 0.82535,-0.14913 0.44483,0 0.54009,0.0189 0.8685,0.17262 0.20289,0.0949 0.38319,0.2099 0.40068,0.25547 0.0355,0.0925 -0.0694,0.4545 -0.14523,0.50139 -0.0268,0.0166 -0.20466,-0.0503 -0.39509,-0.14866 -0.84217,-0.435 -1.75296,-0.0877 -2.18486,0.83313 l -0.143192,0.3053 -0.01632,2.54605 -0.01632,2.54605 -0.121299,-0.009 c -0.06669,-0.005 -0.201817,-0.0188 -0.300216,-0.031 z m -28.694753,-0.0709 c -0.579574,-0.1 -1.028888,-0.35507 -1.582684,-0.89858 l -0.399111,-0.3917 0,0.64545 0,0.64547 -0.302775,0 -0.302774,0 0,-5.61509 0,-5.61509 0.302774,0 0.302775,0 0,2.7924 0,2.79241 0.399111,-0.3917 c 0.651963,-0.63986 1.149921,-0.87751 1.95892,-0.93494 1.501261,-0.10657 2.704955,0.67414 3.275652,2.12455 0.145844,0.37066 0.166497,0.49839 0.189704,1.17334 0.03171,0.92233 -0.03086,1.28815 -0.325307,1.9018 -0.64733,1.34906 -2.003877,2.03257 -3.516285,1.77168 z m 1.346798,-0.63425 c 0.961784,-0.25052 1.647862,-1.01595 1.873378,-2.09008 0.409664,-1.95123 -0.785658,-3.66082 -2.559577,-3.66082 -0.740806,0 -1.348747,0.25599 -1.846023,0.77734 -1.267531,1.32887 -0.957735,3.91299 0.568707,4.74378 0.561366,0.30554 1.328164,0.39526 1.963515,0.22978 z m 3.393654,-2.29653 c 0.0034,-1.64254 0.02197,-3.22179 0.04128,-3.50942 l 0.03513,-0.52298 0.234139,0.005 c 0.128776,0.003 0.245695,0.0163 0.259821,0.0304 0.01412,0.0141 0.04284,1.59122 0.06381,3.50466 l 0.03812,3.47898 -0.339238,0 -0.339237,0 0.0062,-2.98645 z m 3.309039,2.90556 c -0.346196,-0.10811 -0.575262,-0.30855 -0.769863,-0.67365 l -0.172919,-0.32443 -0.03891,-2.65341 -0.0389,-2.65339 -0.459178,0 -0.459182,0 0,-0.30278 0,-0.30277 0.467926,0 0.467923,0 0,-1.15605 0,-1.15604 0.3303,0 0.330298,0 0,1.15604 0,1.15605 0.880799,0 0.880799,0 0,0.30277 0,0.30278 -0.880799,0 -0.880799,0 1.1e-4,2.57358 c 5.5e-5,2.34031 0.0088,2.59094 0.09634,2.76516 0.252804,0.50318 0.935098,0.58955 1.404563,0.1778 0.08837,-0.0775 0.104359,-0.0757 0.175834,0.0204 0.151165,0.20315 0.209239,0.34665 0.17568,0.4341 -0.0186,0.0485 -0.18911,0.16161 -0.3789,0.25139 -0.385256,0.18226 -0.730766,0.20744 -1.131092,0.0824 z m 3.731185,-0.006 c -0.444627,-0.11636 -1.144719,-0.47866 -1.453274,-0.75207 -0.29627,-0.26253 -0.297923,-0.31985 -0.01681,-0.58274 l 0.136476,-0.12764 0.192765,0.16925 c 0.106021,0.0931 0.337958,0.25671 0.515416,0.3636 1.084303,0.65309 2.584438,0.51575 3.03175,-0.27759 0.156364,-0.27731 0.166123,-0.73203 0.02249,-1.04822 -0.188691,-0.41541 -0.467137,-0.56974 -1.652567,-0.91592 -1.092,-0.31891 -1.568714,-0.6091 -1.837644,-1.11865 -0.08975,-0.17005 -0.121433,-0.34815 -0.139111,-0.78191 -0.02004,-0.49187 -0.0081,-0.59226 0.0961,-0.80749 0.159981,-0.33048 0.538158,-0.66762 0.98442,-0.87761 0.324454,-0.15266 0.435708,-0.17537 0.945736,-0.19299 0.86109,-0.0298 1.414686,0.12275 2.023081,0.55729 0.128681,0.0919 0.233296,0.19387 0.232483,0.22658 -7.48e-4,0.0327 -0.07114,0.14347 -0.156278,0.24612 l -0.154798,0.18664 -0.38563,-0.22909 c -0.960142,-0.57041 -2.26757,-0.48877 -2.79261,0.1744 -0.13508,0.1706 -0.169115,0.27212 -0.187372,0.55881 -0.02691,0.42264 0.04743,0.67198 0.267434,0.897 0.222835,0.22792 0.489017,0.3431 1.425629,0.61686 1.216477,0.35557 1.579362,0.57994 1.859035,1.14946 0.135367,0.27566 0.153596,0.37484 0.153596,0.83575 0,0.61337 -0.07503,0.8095 -0.454999,1.18948 -0.290461,0.29046 -0.530965,0.42206 -0.987545,0.54037 -0.415537,0.10768 -1.256919,0.10783 -1.667775,2.5e-4 z m 11.643048,0.009 c -0.607044,-0.19248 -1.050129,-0.57295 -1.309381,-1.12434 -0.129676,-0.2758 -0.169441,-0.44822 -0.191139,-0.82878 -0.07737,-1.35691 0.719977,-2.21823 2.249866,-2.43039 0.582413,-0.0807 1.639851,-0.0173 2.438202,0.14649 l 0.159804,0.0327 -0.03203,-0.40533 c -0.06364,-0.80536 -0.338785,-1.29383 -0.885539,-1.57212 -0.530223,-0.26987 -1.642926,-0.23623 -2.57322,0.0778 -0.272729,0.092 -0.454645,0.12753 -0.487118,0.095 -0.0285,-0.0285 -0.09105,-0.14589 -0.138986,-0.26072 l -0.08716,-0.20877 0.247703,-0.10958 c 0.711187,-0.31459 2.096707,-0.47796 2.774769,-0.32719 0.633106,0.14077 1.181193,0.53067 1.456165,1.03588 0.309275,0.56824 0.328824,0.75785 0.354466,3.43796 l 0.02356,2.46348 -0.307201,0 -0.307201,0 0,-0.52275 0,-0.52275 -0.33448,0.26953 c -0.667126,0.53758 -1.511764,0.83393 -2.358007,0.82734 -0.260085,-0.002 -0.571972,-0.0351 -0.693083,-0.0735 z m 1.706547,-0.68878 c 0.449439,-0.15861 1.031033,-0.56523 1.26569,-0.88491 0.310026,-0.42234 0.37058,-0.62327 0.400658,-1.32955 0.03104,-0.72883 0.08065,-0.6565 -0.522934,-0.76232 -0.626851,-0.10991 -1.447324,-0.15712 -1.93136,-0.11114 -1.165217,0.11067 -1.70916,0.58184 -1.811012,1.56869 -0.07357,0.7129 0.383812,1.40091 1.084729,1.63167 0.246776,0.0812 1.156942,0.0137 1.514229,-0.11244 z m 9.216381,0.66505 c -0.49445,-0.12907 -0.92629,-0.403 -1.36999,-0.86902 -0.66791,-0.70151 -0.90711,-1.37486 -0.90696,-2.55325 1e-4,-0.84485 0.0993,-1.2719 0.4518,-1.94559 0.36725,-0.7018 1.11526,-1.28514 1.91507,-1.49347 0.41431,-0.10791 1.17668,-0.10784 1.59129,1.7e-4 1.13168,0.29476 1.95453,1.31723 2.1473,2.6682 0.0194,0.13625 0.0484,0.31585 0.0643,0.39911 l 0.0289,0.15139 -2.82005,0 -2.82004,0 0.035,0.45591 c 0.0906,1.17861 0.61276,2.02272 1.519,2.45551 0.40973,0.19568 0.4276,0.1989 1.1046,0.19889 0.53089,-10e-6 0.7573,-0.0237 0.9909,-0.10395 0.41713,-0.1432 0.76223,-0.32193 1.059,-0.54846 l 0.25113,-0.19169 0.17068,0.21239 c 0.0939,0.11681 0.16962,0.23242 0.16833,0.2569 -0.005,0.0891 -0.54972,0.46351 -0.94309,0.64786 -0.75051,0.35175 -1.8635,0.46109 -2.63727,0.25911 z m 3.19737,-4.29727 c 0,-0.181 -0.25735,-0.81957 -0.4413,-1.09505 -0.41205,-0.61705 -0.95038,-0.90356 -1.7607,-0.93706 -0.61403,-0.0254 -1.03991,0.0901 -1.52919,0.41492 -0.44131,0.29293 -0.89848,0.96335 -1.03314,1.51505 l -0.0369,0.15139 2.40064,0 c 1.37529,0 2.40064,-0.0211 2.40064,-0.0492 z m 2.89774,4.31091 c -0.63096,-0.15273 -1.68665,-0.78338 -1.68665,-1.00759 0,-0.0521 0.082,-0.17406 0.18211,-0.27114 l 0.18212,-0.17651 0.21699,0.18471 c 0.76611,0.65205 1.74204,0.90105 2.62762,0.67039 0.6888,-0.17941 1.00253,-0.53283 1.00239,-1.12923 0,-0.75108 -0.28671,-1.00182 -1.5998,-1.39999 -1.11245,-0.33733 -1.37223,-0.45465 -1.6625,-0.75083 -0.30055,-0.30668 -0.44422,-0.60705 -0.48725,-1.01874 -0.0973,-0.93095 0.38437,-1.63108 1.33947,-1.94696 0.4181,-0.13827 1.21538,-0.15313 1.68292,-0.0313 0.32794,0.0854 0.96258,0.38909 1.18928,0.56907 l 0.13173,0.10458 -0.17474,0.25398 -0.17475,0.25399 -0.27081,-0.19456 c -0.44847,-0.32219 -0.82109,-0.43055 -1.48733,-0.43251 -0.4875,-0.002 -0.62113,0.018 -0.85328,0.12416 -0.31257,0.14293 -0.61797,0.41239 -0.69776,0.61567 -0.0948,0.2415 -0.0607,0.80018 0.0637,1.04405 0.16711,0.32755 0.4534,0.48271 1.44671,0.78406 1.11343,0.33779 1.40313,0.46805 1.68351,0.75696 0.36651,0.37766 0.44899,0.60921 0.44899,1.26047 0,0.44488 -0.0219,0.60564 -0.1047,0.76708 -0.23192,0.4524 -0.73373,0.81104 -1.36476,0.97541 -0.39101,0.10184 -1.20174,0.0993 -1.63323,-0.005 z m -35.693709,-8.17486 -0.509211,-0.44041 0,-0.57569 c 0,-0.31664 0.02206,-0.5757 0.04901,-0.5757 0.02696,0 0.262299,0.17682 0.522975,0.39294 l 0.473954,0.39293 0,0.62549 c 0,0.34402 -0.0062,0.62445 -0.01377,0.62318 -0.0076,-9.5e-4 -0.242907,-0.2005 -0.522975,-0.44274 z"
       id="path3289"
       inkscape:connector-curvature="0"
       sodipodi:nodetypes="ccscscccsssscscccsssscccccccsscccscccssccccccsscccccccccccsssssssssssscscscsccccccsccccccccccccccccccccccsscsscccssccsssssssssscscsssssssssccssssccssscscsssscccccscssssssssscscssccccccssssccccsccssssscssssscsscsssssscccsccssssssssscssscscs" />
    <g
       id="g4158"
       transform="matrix(0.7046779,0,0,0.7046779,189.80053,248.55936)">
      <g
         style="opacity:0.8;color:#000000;fill:#ffffff;fill-opacity:1;fill-rule:nonzero;stroke:none;stroke-width:0.13167809;marker:none;visibility:visible;display:inline;overflow:visible;enable-background:accumulate"
         id="g3319"
         transform="matrix(4.921904,0,0,4.921904,-115.93971,33.073726)">
        <g
           style="color:#000000;fill:#ffffff;fill-opacity:1;fill-rule:nonzero;stroke:none;stroke-width:0.37326071;marker:none;visibility:visible;display:inline;overflow:visible;enable-background:accumulate"
           transform="matrix(0.35277777,0,0,-0.35277777,59.923615,454.32432)"
           id="g3321">
          <g
             style="color:#000000;fill:#ffffff;fill-opacity:1;fill-rule:nonzero;stroke:none;stroke-width:0.37326071;marker:none;visibility:visible;display:inline;overflow:visible;enable-background:accumulate"
             id="g3323"
             clip-path="url(#clipPath118)">
            <path
               d="m 51.699,819.354 h 6.257 v -7.15 h -6.257 z"
               style="color:#000000;fill:#ffffff;fill-opacity:1;fill-rule:nonzero;stroke:none;stroke-width:0.37326071;marker:none;visibility:visible;display:inline;overflow:visible;enable-background:accumulate"
               id="path3325"
               inkscape:connector-curvature="0" />
          </g>
        </g>
        <g
           style="color:#000000;fill:#ffffff;fill-opacity:1;fill-rule:nonzero;stroke:none;stroke-width:0.37326071;marker:none;visibility:visible;display:inline;overflow:visible;enable-background:accumulate"
           transform="matrix(0.35277777,0,0,-0.35277777,59.923615,454.32432)"
           id="g3327">
          <g
             style="color:#000000;fill:#ffffff;fill-opacity:1;fill-rule:nonzero;stroke:none;stroke-width:0.37326071;marker:none;visibility:visible;display:inline;overflow:visible;enable-background:accumulate"
             id="g3329"
             clip-path="url(#clipPath128)">
            <path
               d="m 51.699,812.459 h 6.257 v -5.491 h -6.257 z"
               style="color:#000000;fill:#ffffff;fill-opacity:1;fill-rule:nonzero;stroke:none;stroke-width:0.37326071;marker:none;visibility:visible;display:inline;overflow:visible;enable-background:accumulate"
               id="path3331"
               inkscape:connector-curvature="0" />
          </g>
        </g>
        <g
           style="color:#000000;fill:#ffffff;fill-opacity:1;fill-rule:nonzero;stroke:none;stroke-width:0.37326071;marker:none;visibility:visible;display:inline;overflow:visible;enable-background:accumulate"
           transform="matrix(0.35277777,0,0,-0.35277777,59.923615,454.32432)"
           id="g3333">
          <g
             style="color:#000000;fill:#ffffff;fill-opacity:1;fill-rule:nonzero;stroke:none;stroke-width:0.37326071;marker:none;visibility:visible;display:inline;overflow:visible;enable-background:accumulate"
             id="g3335"
             clip-path="url(#clipPath138)">
            <path
               d="m 59.232,819.993 h 5.491 v -6.257 h -5.491 z"
               style="color:#000000;fill:#ffffff;fill-opacity:1;fill-rule:nonzero;stroke:none;stroke-width:0.37326071;marker:none;visibility:visible;display:inline;overflow:visible;enable-background:accumulate"
               id="path3337"
               inkscape:connector-curvature="0" />
          </g>
        </g>
        <g
           style="color:#000000;fill:#ffffff;fill-opacity:1;fill-rule:nonzero;stroke:none;stroke-width:0.37326071;marker:none;visibility:visible;display:inline;overflow:visible;enable-background:accumulate"
           transform="matrix(0.35277777,0,0,-0.35277777,59.923615,454.32432)"
           id="g3339">
          <g
             style="color:#000000;fill:#ffffff;fill-opacity:1;fill-rule:nonzero;stroke:none;stroke-width:0.37326071;marker:none;visibility:visible;display:inline;overflow:visible;enable-background:accumulate"
             id="g3341"
             clip-path="url(#clipPath148)">
            <path
               d="m 60.892,812.459 h 6.129 v -5.363 h -6.129 z"
               style="color:#000000;fill:#ffffff;fill-opacity:1;fill-rule:nonzero;stroke:none;stroke-width:0.37326071;marker:none;visibility:visible;display:inline;overflow:visible;enable-background:accumulate"
               id="path3343"
               inkscape:connector-curvature="0" />
          </g>
        </g>
        <g
           style="color:#000000;fill:#ffffff;fill-opacity:1;fill-rule:nonzero;stroke:none;stroke-width:0.37326071;marker:none;visibility:visible;display:inline;overflow:visible;enable-background:accumulate"
           transform="matrix(0.35277777,0,0,-0.35277777,59.923615,454.32432)"
           id="g3345">
          <g
             style="color:#000000;fill:#ffffff;fill-opacity:1;fill-rule:nonzero;stroke:none;stroke-width:0.37326071;marker:none;visibility:visible;display:inline;overflow:visible;enable-background:accumulate"
             id="g3347"
             clip-path="url(#clipPath158)">
            <path
               d="m 60.892,817.694 h 6.257 v -5.491 h -6.257 z"
               style="color:#000000;fill:#ffffff;fill-opacity:1;fill-rule:nonzero;stroke:none;stroke-width:0.37326071;marker:none;visibility:visible;display:inline;overflow:visible;enable-background:accumulate"
               id="path3349"
               inkscape:connector-curvature="0" />
          </g>
        </g>
        <g
           style="color:#000000;fill:#ffffff;fill-opacity:1;fill-rule:nonzero;stroke:none;stroke-width:0.37326071;marker:none;visibility:visible;display:inline;overflow:visible;enable-background:accumulate"
           transform="matrix(0.35277777,0,0,-0.35277777,59.923615,454.32432)"
           id="g3351">
          <g
             style="color:#000000;fill:#ffffff;fill-opacity:1;fill-rule:nonzero;stroke:none;stroke-width:0.37326071;marker:none;visibility:visible;display:inline;overflow:visible;enable-background:accumulate"
             id="g3353"
             clip-path="url(#clipPath168)">
            <path
               d="m 54.125,810.799 h 5.491 v -6.257 h -5.491 z"
               style="color:#000000;fill:#ffffff;fill-opacity:1;fill-rule:nonzero;stroke:none;stroke-width:0.37326071;marker:none;visibility:visible;display:inline;overflow:visible;enable-background:accumulate"
               id="path3355"
               inkscape:connector-curvature="0" />
          </g>
        </g>
        <g
           style="color:#000000;fill:#ffffff;fill-opacity:1;fill-rule:nonzero;stroke:none;stroke-width:0.37326071;marker:none;visibility:visible;display:inline;overflow:visible;enable-background:accumulate"
           transform="matrix(0.35277777,0,0,-0.35277777,59.923615,454.32432)"
           id="g3357">
          <g
             style="color:#000000;fill:#ffffff;fill-opacity:1;fill-rule:nonzero;stroke:none;stroke-width:0.37326071;marker:none;visibility:visible;display:inline;overflow:visible;enable-background:accumulate"
             id="g3359"
             clip-path="url(#clipPath178)">
            <path
               d="m 59.36,810.799 h 5.491 v -6.257 H 59.36 z"
               style="color:#000000;fill:#ffffff;fill-opacity:1;fill-rule:nonzero;stroke:none;stroke-width:0.37326071;marker:none;visibility:visible;display:inline;overflow:visible;enable-background:accumulate"
               id="path3361"
               inkscape:connector-curvature="0" />
          </g>
        </g>
        <g
           style="color:#000000;fill:#ffffff;fill-opacity:1;fill-rule:nonzero;stroke:none;stroke-width:0.37326071;marker:none;visibility:visible;display:inline;overflow:visible;enable-background:accumulate"
           transform="matrix(0.35277777,0,0,-0.35277777,59.923615,454.32432)"
           id="g3363">
          <g
             style="color:#000000;fill:#ffffff;fill-opacity:1;fill-rule:nonzero;stroke:none;stroke-width:0.37326071;marker:none;visibility:visible;display:inline;overflow:visible;enable-background:accumulate"
             id="g3365"
             clip-path="url(#clipPath188)">
            <path
               d="m 51.699,828.803 h 7.917 v -14.939 h -7.917 z"
               style="color:#000000;fill:#ffffff;fill-opacity:1;fill-rule:nonzero;stroke:none;stroke-width:0.37326071;marker:none;visibility:visible;display:inline;overflow:visible;enable-background:accumulate"
               id="path3367"
               inkscape:connector-curvature="0" />
          </g>
        </g>
      </g>
      <path
         inkscape:connector-curvature="0"
         id="path3386"
         d="m 258.6875,831.24138 a 1.6501649,1.6501649 0 0 0 -1.09375,0.5 l -8.40625,8.375 a 1.6572815,1.6572815 0 1 0 2.34375,2.34375 l 5.5625,-5.59375 0,32.625 a 1.65625,1.65625 0 0 0 3.3125,0 l 0,-36.59375 a 1.6501649,1.6501649 0 0 0 -1.71875,-1.65625 z"
         style="font-size:medium;font-style:normal;font-variant:normal;font-weight:normal;font-stretch:normal;text-indent:0;text-align:start;text-decoration:none;line-height:normal;letter-spacing:normal;word-spacing:normal;text-transform:none;direction:ltr;block-progression:tb;writing-mode:lr-tb;text-anchor:start;baseline-shift:baseline;color:#000000;fill:#ffffff;fill-opacity:1;stroke:none;stroke-width:3.29999970999999981;marker:none;visibility:visible;display:inline;overflow:visible;enable-background:accumulate;font-family:Sans;-inkscape-font-specification:Sans;opacity:0.8" />
    </g>
  </g>
</svg>
