<?xml version="1.0" encoding="UTF-8" standalone="no"?>
<!-- Created with Inkscape (http://www.inkscape.org/) -->

<svg
   xmlns:dc="http://purl.org/dc/elements/1.1/"
   xmlns:cc="http://creativecommons.org/ns#"
   xmlns:rdf="http://www.w3.org/1999/02/22-rdf-syntax-ns#"
   xmlns:svg="http://www.w3.org/2000/svg"
   xmlns="http://www.w3.org/2000/svg"
   xmlns:xlink="http://www.w3.org/1999/xlink"
   xmlns:sodipodi="http://sodipodi.sourceforge.net/DTD/sodipodi-0.dtd"
   xmlns:inkscape="http://www.inkscape.org/namespaces/inkscape"
   width="460.62991"
   height="283.46457"
   id="svg2"
   version="1.1"
   inkscape:version="0.48.5 r10040"
   sodipodi:docname="banknote_bg_template.svg"
   inkscape:export-filename="/home/mammique/Documents/daat/banknote/cryptos/dash.png"
   inkscape:export-xdpi="156.31"
   inkscape:export-ydpi="156.31">
  <defs
     id="defs4">
    <linearGradient
       id="linearGradient4925">
      <stop
         style="stop-color:#bd9800;stop-opacity:1;"
         offset="0"
         id="stop4927" />
      <stop
         id="stop3784"
         offset="0.51732481"
         style="stop-color:#ffcc04;stop-opacity:1;" />
      <stop
         offset="1"
         id="stop4929"
         style="stop-color:#a98500;stop-opacity:1;" />
    </linearGradient>
    <linearGradient
       id="linearGradient4835">
      <stop
         style="stop-color:#000000;stop-opacity:0.61572052"
         offset="0"
         id="stop4837" />
      <stop
         style="stop-color:#000000;stop-opacity:0;"
         offset="1"
         id="stop4839" />
    </linearGradient>
    <linearGradient
       inkscape:collect="always"
       id="linearGradient4531">
      <stop
         style="stop-color:#ffffff;stop-opacity:1;"
         offset="0"
         id="stop4533" />
      <stop
         style="stop-color:#ffffff;stop-opacity:0;"
         offset="1"
         id="stop4535" />
    </linearGradient>
    <clipPath
       clipPathUnits="userSpaceOnUse"
       id="clipPath5978">
      <rect
         style="color:#000000;fill:#cccccc;fill-opacity:1;fill-rule:nonzero;stroke:#003a00;stroke-width:0.89999998;stroke-linecap:butt;stroke-linejoin:miter;stroke-miterlimit:4;stroke-opacity:1;stroke-dasharray:none;stroke-dashoffset:0;marker:none;visibility:visible;display:inline;overflow:visible;enable-background:accumulate"
         id="rect5980"
         width="173.74623"
         height="1608.1628"
         x="610.13214"
         y="-378.01382"
         transform="matrix(0,-1,1,0,0,0)" />
    </clipPath>
    <inkscape:perspective
       id="perspective2497"
       inkscape:persp3d-origin="372.04724 : 350.78739 : 1"
       inkscape:vp_z="744.09448 : 526.18109 : 1"
       inkscape:vp_y="0 : 1000 : 0"
       inkscape:vp_x="0 : 526.18109 : 1"
       sodipodi:type="inkscape:persp3d" />
    <linearGradient
       inkscape:collect="always"
       xlink:href="#linearGradient4531"
       id="linearGradient4823"
       gradientUnits="userSpaceOnUse"
       x1="182.81697"
       y1="175.83376"
       x2="183.58928"
       y2="-16.309107"
       gradientTransform="translate(53.033008,825.69937)" />
    <radialGradient
       inkscape:collect="always"
       xlink:href="#linearGradient4835"
       id="radialGradient4845"
       cx="7.3256431"
       cy="198.2952"
       fx="7.3256431"
       fy="198.2952"
       r="109.27257"
       gradientTransform="matrix(0.19829552,0.15553474,-0.16582027,0.21140881,93.302602,945.5672)"
       gradientUnits="userSpaceOnUse" />
    <linearGradient
       id="linearGradient4925-6">
      <stop
         style="stop-color:#bd9800;stop-opacity:1;"
         offset="0"
         id="stop4927-7" />
      <stop
         id="stop3784-5"
         offset="0.5"
         style="stop-color:#ffcc04;stop-opacity:1;" />
      <stop
         offset="1"
         id="stop4929-3"
         style="stop-color:#a98500;stop-opacity:1;" />
    </linearGradient>
    <linearGradient
       gradientTransform="translate(-17.649337,-11.359598)"
       y2="38.317909"
       x2="313.61914"
       y1="142.8687"
       x1="50.479298"
       gradientUnits="userSpaceOnUse"
       id="linearGradient3802"
       xlink:href="#linearGradient4925-6"
       inkscape:collect="always" />
    <linearGradient
       id="linearGradient4925-2">
      <stop
         style="stop-color:#bd9800;stop-opacity:1;"
         offset="0"
         id="stop4927-3" />
      <stop
         id="stop3784-7"
         offset="0.38554054"
         style="stop-color:#ffcc04;stop-opacity:1;" />
      <stop
         offset="1"
         id="stop4929-5"
         style="stop-color:#a98500;stop-opacity:1;" />
    </linearGradient>
    <linearGradient
       y2="38.317909"
       x2="313.61914"
       y1="83.269699"
       x1="19.16457"
       gradientTransform="translate(-17.649337,-11.359581)"
       gradientUnits="userSpaceOnUse"
       id="linearGradient4077"
       xlink:href="#linearGradient4925-2"
       inkscape:collect="always" />
    <linearGradient
       id="linearGradient4925-28">
      <stop
         style="stop-color:#bd9800;stop-opacity:1;"
         offset="0"
         id="stop4927-9" />
      <stop
         id="stop3784-73"
         offset="0.51732481"
         style="stop-color:#ffcc04;stop-opacity:1;" />
      <stop
         offset="1"
         id="stop4929-6"
         style="stop-color:#a98500;stop-opacity:1;" />
    </linearGradient>
    <linearGradient
       y2="19.746481"
       x2="180.76199"
       y1="166.12685"
       x1="180.59314"
       gradientTransform="translate(-17.649337,-11.359581)"
       gradientUnits="userSpaceOnUse"
       id="linearGradient4113"
       xlink:href="#linearGradient4925-28"
       inkscape:collect="always" />
    <linearGradient
       id="linearGradient4925-7">
      <stop
         style="stop-color:#bd9800;stop-opacity:1;"
         offset="0"
         id="stop4927-5" />
      <stop
         id="stop3784-3"
         offset="0.51732481"
         style="stop-color:#ffcc04;stop-opacity:1;" />
      <stop
         offset="1"
         id="stop4929-56"
         style="stop-color:#a98500;stop-opacity:1;" />
    </linearGradient>
    <linearGradient
       y2="19.746481"
       x2="180.76199"
       y1="166.12685"
       x1="180.59314"
       gradientTransform="translate(-17.649337,-11.359581)"
       gradientUnits="userSpaceOnUse"
       id="linearGradient3327"
       xlink:href="#linearGradient4925-7"
       inkscape:collect="always" />
    <linearGradient
       id="linearGradient4925-7-1">
      <stop
         style="stop-color:#bd9800;stop-opacity:1;"
         offset="0"
         id="stop4927-5-2" />
      <stop
         id="stop3784-3-7"
         offset="0.51732481"
         style="stop-color:#ffcc04;stop-opacity:1;" />
      <stop
         offset="1"
         id="stop4929-56-0"
         style="stop-color:#a98500;stop-opacity:1;" />
    </linearGradient>
    <linearGradient
       y2="19.032196"
       x2="138.61914"
       y1="166.12685"
       x1="180.59314"
       gradientTransform="translate(-17.649337,-7.9568844)"
       gradientUnits="userSpaceOnUse"
       id="linearGradient3455"
       xlink:href="#linearGradient4925-7-1"
       inkscape:collect="always" />
    <linearGradient
       inkscape:collect="always"
       xlink:href="#linearGradient4925-7-6"
       id="linearGradient3350-3"
       gradientUnits="userSpaceOnUse"
       gradientTransform="translate(54.548237,823.78353)"
       x1="180.59314"
       y1="166.12685"
       x2="138.61914"
       y2="19.032196" />
    <linearGradient
       id="linearGradient4925-7-6">
      <stop
         style="stop-color:#bd9800;stop-opacity:1;"
         offset="0"
         id="stop4927-5-0" />
      <stop
         id="stop3784-3-6"
         offset="0.51732481"
         style="stop-color:#ffcc04;stop-opacity:1;" />
      <stop
         offset="1"
         id="stop4929-56-2"
         style="stop-color:#a98500;stop-opacity:1;" />
    </linearGradient>
    <linearGradient
       y2="19.032196"
       x2="138.61914"
       y1="166.12685"
       x1="180.59314"
       gradientTransform="translate(-17.649337,-7.9568844)"
       gradientUnits="userSpaceOnUse"
       id="linearGradient3491"
       xlink:href="#linearGradient4925-7-6"
       inkscape:collect="always" />
    <linearGradient
       id="linearGradient4835-7">
      <stop
         style="stop-color:#000000;stop-opacity:0.61572052"
         offset="0"
         id="stop4837-5" />
      <stop
         style="stop-color:#000000;stop-opacity:0;"
         offset="1"
         id="stop4839-9" />
    </linearGradient>
    <radialGradient
       r="109.27257"
       fy="198.2952"
       fx="7.3256431"
       cy="198.2952"
       cx="7.3256431"
       gradientTransform="matrix(0.19829552,0.15553474,-0.16582027,0.21140881,132.487,52.51516)"
       gradientUnits="userSpaceOnUse"
       id="radialGradient3545"
       xlink:href="#linearGradient4835-7"
       inkscape:collect="always" />
    <linearGradient
       id="linearGradient4835-8">
      <stop
         style="stop-color:#000000;stop-opacity:0.61572052"
         offset="0"
         id="stop4837-9" />
      <stop
         style="stop-color:#000000;stop-opacity:0;"
         offset="1"
         id="stop4839-7" />
    </linearGradient>
    <radialGradient
       r="109.27257"
       fy="198.2952"
       fx="7.3256431"
       cy="198.2952"
       cx="7.3256431"
       gradientTransform="matrix(0.19829552,0.15553474,-0.16582027,0.21140881,132.487,52.51516)"
       gradientUnits="userSpaceOnUse"
       id="radialGradient3578"
       xlink:href="#linearGradient4835-8"
       inkscape:collect="always" />
    <linearGradient
       inkscape:collect="always"
       xlink:href="#linearGradient4925-7-6-1"
       id="linearGradient3350-3-6"
       gradientUnits="userSpaceOnUse"
       gradientTransform="translate(54.548237,823.78353)"
       x1="180.59314"
       y1="166.12685"
       x2="138.61914"
       y2="19.032196" />
    <linearGradient
       id="linearGradient4925-7-6-1">
      <stop
         style="stop-color:#bd9800;stop-opacity:1;"
         offset="0"
         id="stop4927-5-0-2" />
      <stop
         id="stop3784-3-6-9"
         offset="0.51732481"
         style="stop-color:#ffcc04;stop-opacity:1;" />
      <stop
         offset="1"
         id="stop4929-56-2-3"
         style="stop-color:#a98500;stop-opacity:1;" />
    </linearGradient>
    <linearGradient
       y2="19.032196"
       x2="138.61914"
       y1="166.12685"
       x1="180.59314"
       gradientTransform="translate(-17.649337,-14.676051)"
       gradientUnits="userSpaceOnUse"
       id="linearGradient3612"
       xlink:href="#linearGradient4925-7-6-1"
       inkscape:collect="always" />
  </defs>
  <sodipodi:namedview
     id="base"
     pagecolor="#5271a5"
     bordercolor="#666666"
     borderopacity="1.0"
     inkscape:pageopacity="1"
     inkscape:pageshadow="2"
     inkscape:zoom="1.979899"
     inkscape:cx="214.87345"
     inkscape:cy="154.82186"
     inkscape:document-units="px"
     inkscape:current-layer="layer1"
     showgrid="false"
     units="mm"
     inkscape:window-width="1364"
     inkscape:window-height="747"
     inkscape:window-x="0"
     inkscape:window-y="19"
     inkscape:window-maximized="1"
     showguides="true"
     inkscape:guide-bbox="true" />
  <metadata
     id="metadata7">
    <rdf:RDF>
      <cc:Work
         rdf:about="">
        <dc:format>image/svg+xml</dc:format>
        <dc:type
           rdf:resource="http://purl.org/dc/dcmitype/StillImage" />
        <dc:title></dc:title>
      </cc:Work>
    </rdf:RDF>
  </metadata>
  <g
     inkscape:label="Calque 1"
     inkscape:groupmode="layer"
     id="layer1"
     transform="translate(0,-768.89763)">
    <g
       id="g3920">
      <path
         sodipodi:nodetypes="sssss"
         inkscape:connector-curvature="0"
         id="path3893"
         d="m 136.18875,880.48104 c -16.94019,0 -30.67075,13.73057 -30.67075,30.67068 0,16.94025 13.73056,30.67077 30.67075,30.67077 16.94017,0 30.67074,-13.73052 30.67074,-30.67077 0,-16.94011 -13.73057,-30.67068 -30.67074,-30.67068 z"
         style="color:#000000;fill:#4d4d4d;fill-opacity:1;fill-rule:nonzero;stroke:none;stroke-width:0.99999987999999995;marker:none;visibility:visible;display:inline;overflow:visible;enable-background:accumulate" />
      <path
         sodipodi:nodetypes="ccsscsscccsccccccscsccsssssccsssccscc"
         inkscape:connector-curvature="0"
         id="path3075"
         d="m 135.22169,932.60608 c -0.91021,-0.0632 -2.17379,-0.22633 -2.80794,-0.36237 -0.63415,-0.13605 -1.18382,-0.24736 -1.2215,-0.24736 -0.0377,0 -0.0685,-0.0579 -0.0685,-0.12886 0,-0.0709 0.39404,-0.25304 0.87561,-0.40484 3.15269,-0.99379 7.15475,-3.75062 9.4072,-6.48012 2.79361,-3.38532 5.5213,-5.498 8.99297,-6.9653 1.40397,-0.59339 3.88341,-1.30839 4.53942,-1.30901 l 0.40957,-4.8e-4 -0.13945,0.90628 c -0.20397,1.32564 -0.74712,3.27091 -1.26522,4.53139 -2.99808,7.29405 -9.77819,11.08229 -18.72215,10.46063 z m -10.87534,-4.13064 c -3.38072,-2.666 -5.86716,-6.93824 -6.9691,-11.97439 -0.30739,-1.40497 -0.35095,-2.05927 -0.34817,-5.23094 0.002,-3.13799 0.0498,-3.84004 0.35005,-5.22454 1.97412,-9.10257 7.91668,-14.96429 16.44648,-16.22272 2.10735,-0.31092 5.83502,-0.23275 7.62181,0.15989 4.92004,1.08091 8.60482,3.44619 11.01747,7.07217 1.34811,2.02612 2.36248,4.76619 2.49088,6.72865 l 0.0464,0.70927 -2.50341,0.0435 c -4.50846,0.0783 -5.63898,-0.39255 -7.65853,-3.19006 -1.79966,-2.49292 -4.1124,-3.7729 -7.17554,-3.97133 -4.96371,-0.32154 -8.82801,2.38198 -10.51192,7.3543 -0.43445,1.28291 -0.42165,1.23034 -0.74999,3.07555 -0.37207,2.09102 -0.34332,5.46752 0.0632,7.41686 0.23474,1.12575 0.59432,2.49736 0.71304,2.71989 0.0774,0.14494 0.39782,0.79641 0.71213,1.44757 0.89132,1.8466 1.93395,3.04068 3.5892,4.11051 1.22171,0.78962 2.5836,1.22505 4.55638,1.45677 l 1.62053,0.19034 -0.4691,0.33315 c -2.06449,1.46611 -6.10311,3.02052 -8.92167,3.43382 -2.6481,0.3883 -2.90906,0.35913 -3.9201,-0.43817 z"
         style="fill:#44c8f5;fill-opacity:1" />
    </g>
    <path
       inkscape:connector-curvature="0"
       id="path3856"
       d="m 73.84308,847.51362 c -0.279529,-0.0194 -0.667581,-0.0695 -0.862331,-0.11128 -0.19475,-0.0418 -0.363559,-0.076 -0.375129,-0.076 -0.01156,0 -0.02104,-0.0178 -0.02104,-0.0396 0,-0.0218 0.121012,-0.0777 0.268906,-0.12433 0.968205,-0.30519 2.197257,-1.15183 2.888995,-1.99007 0.857933,-1.03965 1.695619,-1.68846 2.761783,-2.13908 0.431166,-0.18223 1.192616,-0.40181 1.394077,-0.402 l 0.125783,-1.5e-4 -0.04283,0.27832 c -0.06264,0.40711 -0.229443,1.00451 -0.388553,1.39161 -0.920728,2.24004 -3.002929,3.40343 -5.749661,3.21251 z m 9.026495,-0.11575 c -0.900413,-0.19789 -1.573492,-0.69012 -1.904763,-1.393 -0.186981,-0.39672 -0.248381,-0.71427 -0.248381,-1.28451 0,-0.75419 0.176165,-1.26308 0.600718,-1.73529 0.565537,-0.62901 1.350929,-0.89898 3.344196,-1.14949 1.086579,-0.13656 1.45549,-0.21955 1.75437,-0.39467 0.296716,-0.17385 0.367455,-0.34098 0.340613,-0.80473 -0.01859,-0.32167 -0.04376,-0.41132 -0.16303,-0.58087 -0.08402,-0.11946 -0.238827,-0.25078 -0.383031,-0.32492 -0.22731,-0.11686 -0.284876,-0.12443 -0.947158,-0.12443 -0.689658,0 -0.711444,0.003 -0.992281,0.14671 -0.233138,0.11911 -0.328098,0.20705 -0.504956,0.46762 -0.431404,0.6356 -0.641605,0.71678 -1.856001,0.71678 -0.487784,0 -0.897797,-0.0109 -0.911134,-0.0242 -0.043,-0.0431 0.05201,-0.5947 0.155287,-0.90124 0.258725,-0.76801 0.902817,-1.40303 1.80334,-1.77791 0.548284,-0.22826 1.209346,-0.34816 2.091208,-0.3793 2.366598,-0.0836 3.839626,0.56231 4.21555,1.8484 0.118775,0.40634 0.120321,1.37691 0.0029,1.63689 -0.176973,0.39088 -0.741285,0.85917 -1.410738,1.1707 -0.638508,0.29712 -1.896444,0.64817 -2.670394,0.74522 -0.492938,0.0618 -1.004565,0.18691 -1.23549,0.3021 -0.662253,0.33036 -0.877167,1.24601 -0.422042,1.79815 0.07748,0.094 0.244366,0.22188 0.370852,0.28417 0.205366,0.10113 0.297317,0.11325 0.859228,0.11325 0.72499,0 0.982065,-0.0662 1.331107,-0.34294 0.291564,-0.23114 0.452289,-0.48106 0.605797,-0.94201 0.160154,-0.4809 0.381182,-0.73153 0.935655,-1.06094 0.420107,-0.24958 1.253778,-0.59853 1.568976,-0.65671 l 0.181994,-0.0336 -0.01255,2.26836 -0.01261,2.26836 -0.648167,0.0135 c -0.740895,0.0155 -1.027183,-0.0438 -1.353904,-0.2805 -0.112731,-0.0817 -0.26381,-0.24014 -0.335741,-0.3522 l -0.130786,-0.20372 -0.163369,0.15076 c -0.627558,0.5791 -1.657222,0.89403 -2.893671,0.88506 -0.368528,-0.003 -0.801111,-0.0336 -0.961302,-0.0689 z m 26.272375,0.0449 c -0.0369,-0.0168 0.0349,-0.0988 0.18606,-0.2124 0.13543,-0.10175 0.32416,-0.30073 0.41942,-0.44218 0.17171,-0.25497 0.35015,-0.72909 0.35014,-0.93031 -2e-5,-0.10207 0.0161,-0.10463 0.66554,-0.10585 0.78333,-0.002 1.06073,-0.0835 1.4298,-0.42285 0.22474,-0.20665 0.51633,-0.7033 0.51831,-0.8828 0.002,-0.17746 0.28815,-0.60229 0.52172,-0.77445 0.33477,-0.24675 1.12204,-0.64252 1.59846,-0.80357 0.22833,-0.0772 0.43284,-0.14032 0.45447,-0.14032 0.0216,0 0.0393,1.02374 0.0393,2.27498 l 0,2.27498 -0.6187,0 c -0.94304,0 -1.35551,-0.15307 -1.64508,-0.61049 -0.0727,-0.11486 -0.14617,-0.20964 -0.16324,-0.21061 -0.0171,-0.001 -0.13687,0.0867 -0.26622,0.19475 -0.31579,0.26385 -0.91896,0.5513 -1.42109,0.67724 -0.31143,0.0781 -0.60556,0.10783 -1.21009,0.12223 -0.43927,0.0105 -0.82574,0.007 -0.85882,-0.008 z m -17.549238,-0.23314 c -0.462965,-0.12577 -0.897222,-0.58743 -0.970687,-1.03194 -0.01656,-0.10031 -0.03039,-1.05719 -0.03068,-2.1264 l -5.35e-4,-1.944 0.314507,-0.22443 c 0.911232,-0.65024 1.428647,-1.25141 2.182839,-2.5362 0.410786,-0.69978 0.982303,-1.13346 1.834802,-1.39229 0.412349,-0.12519 1.702278,-0.1256 2.153969,-5.8e-4 0.487744,0.13489 0.892602,0.34963 1.205726,0.63953 0.361576,0.33476 0.544826,0.62119 0.706394,1.10415 0.243779,0.72872 0.268552,1.16726 0.254599,4.50698 l -0.01273,3.04944 -0.672516,0.0135 c -1.019157,0.0204 -1.420628,-0.14433 -1.74273,-0.71537 l -0.15016,-0.26622 -0.02563,-2.56541 c -0.02534,-2.53675 -0.0269,-2.56904 -0.13952,-2.8909 -0.131821,-0.37673 -0.365436,-0.67313 -0.650828,-0.82577 -0.175271,-0.0937 -0.273648,-0.10716 -0.781365,-0.10668 -0.500429,4.8e-4 -0.613979,0.0158 -0.8202,0.11036 -0.501603,0.23012 -0.728192,0.50637 -0.916556,1.11744 -0.09342,0.30306 -0.100242,0.47919 -0.124905,3.2248 l -0.02609,2.90423 -0.677653,0.009 c -0.435088,0.006 -0.760845,-0.0131 -0.910058,-0.0536 z m 11.117588,0.0224 c -0.43496,-0.10384 -0.73391,-0.33829 -0.95261,-0.74709 -0.10246,-0.19153 -0.10716,-0.25918 -0.12125,-1.74459 -0.016,-1.69237 0.0288,-2.21091 0.26091,-3.01744 0.14972,-0.5202 0.55525,-1.37346 0.86808,-1.82654 0.12868,-0.18635 0.82031,-1.3299 1.53697,-2.5412 0.71665,-1.21131 1.35693,-2.25967 1.42284,-2.32971 0.0659,-0.07 0.2326,-0.18983 0.37043,-0.26622 l 0.2506,-0.13889 1.39654,-0.0155 c 0.76811,-0.008 1.38561,0.002 1.37223,0.0242 -1.28782,2.10056 -4.51979,7.55531 -4.56659,7.70727 -0.0516,0.16739 -0.0657,0.72312 -0.0657,2.5775 l 0,2.36409 -0.81076,-0.005 c -0.44592,-0.003 -0.87867,-0.0211 -0.96166,-0.041 z m 5.16069,-0.26301 c -0.36884,-0.1085 -0.47348,-0.16454 -0.66522,-0.35629 -0.29069,-0.29069 -0.37546,-0.50658 -0.37546,-0.9563 0,-0.33244 0.0183,-0.41805 0.12879,-0.60505 0.35175,-0.59488 1.01685,-0.85974 1.63954,-0.65292 0.29998,0.0996 0.63955,0.39159 0.78338,0.67353 0.13814,0.27076 0.16758,0.7267 0.0666,1.03083 -0.2114,0.63649 -0.96041,1.04774 -1.57759,0.8662 z m -37.367776,-0.72392 c -1.038239,-0.81875 -1.801839,-2.13077 -2.140247,-3.67739 -0.0944,-0.43148 -0.10778,-0.63242 -0.106926,-1.60645 5.82e-4,-0.96369 0.01528,-1.1793 0.107501,-1.60448 0.606263,-2.79544 2.431253,-4.59561 5.050796,-4.98208 0.647179,-0.0955 1.791962,-0.0715 2.340694,0.0491 1.510968,0.33195 2.642584,1.05834 3.38352,2.17189 0.414011,0.62223 0.725525,1.46372 0.76496,2.0664 l 0.01424,0.21782 -0.768807,0.0134 c -1.38457,0.0241 -1.731758,-0.12055 -2.351973,-0.97968 -0.552683,-0.76559 -1.262936,-1.15868 -2.203643,-1.21962 -1.524375,-0.0987 -2.711121,0.73152 -3.228257,2.25854 -0.133425,0.39399 -0.129491,0.37785 -0.230326,0.94452 -0.114265,0.64216 -0.105438,1.6791 0.01941,2.27775 0.07209,0.34572 0.182517,0.76695 0.218977,0.83529 0.02377,0.0445 0.122174,0.24458 0.218697,0.44456 0.27373,0.5671 0.593926,0.93381 1.102264,1.26236 0.375192,0.24249 0.793434,0.37621 1.399283,0.44738 l 0.497675,0.0584 -0.144065,0.10231 c -0.634016,0.45025 -1.874295,0.92762 -2.739886,1.05454 -0.813245,0.11926 -0.893387,0.11029 -1.203883,-0.13456 z m 36.206086,-2.00641 c 0,-0.13668 0.17092,-0.65049 0.27608,-0.82998 0.16304,-0.27826 0.4628,-0.60175 0.71205,-0.76842 0.62208,-0.41599 1.40974,-0.61526 3.37241,-0.85318 0.6443,-0.0781 1.12873,-0.20514 1.38547,-0.36331 0.20225,-0.12461 0.3402,-0.40647 0.32114,-0.65616 -0.0389,-0.50925 -0.0674,-0.59407 -0.27312,-0.81379 -0.26841,-0.28663 -0.55419,-0.3721 -1.24407,-0.3721 -0.80938,0 -1.24782,0.18533 -1.51436,0.64014 -0.17468,0.29807 -0.46129,0.54314 -0.7457,0.6376 -0.19537,0.0649 -0.40696,0.0773 -1.13198,0.0666 l -0.8917,-0.0132 0.017,-0.24202 c 0.029,-0.41212 0.22766,-0.94642 0.49175,-1.32247 0.49111,-0.69931 1.32025,-1.17234 2.43854,-1.39121 0.88629,-0.17346 2.46381,-0.1355 3.31863,0.0799 0.88852,0.22385 1.59955,0.74088 1.90152,1.38272 0.14821,0.31503 0.15684,0.36505 0.17419,1.01083 0.0169,0.62881 0.01,0.6973 -0.0933,0.91967 -0.38987,0.83998 -1.85001,1.53849 -3.94101,1.88534 -0.41051,0.0681 -0.88537,0.16674 -1.05525,0.21921 -0.33329,0.10294 -0.73361,0.37446 -0.78341,0.53135 -0.0389,0.12247 -0.0978,0.12253 -0.25327,2.5e-4 -0.17374,-0.13666 -0.70353,-0.29042 -0.99834,-0.28974 -0.44245,0.001 -0.88809,0.15872 -1.24827,0.4417 -0.18249,0.14338 -0.23505,0.16582 -0.23505,0.10035 z m -16.118487,-4.56014 0,-1.59732 0.94388,0 c 0.655477,0 0.943874,0.0163 0.943874,0.0534 0,0.12 -0.299154,0.93458 -0.464121,1.26377 -0.09723,0.19403 -0.291117,0.52705 -0.430846,0.74002 -0.272614,0.41553 -0.874309,1.13749 -0.947989,1.13749 -0.02656,0 -0.0448,-0.65048 -0.0448,-1.59732 z m 9.858727,0.76236 c -1.595524,-2.62765 -3.469418,-5.76187 -3.469418,-5.80283 0,-0.0302 0.496059,-0.0421 1.367409,-0.0326 1.31182,0.0142 1.375726,0.0193 1.571841,0.1241 0.112438,0.0601 0.275898,0.18071 0.363248,0.26806 0.0874,0.0873 0.62567,0.95302 1.19626,1.92372 0.57059,0.9707 1.05895,1.80073 1.08523,1.84451 0.038,0.0633 -0.0142,0.14762 -0.25461,0.41144 -0.39609,0.43465 -0.79952,1.0484 -1.06984,1.62756 -0.11979,0.25668 -0.23251,0.46766 -0.25047,0.46884 -0.018,0.001 -0.2608,-0.37357 -0.53965,-0.8328 z"
       style="opacity:0.8;color:#000000;fill:#ffffff;fill-opacity:1;fill-rule:nonzero;stroke:none;stroke-width:1;marker:none;visibility:visible;display:inline;overflow:visible;enable-background:accumulate" />
    <g
       id="g3916"
       transform="matrix(0.60265923,0,0,0.60265923,262.82863,346.06083)">
      <path
         inkscape:connector-curvature="0"
         id="rect3875"
         d="m 199.5625,810.1675 c -3.16571,0 -5.71875,2.55304 -5.71875,5.71875 l 0,3.21875 c 0,3.16572 2.55304,5.71875 5.71875,5.71875 l 8.9375,0 0,37.84375 c 0,3.16571 2.55304,5.71875 5.71875,5.71875 l 3.21875,0 c 3.16571,0 5.71875,-2.55304 5.71875,-5.71875 l 0,-43.5625 0,-3.21875 c 0,-3.16571 -2.55304,-5.71875 -5.71875,-5.71875 l -3.21875,0 -14.65625,0 z"
         style="opacity:0.8;color:#000000;fill:#ffffff;fill-opacity:1;fill-rule:nonzero;stroke:none;stroke-width:1;marker:none;visibility:visible;display:inline;overflow:visible;enable-background:accumulate" />
      <path
         style="opacity:0.8;color:#000000;fill:#ffffff;fill-opacity:1;fill-rule:nonzero;stroke:none;stroke-width:1;marker:none;visibility:visible;display:inline;overflow:visible;enable-background:accumulate"
         d="m 158.78025,868.29709 c -1.23119,-0.0855 -2.94038,-0.30614 -3.79816,-0.49016 -0.85779,-0.18403 -1.6013,-0.33459 -1.65227,-0.33459 -0.051,0 -0.0927,-0.0783 -0.0927,-0.1743 0,-0.0959 0.533,-0.34228 1.18439,-0.54761 4.26449,-1.34425 9.67789,-5.07328 12.72467,-8.76535 3.77878,-4.57916 7.4684,-7.43688 12.16436,-9.42162 1.89908,-0.80265 5.2529,-1.7698 6.14025,-1.77064 l 0.55401,-6.5e-4 -0.18863,1.22588 c -0.2759,1.79313 -1.01059,4.42441 -1.7114,6.1294 -4.05536,9.86631 -13.22649,14.99048 -25.32455,14.14959 z m -14.71055,-5.58732 c -4.57294,-3.60617 -7.93622,-9.38502 -9.42676,-16.19718 -0.4158,-1.90043 -0.47472,-2.78547 -0.47096,-7.07564 0.003,-4.24461 0.0674,-5.19424 0.4735,-7.06698 2.6703,-12.31261 10.70851,-20.24148 22.24636,-21.9437 2.85051,-0.42057 7.89275,-0.31483 10.30966,0.21628 6.6551,1.46209 11.63933,4.66149 14.9028,9.56618 1.82353,2.74064 3.19562,6.447 3.3693,9.10152 l 0.0628,0.9594 -3.38624,0.0588 c -6.09838,0.10591 -7.62758,-0.53099 -10.35933,-4.31504 -2.43431,-3.37206 -5.56265,-5.10342 -9.70601,-5.37183 -6.71417,-0.43493 -11.94122,3.22199 -14.21897,9.94781 -0.58766,1.73533 -0.57034,1.66422 -1.01447,4.16015 -0.50328,2.82842 -0.4644,7.39565 0.0855,10.03243 0.31753,1.52275 0.80391,3.37806 0.9645,3.67906 0.10469,0.19606 0.53811,1.07727 0.96326,1.95806 1.20565,2.49781 2.61596,4.11298 4.85494,5.56009 1.65255,1.06808 3.49471,1.65707 6.1632,1.9705 l 2.19201,0.25747 -0.63453,0.45063 c -2.79253,1.98314 -8.25538,4.08572 -12.06791,4.64477 -3.58196,0.52523 -3.93495,0.48578 -5.30253,-0.59269 z"
         id="path3897"
         inkscape:connector-curvature="0"
         sodipodi:nodetypes="ccsscsscccsccccccscsccsssssccsssccscc" />
    </g>
  </g>
</svg>
