<?xml version="1.0" encoding="UTF-8" standalone="no"?>
<!-- Created with Inkscape (http://www.inkscape.org/) -->

<svg
   xmlns:dc="http://purl.org/dc/elements/1.1/"
   xmlns:cc="http://creativecommons.org/ns#"
   xmlns:rdf="http://www.w3.org/1999/02/22-rdf-syntax-ns#"
   xmlns:svg="http://www.w3.org/2000/svg"
   xmlns="http://www.w3.org/2000/svg"
   xmlns:xlink="http://www.w3.org/1999/xlink"
   xmlns:sodipodi="http://sodipodi.sourceforge.net/DTD/sodipodi-0.dtd"
   xmlns:inkscape="http://www.inkscape.org/namespaces/inkscape"
   width="460.62991"
   height="283.46457"
   id="svg2"
   version="1.1"
   inkscape:version="0.48.5 r10040"
   sodipodi:docname="cat.svg"
   inkscape:export-filename="/home/mammique/Documents/daat/banknote/cryptos/dash.png"
   inkscape:export-xdpi="156.31"
   inkscape:export-ydpi="156.31">
  <defs
     id="defs4">
    <linearGradient
       id="linearGradient4925">
      <stop
         style="stop-color:#bd9800;stop-opacity:1;"
         offset="0"
         id="stop4927" />
      <stop
         id="stop3784"
         offset="0.51732481"
         style="stop-color:#ffcc04;stop-opacity:1;" />
      <stop
         offset="1"
         id="stop4929"
         style="stop-color:#a98500;stop-opacity:1;" />
    </linearGradient>
    <linearGradient
       id="linearGradient4835">
      <stop
         style="stop-color:#000000;stop-opacity:0.61572052"
         offset="0"
         id="stop4837" />
      <stop
         style="stop-color:#000000;stop-opacity:0;"
         offset="1"
         id="stop4839" />
    </linearGradient>
    <linearGradient
       inkscape:collect="always"
       id="linearGradient4531">
      <stop
         style="stop-color:#ffffff;stop-opacity:1;"
         offset="0"
         id="stop4533" />
      <stop
         style="stop-color:#ffffff;stop-opacity:0;"
         offset="1"
         id="stop4535" />
    </linearGradient>
    <clipPath
       clipPathUnits="userSpaceOnUse"
       id="clipPath5978">
      <rect
         style="color:#000000;fill:#cccccc;fill-opacity:1;fill-rule:nonzero;stroke:#003a00;stroke-width:0.89999998;stroke-linecap:butt;stroke-linejoin:miter;stroke-miterlimit:4;stroke-opacity:1;stroke-dasharray:none;stroke-dashoffset:0;marker:none;visibility:visible;display:inline;overflow:visible;enable-background:accumulate"
         id="rect5980"
         width="173.74623"
         height="1608.1628"
         x="610.13214"
         y="-378.01382"
         transform="matrix(0,-1,1,0,0,0)" />
    </clipPath>
    <inkscape:perspective
       id="perspective2497"
       inkscape:persp3d-origin="372.04724 : 350.78739 : 1"
       inkscape:vp_z="744.09448 : 526.18109 : 1"
       inkscape:vp_y="0 : 1000 : 0"
       inkscape:vp_x="0 : 526.18109 : 1"
       sodipodi:type="inkscape:persp3d" />
    <linearGradient
       inkscape:collect="always"
       xlink:href="#linearGradient4531"
       id="linearGradient4823"
       gradientUnits="userSpaceOnUse"
       x1="182.81697"
       y1="175.83376"
       x2="183.58928"
       y2="-16.309107"
       gradientTransform="translate(53.033008,825.69937)" />
    <radialGradient
       inkscape:collect="always"
       xlink:href="#linearGradient4835"
       id="radialGradient4845"
       cx="7.3256431"
       cy="198.2952"
       fx="7.3256431"
       fy="198.2952"
       r="109.27257"
       gradientTransform="matrix(0.19829552,0.15553474,-0.16582027,0.21140881,93.302602,945.5672)"
       gradientUnits="userSpaceOnUse" />
    <linearGradient
       id="linearGradient4925-6">
      <stop
         style="stop-color:#bd9800;stop-opacity:1;"
         offset="0"
         id="stop4927-7" />
      <stop
         id="stop3784-5"
         offset="0.5"
         style="stop-color:#ffcc04;stop-opacity:1;" />
      <stop
         offset="1"
         id="stop4929-3"
         style="stop-color:#a98500;stop-opacity:1;" />
    </linearGradient>
    <linearGradient
       gradientTransform="translate(-17.649337,-11.359598)"
       y2="38.317909"
       x2="313.61914"
       y1="142.8687"
       x1="50.479298"
       gradientUnits="userSpaceOnUse"
       id="linearGradient3802"
       xlink:href="#linearGradient4925-6"
       inkscape:collect="always" />
    <linearGradient
       id="linearGradient4925-2">
      <stop
         style="stop-color:#bd9800;stop-opacity:1;"
         offset="0"
         id="stop4927-3" />
      <stop
         id="stop3784-7"
         offset="0.38554054"
         style="stop-color:#ffcc04;stop-opacity:1;" />
      <stop
         offset="1"
         id="stop4929-5"
         style="stop-color:#a98500;stop-opacity:1;" />
    </linearGradient>
    <linearGradient
       y2="38.317909"
       x2="313.61914"
       y1="83.269699"
       x1="19.16457"
       gradientTransform="translate(-17.649337,-11.359581)"
       gradientUnits="userSpaceOnUse"
       id="linearGradient4077"
       xlink:href="#linearGradient4925-2"
       inkscape:collect="always" />
    <linearGradient
       id="linearGradient4925-28">
      <stop
         style="stop-color:#bd9800;stop-opacity:1;"
         offset="0"
         id="stop4927-9" />
      <stop
         id="stop3784-73"
         offset="0.51732481"
         style="stop-color:#ffcc04;stop-opacity:1;" />
      <stop
         offset="1"
         id="stop4929-6"
         style="stop-color:#a98500;stop-opacity:1;" />
    </linearGradient>
    <linearGradient
       y2="19.746481"
       x2="180.76199"
       y1="166.12685"
       x1="180.59314"
       gradientTransform="translate(-17.649337,-11.359581)"
       gradientUnits="userSpaceOnUse"
       id="linearGradient4113"
       xlink:href="#linearGradient4925-28"
       inkscape:collect="always" />
    <linearGradient
       id="linearGradient4925-7">
      <stop
         style="stop-color:#bd9800;stop-opacity:1;"
         offset="0"
         id="stop4927-5" />
      <stop
         id="stop3784-3"
         offset="0.51732481"
         style="stop-color:#ffcc04;stop-opacity:1;" />
      <stop
         offset="1"
         id="stop4929-56"
         style="stop-color:#a98500;stop-opacity:1;" />
    </linearGradient>
    <linearGradient
       y2="19.746481"
       x2="180.76199"
       y1="166.12685"
       x1="180.59314"
       gradientTransform="translate(-17.649337,-11.359581)"
       gradientUnits="userSpaceOnUse"
       id="linearGradient3327"
       xlink:href="#linearGradient4925-7"
       inkscape:collect="always" />
    <linearGradient
       id="linearGradient4925-7-1">
      <stop
         style="stop-color:#bd9800;stop-opacity:1;"
         offset="0"
         id="stop4927-5-2" />
      <stop
         id="stop3784-3-7"
         offset="0.51732481"
         style="stop-color:#ffcc04;stop-opacity:1;" />
      <stop
         offset="1"
         id="stop4929-56-0"
         style="stop-color:#a98500;stop-opacity:1;" />
    </linearGradient>
    <linearGradient
       y2="19.032196"
       x2="138.61914"
       y1="166.12685"
       x1="180.59314"
       gradientTransform="translate(-17.649337,-7.9568844)"
       gradientUnits="userSpaceOnUse"
       id="linearGradient3455"
       xlink:href="#linearGradient4925-7-1"
       inkscape:collect="always" />
    <linearGradient
       inkscape:collect="always"
       xlink:href="#linearGradient4925-7-6"
       id="linearGradient3350-3"
       gradientUnits="userSpaceOnUse"
       gradientTransform="translate(54.548237,823.78353)"
       x1="180.59314"
       y1="166.12685"
       x2="138.61914"
       y2="19.032196" />
    <linearGradient
       id="linearGradient4925-7-6">
      <stop
         style="stop-color:#bd9800;stop-opacity:1;"
         offset="0"
         id="stop4927-5-0" />
      <stop
         id="stop3784-3-6"
         offset="0.51732481"
         style="stop-color:#ffcc04;stop-opacity:1;" />
      <stop
         offset="1"
         id="stop4929-56-2"
         style="stop-color:#a98500;stop-opacity:1;" />
    </linearGradient>
    <linearGradient
       y2="19.032196"
       x2="138.61914"
       y1="166.12685"
       x1="180.59314"
       gradientTransform="translate(-17.649337,-7.9568844)"
       gradientUnits="userSpaceOnUse"
       id="linearGradient3491"
       xlink:href="#linearGradient4925-7-6"
       inkscape:collect="always" />
    <linearGradient
       id="linearGradient4835-7">
      <stop
         style="stop-color:#000000;stop-opacity:0.61572052"
         offset="0"
         id="stop4837-5" />
      <stop
         style="stop-color:#000000;stop-opacity:0;"
         offset="1"
         id="stop4839-9" />
    </linearGradient>
    <radialGradient
       r="109.27257"
       fy="198.2952"
       fx="7.3256431"
       cy="198.2952"
       cx="7.3256431"
       gradientTransform="matrix(0.19829552,0.15553474,-0.16582027,0.21140881,132.487,52.51516)"
       gradientUnits="userSpaceOnUse"
       id="radialGradient3545"
       xlink:href="#linearGradient4835-7"
       inkscape:collect="always" />
    <linearGradient
       id="linearGradient4835-8">
      <stop
         style="stop-color:#000000;stop-opacity:0.61572052"
         offset="0"
         id="stop4837-9" />
      <stop
         style="stop-color:#000000;stop-opacity:0;"
         offset="1"
         id="stop4839-7" />
    </linearGradient>
    <radialGradient
       r="109.27257"
       fy="198.2952"
       fx="7.3256431"
       cy="198.2952"
       cx="7.3256431"
       gradientTransform="matrix(0.19829552,0.15553474,-0.16582027,0.21140881,132.487,52.51516)"
       gradientUnits="userSpaceOnUse"
       id="radialGradient3578"
       xlink:href="#linearGradient4835-8"
       inkscape:collect="always" />
    <linearGradient
       inkscape:collect="always"
       xlink:href="#linearGradient4925-7-6-1"
       id="linearGradient3350-3-6"
       gradientUnits="userSpaceOnUse"
       gradientTransform="translate(54.548237,823.78353)"
       x1="180.59314"
       y1="166.12685"
       x2="138.61914"
       y2="19.032196" />
    <linearGradient
       id="linearGradient4925-7-6-1">
      <stop
         style="stop-color:#bd9800;stop-opacity:1;"
         offset="0"
         id="stop4927-5-0-2" />
      <stop
         id="stop3784-3-6-9"
         offset="0.51732481"
         style="stop-color:#ffcc04;stop-opacity:1;" />
      <stop
         offset="1"
         id="stop4929-56-2-3"
         style="stop-color:#a98500;stop-opacity:1;" />
    </linearGradient>
    <linearGradient
       y2="19.032196"
       x2="138.61914"
       y1="166.12685"
       x1="180.59314"
       gradientTransform="translate(-17.649337,-14.676051)"
       gradientUnits="userSpaceOnUse"
       id="linearGradient3612"
       xlink:href="#linearGradient4925-7-6-1"
       inkscape:collect="always" />
    <linearGradient
       gradientUnits="userSpaceOnUse"
       gradientTransform="matrix(2499.9968,0,0,-618,664426.85,317192.67)"
       y2="511.27"
       x2="-265.56"
       y1="512.08"
       x1="-267.09"
       id="a">
      <stop
         id="stop3088"
         stop-color="#aa01ff"
         offset="0" />
      <stop
         id="stop3090"
         stop-color="#31bffd"
         offset=".97" />
      <stop
         id="stop3092"
         stop-color="#2ec4fd"
         offset="1" />
    </linearGradient>
    <linearGradient
       id="linearGradient3147"
       spreadMethod="pad"
       gradientTransform="matrix(1250.6146,0,0,309.15231,333304.39,-157516.09)"
       gradientUnits="userSpaceOnUse"
       y2="511.26999"
       x2="-265.56"
       y1="512.08002"
       x1="-267.09">
      <stop
         id="stop3149"
         offset="0"
         style="stop-opacity:1;stop-color:#aa01ff" />
      <stop
         id="stop3151"
         offset="0.97"
         style="stop-opacity:1;stop-color:#31bffd" />
      <stop
         id="stop3153"
         offset="1"
         style="stop-opacity:1;stop-color:#2ec4fd" />
    </linearGradient>
    <clipPath
       id="clipPath3133"
       clipPathUnits="userSpaceOnUse">
      <path
         id="path3135"
         d="m 18,823.89 559,0 0,-309 -559,0 0,309 z" />
    </clipPath>
    <clipPath
       id="clipPath3123"
       clipPathUnits="userSpaceOnUse">
      <path
         id="path3125"
         d="m 18,823.89 559,0 0,-310 -559,0 0,310 z" />
    </clipPath>
    <linearGradient
       inkscape:collect="always"
       xlink:href="#linearGradient3147"
       id="linearGradient3186"
       gradientUnits="userSpaceOnUse"
       gradientTransform="matrix(1250.6146,0,0,309.15231,333304.39,-157516.09)"
       spreadMethod="pad"
       x1="-267.09"
       y1="512.08002"
       x2="-265.56"
       y2="511.26999" />
    <linearGradient
       inkscape:collect="always"
       xlink:href="#linearGradient3147"
       id="linearGradient3196"
       gradientUnits="userSpaceOnUse"
       gradientTransform="matrix(1250.6146,0,0,309.15231,333304.39,-157516.09)"
       spreadMethod="pad"
       x1="-267.09"
       y1="512.08002"
       x2="-265.56"
       y2="511.26999" />
    <linearGradient
       inkscape:collect="always"
       xlink:href="#linearGradient3147"
       id="linearGradient3202"
       gradientUnits="userSpaceOnUse"
       gradientTransform="matrix(1250.6146,0,0,309.15231,333304.39,-157516.09)"
       spreadMethod="pad"
       x1="-267.09"
       y1="512.08002"
       x2="-265.56"
       y2="511.26999" />
    <linearGradient
       inkscape:collect="always"
       xlink:href="#linearGradient3147"
       id="linearGradient3207"
       gradientUnits="userSpaceOnUse"
       gradientTransform="matrix(1250.6146,0,0,309.15231,333304.39,-157516.09)"
       spreadMethod="pad"
       x1="-267.09"
       y1="512.08002"
       x2="-265.56"
       y2="511.26999" />
    <linearGradient
       inkscape:collect="always"
       xlink:href="#linearGradient3147"
       id="linearGradient3211"
       gradientUnits="userSpaceOnUse"
       gradientTransform="matrix(1250.6146,0,0,309.15231,333304.39,-157516.09)"
       spreadMethod="pad"
       x1="-267.09"
       y1="512.08002"
       x2="-265.56"
       y2="511.26999" />
    <linearGradient
       inkscape:collect="always"
       xlink:href="#linearGradient3147"
       id="linearGradient3219"
       gradientUnits="userSpaceOnUse"
       gradientTransform="matrix(1250.6146,0,0,309.15231,333304.39,-157516.09)"
       spreadMethod="pad"
       x1="-267.09"
       y1="512.08002"
       x2="-265.56"
       y2="511.26999" />
    <linearGradient
       inkscape:collect="always"
       xlink:href="#linearGradient3147"
       id="linearGradient3222"
       gradientUnits="userSpaceOnUse"
       gradientTransform="matrix(353.99413,0,0,-87.507456,94250.569,44903.79)"
       spreadMethod="pad"
       x1="-267.09"
       y1="512.08002"
       x2="-265.56"
       y2="511.26999" />
    <linearGradient
       inkscape:collect="always"
       xlink:href="#linearGradient3147"
       id="linearGradient3228"
       gradientUnits="userSpaceOnUse"
       gradientTransform="matrix(353.99413,0,0,-87.507456,94388.455,45085.113)"
       spreadMethod="pad"
       x1="-267.09"
       y1="512.08002"
       x2="-265.56"
       y2="511.26999" />
    <linearGradient
       inkscape:collect="always"
       xlink:href="#linearGradient3147"
       id="linearGradient3233"
       gradientUnits="userSpaceOnUse"
       gradientTransform="matrix(250.00034,0,0,-61.80016,66729.892,32532.72)"
       spreadMethod="pad"
       x1="-267.09"
       y1="512.08002"
       x2="-265.56"
       y2="511.26999" />
  </defs>
  <sodipodi:namedview
     id="base"
     pagecolor="#5271a5"
     bordercolor="#666666"
     borderopacity="1.0"
     inkscape:pageopacity="1"
     inkscape:pageshadow="2"
     inkscape:zoom="1.979899"
     inkscape:cx="179.75488"
     inkscape:cy="194.50595"
     inkscape:document-units="px"
     inkscape:current-layer="layer1"
     showgrid="false"
     units="mm"
     inkscape:window-width="1364"
     inkscape:window-height="747"
     inkscape:window-x="0"
     inkscape:window-y="19"
     inkscape:window-maximized="1"
     showguides="true"
     inkscape:guide-bbox="true" />
  <metadata
     id="metadata7">
    <rdf:RDF>
      <cc:Work
         rdf:about="">
        <dc:format>image/svg+xml</dc:format>
        <dc:type
           rdf:resource="http://purl.org/dc/dcmitype/StillImage" />
        <dc:title />
      </cc:Work>
    </rdf:RDF>
  </metadata>
  <g
     inkscape:label="Calque 1"
     inkscape:groupmode="layer"
     id="layer1"
     transform="translate(0,-768.89763)">
    <path
       style="opacity:0.8;color:#000000;fill:#ffffff;fill-opacity:1;fill-rule:nonzero;stroke:none;stroke-width:1;marker:none;visibility:visible;display:inline;overflow:visible;enable-background:accumulate"
       d="m 91.068723,834.31617 c -0.906912,-0.007 -1.799141,0.23903 -2.574133,0.71011 -1.579487,0.97557 -2.535132,2.69792 -2.533166,4.55422 0.0017,1.85637 0.965419,3.58234 2.546822,4.55425 0.7779,0.47109 1.671886,0.71491 2.580961,0.7101 1.323444,0.002 2.395324,-0.3724 3.215959,-1.12662 0.09493,-0.1 0.144698,-0.23097 0.143387,-0.36871 4.37e-4,-0.005 4.37e-4,-0.0159 0,-0.0205 0.0015,-0.18437 -0.100046,-0.35069 -0.26629,-0.43018 -0.165931,-0.0795 -0.369541,-0.0553 -0.512095,0.0615 -0.729537,0.59743 -1.638055,0.91931 -2.580961,0.91494 -0.727928,0.005 -1.442649,-0.19085 -2.062038,-0.57355 -0.62885,-0.38214 -1.148695,-0.92536 -1.502146,-1.57042 -0.738012,-1.33161 -0.735078,-2.95144 0.0068,-4.28113 0.359263,-0.64165 0.875462,-1.17806 1.502146,-1.56359 0.612896,-0.38512 1.324103,-0.59179 2.048382,-0.5872 0.475718,-0.0101 0.947261,0.0641 1.399727,0.21165 0.412637,0.14522 0.790674,0.37345 1.112955,0.66914 0.09178,0.0778 0.213969,0.11937 0.334569,0.11609 0.06883,0.002 0.138391,-0.0205 0.19801,-0.0546 0.05702,-0.0309 0.09796,-0.0818 0.116075,-0.14339 0.06061,-0.0268 0.108628,-0.0734 0.143386,-0.12972 0.03433,-0.058 0.05615,-0.12382 0.05462,-0.19119 0.0051,-0.11912 -0.05336,-0.23136 -0.150215,-0.30042 -0.443127,-0.38123 -0.953757,-0.67838 -1.502146,-0.88082 -0.554451,-0.18943 -1.135083,-0.28496 -1.720641,-0.27993 z m -22.293222,0.12972 c -0.138412,-0.004 -0.270373,0.0529 -0.368709,0.15022 -0.09926,0.0976 -0.156529,0.22979 -0.150214,0.3687 l 0,9.23822 c -0.007,0.14132 0.05023,0.2755 0.157042,0.36871 0.120784,0.0983 0.274555,0.15299 0.43016,0.14337 l 3.34569,0 c 0.568922,0.0112 1.134535,-0.12565 1.638706,-0.38918 0.468235,-0.24812 0.852358,-0.62146 1.119782,-1.07881 0.273236,-0.47733 0.417892,-1.01989 0.409677,-1.57043 0,-0.6581 -0.176939,-1.19562 -0.525752,-1.63189 -0.371077,-0.44503 -0.871933,-0.76016 -1.433867,-0.90129 0.407998,-0.18814 0.752179,-0.48781 1.003707,-0.86032 0.248559,-0.36718 0.382091,-0.79912 0.375536,-1.24268 0.0058,-0.46893 -0.126977,-0.93402 -0.375536,-1.33144 -0.24862,-0.39427 -0.596476,-0.715 -1.010535,-0.9286 -0.439479,-0.2273 -0.932518,-0.34244 -1.42704,-0.33458 l -3.188647,0 z m 27.892132,0 c -0.12282,0.007 -0.239109,0.057 -0.327741,0.15022 -0.09957,0.0925 -0.156529,0.22631 -0.150215,0.36189 l 0,7.47658 c 0,0.67017 0.1666,1.21476 0.505268,1.63871 0.303912,0.41122 0.792917,0.65187 1.304136,0.64182 l 0.177527,0 c 0.153378,0.006 0.302546,-0.0419 0.423332,-0.13656 0.106562,-0.0884 0.167956,-0.22347 0.16387,-0.36187 0.008,-0.13026 -0.03444,-0.26042 -0.116075,-0.36189 -0.07904,-0.0925 -0.199386,-0.14246 -0.320913,-0.13656 l -0.327741,0 c -0.232912,0 -0.426935,-0.11632 -0.580375,-0.35505 -0.161357,-0.27924 -0.245128,-0.59955 -0.23215,-0.92176 l 0,-7.48342 c 0.0082,-0.20558 -0.111241,-0.39773 -0.300429,-0.47796 -0.07102,-0.0301 -0.144802,-0.0383 -0.218494,-0.0342 z m -18.694897,0.28677 c -0.189929,-0.004 -0.37387,0.0673 -0.512096,0.19803 -0.137422,0.13433 -0.210147,0.31998 -0.204838,0.51208 -0.0043,0.19061 0.07076,0.37609 0.204838,0.51211 0.283142,0.27635 0.73572,0.2788 1.017363,0 0.136063,-0.13477 0.207504,-0.32058 0.204838,-0.51211 0.0087,-0.1926 -0.0642,-0.37992 -0.204838,-0.51208 -0.134328,-0.12902 -0.318802,-0.20043 -0.505267,-0.19803 z m 3.967032,0.50527 c -0.135567,-0.004 -0.261541,0.0524 -0.355053,0.15022 -0.09178,0.10149 -0.141125,0.23197 -0.136558,0.36871 l 0,2.03472 -0.860321,0 c -0.123691,-0.005 -0.24446,0.044 -0.334569,0.12974 -0.08479,0.0863 -0.127054,0.19962 -0.122903,0.32091 -6.55e-4,0.11547 0.04102,0.22587 0.122903,0.30726 0.08819,0.0882 0.210135,0.13715 0.334569,0.12972 l 0.860321,0 0,3.50956 c -0.0082,0.44932 0.09704,0.88648 0.307257,1.28366 0.41239,0.77788 1.229702,1.25907 2.109833,1.24268 l 0.273118,0.007 c 0.145213,0.004 0.281457,-0.0521 0.389192,-0.15022 0.102913,-0.0884 0.160692,-0.21906 0.157043,-0.35505 0.0061,-0.13599 -0.03894,-0.26678 -0.129731,-0.36871 -0.08288,-0.0957 -0.207969,-0.14639 -0.334569,-0.13656 l -0.355053,0 c -0.383632,0.0124 -0.75134,-0.14045 -1.010535,-0.42333 -0.268413,-0.30174 -0.411228,-0.69564 -0.39602,-1.09931 l 0,-3.50956 1.48849,0 c 0.124372,0.005 0.245142,-0.0432 0.334569,-0.12972 0.08454,-0.0797 0.126552,-0.19132 0.122903,-0.30727 0.0027,-0.12129 -0.0386,-0.23394 -0.122903,-0.3209 -0.08869,-0.0874 -0.210197,-0.13717 -0.334569,-0.12974 l -1.48849,0 0,-2.03473 c 0.0043,-0.13846 -0.04555,-0.27063 -0.143387,-0.36871 -0.09809,-0.0978 -0.236878,-0.15458 -0.375537,-0.15021 z m -12.659,0.21168 2.68338,0 c 0.541649,0 0.976625,0.138 1.310965,0.41649 0.334093,0.27856 0.498439,0.67417 0.498439,1.18125 0,0.52617 -0.16536,0.94453 -0.505267,1.24268 -0.339905,0.29785 -0.771889,0.45065 -1.304137,0.45065 l -2.68338,0 0,-3.29107 z m 33.893892,2.01423 c -0.65062,-0.007 -1.29162,0.15592 -1.8572,0.47796 -0.54814,0.3143 -1.00099,0.77381 -1.31096,1.32462 -0.322037,0.56799 -0.484209,1.21124 -0.47796,1.86403 -0.008,0.64865 0.152161,1.28873 0.464299,1.8572 0.302491,0.54233 0.743151,0.994 1.276821,1.31097 0.54765,0.32204 1.16723,0.48451 1.80258,0.47795 0.54264,0.008 1.07879,-0.11058 1.5636,-0.35505 0.46366,-0.23335 0.86833,-0.5777 1.1744,-0.99688 l 0,0.79204 c -0.004,0.13582 0.0456,0.26161 0.14339,0.35506 0.10075,0.0933 0.23855,0.14862 0.37554,0.14337 0.1389,0.005 0.27086,-0.0519 0.36871,-0.15021 0.0966,-0.0928 0.15218,-0.22097 0.15021,-0.35506 l 0,-3.08622 c 0.007,-0.65256 -0.16275,-1.29653 -0.48478,-1.86402 -0.30874,-0.5527 -0.76091,-1.00566 -1.31097,-1.3178 -0.57281,-0.3213 -1.22081,-0.48626 -1.87768,-0.47796 z m 15.30824,0.007 c -0.62378,-0.009 -1.24267,0.15122 -1.78209,0.4643 -0.5197,0.31145 -0.94365,0.76587 -1.2222,1.30413 -0.30051,0.58777 -0.44838,1.2382 -0.43699,1.89817 -0.0102,0.65736 0.15,1.30718 0.4643,1.88451 0.29766,0.54722 0.74524,0.99581 1.29048,1.29731 0.97407,0.53343 2.12909,0.61742 3.16816,0.22533 0.40101,-0.13824 0.77637,-0.34728 1.10613,-0.61452 0.0904,-0.0758 0.14781,-0.18255 0.15021,-0.30043 0,-0.25635 -0.20801,-0.46429 -0.4643,-0.46429 -0.12975,0.003 -0.25455,0.0471 -0.35505,0.12971 -0.22803,0.18555 -0.49084,0.32831 -0.77156,0.41652 -0.30638,0.10582 -0.63146,0.15485 -0.95591,0.15703 -0.73442,0 -1.34553,-0.21417 -1.83671,-0.6623 -0.49137,-0.44863 -0.76859,-1.03533 -0.83984,-1.75479 l 5.30531,0 c 0.12536,0.004 0.24887,-0.0383 0.34139,-0.1229 0.0892,-0.0874 0.13555,-0.20971 0.12974,-0.33456 0.01,-0.63252 -0.13313,-1.25724 -0.41651,-1.82307 -0.25876,-0.5208 -0.66239,-0.95674 -1.16075,-1.25634 -0.52185,-0.30174 -1.11131,-0.45626 -1.71381,-0.44381 z m -40.503336,0.0546 c -0.138906,-0.005 -0.277695,0.0448 -0.375537,0.14337 -0.100252,0.0969 -0.149876,0.22955 -0.143387,0.36871 l 0,6.1588 c -0.0048,0.13848 0.04505,0.27721 0.143387,0.37555 0.09883,0.0969 0.236878,0.14578 0.375537,0.14338 0.134823,0.004 0.261541,-0.0458 0.355052,-0.14338 0.09252,-0.10099 0.141628,-0.23171 0.136559,-0.36871 l 0,-6.16564 c 0.006,-0.13699 -0.04261,-0.26837 -0.136559,-0.36871 -0.09351,-0.0976 -0.220229,-0.14731 -0.355052,-0.14337 z m 35.894476,0 c -0.0915,0.002 -0.18024,0.0289 -0.25946,0.0751 -0.0785,0.0457 -0.14518,0.11299 -0.17753,0.19802 l -2.4922,5.46917 -2.52633,-5.46917 c -0.0309,-0.0821 -0.0887,-0.15233 -0.16387,-0.19802 -0.0732,-0.044 -0.15345,-0.0636 -0.23898,-0.0614 -0.0717,-0.002 -0.14176,0.0131 -0.20484,0.0478 -0.17317,0.0679 -0.29295,0.2373 -0.2936,0.42333 -8.8e-4,0.0643 0.0134,0.12636 0.041,0.18437 l 2.91553,6.17927 c 0.10124,0.22852 0.26338,0.3414 0.47112,0.3414 0.22178,0 0.38706,-0.11288 0.49844,-0.3414 l 2.88139,-6.19977 c 0.0239,-0.0589 0.0386,-0.12059 0.041,-0.18434 0.008,-0.18605 -0.1107,-0.35659 -0.28677,-0.41652 -0.0633,-0.0354 -0.13285,-0.0502 -0.20484,-0.0478 z m 4.60203,0.85348 c 0.6581,0 1.19761,0.19872 1.61822,0.61451 0.42056,0.41597 0.66586,0.95808 0.73742,1.63189 l -4.80687,0 c 0.0944,-0.6784 0.36329,-1.22123 0.79887,-1.63189 0.4409,-0.41481 0.99401,-0.61451 1.65236,-0.61451 z m -15.45845,0.0136 c 0.0594,-0.003 0.1178,0 0.17752,0 0.95621,-0.0142 1.84617,0.50067 2.30785,1.33827 0.46601,0.87382 0.46601,1.91858 0,2.79264 -0.2242,0.40491 -0.55701,0.74087 -0.95592,0.97638 -0.41164,0.23606 -0.87745,0.35943 -1.35193,0.35506 -0.47832,0.01 -0.95103,-0.10973 -1.36558,-0.34822 -0.40176,-0.23291 -0.73222,-0.56952 -0.95592,-0.9764 -0.46774,-0.87335 -0.46774,-1.9259 0,-2.79946 0.22587,-0.40734 0.56099,-0.74771 0.96274,-0.98322 0.36144,-0.21078 0.7653,-0.33187 1.18124,-0.35505 z m -33.736852,1.33827 2.901875,0 c 0.639737,0 1.156438,0.17796 1.55677,0.53258 0.400082,0.35468 0.59403,0.82888 0.59403,1.42705 0,0.6134 -0.198526,1.11039 -0.59403,1.48165 -0.395444,0.37133 -0.917033,0.55989 -1.55677,0.55989 l -2.901875,0 0,-4.00117 z"
       id="path3155"
       inkscape:connector-curvature="0" />
    <path
       style="fill:url(#linearGradient3233);stroke:none"
       d="m 136.17771,880.24328 c -17.06964,0 -30.89745,13.84969 -30.89745,30.91952 0,17.07043 13.82781,30.89745 30.89745,30.89745 17.07063,0 30.91952,-13.82702 30.91952,-30.89745 0,-17.06983 -13.84889,-30.91952 -30.91952,-30.91952 z m -0.86071,3.487 c 8.03002,-0.26844 15.98037,3.00755 21.53993,9.31337 8.08664,9.17191 9.15261,22.57865 2.60421,32.90579 -6.54978,10.32693 -19.13033,15.08015 -30.87537,11.67482 -11.74344,-3.40533 -19.82956,-14.14558 -19.84058,-26.37318 l 0,-0.022 c -0.005,-9.26186 4.64344,-17.90762 12.38105,-22.99652 l 0,22.99652 c -7.1e-4,7.35959 5.30556,13.66427 12.5576,14.91906 7.25345,1.25398 14.34486,-2.90985 16.81704,-9.84305 2.47159,-6.9334 -0.40785,-14.63533 -6.8195,-18.25156 -6.41026,-3.61622 -14.47964,-2.08179 -19.13435,3.61941 l 0,-15.33837 c 3.45824,-1.62589 7.11996,-2.4822 10.76997,-2.60421 z m 0.57381,4.52427 c -2.86285,0.0846 -5.73776,0.70561 -8.47473,1.87592 l 0,3.79597 c 7.69463,-3.98625 17.07883,-2.54212 23.21722,3.57527 0.67088,0.66917 1.75839,0.66987 2.42766,0 0.66978,-0.66927 0.66907,-1.75678 0,-2.42765 -4.63134,-4.62915 -10.8719,-7.00559 -17.17015,-6.81951 z m -16.9936,8.14368 c -7.91951,9.24927 -7.38276,23.02465 1.21383,31.64782 l 0,0.022 c 9.10713,9.09774 23.86485,9.09774 32.97199,0 0.67382,-0.67086 0.66987,-1.77585 0,-2.44972 -0.67088,-0.67413 -1.75299,-0.67088 -2.42766,0 -6.91461,6.9262 -17.84191,7.79098 -25.75523,2.0304 -7.91332,-5.75878 -10.46954,-16.42835 -6.00293,-25.13728 l 0,-6.11328 z m 17.36878,3.11182 c 6.47242,-0.001 11.71472,5.24713 11.71896,11.71896 0.004,6.47263 -5.22427,11.71402 -11.69689,11.71896 -6.47183,0.005 -11.73383,-5.22586 -11.74103,-11.69689 l 0.022,0 c -0.007,-6.47183 5.22647,-11.73086 11.69689,-11.74103 z"
       id="path3215"
       inkscape:connector-curvature="0" />
    <g
       transform="matrix(1.235399,0,0,1.235399,448.47384,662.96223)"
       style="font-size:40px;font-style:normal;font-variant:normal;font-weight:normal;font-stretch:normal;line-height:125%;letter-spacing:0px;word-spacing:0px;fill:#ffffff;fill-opacity:1;stroke:none;font-family:Comfortaa;-inkscape-font-specification:Comfortaa;opacity:0.8"
       id="flowRoot3252">
      <path
         d="m -74.855469,138.7029 0.234375,0 c 0.88541,0.19534 1.328118,0.61852 1.328125,1.26953 l 0,25.39063 c -0.169278,0.9375 -0.638027,1.40625 -1.40625,1.40625 l -0.07813,0 c -0.937505,-0.19531 -1.406254,-0.61198 -1.40625,-1.25 l 0,-23.39844 c -1.328128,0.44273 -2.194013,0.66409 -2.597656,0.66406 -0.611981,3e-5 -1.028647,-0.44919 -1.25,-1.34765 l 0,-0.3711 c -10e-7,-0.72914 0.989582,-1.29554 2.96875,-1.69922 l 2.207031,-0.66406"
         id="path3261"
         inkscape:connector-curvature="0" />
    </g>
    <path
       inkscape:connector-curvature="0"
       id="path3263"
       d="m 379.97325,834.3159 c -9.57424,0 -17.33017,7.76819 -17.33017,17.34254 0,9.57469 7.75593,17.33016 17.33017,17.33016 9.5748,0 17.34254,-7.75547 17.34254,-17.33016 0,-9.57435 -7.76774,-17.34254 -17.34254,-17.34254 z m -0.48277,1.95583 c 4.50398,-0.15057 8.96328,1.68691 12.0816,5.2238 4.53574,5.14446 5.13364,12.66421 1.46068,18.45664 -3.67373,5.79231 -10.73007,8.45834 -17.31778,6.54832 -6.58682,-1.91002 -11.12226,-7.93414 -11.12844,-14.79252 l 0,-0.0124 c -0.002,-5.19492 2.60447,-10.04425 6.94445,-12.89859 l 0,12.89859 c -4.1e-4,4.12795 2.97584,7.66418 7.04347,8.36799 4.0684,0.70336 8.04593,-1.6321 9.43255,-5.5209 1.3863,-3.8889 -0.22876,-8.20884 -3.825,-10.23717 -3.59547,-2.02831 -8.12153,-1.16765 -10.73232,2.03011 l 0,-8.60319 c 1.9397,-0.91196 3.99352,-1.39225 6.04079,-1.46068 z m 0.32185,2.53763 c -1.60575,0.0474 -3.21827,0.39578 -4.75342,1.05219 l 0,2.12914 c 4.31586,-2.23586 9.5794,-1.42586 13.02237,2.00534 0.37631,0.37533 0.98627,0.37573 1.36166,0 0.37569,-0.37539 0.37528,-0.98537 0,-1.36164 -2.59769,-2.59646 -6.09797,-3.92939 -9.63061,-3.82501 z m -9.53159,4.56773 c -4.442,5.18786 -4.14095,12.91437 0.68083,17.75104 l 0,0.0124 c 5.10813,5.10286 13.38562,5.10286 18.49375,0 0.37794,-0.37628 0.37573,-0.99606 0,-1.37403 -0.37629,-0.37812 -0.98323,-0.37629 -1.36166,0 -3.87835,3.88485 -10.0074,4.3699 -14.44593,1.13883 -4.43851,-3.23005 -5.87228,-9.21454 -3.36699,-14.09932 l 0,-3.42889 z m 9.74202,1.74541 c 3.63033,-5.7e-4 6.57071,2.94308 6.57309,6.57308 0.002,3.63045 -2.93027,6.5703 -6.56071,6.57308 -3.63,0.002 -6.58143,-2.93115 -6.58545,-6.56071 l 0.0124,0 c -0.004,-3.62999 2.93149,-6.57976 6.56071,-6.58545 z"
       style="opacity:0.8;color:#000000;fill:#ffffff;fill-opacity:1;fill-rule:nonzero;stroke:none;stroke-width:1;marker:none;visibility:visible;display:inline;overflow:visible;enable-background:accumulate" />
  </g>
</svg>
