<?xml version="1.0" encoding="UTF-8" standalone="no"?>
<!-- Created with Inkscape (http://www.inkscape.org/) -->

<svg
   xmlns:dc="http://purl.org/dc/elements/1.1/"
   xmlns:cc="http://creativecommons.org/ns#"
   xmlns:rdf="http://www.w3.org/1999/02/22-rdf-syntax-ns#"
   xmlns:svg="http://www.w3.org/2000/svg"
   xmlns="http://www.w3.org/2000/svg"
   xmlns:xlink="http://www.w3.org/1999/xlink"
   xmlns:sodipodi="http://sodipodi.sourceforge.net/DTD/sodipodi-0.dtd"
   xmlns:inkscape="http://www.inkscape.org/namespaces/inkscape"
   width="460.62991"
   height="283.46457"
   id="svg2"
   version="1.1"
   inkscape:version="0.48.5 r10040"
   sodipodi:docname="banknote_bg_template.svg"
   inkscape:export-filename="/home/mammique/Documents/daat/banknote/cryptos/dash.png"
   inkscape:export-xdpi="156.31"
   inkscape:export-ydpi="156.31">
  <defs
     id="defs4">
    <linearGradient
       id="linearGradient4925">
      <stop
         style="stop-color:#bd9800;stop-opacity:1;"
         offset="0"
         id="stop4927" />
      <stop
         id="stop3784"
         offset="0.51732481"
         style="stop-color:#ffcc04;stop-opacity:1;" />
      <stop
         offset="1"
         id="stop4929"
         style="stop-color:#a98500;stop-opacity:1;" />
    </linearGradient>
    <linearGradient
       id="linearGradient4835">
      <stop
         style="stop-color:#000000;stop-opacity:0.61572052"
         offset="0"
         id="stop4837" />
      <stop
         style="stop-color:#000000;stop-opacity:0;"
         offset="1"
         id="stop4839" />
    </linearGradient>
    <linearGradient
       inkscape:collect="always"
       id="linearGradient4531">
      <stop
         style="stop-color:#ffffff;stop-opacity:1;"
         offset="0"
         id="stop4533" />
      <stop
         style="stop-color:#ffffff;stop-opacity:0;"
         offset="1"
         id="stop4535" />
    </linearGradient>
    <clipPath
       clipPathUnits="userSpaceOnUse"
       id="clipPath5978">
      <rect
         style="color:#000000;fill:#cccccc;fill-opacity:1;fill-rule:nonzero;stroke:#003a00;stroke-width:0.89999998;stroke-linecap:butt;stroke-linejoin:miter;stroke-miterlimit:4;stroke-opacity:1;stroke-dasharray:none;stroke-dashoffset:0;marker:none;visibility:visible;display:inline;overflow:visible;enable-background:accumulate"
         id="rect5980"
         width="173.74623"
         height="1608.1628"
         x="610.13214"
         y="-378.01382"
         transform="matrix(0,-1,1,0,0,0)" />
    </clipPath>
    <inkscape:perspective
       id="perspective2497"
       inkscape:persp3d-origin="372.04724 : 350.78739 : 1"
       inkscape:vp_z="744.09448 : 526.18109 : 1"
       inkscape:vp_y="0 : 1000 : 0"
       inkscape:vp_x="0 : 526.18109 : 1"
       sodipodi:type="inkscape:persp3d" />
    <linearGradient
       inkscape:collect="always"
       xlink:href="#linearGradient4531"
       id="linearGradient4823"
       gradientUnits="userSpaceOnUse"
       x1="182.81697"
       y1="175.83376"
       x2="183.58928"
       y2="-16.309107"
       gradientTransform="translate(53.033008,825.69937)" />
    <radialGradient
       inkscape:collect="always"
       xlink:href="#linearGradient4835"
       id="radialGradient4845"
       cx="7.3256431"
       cy="198.2952"
       fx="7.3256431"
       fy="198.2952"
       r="109.27257"
       gradientTransform="matrix(0.19829552,0.15553474,-0.16582027,0.21140881,93.302602,945.5672)"
       gradientUnits="userSpaceOnUse" />
    <linearGradient
       id="linearGradient4925-6">
      <stop
         style="stop-color:#bd9800;stop-opacity:1;"
         offset="0"
         id="stop4927-7" />
      <stop
         id="stop3784-5"
         offset="0.5"
         style="stop-color:#ffcc04;stop-opacity:1;" />
      <stop
         offset="1"
         id="stop4929-3"
         style="stop-color:#a98500;stop-opacity:1;" />
    </linearGradient>
    <linearGradient
       gradientTransform="translate(-17.649337,-11.359598)"
       y2="38.317909"
       x2="313.61914"
       y1="142.8687"
       x1="50.479298"
       gradientUnits="userSpaceOnUse"
       id="linearGradient3802"
       xlink:href="#linearGradient4925-6"
       inkscape:collect="always" />
    <linearGradient
       id="linearGradient4925-2">
      <stop
         style="stop-color:#bd9800;stop-opacity:1;"
         offset="0"
         id="stop4927-3" />
      <stop
         id="stop3784-7"
         offset="0.38554054"
         style="stop-color:#ffcc04;stop-opacity:1;" />
      <stop
         offset="1"
         id="stop4929-5"
         style="stop-color:#a98500;stop-opacity:1;" />
    </linearGradient>
    <linearGradient
       y2="38.317909"
       x2="313.61914"
       y1="83.269699"
       x1="19.16457"
       gradientTransform="translate(-17.649337,-11.359581)"
       gradientUnits="userSpaceOnUse"
       id="linearGradient4077"
       xlink:href="#linearGradient4925-2"
       inkscape:collect="always" />
    <linearGradient
       id="linearGradient4925-28">
      <stop
         style="stop-color:#bd9800;stop-opacity:1;"
         offset="0"
         id="stop4927-9" />
      <stop
         id="stop3784-73"
         offset="0.51732481"
         style="stop-color:#ffcc04;stop-opacity:1;" />
      <stop
         offset="1"
         id="stop4929-6"
         style="stop-color:#a98500;stop-opacity:1;" />
    </linearGradient>
    <linearGradient
       y2="19.746481"
       x2="180.76199"
       y1="166.12685"
       x1="180.59314"
       gradientTransform="translate(-17.649337,-11.359581)"
       gradientUnits="userSpaceOnUse"
       id="linearGradient4113"
       xlink:href="#linearGradient4925-28"
       inkscape:collect="always" />
    <linearGradient
       id="linearGradient4925-7">
      <stop
         style="stop-color:#bd9800;stop-opacity:1;"
         offset="0"
         id="stop4927-5" />
      <stop
         id="stop3784-3"
         offset="0.51732481"
         style="stop-color:#ffcc04;stop-opacity:1;" />
      <stop
         offset="1"
         id="stop4929-56"
         style="stop-color:#a98500;stop-opacity:1;" />
    </linearGradient>
    <linearGradient
       y2="19.746481"
       x2="180.76199"
       y1="166.12685"
       x1="180.59314"
       gradientTransform="translate(-17.649337,-11.359581)"
       gradientUnits="userSpaceOnUse"
       id="linearGradient3327"
       xlink:href="#linearGradient4925-7"
       inkscape:collect="always" />
    <linearGradient
       id="linearGradient4925-7-1">
      <stop
         style="stop-color:#bd9800;stop-opacity:1;"
         offset="0"
         id="stop4927-5-2" />
      <stop
         id="stop3784-3-7"
         offset="0.51732481"
         style="stop-color:#ffcc04;stop-opacity:1;" />
      <stop
         offset="1"
         id="stop4929-56-0"
         style="stop-color:#a98500;stop-opacity:1;" />
    </linearGradient>
    <linearGradient
       y2="19.032196"
       x2="138.61914"
       y1="166.12685"
       x1="180.59314"
       gradientTransform="translate(-17.649337,-7.9568844)"
       gradientUnits="userSpaceOnUse"
       id="linearGradient3455"
       xlink:href="#linearGradient4925-7-1"
       inkscape:collect="always" />
    <linearGradient
       inkscape:collect="always"
       xlink:href="#linearGradient4925-7-6"
       id="linearGradient3350-3"
       gradientUnits="userSpaceOnUse"
       gradientTransform="translate(54.548237,823.78353)"
       x1="180.59314"
       y1="166.12685"
       x2="138.61914"
       y2="19.032196" />
    <linearGradient
       id="linearGradient4925-7-6">
      <stop
         style="stop-color:#bd9800;stop-opacity:1;"
         offset="0"
         id="stop4927-5-0" />
      <stop
         id="stop3784-3-6"
         offset="0.51732481"
         style="stop-color:#ffcc04;stop-opacity:1;" />
      <stop
         offset="1"
         id="stop4929-56-2"
         style="stop-color:#a98500;stop-opacity:1;" />
    </linearGradient>
    <linearGradient
       y2="19.032196"
       x2="138.61914"
       y1="166.12685"
       x1="180.59314"
       gradientTransform="translate(-17.649337,-7.9568844)"
       gradientUnits="userSpaceOnUse"
       id="linearGradient3491"
       xlink:href="#linearGradient4925-7-6"
       inkscape:collect="always" />
    <linearGradient
       id="linearGradient4835-7">
      <stop
         style="stop-color:#000000;stop-opacity:0.61572052"
         offset="0"
         id="stop4837-5" />
      <stop
         style="stop-color:#000000;stop-opacity:0;"
         offset="1"
         id="stop4839-9" />
    </linearGradient>
    <radialGradient
       r="109.27257"
       fy="198.2952"
       fx="7.3256431"
       cy="198.2952"
       cx="7.3256431"
       gradientTransform="matrix(0.19829552,0.15553474,-0.16582027,0.21140881,132.487,52.51516)"
       gradientUnits="userSpaceOnUse"
       id="radialGradient3545"
       xlink:href="#linearGradient4835-7"
       inkscape:collect="always" />
    <linearGradient
       id="linearGradient4835-8">
      <stop
         style="stop-color:#000000;stop-opacity:0.61572052"
         offset="0"
         id="stop4837-9" />
      <stop
         style="stop-color:#000000;stop-opacity:0;"
         offset="1"
         id="stop4839-7" />
    </linearGradient>
    <radialGradient
       r="109.27257"
       fy="198.2952"
       fx="7.3256431"
       cy="198.2952"
       cx="7.3256431"
       gradientTransform="matrix(0.19829552,0.15553474,-0.16582027,0.21140881,132.487,52.51516)"
       gradientUnits="userSpaceOnUse"
       id="radialGradient3578"
       xlink:href="#linearGradient4835-8"
       inkscape:collect="always" />
    <linearGradient
       inkscape:collect="always"
       xlink:href="#linearGradient4925-7-6-1"
       id="linearGradient3350-3-6"
       gradientUnits="userSpaceOnUse"
       gradientTransform="translate(54.548237,823.78353)"
       x1="180.59314"
       y1="166.12685"
       x2="138.61914"
       y2="19.032196" />
    <linearGradient
       id="linearGradient4925-7-6-1">
      <stop
         style="stop-color:#bd9800;stop-opacity:1;"
         offset="0"
         id="stop4927-5-0-2" />
      <stop
         id="stop3784-3-6-9"
         offset="0.51732481"
         style="stop-color:#ffcc04;stop-opacity:1;" />
      <stop
         offset="1"
         id="stop4929-56-2-3"
         style="stop-color:#a98500;stop-opacity:1;" />
    </linearGradient>
    <linearGradient
       y2="19.032196"
       x2="138.61914"
       y1="166.12685"
       x1="180.59314"
       gradientTransform="translate(-17.649337,-14.676051)"
       gradientUnits="userSpaceOnUse"
       id="linearGradient3612"
       xlink:href="#linearGradient4925-7-6-1"
       inkscape:collect="always" />
  </defs>
  <sodipodi:namedview
     id="base"
     pagecolor="#5271a5"
     bordercolor="#666666"
     borderopacity="1.0"
     inkscape:pageopacity="1"
     inkscape:pageshadow="2"
     inkscape:zoom="1.979899"
     inkscape:cx="205.0402"
     inkscape:cy="148.90887"
     inkscape:document-units="px"
     inkscape:current-layer="layer1"
     showgrid="false"
     units="mm"
     inkscape:window-width="1364"
     inkscape:window-height="747"
     inkscape:window-x="0"
     inkscape:window-y="19"
     inkscape:window-maximized="1"
     showguides="true"
     inkscape:guide-bbox="true" />
  <metadata
     id="metadata7">
    <rdf:RDF>
      <cc:Work
         rdf:about="">
        <dc:format>image/svg+xml</dc:format>
        <dc:type
           rdf:resource="http://purl.org/dc/dcmitype/StillImage" />
        <dc:title></dc:title>
      </cc:Work>
    </rdf:RDF>
  </metadata>
  <g
     inkscape:label="Calque 1"
     inkscape:groupmode="layer"
     id="layer1"
     transform="translate(0,-768.89763)">
    <path
       style="opacity:0.8;color:#000000;fill:#ffffff;fill-opacity:1;fill-rule:nonzero;stroke:none;stroke-width:1;marker:none;visibility:visible;display:inline;overflow:visible;enable-background:accumulate"
       d="m 70.968335,845.10824 c -1.750605,-0.57831 -2.714944,-2.0589 -2.712326,-4.16433 0.0018,-1.37756 0.380189,-2.41583 1.160697,-3.18413 1.369428,-1.34799 3.822283,-1.53559 5.446151,-0.41653 0.641757,0.44226 0.652531,0.49532 0.217522,1.07149 -0.547392,0.72501 -0.679349,0.76272 -1.41827,0.40525 -1.151254,-0.55694 -2.091549,-0.33205 -2.554702,0.61101 -0.218422,0.44475 -0.241382,0.58412 -0.241382,1.46512 0,1.1445 0.155468,1.66064 0.624158,2.07215 0.613944,0.53906 1.331105,0.55343 2.177269,0.0437 0.703349,-0.42375 0.863657,-0.40142 1.3756,0.19156 0.234041,0.27109 0.425526,0.55931 0.425526,0.64049 0,0.24412 -1.045898,0.96451 -1.7045,1.17404 -0.860174,0.27364 -2.1177,0.31423 -2.795743,0.0902 z m 7.396476,0.0391 c -1.024759,-0.31999 -1.693095,-1.20592 -1.875076,-2.48554 -0.06189,-0.43516 -0.09004,-1.69954 -0.07379,-3.31459 l 0.02627,-2.61107 1.239151,0 1.239151,0 0.04425,2.96511 c 0.03249,2.17698 0.07436,3.0178 0.157518,3.16334 0.154308,0.27007 0.561349,0.46578 0.966596,0.46473 0.357631,-8.8e-4 1.148454,-0.32527 1.330849,-0.54585 0.08099,-0.0979 0.115491,-0.90099 0.132764,-3.08983 l 0.02332,-2.9575 1.218833,0 1.218828,0 1.76e-4,4.20426 1.77e-4,4.20426 -0.784568,0.0253 c -1.073986,0.0346 -1.254984,-0.0535 -1.466405,-0.71327 -0.04404,-0.13746 -0.116513,-0.11173 -0.583912,0.2073 -0.847883,0.57877 -1.919311,0.7628 -2.814141,0.48338 z m 22.383159,0.0402 c -1.058551,-0.22383 -2.093762,-0.99186 -2.651995,-1.96756 -0.718042,-1.25501 -0.760188,-3.20106 -0.09745,-4.50013 0.506586,-0.99298 1.712929,-1.83981 2.9144,-2.04584 0.76948,-0.13195 1.83401,-9e-5 2.51455,0.31147 0.54871,0.25121 1.27009,0.93502 1.54337,1.46299 0.4254,0.82189 0.60275,2.33526 0.32083,2.73776 -0.13699,0.19558 -0.15263,0.19672 -2.69958,0.19672 -1.40898,0 -2.56179,0.0326 -2.56179,0.0724 0,0.0399 0.062,0.2812 0.13776,0.53634 0.38534,1.29758 1.66853,1.69773 3.19056,0.99494 0.84002,-0.38788 1.01443,-0.35654 1.57112,0.28233 0.35981,0.41292 0.43016,0.5436 0.35737,0.66383 -0.16707,0.27597 -1.18942,0.89616 -1.78778,1.08451 -0.6725,0.21169 -2.12902,0.30179 -2.75136,0.1702 z m 2.35658,-5.65917 c -0.0635,-0.47337 -0.34373,-0.83994 -0.77362,-1.01195 -0.8448,-0.33802 -1.6301,-0.0457 -2.04371,0.76088 -0.314719,0.61368 -0.343246,0.60096 1.34793,0.60096 l 1.51633,0 z m 14.75547,5.5734 c -0.51831,-0.2062 -0.94598,-0.59322 -1.21894,-1.10308 -0.18212,-0.34019 -0.19344,-0.48962 -0.21909,-2.89261 l -0.0271,-2.5339 -0.4347,-0.0417 c -0.6333,-0.0608 -0.7061,-0.1539 -0.7061,-0.9025 l 0,-0.63548 0.6417,-0.12814 0.6417,-0.12816 0.27454,-1.09797 c 0.18649,-0.74585 0.32812,-1.13715 0.44163,-1.22016 0.1186,-0.0867 0.38574,-0.11485 0.92036,-0.0969 l 0.75326,0.0253 0.0246,1.21702 0.0246,1.21703 1.01858,0 1.01858,0 -0.0254,0.86298 -0.0254,0.86297 -0.99574,0.025 -0.99575,0.025 0,2.17144 c 0,1.32756 0.0356,2.23796 0.0916,2.34263 0.10206,0.19069 0.53535,0.23132 0.9175,0.086 0.27271,-0.10368 0.32285,-0.0595 0.84938,0.74866 l 0.38984,0.59835 -0.19844,0.16068 c -0.65864,0.53334 -2.33689,0.76563 -3.16147,0.43759 z m -32.126946,-0.021 c -0.02385,-0.0622 -0.03302,-1.96523 -0.02032,-4.2289 l 0.02306,-4.11574 0.663831,-0.0115 c 1.016435,-0.0175 1.256273,0.0512 1.438161,0.41231 0.08511,0.16899 0.154815,0.42473 0.15489,0.56832 1.81e-4,0.25636 0.0085,0.25174 0.460892,-0.25588 0.253412,-0.28432 0.621839,-0.59012 0.818725,-0.67955 0.406649,-0.18472 1.036878,-0.21374 1.457471,-0.0671 l 0.285062,0.0994 -0.06244,0.89637 c -0.09235,1.32577 -0.07015,1.29467 -0.924473,1.29467 -0.877897,0 -1.242598,0.14178 -1.546669,0.60126 l -0.231396,0.34966 -0.01785,2.60029 -0.01786,2.60029 -1.218836,0.0246 c -0.926126,0.0187 -1.229254,-0.003 -1.262212,-0.0885 z m 6.17551,-4.11826 0.02297,-4.22638 0.929362,0.0317 c 0.511149,0.0175 0.976961,0.0703 1.03514,0.11744 0.05818,0.0471 0.150636,0.30178 0.20547,0.56591 l 0.0997,0.48022 0.449791,-0.49214 c 0.621072,-0.67955 1.00954,-0.86429 1.722015,-0.81892 0.818368,0.0521 0.854721,0.11051 0.743471,1.19458 -0.05001,0.48732 -0.116148,0.95177 -0.146977,1.0321 -0.06312,0.1645 -0.113961,0.17257 -0.934277,0.14841 -0.713277,-0.021 -1.037447,0.12512 -1.405856,0.6337 l -0.26379,0.36414 0,2.59779 0,2.59778 -1.240006,0 -1.240006,0 0.02297,-4.22638 z m 14.801526,4.11826 c -0.0238,-0.0622 -0.033,-1.96523 -0.0203,-4.2289 l 0.0231,-4.11574 0.9033,0.005 c 1.00153,0.005 1.20512,0.0954 1.31148,0.57964 0.0309,0.141 0.0713,0.25636 0.0896,0.25636 0.0183,0 0.2546,-0.15503 0.52508,-0.3445 1.45055,-1.01611 3.3675,-0.74375 4.21955,0.59951 0.48638,0.76677 0.51376,0.99228 0.52103,4.29001 l 0.007,3.02264 -1.2487,0 -1.2487,0 0.002,-2.65532 c 0.001,-1.46043 -0.0325,-2.83342 -0.0752,-3.05111 -0.0537,-0.27396 -0.16562,-0.47449 -0.36368,-0.65145 -0.25914,-0.23154 -0.33366,-0.25222 -0.78998,-0.21922 -0.36179,0.0262 -0.62004,0.10995 -0.91592,0.29714 l -0.41207,0.2607 -0.0233,3.00963 -0.0233,3.00963 -1.21883,0.0247 c -0.92613,0.0187 -1.22926,-0.003 -1.26222,-0.0885 z"
       id="path3075"
       inkscape:connector-curvature="0"
       sodipodi:nodetypes="ccssssssssssccccsscccscccsccccccccccssssssssscssssssssscscssccscccscscccccccccscsscscccscsccssscsssccccccccscscsssccsccccccccccscsssscccccscccccccc" />
    <path
       inkscape:connector-curvature="0"
       id="path3845"
       d="m 112.4734,937.20187 -0.80153,-0.80151 0,-9.46598 c 0,-9.42315 0.003,-9.46919 0.6174,-10.18371 0.41474,-0.48217 0.99397,-0.76828 1.76467,-0.87165 1.10393,-0.14806 1.42605,0.0186 8.5256,4.41058 4.37445,2.70619 7.49731,4.81309 7.67062,5.17514 0.5661,1.18267 0.60725,1.6095 0.23991,2.48864 -0.41053,0.98256 -0.72304,1.19971 -9.49012,6.59425 -6.3648,3.91638 -7.05086,4.12994 -8.52655,2.65424 z m 39.07298,-4.90152 c -13.63583,-8.4583 -25.33968,-15.70669 -32.85411,-20.34707 l -6.88329,-4.25065 -0.0758,-8.77421 c -0.0661,-7.64904 -0.0172,-8.92906 0.38153,-9.98171 0.62234,-1.64317 2.15686,-3.27254 3.8074,-4.0428 l 1.37104,-0.63981 18.93502,-0.003 18.93503,-0.003 1.4189,0.70706 c 1.4238,0.70951 2.55425,1.89197 3.51839,3.68025 0.49417,0.91657 0.52084,2.04175 0.5932,25.02144 0.0418,13.28388 -0.0298,24.06171 -0.15978,24.06171 -0.12962,0 -4.17394,-2.443 -8.9875,-5.42884 z"
       style="fill:#571195;fill-opacity:1"
       sodipodi:nodetypes="scscssscsscscscscccsssscc" />
    <g
       id="g3902"
       transform="translate(156.88598,-16.206626)">
      <g
         id="flowRoot3864"
         style="font-size:40px;font-style:normal;font-variant:normal;font-weight:normal;font-stretch:normal;line-height:125%;letter-spacing:0px;word-spacing:0px;opacity:0.8;color:#000000;fill:#ffffff;fill-opacity:1;fill-rule:nonzero;stroke:none;stroke-width:1;marker:none;visibility:visible;display:inline;overflow:visible;enable-background:accumulate;font-family:Comfortaa;-inkscape-font-specification:Comfortaa"
         transform="translate(6,768.89763)">
        <path
           sodipodi:nodetypes="cccccsscccscccscccssccccsccccc"
           inkscape:connector-curvature="0"
           id="path3873"
           d="m 194.375,81.625 -0.59375,0.09375 -2.03125,0.625 -0.15625,0.03125 0,0.03125 c -1.02086,0.216749 -1.88658,0.434462 -2.65625,0.875 -0.81591,0.467001 -1.75,1.449388 -1.75,2.71875 l 0,0.375 0,0.25 0.0625,0.21875 c 0.16188,0.657077 0.39715,1.323691 0.9375,1.90625 0.54035,0.582559 1.45463,0.968781 2.25,0.96875 0.20833,1.2e-5 0.40728,-0.105383 0.59375,-0.125 l 0,20.875 c -1e-5,0.80881 0.41801,1.73615 1.03125,2.28125 0.61324,0.5451 1.28715,0.76425 1.96875,0.90625 l 0.21875,0.0625 0.1875,0 0.0937,0 c 0.79089,0 1.72309,-0.31684 2.34375,-0.9375 0.62066,-0.62066 0.89961,-1.39594 1.03125,-2.125 l 0.0312,-0.1875 0,-0.15625 0,-25.40625 c -1e-5,-0.778844 -0.37709,-1.684439 -0.96875,-2.25 -0.59166,-0.565561 -1.26657,-0.820729 -1.9375,-0.96875 l -0.21875,-0.0625 -0.21875,0 -0.21875,0 z"
           style="font-size:medium;font-style:normal;font-variant:normal;font-weight:normal;font-stretch:normal;text-indent:0;text-align:start;text-decoration:none;line-height:125%;letter-spacing:0;word-spacing:0;text-transform:none;direction:ltr;block-progression:tb;writing-mode:lr-tb;text-anchor:start;baseline-shift:baseline;color:#000000;fill:#ffffff;fill-opacity:1;fill-rule:nonzero;stroke:none;stroke-width:1;marker:none;visibility:visible;display:inline;overflow:visible;enable-background:accumulate;font-family:Comfortaa;-inkscape-font-specification:Comfortaa" />
      </g>
      <path
         inkscape:connector-curvature="0"
         id="path3877"
         d="m 211.65016,882.11369 -0.47826,-0.47825 0,-5.64825 c 0,-5.62269 0.002,-5.65016 0.3684,-6.07651 0.24747,-0.2877 0.59309,-0.45842 1.05296,-0.5201 0.6587,-0.0883 0.8509,0.0111 5.08713,2.63174 2.61019,1.61476 4.47356,2.87192 4.57697,3.08795 0.33779,0.70569 0.36234,0.96038 0.14316,1.48495 -0.24496,0.58628 -0.43143,0.71585 -5.66266,3.93472 -3.7978,2.33686 -4.20717,2.46429 -5.0877,1.58375 z m 23.31443,-2.92468 c -8.13635,-5.04698 -15.11991,-9.37201 -19.60369,-12.14088 l -4.10719,-2.53631 -0.0452,-5.23548 c -0.0394,-4.5641 -0.0103,-5.32787 0.22766,-5.95598 0.37134,-0.98046 1.28697,-1.95269 2.27183,-2.41229 l 0.81809,-0.38177 11.29832,-0.002 11.29833,-0.002 0.84664,0.42189 c 0.84956,0.42336 1.52409,1.12892 2.09938,2.19597 0.29487,0.54691 0.31078,1.21829 0.35396,14.93002 0.0249,7.92635 -0.0178,14.35736 -0.0953,14.35736 -0.0773,0 -2.49054,-1.45771 -5.36274,-3.23933 z"
         style="opacity:0.8;color:#000000;fill:#ffffff;fill-opacity:1;fill-rule:nonzero;stroke:none;stroke-width:1;marker:none;visibility:visible;display:inline;overflow:visible;enable-background:accumulate"
         sodipodi:nodetypes="scscssscsscscscscccsssscc" />
    </g>
  </g>
</svg>
