<?xml version="1.0" encoding="UTF-8" standalone="no"?>
<!-- Created with Inkscape (http://www.inkscape.org/) -->

<svg
   xmlns:dc="http://purl.org/dc/elements/1.1/"
   xmlns:cc="http://creativecommons.org/ns#"
   xmlns:rdf="http://www.w3.org/1999/02/22-rdf-syntax-ns#"
   xmlns:svg="http://www.w3.org/2000/svg"
   xmlns="http://www.w3.org/2000/svg"
   xmlns:xlink="http://www.w3.org/1999/xlink"
   xmlns:sodipodi="http://sodipodi.sourceforge.net/DTD/sodipodi-0.dtd"
   xmlns:inkscape="http://www.inkscape.org/namespaces/inkscape"
   width="460.62991"
   height="283.46457"
   id="svg2"
   version="1.1"
   inkscape:version="0.48.5 r10040"
   sodipodi:docname="banknote_bg_template.svg"
   inkscape:export-filename="/home/mammique/Documents/daat/banknote/cryptos/dash.png"
   inkscape:export-xdpi="156.31"
   inkscape:export-ydpi="156.31">
  <defs
     id="defs4">
    <linearGradient
       id="linearGradient4925">
      <stop
         style="stop-color:#bd9800;stop-opacity:1;"
         offset="0"
         id="stop4927" />
      <stop
         id="stop3784"
         offset="0.51732481"
         style="stop-color:#ffcc04;stop-opacity:1;" />
      <stop
         offset="1"
         id="stop4929"
         style="stop-color:#a98500;stop-opacity:1;" />
    </linearGradient>
    <linearGradient
       id="linearGradient4835">
      <stop
         style="stop-color:#000000;stop-opacity:0.61572052"
         offset="0"
         id="stop4837" />
      <stop
         style="stop-color:#000000;stop-opacity:0;"
         offset="1"
         id="stop4839" />
    </linearGradient>
    <linearGradient
       inkscape:collect="always"
       id="linearGradient4531">
      <stop
         style="stop-color:#ffffff;stop-opacity:1;"
         offset="0"
         id="stop4533" />
      <stop
         style="stop-color:#ffffff;stop-opacity:0;"
         offset="1"
         id="stop4535" />
    </linearGradient>
    <clipPath
       clipPathUnits="userSpaceOnUse"
       id="clipPath5978">
      <rect
         style="color:#000000;fill:#cccccc;fill-opacity:1;fill-rule:nonzero;stroke:#003a00;stroke-width:0.89999998;stroke-linecap:butt;stroke-linejoin:miter;stroke-miterlimit:4;stroke-opacity:1;stroke-dasharray:none;stroke-dashoffset:0;marker:none;visibility:visible;display:inline;overflow:visible;enable-background:accumulate"
         id="rect5980"
         width="173.74623"
         height="1608.1628"
         x="610.13214"
         y="-378.01382"
         transform="matrix(0,-1,1,0,0,0)" />
    </clipPath>
    <inkscape:perspective
       id="perspective2497"
       inkscape:persp3d-origin="372.04724 : 350.78739 : 1"
       inkscape:vp_z="744.09448 : 526.18109 : 1"
       inkscape:vp_y="0 : 1000 : 0"
       inkscape:vp_x="0 : 526.18109 : 1"
       sodipodi:type="inkscape:persp3d" />
    <linearGradient
       inkscape:collect="always"
       xlink:href="#linearGradient4531"
       id="linearGradient4823"
       gradientUnits="userSpaceOnUse"
       x1="182.81697"
       y1="175.83376"
       x2="183.58928"
       y2="-16.309107"
       gradientTransform="translate(53.033008,825.69937)" />
    <radialGradient
       inkscape:collect="always"
       xlink:href="#linearGradient4835"
       id="radialGradient4845"
       cx="7.3256431"
       cy="198.2952"
       fx="7.3256431"
       fy="198.2952"
       r="109.27257"
       gradientTransform="matrix(0.19829552,0.15553474,-0.16582027,0.21140881,93.302602,945.5672)"
       gradientUnits="userSpaceOnUse" />
    <linearGradient
       id="linearGradient4925-6">
      <stop
         style="stop-color:#bd9800;stop-opacity:1;"
         offset="0"
         id="stop4927-7" />
      <stop
         id="stop3784-5"
         offset="0.5"
         style="stop-color:#ffcc04;stop-opacity:1;" />
      <stop
         offset="1"
         id="stop4929-3"
         style="stop-color:#a98500;stop-opacity:1;" />
    </linearGradient>
    <linearGradient
       gradientTransform="translate(-17.649337,-11.359598)"
       y2="38.317909"
       x2="313.61914"
       y1="142.8687"
       x1="50.479298"
       gradientUnits="userSpaceOnUse"
       id="linearGradient3802"
       xlink:href="#linearGradient4925-6"
       inkscape:collect="always" />
    <linearGradient
       id="linearGradient4925-2">
      <stop
         style="stop-color:#bd9800;stop-opacity:1;"
         offset="0"
         id="stop4927-3" />
      <stop
         id="stop3784-7"
         offset="0.38554054"
         style="stop-color:#ffcc04;stop-opacity:1;" />
      <stop
         offset="1"
         id="stop4929-5"
         style="stop-color:#a98500;stop-opacity:1;" />
    </linearGradient>
    <linearGradient
       y2="38.317909"
       x2="313.61914"
       y1="83.269699"
       x1="19.16457"
       gradientTransform="translate(-17.649337,-11.359581)"
       gradientUnits="userSpaceOnUse"
       id="linearGradient4077"
       xlink:href="#linearGradient4925-2"
       inkscape:collect="always" />
    <linearGradient
       id="linearGradient4925-28">
      <stop
         style="stop-color:#bd9800;stop-opacity:1;"
         offset="0"
         id="stop4927-9" />
      <stop
         id="stop3784-73"
         offset="0.51732481"
         style="stop-color:#ffcc04;stop-opacity:1;" />
      <stop
         offset="1"
         id="stop4929-6"
         style="stop-color:#a98500;stop-opacity:1;" />
    </linearGradient>
    <linearGradient
       y2="19.746481"
       x2="180.76199"
       y1="166.12685"
       x1="180.59314"
       gradientTransform="translate(-17.649337,-11.359581)"
       gradientUnits="userSpaceOnUse"
       id="linearGradient4113"
       xlink:href="#linearGradient4925-28"
       inkscape:collect="always" />
    <linearGradient
       id="linearGradient4925-7">
      <stop
         style="stop-color:#bd9800;stop-opacity:1;"
         offset="0"
         id="stop4927-5" />
      <stop
         id="stop3784-3"
         offset="0.51732481"
         style="stop-color:#ffcc04;stop-opacity:1;" />
      <stop
         offset="1"
         id="stop4929-56"
         style="stop-color:#a98500;stop-opacity:1;" />
    </linearGradient>
    <linearGradient
       y2="19.746481"
       x2="180.76199"
       y1="166.12685"
       x1="180.59314"
       gradientTransform="translate(-17.649337,-11.359581)"
       gradientUnits="userSpaceOnUse"
       id="linearGradient3327"
       xlink:href="#linearGradient4925-7"
       inkscape:collect="always" />
    <linearGradient
       id="linearGradient4925-7-1">
      <stop
         style="stop-color:#bd9800;stop-opacity:1;"
         offset="0"
         id="stop4927-5-2" />
      <stop
         id="stop3784-3-7"
         offset="0.51732481"
         style="stop-color:#ffcc04;stop-opacity:1;" />
      <stop
         offset="1"
         id="stop4929-56-0"
         style="stop-color:#a98500;stop-opacity:1;" />
    </linearGradient>
    <linearGradient
       y2="19.032196"
       x2="138.61914"
       y1="166.12685"
       x1="180.59314"
       gradientTransform="translate(-17.649337,-7.9568844)"
       gradientUnits="userSpaceOnUse"
       id="linearGradient3455"
       xlink:href="#linearGradient4925-7-1"
       inkscape:collect="always" />
    <linearGradient
       inkscape:collect="always"
       xlink:href="#linearGradient4925-7-6"
       id="linearGradient3350-3"
       gradientUnits="userSpaceOnUse"
       gradientTransform="translate(54.548237,823.78353)"
       x1="180.59314"
       y1="166.12685"
       x2="138.61914"
       y2="19.032196" />
    <linearGradient
       id="linearGradient4925-7-6">
      <stop
         style="stop-color:#bd9800;stop-opacity:1;"
         offset="0"
         id="stop4927-5-0" />
      <stop
         id="stop3784-3-6"
         offset="0.51732481"
         style="stop-color:#ffcc04;stop-opacity:1;" />
      <stop
         offset="1"
         id="stop4929-56-2"
         style="stop-color:#a98500;stop-opacity:1;" />
    </linearGradient>
    <linearGradient
       y2="19.032196"
       x2="138.61914"
       y1="166.12685"
       x1="180.59314"
       gradientTransform="translate(-17.649337,-7.9568844)"
       gradientUnits="userSpaceOnUse"
       id="linearGradient3491"
       xlink:href="#linearGradient4925-7-6"
       inkscape:collect="always" />
    <linearGradient
       id="linearGradient4835-7">
      <stop
         style="stop-color:#000000;stop-opacity:0.61572052"
         offset="0"
         id="stop4837-5" />
      <stop
         style="stop-color:#000000;stop-opacity:0;"
         offset="1"
         id="stop4839-9" />
    </linearGradient>
    <radialGradient
       r="109.27257"
       fy="198.2952"
       fx="7.3256431"
       cy="198.2952"
       cx="7.3256431"
       gradientTransform="matrix(0.19829552,0.15553474,-0.16582027,0.21140881,132.487,52.51516)"
       gradientUnits="userSpaceOnUse"
       id="radialGradient3545"
       xlink:href="#linearGradient4835-7"
       inkscape:collect="always" />
    <linearGradient
       id="linearGradient4835-8">
      <stop
         style="stop-color:#000000;stop-opacity:0.61572052"
         offset="0"
         id="stop4837-9" />
      <stop
         style="stop-color:#000000;stop-opacity:0;"
         offset="1"
         id="stop4839-7" />
    </linearGradient>
    <radialGradient
       r="109.27257"
       fy="198.2952"
       fx="7.3256431"
       cy="198.2952"
       cx="7.3256431"
       gradientTransform="matrix(0.19829552,0.15553474,-0.16582027,0.21140881,132.487,52.51516)"
       gradientUnits="userSpaceOnUse"
       id="radialGradient3578"
       xlink:href="#linearGradient4835-8"
       inkscape:collect="always" />
    <linearGradient
       inkscape:collect="always"
       xlink:href="#linearGradient4925-7-6-1"
       id="linearGradient3350-3-6"
       gradientUnits="userSpaceOnUse"
       gradientTransform="translate(54.548237,823.78353)"
       x1="180.59314"
       y1="166.12685"
       x2="138.61914"
       y2="19.032196" />
    <linearGradient
       id="linearGradient4925-7-6-1">
      <stop
         style="stop-color:#bd9800;stop-opacity:1;"
         offset="0"
         id="stop4927-5-0-2" />
      <stop
         id="stop3784-3-6-9"
         offset="0.51732481"
         style="stop-color:#ffcc04;stop-opacity:1;" />
      <stop
         offset="1"
         id="stop4929-56-2-3"
         style="stop-color:#a98500;stop-opacity:1;" />
    </linearGradient>
    <linearGradient
       y2="19.032196"
       x2="138.61914"
       y1="166.12685"
       x1="180.59314"
       gradientTransform="translate(-17.649337,-14.676051)"
       gradientUnits="userSpaceOnUse"
       id="linearGradient3612"
       xlink:href="#linearGradient4925-7-6-1"
       inkscape:collect="always" />
  </defs>
  <sodipodi:namedview
     id="base"
     pagecolor="#5271a5"
     bordercolor="#666666"
     borderopacity="1.0"
     inkscape:pageopacity="1"
     inkscape:pageshadow="2"
     inkscape:zoom="2.8"
     inkscape:cx="224.97171"
     inkscape:cy="173.83063"
     inkscape:document-units="px"
     inkscape:current-layer="layer1"
     showgrid="false"
     units="mm"
     inkscape:window-width="1918"
     inkscape:window-height="1059"
     inkscape:window-x="1366"
     inkscape:window-y="19"
     inkscape:window-maximized="1"
     showguides="true"
     inkscape:guide-bbox="true" />
  <metadata
     id="metadata7">
    <rdf:RDF>
      <cc:Work
         rdf:about="">
        <dc:format>image/svg+xml</dc:format>
        <dc:type
           rdf:resource="http://purl.org/dc/dcmitype/StillImage" />
        <dc:title></dc:title>
      </cc:Work>
    </rdf:RDF>
  </metadata>
  <g
     inkscape:label="Calque 1"
     inkscape:groupmode="layer"
     id="layer1"
     transform="translate(0,-768.89763)">
    <path
       id="path3085"
       d="m 139.19476,913.50458 a 7.0735545,7.0735545 0 0 0 4.01701,-6.36379 c 0,-3.90827 -3.20756,-7.07654 -7.15812,-7.07654 -3.9566,0 -7.16719,3.16827 -7.16719,7.07654 a 7.0675139,7.0675139 0 0 0 4.02305,6.36077 v 8.74076 h 6.28525 v -8.73774 m -3.14111,20.29947 c -12.643,0 -22.92412,-10.16031 -22.92412,-22.65229 0,-12.49198 10.28112,-22.65229 22.92412,-22.65229 10.31434,0 19.05812,6.76549 21.92741,16.04386 h 7.90112 c -3.05051,-13.50076 -15.2465,-23.59462 -29.83155,-23.59462 -16.88049,0 -30.56549,13.5219 -30.56549,30.20305 0,16.68115 13.685,30.20305 30.56549,30.20305 14.58505,0 26.78104,-10.09386 29.83155,-23.59462 h -7.90414 c -2.86929,9.27837 -11.61307,16.04386 -21.92741,16.04386"
       inkscape:connector-curvature="0"
       style="color:#000000;fill:#3ab03e;fill-opacity:1;fill-rule:nonzero;stroke-width:1;stroke-linecap:butt;stroke-linejoin:miter;stroke-miterlimit:4;stroke-opacity:1;stroke-dasharray:none;stroke-dashoffset:0;marker:none;visibility:visible;display:inline;overflow:visible;enable-background:accumulate" />
    <path
       style="opacity:0.8;color:#000000;fill:#ffffff;fill-opacity:1;fill-rule:nonzero;stroke:none;stroke-width:1;marker:none;visibility:visible;display:inline;overflow:visible;enable-background:accumulate"
       d="m 73.229379,847.86751 c -1.277127,-0.1198 -2.384052,-0.6252 -3.309791,-1.5112 -0.80103,-0.76664 -1.34554,-1.75773 -1.57995,-2.87574 -0.104042,-0.49624 -0.11231,-1.4069 -0.01751,-1.92864 0.50221,-2.76379 3.097291,-4.74862 5.868037,-4.48811 1.024083,0.0963 1.884383,0.41462 2.702735,1.0001 0.325598,0.23295 0.841685,0.68196 0.824969,0.71775 -0.006,0.0128 -0.350953,0.35792 -0.766597,0.76691 l -0.755717,0.74361 -0.209861,-0.18301 c -0.510029,-0.44476 -1.010157,-0.72554 -1.530218,-0.85911 -0.379608,-0.0975 -1.130473,-0.0893 -1.532325,0.0166 -0.376416,0.0992 -0.901817,0.36322 -1.205151,0.6055 -0.647449,0.51713 -1.111049,1.37387 -1.212823,2.24128 -0.153345,1.30702 0.557972,2.66023 1.726563,3.28461 0.524588,0.28029 1.238954,0.41376 1.829939,0.3419 0.751103,-0.0913 1.330529,-0.36707 1.88098,-0.89515 l 0.253847,-0.24353 0.772984,0.77298 0.772983,0.77298 -0.148549,0.15407 c -0.200974,0.20844 -0.689022,0.5876 -1.008148,0.78321 -0.978458,0.59976 -2.220606,0.88953 -3.3564,0.783 z m 14.819263,-0.009 c -0.02128,-0.0257 -1.190926,-2.39285 -2.599189,-5.26035 l -2.560477,-5.21363 1.14396,-0.01 c 0.629181,-0.005 1.157484,0.004 1.174007,0.0202 0.01652,0.0165 0.694797,1.41573 1.507275,3.10936 0.812475,1.69362 1.483003,3.08509 1.490058,3.09215 0.007,0.007 0.681763,-1.39191 1.499345,-3.10881 l 1.486517,-3.12165 1.153625,0 c 0.634495,0 1.153625,0.01 1.153625,0.0223 0,0.0198 -0.734597,1.52602 -4.167957,8.54566 l -0.964259,1.97146 -0.138908,0 c -0.0764,0 -0.156332,-0.021 -0.177622,-0.0467 z m 15.547998,0.007 c -1.29396,-0.1223 -2.48494,-0.70367 -3.41072,-1.66493 -0.730213,-0.7582 -1.204117,-1.64934 -1.425315,-2.6802 -0.109075,-0.50832 -0.118291,-1.5213 -0.01839,-2.02052 0.222316,-1.11079 0.711884,-2.02361 1.517245,-2.82898 0.82623,-0.82622 1.78506,-1.33354 2.9364,-1.55365 0.45185,-0.0864 1.40388,-0.0871 1.87704,-0.002 1.01042,0.18291 2.04648,0.70098 2.75539,1.37781 l 0.3009,0.28728 -0.74712,0.74984 c -0.41092,0.41241 -0.76481,0.74983 -0.78642,0.74983 -0.0216,0 -0.11426,-0.0765 -0.2059,-0.16988 -0.19058,-0.19432 -0.59943,-0.48496 -0.88392,-0.62835 -0.10673,-0.0538 -0.34219,-0.14237 -0.52323,-0.19683 -0.27899,-0.0839 -0.40323,-0.0995 -0.81503,-0.10222 -0.57265,-0.004 -0.88594,0.0605 -1.35829,0.27886 -0.53487,0.24721 -0.99064,0.62885 -1.31629,1.10215 -0.16749,0.24344 -0.42758,0.81502 -0.50014,1.0991 -0.1052,0.41189 -0.11626,1.03992 -0.026,1.47491 0.0941,0.45358 0.39153,1.07557 0.68815,1.43927 0.4231,0.51878 1.04524,0.91976 1.69032,1.08945 0.41591,0.10941 1.15116,0.11067 1.5545,0.003 0.56358,-0.15091 1.02354,-0.41047 1.46547,-0.82698 l 0.25507,-0.2404 0.77158,0.77157 0.77156,0.77157 -0.0919,0.0987 c -0.16309,0.17513 -0.64474,0.56175 -0.93735,0.75241 -1.03082,0.67164 -2.30755,0.98526 -3.53764,0.86899 z m -24.301264,-5.39808 0,-5.10207 1.102522,0 1.102525,0 0,5.06414 c 0,2.78528 0.0042,5.07675 0.0093,5.09217 0.0051,0.0154 -0.490994,0.0325 -1.102525,0.0379 l -1.111865,0.01 z m 15.59405,0.009 0.0095,-5.09217 1.102525,0 1.102525,0 0.0095,5.09217 0.0095,5.09217 -1.12148,0 -1.121478,0 0.0095,-5.09217 z m -14.818699,-7.43124 c -0.788599,-0.18585 -1.243836,-0.99506 -1.004,-1.78466 0.194413,-0.64008 0.903137,-1.06446 1.578865,-0.94544 0.3207,0.0565 0.540872,0.17295 0.783349,0.41435 0.41315,0.41131 0.516475,1.06263 0.251373,1.58454 -0.287267,0.56555 -0.979065,0.87982 -1.609587,0.73121 z m 15.45224,-0.0334 c -0.44375,-0.15966 -0.77598,-0.52286 -0.88949,-0.9724 -0.166118,-0.65789 0.145507,-1.31147 0.763427,-1.60114 0.187457,-0.0879 0.257696,-0.0994 0.604524,-0.0994 0.346829,0 0.417068,0.0115 0.604528,0.0994 0.803269,0.37656 1.060805,1.38503 0.535256,2.09601 -0.153755,0.208 -0.459571,0.42198 -0.711426,0.49777 -0.2513,0.0756 -0.666105,0.0664 -0.906819,-0.0202 z"
       id="path3124"
       inkscape:connector-curvature="0"
       sodipodi:nodetypes="sssssscscssssssscccccsscscssscscssscscccsscsscscssssscssscsscsccccsccccccscsccccccccccccsssssscssscsccc" />
    <g
       id="g3167"
       transform="matrix(0.55078126,0,0,0.55078126,252.05313,341.26536)">
      <path
         sodipodi:nodetypes="cccccccc"
         inkscape:connector-curvature="0"
         id="rect3143"
         d="m 182.9808,895.18359 -16.23527,10.02519 2.07827,10.77595 14.157,-6.51396 0,46.11882 12.98449,0 0,-60.406 z"
         style="opacity:0.8;color:#000000;fill:#ffffff;fill-opacity:1;fill-rule:nonzero;stroke:none;stroke-width:1;marker:none;visibility:visible;display:inline;overflow:visible;enable-background:accumulate" />
      <path
         id="path3148"
         d="m 237.0519,927.73941 a 7.0735545,7.0735545 0 0 0 4.01701,-6.36379 c 0,-3.90827 -3.20756,-7.07654 -7.15812,-7.07654 -3.9566,0 -7.16719,3.16827 -7.16719,7.07654 a 7.0675139,7.0675139 0 0 0 4.02305,6.36077 v 8.74076 h 6.28525 v -8.73774 m -3.14111,20.29947 c -12.643,0 -22.92412,-10.16031 -22.92412,-22.65229 0,-12.49198 10.28112,-22.65229 22.92412,-22.65229 10.31434,0 19.05812,6.76549 21.92741,16.04386 h 7.90112 c -3.05051,-13.50076 -15.2465,-23.59462 -29.83155,-23.59462 -16.88049,0 -30.56549,13.5219 -30.56549,30.20305 0,16.68115 13.685,30.20305 30.56549,30.20305 14.58505,0 26.78104,-10.09386 29.83155,-23.59462 h -7.90414 c -2.86929,9.27837 -11.61307,16.04386 -21.92741,16.04386"
         inkscape:connector-curvature="0"
         style="opacity:0.8;color:#000000;fill:#ffffff;fill-opacity:1;fill-rule:nonzero;stroke:none;stroke-width:1;marker:none;visibility:visible;display:inline;overflow:visible;enable-background:accumulate" />
    </g>
  </g>
</svg>
