<?xml version="1.0" encoding="UTF-8" standalone="no"?>
<!-- Created with Inkscape (http://www.inkscape.org/) -->

<svg
   xmlns:dc="http://purl.org/dc/elements/1.1/"
   xmlns:cc="http://creativecommons.org/ns#"
   xmlns:rdf="http://www.w3.org/1999/02/22-rdf-syntax-ns#"
   xmlns:svg="http://www.w3.org/2000/svg"
   xmlns="http://www.w3.org/2000/svg"
   xmlns:xlink="http://www.w3.org/1999/xlink"
   xmlns:sodipodi="http://sodipodi.sourceforge.net/DTD/sodipodi-0.dtd"
   xmlns:inkscape="http://www.inkscape.org/namespaces/inkscape"
   width="460.62991"
   height="283.46457"
   id="svg2"
   version="1.1"
   inkscape:version="0.48.5 r10040"
   sodipodi:docname="dash.svg"
   inkscape:export-filename="/home/mammique/Documents/daat/banknote/cryptos/dash.png"
   inkscape:export-xdpi="156.31"
   inkscape:export-ydpi="156.31">
  <defs
     id="defs4">
    <linearGradient
       id="linearGradient4925">
      <stop
         style="stop-color:#bd9800;stop-opacity:1;"
         offset="0"
         id="stop4927" />
      <stop
         id="stop3784"
         offset="0.51732481"
         style="stop-color:#ffcc04;stop-opacity:1;" />
      <stop
         offset="1"
         id="stop4929"
         style="stop-color:#a98500;stop-opacity:1;" />
    </linearGradient>
    <linearGradient
       id="linearGradient4835">
      <stop
         style="stop-color:#000000;stop-opacity:0.61572052"
         offset="0"
         id="stop4837" />
      <stop
         style="stop-color:#000000;stop-opacity:0;"
         offset="1"
         id="stop4839" />
    </linearGradient>
    <linearGradient
       inkscape:collect="always"
       id="linearGradient4531">
      <stop
         style="stop-color:#ffffff;stop-opacity:1;"
         offset="0"
         id="stop4533" />
      <stop
         style="stop-color:#ffffff;stop-opacity:0;"
         offset="1"
         id="stop4535" />
    </linearGradient>
    <clipPath
       clipPathUnits="userSpaceOnUse"
       id="clipPath5978">
      <rect
         style="color:#000000;fill:#cccccc;fill-opacity:1;fill-rule:nonzero;stroke:#003a00;stroke-width:0.89999998;stroke-linecap:butt;stroke-linejoin:miter;stroke-miterlimit:4;stroke-opacity:1;stroke-dasharray:none;stroke-dashoffset:0;marker:none;visibility:visible;display:inline;overflow:visible;enable-background:accumulate"
         id="rect5980"
         width="173.74623"
         height="1608.1628"
         x="610.13214"
         y="-378.01382"
         transform="matrix(0,-1,1,0,0,0)" />
    </clipPath>
    <inkscape:perspective
       id="perspective2497"
       inkscape:persp3d-origin="372.04724 : 350.78739 : 1"
       inkscape:vp_z="744.09448 : 526.18109 : 1"
       inkscape:vp_y="0 : 1000 : 0"
       inkscape:vp_x="0 : 526.18109 : 1"
       sodipodi:type="inkscape:persp3d" />
    <linearGradient
       inkscape:collect="always"
       xlink:href="#linearGradient4531"
       id="linearGradient4823"
       gradientUnits="userSpaceOnUse"
       x1="182.81697"
       y1="175.83376"
       x2="183.58928"
       y2="-16.309107"
       gradientTransform="translate(53.033008,825.69937)" />
    <radialGradient
       inkscape:collect="always"
       xlink:href="#linearGradient4835"
       id="radialGradient4845"
       cx="7.3256431"
       cy="198.2952"
       fx="7.3256431"
       fy="198.2952"
       r="109.27257"
       gradientTransform="matrix(0.19829552,0.15553474,-0.16582027,0.21140881,93.302602,945.5672)"
       gradientUnits="userSpaceOnUse" />
    <linearGradient
       inkscape:collect="always"
       xlink:href="#linearGradient4925"
       id="linearGradient4931"
       x1="180.59314"
       y1="166.12685"
       x2="180.76199"
       y2="19.746481"
       gradientUnits="userSpaceOnUse"
       gradientTransform="translate(54.548237,825.69937)" />
    <linearGradient
       id="linearGradient4925-6">
      <stop
         style="stop-color:#bd9800;stop-opacity:1;"
         offset="0"
         id="stop4927-7" />
      <stop
         id="stop3784-5"
         offset="0.5"
         style="stop-color:#ffcc04;stop-opacity:1;" />
      <stop
         offset="1"
         id="stop4929-3"
         style="stop-color:#a98500;stop-opacity:1;" />
    </linearGradient>
    <linearGradient
       gradientTransform="translate(-17.649337,-11.359598)"
       y2="38.317909"
       x2="313.61914"
       y1="142.8687"
       x1="50.479298"
       gradientUnits="userSpaceOnUse"
       id="linearGradient3802"
       xlink:href="#linearGradient4925-6"
       inkscape:collect="always" />
    <linearGradient
       id="linearGradient4925-2">
      <stop
         style="stop-color:#bd9800;stop-opacity:1;"
         offset="0"
         id="stop4927-3" />
      <stop
         id="stop3784-7"
         offset="0.38554054"
         style="stop-color:#ffcc04;stop-opacity:1;" />
      <stop
         offset="1"
         id="stop4929-5"
         style="stop-color:#a98500;stop-opacity:1;" />
    </linearGradient>
    <linearGradient
       y2="38.317909"
       x2="313.61914"
       y1="83.269699"
       x1="19.16457"
       gradientTransform="translate(-17.649337,-11.359581)"
       gradientUnits="userSpaceOnUse"
       id="linearGradient4077"
       xlink:href="#linearGradient4925-2"
       inkscape:collect="always" />
    <linearGradient
       inkscape:collect="always"
       xlink:href="#linearGradient4925-28"
       id="linearGradient4931-2"
       x1="180.59314"
       y1="166.12685"
       x2="180.76199"
       y2="19.746481"
       gradientUnits="userSpaceOnUse"
       gradientTransform="translate(54.548237,825.69937)" />
    <linearGradient
       id="linearGradient4925-28">
      <stop
         style="stop-color:#bd9800;stop-opacity:1;"
         offset="0"
         id="stop4927-9" />
      <stop
         id="stop3784-73"
         offset="0.51732481"
         style="stop-color:#ffcc04;stop-opacity:1;" />
      <stop
         offset="1"
         id="stop4929-6"
         style="stop-color:#a98500;stop-opacity:1;" />
    </linearGradient>
    <linearGradient
       y2="19.746481"
       x2="180.76199"
       y1="166.12685"
       x1="180.59314"
       gradientTransform="translate(-17.649337,-11.359581)"
       gradientUnits="userSpaceOnUse"
       id="linearGradient4113"
       xlink:href="#linearGradient4925-28"
       inkscape:collect="always" />
  </defs>
  <sodipodi:namedview
     id="base"
     pagecolor="#000000"
     bordercolor="#666666"
     borderopacity="1.0"
     inkscape:pageopacity="1"
     inkscape:pageshadow="2"
     inkscape:zoom="0.9899495"
     inkscape:cx="144.64859"
     inkscape:cy="69.324698"
     inkscape:document-units="px"
     inkscape:current-layer="layer1"
     showgrid="false"
     units="mm"
     inkscape:window-width="1364"
     inkscape:window-height="747"
     inkscape:window-x="0"
     inkscape:window-y="19"
     inkscape:window-maximized="1" />
  <metadata
     id="metadata7">
    <rdf:RDF>
      <cc:Work
         rdf:about="">
        <dc:format>image/svg+xml</dc:format>
        <dc:type
           rdf:resource="http://purl.org/dc/dcmitype/StillImage" />
        <dc:title />
      </cc:Work>
    </rdf:RDF>
  </metadata>
  <g
     inkscape:label="Calque 1"
     inkscape:groupmode="layer"
     id="layer1"
     transform="translate(0,-768.89763)">
    <g
       transform="matrix(0.30740519,0,0,0.30740519,162.87076,772.59031)"
       id="layer1-2"
       inkscape:label="Layer 1"
       style="opacity:0.8;color:#000000;fill:#ffffff;fill-opacity:1;fill-rule:nonzero;stroke:none;marker:none;visibility:visible;display:inline;overflow:visible;enable-background:accumulate">
      <g
         transform="translate(0.264585,-0.26458596)"
         id="g6248"
         style="color:#000000;fill:#ffffff;fill-opacity:1;fill-rule:nonzero;stroke:none;marker:none;visibility:visible;display:inline;overflow:visible;enable-background:accumulate">
        <polygon
           points="811.07,195.706 797.398,237.396 724.185,237.396 737.856,195.706 698.892,195.706 663.361,303.78 702.332,303.78 715.981,262.094 789.195,262.094 775.541,303.78 814.488,303.78 850,195.706 "
           id="H_1_"
           style="color:#000000;fill:#ffffff;fill-opacity:1;fill-rule:nonzero;stroke:none;marker:none;visibility:visible;display:inline;overflow:visible;enable-background:accumulate"
           transform="matrix(0.26458333,0,0,0.26458333,-347.73809,149.27931)" />
        <path
           d="m -174.03675,214.26309 c -0.52414,-0.70564 -1.07104,-1.24857 -1.80525,-1.61898 -0.72682,-0.37042 -1.6129,-0.55166 -2.53551,-0.55166 h -22.60838 l 1.26603,-3.96108 h 29.6807 l 2.34923,-7.07178 h -32.91602 c -0.9226,0 -1.98437,0.18653 -2.9083,0.56012 -1.06362,0.36169 -1.97511,0.90435 -2.87073,1.62798 -0.75062,0.70538 -1.63036,1.44701 -2.19762,2.35136 -0.71914,0.90434 -1.24778,1.97141 -1.60946,2.89533 l -0.89562,2.70457 c -0.21087,1.07448 -0.38894,1.99576 -0.37042,2.90063 0.16246,0.90435 0.36169,1.78991 0.73078,2.35135 0.517,0.72364 1.07395,1.26524 1.80155,1.62798 0.72337,0.3683 1.61713,0.70538 2.53206,0.70538 h 22.60891 l -1.26656,3.7981 h -29.68069 l -2.33918,7.07178 h 32.9057 c 0.9226,0 1.98966,-0.18574 2.91253,-0.56012 1.06654,-0.36169 1.97088,-0.90435 2.87152,-1.62798 0.7456,-0.70538 1.63169,-1.44701 2.19287,-2.35136 0.72311,-0.90434 1.25227,-1.97141 1.6092,-2.8956 l 0.90196,-2.7043 c 0.35772,-1.07448 0.38232,-1.99417 0.36407,-2.90063 -0.16219,-0.90408 -0.35481,-1.78303 -0.72337,-2.35109 z"
           id="S_1_"
           inkscape:connector-curvature="0"
           style="color:#000000;fill:#ffffff;fill-opacity:1;fill-rule:nonzero;stroke:none;stroke-width:0.26458332;marker:none;visibility:visible;display:inline;overflow:visible;enable-background:accumulate" />
        <path
           d="m -214.55108,205.41834 c -0.16245,-0.90435 -0.36168,-1.62772 -0.8837,-2.1897 -0.37333,-0.71358 -0.92499,-1.24671 -1.64836,-1.61342 -0.72337,-0.37307 -1.60946,-0.55536 -2.53206,-0.55536 h -25.84582 c -0.9226,0 -1.98967,0.18653 -2.91227,0.56012 -1.0668,0.36168 -1.97115,0.90434 -2.87549,1.62798 -0.74692,0.70538 -1.62772,1.44701 -2.19631,2.35135 -0.71596,0.90435 -1.2573,1.97141 -1.60946,2.89534 l -6.88393,21.15978 h 10.30949 l 7.05379,-21.52306 h 19.53207 l -2.15318,6.31217 h -13.74325 l -2.17038,6.69237 h 13.73982 l -2.72521,8.51826 h 10.14703 l 7.05089,-21.36008 c 0.34633,-1.06706 0.36644,-1.97141 0.34633,-2.87575 z"
           id="A_1_"
           inkscape:connector-curvature="0"
           style="color:#000000;fill:#ffffff;fill-opacity:1;fill-rule:nonzero;stroke:none;stroke-width:0.26458332;marker:none;visibility:visible;display:inline;overflow:visible;enable-background:accumulate" />
        <path
           d="m -259.56755,205.59931 c -0.0196,-0.90434 -0.35771,-1.64597 -0.72469,-2.35135 -0.38021,-0.72364 -0.92737,-1.2663 -1.80658,-1.62798 -0.72548,-0.37359 -1.46738,-0.56012 -2.531,-0.56012 h -32.92105 l -2.35135,7.07178 h 29.82489 l -4.70297,14.45128 h -2.17011 -17.33947 -10.31451 l -2.35135,7.07178 h 33.08032 c 0.90435,0 1.82695,-0.19103 2.89401,-0.56012 0.92684,-0.52467 1.98967,-1.0676 2.89349,-1.78541 0.74559,-0.56621 1.62824,-1.4523 2.34473,-2.35665 0.5678,-0.90434 1.10252,-1.80975 1.45389,-2.73288 l 4.35927,-13.72446 c 0.36116,-0.92446 0.52811,-1.99152 0.36248,-2.89587 z"
           id="D_4_"
           inkscape:connector-curvature="0"
           style="color:#000000;fill:#ffffff;fill-opacity:1;fill-rule:nonzero;stroke:none;stroke-width:0.26458332;marker:none;visibility:visible;display:inline;overflow:visible;enable-background:accumulate" />
        <polygon
           points="225.23,237.396 158.852,237.396 150,262.094 216.956,262.094 "
           id="_x2D__4_"
           style="color:#000000;fill:#ffffff;fill-opacity:1;fill-rule:nonzero;stroke:none;marker:none;visibility:visible;display:inline;overflow:visible;enable-background:accumulate"
           transform="matrix(0.26458333,0,0,0.26458333,-347.73809,149.27931)" />
      </g>
    </g>
    <path
       style="color:#000000;fill:#2075bc;fill-opacity:1;fill-rule:nonzero;stroke:none;stroke-width:0.99999988;marker:none;visibility:visible;display:inline;overflow:visible;enable-background:accumulate"
       d="m 136.1885,880.4812 c -16.94005,0 -30.6705,13.73047 -30.6705,30.67046 0,16.94012 13.73045,30.67054 30.6705,30.67054 16.94004,0 30.6705,-13.73042 30.6705,-30.67054 0,-16.93999 -13.73046,-30.67046 -30.6705,-30.67046 z m -13.10844,17.58508 30.12719,0 c 0.97331,0 1.65479,0.17084 2.31866,0.51262 0.80454,0.33106 1.30499,0.83004 1.65291,1.49225 0.33581,0.6455 0.6478,1.32279 0.66576,2.15032 0.15155,0.82753 -0.006,1.80941 -0.33671,2.65537 L 153.521,917.4343 c -0.32153,0.84477 -0.81191,1.66708 -1.33149,2.49462 -0.65565,0.82762 -1.46804,1.63986 -2.15031,2.15801 -0.82707,0.65679 -1.79957,1.1574 -2.6477,1.6376 -0.97646,0.33767 -1.82016,0.51262 -2.6477,0.51262 l -30.26493,0 2.15029,-6.46616 9.43531,0 15.87092,0 1.98195,0 4.30826,-13.23084 -27.29583,0 2.15029,-6.47387 z m -3.69606,10.10103 16.06988,0 -2.00491,5.97652 -16.20762,0 2.14265,-5.97652 z"
       id="path3893"
       inkscape:connector-curvature="0" />
    <g
       id="g3053"
       transform="translate(0,0.26897541)">
      <g
         id="flowRoot4700"
         style="font-size:198.09799194px;font-style:normal;font-variant:normal;font-weight:bold;font-stretch:normal;text-align:start;line-height:125%;letter-spacing:0px;word-spacing:0px;writing-mode:lr-tb;text-anchor:start;opacity:0.8;color:#000000;fill:#ffffff;fill-opacity:1;fill-rule:nonzero;stroke:none;visibility:visible;display:inline;overflow:visible;enable-background:accumulate;font-family:Century Schoolbook L;-inkscape-font-specification:'Century Schoolbook L, Bold'"
         transform="matrix(0.21013763,0,-0.07922574,0.21013763,365.20021,795.94523)">
        <path
           id="path3028"
           d="m 68.744355,181.31703 -6.93343,0 c -12.282063,9.31059 -26.743252,13.27256 -50.118792,13.66876 l 0,11.09348 8.320116,0 c 17.630704,0.1981 17.630721,0.19812 17.630721,16.64024 l 0,70.32478 c 0,12.28207 -10e-7,13.27257 -1.386686,14.85735 -1.78288,2.17908 -5.94295,2.97147 -16.442133,2.97147 l -6.339136,0 0,10.69729 79.041099,0 0,-10.69729 -6.339136,0 c -10.102987,0 -14.461155,-0.79239 -16.045937,-2.97147 -1.386685,-1.58478 -1.386686,-2.37719 -1.386686,-14.85735 l 0,-111.72726"
           inkscape:connector-curvature="0" />
      </g>
      <path
         sodipodi:nodetypes="csccccccccsccccccccccccc"
         style="opacity:0.8;color:#000000;fill:#ffffff;fill-opacity:1;fill-rule:nonzero;stroke:none;stroke-width:0.99999988;marker:none;visibility:visible;display:inline;overflow:visible;enable-background:accumulate"
         d="m 371.16689,839.20135 22.62336,0 c 0.73089,0 1.24263,0.12829 1.74115,0.38495 0.60416,0.2486 0.97996,0.62329 1.24121,1.12056 0.25218,0.48473 0.48646,0.99333 0.49994,1.61474 0.11381,0.62141 -0.005,1.35873 -0.25284,1.99399 l -2.99385,9.42976 c -0.24145,0.63435 -0.6097,1.25185 -0.99986,1.87327 -0.49235,0.62149 -1.10239,1.23142 -1.61473,1.62052 -0.62107,0.4932 -1.35135,0.86912 -1.98824,1.22971 -0.73325,0.25357 -1.36679,0.38495 -1.98822,0.38495 l -22.72682,0 1.61473,-4.85562 7.08525,0 11.91792,0 1.48831,0 3.23519,-9.93542 -20.49723,0 z m -2.77549,7.58516 12.06733,0 -1.50553,4.48793 -12.17077,0 z"
         id="path3983"
         inkscape:connector-curvature="0" />
    </g>
  </g>
</svg>
