<?xml version="1.0" encoding="UTF-8" standalone="no"?>
<!-- Created with Inkscape (http://www.inkscape.org/) -->

<svg
   xmlns:dc="http://purl.org/dc/elements/1.1/"
   xmlns:cc="http://creativecommons.org/ns#"
   xmlns:rdf="http://www.w3.org/1999/02/22-rdf-syntax-ns#"
   xmlns:svg="http://www.w3.org/2000/svg"
   xmlns="http://www.w3.org/2000/svg"
   xmlns:xlink="http://www.w3.org/1999/xlink"
   xmlns:sodipodi="http://sodipodi.sourceforge.net/DTD/sodipodi-0.dtd"
   xmlns:inkscape="http://www.inkscape.org/namespaces/inkscape"
   width="460.62991"
   height="283.46457"
   id="svg2"
   version="1.1"
   inkscape:version="0.48.5 r10040"
   sodipodi:docname="banknote_bg_template.svg"
   inkscape:export-filename="/home/mammique/Documents/daat/banknote/cryptos/dash.png"
   inkscape:export-xdpi="156.31"
   inkscape:export-ydpi="156.31">
  <defs
     id="defs4">
    <linearGradient
       id="linearGradient4925">
      <stop
         style="stop-color:#bd9800;stop-opacity:1;"
         offset="0"
         id="stop4927" />
      <stop
         id="stop3784"
         offset="0.51732481"
         style="stop-color:#ffcc04;stop-opacity:1;" />
      <stop
         offset="1"
         id="stop4929"
         style="stop-color:#a98500;stop-opacity:1;" />
    </linearGradient>
    <linearGradient
       id="linearGradient4835">
      <stop
         style="stop-color:#000000;stop-opacity:0.61572052"
         offset="0"
         id="stop4837" />
      <stop
         style="stop-color:#000000;stop-opacity:0;"
         offset="1"
         id="stop4839" />
    </linearGradient>
    <linearGradient
       inkscape:collect="always"
       id="linearGradient4531">
      <stop
         style="stop-color:#ffffff;stop-opacity:1;"
         offset="0"
         id="stop4533" />
      <stop
         style="stop-color:#ffffff;stop-opacity:0;"
         offset="1"
         id="stop4535" />
    </linearGradient>
    <clipPath
       clipPathUnits="userSpaceOnUse"
       id="clipPath5978">
      <rect
         style="color:#000000;fill:#cccccc;fill-opacity:1;fill-rule:nonzero;stroke:#003a00;stroke-width:0.89999998;stroke-linecap:butt;stroke-linejoin:miter;stroke-miterlimit:4;stroke-opacity:1;stroke-dasharray:none;stroke-dashoffset:0;marker:none;visibility:visible;display:inline;overflow:visible;enable-background:accumulate"
         id="rect5980"
         width="173.74623"
         height="1608.1628"
         x="610.13214"
         y="-378.01382"
         transform="matrix(0,-1,1,0,0,0)" />
    </clipPath>
    <inkscape:perspective
       id="perspective2497"
       inkscape:persp3d-origin="372.04724 : 350.78739 : 1"
       inkscape:vp_z="744.09448 : 526.18109 : 1"
       inkscape:vp_y="0 : 1000 : 0"
       inkscape:vp_x="0 : 526.18109 : 1"
       sodipodi:type="inkscape:persp3d" />
    <linearGradient
       inkscape:collect="always"
       xlink:href="#linearGradient4531"
       id="linearGradient4823"
       gradientUnits="userSpaceOnUse"
       x1="182.81697"
       y1="175.83376"
       x2="183.58928"
       y2="-16.309107"
       gradientTransform="translate(53.033008,825.69937)" />
    <radialGradient
       inkscape:collect="always"
       xlink:href="#linearGradient4835"
       id="radialGradient4845"
       cx="7.3256431"
       cy="198.2952"
       fx="7.3256431"
       fy="198.2952"
       r="109.27257"
       gradientTransform="matrix(0.19829552,0.15553474,-0.16582027,0.21140881,93.302602,945.5672)"
       gradientUnits="userSpaceOnUse" />
    <linearGradient
       id="linearGradient4925-6">
      <stop
         style="stop-color:#bd9800;stop-opacity:1;"
         offset="0"
         id="stop4927-7" />
      <stop
         id="stop3784-5"
         offset="0.5"
         style="stop-color:#ffcc04;stop-opacity:1;" />
      <stop
         offset="1"
         id="stop4929-3"
         style="stop-color:#a98500;stop-opacity:1;" />
    </linearGradient>
    <linearGradient
       gradientTransform="translate(-17.649337,-11.359598)"
       y2="38.317909"
       x2="313.61914"
       y1="142.8687"
       x1="50.479298"
       gradientUnits="userSpaceOnUse"
       id="linearGradient3802"
       xlink:href="#linearGradient4925-6"
       inkscape:collect="always" />
    <linearGradient
       id="linearGradient4925-2">
      <stop
         style="stop-color:#bd9800;stop-opacity:1;"
         offset="0"
         id="stop4927-3" />
      <stop
         id="stop3784-7"
         offset="0.38554054"
         style="stop-color:#ffcc04;stop-opacity:1;" />
      <stop
         offset="1"
         id="stop4929-5"
         style="stop-color:#a98500;stop-opacity:1;" />
    </linearGradient>
    <linearGradient
       y2="38.317909"
       x2="313.61914"
       y1="83.269699"
       x1="19.16457"
       gradientTransform="translate(-17.649337,-11.359581)"
       gradientUnits="userSpaceOnUse"
       id="linearGradient4077"
       xlink:href="#linearGradient4925-2"
       inkscape:collect="always" />
    <linearGradient
       id="linearGradient4925-28">
      <stop
         style="stop-color:#bd9800;stop-opacity:1;"
         offset="0"
         id="stop4927-9" />
      <stop
         id="stop3784-73"
         offset="0.51732481"
         style="stop-color:#ffcc04;stop-opacity:1;" />
      <stop
         offset="1"
         id="stop4929-6"
         style="stop-color:#a98500;stop-opacity:1;" />
    </linearGradient>
    <linearGradient
       y2="19.746481"
       x2="180.76199"
       y1="166.12685"
       x1="180.59314"
       gradientTransform="translate(-17.649337,-11.359581)"
       gradientUnits="userSpaceOnUse"
       id="linearGradient4113"
       xlink:href="#linearGradient4925-28"
       inkscape:collect="always" />
    <linearGradient
       id="linearGradient4925-7">
      <stop
         style="stop-color:#bd9800;stop-opacity:1;"
         offset="0"
         id="stop4927-5" />
      <stop
         id="stop3784-3"
         offset="0.51732481"
         style="stop-color:#ffcc04;stop-opacity:1;" />
      <stop
         offset="1"
         id="stop4929-56"
         style="stop-color:#a98500;stop-opacity:1;" />
    </linearGradient>
    <linearGradient
       y2="19.746481"
       x2="180.76199"
       y1="166.12685"
       x1="180.59314"
       gradientTransform="translate(-17.649337,-11.359581)"
       gradientUnits="userSpaceOnUse"
       id="linearGradient3327"
       xlink:href="#linearGradient4925-7"
       inkscape:collect="always" />
    <linearGradient
       id="linearGradient4925-7-1">
      <stop
         style="stop-color:#bd9800;stop-opacity:1;"
         offset="0"
         id="stop4927-5-2" />
      <stop
         id="stop3784-3-7"
         offset="0.51732481"
         style="stop-color:#ffcc04;stop-opacity:1;" />
      <stop
         offset="1"
         id="stop4929-56-0"
         style="stop-color:#a98500;stop-opacity:1;" />
    </linearGradient>
    <linearGradient
       y2="19.032196"
       x2="138.61914"
       y1="166.12685"
       x1="180.59314"
       gradientTransform="translate(-17.649337,-7.9568844)"
       gradientUnits="userSpaceOnUse"
       id="linearGradient3455"
       xlink:href="#linearGradient4925-7-1"
       inkscape:collect="always" />
    <linearGradient
       inkscape:collect="always"
       xlink:href="#linearGradient4925-7-6"
       id="linearGradient3350-3"
       gradientUnits="userSpaceOnUse"
       gradientTransform="translate(54.548237,823.78353)"
       x1="180.59314"
       y1="166.12685"
       x2="138.61914"
       y2="19.032196" />
    <linearGradient
       id="linearGradient4925-7-6">
      <stop
         style="stop-color:#bd9800;stop-opacity:1;"
         offset="0"
         id="stop4927-5-0" />
      <stop
         id="stop3784-3-6"
         offset="0.51732481"
         style="stop-color:#ffcc04;stop-opacity:1;" />
      <stop
         offset="1"
         id="stop4929-56-2"
         style="stop-color:#a98500;stop-opacity:1;" />
    </linearGradient>
    <linearGradient
       y2="19.032196"
       x2="138.61914"
       y1="166.12685"
       x1="180.59314"
       gradientTransform="translate(-17.649337,-7.9568844)"
       gradientUnits="userSpaceOnUse"
       id="linearGradient3491"
       xlink:href="#linearGradient4925-7-6"
       inkscape:collect="always" />
    <linearGradient
       id="linearGradient4835-7">
      <stop
         style="stop-color:#000000;stop-opacity:0.61572052"
         offset="0"
         id="stop4837-5" />
      <stop
         style="stop-color:#000000;stop-opacity:0;"
         offset="1"
         id="stop4839-9" />
    </linearGradient>
    <radialGradient
       r="109.27257"
       fy="198.2952"
       fx="7.3256431"
       cy="198.2952"
       cx="7.3256431"
       gradientTransform="matrix(0.19829552,0.15553474,-0.16582027,0.21140881,132.487,52.51516)"
       gradientUnits="userSpaceOnUse"
       id="radialGradient3545"
       xlink:href="#linearGradient4835-7"
       inkscape:collect="always" />
    <linearGradient
       id="linearGradient4835-8">
      <stop
         style="stop-color:#000000;stop-opacity:0.61572052"
         offset="0"
         id="stop4837-9" />
      <stop
         style="stop-color:#000000;stop-opacity:0;"
         offset="1"
         id="stop4839-7" />
    </linearGradient>
    <radialGradient
       r="109.27257"
       fy="198.2952"
       fx="7.3256431"
       cy="198.2952"
       cx="7.3256431"
       gradientTransform="matrix(0.19829552,0.15553474,-0.16582027,0.21140881,132.487,52.51516)"
       gradientUnits="userSpaceOnUse"
       id="radialGradient3578"
       xlink:href="#linearGradient4835-8"
       inkscape:collect="always" />
    <linearGradient
       inkscape:collect="always"
       xlink:href="#linearGradient4925-7-6-1"
       id="linearGradient3350-3-6"
       gradientUnits="userSpaceOnUse"
       gradientTransform="translate(54.548237,823.78353)"
       x1="180.59314"
       y1="166.12685"
       x2="138.61914"
       y2="19.032196" />
    <linearGradient
       id="linearGradient4925-7-6-1">
      <stop
         style="stop-color:#bd9800;stop-opacity:1;"
         offset="0"
         id="stop4927-5-0-2" />
      <stop
         id="stop3784-3-6-9"
         offset="0.51732481"
         style="stop-color:#ffcc04;stop-opacity:1;" />
      <stop
         offset="1"
         id="stop4929-56-2-3"
         style="stop-color:#a98500;stop-opacity:1;" />
    </linearGradient>
    <linearGradient
       y2="19.032196"
       x2="138.61914"
       y1="166.12685"
       x1="180.59314"
       gradientTransform="translate(-17.649337,-14.676051)"
       gradientUnits="userSpaceOnUse"
       id="linearGradient3612"
       xlink:href="#linearGradient4925-7-6-1"
       inkscape:collect="always" />
    <linearGradient
       inkscape:collect="always"
       xlink:href="#_Pad__1_"
       id="linearGradient3061"
       gradientUnits="userSpaceOnUse"
       gradientTransform="translate(7603.2002,-872.83)"
       x1="-7558.0513"
       y1="912.33508"
       x2="-7500.7217"
       y2="912.33508" />
    <linearGradient
       id="_Pad__1_"
       gradientUnits="userSpaceOnUse"
       x1="-7558.0513"
       y1="912.33508"
       x2="-7500.7217"
       y2="912.33508"
       gradientTransform="translate(7603.2002,-872.83)">
      <stop
         offset="0"
         style="stop-color:#62D0C9"
         id="stop10" />
      <stop
         offset="1"
         style="stop-color:#7DE2AC"
         id="stop12" />
    </linearGradient>
    <linearGradient
       id="_Pad_3_1_"
       gradientUnits="userSpaceOnUse"
       x1="-7603.021"
       y1="912.38062"
       x2="-7545.6909"
       y2="912.38062"
       gradientTransform="translate(7603.2002,-872.83)">
      <stop
         offset="0"
         style="stop-color:#3268FB"
         id="stop17" />
      <stop
         offset="1"
         style="stop-color:#4795FA"
         id="stop19" />
    </linearGradient>
    <linearGradient
       inkscape:collect="always"
       xlink:href="#_Pad__1_"
       id="linearGradient3137"
       gradientUnits="userSpaceOnUse"
       gradientTransform="translate(7452.6645,-108.63897)"
       x1="-7558.0513"
       y1="912.33508"
       x2="-7500.7217"
       y2="912.33508" />
    <linearGradient
       inkscape:collect="always"
       xlink:href="#_Pad_3_1_"
       id="linearGradient3139"
       gradientUnits="userSpaceOnUse"
       gradientTransform="translate(7452.6645,-108.63897)"
       x1="-7603.021"
       y1="912.38062"
       x2="-7545.6909"
       y2="912.38062" />
  </defs>
  <sodipodi:namedview
     id="base"
     pagecolor="#5271a5"
     bordercolor="#666666"
     borderopacity="1.0"
     inkscape:pageopacity="1"
     inkscape:pageshadow="2"
     inkscape:zoom="1.979899"
     inkscape:cx="227.77594"
     inkscape:cy="168.69614"
     inkscape:document-units="px"
     inkscape:current-layer="layer1"
     showgrid="false"
     units="mm"
     inkscape:window-width="1918"
     inkscape:window-height="1059"
     inkscape:window-x="1366"
     inkscape:window-y="19"
     inkscape:window-maximized="1"
     showguides="true"
     inkscape:guide-bbox="true" />
  <metadata
     id="metadata7">
    <rdf:RDF>
      <cc:Work
         rdf:about="">
        <dc:format>image/svg+xml</dc:format>
        <dc:type
           rdf:resource="http://purl.org/dc/dcmitype/StillImage" />
        <dc:title></dc:title>
      </cc:Work>
    </rdf:RDF>
  </metadata>
  <g
     inkscape:label="Calque 1"
     inkscape:groupmode="layer"
     id="layer1"
     transform="translate(0,-768.89763)">
    <g
       id="g3132"
       transform="matrix(0.54824215,0,0,0.54824215,191.5142,470.47978)">
      <path
         inkscape:connector-curvature="0"
         style="fill:url(#linearGradient3137)"
         d="m -105.43572,813.29103 h 25.300004 c 9.4,0 17.1,-7.6 17.1,-17.1 0,-9.5 -7.6,-17 -17,-17 h -8.1 l -17.300004,-15 h 25.300004 c 17.7,-0.1 32.100003,14.2 32.100003,31.9 0.1,13.1 -7.900003,24.9 -20.100003,29.8 l 20.000003,17.3 h -22.800003 l -34.500004,-29.9 z"
         class="st0"
         id="_Pad_" />
      <path
         style="fill:#4971fa"
         inkscape:connector-curvature="0"
         d="m -93.035716,794.19103 h -25.300004 c -9.4,0 -17.1,7.6 -17.1,17.1 0,9.5 7.6,17.1 17.1,17.1 h 8.1 l 17.200004,15 h -25.300004 c -17.7,0 -32.1,-14.3 -32.2,-31.9 -0.1,-13.2 7.9,-25 20.1,-29.9 l -20,-17.4 h 22.9 l 34.500004,30 z"
         class="st1"
         id="_Pad_2" />
      <path
         inkscape:connector-curvature="0"
         style="fill:url(#linearGradient3139)"
         d="m -93.035716,794.19103 h -25.300004 c -9.4,0 -17.1,7.6 -17.1,17.1 0,9.5 7.6,17.1 17.1,17.1 h 8.1 l 17.200004,15 h -25.300004 c -17.7,0 -32.1,-14.3 -32.2,-31.9 -0.1,-13.2 7.9,-25 20.1,-29.9 l -20,-17.4 h 22.9 l 34.500004,30 z"
         class="st2"
         id="_Pad_3" />
    </g>
    <g
       id="g3482"
       transform="matrix(0.12869499,0,0,0.12869499,64.156833,733.68409)"
       style="fill:#ffffff;opacity:0.8">
      <path
         d="m 167.62183,832.85127 v -0.17 c 0,-17.64 13.57,-31.47 31.9,-31.47 12.36,0 20.32,5.19 25.68,12.62 l -12.62,9.77 c -3.46,-4.32 -7.43,-7.09 -13.22,-7.09 -8.47,0 -14.44,7.18 -14.44,16 v 0.17 c 0,9.07 6,16.16 14.44,16.16 6.31,0 10,-2.94 13.66,-7.35 l 12.62,9 c -5.71,7.87 -13.4,13.66 -26.8,13.66 -17.3,0 -31.22,-13.23 -31.22,-31.3 z"
         class="cls-3"
         data-name="&lt;Compound Path&gt;"
         id="_Compound_Path_"
         inkscape:connector-curvature="0"
         style="fill:#ffffff" />
      <path
         d="m 231.61183,801.98127 h 28.8 c 9.31,0 15.76,2.44 19.85,6.62 3.57,3.48 5.4,8.18 5.4,14.19 v 0.17 c 0,9.31 -5,15.5 -12.54,18.72 l 14.54,21.24 h -19.5 l -12.26,-18.45 h -7.4 v 18.46 h -16.89 z m 28,29.25 c 5.75,0 9.05,-2.79 9.05,-7.23 v -0.17 c 0,-4.79 -3.48,-7.23 -9.14,-7.23 h -11.02 v 14.62 z"
         class="cls-3"
         data-name="&lt;Compound Path&gt;"
         id="_Compound_Path_2"
         inkscape:connector-curvature="0"
         style="fill:#ffffff" />
      <path
         d="m 293.60183,801.99127 h 49 v 14.37 h -32.3 v 9.23 h 29.25 v 13.32 h -29.23 v 9.66 h 32.74 v 14.37 h -49.46 z"
         class="cls-3"
         data-name="&lt;Compound Path&gt;"
         id="_Compound_Path_3"
         inkscape:connector-curvature="0"
         style="fill:#ffffff" />
      <path
         d="m 351.90183,801.99127 h 23.51 c 21.77,0 34.39,12.54 34.39,30.12 v 0.18 c 0,17.59 -12.8,30.65 -34.74,30.65 h -23.16 z m 23.77,46 c 10.1,0 16.8,-5.57 16.8,-15.41 v -0.17 c 0,-9.75 -6.7,-15.41 -16.8,-15.41 h -6.88 v 31 z"
         class="cls-3"
         data-name="&lt;Compound Path&gt;"
         id="_Compound_Path_4"
         inkscape:connector-curvature="0"
         style="fill:#ffffff" />
      <path
         d="m 133.17183,864.08127 c -17.89,0 -30.87,-13.18 -30.87,-31.34 0,-17.93 12.62,-31.46 29.36,-31.46 9,0 16.41,3.34 21.53,9.66 4.67,5.76 7.24,13.88 7.24,22.85 0,1 -0.08,2 -0.17,3.09 h -45.49 l 0.14,0.88 c 1.63,10 8.72,16.28 18.49,16.28 6.43,0 11.46,-2.12 16.71,-7.08 l 7.21,6.4 c -6.25,7.21 -14.16,10.72 -24.15,10.72 z m -1.63,-52.76 c -8.79,0 -15.37,6.63 -16.74,16.88 l -0.11,0.86 h 33.32 l -0.09,-0.83 c -1.06,-10.43 -7.34,-16.91 -16.39,-16.91 z"
         class="cls-3"
         data-name="&lt;Compound Path&gt;"
         id="_Compound_Path_5"
         inkscape:connector-curvature="0"
         style="fill:#ffffff" />
      <path
         d="m 59.80183,864.08127 c -13.89,0 -27.95,-10.81 -27.95,-31.46 0,-20.65 14.06,-31.46 27.95,-31.46 8.25,0 15,3.47 20.49,10.6 l 1.37,1.71 v -39.38 h 12.65 v 88.84 h -12.65 v -12.08 l -1.38,1.95 c -5.39,7.59 -12.08,11.28 -20.48,11.28 z m 3.4,-52.14 c -10.93,0 -18.57,8.5 -18.57,20.68 0,12 7.81,20.68 18.57,20.68 10.76,0 18.69,-8.89 18.69,-20.68 0,-11.79 -8.03,-20.68 -18.69,-20.68 z"
         class="cls-3"
         data-name="&lt;Compound Path&gt;"
         id="_Compound_Path_6"
         inkscape:connector-curvature="0"
         style="fill:#ffffff" />
    </g>
    <g
       id="g3513"
       transform="matrix(0.85922692,0,0,0.85922692,182.71673,68.679787)">
      <g
         id="flowRoot3490"
         style="font-size:40px;font-style:normal;font-variant:normal;font-weight:bold;font-stretch:normal;line-height:125%;letter-spacing:0px;word-spacing:0px;opacity:0.8;fill:#ffffff;fill-opacity:1;stroke:none;font-family:Sans;-inkscape-font-specification:Sans Bold"
         transform="translate(19.596449,852.95924)">
        <path
           inkscape:connector-curvature="0"
           id="path3499"
           d="m 169.34375,62.080904 6.64062,0 0,-18.847656 -6.8164,1.40625 0,-5.117188 6.77734,-1.40625 7.14844,0 0,23.964844 6.64062,0 0,5.195312 -20.39062,0 0,-5.195312" />
      </g>
      <g
         style="opacity:0.8;fill:#ffffff"
         id="g3501"
         transform="matrix(0.36817939,0,0,0.36817939,267.44372,609.71618)">
        <path
           inkscape:connector-curvature="0"
           style="fill:#ffffff"
           d="m -105.43572,813.29103 h 25.300004 c 9.4,0 17.1,-7.6 17.1,-17.1 0,-9.5 -7.6,-17 -17,-17 h -8.1 l -17.300004,-15 h 25.300004 c 17.7,-0.1 32.100003,14.2 32.100003,31.9 0.1,13.1 -7.900003,24.9 -20.100003,29.8 l 20.000003,17.3 h -22.800003 l -34.500004,-29.9 z"
           class="st0"
           id="path3503" />
        <path
           style="fill:#ffffff"
           inkscape:connector-curvature="0"
           d="m -93.035716,794.19103 h -25.300004 c -9.4,0 -17.1,7.6 -17.1,17.1 0,9.5 7.6,17.1 17.1,17.1 h 8.1 l 17.200004,15 h -25.300004 c -17.7,0 -32.1,-14.3 -32.2,-31.9 -0.1,-13.2 7.9,-25 20.1,-29.9 l -20,-17.4 h 22.9 l 34.500004,30 z"
           class="st1"
           id="path3505" />
        <path
           inkscape:connector-curvature="0"
           style="fill:#ffffff"
           d="m -93.035716,794.19103 h -25.300004 c -9.4,0 -17.1,7.6 -17.1,17.1 0,9.5 7.6,17.1 17.1,17.1 h 8.1 l 17.200004,15 h -25.300004 c -17.7,0 -32.1,-14.3 -32.2,-31.9 -0.1,-13.2 7.9,-25 20.1,-29.9 l -20,-17.4 h 22.9 l 34.500004,30 z"
           class="st2"
           id="path3507" />
      </g>
    </g>
  </g>
</svg>
