<?xml version="1.0" encoding="UTF-8" standalone="no"?>
<!-- Created with Inkscape (http://www.inkscape.org/) -->

<svg
   xmlns:dc="http://purl.org/dc/elements/1.1/"
   xmlns:cc="http://creativecommons.org/ns#"
   xmlns:rdf="http://www.w3.org/1999/02/22-rdf-syntax-ns#"
   xmlns:svg="http://www.w3.org/2000/svg"
   xmlns="http://www.w3.org/2000/svg"
   xmlns:xlink="http://www.w3.org/1999/xlink"
   xmlns:sodipodi="http://sodipodi.sourceforge.net/DTD/sodipodi-0.dtd"
   xmlns:inkscape="http://www.inkscape.org/namespaces/inkscape"
   width="460.62991"
   height="283.46457"
   id="svg2"
   version="1.1"
   inkscape:version="0.48.5 r10040"
   sodipodi:docname="dgd.svg"
   inkscape:export-filename="/home/mammique/Documents/daat/banknote/cryptos/dash.png"
   inkscape:export-xdpi="156.31"
   inkscape:export-ydpi="156.31">
  <defs
     id="defs4">
    <linearGradient
       id="linearGradient4925">
      <stop
         style="stop-color:#bd9800;stop-opacity:1;"
         offset="0"
         id="stop4927" />
      <stop
         id="stop3784"
         offset="0.51732481"
         style="stop-color:#ffcc04;stop-opacity:1;" />
      <stop
         offset="1"
         id="stop4929"
         style="stop-color:#a98500;stop-opacity:1;" />
    </linearGradient>
    <linearGradient
       id="linearGradient4835">
      <stop
         style="stop-color:#000000;stop-opacity:0.61572052"
         offset="0"
         id="stop4837" />
      <stop
         style="stop-color:#000000;stop-opacity:0;"
         offset="1"
         id="stop4839" />
    </linearGradient>
    <linearGradient
       inkscape:collect="always"
       id="linearGradient4531">
      <stop
         style="stop-color:#ffffff;stop-opacity:1;"
         offset="0"
         id="stop4533" />
      <stop
         style="stop-color:#ffffff;stop-opacity:0;"
         offset="1"
         id="stop4535" />
    </linearGradient>
    <clipPath
       clipPathUnits="userSpaceOnUse"
       id="clipPath5978">
      <rect
         style="color:#000000;fill:#cccccc;fill-opacity:1;fill-rule:nonzero;stroke:#003a00;stroke-width:0.89999998;stroke-linecap:butt;stroke-linejoin:miter;stroke-miterlimit:4;stroke-opacity:1;stroke-dasharray:none;stroke-dashoffset:0;marker:none;visibility:visible;display:inline;overflow:visible;enable-background:accumulate"
         id="rect5980"
         width="173.74623"
         height="1608.1628"
         x="610.13214"
         y="-378.01382"
         transform="matrix(0,-1,1,0,0,0)" />
    </clipPath>
    <inkscape:perspective
       id="perspective2497"
       inkscape:persp3d-origin="372.04724 : 350.78739 : 1"
       inkscape:vp_z="744.09448 : 526.18109 : 1"
       inkscape:vp_y="0 : 1000 : 0"
       inkscape:vp_x="0 : 526.18109 : 1"
       sodipodi:type="inkscape:persp3d" />
    <linearGradient
       inkscape:collect="always"
       xlink:href="#linearGradient4531"
       id="linearGradient4823"
       gradientUnits="userSpaceOnUse"
       x1="182.81697"
       y1="175.83376"
       x2="183.58928"
       y2="-16.309107"
       gradientTransform="translate(53.033008,825.69937)" />
    <radialGradient
       inkscape:collect="always"
       xlink:href="#linearGradient4835"
       id="radialGradient4845"
       cx="7.3256431"
       cy="198.2952"
       fx="7.3256431"
       fy="198.2952"
       r="109.27257"
       gradientTransform="matrix(0.19829552,0.15553474,-0.16582027,0.21140881,93.302602,945.5672)"
       gradientUnits="userSpaceOnUse" />
    <linearGradient
       id="linearGradient4925-6">
      <stop
         style="stop-color:#bd9800;stop-opacity:1;"
         offset="0"
         id="stop4927-7" />
      <stop
         id="stop3784-5"
         offset="0.5"
         style="stop-color:#ffcc04;stop-opacity:1;" />
      <stop
         offset="1"
         id="stop4929-3"
         style="stop-color:#a98500;stop-opacity:1;" />
    </linearGradient>
    <linearGradient
       gradientTransform="translate(-17.649337,-11.359598)"
       y2="38.317909"
       x2="313.61914"
       y1="142.8687"
       x1="50.479298"
       gradientUnits="userSpaceOnUse"
       id="linearGradient3802"
       xlink:href="#linearGradient4925-6"
       inkscape:collect="always" />
    <linearGradient
       id="linearGradient4925-2">
      <stop
         style="stop-color:#bd9800;stop-opacity:1;"
         offset="0"
         id="stop4927-3" />
      <stop
         id="stop3784-7"
         offset="0.38554054"
         style="stop-color:#ffcc04;stop-opacity:1;" />
      <stop
         offset="1"
         id="stop4929-5"
         style="stop-color:#a98500;stop-opacity:1;" />
    </linearGradient>
    <linearGradient
       y2="38.317909"
       x2="313.61914"
       y1="83.269699"
       x1="19.16457"
       gradientTransform="translate(-17.649337,-11.359581)"
       gradientUnits="userSpaceOnUse"
       id="linearGradient4077"
       xlink:href="#linearGradient4925-2"
       inkscape:collect="always" />
    <linearGradient
       id="linearGradient4925-28">
      <stop
         style="stop-color:#bd9800;stop-opacity:1;"
         offset="0"
         id="stop4927-9" />
      <stop
         id="stop3784-73"
         offset="0.51732481"
         style="stop-color:#ffcc04;stop-opacity:1;" />
      <stop
         offset="1"
         id="stop4929-6"
         style="stop-color:#a98500;stop-opacity:1;" />
    </linearGradient>
    <linearGradient
       y2="19.746481"
       x2="180.76199"
       y1="166.12685"
       x1="180.59314"
       gradientTransform="translate(-17.649337,-11.359581)"
       gradientUnits="userSpaceOnUse"
       id="linearGradient4113"
       xlink:href="#linearGradient4925-28"
       inkscape:collect="always" />
    <linearGradient
       id="linearGradient4925-7">
      <stop
         style="stop-color:#bd9800;stop-opacity:1;"
         offset="0"
         id="stop4927-5" />
      <stop
         id="stop3784-3"
         offset="0.51732481"
         style="stop-color:#ffcc04;stop-opacity:1;" />
      <stop
         offset="1"
         id="stop4929-56"
         style="stop-color:#a98500;stop-opacity:1;" />
    </linearGradient>
    <linearGradient
       y2="19.746481"
       x2="180.76199"
       y1="166.12685"
       x1="180.59314"
       gradientTransform="translate(-17.649337,-11.359581)"
       gradientUnits="userSpaceOnUse"
       id="linearGradient3327"
       xlink:href="#linearGradient4925-7"
       inkscape:collect="always" />
    <linearGradient
       id="linearGradient4925-7-1">
      <stop
         style="stop-color:#bd9800;stop-opacity:1;"
         offset="0"
         id="stop4927-5-2" />
      <stop
         id="stop3784-3-7"
         offset="0.51732481"
         style="stop-color:#ffcc04;stop-opacity:1;" />
      <stop
         offset="1"
         id="stop4929-56-0"
         style="stop-color:#a98500;stop-opacity:1;" />
    </linearGradient>
    <linearGradient
       y2="19.032196"
       x2="138.61914"
       y1="166.12685"
       x1="180.59314"
       gradientTransform="translate(-17.649337,-7.9568844)"
       gradientUnits="userSpaceOnUse"
       id="linearGradient3455"
       xlink:href="#linearGradient4925-7-1"
       inkscape:collect="always" />
    <linearGradient
       inkscape:collect="always"
       xlink:href="#linearGradient4925-7-6"
       id="linearGradient3350-3"
       gradientUnits="userSpaceOnUse"
       gradientTransform="translate(54.548237,823.78353)"
       x1="180.59314"
       y1="166.12685"
       x2="138.61914"
       y2="19.032196" />
    <linearGradient
       id="linearGradient4925-7-6">
      <stop
         style="stop-color:#bd9800;stop-opacity:1;"
         offset="0"
         id="stop4927-5-0" />
      <stop
         id="stop3784-3-6"
         offset="0.51732481"
         style="stop-color:#ffcc04;stop-opacity:1;" />
      <stop
         offset="1"
         id="stop4929-56-2"
         style="stop-color:#a98500;stop-opacity:1;" />
    </linearGradient>
    <linearGradient
       y2="19.032196"
       x2="138.61914"
       y1="166.12685"
       x1="180.59314"
       gradientTransform="translate(-17.649337,-7.9568844)"
       gradientUnits="userSpaceOnUse"
       id="linearGradient3491"
       xlink:href="#linearGradient4925-7-6"
       inkscape:collect="always" />
    <linearGradient
       id="linearGradient4835-7">
      <stop
         style="stop-color:#000000;stop-opacity:0.61572052"
         offset="0"
         id="stop4837-5" />
      <stop
         style="stop-color:#000000;stop-opacity:0;"
         offset="1"
         id="stop4839-9" />
    </linearGradient>
    <radialGradient
       r="109.27257"
       fy="198.2952"
       fx="7.3256431"
       cy="198.2952"
       cx="7.3256431"
       gradientTransform="matrix(0.19829552,0.15553474,-0.16582027,0.21140881,132.487,52.51516)"
       gradientUnits="userSpaceOnUse"
       id="radialGradient3545"
       xlink:href="#linearGradient4835-7"
       inkscape:collect="always" />
    <linearGradient
       id="linearGradient4835-8">
      <stop
         style="stop-color:#000000;stop-opacity:0.61572052"
         offset="0"
         id="stop4837-9" />
      <stop
         style="stop-color:#000000;stop-opacity:0;"
         offset="1"
         id="stop4839-7" />
    </linearGradient>
    <radialGradient
       r="109.27257"
       fy="198.2952"
       fx="7.3256431"
       cy="198.2952"
       cx="7.3256431"
       gradientTransform="matrix(0.19829552,0.15553474,-0.16582027,0.21140881,132.487,52.51516)"
       gradientUnits="userSpaceOnUse"
       id="radialGradient3578"
       xlink:href="#linearGradient4835-8"
       inkscape:collect="always" />
    <linearGradient
       inkscape:collect="always"
       xlink:href="#linearGradient4925-7-6-1"
       id="linearGradient3350-3-6"
       gradientUnits="userSpaceOnUse"
       gradientTransform="translate(54.548237,823.78353)"
       x1="180.59314"
       y1="166.12685"
       x2="138.61914"
       y2="19.032196" />
    <linearGradient
       id="linearGradient4925-7-6-1">
      <stop
         style="stop-color:#bd9800;stop-opacity:1;"
         offset="0"
         id="stop4927-5-0-2" />
      <stop
         id="stop3784-3-6-9"
         offset="0.51732481"
         style="stop-color:#ffcc04;stop-opacity:1;" />
      <stop
         offset="1"
         id="stop4929-56-2-3"
         style="stop-color:#a98500;stop-opacity:1;" />
    </linearGradient>
    <linearGradient
       y2="19.032196"
       x2="138.61914"
       y1="166.12685"
       x1="180.59314"
       gradientTransform="translate(-17.649337,-14.676051)"
       gradientUnits="userSpaceOnUse"
       id="linearGradient3612"
       xlink:href="#linearGradient4925-7-6-1"
       inkscape:collect="always" />
  </defs>
  <sodipodi:namedview
     id="base"
     pagecolor="#5271a5"
     bordercolor="#666666"
     borderopacity="1.0"
     inkscape:pageopacity="1"
     inkscape:pageshadow="2"
     inkscape:zoom="2.8"
     inkscape:cx="191.75801"
     inkscape:cy="170.99744"
     inkscape:document-units="px"
     inkscape:current-layer="layer1"
     showgrid="false"
     units="mm"
     inkscape:window-width="1918"
     inkscape:window-height="1059"
     inkscape:window-x="1366"
     inkscape:window-y="19"
     inkscape:window-maximized="1"
     showguides="true"
     inkscape:guide-bbox="true" />
  <metadata
     id="metadata7">
    <rdf:RDF>
      <cc:Work
         rdf:about="">
        <dc:format>image/svg+xml</dc:format>
        <dc:type
           rdf:resource="http://purl.org/dc/dcmitype/StillImage" />
        <dc:title />
      </cc:Work>
    </rdf:RDF>
  </metadata>
  <g
     inkscape:label="Calque 1"
     inkscape:groupmode="layer"
     id="layer1"
     transform="translate(0,-768.89763)">
    <g
       id="g3092"
       transform="matrix(0.0245364,0,0,0.0245364,182.48815,897.52485)">
      <path
         id="path10"
         d="m -2611.9161,-158.79612 h 476.1153 V 37.144316 h -476.1153 V -158.79612 z"
         inkscape:connector-curvature="0"
         style="fill:#c39145" />
      <path
         id="path6"
         transform="translate(0,768.89763)"
         d="m -1886.9688,-1463.5312 c -690.65,0 -1250,559.34995 -1250,1249.99995 0,690.64996 559.35,1250.00005 1250,1250.00005 690.6501,0 1250.00005,-559.35009 1250.00005,-1250.00005 1.1,-690.65 -559.36245,-1249.99995 -1250.00005,-1249.99995 z m -179.8437,557.1562 132.3437,0 0,595.75 -606.75,0 0,-353.03125 474.4063,0 0,-242.71875 z m 220.6563,0 595.7812,0 0,121.34375 -463.375,0 0,353.0625 342,0 0,-110.3125 -242.7188,0 0,-121.375 375.125,0 0,353.03125 -606.8124,0 0,-595.75 z m -684,11.03125 375.0937,0 0,143.40625 -375.0937,0 0,-143.40625 z m 110.3124,353.0625 0,110.3125 342,0 0,-110.3125 -342,0 z m -110.3124,353.03125 995.125,0 c 193.075,0 350.8437,162.175 350.8437,358.5625 0,196.38746 -157.7813,358.53125 -350.8437,358.53125 l 0,0.0312 -995.125,0 0,-717.125 z m 165.4687,154.46875 0,408.21875 800.9687,0 c 111.425,0 208.5001,-92.68129 208.5,-205.21875 -2.2,-113.6625 -93.7375,-204.125 -207.375,-203 l -802.0937,0 z"
         style="fill:#014655"
         inkscape:connector-curvature="0" />
    </g>
    <path
       style="fill:#ffffff;opacity:0.8"
       d="m 68.276372,838.91243 0.02037,-4.32198 1.26043,-0.0253 c 1.507476,-0.0302 2.167095,0.0655 2.923052,0.42422 0.411246,0.19513 0.686729,0.40133 1.038386,0.77725 0.637708,0.68172 0.932124,1.31324 1.083165,2.32339 0.105081,0.70278 0.105363,0.88276 0.0024,1.571 -0.24369,1.62979 -1.050841,2.70347 -2.447423,3.25557 -0.621611,0.24574 -0.652541,0.24961 -2.265511,0.28344 l -1.635297,0.0343 0.02037,-4.32197 z m 3.120749,2.8507 c 1.067207,-0.28406 1.74342,-1.10777 1.9128,-2.33004 0.206055,-1.48691 -0.383031,-2.7826 -1.494634,-3.28744 -0.388368,-0.17637 -0.55864,-0.20352 -1.312793,-0.20932 l -0.866545,-0.007 -0.0207,2.87502 c -0.01139,1.58125 -0.0037,2.91947 0.01723,2.97382 0.05305,0.13824 1.2259,0.12803 1.764648,-0.0154 z m 4.816695,-2.87934 0,-4.3391 0.649909,0.0228 0.649909,0.0228 0,4.29333 0,4.29334 -0.649909,0.0228 -0.649909,0.0229 z m 6.341538,4.28336 c -1.011003,-0.15393 -2.319994,-1.09502 -2.900191,-2.08505 -0.434727,-0.74181 -0.55034,-1.21267 -0.549439,-2.2377 8.04e-4,-0.87587 0.01859,-0.98783 0.242572,-1.52384 0.305651,-0.73147 0.558165,-1.09492 1.12593,-1.62057 0.897373,-0.83081 1.652887,-1.11078 2.98706,-1.10691 0.710888,0.002 0.999215,0.0371 1.339209,0.16256 l 0.43327,0.15995 0.02265,0.77061 c 0.01246,0.42383 -0.0052,0.75664 -0.0394,0.73958 -0.874755,-0.43744 -1.036167,-0.48824 -1.655122,-0.52087 -0.754839,-0.0398 -1.266232,0.0948 -1.828922,0.48158 -0.652023,0.44814 -0.99588,0.92274 -1.231849,1.70019 -0.461052,1.51906 0.476352,3.18385 2.085681,3.70407 0.343174,0.11093 1.21637,0.11067 1.622863,-4.5e-4 0.53668,-0.14676 0.590829,-0.24008 0.590829,-1.0184 0,-0.46881 -0.03265,-0.71422 -0.102738,-0.77239 -0.0565,-0.0469 -0.437586,-0.0956 -0.846848,-0.10811 l -0.744119,-0.0228 -0.02376,-0.50487 c -0.01653,-0.35061 0.0076,-0.52476 0.07878,-0.56993 0.05641,-0.0358 0.732439,-0.0656 1.502296,-0.0663 l 1.39974,-9.3e-4 -0.02113,1.82496 -0.02113,1.82495 -0.374717,0.23022 c -0.668391,0.41067 -1.130513,0.5405 -2.027977,0.56979 -0.454934,0.0148 -0.933505,0.0108 -1.063486,-0.009 z m 5.002327,-4.28336 0,-4.3391 0.649913,0.0228 0.649908,0.0228 0,4.29333 0,4.29334 -0.649908,0.0228 -0.649913,0.0229 z m 3.0723,4.24702 c 0,-0.0502 0.153761,-0.30843 0.341687,-0.5739 0.18793,-0.26546 0.867176,-1.2601 1.509437,-2.21031 l 1.167746,-1.72766 -0.150535,-0.26346 c -0.08279,-0.1449 -0.673416,-1.034 -1.312493,-1.97576 -0.639077,-0.94176 -1.161958,-1.73971 -1.161958,-1.77323 0,-0.0335 0.359951,-0.0508 0.799895,-0.0385 l 0.799899,0.0225 0.893065,1.29982 c 0.491185,0.7149 0.937712,1.30824 0.992277,1.31853 0.05456,0.0103 0.435982,-0.48285 0.84759,-1.09586 1.139271,-1.69672 0.975434,-1.56188 1.897648,-1.56188 0.429421,0 0.780761,0.0218 0.780761,0.0484 0,0.0266 -0.573489,0.88628 -1.274425,1.91034 -0.700931,1.02405 -1.288048,1.93281 -1.304695,2.01946 -0.02028,0.10562 0.464756,0.88203 1.471368,2.35522 0.8259,1.2087 1.501638,2.22912 1.501638,2.26759 0,0.0385 -0.363112,0.0598 -0.806906,0.0475 l -0.806912,-0.0225 -1.103427,-1.60979 c -0.606889,-0.88538 -1.143577,-1.62252 -1.192643,-1.6381 -0.04907,-0.0156 -0.23241,0.19482 -0.407427,0.46752 -0.175017,0.2727 -0.670893,1.00985 -1.101948,1.6381 l -0.783734,1.14227 -0.797956,0.0225 c -0.564952,0.0159 -0.797952,-0.004 -0.797952,-0.0687 z m 9.393459,-4.21922 0.0203,-4.32114 1.22104,-0.0253 c 1.45739,-0.0302 2.11798,0.0667 2.90086,0.42555 1.01262,0.46411 1.77785,1.43795 2.06867,2.63262 0.058,0.2383 0.10548,0.80549 0.10548,1.26043 0,0.93672 -0.11026,1.48324 -0.43706,2.16637 -0.43954,0.91878 -1.18245,1.57179 -2.19587,1.93015 -0.45179,0.15977 -0.69983,0.18526 -2.10795,0.21674 l -1.59591,0.0357 z m 3.2297,2.80181 c 1.22471,-0.41258 1.8666,-1.52391 1.77083,-3.06594 -0.0756,-1.21643 -0.52151,-1.97855 -1.42843,-2.44118 -0.49937,-0.25471 -0.60136,-0.27695 -1.39533,-0.30412 l -0.85658,-0.0293 0,3.00223 0,3.00223 0.71147,0 c 0.51227,0 0.84772,-0.0459 1.19804,-0.1639 z m 3.69,1.0925 c 0.34052,-0.86517 1.0403,-2.55941 1.22235,-2.95942 0.1041,-0.22875 0.18928,-0.42892 0.18928,-0.44482 0,-0.0376 1.38189,-3.37599 1.56764,-3.78711 0.0783,-0.17331 0.22714,-0.53667 0.33076,-0.80746 0.10361,-0.2708 0.22401,-0.49183 0.26757,-0.49117 0.0435,4.5e-4 0.29959,0.54126 0.569,1.20135 0.86226,2.11268 2.30462,5.60643 2.38176,5.76922 0.24571,0.51846 0.71275,1.7051 0.71275,1.81091 0,0.10659 -0.10164,0.12186 -0.68251,0.10248 l -0.68251,-0.0227 -0.35416,-0.86654 c -0.19477,-0.47661 -0.39281,-0.8926 -0.44005,-0.92443 -0.0473,-0.0318 -0.72399,-0.0579 -1.50389,-0.0579 -0.77989,0 -1.45517,0.026 -1.50062,0.0579 -0.0455,0.0318 -0.24062,0.44782 -0.43369,0.92443 l -0.35104,0.86654 -0.72829,0.0227 -0.72829,0.0227 z m 4.56514,-2.72077 c 0.004,-0.22715 -0.90193,-2.46299 -0.98715,-2.43617 -0.10816,0.034 -1.04847,2.35306 -1.00377,2.47556 0.0261,0.0715 0.30285,0.0985 1.0122,0.0985 0.87635,0 0.97653,-0.0141 0.97872,-0.13787 z m 6.6936,3.08376 c -1.13039,-0.2092 -2.36826,-1.09566 -2.95049,-2.1129 -0.4075,-0.71196 -0.54722,-1.28512 -0.53912,-2.21159 0.008,-0.96294 0.18857,-1.59917 0.66149,-2.33614 0.54196,-0.84458 1.56265,-1.56602 2.61004,-1.84485 1.38848,-0.36961 3.02481,0.0905 4.07814,1.14668 0.86268,0.86504 1.26213,1.84425 1.2585,3.08506 -0.002,0.83516 -0.0922,1.22245 -0.45354,1.95632 -0.47814,0.97115 -1.33929,1.73998 -2.39705,2.14007 -0.41117,0.15552 -1.79935,0.26408 -2.26797,0.17735 z m 2.06215,-1.55141 c 0.93286,-0.4564 1.53546,-1.25401 1.7231,-2.28073 0.22434,-1.22739 -0.48481,-2.58236 -1.64988,-3.15243 -0.4874,-0.23849 -0.57296,-0.25453 -1.3476,-0.2525 -0.74937,0.002 -0.86673,0.0228 -1.24785,0.22156 -2.00215,1.04418 -2.34014,3.48749 -0.69068,4.99296 0.59679,0.54469 1.15277,0.73556 2.0611,0.7076 0.58846,-0.0182 0.79018,-0.0595 1.15181,-0.23646 z"
       id="path3133"
       inkscape:connector-curvature="0"
       sodipodi:nodetypes="ccsssssssccccssscscccccccccccccscsssscscsssscssccscscccssccccccccccssscsssscscsssssssscsssscssccsssssssccsssscccssssssscsssscssssscccssssssssssssssssssssssss" />
    <g
       id="g3073"
       transform="matrix(1.1159251,0,0,1.1159251,71.463311,-173.23869)">
      <g
         id="g3049"
         transform="matrix(0.00796498,0,0,0.00796498,297.07555,919.80592)">
        <path
           id="path3051"
           d="m -2611.9161,-158.79612 h 476.1153 V 37.144316 h -476.1153 V -158.79612 z"
           inkscape:connector-curvature="0"
           style="fill:#c39145" />
        <path
           id="path3053"
           transform="translate(0,768.89763)"
           d="m -1886.9688,-1463.5312 c -690.65,0 -1250,559.34995 -1250,1249.99995 0,690.64996 559.35,1250.00005 1250,1250.00005 690.6501,0 1250.00005,-559.35009 1250.00005,-1250.00005 1.1,-690.65 -559.36245,-1249.99995 -1250.00005,-1249.99995 z m -179.8437,557.1562 132.3437,0 0,595.75 -606.75,0 0,-353.03125 474.4063,0 0,-242.71875 z m 220.6563,0 595.7812,0 0,121.34375 -463.375,0 0,353.0625 342,0 0,-110.3125 -242.7188,0 0,-121.375 375.125,0 0,353.03125 -606.8124,0 0,-595.75 z m -684,11.03125 375.0937,0 0,143.40625 -375.0937,0 0,-143.40625 z m 110.3124,353.0625 0,110.3125 342,0 0,-110.3125 -342,0 z m -110.3124,353.03125 995.125,0 c 193.075,0 350.8437,162.175 350.8437,358.5625 0,196.38746 -157.7813,358.53125 -350.8437,358.53125 l 0,0.0312 -995.125,0 0,-717.125 z m 165.4687,154.46875 0,408.21875 800.9687,0 c 111.425,0 208.5001,-92.68129 208.5,-205.21875 -2.2,-113.6625 -93.7375,-204.125 -207.375,-203 l -802.0937,0 z"
           style="fill:#014655"
           inkscape:connector-curvature="0" />
      </g>
      <path
         style="opacity:0.8;color:#000000;fill:#ffffff;fill-opacity:1;fill-rule:nonzero;stroke:none;stroke-width:2.79999995;marker:none;visibility:visible;display:inline;overflow:visible;enable-background:accumulate"
         d="m 255.03243,902.8871 0,5.36974 7.08121,0 0,25.92879 5.39114,0 0,-25.92879 0,-5.36974 -5.39114,0 -7.08121,0 z"
         id="path3057"
         inkscape:connector-curvature="0" />
    </g>
  </g>
</svg>
