<?xml version="1.0" encoding="UTF-8" standalone="no"?>
<!-- Created with Inkscape (http://www.inkscape.org/) -->

<svg
   xmlns:dc="http://purl.org/dc/elements/1.1/"
   xmlns:cc="http://creativecommons.org/ns#"
   xmlns:rdf="http://www.w3.org/1999/02/22-rdf-syntax-ns#"
   xmlns:svg="http://www.w3.org/2000/svg"
   xmlns="http://www.w3.org/2000/svg"
   xmlns:xlink="http://www.w3.org/1999/xlink"
   xmlns:sodipodi="http://sodipodi.sourceforge.net/DTD/sodipodi-0.dtd"
   xmlns:inkscape="http://www.inkscape.org/namespaces/inkscape"
   width="460.62991"
   height="283.46457"
   id="svg2"
   version="1.1"
   inkscape:version="0.48.5 r10040"
   sodipodi:docname="banknote_bg_template.svg"
   inkscape:export-filename="/home/mammique/Documents/daat/banknote/cryptos/dash.png"
   inkscape:export-xdpi="156.31"
   inkscape:export-ydpi="156.31">
  <defs
     id="defs4">
    <linearGradient
       id="linearGradient4925">
      <stop
         style="stop-color:#bd9800;stop-opacity:1;"
         offset="0"
         id="stop4927" />
      <stop
         id="stop3784"
         offset="0.51732481"
         style="stop-color:#ffcc04;stop-opacity:1;" />
      <stop
         offset="1"
         id="stop4929"
         style="stop-color:#a98500;stop-opacity:1;" />
    </linearGradient>
    <linearGradient
       id="linearGradient4835">
      <stop
         style="stop-color:#000000;stop-opacity:0.61572052"
         offset="0"
         id="stop4837" />
      <stop
         style="stop-color:#000000;stop-opacity:0;"
         offset="1"
         id="stop4839" />
    </linearGradient>
    <linearGradient
       inkscape:collect="always"
       id="linearGradient4531">
      <stop
         style="stop-color:#ffffff;stop-opacity:1;"
         offset="0"
         id="stop4533" />
      <stop
         style="stop-color:#ffffff;stop-opacity:0;"
         offset="1"
         id="stop4535" />
    </linearGradient>
    <clipPath
       clipPathUnits="userSpaceOnUse"
       id="clipPath5978">
      <rect
         style="color:#000000;fill:#cccccc;fill-opacity:1;fill-rule:nonzero;stroke:#003a00;stroke-width:0.89999998;stroke-linecap:butt;stroke-linejoin:miter;stroke-miterlimit:4;stroke-opacity:1;stroke-dasharray:none;stroke-dashoffset:0;marker:none;visibility:visible;display:inline;overflow:visible;enable-background:accumulate"
         id="rect5980"
         width="173.74623"
         height="1608.1628"
         x="610.13214"
         y="-378.01382"
         transform="matrix(0,-1,1,0,0,0)" />
    </clipPath>
    <inkscape:perspective
       id="perspective2497"
       inkscape:persp3d-origin="372.04724 : 350.78739 : 1"
       inkscape:vp_z="744.09448 : 526.18109 : 1"
       inkscape:vp_y="0 : 1000 : 0"
       inkscape:vp_x="0 : 526.18109 : 1"
       sodipodi:type="inkscape:persp3d" />
    <linearGradient
       inkscape:collect="always"
       xlink:href="#linearGradient4531"
       id="linearGradient4823"
       gradientUnits="userSpaceOnUse"
       x1="182.81697"
       y1="175.83376"
       x2="183.58928"
       y2="-16.309107"
       gradientTransform="translate(53.033008,825.69937)" />
    <radialGradient
       inkscape:collect="always"
       xlink:href="#linearGradient4835"
       id="radialGradient4845"
       cx="7.3256431"
       cy="198.2952"
       fx="7.3256431"
       fy="198.2952"
       r="109.27257"
       gradientTransform="matrix(0.19829552,0.15553474,-0.16582027,0.21140881,93.302602,945.5672)"
       gradientUnits="userSpaceOnUse" />
    <linearGradient
       id="linearGradient4925-6">
      <stop
         style="stop-color:#bd9800;stop-opacity:1;"
         offset="0"
         id="stop4927-7" />
      <stop
         id="stop3784-5"
         offset="0.5"
         style="stop-color:#ffcc04;stop-opacity:1;" />
      <stop
         offset="1"
         id="stop4929-3"
         style="stop-color:#a98500;stop-opacity:1;" />
    </linearGradient>
    <linearGradient
       gradientTransform="translate(-17.649337,-11.359598)"
       y2="38.317909"
       x2="313.61914"
       y1="142.8687"
       x1="50.479298"
       gradientUnits="userSpaceOnUse"
       id="linearGradient3802"
       xlink:href="#linearGradient4925-6"
       inkscape:collect="always" />
    <linearGradient
       id="linearGradient4925-2">
      <stop
         style="stop-color:#bd9800;stop-opacity:1;"
         offset="0"
         id="stop4927-3" />
      <stop
         id="stop3784-7"
         offset="0.38554054"
         style="stop-color:#ffcc04;stop-opacity:1;" />
      <stop
         offset="1"
         id="stop4929-5"
         style="stop-color:#a98500;stop-opacity:1;" />
    </linearGradient>
    <linearGradient
       y2="38.317909"
       x2="313.61914"
       y1="83.269699"
       x1="19.16457"
       gradientTransform="translate(-17.649337,-11.359581)"
       gradientUnits="userSpaceOnUse"
       id="linearGradient4077"
       xlink:href="#linearGradient4925-2"
       inkscape:collect="always" />
    <linearGradient
       id="linearGradient4925-28">
      <stop
         style="stop-color:#bd9800;stop-opacity:1;"
         offset="0"
         id="stop4927-9" />
      <stop
         id="stop3784-73"
         offset="0.51732481"
         style="stop-color:#ffcc04;stop-opacity:1;" />
      <stop
         offset="1"
         id="stop4929-6"
         style="stop-color:#a98500;stop-opacity:1;" />
    </linearGradient>
    <linearGradient
       y2="19.746481"
       x2="180.76199"
       y1="166.12685"
       x1="180.59314"
       gradientTransform="translate(-17.649337,-11.359581)"
       gradientUnits="userSpaceOnUse"
       id="linearGradient4113"
       xlink:href="#linearGradient4925-28"
       inkscape:collect="always" />
    <linearGradient
       id="linearGradient4925-7">
      <stop
         style="stop-color:#bd9800;stop-opacity:1;"
         offset="0"
         id="stop4927-5" />
      <stop
         id="stop3784-3"
         offset="0.51732481"
         style="stop-color:#ffcc04;stop-opacity:1;" />
      <stop
         offset="1"
         id="stop4929-56"
         style="stop-color:#a98500;stop-opacity:1;" />
    </linearGradient>
    <linearGradient
       y2="19.746481"
       x2="180.76199"
       y1="166.12685"
       x1="180.59314"
       gradientTransform="translate(-17.649337,-11.359581)"
       gradientUnits="userSpaceOnUse"
       id="linearGradient3327"
       xlink:href="#linearGradient4925-7"
       inkscape:collect="always" />
    <linearGradient
       id="linearGradient4925-7-1">
      <stop
         style="stop-color:#bd9800;stop-opacity:1;"
         offset="0"
         id="stop4927-5-2" />
      <stop
         id="stop3784-3-7"
         offset="0.51732481"
         style="stop-color:#ffcc04;stop-opacity:1;" />
      <stop
         offset="1"
         id="stop4929-56-0"
         style="stop-color:#a98500;stop-opacity:1;" />
    </linearGradient>
    <linearGradient
       y2="19.032196"
       x2="138.61914"
       y1="166.12685"
       x1="180.59314"
       gradientTransform="translate(-17.649337,-7.9568844)"
       gradientUnits="userSpaceOnUse"
       id="linearGradient3455"
       xlink:href="#linearGradient4925-7-1"
       inkscape:collect="always" />
    <linearGradient
       inkscape:collect="always"
       xlink:href="#linearGradient4925-7-6"
       id="linearGradient3350-3"
       gradientUnits="userSpaceOnUse"
       gradientTransform="translate(54.548237,823.78353)"
       x1="180.59314"
       y1="166.12685"
       x2="138.61914"
       y2="19.032196" />
    <linearGradient
       id="linearGradient4925-7-6">
      <stop
         style="stop-color:#bd9800;stop-opacity:1;"
         offset="0"
         id="stop4927-5-0" />
      <stop
         id="stop3784-3-6"
         offset="0.51732481"
         style="stop-color:#ffcc04;stop-opacity:1;" />
      <stop
         offset="1"
         id="stop4929-56-2"
         style="stop-color:#a98500;stop-opacity:1;" />
    </linearGradient>
    <linearGradient
       y2="19.032196"
       x2="138.61914"
       y1="166.12685"
       x1="180.59314"
       gradientTransform="translate(-17.649337,-7.9568844)"
       gradientUnits="userSpaceOnUse"
       id="linearGradient3491"
       xlink:href="#linearGradient4925-7-6"
       inkscape:collect="always" />
    <linearGradient
       id="linearGradient4835-7">
      <stop
         style="stop-color:#000000;stop-opacity:0.61572052"
         offset="0"
         id="stop4837-5" />
      <stop
         style="stop-color:#000000;stop-opacity:0;"
         offset="1"
         id="stop4839-9" />
    </linearGradient>
    <radialGradient
       r="109.27257"
       fy="198.2952"
       fx="7.3256431"
       cy="198.2952"
       cx="7.3256431"
       gradientTransform="matrix(0.19829552,0.15553474,-0.16582027,0.21140881,132.487,52.51516)"
       gradientUnits="userSpaceOnUse"
       id="radialGradient3545"
       xlink:href="#linearGradient4835-7"
       inkscape:collect="always" />
    <linearGradient
       id="linearGradient4835-8">
      <stop
         style="stop-color:#000000;stop-opacity:0.61572052"
         offset="0"
         id="stop4837-9" />
      <stop
         style="stop-color:#000000;stop-opacity:0;"
         offset="1"
         id="stop4839-7" />
    </linearGradient>
    <radialGradient
       r="109.27257"
       fy="198.2952"
       fx="7.3256431"
       cy="198.2952"
       cx="7.3256431"
       gradientTransform="matrix(0.19829552,0.15553474,-0.16582027,0.21140881,132.487,52.51516)"
       gradientUnits="userSpaceOnUse"
       id="radialGradient3578"
       xlink:href="#linearGradient4835-8"
       inkscape:collect="always" />
    <linearGradient
       inkscape:collect="always"
       xlink:href="#linearGradient4925-7-6-1"
       id="linearGradient3350-3-6"
       gradientUnits="userSpaceOnUse"
       gradientTransform="translate(54.548237,823.78353)"
       x1="180.59314"
       y1="166.12685"
       x2="138.61914"
       y2="19.032196" />
    <linearGradient
       id="linearGradient4925-7-6-1">
      <stop
         style="stop-color:#bd9800;stop-opacity:1;"
         offset="0"
         id="stop4927-5-0-2" />
      <stop
         id="stop3784-3-6-9"
         offset="0.51732481"
         style="stop-color:#ffcc04;stop-opacity:1;" />
      <stop
         offset="1"
         id="stop4929-56-2-3"
         style="stop-color:#a98500;stop-opacity:1;" />
    </linearGradient>
    <linearGradient
       y2="19.032196"
       x2="138.61914"
       y1="166.12685"
       x1="180.59314"
       gradientTransform="translate(-17.649337,-14.676051)"
       gradientUnits="userSpaceOnUse"
       id="linearGradient3612"
       xlink:href="#linearGradient4925-7-6-1"
       inkscape:collect="always" />
    <linearGradient
       gradientTransform="translate(422.09286,758.69077)"
       inkscape:collect="always"
       xlink:href="#SVGID_4_"
       id="linearGradient3284"
       gradientUnits="userSpaceOnUse"
       x1="0.38890001"
       y1="85"
       x2="67.346703"
       y2="85" />
    <linearGradient
       y2="85"
       x2="67.346703"
       y1="85"
       x1="0.38890001"
       gradientUnits="userSpaceOnUse"
       id="SVGID_4_">
      <stop
         id="stop3118"
         style="stop-color:#00BA95"
         offset="0" />
      <stop
         id="stop3120"
         style="stop-color:#00D9AD"
         offset="0.525" />
      <stop
         id="stop3122"
         style="stop-color:#00F9AB"
         offset="1" />
    </linearGradient>
    <linearGradient
       gradientTransform="translate(422.09286,758.69077)"
       inkscape:collect="always"
       xlink:href="#SVGID_3_"
       id="linearGradient3287"
       gradientUnits="userSpaceOnUse"
       x1="21.5508"
       y1="84.808296"
       x2="160.4669"
       y2="84.808296" />
    <linearGradient
       y2="84.808296"
       x2="160.4669"
       y1="84.808296"
       x1="21.5508"
       gradientUnits="userSpaceOnUse"
       id="SVGID_3_">
      <stop
         id="stop3111"
         style="stop-color:#008D95"
         offset="0" />
      <stop
         id="stop3113"
         style="stop-color:#00FFDE"
         offset="1" />
    </linearGradient>
    <linearGradient
       inkscape:collect="always"
       xlink:href="#SVGID_2_"
       id="linearGradient3292"
       gradientUnits="userSpaceOnUse"
       gradientTransform="translate(2200.9176,2672.4667)"
       x1="-1681.368"
       y1="-1828.776"
       x2="-1609.2136"
       y2="-1828.776" />
    <linearGradient
       gradientTransform="translate(1778.8247,1913.776)"
       y2="-1828.776"
       x2="-1609.2136"
       y1="-1828.776"
       x1="-1681.368"
       gradientUnits="userSpaceOnUse"
       id="SVGID_2_">
      <stop
         id="stop3100"
         style="stop-color:#008D85"
         offset="0" />
      <stop
         id="stop3102"
         style="stop-color:#00FFDE"
         offset="1" />
    </linearGradient>
    <linearGradient
       gradientTransform="translate(422.09286,758.69077)"
       inkscape:collect="always"
       xlink:href="#SVGID_1_"
       id="linearGradient3295"
       gradientUnits="userSpaceOnUse"
       x1="7.3386998"
       y1="85"
       x2="74.296501"
       y2="85" />
    <linearGradient
       y2="85"
       x2="74.296501"
       y1="85"
       x1="7.3386998"
       gradientUnits="userSpaceOnUse"
       id="SVGID_1_">
      <stop
         id="stop3091"
         style="stop-color:#00BA95"
         offset="0" />
      <stop
         id="stop3093"
         style="stop-color:#00D9AD"
         offset="0.525" />
      <stop
         id="stop3095"
         style="stop-color:#00D9AD"
         offset="1" />
    </linearGradient>
    <linearGradient
       inkscape:collect="always"
       xlink:href="#SVGID_1_"
       id="linearGradient4310"
       gradientUnits="userSpaceOnUse"
       gradientTransform="translate(422.09286,758.69077)"
       x1="7.3386998"
       y1="85"
       x2="74.296501"
       y2="85" />
    <linearGradient
       inkscape:collect="always"
       xlink:href="#SVGID_2_"
       id="linearGradient4312"
       gradientUnits="userSpaceOnUse"
       gradientTransform="translate(2200.9176,2672.4667)"
       x1="-1681.368"
       y1="-1828.776"
       x2="-1609.2136"
       y2="-1828.776" />
    <linearGradient
       inkscape:collect="always"
       xlink:href="#SVGID_3_"
       id="linearGradient4314"
       gradientUnits="userSpaceOnUse"
       gradientTransform="translate(422.09286,758.69077)"
       x1="21.5508"
       y1="84.808296"
       x2="160.4669"
       y2="84.808296" />
    <linearGradient
       inkscape:collect="always"
       xlink:href="#SVGID_4_"
       id="linearGradient4316"
       gradientUnits="userSpaceOnUse"
       gradientTransform="translate(422.09286,758.69077)"
       x1="0.38890001"
       y1="85"
       x2="67.346703"
       y2="85" />
    <linearGradient
       inkscape:collect="always"
       xlink:href="#SVGID_1_"
       id="linearGradient4330"
       gradientUnits="userSpaceOnUse"
       gradientTransform="translate(422.09286,758.69077)"
       x1="7.3386998"
       y1="85"
       x2="74.296501"
       y2="85" />
    <linearGradient
       inkscape:collect="always"
       xlink:href="#SVGID_2_"
       id="linearGradient4332"
       gradientUnits="userSpaceOnUse"
       gradientTransform="translate(2200.9176,2672.4667)"
       x1="-1681.368"
       y1="-1828.776"
       x2="-1609.2136"
       y2="-1828.776" />
    <linearGradient
       inkscape:collect="always"
       xlink:href="#SVGID_3_"
       id="linearGradient4334"
       gradientUnits="userSpaceOnUse"
       gradientTransform="translate(422.09286,758.69077)"
       x1="21.5508"
       y1="84.808296"
       x2="160.4669"
       y2="84.808296" />
    <linearGradient
       inkscape:collect="always"
       xlink:href="#SVGID_4_"
       id="linearGradient4336"
       gradientUnits="userSpaceOnUse"
       gradientTransform="translate(422.09286,758.69077)"
       x1="0.38890001"
       y1="85"
       x2="67.346703"
       y2="85" />
  </defs>
  <sodipodi:namedview
     id="base"
     pagecolor="#5271a5"
     bordercolor="#666666"
     borderopacity="1.0"
     inkscape:pageopacity="1"
     inkscape:pageshadow="2"
     inkscape:zoom="1.979899"
     inkscape:cx="271.87316"
     inkscape:cy="198.57433"
     inkscape:document-units="px"
     inkscape:current-layer="layer1"
     showgrid="false"
     units="mm"
     inkscape:window-width="1364"
     inkscape:window-height="747"
     inkscape:window-x="0"
     inkscape:window-y="19"
     inkscape:window-maximized="1"
     showguides="true"
     inkscape:guide-bbox="true" />
  <metadata
     id="metadata7">
    <rdf:RDF>
      <cc:Work
         rdf:about="">
        <dc:format>image/svg+xml</dc:format>
        <dc:type
           rdf:resource="http://purl.org/dc/dcmitype/StillImage" />
        <dc:title></dc:title>
      </cc:Work>
    </rdf:RDF>
  </metadata>
  <g
     inkscape:label="Calque 1"
     inkscape:groupmode="layer"
     id="layer1"
     transform="translate(0,-768.89763)">
    <g
       id="g3388"
       transform="matrix(0.35249527,0,0,0.35249527,-39.005282,612.11239)">
      <path
         class="st0"
         d="m 443.69286,843.59077 c -0.1,0.1 -0.1,0.1 0,0 -0.1,0.1 0,0.1 0,0.1 v -0.1 z"
         id="path3088"
         inkscape:connector-curvature="0"
         style="fill:#ffffff" />
      <path
         class="st1"
         d="m 494.49286,850.69077 c 2.5,-4.3 2.5,-9.7 0,-14.1 l -19.5,-33.8 -19.7,-34.1 c -1.2,-2 -2.8,-3.7 -4.7,-4.9 0,0 0,0 0,0 -1.9,1.2 -3.6,2.9 -4.7,4.9 l -14.9,25.5 c -2.1,3.7 -2.1,8.2 0,11.8 l 17.7,30.7 c 1.3,2.2 1.9,4.6 1.9,7 v 0 c 0,2.4 -0.6,4.9 -1.9,7 l -17.7,30.7 c -2.1,3.7 -2.1,8.2 0,11.8 l 14.8,25.5 c 1.2,2 2.8,3.7 4.7,4.9 0,0 0,0 0,0 1.9,-1.2 3.6,-2.9 4.7,-4.9 l 19.7,-34.2 19.6,-33.8 z"
         id="path3097"
         style="opacity:0.25;fill:url(#linearGradient3295)"
         inkscape:connector-curvature="0" />
      <path
         class="st2"
         d="m 589.59286,851.69077 c 2.9,-5 2.9,-11.1 0,-16 l -19.6,-34 -20.3,-35 c -1,-1.7 -2.2,-3.1 -3.7,-4.2 -0.7,-0.6 -1.6,-0.8 -2.5,-0.8 -10.2,0 -17.2,0.4 -22.4,0.4 -0.9,0 -1.6,0.8 -1.5,1.8 1.1,6 4.5,25.1 5.1,28.6 0.1,0.3 0,0.7 -0.2,1 -1.9,3.7 -1.8,8.1 0.3,11.7 l 18.2,31.5 c 1.3,2.2 1.9,4.7 1.9,7.2 v 0 c 0,2.5 -0.6,5 -1.9,7.2 l -18.2,31.5 c -2.1,3.6 -2.2,8 -0.3,11.7 0.2,0.3 0.2,0.7 0.2,1 -0.6,3.4 -4,22.4 -5.1,28.4 -0.2,0.9 0.5,1.8 1.5,1.8 4.2,0 -1.7,0.5 23,0.5 0.5,0 1.2,-0.2 1.6,-0.4 1.8,-0.7 2.9,-2.9 4,-4.6 l 20.3,-35.1 19.6,-34.2 z"
         id="path3104"
         style="opacity:0.25;fill:url(#linearGradient3292)"
         inkscape:connector-curvature="0" />
      <path
         class="st0"
         d="m 443.69286,843.69077 0,0 0,0 z"
         id="path3106"
         inkscape:connector-curvature="0"
         style="fill:#ffffff" />
      <path
         class="st0"
         d="m 443.69286,843.69077 0,0 0,0 z"
         id="path3108"
         inkscape:connector-curvature="0"
         style="fill:#ffffff" />
      <path
         class="st3"
         d="m 580.69286,836.49077 -39.2,-67.9 c -2.5,-4.3 -7.2,-7 -12.2,-7 h -39.9 -38.4 c -2.6,0 -5.2,0.7 -7.3,2.1 v 0 c 1.9,1.2 3.5,2.8 4.7,4.8 l 19.7,34.1 c 1.8,-0.9 3.9,-1.3 6,-1.3 h 15.5 17 c 5,0 9.7,2.7 12.2,7 l 16.2,28.1 c 2.5,4.3 2.5,9.7 0,14.1 l -16.3,28.2 c -2.5,4.3 -7.2,7 -12.2,7 h -17 -15.5 c -2.1,0 -4.1,-0.5 -6,-1.3 l -19.7,34.1 c -1.2,2 -2.8,3.6 -4.7,4.8 v 0 c 2.2,1.3 4.7,2.1 7.3,2.1 h 38.4 39.9 c 5,0 9.7,-2.7 12.2,-7 l 39.2,-67.9 c 2.6,-4.3 2.6,-9.7 0.1,-14 z"
         id="path3115"
         style="fill:url(#linearGradient3287)"
         inkscape:connector-curvature="0" />
      <path
         class="st4"
         d="m 487.59286,850.69077 c 2.5,-4.3 2.5,-9.7 0,-14.1 l -19.6,-33.8 -19.7,-34.1 c -1.2,-2 -2.8,-3.7 -4.7,-4.9 0,0 0,0 0,0 -1.9,1.2 -3.6,2.9 -4.7,4.9 l -14.8,25.5 c -2.1,3.7 -2.1,8.2 0,11.8 l 17.7,30.7 c 1.3,2.2 1.9,4.6 1.9,7 v 0 c 0,2.4 -0.6,4.9 -1.9,7 l -17.7,30.7 c -2.1,3.7 -2.1,8.2 0,11.8 l 14.7,25.5 c 1.2,2 2.8,3.7 4.7,4.9 0,0 0,0 0,0 1.9,-1.2 3.6,-2.9 4.7,-4.9 l 19.7,-34.2 19.7,-33.8 z"
         id="path3124"
         style="fill:url(#linearGradient3284)"
         inkscape:connector-curvature="0" />
    </g>
    <path
       inkscape:connector-curvature="0"
       class="st5"
       d="m 75.146765,835.95315 c -0.395815,-0.37782 -0.845603,-0.66569 -1.367358,-0.86359 -0.503764,-0.19791 -1.043509,-0.30586 -1.601247,-0.30586 h -2.878646 c -0.57573,0 -1.04351,0.44979 -1.04351,1.00753 v 6.76482 c 0,0.55774 0.46778,1.00753 1.04351,1.00753 h 2.878646 c 0.539746,0 1.079492,-0.10796 1.601247,-0.30587 0.521755,-0.1979 0.971543,-0.48577 1.367358,-0.86358 0.863593,-0.82762 1.29539,-1.9251 1.29539,-3.22049 0.01799,-1.2954 -0.431797,-2.37489 -1.29539,-3.22049 z m -0.845603,5.43344 c -0.539747,0.61172 -1.259408,0.91757 -2.140994,0.91757 h -2.536806 v -6.27905 h 2.536806 c 0.881586,0 1.601247,0.30586 2.140994,0.91758 0.539746,0.59372 0.809619,1.34936 0.809619,2.21295 -0.01799,0.89958 -0.287864,1.63724 -0.809619,2.23095 z m 12.917927,-3.86818 c -0.377822,-0.35982 -0.827612,-0.61171 -1.349366,-0.71966 -0.08996,-0.018 -0.197907,-0.036 -0.305857,-0.036 -0.431796,-0.018 -0.809618,0.018 -1.151458,0.14392 -0.57573,0.19792 -1.04351,0.53976 -1.367357,0.97155 -0.215898,-0.32385 -0.503763,-0.59371 -0.863594,-0.79163 -0.485771,-0.26987 -1.079492,-0.37782 -1.673213,-0.30586 -0.593722,0.072 -1.097484,0.30586 -1.493299,0.71967 0,-0.34184 -0.305856,-0.62971 -0.683678,-0.62971 -0.377823,0 -0.683679,0.28787 -0.683679,0.6477 v 5.41546 c 0,0.35983 0.305856,0.64769 0.683679,0.64769 0.377822,0 0.683678,-0.28786 0.683678,-0.64769 v -3.34643 c 0,-0.50376 0.161924,-0.91757 0.485772,-1.20543 0.305857,-0.28787 0.70167,-0.4318 1.151459,-0.4318 0.431797,0 0.791627,0.14393 1.061501,0.4318 0.287864,0.30585 0.431797,0.70167 0.431797,1.18743 v 3.34643 c 0,0.35984 0.305856,0.6477 0.683679,0.6477 0.377822,0 0.683678,-0.28786 0.683678,-0.6477 v -3.32843 c 0,-0.50376 0.161924,-0.91757 0.485772,-1.20543 0.305855,-0.28787 0.701669,-0.4318 1.151458,-0.4318 0.431798,0 0.791628,0.14393 1.061501,0.4318 0.287865,0.30585 0.431798,0.70167 0.431798,1.18743 v 3.34643 c 0,0.35984 0.305855,0.6477 0.683678,0.6477 0.377823,0 0.683679,-0.28786 0.683679,-0.6477 v -3.36441 c 0.018,-0.80962 -0.251882,-1.4933 -0.791628,-2.03305 z m 7.988244,-0.77364 c -0.377822,0 -0.683679,0.28788 -0.683679,0.6477 v 0.09 c -0.557737,-0.55774 -1.277399,-0.82761 -2.158985,-0.82761 -1.061501,0 -1.925095,0.34184 -2.554799,1.00753 -0.611712,0.66569 -0.935559,1.47531 -0.935559,2.44685 0,0.97154 0.305855,1.78117 0.935559,2.44685 0.647697,0.66569 1.475307,1.00753 2.500825,1.00753 0.93556,0 1.673214,-0.26988 2.230951,-0.82762 v 0.072 c 0,0.35983 0.305856,0.6477 0.683679,0.6477 0.377822,0 0.683678,-0.28787 0.683678,-0.6477 v -5.41545 c -0.03598,-0.35983 -0.323848,-0.6477 -0.70167,-0.6477 z m -1.187441,4.94768 c -0.377823,0.4318 -0.917569,0.6477 -1.583257,0.6477 -0.665687,0 -1.205433,-0.2159 -1.619238,-0.66568 -0.395814,-0.41382 -0.593721,-0.95356 -0.593721,-1.60126 0,-0.64769 0.197907,-1.16945 0.593721,-1.60125 0.413805,-0.43179 0.953551,-0.66568 1.619238,-0.66568 0.665688,0 1.205434,0.2159 1.583257,0.6477 0.377821,0.4138 0.557737,0.95354 0.557737,1.60124 0,0.68368 -0.179916,1.22342 -0.557737,1.63723 z m 6.836788,-4.94768 c -0.4498,0 -0.82762,0.072 -1.151462,0.2159 -0.485768,0.2159 -0.881585,0.52176 -1.151453,0.89958 v -0.35983 c 0,-0.35983 -0.305859,-0.64769 -0.683681,-0.64769 -0.377822,0 -0.68368,0.28786 -0.68368,0.64769 v 5.41546 c 0,0.35983 0.305858,0.6477 0.68368,0.6477 0.377822,0 0.683681,-0.28787 0.683681,-0.6477 v -2.32091 c 0,-0.68368 0.197904,-1.2774 0.611708,-1.78117 0.413804,-0.50376 0.971547,-0.77363 1.637227,-0.77363 h 0.28787 v -1.2954 h -0.23389 z m 6.53093,5.81128 -2.26693,-3.00459 1.72717,-1.60125 c 0.19792,-0.17991 0.2519,-0.44979 0.14394,-0.70167 -0.10794,-0.23389 -0.34184,-0.39581 -0.61171,-0.39581 -0.17991,0 -0.35983,0.072 -0.46778,0.1979 l -2.80668,2.71673 v -4.82174 c 0,-0.34184 -0.30585,-0.6297 -0.66569,-0.6297 h -0.018 c -0.35983,0 -0.66569,0.28786 -0.66569,0.6297 v 7.98825 c 0,0.34184 0.30586,0.62971 0.66569,0.62971 h 0.018 c 0.35984,0 0.66569,-0.28787 0.66569,-0.62971 v -1.4753 l 1.0615,-1.00754 2.08702,2.84267 c 0.12594,0.16192 0.32385,0.26988 0.53975,0.26988 h 0.018 c 0.25188,0 0.46778,-0.12594 0.59373,-0.34184 0.14392,-0.2159 0.12593,-0.46778 -0.018,-0.66569 z m 6.36901,-4.8937 c -0.66569,-0.66569 -1.52929,-1.00753 -2.5728,-1.00753 -1.0435,0 -1.9071,0.34184 -2.57279,1.00753 -0.61171,0.64769 -0.93556,1.45731 -0.93556,2.44685 0,0.97154 0.32385,1.79915 0.97155,2.44685 0.66568,0.66569 1.54727,1.00753 2.59077,1.00753 0.82762,0 1.52929,-0.19792 2.05104,-0.57574 0.28787,-0.1979 0.52175,-0.43179 0.73765,-0.70167 0.14394,-0.19791 0.16193,-0.44979 0.054,-0.66568 -0.10795,-0.2159 -0.34185,-0.34185 -0.59373,-0.34185 -0.2159,0 -0.4318,0.10795 -0.55774,0.28787 -0.35982,0.52175 -0.93556,0.77364 -1.67321,0.77364 -0.61171,0 -1.13346,-0.17993 -1.52928,-0.53974 -0.34184,-0.30587 -0.55773,-0.70168 -0.64769,-1.15146 h 5.39746 c 0.12594,0 0.2159,-0.09 0.2159,-0.2159 v -0.34184 c 0,-0.97155 -0.32385,-1.79916 -0.93556,-2.42886 z m -4.65982,1.76317 c 0.10796,-0.4318 0.32385,-0.79163 0.6297,-1.0615 0.39582,-0.34184 0.88159,-0.50377 1.43933,-0.50377 0.57573,0 1.0615,0.16193 1.43932,0.50377 0.32385,0.26987 0.52175,0.6297 0.62971,1.0615 h -4.13806 z m 9.33761,-2.57279 h -0.93556 v -1.63723 c 0,-0.35984 -0.30585,-0.6477 -0.68368,-0.6477 -0.37782,0 -0.68367,0.28786 -0.68367,0.6477 v 1.63723 h -0.75565 c -0.34184,0 -0.61171,0.26987 -0.61171,0.59372 0,0.32385 0.26987,0.59372 0.61171,0.59372 h 0.75565 v 4.87571 c 0,0.35983 0.30585,0.6477 0.68367,0.6477 0.37783,0 0.68368,-0.28787 0.68368,-0.6477 v -4.87571 h 0.93556 c 0.34185,0 0.61171,-0.26987 0.61171,-0.59372 0,-0.32385 -0.26986,-0.59372 -0.61171,-0.59372 z"
       id="path3455"
       style="opacity:0.8;fill:#ffffff" />
    <g
       id="g4318"
       transform="matrix(1.0982336,0,0,1.0982336,174.28121,-61.490306)">
      <g
         id="flowRoot3505"
         style="font-size:40px;font-style:normal;font-variant:normal;font-weight:normal;font-stretch:normal;line-height:125%;letter-spacing:0px;word-spacing:0px;opacity:0.8;fill:#ffffff;fill-opacity:1;stroke:#ffffff;stroke-width:4.49999952;stroke-miterlimit:4;font-family:Comfortaa;-inkscape-font-specification:Comfortaa"
         transform="translate(0,768.89763)">
        <path
           sodipodi:nodetypes="ccccsscccscccscccssccccsccccc"
           inkscape:connector-curvature="0"
           id="path4290"
           d="m 174.53125,46.78125 -0.65625,0.125 -2,0.59375 -0.21875,0.0625 c -1.01003,0.216941 -1.89473,0.483742 -2.6875,0.9375 -0.85605,0.489976 -1.875,1.523789 -1.875,2.90625 l 0,0.375 0,0.28125 0.0625,0.25 c 0.16828,0.683058 0.4494,1.372697 1.03125,2 0.58185,0.627303 1.54971,1.062534 2.40625,1.0625 0.12832,8e-6 0.22576,-0.08704 0.34375,-0.09375 l 0,20.59375 c -1e-5,0.870038 0.4644,1.881552 1.125,2.46875 0.6606,0.587198 1.3543,0.821209 2.0625,0.96875 l 0.25,0.0625 0.21875,0 0.0937,0 c 0.84174,0 1.83105,-0.362304 2.5,-1.03125 0.66895,-0.668946 0.95623,-1.4884 1.09375,-2.25 l 0.0625,-0.1875 0,-0.1875 0,-25.40625 c -1e-5,-0.835512 -0.3933,-1.827692 -1.03125,-2.4375 -0.63795,-0.609808 -1.36304,-0.876935 -2.0625,-1.03125 l -0.25,-0.0625 -0.25,0 -0.21875,0 z"
           style="font-size:medium;font-style:normal;font-variant:normal;font-weight:normal;font-stretch:normal;text-indent:0;text-align:start;text-decoration:none;line-height:125%;letter-spacing:0;word-spacing:0;text-transform:none;direction:ltr;block-progression:tb;writing-mode:lr-tb;text-anchor:start;baseline-shift:baseline;color:#000000;fill:#ffffff;fill-opacity:1;fill-rule:nonzero;stroke:none;stroke-width:4.49999952;marker:none;visibility:visible;display:inline;overflow:visible;enable-background:accumulate;font-family:Comfortaa;-inkscape-font-specification:Comfortaa" />
      </g>
      <g
         style="opacity:0.8"
         id="g4294"
         transform="matrix(0.11470267,0,0,0.11470267,135.20747,742.05902)">
        <path
           class="st0"
           d="m 443.69286,843.59077 c -0.1,0.1 -0.1,0.1 0,0 -0.1,0.1 0,0.1 0,0.1 v -0.1 z"
           id="path4296"
           inkscape:connector-curvature="0"
           style="fill:#ffffff" />
        <path
           class="st1"
           d="m 494.49286,850.69077 c 2.5,-4.3 2.5,-9.7 0,-14.1 l -19.5,-33.8 -19.7,-34.1 c -1.2,-2 -2.8,-3.7 -4.7,-4.9 0,0 0,0 0,0 -1.9,1.2 -3.6,2.9 -4.7,4.9 l -14.9,25.5 c -2.1,3.7 -2.1,8.2 0,11.8 l 17.7,30.7 c 1.3,2.2 1.9,4.6 1.9,7 v 0 c 0,2.4 -0.6,4.9 -1.9,7 l -17.7,30.7 c -2.1,3.7 -2.1,8.2 0,11.8 l 14.8,25.5 c 1.2,2 2.8,3.7 4.7,4.9 0,0 0,0 0,0 1.9,-1.2 3.6,-2.9 4.7,-4.9 l 19.7,-34.2 19.6,-33.8 z"
           id="path4298"
           style="opacity:0.25;fill:url(#linearGradient4330)"
           inkscape:connector-curvature="0" />
        <path
           class="st2"
           d="m 589.59286,851.69077 c 2.9,-5 2.9,-11.1 0,-16 l -19.6,-34 -20.3,-35 c -1,-1.7 -2.2,-3.1 -3.7,-4.2 -0.7,-0.6 -1.6,-0.8 -2.5,-0.8 -10.2,0 -17.2,0.4 -22.4,0.4 -0.9,0 -1.6,0.8 -1.5,1.8 1.1,6 4.5,25.1 5.1,28.6 0.1,0.3 0,0.7 -0.2,1 -1.9,3.7 -1.8,8.1 0.3,11.7 l 18.2,31.5 c 1.3,2.2 1.9,4.7 1.9,7.2 v 0 c 0,2.5 -0.6,5 -1.9,7.2 l -18.2,31.5 c -2.1,3.6 -2.2,8 -0.3,11.7 0.2,0.3 0.2,0.7 0.2,1 -0.6,3.4 -4,22.4 -5.1,28.4 -0.2,0.9 0.5,1.8 1.5,1.8 4.2,0 -1.7,0.5 23,0.5 0.5,0 1.2,-0.2 1.6,-0.4 1.8,-0.7 2.9,-2.9 4,-4.6 l 20.3,-35.1 19.6,-34.2 z"
           id="path4300"
           style="opacity:0.25;fill:url(#linearGradient4332)"
           inkscape:connector-curvature="0" />
        <path
           class="st0"
           d="m 443.69286,843.69077 0,0 0,0 z"
           id="path4302"
           inkscape:connector-curvature="0"
           style="fill:#ffffff" />
        <path
           class="st0"
           d="m 443.69286,843.69077 0,0 0,0 z"
           id="path4304"
           inkscape:connector-curvature="0"
           style="fill:#ffffff" />
        <path
           class="st3"
           d="m 580.69286,836.49077 -39.2,-67.9 c -2.5,-4.3 -7.2,-7 -12.2,-7 h -39.9 -38.4 c -2.6,0 -5.2,0.7 -7.3,2.1 v 0 c 1.9,1.2 3.5,2.8 4.7,4.8 l 19.7,34.1 c 1.8,-0.9 3.9,-1.3 6,-1.3 h 15.5 17 c 5,0 9.7,2.7 12.2,7 l 16.2,28.1 c 2.5,4.3 2.5,9.7 0,14.1 l -16.3,28.2 c -2.5,4.3 -7.2,7 -12.2,7 h -17 -15.5 c -2.1,0 -4.1,-0.5 -6,-1.3 l -19.7,34.1 c -1.2,2 -2.8,3.6 -4.7,4.8 v 0 c 2.2,1.3 4.7,2.1 7.3,2.1 h 38.4 39.9 c 5,0 9.7,-2.7 12.2,-7 l 39.2,-67.9 c 2.6,-4.3 2.6,-9.7 0.1,-14 z"
           id="path4306"
           style="fill:url(#linearGradient4334)"
           inkscape:connector-curvature="0" />
        <path
           class="st4"
           d="m 487.59286,850.69077 c 2.5,-4.3 2.5,-9.7 0,-14.1 l -19.6,-33.8 -19.7,-34.1 c -1.2,-2 -2.8,-3.7 -4.7,-4.9 0,0 0,0 0,0 -1.9,1.2 -3.6,2.9 -4.7,4.9 l -14.8,25.5 c -2.1,3.7 -2.1,8.2 0,11.8 l 17.7,30.7 c 1.3,2.2 1.9,4.6 1.9,7 v 0 c 0,2.4 -0.6,4.9 -1.9,7 l -17.7,30.7 c -2.1,3.7 -2.1,8.2 0,11.8 l 14.7,25.5 c 1.2,2 2.8,3.7 4.7,4.9 0,0 0,0 0,0 1.9,-1.2 3.6,-2.9 4.7,-4.9 l 19.7,-34.2 19.7,-33.8 z"
           id="path4308"
           style="fill:url(#linearGradient4336)"
           inkscape:connector-curvature="0" />
      </g>
    </g>
  </g>
</svg>
