<?xml version="1.0" encoding="UTF-8" standalone="no"?>
<!-- Created with Inkscape (http://www.inkscape.org/) -->

<svg
   xmlns:dc="http://purl.org/dc/elements/1.1/"
   xmlns:cc="http://creativecommons.org/ns#"
   xmlns:rdf="http://www.w3.org/1999/02/22-rdf-syntax-ns#"
   xmlns:svg="http://www.w3.org/2000/svg"
   xmlns="http://www.w3.org/2000/svg"
   xmlns:xlink="http://www.w3.org/1999/xlink"
   xmlns:sodipodi="http://sodipodi.sourceforge.net/DTD/sodipodi-0.dtd"
   xmlns:inkscape="http://www.inkscape.org/namespaces/inkscape"
   width="460.62991"
   height="283.46457"
   id="svg2"
   version="1.1"
   inkscape:version="0.48.5 r10040"
   sodipodi:docname="doge.svg"
   inkscape:export-filename="/home/mammique/Documents/daat/banknote/cryptos/dash.png"
   inkscape:export-xdpi="156.31"
   inkscape:export-ydpi="156.31">
  <defs
     id="defs4">
    <linearGradient
       id="linearGradient4925">
      <stop
         style="stop-color:#bd9800;stop-opacity:1;"
         offset="0"
         id="stop4927" />
      <stop
         id="stop3784"
         offset="0.51732481"
         style="stop-color:#ffcc04;stop-opacity:1;" />
      <stop
         offset="1"
         id="stop4929"
         style="stop-color:#a98500;stop-opacity:1;" />
    </linearGradient>
    <linearGradient
       id="linearGradient4835">
      <stop
         style="stop-color:#000000;stop-opacity:0.61572052"
         offset="0"
         id="stop4837" />
      <stop
         style="stop-color:#000000;stop-opacity:0;"
         offset="1"
         id="stop4839" />
    </linearGradient>
    <linearGradient
       inkscape:collect="always"
       id="linearGradient4531">
      <stop
         style="stop-color:#ffffff;stop-opacity:1;"
         offset="0"
         id="stop4533" />
      <stop
         style="stop-color:#ffffff;stop-opacity:0;"
         offset="1"
         id="stop4535" />
    </linearGradient>
    <clipPath
       clipPathUnits="userSpaceOnUse"
       id="clipPath5978">
      <rect
         style="color:#000000;fill:#cccccc;fill-opacity:1;fill-rule:nonzero;stroke:#003a00;stroke-width:0.89999998;stroke-linecap:butt;stroke-linejoin:miter;stroke-miterlimit:4;stroke-opacity:1;stroke-dasharray:none;stroke-dashoffset:0;marker:none;visibility:visible;display:inline;overflow:visible;enable-background:accumulate"
         id="rect5980"
         width="173.74623"
         height="1608.1628"
         x="610.13214"
         y="-378.01382"
         transform="matrix(0,-1,1,0,0,0)" />
    </clipPath>
    <inkscape:perspective
       id="perspective2497"
       inkscape:persp3d-origin="372.04724 : 350.78739 : 1"
       inkscape:vp_z="744.09448 : 526.18109 : 1"
       inkscape:vp_y="0 : 1000 : 0"
       inkscape:vp_x="0 : 526.18109 : 1"
       sodipodi:type="inkscape:persp3d" />
    <linearGradient
       inkscape:collect="always"
       xlink:href="#linearGradient4531"
       id="linearGradient4823"
       gradientUnits="userSpaceOnUse"
       x1="182.81697"
       y1="175.83376"
       x2="183.58928"
       y2="-16.309107"
       gradientTransform="translate(53.033008,825.69937)" />
    <radialGradient
       inkscape:collect="always"
       xlink:href="#linearGradient4835"
       id="radialGradient4845"
       cx="7.3256431"
       cy="198.2952"
       fx="7.3256431"
       fy="198.2952"
       r="109.27257"
       gradientTransform="matrix(0.19829552,0.15553474,-0.16582027,0.21140881,93.302602,945.5672)"
       gradientUnits="userSpaceOnUse" />
    <linearGradient
       id="linearGradient4925-6">
      <stop
         style="stop-color:#bd9800;stop-opacity:1;"
         offset="0"
         id="stop4927-7" />
      <stop
         id="stop3784-5"
         offset="0.5"
         style="stop-color:#ffcc04;stop-opacity:1;" />
      <stop
         offset="1"
         id="stop4929-3"
         style="stop-color:#a98500;stop-opacity:1;" />
    </linearGradient>
    <linearGradient
       gradientTransform="translate(-17.649337,-11.359598)"
       y2="38.317909"
       x2="313.61914"
       y1="142.8687"
       x1="50.479298"
       gradientUnits="userSpaceOnUse"
       id="linearGradient3802"
       xlink:href="#linearGradient4925-6"
       inkscape:collect="always" />
    <linearGradient
       id="linearGradient4925-2">
      <stop
         style="stop-color:#bd9800;stop-opacity:1;"
         offset="0"
         id="stop4927-3" />
      <stop
         id="stop3784-7"
         offset="0.38554054"
         style="stop-color:#ffcc04;stop-opacity:1;" />
      <stop
         offset="1"
         id="stop4929-5"
         style="stop-color:#a98500;stop-opacity:1;" />
    </linearGradient>
    <linearGradient
       y2="38.317909"
       x2="313.61914"
       y1="83.269699"
       x1="19.16457"
       gradientTransform="translate(-17.649337,-11.359581)"
       gradientUnits="userSpaceOnUse"
       id="linearGradient4077"
       xlink:href="#linearGradient4925-2"
       inkscape:collect="always" />
    <linearGradient
       id="linearGradient4925-28">
      <stop
         style="stop-color:#bd9800;stop-opacity:1;"
         offset="0"
         id="stop4927-9" />
      <stop
         id="stop3784-73"
         offset="0.51732481"
         style="stop-color:#ffcc04;stop-opacity:1;" />
      <stop
         offset="1"
         id="stop4929-6"
         style="stop-color:#a98500;stop-opacity:1;" />
    </linearGradient>
    <linearGradient
       y2="19.746481"
       x2="180.76199"
       y1="166.12685"
       x1="180.59314"
       gradientTransform="translate(-17.649337,-11.359581)"
       gradientUnits="userSpaceOnUse"
       id="linearGradient4113"
       xlink:href="#linearGradient4925-28"
       inkscape:collect="always" />
    <linearGradient
       id="linearGradient4925-7">
      <stop
         style="stop-color:#bd9800;stop-opacity:1;"
         offset="0"
         id="stop4927-5" />
      <stop
         id="stop3784-3"
         offset="0.51732481"
         style="stop-color:#ffcc04;stop-opacity:1;" />
      <stop
         offset="1"
         id="stop4929-56"
         style="stop-color:#a98500;stop-opacity:1;" />
    </linearGradient>
    <linearGradient
       y2="19.746481"
       x2="180.76199"
       y1="166.12685"
       x1="180.59314"
       gradientTransform="translate(-17.649337,-11.359581)"
       gradientUnits="userSpaceOnUse"
       id="linearGradient3327"
       xlink:href="#linearGradient4925-7"
       inkscape:collect="always" />
    <linearGradient
       id="linearGradient4925-7-1">
      <stop
         style="stop-color:#bd9800;stop-opacity:1;"
         offset="0"
         id="stop4927-5-2" />
      <stop
         id="stop3784-3-7"
         offset="0.51732481"
         style="stop-color:#ffcc04;stop-opacity:1;" />
      <stop
         offset="1"
         id="stop4929-56-0"
         style="stop-color:#a98500;stop-opacity:1;" />
    </linearGradient>
    <linearGradient
       y2="19.032196"
       x2="138.61914"
       y1="166.12685"
       x1="180.59314"
       gradientTransform="translate(-17.649337,-7.9568844)"
       gradientUnits="userSpaceOnUse"
       id="linearGradient3455"
       xlink:href="#linearGradient4925-7-1"
       inkscape:collect="always" />
    <linearGradient
       inkscape:collect="always"
       xlink:href="#linearGradient4925-7-6"
       id="linearGradient3350-3"
       gradientUnits="userSpaceOnUse"
       gradientTransform="translate(54.548237,823.78353)"
       x1="180.59314"
       y1="166.12685"
       x2="138.61914"
       y2="19.032196" />
    <linearGradient
       id="linearGradient4925-7-6">
      <stop
         style="stop-color:#bd9800;stop-opacity:1;"
         offset="0"
         id="stop4927-5-0" />
      <stop
         id="stop3784-3-6"
         offset="0.51732481"
         style="stop-color:#ffcc04;stop-opacity:1;" />
      <stop
         offset="1"
         id="stop4929-56-2"
         style="stop-color:#a98500;stop-opacity:1;" />
    </linearGradient>
    <linearGradient
       y2="19.032196"
       x2="138.61914"
       y1="166.12685"
       x1="180.59314"
       gradientTransform="translate(-17.649337,-7.9568844)"
       gradientUnits="userSpaceOnUse"
       id="linearGradient3491"
       xlink:href="#linearGradient4925-7-6"
       inkscape:collect="always" />
    <linearGradient
       id="linearGradient4835-7">
      <stop
         style="stop-color:#000000;stop-opacity:0.61572052"
         offset="0"
         id="stop4837-5" />
      <stop
         style="stop-color:#000000;stop-opacity:0;"
         offset="1"
         id="stop4839-9" />
    </linearGradient>
    <radialGradient
       r="109.27257"
       fy="198.2952"
       fx="7.3256431"
       cy="198.2952"
       cx="7.3256431"
       gradientTransform="matrix(0.19829552,0.15553474,-0.16582027,0.21140881,132.487,52.51516)"
       gradientUnits="userSpaceOnUse"
       id="radialGradient3545"
       xlink:href="#linearGradient4835-7"
       inkscape:collect="always" />
    <linearGradient
       id="linearGradient4835-8">
      <stop
         style="stop-color:#000000;stop-opacity:0.61572052"
         offset="0"
         id="stop4837-9" />
      <stop
         style="stop-color:#000000;stop-opacity:0;"
         offset="1"
         id="stop4839-7" />
    </linearGradient>
    <radialGradient
       r="109.27257"
       fy="198.2952"
       fx="7.3256431"
       cy="198.2952"
       cx="7.3256431"
       gradientTransform="matrix(0.19829552,0.15553474,-0.16582027,0.21140881,132.487,52.51516)"
       gradientUnits="userSpaceOnUse"
       id="radialGradient3578"
       xlink:href="#linearGradient4835-8"
       inkscape:collect="always" />
    <linearGradient
       inkscape:collect="always"
       xlink:href="#linearGradient4925-7-6-1"
       id="linearGradient3350-3-6"
       gradientUnits="userSpaceOnUse"
       gradientTransform="translate(54.548237,823.78353)"
       x1="180.59314"
       y1="166.12685"
       x2="138.61914"
       y2="19.032196" />
    <linearGradient
       id="linearGradient4925-7-6-1">
      <stop
         style="stop-color:#bd9800;stop-opacity:1;"
         offset="0"
         id="stop4927-5-0-2" />
      <stop
         id="stop3784-3-6-9"
         offset="0.51732481"
         style="stop-color:#ffcc04;stop-opacity:1;" />
      <stop
         offset="1"
         id="stop4929-56-2-3"
         style="stop-color:#a98500;stop-opacity:1;" />
    </linearGradient>
    <linearGradient
       y2="19.032196"
       x2="138.61914"
       y1="166.12685"
       x1="180.59314"
       gradientTransform="translate(-17.649337,-14.676051)"
       gradientUnits="userSpaceOnUse"
       id="linearGradient3612"
       xlink:href="#linearGradient4925-7-6-1"
       inkscape:collect="always" />
  </defs>
  <sodipodi:namedview
     id="base"
     pagecolor="#5271a5"
     bordercolor="#666666"
     borderopacity="1.0"
     inkscape:pageopacity="1"
     inkscape:pageshadow="2"
     inkscape:zoom="2"
     inkscape:cx="300.54246"
     inkscape:cy="174.42926"
     inkscape:document-units="px"
     inkscape:current-layer="layer1"
     showgrid="false"
     units="mm"
     inkscape:window-width="1918"
     inkscape:window-height="1059"
     inkscape:window-x="1366"
     inkscape:window-y="19"
     inkscape:window-maximized="1"
     showguides="true"
     inkscape:guide-bbox="true" />
  <metadata
     id="metadata7">
    <rdf:RDF>
      <cc:Work
         rdf:about="">
        <dc:format>image/svg+xml</dc:format>
        <dc:type
           rdf:resource="http://purl.org/dc/dcmitype/StillImage" />
        <dc:title></dc:title>
      </cc:Work>
    </rdf:RDF>
  </metadata>
  <g
     inkscape:label="Calque 1"
     inkscape:groupmode="layer"
     id="layer1"
     transform="translate(0,-768.89763)">
    <g
       transform="translate(-17.005714,803.86405)"
       style="font-size:10px;font-style:normal;font-variant:normal;font-weight:bold;font-stretch:normal;line-height:125%;letter-spacing:0px;word-spacing:0px;opacity:0.8;color:#000000;fill:#ffffff;fill-opacity:1;fill-rule:nonzero;stroke:none;stroke-width:1;marker:none;visibility:visible;display:inline;overflow:visible;enable-background:accumulate;font-family:Sans;-inkscape-font-specification:Sans Bold"
       id="flowRoot3092">
      <path
         d="m 87.141602,32.004601 0,4.448242 0.673828,0 c 0.768225,2e-6 1.354162,-0.190428 1.757812,-0.571289 0.406896,-0.380857 0.610346,-0.934242 0.610352,-1.660156 -6e-6,-0.722652 -0.201829,-1.272782 -0.605469,-1.650391 -0.403651,-0.377598 -0.991215,-0.5664 -1.762695,-0.566406 l -0.673828,0 m -1.879883,-1.420898 1.982422,0 c 1.106766,7e-6 1.930333,0.07976 2.470703,0.239257 0.543614,0.156257 1.009108,0.423184 1.396484,0.800782 0.34179,0.328782 0.595696,0.708013 0.761719,1.137695 0.166008,0.429692 0.249016,0.916345 0.249023,1.459961 -7e-6,0.550133 -0.08301,1.041669 -0.249023,1.474609 -0.166023,0.429689 -0.419929,0.808921 -0.761719,1.137696 -0.390631,0.377604 -0.859381,0.646159 -1.40625,0.805664 -0.54688,0.15625 -1.367191,0.234375 -2.460937,0.234375 l -1.982422,0 0,-7.290039"
         style="marker:none"
         id="path3193" />
      <path
         d="m 96.892578,31.814171 c -0.57292,6e-6 -1.017256,0.211595 -1.333008,0.634766 -0.315757,0.423182 -0.473635,1.018885 -0.473633,1.787109 -2e-6,0.764977 0.157876,1.359052 0.473633,1.782227 0.315752,0.423178 0.760088,0.634767 1.333008,0.634765 0.576167,2e-6 1.02213,-0.211587 1.337891,-0.634765 0.315749,-0.423175 0.473627,-1.01725 0.473633,-1.782227 -6e-6,-0.768224 -0.157884,-1.363927 -0.473633,-1.787109 -0.315761,-0.423171 -0.761724,-0.63476 -1.337891,-0.634766 m 0,-1.362304 c 1.17187,7e-6 2.089838,0.335293 2.753906,1.005859 0.664056,0.670579 0.996086,1.596684 0.996096,2.77832 -10e-6,1.178388 -0.33204,2.102866 -0.996096,2.773438 -0.664068,0.670573 -1.582036,1.005859 -2.753906,1.005859 -1.168623,0 -2.086591,-0.335286 -2.753906,-1.005859 -0.664063,-0.670572 -0.996094,-1.59505 -0.996094,-2.773438 0,-1.181636 0.332031,-2.107741 0.996094,-2.77832 0.667315,-0.670566 1.585283,-1.005852 2.753906,-1.005859"
         style="marker:none"
         id="path3195" />
      <path
         d="m 108.61133,37.331749 c -0.46876,0.227865 -0.95541,0.398764 -1.45996,0.512696 -0.50457,0.113932 -1.0254,0.170898 -1.5625,0.170898 -1.2142,0 -2.17611,-0.338541 -2.88574,-1.015625 -0.70964,-0.680337 -1.06446,-1.60156 -1.06446,-2.763672 0,-1.175125 0.36133,-2.099603 1.08399,-2.773437 0.72265,-0.673821 1.71223,-1.010735 2.96875,-1.010742 0.48502,7e-6 0.94888,0.04558 1.3916,0.136718 0.44595,0.09115 0.86588,0.226244 1.25976,0.405274 l 0,1.508789 c -0.4069,-0.231114 -0.81218,-0.40364 -1.21582,-0.517578 -0.40039,-0.113927 -0.80241,-0.170893 -1.20605,-0.170899 -0.7487,6e-6 -1.3265,0.209967 -1.7334,0.629883 -0.40365,0.416672 -0.60547,1.014002 -0.60547,1.791992 0,0.771488 0.19531,1.36719 0.58594,1.78711 0.39062,0.419923 0.94563,0.629884 1.66504,0.629882 0.19531,2e-6 0.37597,-0.01139 0.54199,-0.03418 0.16927,-0.02604 0.32063,-0.0651 0.4541,-0.117188 l 0,-1.416015 -1.14746,0 0,-1.259766 2.92969,0 0,3.505859"
         style="marker:none"
         id="path3197" />
      <path
         d="m 110.26172,30.583703 5.07324,0 0,1.420898 -3.19336,0 0,1.357422 3.00293,0 0,1.420898 -3.00293,0 0,1.669922 3.30078,0 0,1.420899 -5.18066,0 0,-7.290039"
         style="marker:none"
         id="path3199" />
      <path
         d="m 122.87891,37.473351 c -0.34506,0.179037 -0.70476,0.314128 -1.07911,0.405273 -0.37435,0.09115 -0.76497,0.136719 -1.17187,0.136719 -1.2142,0 -2.17611,-0.338541 -2.88574,-1.015625 -0.70964,-0.680337 -1.06446,-1.60156 -1.06446,-2.763672 0,-1.165359 0.35482,-2.086583 1.06446,-2.763672 0.70963,-0.680331 1.67154,-1.0205 2.88574,-1.020507 0.4069,7e-6 0.79752,0.04558 1.17187,0.136718 0.37435,0.09115 0.73405,0.226244 1.07911,0.405274 l 0,1.508789 c -0.34832,-0.237625 -0.69174,-0.411778 -1.03028,-0.522461 -0.33854,-0.110671 -0.69499,-0.16601 -1.06933,-0.166016 -0.67058,6e-6 -1.19792,0.21485 -1.58203,0.644532 -0.38412,0.429692 -0.57618,1.022139 -0.57618,1.777343 0,0.751956 0.19206,1.342776 0.57618,1.772461 0.38411,0.429689 0.91145,0.644533 1.58203,0.644531 0.37434,2e-6 0.73079,-0.05534 1.06933,-0.166015 0.33854,-0.110676 0.68196,-0.284829 1.03028,-0.522461 l 0,1.508789"
         style="marker:none"
         id="path3201" />
      <path
         d="m 127.77148,31.814171 c -0.57292,6e-6 -1.01725,0.211595 -1.333,0.634766 -0.31576,0.423182 -0.47364,1.018885 -0.47364,1.787109 0,0.764977 0.15788,1.359052 0.47364,1.782227 0.31575,0.423178 0.76008,0.634767 1.333,0.634765 0.57617,2e-6 1.02213,-0.211587 1.33789,-0.634765 0.31575,-0.423175 0.47363,-1.01725 0.47364,-1.782227 -1e-5,-0.768224 -0.15789,-1.363927 -0.47364,-1.787109 -0.31576,-0.423171 -0.76172,-0.63476 -1.33789,-0.634766 m 0,-1.362304 c 1.17187,7e-6 2.08984,0.335293 2.75391,1.005859 0.66406,0.670579 0.99609,1.596684 0.99609,2.77832 0,1.178388 -0.33203,2.102866 -0.99609,2.773438 -0.66407,0.670573 -1.58204,1.005859 -2.75391,1.005859 -1.16862,0 -2.08659,-0.335286 -2.7539,-1.005859 -0.66407,-0.670572 -0.9961,-1.59505 -0.9961,-2.773438 0,-1.181636 0.33203,-2.107741 0.9961,-2.77832 0.66731,-0.670566 1.58528,-1.005852 2.7539,-1.005859"
         style="marker:none"
         id="path3203" />
      <path
         d="m 132.9375,30.583703 1.87988,0 0,7.290039 -1.87988,0 0,-7.290039"
         style="marker:none"
         id="path3205" />
      <path
         d="m 136.66797,30.583703 2.09961,0 2.65137,5 0,-5 1.78222,0 0,7.290039 -2.09961,0 -2.65136,-5 0,5 -1.78223,0 0,-7.290039"
         style="marker:none"
         id="path3207" />
    </g>
    <g
       id="g3261">
      <path
         transform="translate(0,768.89763)"
         d="m 160.86679,141.2856 a 24.496199,25.001276 0 1 1 -48.9924,0 24.496199,25.001276 0 1 1 48.9924,0 z"
         sodipodi:ry="25.001276"
         sodipodi:rx="24.496199"
         sodipodi:cy="141.2856"
         sodipodi:cx="136.37059"
         id="path3165"
         style="opacity:1;color:#000000;fill:#c2a633;fill-opacity:1;fill-rule:nonzero;stroke:none;stroke-width:1;marker:none;visibility:visible;display:inline;overflow:visible;enable-background:accumulate;stroke-linecap:butt;stroke-linejoin:miter;stroke-miterlimit:4;stroke-opacity:1;stroke-dasharray:none;stroke-dashoffset:0"
         sodipodi:type="arc" />
      <path
         inkscape:connector-curvature="0"
         id="path3158"
         d="m 136.1875,880.49138 c -16.93914,0 -30.65625,13.71711 -30.65625,30.65625 0,16.93914 13.71711,30.6875 30.65625,30.6875 16.93914,0 30.6875,-13.74836 30.6875,-30.6875 0,-16.93914 -13.74836,-30.65625 -30.6875,-30.65625 z m -9.90625,14.0625 9.53125,0 c 2.25522,0 17.1875,-0.4463 17.1875,16.875 0,17.60776 -15.59375,16.28125 -15.59375,16.28125 l -11.125,0 0,-14.75 -3.90625,0 0,-3.625 3.90625,0 0,-14.78125 z m 6.25,6.125 0,8.65625 6.90625,0 0,3.625 -6.90625,0 0,8.625 4.59375,0 c 1.18113,0 9.70068,0.12233 9.6875,-10.0625 -0.0132,-10.18483 -8.23596,-10.84375 -9.875,-10.84375 l -4.40625,0 z"
         style="fill:#4d4d4d" />
    </g>
    <g
       id="g3232"
       transform="matrix(0.8515487,0,0,0.8515487,158.27011,112.6451)">
      <path
         sodipodi:nodetypes="csscccccccccccccsssc"
         inkscape:connector-curvature="0"
         id="path3119"
         d="m 253.96875,847.48146 9.5625,0 c 2.25522,0 17.1875,-0.47755 17.1875,16.84375 0,17.60776 -15.625,16.3125 -15.625,16.3125 l -11.09375,0 0,-14.78125 -3.9375,0 0,-3.59375 3.90625,0 z m 6.28125,6.125 0,8.65625 6.875,0 0,3.59375 -6.875,0 0,8.65625 4.59375,0 c 1.18113,0 9.70068,0.12233 9.6875,-10.0625 -0.0132,-10.18483 -8.26721,-10.84375 -9.90625,-10.84375 z"
         style="opacity:0.8;color:#000000;fill:#ffffff;fill-opacity:1;fill-rule:nonzero;stroke:none;stroke-width:4.55127859;marker:none;visibility:visible;display:inline;overflow:visible;enable-background:accumulate" />
      <g
         transform="matrix(4.5512788,0,0,4.5512788,-165.54453,708.28513)"
         style="font-size:10px;font-style:normal;font-variant:normal;font-weight:bold;font-stretch:normal;line-height:125%;letter-spacing:0px;word-spacing:0px;opacity:0.8;color:#000000;fill:#ffffff;fill-opacity:1;fill-rule:nonzero;stroke:none;stroke-width:1;marker:none;visibility:visible;display:inline;overflow:visible;enable-background:accumulate;font-family:Sans;-inkscape-font-specification:Sans Bold"
         id="flowRoot3184">
        <path
           d="m 85.515625,36.574913 1.660156,0 0,-4.711914 -1.704101,0.351563 0,-1.279297 1.694336,-0.351562 1.787109,0 0,5.99121 1.660156,0 0,1.298829 -5.097656,0 0,-1.298829"
           style="marker:none"
           id="path3240" />
      </g>
    </g>
  </g>
</svg>
