<?xml version="1.0" encoding="UTF-8" standalone="no"?>
<!-- Created with Inkscape (http://www.inkscape.org/) -->

<svg
   xmlns:dc="http://purl.org/dc/elements/1.1/"
   xmlns:cc="http://creativecommons.org/ns#"
   xmlns:rdf="http://www.w3.org/1999/02/22-rdf-syntax-ns#"
   xmlns:svg="http://www.w3.org/2000/svg"
   xmlns="http://www.w3.org/2000/svg"
   xmlns:xlink="http://www.w3.org/1999/xlink"
   xmlns:sodipodi="http://sodipodi.sourceforge.net/DTD/sodipodi-0.dtd"
   xmlns:inkscape="http://www.inkscape.org/namespaces/inkscape"
   width="460.62991"
   height="283.46457"
   id="svg2"
   version="1.1"
   inkscape:version="0.48.5 r10040"
   sodipodi:docname="icx.svg"
   inkscape:export-filename="/home/mammique/Documents/daat/banknote/cryptos/dash.png"
   inkscape:export-xdpi="156.31"
   inkscape:export-ydpi="156.31">
  <defs
     id="defs4">
    <linearGradient
       id="linearGradient4925">
      <stop
         style="stop-color:#bd9800;stop-opacity:1;"
         offset="0"
         id="stop4927" />
      <stop
         id="stop3784"
         offset="0.51732481"
         style="stop-color:#ffcc04;stop-opacity:1;" />
      <stop
         offset="1"
         id="stop4929"
         style="stop-color:#a98500;stop-opacity:1;" />
    </linearGradient>
    <linearGradient
       id="linearGradient4835">
      <stop
         style="stop-color:#000000;stop-opacity:0.61572052"
         offset="0"
         id="stop4837" />
      <stop
         style="stop-color:#000000;stop-opacity:0;"
         offset="1"
         id="stop4839" />
    </linearGradient>
    <linearGradient
       inkscape:collect="always"
       id="linearGradient4531">
      <stop
         style="stop-color:#ffffff;stop-opacity:1;"
         offset="0"
         id="stop4533" />
      <stop
         style="stop-color:#ffffff;stop-opacity:0;"
         offset="1"
         id="stop4535" />
    </linearGradient>
    <clipPath
       clipPathUnits="userSpaceOnUse"
       id="clipPath5978">
      <rect
         style="color:#000000;fill:#cccccc;fill-opacity:1;fill-rule:nonzero;stroke:#003a00;stroke-width:0.89999998;stroke-linecap:butt;stroke-linejoin:miter;stroke-miterlimit:4;stroke-opacity:1;stroke-dasharray:none;stroke-dashoffset:0;marker:none;visibility:visible;display:inline;overflow:visible;enable-background:accumulate"
         id="rect5980"
         width="173.74623"
         height="1608.1628"
         x="610.13214"
         y="-378.01382"
         transform="matrix(0,-1,1,0,0,0)" />
    </clipPath>
    <inkscape:perspective
       id="perspective2497"
       inkscape:persp3d-origin="372.04724 : 350.78739 : 1"
       inkscape:vp_z="744.09448 : 526.18109 : 1"
       inkscape:vp_y="0 : 1000 : 0"
       inkscape:vp_x="0 : 526.18109 : 1"
       sodipodi:type="inkscape:persp3d" />
    <linearGradient
       inkscape:collect="always"
       xlink:href="#linearGradient4531"
       id="linearGradient4823"
       gradientUnits="userSpaceOnUse"
       x1="182.81697"
       y1="175.83376"
       x2="183.58928"
       y2="-16.309107"
       gradientTransform="translate(53.033008,825.69937)" />
    <radialGradient
       inkscape:collect="always"
       xlink:href="#linearGradient4835"
       id="radialGradient4845"
       cx="7.3256431"
       cy="198.2952"
       fx="7.3256431"
       fy="198.2952"
       r="109.27257"
       gradientTransform="matrix(0.19829552,0.15553474,-0.16582027,0.21140881,93.302602,945.5672)"
       gradientUnits="userSpaceOnUse" />
    <linearGradient
       id="linearGradient4925-6">
      <stop
         style="stop-color:#bd9800;stop-opacity:1;"
         offset="0"
         id="stop4927-7" />
      <stop
         id="stop3784-5"
         offset="0.5"
         style="stop-color:#ffcc04;stop-opacity:1;" />
      <stop
         offset="1"
         id="stop4929-3"
         style="stop-color:#a98500;stop-opacity:1;" />
    </linearGradient>
    <linearGradient
       gradientTransform="translate(-17.649337,-11.359598)"
       y2="38.317909"
       x2="313.61914"
       y1="142.8687"
       x1="50.479298"
       gradientUnits="userSpaceOnUse"
       id="linearGradient3802"
       xlink:href="#linearGradient4925-6"
       inkscape:collect="always" />
    <linearGradient
       id="linearGradient4925-2">
      <stop
         style="stop-color:#bd9800;stop-opacity:1;"
         offset="0"
         id="stop4927-3" />
      <stop
         id="stop3784-7"
         offset="0.38554054"
         style="stop-color:#ffcc04;stop-opacity:1;" />
      <stop
         offset="1"
         id="stop4929-5"
         style="stop-color:#a98500;stop-opacity:1;" />
    </linearGradient>
    <linearGradient
       y2="38.317909"
       x2="313.61914"
       y1="83.269699"
       x1="19.16457"
       gradientTransform="translate(-17.649337,-11.359581)"
       gradientUnits="userSpaceOnUse"
       id="linearGradient4077"
       xlink:href="#linearGradient4925-2"
       inkscape:collect="always" />
    <linearGradient
       id="linearGradient4925-28">
      <stop
         style="stop-color:#bd9800;stop-opacity:1;"
         offset="0"
         id="stop4927-9" />
      <stop
         id="stop3784-73"
         offset="0.51732481"
         style="stop-color:#ffcc04;stop-opacity:1;" />
      <stop
         offset="1"
         id="stop4929-6"
         style="stop-color:#a98500;stop-opacity:1;" />
    </linearGradient>
    <linearGradient
       y2="19.746481"
       x2="180.76199"
       y1="166.12685"
       x1="180.59314"
       gradientTransform="translate(-17.649337,-11.359581)"
       gradientUnits="userSpaceOnUse"
       id="linearGradient4113"
       xlink:href="#linearGradient4925-28"
       inkscape:collect="always" />
    <linearGradient
       id="linearGradient4925-7">
      <stop
         style="stop-color:#bd9800;stop-opacity:1;"
         offset="0"
         id="stop4927-5" />
      <stop
         id="stop3784-3"
         offset="0.51732481"
         style="stop-color:#ffcc04;stop-opacity:1;" />
      <stop
         offset="1"
         id="stop4929-56"
         style="stop-color:#a98500;stop-opacity:1;" />
    </linearGradient>
    <linearGradient
       y2="19.746481"
       x2="180.76199"
       y1="166.12685"
       x1="180.59314"
       gradientTransform="translate(-17.649337,-11.359581)"
       gradientUnits="userSpaceOnUse"
       id="linearGradient3327"
       xlink:href="#linearGradient4925-7"
       inkscape:collect="always" />
    <linearGradient
       id="linearGradient4925-7-1">
      <stop
         style="stop-color:#bd9800;stop-opacity:1;"
         offset="0"
         id="stop4927-5-2" />
      <stop
         id="stop3784-3-7"
         offset="0.51732481"
         style="stop-color:#ffcc04;stop-opacity:1;" />
      <stop
         offset="1"
         id="stop4929-56-0"
         style="stop-color:#a98500;stop-opacity:1;" />
    </linearGradient>
    <linearGradient
       y2="19.032196"
       x2="138.61914"
       y1="166.12685"
       x1="180.59314"
       gradientTransform="translate(-17.649337,-7.9568844)"
       gradientUnits="userSpaceOnUse"
       id="linearGradient3455"
       xlink:href="#linearGradient4925-7-1"
       inkscape:collect="always" />
    <linearGradient
       inkscape:collect="always"
       xlink:href="#linearGradient4925-7-6"
       id="linearGradient3350-3"
       gradientUnits="userSpaceOnUse"
       gradientTransform="translate(54.548237,823.78353)"
       x1="180.59314"
       y1="166.12685"
       x2="138.61914"
       y2="19.032196" />
    <linearGradient
       id="linearGradient4925-7-6">
      <stop
         style="stop-color:#bd9800;stop-opacity:1;"
         offset="0"
         id="stop4927-5-0" />
      <stop
         id="stop3784-3-6"
         offset="0.51732481"
         style="stop-color:#ffcc04;stop-opacity:1;" />
      <stop
         offset="1"
         id="stop4929-56-2"
         style="stop-color:#a98500;stop-opacity:1;" />
    </linearGradient>
    <linearGradient
       y2="19.032196"
       x2="138.61914"
       y1="166.12685"
       x1="180.59314"
       gradientTransform="translate(-17.649337,-7.9568844)"
       gradientUnits="userSpaceOnUse"
       id="linearGradient3491"
       xlink:href="#linearGradient4925-7-6"
       inkscape:collect="always" />
    <linearGradient
       id="linearGradient4835-7">
      <stop
         style="stop-color:#000000;stop-opacity:0.61572052"
         offset="0"
         id="stop4837-5" />
      <stop
         style="stop-color:#000000;stop-opacity:0;"
         offset="1"
         id="stop4839-9" />
    </linearGradient>
    <radialGradient
       r="109.27257"
       fy="198.2952"
       fx="7.3256431"
       cy="198.2952"
       cx="7.3256431"
       gradientTransform="matrix(0.19829552,0.15553474,-0.16582027,0.21140881,132.487,52.51516)"
       gradientUnits="userSpaceOnUse"
       id="radialGradient3545"
       xlink:href="#linearGradient4835-7"
       inkscape:collect="always" />
    <linearGradient
       id="linearGradient4835-8">
      <stop
         style="stop-color:#000000;stop-opacity:0.61572052"
         offset="0"
         id="stop4837-9" />
      <stop
         style="stop-color:#000000;stop-opacity:0;"
         offset="1"
         id="stop4839-7" />
    </linearGradient>
    <radialGradient
       r="109.27257"
       fy="198.2952"
       fx="7.3256431"
       cy="198.2952"
       cx="7.3256431"
       gradientTransform="matrix(0.19829552,0.15553474,-0.16582027,0.21140881,132.487,52.51516)"
       gradientUnits="userSpaceOnUse"
       id="radialGradient3578"
       xlink:href="#linearGradient4835-8"
       inkscape:collect="always" />
    <linearGradient
       inkscape:collect="always"
       xlink:href="#linearGradient4925-7-6-1"
       id="linearGradient3350-3-6"
       gradientUnits="userSpaceOnUse"
       gradientTransform="translate(54.548237,823.78353)"
       x1="180.59314"
       y1="166.12685"
       x2="138.61914"
       y2="19.032196" />
    <linearGradient
       id="linearGradient4925-7-6-1">
      <stop
         style="stop-color:#bd9800;stop-opacity:1;"
         offset="0"
         id="stop4927-5-0-2" />
      <stop
         id="stop3784-3-6-9"
         offset="0.51732481"
         style="stop-color:#ffcc04;stop-opacity:1;" />
      <stop
         offset="1"
         id="stop4929-56-2-3"
         style="stop-color:#a98500;stop-opacity:1;" />
    </linearGradient>
    <linearGradient
       y2="19.032196"
       x2="138.61914"
       y1="166.12685"
       x1="180.59314"
       gradientTransform="translate(-17.649337,-14.676051)"
       gradientUnits="userSpaceOnUse"
       id="linearGradient3612"
       xlink:href="#linearGradient4925-7-6-1"
       inkscape:collect="always" />
  </defs>
  <sodipodi:namedview
     id="base"
     pagecolor="#5271a5"
     bordercolor="#666666"
     borderopacity="1.0"
     inkscape:pageopacity="1"
     inkscape:pageshadow="2"
     inkscape:zoom="1.979899"
     inkscape:cx="264.57081"
     inkscape:cy="157.95737"
     inkscape:document-units="px"
     inkscape:current-layer="layer1"
     showgrid="false"
     units="mm"
     inkscape:window-width="1918"
     inkscape:window-height="1059"
     inkscape:window-x="1366"
     inkscape:window-y="19"
     inkscape:window-maximized="1"
     showguides="true"
     inkscape:guide-bbox="true" />
  <metadata
     id="metadata7">
    <rdf:RDF>
      <cc:Work
         rdf:about="">
        <dc:format>image/svg+xml</dc:format>
        <dc:type
           rdf:resource="http://purl.org/dc/dcmitype/StillImage" />
        <dc:title />
      </cc:Work>
    </rdf:RDF>
  </metadata>
  <g
     inkscape:label="Calque 1"
     inkscape:groupmode="layer"
     id="layer1"
     transform="translate(0,-768.89763)">
    <g
       style="fill:#1fc5c9"
       id="g3085"
       transform="matrix(0.66375862,0,0,0.66375862,110.10303,884.60142)">
      <path
         inkscape:connector-curvature="0"
         d="m 34.6,8.2 c 8.3,-1.4 16.8,1.2 23.6,5.9 -2.8,2.9 -5.7,5.8 -8.6,8.7 -6.7,-4 -15.5,-3.9 -21.8,0.9 -8.3,5.9 -10.4,18.1 -5.3,26.8 -2.8,3 -5.7,5.9 -8.5,8.8 C 8.5,51.3 6.4,41.1 9,31.7 11.9,19.7 22.3,10 34.6,8.2"
         id="path3087" />
      <path
         inkscape:connector-curvature="0"
         d="m 64.5,20.7 c 6.2,8.6 8,20.1 4.4,30.1 -3.2,9.2 -10.8,16.9 -20.2,19.8 -9.6,3.3 -20.2,1 -28.4,-4.7 2.8,-3 5.7,-5.9 8.6,-8.8 4.6,2.5 10.2,3.9 15.3,2.2 8.9,-2.2 15.3,-11.3 14.6,-20.4 0,-3.4 -1.4,-6.5 -2.8,-9.5 2.9,-2.9 5.7,-5.8 8.5,-8.7"
         id="path3089" />
      <circle
         sodipodi:ry="7.9000001"
         sodipodi:rx="7.9000001"
         sodipodi:cy="72.099998"
         sodipodi:cx="7.9000001"
         cx="7.9000001"
         cy="72.099998"
         r="7.9000001"
         id="circle3091"
         d="m 15.8,72.099998 c 0,4.36305 -3.53695,7.900001 -7.8999999,7.900001 C 3.5369505,79.999999 0,76.463048 0,72.099998 c 0,-4.363049 3.5369505,-7.9 7.9000001,-7.9 4.3630499,0 7.8999999,3.536951 7.8999999,7.9 z" />
      <circle
         sodipodi:ry="7.9000001"
         sodipodi:rx="7.9000001"
         sodipodi:cy="7.9000001"
         sodipodi:cx="70.699997"
         cx="70.699997"
         cy="7.9000001"
         r="7.9000001"
         id="circle3093"
         d="m 78.599997,7.9000001 c 0,4.3630499 -3.53695,7.8999999 -7.9,7.8999999 -4.36305,0 -7.9,-3.53695 -7.9,-7.8999999 0,-4.3630496 3.53695,-7.9000001 7.9,-7.9000001 4.36305,0 7.9,3.5369505 7.9,7.9000001 z" />
    </g>
    <path
       style="opacity:0.8;fill:#ffffff"
       d="m 85.27545,848.63613 c -0.455423,-0.0892 -0.84752,-0.39579 -1.062114,-0.83039 -0.08177,-0.16562 -0.09832,-0.26595 -0.09887,-0.59953 -5.62e-4,-0.35317 0.01318,-0.42882 0.116181,-0.63855 0.142626,-0.29043 0.421039,-0.55487 0.740299,-0.70314 0.336256,-0.15617 0.811319,-0.15618 1.146023,-2e-5 0.341724,0.15944 0.566541,0.37617 0.72569,0.69961 0.125127,0.25428 0.138575,0.31759 0.136238,0.64135 -0.0038,0.51809 -0.178798,0.87571 -0.56882,1.16201 -0.331023,0.24299 -0.754241,0.34321 -1.134631,0.26866 z m -17.028934,-6.03718 0.01073,-4.60726 1.096465,0 1.096465,0 0.01073,4.60726 0.01073,4.60726 -1.117924,0 -1.117924,0 z m 9.794571,4.54061 c -1.196032,-0.20949 -2.243622,-0.75915 -3.123244,-1.63878 -0.902955,-0.90294 -1.436652,-1.93601 -1.643853,-3.18196 -0.104794,-0.63014 -0.06787,-1.67162 0.08026,-2.26372 0.276766,-1.10631 0.771501,-1.98524 1.565834,-2.78183 0.651107,-0.65295 1.381599,-1.10846 2.228647,-1.38971 0.864431,-0.28704 0.851667,-0.2858 3.159795,-0.30528 l 2.098749,-0.0177 -0.01125,1.11014 -0.01125,1.11013 -2.045328,0.0211 -2.04533,0.021 -0.400631,0.13882 c -2.526808,0.87558 -3.305326,3.99775 -1.478236,5.92831 0.442283,0.46734 1.041136,0.81905 1.710181,1.00443 0.321827,0.0891 0.42823,0.0942 2.308901,0.10873 l 1.971529,0.0152 0,1.09383 0,1.09383 -2.013701,-0.004 c -1.523891,-0.003 -2.09576,-0.0182 -2.351073,-0.0629 z m 12.380503,0 c -0.773425,-0.1247 -1.794341,-0.53064 -2.33888,-0.92999 l -0.206106,-0.15115 0.783042,-0.78304 0.783041,-0.78304 0.38921,0.18083 c 2.085709,0.96907 4.49855,-0.22391 5.037187,-2.49053 0.05023,-0.21135 0.07312,-0.47334 0.07139,-0.81714 -0.003,-0.59826 -0.0939,-1.00246 -0.342393,-1.52231 l -0.163234,-0.3415 0.784593,-0.78781 0.784593,-0.78783 0.07284,0.0961 c 0.172205,0.22723 0.473945,0.77819 0.627659,1.14607 0.308512,0.73835 0.494933,1.81131 0.439892,2.53184 -0.11876,1.55463 -0.696206,2.81209 -1.772035,3.85879 -0.810808,0.78886 -1.76366,1.29747 -2.887489,1.54128 -0.457832,0.0993 -1.561016,0.1204 -2.063313,0.0394 z m 9.243852,-3.50732 c 0.01482,-3.46134 0.01808,-3.58537 0.103876,-3.93252 0.262212,-1.06136 0.716692,-1.88969 1.423032,-2.59356 2.01736,-2.0103 5.21329,-2.05248 7.26125,-0.0959 0.80531,0.76941 1.31019,1.68249 1.53191,2.7705 0.0812,0.39842 0.085,0.57414 0.085,3.92128 l 0,3.50417 -1.09507,0 -1.09508,0 -0.0119,-3.48971 -0.012,-3.48971 -0.11038,-0.32332 c -0.31589,-0.92531 -0.97138,-1.60963 -1.86018,-1.942 -0.30378,-0.11361 -0.41703,-0.13287 -0.87604,-0.14905 -0.6131,-0.0216 -0.93209,0.0369 -1.40512,0.2573 -0.62576,0.29168 -1.12117,0.77985 -1.41869,1.39798 -0.30683,0.63751 -0.29689,0.49303 -0.29689,4.31475 l 0,3.42376 -1.11954,0 -1.119534,0 z m -13.097786,1.07538 c -0.179527,-0.2416 -0.43872,-0.71867 -0.59316,-1.09175 -0.876754,-2.11803 -0.417749,-4.56299 1.168043,-6.22176 0.854236,-0.89354 1.851158,-1.4464 3.078234,-1.7071 0.567195,-0.1205 1.597993,-0.1304 2.153389,-0.0206 0.77271,0.15265 1.461223,0.42575 2.089673,0.82889 l 0.347915,0.22318 -0.789848,0.79066 -0.789849,0.79067 -0.278688,-0.13914 c -1.646825,-0.82215 -3.629452,-0.28419 -4.63618,1.25797 -0.691294,1.05895 -0.776938,2.46358 -0.217755,3.57131 0.06937,0.13743 0.126129,0.27433 0.126129,0.30422 0,0.0548 -1.473012,1.55058 -1.527007,1.55058 -0.01597,0 -0.07488,-0.0617 -0.130896,-0.13706 z m -17.635662,-7.70743 c -0.416384,-0.12845 -0.816945,-0.51321 -0.966104,-0.92801 -0.109109,-0.30342 -0.08167,-0.8314 0.05804,-1.11686 0.131731,-0.26916 0.42745,-0.56507 0.697207,-0.69763 0.181556,-0.0892 0.269464,-0.10357 0.632576,-0.10318 0.378751,5.7e-4 0.444421,0.0124 0.644559,0.11742 0.296973,0.15586 0.541421,0.40775 0.677611,0.69823 0.09487,0.20236 0.111664,0.29528 0.111641,0.61774 -2.3e-5,0.32073 -0.01698,0.41548 -0.109407,0.61148 -0.13974,0.29632 -0.41765,0.57391 -0.712915,0.71207 -0.17889,0.0837 -0.309113,0.11074 -0.569317,0.11816 -0.185556,0.005 -0.394306,-0.008 -0.463889,-0.0294 z m 27.783753,-0.0156 c -0.376058,-0.12292 -0.744454,-0.45365 -0.913365,-0.81999 -0.139989,-0.30361 -0.130295,-0.87318 0.02033,-1.19446 0.234138,-0.49939 0.693263,-0.80182 1.258912,-0.82923 0.248173,-0.0121 0.368484,0.004 0.558636,0.0757 0.31825,0.11952 0.667054,0.43906 0.820625,0.75179 0.103013,0.20977 0.11766,0.2877 0.116421,0.61951 -0.0011,0.32562 -0.01777,0.41326 -0.116567,0.61682 -0.1367,0.28167 -0.460379,0.59847 -0.737378,0.72172 -0.248697,0.11066 -0.757215,0.14001 -1.007611,0.0582 z"
       id="path3142"
       inkscape:connector-curvature="0"
       sodipodi:nodetypes="ssssssssssccccccccccsssssscccccsssscccsccsscccsssscccsssssssssssscccccsssssscccssssssscccsssssssssscsssssssssssssssss" />
    <g
       id="g3933"
       transform="matrix(0.62578411,0,0,0.62578411,217.69805,310.8852)">
      <g
         style="opacity:0.8;fill:#ffffff"
         id="g3144"
         transform="matrix(0.66375862,0,0,0.66375862,234.85687,836.4394)">
        <path
           style="fill:#1fc5c9;color:#000000;fill-opacity:1;fill-rule:nonzero;stroke-width:1.59799524;stroke-linecap:butt;stroke-linejoin:miter;stroke-miterlimit:4;stroke-opacity:1;stroke-dasharray:none;stroke-dashoffset:0;marker:none;visibility:visible;display:inline;overflow:visible;enable-background:accumulate"
           inkscape:connector-curvature="0"
           d="m 34.6,8.2 c 8.3,-1.4 16.8,1.2 23.6,5.9 -2.8,2.9 -5.7,5.8 -8.6,8.7 -6.7,-4 -15.5,-3.9 -21.8,0.9 -8.3,5.9 -10.4,18.1 -5.3,26.8 -2.8,3 -5.7,5.9 -8.5,8.8 C 8.5,51.3 6.4,41.1 9,31.7 11.9,19.7 22.3,10 34.6,8.2"
           id="path3146" />
        <path
           style="fill:#1fc5c9;color:#000000;fill-opacity:1;fill-rule:nonzero;stroke-width:1.59799524;stroke-linecap:butt;stroke-linejoin:miter;stroke-miterlimit:4;stroke-opacity:1;stroke-dasharray:none;stroke-dashoffset:0;marker:none;visibility:visible;display:inline;overflow:visible;enable-background:accumulate"
           inkscape:connector-curvature="0"
           d="m 64.5,20.7 c 6.2,8.6 8,20.1 4.4,30.1 -3.2,9.2 -10.8,16.9 -20.2,19.8 -9.6,3.3 -20.2,1 -28.4,-4.7 2.8,-3 5.7,-5.9 8.6,-8.8 4.6,2.5 10.2,3.9 15.3,2.2 8.9,-2.2 15.3,-11.3 14.6,-20.4 0,-3.4 -1.4,-6.5 -2.8,-9.5 2.9,-2.9 5.7,-5.8 8.5,-8.7"
           id="path3148" />
        <path
           style="fill:#1fc5c9;color:#000000;fill-opacity:1;fill-rule:nonzero;stroke-width:1.59799524;stroke-linecap:butt;stroke-linejoin:miter;stroke-miterlimit:4;stroke-opacity:1;stroke-dasharray:none;stroke-dashoffset:0;marker:none;visibility:visible;display:inline;overflow:visible;enable-background:accumulate"
           d="m 15.8,72.099998 c 0,4.36305 -3.53695,7.900001 -7.8999999,7.900001 C 3.5369505,79.999999 0,76.463048 0,72.099998 c 0,-4.363049 3.5369505,-7.9 7.9000001,-7.9 4.3630499,0 7.8999999,3.536951 7.8999999,7.9 z"
           id="circle3150"
           inkscape:connector-curvature="0" />
        <path
           style="fill:#1fc5c9;color:#000000;fill-opacity:1;fill-rule:nonzero;stroke-width:1.59799524;stroke-linecap:butt;stroke-linejoin:miter;stroke-miterlimit:4;stroke-opacity:1;stroke-dasharray:none;stroke-dashoffset:0;marker:none;visibility:visible;display:inline;overflow:visible;enable-background:accumulate"
           d="m 78.599997,7.9000001 c 0,4.3630499 -3.53695,7.8999999 -7.9,7.8999999 -4.36305,0 -7.9,-3.53695 -7.9,-7.8999999 0,-4.3630496 3.53695,-7.9000001 7.9,-7.9000001 4.36305,0 7.9,3.5369505 7.9,7.9000001 z"
           id="circle3152"
           inkscape:connector-curvature="0" />
      </g>
      <path
         sodipodi:nodetypes="cc"
         inkscape:connector-curvature="0"
         id="path3162"
         d="m 208.54962,841.72969 c 6.60701,0 11.96305,5.35604 11.96305,11.96309 l 0,30.55701"
         style="opacity:0.8;color:#000000;fill:none;stroke:#ffffff;stroke-width:8.52852345;stroke-linecap:round;stroke-miterlimit:4;stroke-dasharray:none;marker:none;visibility:visible;display:inline;overflow:visible;enable-background:accumulate" />
    </g>
  </g>
</svg>
