<?xml version="1.0" encoding="UTF-8" standalone="no"?>
<!-- Created with Inkscape (http://www.inkscape.org/) -->

<svg
   xmlns:dc="http://purl.org/dc/elements/1.1/"
   xmlns:cc="http://creativecommons.org/ns#"
   xmlns:rdf="http://www.w3.org/1999/02/22-rdf-syntax-ns#"
   xmlns:svg="http://www.w3.org/2000/svg"
   xmlns="http://www.w3.org/2000/svg"
   xmlns:xlink="http://www.w3.org/1999/xlink"
   xmlns:sodipodi="http://sodipodi.sourceforge.net/DTD/sodipodi-0.dtd"
   xmlns:inkscape="http://www.inkscape.org/namespaces/inkscape"
   width="460.62991"
   height="283.46457"
   id="svg2"
   version="1.1"
   inkscape:version="0.48.5 r10040"
   sodipodi:docname="kmd.svg"
   inkscape:export-filename="/home/mammique/Documents/daat/banknote/cryptos/dash.png"
   inkscape:export-xdpi="156.31"
   inkscape:export-ydpi="156.31">
  <defs
     id="defs4">
    <linearGradient
       id="linearGradient4925">
      <stop
         style="stop-color:#bd9800;stop-opacity:1;"
         offset="0"
         id="stop4927" />
      <stop
         id="stop3784"
         offset="0.51732481"
         style="stop-color:#ffcc04;stop-opacity:1;" />
      <stop
         offset="1"
         id="stop4929"
         style="stop-color:#a98500;stop-opacity:1;" />
    </linearGradient>
    <linearGradient
       id="linearGradient4835">
      <stop
         style="stop-color:#000000;stop-opacity:0.61572052"
         offset="0"
         id="stop4837" />
      <stop
         style="stop-color:#000000;stop-opacity:0;"
         offset="1"
         id="stop4839" />
    </linearGradient>
    <linearGradient
       inkscape:collect="always"
       id="linearGradient4531">
      <stop
         style="stop-color:#ffffff;stop-opacity:1;"
         offset="0"
         id="stop4533" />
      <stop
         style="stop-color:#ffffff;stop-opacity:0;"
         offset="1"
         id="stop4535" />
    </linearGradient>
    <clipPath
       clipPathUnits="userSpaceOnUse"
       id="clipPath5978">
      <rect
         style="color:#000000;fill:#cccccc;fill-opacity:1;fill-rule:nonzero;stroke:#003a00;stroke-width:0.89999998;stroke-linecap:butt;stroke-linejoin:miter;stroke-miterlimit:4;stroke-opacity:1;stroke-dasharray:none;stroke-dashoffset:0;marker:none;visibility:visible;display:inline;overflow:visible;enable-background:accumulate"
         id="rect5980"
         width="173.74623"
         height="1608.1628"
         x="610.13214"
         y="-378.01382"
         transform="matrix(0,-1,1,0,0,0)" />
    </clipPath>
    <inkscape:perspective
       id="perspective2497"
       inkscape:persp3d-origin="372.04724 : 350.78739 : 1"
       inkscape:vp_z="744.09448 : 526.18109 : 1"
       inkscape:vp_y="0 : 1000 : 0"
       inkscape:vp_x="0 : 526.18109 : 1"
       sodipodi:type="inkscape:persp3d" />
    <linearGradient
       inkscape:collect="always"
       xlink:href="#linearGradient4531"
       id="linearGradient4823"
       gradientUnits="userSpaceOnUse"
       x1="182.81697"
       y1="175.83376"
       x2="183.58928"
       y2="-16.309107"
       gradientTransform="translate(53.033008,825.69937)" />
    <radialGradient
       inkscape:collect="always"
       xlink:href="#linearGradient4835"
       id="radialGradient4845"
       cx="7.3256431"
       cy="198.2952"
       fx="7.3256431"
       fy="198.2952"
       r="109.27257"
       gradientTransform="matrix(0.19829552,0.15553474,-0.16582027,0.21140881,93.302602,945.5672)"
       gradientUnits="userSpaceOnUse" />
    <linearGradient
       id="linearGradient4925-6">
      <stop
         style="stop-color:#bd9800;stop-opacity:1;"
         offset="0"
         id="stop4927-7" />
      <stop
         id="stop3784-5"
         offset="0.5"
         style="stop-color:#ffcc04;stop-opacity:1;" />
      <stop
         offset="1"
         id="stop4929-3"
         style="stop-color:#a98500;stop-opacity:1;" />
    </linearGradient>
    <linearGradient
       gradientTransform="translate(-17.649337,-11.359598)"
       y2="38.317909"
       x2="313.61914"
       y1="142.8687"
       x1="50.479298"
       gradientUnits="userSpaceOnUse"
       id="linearGradient3802"
       xlink:href="#linearGradient4925-6"
       inkscape:collect="always" />
    <linearGradient
       id="linearGradient4925-2">
      <stop
         style="stop-color:#bd9800;stop-opacity:1;"
         offset="0"
         id="stop4927-3" />
      <stop
         id="stop3784-7"
         offset="0.38554054"
         style="stop-color:#ffcc04;stop-opacity:1;" />
      <stop
         offset="1"
         id="stop4929-5"
         style="stop-color:#a98500;stop-opacity:1;" />
    </linearGradient>
    <linearGradient
       y2="38.317909"
       x2="313.61914"
       y1="83.269699"
       x1="19.16457"
       gradientTransform="translate(-17.649337,-11.359581)"
       gradientUnits="userSpaceOnUse"
       id="linearGradient4077"
       xlink:href="#linearGradient4925-2"
       inkscape:collect="always" />
    <linearGradient
       id="linearGradient4925-28">
      <stop
         style="stop-color:#bd9800;stop-opacity:1;"
         offset="0"
         id="stop4927-9" />
      <stop
         id="stop3784-73"
         offset="0.51732481"
         style="stop-color:#ffcc04;stop-opacity:1;" />
      <stop
         offset="1"
         id="stop4929-6"
         style="stop-color:#a98500;stop-opacity:1;" />
    </linearGradient>
    <linearGradient
       y2="19.746481"
       x2="180.76199"
       y1="166.12685"
       x1="180.59314"
       gradientTransform="translate(-17.649337,-11.359581)"
       gradientUnits="userSpaceOnUse"
       id="linearGradient4113"
       xlink:href="#linearGradient4925-28"
       inkscape:collect="always" />
    <linearGradient
       id="linearGradient4925-7">
      <stop
         style="stop-color:#bd9800;stop-opacity:1;"
         offset="0"
         id="stop4927-5" />
      <stop
         id="stop3784-3"
         offset="0.51732481"
         style="stop-color:#ffcc04;stop-opacity:1;" />
      <stop
         offset="1"
         id="stop4929-56"
         style="stop-color:#a98500;stop-opacity:1;" />
    </linearGradient>
    <linearGradient
       y2="19.746481"
       x2="180.76199"
       y1="166.12685"
       x1="180.59314"
       gradientTransform="translate(-17.649337,-11.359581)"
       gradientUnits="userSpaceOnUse"
       id="linearGradient3327"
       xlink:href="#linearGradient4925-7"
       inkscape:collect="always" />
    <linearGradient
       id="linearGradient4925-7-1">
      <stop
         style="stop-color:#bd9800;stop-opacity:1;"
         offset="0"
         id="stop4927-5-2" />
      <stop
         id="stop3784-3-7"
         offset="0.51732481"
         style="stop-color:#ffcc04;stop-opacity:1;" />
      <stop
         offset="1"
         id="stop4929-56-0"
         style="stop-color:#a98500;stop-opacity:1;" />
    </linearGradient>
    <linearGradient
       y2="19.032196"
       x2="138.61914"
       y1="166.12685"
       x1="180.59314"
       gradientTransform="translate(-17.649337,-7.9568844)"
       gradientUnits="userSpaceOnUse"
       id="linearGradient3455"
       xlink:href="#linearGradient4925-7-1"
       inkscape:collect="always" />
    <linearGradient
       inkscape:collect="always"
       xlink:href="#linearGradient4925-7-6"
       id="linearGradient3350-3"
       gradientUnits="userSpaceOnUse"
       gradientTransform="translate(55.55839,823.78353)"
       x1="180.59314"
       y1="166.12685"
       x2="138.61914"
       y2="19.032196" />
    <linearGradient
       id="linearGradient4925-7-6">
      <stop
         style="stop-color:#bd9800;stop-opacity:1;"
         offset="0"
         id="stop4927-5-0" />
      <stop
         id="stop3784-3-6"
         offset="0.51732481"
         style="stop-color:#ffcc04;stop-opacity:1;" />
      <stop
         offset="1"
         id="stop4929-56-2"
         style="stop-color:#a98500;stop-opacity:1;" />
    </linearGradient>
    <linearGradient
       y2="19.032196"
       x2="138.61914"
       y1="166.12685"
       x1="180.59314"
       gradientTransform="translate(-17.649337,-7.9568844)"
       gradientUnits="userSpaceOnUse"
       id="linearGradient3491"
       xlink:href="#linearGradient4925-7-6"
       inkscape:collect="always" />
    <linearGradient
       id="linearGradient4835-7">
      <stop
         style="stop-color:#000000;stop-opacity:0.61572052"
         offset="0"
         id="stop4837-5" />
      <stop
         style="stop-color:#000000;stop-opacity:0;"
         offset="1"
         id="stop4839-9" />
    </linearGradient>
    <radialGradient
       r="109.27257"
       fy="198.2952"
       fx="7.3256431"
       cy="198.2952"
       cx="7.3256431"
       gradientTransform="matrix(0.19829552,0.15553474,-0.16582027,0.21140881,132.487,52.51516)"
       gradientUnits="userSpaceOnUse"
       id="radialGradient3545"
       xlink:href="#linearGradient4835-7"
       inkscape:collect="always" />
    <linearGradient
       id="linearGradient4835-8">
      <stop
         style="stop-color:#000000;stop-opacity:0.61572052"
         offset="0"
         id="stop4837-9" />
      <stop
         style="stop-color:#000000;stop-opacity:0;"
         offset="1"
         id="stop4839-7" />
    </linearGradient>
    <radialGradient
       r="109.27257"
       fy="198.2952"
       fx="7.3256431"
       cy="198.2952"
       cx="7.3256431"
       gradientTransform="matrix(0.19829552,0.15553474,-0.16582027,0.21140881,132.487,52.51516)"
       gradientUnits="userSpaceOnUse"
       id="radialGradient3578"
       xlink:href="#linearGradient4835-8"
       inkscape:collect="always" />
    <linearGradient
       inkscape:collect="always"
       xlink:href="#linearGradient4925-7-6-1"
       id="linearGradient3350-3-6"
       gradientUnits="userSpaceOnUse"
       gradientTransform="translate(54.548237,823.78353)"
       x1="180.59314"
       y1="166.12685"
       x2="138.61914"
       y2="19.032196" />
    <linearGradient
       id="linearGradient4925-7-6-1">
      <stop
         style="stop-color:#bd9800;stop-opacity:1;"
         offset="0"
         id="stop4927-5-0-2" />
      <stop
         id="stop3784-3-6-9"
         offset="0.51732481"
         style="stop-color:#ffcc04;stop-opacity:1;" />
      <stop
         offset="1"
         id="stop4929-56-2-3"
         style="stop-color:#a98500;stop-opacity:1;" />
    </linearGradient>
    <linearGradient
       y2="19.032196"
       x2="138.61914"
       y1="166.12685"
       x1="180.59314"
       gradientTransform="translate(-17.649337,-14.676051)"
       gradientUnits="userSpaceOnUse"
       id="linearGradient3612"
       xlink:href="#linearGradient4925-7-6-1"
       inkscape:collect="always" />
  </defs>
  <sodipodi:namedview
     id="base"
     pagecolor="#5271a5"
     bordercolor="#666666"
     borderopacity="1.0"
     inkscape:pageopacity="1"
     inkscape:pageshadow="2"
     inkscape:zoom="1.979899"
     inkscape:cx="140.61513"
     inkscape:cy="202.12128"
     inkscape:document-units="px"
     inkscape:current-layer="layer1"
     showgrid="false"
     units="mm"
     inkscape:window-width="1918"
     inkscape:window-height="1059"
     inkscape:window-x="1366"
     inkscape:window-y="19"
     inkscape:window-maximized="1"
     showguides="true"
     inkscape:guide-bbox="true" />
  <metadata
     id="metadata7">
    <rdf:RDF>
      <cc:Work
         rdf:about="">
        <dc:format>image/svg+xml</dc:format>
        <dc:type
           rdf:resource="http://purl.org/dc/dcmitype/StillImage" />
        <dc:title />
      </cc:Work>
    </rdf:RDF>
  </metadata>
  <g
     inkscape:label="Calque 1"
     inkscape:groupmode="layer"
     id="layer1"
     transform="translate(0,-768.89763)">
    <g
       transform="matrix(0.12587096,0,0,0.12587093,400.99752,757.26754)"
       id="g3060"
       style="opacity:0.8">
      <path
         class="st0"
         d="m -185.55,788.0622 4.6,4.6 c 20.3,8.5 40.6,17.1 61,25.5 v -37 l -38,-15.7 -15.7,-38 15.7,-38 -27.6,-22.8 -25.2,60.7 25.2,60.7 z"
         id="path3062"
         inkscape:connector-curvature="0"
         style="fill:#598282" />
      <path
         class="st1"
         d="m -119.95,636.5622 c -20.3,8.4 -40.7,17 -61,25.5 l -4.6,4.6 27.6,22.7 38,-15.7 0,-37.1 z"
         id="path3064"
         inkscape:connector-curvature="0"
         style="fill:#fbbb31" />
      <polygon
         class="st0"
         points="63.9,64 52.8,90.8 63.9,117.7 90.8,128.8 90.8,52.8 "
         id="polygon3066"
         style="fill:#598282"
         transform="translate(-210.75,636.5622)" />
      <path
         class="st2"
         d="m -119.95,818.1622 c 20.3,-8.4 40.6,-17 60.9,-25.5 l 4.6,-4.6 25.2,-60.7 -25.2,-60.7 -27.6,22.7 15.7,38 -15.7,38 -38,15.7 v 37.1 z"
         id="path3068"
         inkscape:connector-curvature="0"
         style="fill:#326464" />
      <path
         class="st3"
         d="m -54.35,666.6622 -4.6,-4.7 c -20.4,-8.4 -40.7,-16.9 -61,-25.4 v 37 l 38,15.7 27.6,-22.6 z"
         id="path3070"
         inkscape:connector-curvature="0"
         style="fill:#faaa00" />
      <polygon
         class="st2"
         points="117.7,117.7 128.8,90.8 117.7,64 90.8,52.8 90.8,128.8 "
         id="polygon3072"
         style="fill:#326464"
         transform="translate(-210.75,636.5622)" />
    </g>
    <g
       id="g3123"
       transform="matrix(0.35416782,0,0,0.35416782,178.68888,653.54348)">
      <path
         style="fill:#598282"
         inkscape:connector-curvature="0"
         id="path11"
         d="m -185.55,788.0622 4.6,4.6 c 20.3,8.5 40.6,17.1 61,25.5 v -37 l -38,-15.7 -15.7,-38 15.7,-38 -27.6,-22.8 -25.2,60.7 25.2,60.7 z"
         class="st0" />
      <path
         style="fill:#fbbb31"
         inkscape:connector-curvature="0"
         id="path13"
         d="m -119.95,636.5622 c -20.3,8.4 -40.7,17 -61,25.5 l -4.6,4.6 27.6,22.7 38,-15.7 0,-37.1 z"
         class="st1" />
      <polygon
         transform="translate(-210.75,636.5622)"
         style="fill:#598282"
         id="polygon15"
         points="52.8,90.8 63.9,117.7 90.8,128.8 90.8,52.8 63.9,64 "
         class="st0" />
      <path
         style="fill:#326464"
         inkscape:connector-curvature="0"
         id="path17"
         d="m -119.95,818.1622 c 20.3,-8.4 40.6,-17 60.9,-25.5 l 4.6,-4.6 25.2,-60.7 -25.2,-60.7 -27.6,22.7 15.7,38 -15.7,38 -38,15.7 v 37.1 z"
         class="st2" />
      <path
         style="fill:#faaa00"
         inkscape:connector-curvature="0"
         id="path19"
         d="m -54.35,666.6622 -4.6,-4.7 c -20.4,-8.4 -40.7,-16.9 -61,-25.4 v 37 l 38,15.7 27.6,-22.6 z"
         class="st3" />
      <polygon
         transform="translate(-210.75,636.5622)"
         style="fill:#326464"
         id="polygon21"
         points="128.8,90.8 117.7,64 90.8,52.8 90.8,128.8 117.7,117.7 "
         class="st2" />
    </g>
    <g
       transform="matrix(1.0797555,0,0,1.0797555,343.04858,773.55534)"
       style="font-size:40px;font-style:normal;font-variant:normal;font-weight:normal;font-stretch:normal;line-height:125%;letter-spacing:0px;word-spacing:0px;opacity:0.8;fill:#ffffff;fill-opacity:1;stroke:none;font-family:Sans;-inkscape-font-specification:Sans"
       id="flowRoot3145">
      <path
         inkscape:connector-curvature="0"
         d="m 11.523438,82.112154 6.445312,0 0,-22.246094 -7.011719,1.40625 0,-3.59375 6.972656,-1.40625 3.945313,0 0,25.839844 6.445312,0 0,3.320312 -16.796874,0 0,-3.320312"
         id="path3208" />
    </g>
    <path
       style="opacity:0.8;color:#000000;fill:#ffffff;fill-opacity:1;fill-rule:nonzero;stroke:none;stroke-width:1;marker:none;visibility:visible;display:inline;overflow:visible;enable-background:accumulate"
       d="m 78.402093,844.62935 c -0.961799,-0.40913 -1.847646,-0.83339 -1.968549,-0.94281 -0.120901,-0.10941 -0.381568,-0.61145 -0.57926,-1.11564 -0.197691,-0.5042 -0.404995,-0.96447 -0.460675,-1.02283 -0.05568,-0.0583 -0.101728,-0.18401 -0.102327,-0.27922 -5.58e-4,-0.0953 -0.128889,-0.44767 -0.285086,-0.78323 l -0.283994,-0.61012 0.749341,-1.79119 c 0.760889,-1.81878 1.011443,-2.23267 1.430056,-2.36227 0.128499,-0.0398 0.434672,-0.16254 0.680387,-0.27278 0.245714,-0.11024 0.946176,-0.40586 1.556579,-0.65692 l 1.109826,-0.45648 1.291476,0.52264 c 1.962142,0.79403 2.276053,0.93997 2.540194,1.18095 0.13394,0.12219 0.558509,0.99417 0.943487,1.93772 0.384978,0.94356 0.710792,1.70456 0.724032,1.69109 0.01324,-0.0135 0.05303,-0.52708 0.08841,-1.14137 0.03539,-0.61428 0.09602,-1.63204 0.134747,-2.26169 l 0.07041,-1.1448 0.92406,0 c 0.650071,0 0.940406,0.0426 0.979185,0.14365 0.03032,0.079 0.710541,1.13486 1.511603,2.34637 l 1.456476,2.20272 1.543858,-2.34421 1.543858,-2.34422 0.858993,-0.002 c 0.472447,-9.7e-4 0.883636,0.0377 0.913753,0.0865 0.03011,0.0487 0.09047,0.96597 0.134146,2.03831 0.04366,1.07235 0.113153,2.04336 0.154425,2.1578 0.05346,0.14833 0.282661,-0.30071 0.798012,-1.56363 0.8468,-2.07517 0.441242,-1.73592 3.71265,-3.10561 l 0.98756,-0.41347 1.80465,0.75262 c 0.99256,0.41396 1.89104,0.83225 1.99663,0.92952 0.10558,0.0973 0.53819,1.00619 0.96136,2.01976 l 0.7694,1.84286 -0.27726,0.67013 c -0.15249,0.36857 -0.36314,0.87117 -0.4681,1.11688 -0.10496,0.24572 -0.33462,0.79125 -0.51036,1.21231 -0.17574,0.42103 -0.42284,0.83298 -0.54912,0.91542 -0.12627,0.0825 -1.0169,0.47753 -1.97916,0.87799 l -1.74958,0.72811 -1.879946,-0.78159 c -1.033976,-0.42988 -1.937163,-0.84278 -2.007077,-0.91757 -0.117342,-0.12551 -0.646303,-1.3386 -1.265474,-2.90216 -0.140283,-0.35426 -0.292126,-0.66702 -0.337422,-0.69501 -0.0453,-0.028 -0.113963,0.23674 -0.152603,0.58827 -0.03865,0.35154 -0.09368,0.76482 -0.122327,0.91839 -0.08966,0.48069 -0.508733,2.93073 -0.508733,2.9742 0,0.0228 -0.47747,0.0413 -1.061041,0.0413 -0.583576,0 -1.06104,-0.0326 -1.06104,-0.0724 0,-0.0399 0.123909,-0.78119 0.275354,-1.6474 0.151444,-0.86622 0.30416,-1.80111 0.339364,-2.07754 0.03518,-0.27643 0.09219,-0.68664 0.126623,-0.91157 0.03441,-0.22493 0.01993,-0.48309 -0.0322,-0.57367 -0.07006,-0.12166 -0.459648,0.38465 -1.490945,1.93766 -0.767857,1.15631 -1.421234,2.10389 -1.451945,2.10574 -0.03069,0.002 -0.709224,-0.97566 -1.507794,-2.17228 l -1.45195,-2.17565 -0.03123,0.47605 c -0.01718,0.26183 0.140423,1.48125 0.35022,2.70983 0.209796,1.22857 0.34491,2.27353 0.300254,2.32213 -0.04467,0.0485 -0.524477,0.0737 -1.066274,0.0559 l -0.985086,-0.0326 -0.314446,-1.84286 c -0.172945,-1.01357 -0.337613,-2.01144 -0.365926,-2.21748 -0.02831,-0.20604 -0.07242,-0.39555 -0.098,-0.42114 -0.02559,-0.0255 -0.252335,0.4702 -0.503888,1.10175 -0.706877,1.77471 -0.983187,2.35885 -1.209596,2.55717 -0.193995,0.16993 -3.686792,1.67387 -3.82965,1.64898 -0.03552,-0.006 -0.851495,-0.346 -1.813296,-0.75513 z m 3.135596,-2.05981 1.051803,-0.46862 0.458244,-1.11688 0.458241,-1.11688 -0.432026,-1.06104 c -0.237615,-0.58358 -0.489926,-1.11685 -0.560695,-1.18505 -0.131018,-0.12629 -2.090976,-0.93685 -2.266285,-0.93725 -0.05288,-1.2e-4 -0.579833,0.20375 -1.170996,0.45306 -1.009256,0.42563 -1.086866,0.48187 -1.27179,0.92165 -0.108318,0.2576 -0.284022,0.6694 -0.390455,0.91512 -0.368938,0.85175 -0.367055,0.88465 0.117377,2.05194 l 0.462789,1.11512 1.022618,0.44431 c 0.56244,0.24438 1.123136,0.4463 1.245994,0.44873 0.122858,0.003 0.696689,-0.20647 1.275181,-0.46421 z m 21.208211,0.0266 1.09935,-0.45407 0.4691,-1.14225 0.4691,-1.14226 -0.46705,-1.13353 -0.46704,-1.13353 -1.0922,-0.45328 c -0.6007,-0.24931 -1.14504,-0.45327 -1.20964,-0.45327 -0.15312,0 -2.03772,0.77655 -2.197314,0.9054 -0.06746,0.0545 -0.261482,0.43849 -0.43111,0.85334 -0.169622,0.41483 -0.374631,0.90279 -0.455567,1.08434 -0.124434,0.27913 -0.120961,0.39122 0.02252,0.72597 0.0933,0.21774 0.300738,0.72915 0.460964,1.13648 l 0.291317,0.74058 1.06666,0.45506 c 0.58666,0.25028 1.12852,0.4573 1.20413,0.46006 0.0757,0.003 0.63217,-0.19933 1.23681,-0.44906 z m 17.05855,2.00803 c -0.98053,-0.42344 -1.86651,-0.85835 -1.96884,-0.96648 -0.10233,-0.10812 -0.39785,-0.71982 -0.65671,-1.35934 -0.25885,-0.63952 -0.51088,-1.24262 -0.56006,-1.34026 -0.0491,-0.0976 -0.14949,-0.32778 -0.22293,-0.51146 -0.12419,-0.3106 -0.14385,-0.31982 -0.28122,-0.13196 -0.0812,0.1111 -0.33099,0.66345 -0.555,1.22745 -0.22403,0.56401 -0.54266,1.29864 -0.70808,1.63249 -0.29159,0.5885 -0.33117,0.62 -1.29774,1.03311 l -0.99699,0.4261 -2.78191,0 -2.78191,0 0.087,-1.2565 c 0.10861,-1.56842 0.10674,-5.5702 -0.003,-7.0922 l -0.0828,-1.14481 2.83022,0 2.83024,0 0.88159,0.38324 c 0.48487,0.21078 0.9661,0.47465 1.06939,0.58636 0.10329,0.11172 0.43314,0.80624 0.73299,1.54339 0.29985,0.73715 0.62694,1.50916 0.72687,1.7156 l 0.18168,0.37533 0.75664,-1.83654 c 0.41615,-1.0101 0.8441,-1.89117 0.95101,-1.95794 0.1069,-0.0668 1.00791,-0.45722 2.00226,-0.86766 l 1.80786,-0.74627 0.80475,0.35702 c 0.44261,0.19635 1.30431,0.56597 1.91488,0.82137 l 1.11014,0.46435 0.57908,1.33996 c 0.31849,0.73698 0.65601,1.51588 0.75004,1.73088 0.33552,0.76714 0.33013,0.84317 -0.13755,1.94199 -0.24865,0.58421 -0.45209,1.0927 -0.45209,1.12996 0,0.0372 -0.16218,0.41585 -0.36038,0.84127 -0.2993,0.6424 -0.43655,0.81122 -0.80974,0.99604 -0.59483,0.29455 -3.42258,1.45997 -3.50898,1.44618 -0.0373,-0.006 -0.86992,-0.35725 -1.85043,-0.78068 z m 3.0281,-1.95975 c 0.54365,-0.22317 1.06383,-0.50915 1.15597,-0.63552 0.0921,-0.12637 0.34594,-0.65724 0.56399,-1.17974 l 0.39644,-0.94998 -0.43712,-1.06709 c -0.24042,-0.58691 -0.48033,-1.12093 -0.53312,-1.18671 -0.0528,-0.0658 -0.57972,-0.31104 -1.17092,-0.54504 l -1.07492,-0.42544 -1.03394,0.40923 c -0.56867,0.22507 -1.10909,0.47034 -1.20094,0.54504 -0.13043,0.10608 -0.66093,1.25188 -0.70928,1.53192 -0.005,0.0307 -0.0772,0.19455 -0.1597,0.36407 -0.13653,0.28043 -0.11303,0.4013 0.26066,1.34026 0.22589,0.56762 0.45236,1.09747 0.50327,1.17745 0.0914,0.14348 2.07346,1.01722 2.32273,1.02388 0.0707,0.002 0.57324,-0.17916 1.11688,-0.40233 z m -10.41678,-0.27012 c 0.59448,-0.26297 0.68317,-0.38528 1.18928,-1.64022 l 0.37104,-0.92001 -0.23561,-0.53194 c -0.12959,-0.29257 -0.35626,-0.80838 -0.50373,-1.14624 -0.24338,-0.55764 -0.31874,-0.63235 -0.81726,-0.81029 -0.37944,-0.13542 -0.87709,-0.19536 -1.6102,-0.19394 -1.69123,0.003 -1.52227,-0.30061 -1.52227,2.73824 l 0,2.61226 0.67736,0.0391 c 1.68129,0.0971 1.93387,0.0819 2.45139,-0.14698 z m -44.159766,-2.50724 0,-4.74675 1.06104,0 1.06104,0 0,1.74033 0,1.74033 0.548305,-0.48384 c 0.408787,-0.36072 0.7143,-0.8031 1.200651,-1.73851 l 0.652344,-1.25469 1.31234,-0.002 c 0.721786,-9.7e-4 1.312338,0.0181 1.312338,0.0424 0,0.0244 -0.476164,0.80911 -1.058142,1.74393 -0.789098,1.2675 -1.033183,1.74611 -0.959974,1.88237 0.05399,0.10048 0.433963,0.63281 0.844378,1.18295 0.416,0.55763 0.863699,1.31241 1.011714,1.70564 0.146027,0.38796 0.338321,0.86765 0.42732,1.06598 0.225507,0.50252 0.628211,1.63131 0.628211,1.76088 0,0.062 -0.492168,0.10751 -1.162512,0.10751 l -1.162512,0 -0.578659,-1.47282 c -0.318262,-0.81003 -0.787761,-1.7756 -1.043334,-2.14571 -0.255571,-0.3701 -0.497515,-0.7202 -0.53765,-0.77802 -0.04014,-0.0578 -0.379392,0.16141 -0.753897,0.48714 l -0.680921,0.59225 0,1.65858 0,1.65858 -1.06104,0 -1.06104,0 z"
       id="path3177"
       inkscape:connector-curvature="0"
       sodipodi:nodetypes="cssscscsssscsssssscssscccscsssscssscssssscsssssssssssscscscsssscssssssccscccsscsssscscscccccccsssssscsccccsssssssscccsscccsssscscscsscsssssscccssscssscsscssscssscssssscssccccccssccsssssssscsscscccccc" />
  </g>
</svg>
