<?xml version="1.0" encoding="UTF-8" standalone="no"?>
<!-- Created with Inkscape (http://www.inkscape.org/) -->

<svg
   xmlns:dc="http://purl.org/dc/elements/1.1/"
   xmlns:cc="http://creativecommons.org/ns#"
   xmlns:rdf="http://www.w3.org/1999/02/22-rdf-syntax-ns#"
   xmlns:svg="http://www.w3.org/2000/svg"
   xmlns="http://www.w3.org/2000/svg"
   xmlns:xlink="http://www.w3.org/1999/xlink"
   xmlns:sodipodi="http://sodipodi.sourceforge.net/DTD/sodipodi-0.dtd"
   xmlns:inkscape="http://www.inkscape.org/namespaces/inkscape"
   width="460.62991"
   height="283.46457"
   id="svg2"
   version="1.1"
   inkscape:version="0.48.5 r10040"
   sodipodi:docname="lrc.svg"
   inkscape:export-filename="/home/mammique/Documents/daat/banknote/cryptos/dash.png"
   inkscape:export-xdpi="156.31"
   inkscape:export-ydpi="156.31">
  <defs
     id="defs4">
    <linearGradient
       id="linearGradient4925">
      <stop
         style="stop-color:#bd9800;stop-opacity:1;"
         offset="0"
         id="stop4927" />
      <stop
         id="stop3784"
         offset="0.51732481"
         style="stop-color:#ffcc04;stop-opacity:1;" />
      <stop
         offset="1"
         id="stop4929"
         style="stop-color:#a98500;stop-opacity:1;" />
    </linearGradient>
    <linearGradient
       id="linearGradient4835">
      <stop
         style="stop-color:#000000;stop-opacity:0.61572052"
         offset="0"
         id="stop4837" />
      <stop
         style="stop-color:#000000;stop-opacity:0;"
         offset="1"
         id="stop4839" />
    </linearGradient>
    <clipPath
       clipPathUnits="userSpaceOnUse"
       id="clipPath5978">
      <rect
         style="color:#000000;fill:#cccccc;fill-opacity:1;fill-rule:nonzero;stroke:#003a00;stroke-width:0.89999998;stroke-linecap:butt;stroke-linejoin:miter;stroke-miterlimit:4;stroke-opacity:1;stroke-dasharray:none;stroke-dashoffset:0;marker:none;visibility:visible;display:inline;overflow:visible;enable-background:accumulate"
         id="rect5980"
         width="173.74623"
         height="1608.1628"
         x="610.13214"
         y="-378.01382"
         transform="matrix(0,-1,1,0,0,0)" />
    </clipPath>
    <inkscape:perspective
       id="perspective2497"
       inkscape:persp3d-origin="372.04724 : 350.78739 : 1"
       inkscape:vp_z="744.09448 : 526.18109 : 1"
       inkscape:vp_y="0 : 1000 : 0"
       inkscape:vp_x="0 : 526.18109 : 1"
       sodipodi:type="inkscape:persp3d" />
    <linearGradient
       id="linearGradient4925-6">
      <stop
         style="stop-color:#bd9800;stop-opacity:1;"
         offset="0"
         id="stop4927-7" />
      <stop
         id="stop3784-5"
         offset="0.5"
         style="stop-color:#ffcc04;stop-opacity:1;" />
      <stop
         offset="1"
         id="stop4929-3"
         style="stop-color:#a98500;stop-opacity:1;" />
    </linearGradient>
    <linearGradient
       gradientTransform="translate(-17.649337,-11.359598)"
       y2="38.317909"
       x2="313.61914"
       y1="142.8687"
       x1="50.479298"
       gradientUnits="userSpaceOnUse"
       id="linearGradient3802"
       xlink:href="#linearGradient4925-6"
       inkscape:collect="always" />
    <linearGradient
       id="linearGradient4925-2">
      <stop
         style="stop-color:#bd9800;stop-opacity:1;"
         offset="0"
         id="stop4927-3" />
      <stop
         id="stop3784-7"
         offset="0.38554054"
         style="stop-color:#ffcc04;stop-opacity:1;" />
      <stop
         offset="1"
         id="stop4929-5"
         style="stop-color:#a98500;stop-opacity:1;" />
    </linearGradient>
    <linearGradient
       y2="38.317909"
       x2="313.61914"
       y1="83.269699"
       x1="19.16457"
       gradientTransform="translate(-17.649337,-11.359581)"
       gradientUnits="userSpaceOnUse"
       id="linearGradient4077"
       xlink:href="#linearGradient4925-2"
       inkscape:collect="always" />
    <linearGradient
       id="linearGradient4925-28">
      <stop
         style="stop-color:#bd9800;stop-opacity:1;"
         offset="0"
         id="stop4927-9" />
      <stop
         id="stop3784-73"
         offset="0.51732481"
         style="stop-color:#ffcc04;stop-opacity:1;" />
      <stop
         offset="1"
         id="stop4929-6"
         style="stop-color:#a98500;stop-opacity:1;" />
    </linearGradient>
    <linearGradient
       y2="19.746481"
       x2="180.76199"
       y1="166.12685"
       x1="180.59314"
       gradientTransform="translate(-17.649337,-11.359581)"
       gradientUnits="userSpaceOnUse"
       id="linearGradient4113"
       xlink:href="#linearGradient4925-28"
       inkscape:collect="always" />
    <linearGradient
       id="linearGradient4925-7">
      <stop
         style="stop-color:#bd9800;stop-opacity:1;"
         offset="0"
         id="stop4927-5" />
      <stop
         id="stop3784-3"
         offset="0.51732481"
         style="stop-color:#ffcc04;stop-opacity:1;" />
      <stop
         offset="1"
         id="stop4929-56"
         style="stop-color:#a98500;stop-opacity:1;" />
    </linearGradient>
    <linearGradient
       y2="19.746481"
       x2="180.76199"
       y1="166.12685"
       x1="180.59314"
       gradientTransform="translate(-17.649337,-11.359581)"
       gradientUnits="userSpaceOnUse"
       id="linearGradient3327"
       xlink:href="#linearGradient4925-7"
       inkscape:collect="always" />
    <linearGradient
       id="linearGradient4925-7-1">
      <stop
         style="stop-color:#bd9800;stop-opacity:1;"
         offset="0"
         id="stop4927-5-2" />
      <stop
         id="stop3784-3-7"
         offset="0.51732481"
         style="stop-color:#ffcc04;stop-opacity:1;" />
      <stop
         offset="1"
         id="stop4929-56-0"
         style="stop-color:#a98500;stop-opacity:1;" />
    </linearGradient>
    <linearGradient
       y2="19.032196"
       x2="138.61914"
       y1="166.12685"
       x1="180.59314"
       gradientTransform="translate(-17.649337,-7.9568844)"
       gradientUnits="userSpaceOnUse"
       id="linearGradient3455"
       xlink:href="#linearGradient4925-7-1"
       inkscape:collect="always" />
    <linearGradient
       id="linearGradient4925-7-6">
      <stop
         style="stop-color:#bd9800;stop-opacity:1;"
         offset="0"
         id="stop4927-5-0" />
      <stop
         id="stop3784-3-6"
         offset="0.51732481"
         style="stop-color:#ffcc04;stop-opacity:1;" />
      <stop
         offset="1"
         id="stop4929-56-2"
         style="stop-color:#a98500;stop-opacity:1;" />
    </linearGradient>
    <linearGradient
       y2="19.032196"
       x2="138.61914"
       y1="166.12685"
       x1="180.59314"
       gradientTransform="translate(-17.649337,-7.9568844)"
       gradientUnits="userSpaceOnUse"
       id="linearGradient3491"
       xlink:href="#linearGradient4925-7-6"
       inkscape:collect="always" />
    <linearGradient
       id="linearGradient4835-7">
      <stop
         style="stop-color:#000000;stop-opacity:0.61572052"
         offset="0"
         id="stop4837-5" />
      <stop
         style="stop-color:#000000;stop-opacity:0;"
         offset="1"
         id="stop4839-9" />
    </linearGradient>
    <radialGradient
       r="109.27257"
       fy="198.2952"
       fx="7.3256431"
       cy="198.2952"
       cx="7.3256431"
       gradientTransform="matrix(0.19829552,0.15553474,-0.16582027,0.21140881,132.487,52.51516)"
       gradientUnits="userSpaceOnUse"
       id="radialGradient3545"
       xlink:href="#linearGradient4835-7"
       inkscape:collect="always" />
    <linearGradient
       id="linearGradient4835-8">
      <stop
         style="stop-color:#000000;stop-opacity:0.61572052"
         offset="0"
         id="stop4837-9" />
      <stop
         style="stop-color:#000000;stop-opacity:0;"
         offset="1"
         id="stop4839-7" />
    </linearGradient>
    <radialGradient
       r="109.27257"
       fy="198.2952"
       fx="7.3256431"
       cy="198.2952"
       cx="7.3256431"
       gradientTransform="matrix(0.19829552,0.15553474,-0.16582027,0.21140881,132.487,52.51516)"
       gradientUnits="userSpaceOnUse"
       id="radialGradient3578"
       xlink:href="#linearGradient4835-8"
       inkscape:collect="always" />
    <linearGradient
       id="linearGradient4925-7-6-1">
      <stop
         style="stop-color:#bd9800;stop-opacity:1;"
         offset="0"
         id="stop4927-5-0-2" />
      <stop
         id="stop3784-3-6-9"
         offset="0.51732481"
         style="stop-color:#ffcc04;stop-opacity:1;" />
      <stop
         offset="1"
         id="stop4929-56-2-3"
         style="stop-color:#a98500;stop-opacity:1;" />
    </linearGradient>
    <linearGradient
       y2="19.032196"
       x2="138.61914"
       y1="166.12685"
       x1="180.59314"
       gradientTransform="translate(-17.649337,-14.676051)"
       gradientUnits="userSpaceOnUse"
       id="linearGradient3612"
       xlink:href="#linearGradient4925-7-6-1"
       inkscape:collect="always" />
  </defs>
  <sodipodi:namedview
     id="base"
     pagecolor="#5271a5"
     bordercolor="#666666"
     borderopacity="1.0"
     inkscape:pageopacity="1"
     inkscape:pageshadow="2"
     inkscape:zoom="1.979899"
     inkscape:cx="265.28652"
     inkscape:cy="199.31484"
     inkscape:document-units="px"
     inkscape:current-layer="layer1"
     showgrid="false"
     units="mm"
     inkscape:window-width="1918"
     inkscape:window-height="1059"
     inkscape:window-x="1366"
     inkscape:window-y="19"
     inkscape:window-maximized="1"
     showguides="true"
     inkscape:guide-bbox="true" />
  <metadata
     id="metadata7">
    <rdf:RDF>
      <cc:Work
         rdf:about="">
        <dc:format>image/svg+xml</dc:format>
        <dc:type
           rdf:resource="http://purl.org/dc/dcmitype/StillImage" />
        <dc:title></dc:title>
      </cc:Work>
    </rdf:RDF>
  </metadata>
  <g
     inkscape:label="Calque 1"
     inkscape:groupmode="layer"
     id="layer1"
     transform="translate(0,-768.89763)">
    <path
       style="fill:#3679fe;fill-opacity:1"
       inkscape:connector-curvature="0"
       d="m 136.18874,877.29965 30.46691,42.42687 -30.46691,25.27737 -30.46691,-25.27737 z m -3.97424,22.56921 -13.24634,18.05333 13.24634,10.83268 z m 7.94848,0 v 28.88601 l 13.24634,-10.83268 z"
       id="path3070" />
    <path
       style="opacity:0.8;color:#000000;fill:#ffffff;fill-opacity:1;fill-rule:nonzero;stroke:none;stroke-width:1;marker:none;visibility:visible;display:inline;overflow:visible;enable-background:accumulate"
       d="m 68.256004,834.31592 0,8.88453 1.175073,0 4.365549,0 0,-1.17508 -4.365549,0 0,-7.70945 -1.175073,0 z m 31.566555,0.0662 0,0.5579 0,0.55789 0.502111,0 0.50211,0 0,-0.55789 0,-0.5579 -0.50211,0 -0.502111,0 z m -22.186897,2.34317 c -0.930589,0 -1.481609,0.17073 -2.015406,0.62764 -0.728467,0.62354 -0.951506,1.23848 -0.955401,2.60817 -0.003,1.05847 0.02364,1.23313 0.303357,1.80271 0.342361,0.69715 0.867172,1.16026 1.572575,1.39125 0.638073,0.20894 1.801436,0.13219 2.367578,-0.15691 0.61326,-0.31315 1.232014,-1.02301 1.40172,-1.60744 0.207486,-0.71453 0.175606,-2.39276 -0.0558,-2.92897 -0.492033,-1.14015 -1.390129,-1.73645 -2.618632,-1.73645 z m 6.917933,0 c -0.930588,0 -1.481608,0.17073 -2.015406,0.62764 -0.728467,0.62354 -0.951506,1.23848 -0.955401,2.60817 -0.003,1.05847 0.02364,1.23313 0.303358,1.80271 0.34236,0.69715 0.867171,1.16026 1.572574,1.39125 0.638074,0.20894 1.801436,0.13219 2.367579,-0.15691 0.613259,-0.31315 1.232014,-1.02301 1.401719,-1.60744 0.207488,-0.71453 0.175606,-2.39276 -0.0558,-2.92897 -0.492033,-1.14015 -1.390128,-1.73645 -2.618632,-1.73645 z m 7.005105,0 c -0.77134,0 -1.335544,0.21963 -1.670207,0.64507 l -0.219672,0.27896 0,-0.40798 0,-0.40447 -0.502108,0 -0.502108,0 0,4.40739 0,4.4074 0.502108,0 0.502108,0 0,-1.55862 0,-1.56212 0.495134,0.35216 c 1.318764,0.92956 3.231273,0.19663 3.793705,-1.454 0.505452,-1.48343 0.216057,-3.21714 -0.679937,-4.04826 -0.51728,-0.47983 -0.976973,-0.65553 -1.719023,-0.65553 z m 6.394903,0 c -0.47132,0 -0.55778,0.0476 -0.997242,0.51954 l -0.481187,0.51606 0,-0.46026 c 0,-0.4534 -0.0072,-0.46376 -0.390528,-0.46376 l -0.390529,0 0,3.18002 0,3.18001 0.491647,0 0.495135,0 0.03487,-2.2804 c 0.03342,-2.10898 0.05548,-2.30306 0.271975,-2.59423 0.383512,-0.51578 0.736322,-0.66247 1.258757,-0.52303 0.4279,0.11421 0.453882,0.10624 0.554411,-0.17085 0.05786,-0.1595 0.138497,-0.36728 0.17783,-0.46376 0.09769,-0.23957 -0.368575,-0.43934 -1.025138,-0.43934 z m 7.468857,0.004 c -0.7646,-0.003 -1.47556,0.27406 -1.72251,0.66949 -0.20382,0.32638 -0.30684,0.26831 -0.30684,-0.17086 0,-0.38124 -0.0106,-0.39053 -0.44632,-0.39053 l -0.44632,0 0,3.18002 0,3.18001 0.49165,0 0.49164,0 0.0384,-2.20369 c 0.0293,-1.67126 0.0794,-2.28426 0.20573,-2.53496 0.43262,-0.85816 1.67969,-1.1303 2.36757,-0.51605 l 0.36613,0.32776 0.0314,2.46174 0.0348,2.4652 0.49513,0 0.49862,0 0,-2.5698 c 0,-2.37501 -0.0179,-2.60715 -0.23013,-3.02312 -0.30024,-0.58851 -0.90981,-0.87186 -1.86896,-0.87521 z m 6.22405,0.0523 c -0.91493,0 -1.01553,0.0227 -1.46448,0.33823 -0.72514,0.50964 -1.12696,1.37354 -1.18902,2.55587 -0.0563,1.07287 0.12894,1.78494 0.65204,2.50706 0.77848,1.07465 2.47471,1.31745 3.45199,0.49513 0.18949,-0.15945 0.36488,-0.27054 0.38705,-0.24758 0.0222,0.023 0.005,0.38105 -0.0384,0.79501 -0.12634,1.209 -0.57904,1.6429 -1.71902,1.6458 -0.77449,0.002 -1.22476,-0.20798 -1.40869,-0.65204 -0.095,-0.22917 -0.2398,-0.34643 -0.4777,-0.39402 -0.56393,-0.11278 -0.64508,-0.0852 -0.64508,0.21619 0,0.63937 0.58058,1.30964 1.35291,1.56211 1.07081,0.35007 2.66302,0.0433 3.29857,-0.63809 0.60204,-0.64543 0.63638,-0.88989 0.67994,-4.64101 l 0.0418,-3.48687 -0.45678,0 c -0.43215,0 -0.45329,0.0175 -0.45329,0.33473 0,0.18411 -0.0284,0.33473 -0.0628,0.33473 -0.0342,0 -0.26787,-0.16318 -0.51606,-0.36263 -0.43247,-0.34754 -0.49088,-0.36262 -1.4331,-0.36262 z m -11.823951,0.0558 0,3.18002 0,3.18001 0.502111,0 0.50211,0 0,-3.18001 0,-3.18002 -0.50211,0 -0.502111,0 z m 11.959931,0.666 c 0.39817,0.006 0.80788,0.18034 1.15765,0.55092 0.44551,0.47203 0.58629,0.92408 0.59625,1.9108 0.0101,1.00394 -0.27625,1.69291 -0.87171,2.08862 -0.49246,0.32726 -1.2711,0.33689 -1.76436,0.0209 -0.69791,-0.44706 -1.06004,-1.75654 -0.81593,-2.93245 0.2168,-1.04433 0.93798,-1.64992 1.6981,-1.63883 z m -20.436489,0.007 c 0.564915,-0.0268 1.135457,0.27563 1.495863,0.88914 0.19188,0.32664 0.230134,0.58126 0.230134,1.56211 0,1.3274 -0.161588,1.751 -0.833361,2.2037 -0.485184,0.32697 -1.264056,0.33693 -1.757377,0.0209 -0.545793,-0.3496 -0.821109,-1.03586 -0.826387,-2.04678 -0.0048,-0.92013 0.146213,-1.52457 0.484673,-1.95962 0.332258,-0.42708 0.767077,-0.64863 1.206455,-0.66947 z m -13.807972,0.0105 c 0.480816,0 0.965634,0.20688 1.328494,0.6381 0.438069,0.52062 0.566823,1.04449 0.512569,2.07818 -0.05444,1.0372 -0.31674,1.60266 -0.913557,1.96658 -0.496227,0.3026 -1.377622,0.2849 -1.865472,-0.0384 -0.607149,-0.4023 -0.895046,-1.11766 -0.892636,-2.21415 0.0017,-0.74727 0.05248,-1.02002 0.265001,-1.4331 0.336754,-0.65455 0.947408,-0.99677 1.565601,-0.99725 z m 6.917933,0 c 0.480817,0 0.965635,0.20688 1.328495,0.6381 0.438069,0.52062 0.566822,1.04449 0.512568,2.07818 -0.05444,1.0372 -0.31674,1.60266 -0.913557,1.96658 -0.496226,0.3026 -1.377622,0.2849 -1.865472,-0.0384 -0.607149,-0.4023 -0.895046,-1.11766 -0.892636,-2.21415 0.0017,-0.74727 0.05248,-1.02002 0.265001,-1.4331 0.336754,-0.65455 0.947408,-0.99677 1.565601,-0.99725 z m -16.199958,6.45419 0,0.21967 5.540622,0 0,-0.21967 -5.540622,0 z"
       id="path3871"
       inkscape:connector-curvature="0" />
    <g
       transform="matrix(1.2945277,0,0,1.2945277,97.181249,771.13533)"
       style="font-size:40px;font-style:normal;font-variant:normal;font-weight:normal;font-stretch:normal;line-height:125%;letter-spacing:0px;word-spacing:0px;opacity:0.8;color:#000000;fill:#ffffff;fill-opacity:1;fill-rule:nonzero;stroke:none;stroke-width:1;marker:none;visibility:visible;display:inline;overflow:visible;enable-background:accumulate;font-family:font robotoAlbertsthal Typewriter;-inkscape-font-specification:font robotoAlbertsthal Typewriter"
       id="flowRoot3908">
      <path
         inkscape:connector-curvature="0"
         d="m 192.6575,54.525756 c 1.51999,-0.586644 2.99999,-1.33331 4.44,-2.24 1.43999,-0.933308 2.75999,-2.093307 3.96,-3.48 l 2.64,0 0,27.72 -3.72,0 0,-22.56 c -0.32001,0.293356 -0.72001,0.600022 -1.2,0.92 -0.45334,0.320021 -0.96001,0.626688 -1.52,0.92 -0.53334,0.293354 -1.10667,0.573354 -1.72,0.84 -0.58667,0.266686 -1.16001,0.493353 -1.72,0.68 l -1.16,-2.8"
         style="opacity:0.8;color:#000000;fill:#ffffff;marker:none;visibility:visible;display:inline;overflow:visible;enable-background:accumulate;font-family:Ubuntu;-inkscape-font-specification:Ubuntu"
         id="path3942" />
    </g>
    <path
       id="path3933"
       d="m 381.16779,834.31567 16.148,22.48699 -16.148,13.39745 -16.14799,-13.39745 z m -2.10641,11.96208 -7.02079,9.56858 7.02079,5.74151 z m 4.21283,0 v 15.31009 l 7.02079,-5.74151 z"
       inkscape:connector-curvature="0"
       style="opacity:0.8;color:#000000;fill:#ffffff;fill-opacity:1;fill-rule:nonzero;stroke:none;stroke-width:1;marker:none;visibility:visible;display:inline;overflow:visible;enable-background:accumulate" />
  </g>
</svg>
