<?xml version="1.0" encoding="UTF-8" standalone="no"?>
<!-- Created with Inkscape (http://www.inkscape.org/) -->

<svg
   xmlns:dc="http://purl.org/dc/elements/1.1/"
   xmlns:cc="http://creativecommons.org/ns#"
   xmlns:rdf="http://www.w3.org/1999/02/22-rdf-syntax-ns#"
   xmlns:svg="http://www.w3.org/2000/svg"
   xmlns="http://www.w3.org/2000/svg"
   xmlns:xlink="http://www.w3.org/1999/xlink"
   xmlns:sodipodi="http://sodipodi.sourceforge.net/DTD/sodipodi-0.dtd"
   xmlns:inkscape="http://www.inkscape.org/namespaces/inkscape"
   width="460.62991"
   height="283.46457"
   id="svg2"
   version="1.1"
   inkscape:version="0.48.5 r10040"
   sodipodi:docname="banknote_bg_template.svg"
   inkscape:export-filename="/home/mammique/Documents/daat/banknote/cryptos/dash.png"
   inkscape:export-xdpi="156.31"
   inkscape:export-ydpi="156.31">
  <defs
     id="defs4">
    <linearGradient
       id="linearGradient4925">
      <stop
         style="stop-color:#bd9800;stop-opacity:1;"
         offset="0"
         id="stop4927" />
      <stop
         id="stop3784"
         offset="0.51732481"
         style="stop-color:#ffcc04;stop-opacity:1;" />
      <stop
         offset="1"
         id="stop4929"
         style="stop-color:#a98500;stop-opacity:1;" />
    </linearGradient>
    <linearGradient
       id="linearGradient4835">
      <stop
         style="stop-color:#000000;stop-opacity:0.61572052"
         offset="0"
         id="stop4837" />
      <stop
         style="stop-color:#000000;stop-opacity:0;"
         offset="1"
         id="stop4839" />
    </linearGradient>
    <linearGradient
       inkscape:collect="always"
       id="linearGradient4531">
      <stop
         style="stop-color:#ffffff;stop-opacity:1;"
         offset="0"
         id="stop4533" />
      <stop
         style="stop-color:#ffffff;stop-opacity:0;"
         offset="1"
         id="stop4535" />
    </linearGradient>
    <clipPath
       clipPathUnits="userSpaceOnUse"
       id="clipPath5978">
      <rect
         style="color:#000000;fill:#cccccc;fill-opacity:1;fill-rule:nonzero;stroke:#003a00;stroke-width:0.89999998;stroke-linecap:butt;stroke-linejoin:miter;stroke-miterlimit:4;stroke-opacity:1;stroke-dasharray:none;stroke-dashoffset:0;marker:none;visibility:visible;display:inline;overflow:visible;enable-background:accumulate"
         id="rect5980"
         width="173.74623"
         height="1608.1628"
         x="610.13214"
         y="-378.01382"
         transform="matrix(0,-1,1,0,0,0)" />
    </clipPath>
    <inkscape:perspective
       id="perspective2497"
       inkscape:persp3d-origin="372.04724 : 350.78739 : 1"
       inkscape:vp_z="744.09448 : 526.18109 : 1"
       inkscape:vp_y="0 : 1000 : 0"
       inkscape:vp_x="0 : 526.18109 : 1"
       sodipodi:type="inkscape:persp3d" />
    <linearGradient
       inkscape:collect="always"
       xlink:href="#linearGradient4531"
       id="linearGradient4823"
       gradientUnits="userSpaceOnUse"
       x1="182.81697"
       y1="175.83376"
       x2="183.58928"
       y2="-16.309107"
       gradientTransform="translate(53.033008,825.69937)" />
    <radialGradient
       inkscape:collect="always"
       xlink:href="#linearGradient4835"
       id="radialGradient4845"
       cx="7.3256431"
       cy="198.2952"
       fx="7.3256431"
       fy="198.2952"
       r="109.27257"
       gradientTransform="matrix(0.19829552,0.15553474,-0.16582027,0.21140881,93.302602,945.5672)"
       gradientUnits="userSpaceOnUse" />
    <linearGradient
       id="linearGradient4925-6">
      <stop
         style="stop-color:#bd9800;stop-opacity:1;"
         offset="0"
         id="stop4927-7" />
      <stop
         id="stop3784-5"
         offset="0.5"
         style="stop-color:#ffcc04;stop-opacity:1;" />
      <stop
         offset="1"
         id="stop4929-3"
         style="stop-color:#a98500;stop-opacity:1;" />
    </linearGradient>
    <linearGradient
       gradientTransform="translate(-17.649337,-11.359598)"
       y2="38.317909"
       x2="313.61914"
       y1="142.8687"
       x1="50.479298"
       gradientUnits="userSpaceOnUse"
       id="linearGradient3802"
       xlink:href="#linearGradient4925-6"
       inkscape:collect="always" />
    <linearGradient
       id="linearGradient4925-2">
      <stop
         style="stop-color:#bd9800;stop-opacity:1;"
         offset="0"
         id="stop4927-3" />
      <stop
         id="stop3784-7"
         offset="0.38554054"
         style="stop-color:#ffcc04;stop-opacity:1;" />
      <stop
         offset="1"
         id="stop4929-5"
         style="stop-color:#a98500;stop-opacity:1;" />
    </linearGradient>
    <linearGradient
       y2="38.317909"
       x2="313.61914"
       y1="83.269699"
       x1="19.16457"
       gradientTransform="translate(-17.649337,-11.359581)"
       gradientUnits="userSpaceOnUse"
       id="linearGradient4077"
       xlink:href="#linearGradient4925-2"
       inkscape:collect="always" />
    <linearGradient
       id="linearGradient4925-28">
      <stop
         style="stop-color:#bd9800;stop-opacity:1;"
         offset="0"
         id="stop4927-9" />
      <stop
         id="stop3784-73"
         offset="0.51732481"
         style="stop-color:#ffcc04;stop-opacity:1;" />
      <stop
         offset="1"
         id="stop4929-6"
         style="stop-color:#a98500;stop-opacity:1;" />
    </linearGradient>
    <linearGradient
       y2="19.746481"
       x2="180.76199"
       y1="166.12685"
       x1="180.59314"
       gradientTransform="translate(-17.649337,-11.359581)"
       gradientUnits="userSpaceOnUse"
       id="linearGradient4113"
       xlink:href="#linearGradient4925-28"
       inkscape:collect="always" />
    <linearGradient
       id="linearGradient4925-7">
      <stop
         style="stop-color:#bd9800;stop-opacity:1;"
         offset="0"
         id="stop4927-5" />
      <stop
         id="stop3784-3"
         offset="0.51732481"
         style="stop-color:#ffcc04;stop-opacity:1;" />
      <stop
         offset="1"
         id="stop4929-56"
         style="stop-color:#a98500;stop-opacity:1;" />
    </linearGradient>
    <linearGradient
       y2="19.746481"
       x2="180.76199"
       y1="166.12685"
       x1="180.59314"
       gradientTransform="translate(-17.649337,-11.359581)"
       gradientUnits="userSpaceOnUse"
       id="linearGradient3327"
       xlink:href="#linearGradient4925-7"
       inkscape:collect="always" />
    <linearGradient
       id="linearGradient4925-7-1">
      <stop
         style="stop-color:#bd9800;stop-opacity:1;"
         offset="0"
         id="stop4927-5-2" />
      <stop
         id="stop3784-3-7"
         offset="0.51732481"
         style="stop-color:#ffcc04;stop-opacity:1;" />
      <stop
         offset="1"
         id="stop4929-56-0"
         style="stop-color:#a98500;stop-opacity:1;" />
    </linearGradient>
    <linearGradient
       y2="19.032196"
       x2="138.61914"
       y1="166.12685"
       x1="180.59314"
       gradientTransform="translate(-17.649337,-7.9568844)"
       gradientUnits="userSpaceOnUse"
       id="linearGradient3455"
       xlink:href="#linearGradient4925-7-1"
       inkscape:collect="always" />
    <linearGradient
       inkscape:collect="always"
       xlink:href="#linearGradient4925-7-6"
       id="linearGradient3350-3"
       gradientUnits="userSpaceOnUse"
       gradientTransform="translate(54.548237,823.78353)"
       x1="180.59314"
       y1="166.12685"
       x2="138.61914"
       y2="19.032196" />
    <linearGradient
       id="linearGradient4925-7-6">
      <stop
         style="stop-color:#bd9800;stop-opacity:1;"
         offset="0"
         id="stop4927-5-0" />
      <stop
         id="stop3784-3-6"
         offset="0.51732481"
         style="stop-color:#ffcc04;stop-opacity:1;" />
      <stop
         offset="1"
         id="stop4929-56-2"
         style="stop-color:#a98500;stop-opacity:1;" />
    </linearGradient>
    <linearGradient
       y2="19.032196"
       x2="138.61914"
       y1="166.12685"
       x1="180.59314"
       gradientTransform="translate(-17.649337,-7.9568844)"
       gradientUnits="userSpaceOnUse"
       id="linearGradient3491"
       xlink:href="#linearGradient4925-7-6"
       inkscape:collect="always" />
    <linearGradient
       id="linearGradient4835-7">
      <stop
         style="stop-color:#000000;stop-opacity:0.61572052"
         offset="0"
         id="stop4837-5" />
      <stop
         style="stop-color:#000000;stop-opacity:0;"
         offset="1"
         id="stop4839-9" />
    </linearGradient>
    <radialGradient
       r="109.27257"
       fy="198.2952"
       fx="7.3256431"
       cy="198.2952"
       cx="7.3256431"
       gradientTransform="matrix(0.19829552,0.15553474,-0.16582027,0.21140881,132.487,52.51516)"
       gradientUnits="userSpaceOnUse"
       id="radialGradient3545"
       xlink:href="#linearGradient4835-7"
       inkscape:collect="always" />
    <linearGradient
       id="linearGradient4835-8">
      <stop
         style="stop-color:#000000;stop-opacity:0.61572052"
         offset="0"
         id="stop4837-9" />
      <stop
         style="stop-color:#000000;stop-opacity:0;"
         offset="1"
         id="stop4839-7" />
    </linearGradient>
    <radialGradient
       r="109.27257"
       fy="198.2952"
       fx="7.3256431"
       cy="198.2952"
       cx="7.3256431"
       gradientTransform="matrix(0.19829552,0.15553474,-0.16582027,0.21140881,132.487,52.51516)"
       gradientUnits="userSpaceOnUse"
       id="radialGradient3578"
       xlink:href="#linearGradient4835-8"
       inkscape:collect="always" />
    <linearGradient
       inkscape:collect="always"
       xlink:href="#linearGradient4925-7-6-1"
       id="linearGradient3350-3-6"
       gradientUnits="userSpaceOnUse"
       gradientTransform="translate(54.548237,823.78353)"
       x1="180.59314"
       y1="166.12685"
       x2="138.61914"
       y2="19.032196" />
    <linearGradient
       id="linearGradient4925-7-6-1">
      <stop
         style="stop-color:#bd9800;stop-opacity:1;"
         offset="0"
         id="stop4927-5-0-2" />
      <stop
         id="stop3784-3-6-9"
         offset="0.51732481"
         style="stop-color:#ffcc04;stop-opacity:1;" />
      <stop
         offset="1"
         id="stop4929-56-2-3"
         style="stop-color:#a98500;stop-opacity:1;" />
    </linearGradient>
    <linearGradient
       y2="19.032196"
       x2="138.61914"
       y1="166.12685"
       x1="180.59314"
       gradientTransform="translate(-17.649337,-14.676051)"
       gradientUnits="userSpaceOnUse"
       id="linearGradient3612"
       xlink:href="#linearGradient4925-7-6-1"
       inkscape:collect="always" />
  </defs>
  <sodipodi:namedview
     id="base"
     pagecolor="#5271a5"
     bordercolor="#666666"
     borderopacity="1.0"
     inkscape:pageopacity="1"
     inkscape:pageshadow="2"
     inkscape:zoom="1.979899"
     inkscape:cx="195.88424"
     inkscape:cy="159.56849"
     inkscape:document-units="px"
     inkscape:current-layer="layer1"
     showgrid="false"
     units="mm"
     inkscape:window-width="1364"
     inkscape:window-height="747"
     inkscape:window-x="0"
     inkscape:window-y="19"
     inkscape:window-maximized="1"
     showguides="true"
     inkscape:guide-bbox="true" />
  <metadata
     id="metadata7">
    <rdf:RDF>
      <cc:Work
         rdf:about="">
        <dc:format>image/svg+xml</dc:format>
        <dc:type
           rdf:resource="http://purl.org/dc/dcmitype/StillImage" />
        <dc:title></dc:title>
      </cc:Work>
    </rdf:RDF>
  </metadata>
  <g
     inkscape:label="Calque 1"
     inkscape:groupmode="layer"
     id="layer1"
     transform="translate(0,-768.89763)">
    <path
       style="fill:#808080"
       d="m 136.18874,880.48104 c -16.93899,0 -30.67074,13.73176 -30.67074,30.67073 0,16.93898 13.73175,30.67072 30.67074,30.67072 16.93899,0 30.67074,-13.73174 30.67074,-30.67072 0,-16.93897 -13.73175,-30.67073 -30.67074,-30.67073 z m -5.33144,15.33537 9.82422,0 -2.87538,11.86094 2.69567,-1.07827 -1.31788,5.27154 -2.75557,1.07826 -1.61741,6.64932 14.79624,0 -1.67731,6.88893 -24.68036,0 2.27634,-9.22518 -2.75557,1.07827 1.31788,-5.27153 2.81548,-1.13817 3.95365,-16.11411 z"
       id="circle3068"
       inkscape:connector-curvature="0" />
    <g
       transform="matrix(0.38528426,0,0,0.38528426,74.205756,822.43779)"
       style="font-size:40px;font-style:normal;font-weight:normal;line-height:125%;letter-spacing:0px;word-spacing:0px;opacity:0.8;fill:#ffffff;fill-opacity:1;stroke:none;font-family:Sans"
       id="flowRoot3107">
      <path
         d="m -9.1225,62.269506 c -2.29334,-0.05333 -3.920006,-0.546666 -4.88,-1.48 -0.960004,-0.933331 -1.440003,-2.386663 -1.44,-4.36 l 0,-24.96 3.72,-0.64 0,25 c -7e-6,0.613339 0.05333,1.120005 0.16,1.52 0.10666,0.400004 0.279993,0.720004 0.52,0.96 0.239992,0.240003 0.559992,0.42667 0.96,0.56 0.3999911,0.10667 0.893324,0.200003 1.48,0.28 l -0.52,3.12"
         style="font-variant:normal;font-stretch:normal;fill:#ffffff;font-family:Ubuntu;-inkscape-font-specification:Ubuntu"
         id="path3901" />
      <path
         d="m -0.705,61.869506 -3.72,0 0,-20.8 3.72,0 0,20.8 m -1.88,-24.56 c -0.666671,2.5e-5 -1.2400038,-0.213308 -1.72,-0.64 -0.4533362,-0.453308 -0.6800026,-1.053307 -0.68,-1.8 -2.6e-6,-0.746639 0.2266638,-1.333305 0.68,-1.76 0.4799962,-0.453304 1.053329,-0.67997 1.72,-0.68 0.666661,3e-5 1.2266604,0.226696 1.68,0.68 0.4799928,0.426695 0.71999256,1.013361 0.72,1.76 -7.44e-6,0.746693 -0.2400072,1.346692 -0.72,1.8 -0.4533396,0.426692 -1.013339,0.640025 -1.68,0.64"
         style="font-variant:normal;font-stretch:normal;fill:#ffffff;font-family:Ubuntu;-inkscape-font-specification:Ubuntu"
         id="path3903" />
      <path
         d="m 9.21125,41.069506 7.88,0 0,3.12 -7.88,0 0,9.6 c -6.7e-6,1.040007 0.079993,1.906673 0.24,2.6 0.1599929,0.666672 0.3999927,1.200004 0.72,1.6 0.319992,0.373337 0.719992,0.640003 1.2,0.8 0.479991,0.160003 1.03999,0.240003 1.68,0.24 1.119988,3e-6 2.013321,-0.119997 2.68,-0.36 0.693319,-0.266663 1.173319,-0.45333 1.44,-0.56 l 0.72,3.08 c -0.373348,0.186667 -1.026681,0.413334 -1.96,0.68 -0.933346,0.293333 -2.000011,0.44 -3.2,0.44 -1.413342,0 -2.586674,-0.173334 -3.52,-0.52 -0.9066724,-0.373333 -1.640005,-0.919999 -2.2,-1.64 -0.5600039,-0.719997 -0.9600035,-1.599997 -1.2,-2.64 -0.2133364,-1.066661 -0.320003,-2.293327 -0.32,-3.68 l 0,-18.56 3.72,-0.64 0,6.44"
         style="font-variant:normal;font-stretch:normal;fill:#ffffff;font-family:Ubuntu;-inkscape-font-specification:Ubuntu"
         id="path3905" />
      <path
         d="m 20.274375,51.509506 c -2e-6,-1.839988 0.266664,-3.439986 0.8,-4.8 0.53333,-1.38665 1.239996,-2.533316 2.12,-3.44 0.879994,-0.906647 1.893326,-1.586646 3.04,-2.04 1.146658,-0.453312 2.31999,-0.679979 3.52,-0.68 2.799986,2.1e-5 4.94665,0.880021 6.44,2.64 1.493314,1.73335 2.23998,4.386681 2.24,7.96 -2e-5,0.160011 -2e-5,0.373344 0,0.64 -2e-5,0.24001 -0.01335,0.466676 -0.04,0.68 l -14.24,0 c 0.159994,2.160007 0.78666,3.800006 1.88,4.92 1.093324,1.120003 2.799989,1.680003 5.12,1.68 1.306652,3e-6 2.399985,-0.106664 3.28,-0.32 0.90665,-0.239997 1.586649,-0.466663 2.04,-0.68 l 0.52,3.12 c -0.453352,0.240001 -1.253351,0.493334 -2.4,0.76 -1.120015,0.266666 -2.400014,0.4 -3.84,0.4 -1.813344,0 -3.386676,-0.266667 -4.72,-0.8 -1.306673,-0.559999 -2.386672,-1.319998 -3.24,-2.28 -0.853337,-0.959996 -1.493336,-2.093329 -1.92,-3.4 -0.400002,-1.333326 -0.600002,-2.786658 -0.6,-4.36 m 14.28,-2.04 c 0.02665,-1.679986 -0.400016,-3.053318 -1.28,-4.12 -0.853348,-1.093316 -2.040013,-1.639982 -3.56,-1.64 -0.853344,1.8e-5 -1.613343,0.173351 -2.28,0.52 -0.640009,0.320017 -1.186675,0.746684 -1.64,1.28 -0.45334,0.533349 -0.81334,1.146682 -1.08,1.84 -0.240006,0.693347 -0.400006,1.400013 -0.48,2.12 l 10.32,0"
         style="font-variant:normal;font-stretch:normal;fill:#ffffff;font-family:Ubuntu;-inkscape-font-specification:Ubuntu"
         id="path3907" />
      <path
         d="m 52.818125,62.349506 c -1.680011,0 -3.160009,-0.266667 -4.44,-0.8 -1.25334,-0.533332 -2.320005,-1.279998 -3.2,-2.24 -0.853337,-0.959996 -1.493336,-2.093329 -1.92,-3.4 -0.426669,-1.333326 -0.640002,-2.799991 -0.64,-4.4 -2e-6,-1.599988 0.226664,-3.066653 0.68,-4.4 0.479997,-1.333317 1.146663,-2.479983 2,-3.44 0.853328,-0.986647 1.893327,-1.746647 3.12,-2.28 1.253324,-0.559979 2.63999,-0.839979 4.16,-0.84 0.93332,2.1e-5 1.866653,0.08002 2.8,0.24 0.933318,0.160021 1.82665,0.413354 2.68,0.76 l -0.84,3.16 c -0.560016,-0.266649 -1.213349,-0.479982 -1.96,-0.64 -0.720014,-0.159982 -1.493347,-0.239982 -2.32,-0.24 -2.08001,1.8e-5 -3.680009,0.653351 -4.8,1.96 -1.09334,1.306682 -1.640006,3.213346 -1.64,5.72 -6e-6,1.120009 0.119994,2.146675 0.36,3.08 0.26666,0.93334 0.66666,1.733339 1.2,2.4 0.559992,0.666671 1.266658,1.18667 2.12,1.56 0.853323,0.34667 1.893322,0.520003 3.12,0.52 0.986653,3e-6 1.879985,-0.09333 2.68,-0.28 0.799984,-0.186663 1.42665,-0.386663 1.88,-0.6 l 0.52,3.12 c -0.213351,0.133334 -0.520017,0.266667 -0.92,0.4 -0.400016,0.106667 -0.853349,0.2 -1.36,0.28 -0.506682,0.106667 -1.053348,0.186666 -1.64,0.24 -0.560013,0.08 -1.106679,0.12 -1.64,0.12"
         style="font-variant:normal;font-stretch:normal;fill:#ffffff;font-family:Ubuntu;-inkscape-font-specification:Ubuntu"
         id="path3909" />
      <path
         d="m 80.185,51.469506 c -2.2e-5,1.653342 -0.240021,3.146674 -0.72,4.48 -0.48002,1.333338 -1.16002,2.480004 -2.04,3.44 -0.853351,0.960002 -1.880017,1.706668 -3.08,2.24 -1.200015,0.506666 -2.50668,0.76 -3.92,0.76 -1.413344,0 -2.720009,-0.253334 -3.92,-0.76 -1.200007,-0.533332 -2.240006,-1.279998 -3.12,-2.24 -0.853337,-0.959996 -1.520003,-2.106662 -2,-3.44 -0.480002,-1.333326 -0.720002,-2.826658 -0.72,-4.48 -2e-6,-1.626655 0.239998,-3.106653 0.72,-4.44 0.479997,-1.359984 1.146663,-2.519983 2,-3.48 0.879994,-0.959981 1.919993,-1.693313 3.12,-2.2 1.199991,-0.533312 2.506656,-0.799979 3.92,-0.8 1.41332,2.1e-5 2.719985,0.266688 3.92,0.8 1.199983,0.506687 2.226649,1.240019 3.08,2.2 0.87998,0.960017 1.55998,2.120016 2.04,3.48 0.479979,1.333347 0.719978,2.813345 0.72,4.44 m -3.88,0 c -1.8e-5,-2.346654 -0.53335,-4.199985 -1.6,-5.56 -1.040015,-1.386649 -2.46668,-2.079982 -4.28,-2.08 -1.813343,1.8e-5 -3.253342,0.693351 -4.32,2.08 -1.040006,1.360015 -1.560006,3.213346 -1.56,5.56 -6e-6,2.346675 0.519994,4.21334 1.56,5.6 1.066658,1.360004 2.506657,2.040003 4.32,2.04 1.81332,3e-6 3.239985,-0.679996 4.28,-2.04 1.06665,-1.38666 1.599982,-3.253325 1.6,-5.6"
         style="font-variant:normal;font-stretch:normal;fill:#ffffff;font-family:Ubuntu;-inkscape-font-specification:Ubuntu"
         id="path3911" />
      <path
         d="m 89.13875,61.869506 -3.72,0 0,-20.8 3.72,0 0,20.8 m -1.88,-24.56 c -0.666671,2.5e-5 -1.240004,-0.213308 -1.72,-0.64 -0.453336,-0.453308 -0.680003,-1.053307 -0.68,-1.8 -3e-6,-0.746639 0.226664,-1.333305 0.68,-1.76 0.479996,-0.453304 1.053329,-0.67997 1.72,-0.68 0.666661,3e-5 1.22666,0.226696 1.68,0.68 0.479993,0.426695 0.719993,1.013361 0.72,1.76 -7e-6,0.746693 -0.240007,1.346692 -0.72,1.8 -0.45334,0.426692 -1.013339,0.640025 -1.68,0.64"
         style="font-variant:normal;font-stretch:normal;fill:#ffffff;font-family:Ubuntu;-inkscape-font-specification:Ubuntu"
         id="path3913" />
      <path
         d="m 95.575,41.669506 c 0.853329,-0.213313 1.986661,-0.439979 3.4,-0.68 1.41333,-0.239979 3.03999,-0.359979 4.88,-0.36 1.65332,2.1e-5 3.02665,0.240021 4.12,0.72 1.09332,0.453353 1.95998,1.106686 2.6,1.96 0.66665,0.826684 1.13331,1.826683 1.4,3 0.26665,1.173348 0.39998,2.46668 0.4,3.88 l 0,11.68 -3.72,0 0,-10.88 c -2e-5,-1.279988 -0.0934,-2.37332 -0.28,-3.28 -0.16002,-0.906652 -0.44002,-1.639984 -0.84,-2.2 -0.40001,-0.559983 -0.93335,-0.959983 -1.6,-1.2 -0.66668,-0.266649 -1.49335,-0.399982 -2.48,-0.4 -0.40001,1.8e-5 -0.81334,0.01335 -1.24,0.04 -0.42668,0.02669 -0.84001,0.06668 -1.24,0.12 -0.37334,0.02669 -0.72001,0.06668 -1.04,0.12 -0.293341,0.05335 -0.506674,0.09335 -0.64,0.12 l 0,17.56 -3.72,0 0,-20.2"
         style="font-variant:normal;font-stretch:normal;fill:#ffffff;font-family:Ubuntu;-inkscape-font-specification:Ubuntu"
         id="path3915" />
    </g>
    <g
       id="g3893"
       transform="matrix(1.6090994,0,0,1.6090994,-132.0409,-509.75825)">
      <path
         style="opacity:0.8;fill:#ffffff"
         inkscape:connector-curvature="0"
         d="m 315.4968,849.10204 -1.52997,0.59398 0.73765,-2.95808 1.54819,-0.62185 2.23115,-9.03718 h 5.49907 l -1.6286,6.64306 1.51174,-0.6122 -0.72907,2.94843 -1.52996,0.6122 -0.90919,3.73431 h 8.27918 l -0.93599,3.82866 h -13.80398 z"
         id="path3085" />
      <g
         transform="matrix(0.70574883,0,-0.17995854,0.70574883,321.65726,814.15681)"
         style="font-size:40px;font-style:normal;font-variant:normal;font-weight:600;font-stretch:normal;line-height:125%;letter-spacing:0px;word-spacing:0px;opacity:0.8;fill:#ffffff;fill-opacity:1;stroke:#ffffff;font-family:FreeSans;-inkscape-font-specification:FreeSans Semi-Bold"
         id="flowRoot3117">
        <path
           d="m -9.0425,39.2525 -6.8,0 0,-3.72 c 4.906659,2.3e-5 7.7999895,-1.693308 8.68,-5.08 l 3.72,0 0,28.36 -5.6,0 0,-19.56"
           style="fill:#ffffff;stroke:#ffffff;font-family:FreeSans;-inkscape-font-specification:FreeSans Semi-Bold"
           id="path3918" />
      </g>
    </g>
  </g>
</svg>
