<?xml version="1.0" encoding="UTF-8" standalone="no"?>
<!-- Created with Inkscape (http://www.inkscape.org/) -->

<svg
   xmlns:dc="http://purl.org/dc/elements/1.1/"
   xmlns:cc="http://creativecommons.org/ns#"
   xmlns:rdf="http://www.w3.org/1999/02/22-rdf-syntax-ns#"
   xmlns:svg="http://www.w3.org/2000/svg"
   xmlns="http://www.w3.org/2000/svg"
   xmlns:xlink="http://www.w3.org/1999/xlink"
   xmlns:sodipodi="http://sodipodi.sourceforge.net/DTD/sodipodi-0.dtd"
   xmlns:inkscape="http://www.inkscape.org/namespaces/inkscape"
   width="460.62991"
   height="283.46457"
   id="svg2"
   version="1.1"
   inkscape:version="0.48.5 r10040"
   sodipodi:docname="banknote_bg_template.svg"
   inkscape:export-filename="/home/mammique/Documents/daat/banknote/cryptos/dash.png"
   inkscape:export-xdpi="156.31"
   inkscape:export-ydpi="156.31">
  <defs
     id="defs4">
    <linearGradient
       id="linearGradient4925">
      <stop
         style="stop-color:#bd9800;stop-opacity:1;"
         offset="0"
         id="stop4927" />
      <stop
         id="stop3784"
         offset="0.51732481"
         style="stop-color:#ffcc04;stop-opacity:1;" />
      <stop
         offset="1"
         id="stop4929"
         style="stop-color:#a98500;stop-opacity:1;" />
    </linearGradient>
    <linearGradient
       id="linearGradient4835">
      <stop
         style="stop-color:#000000;stop-opacity:0.61572052"
         offset="0"
         id="stop4837" />
      <stop
         style="stop-color:#000000;stop-opacity:0;"
         offset="1"
         id="stop4839" />
    </linearGradient>
    <linearGradient
       inkscape:collect="always"
       id="linearGradient4531">
      <stop
         style="stop-color:#ffffff;stop-opacity:1;"
         offset="0"
         id="stop4533" />
      <stop
         style="stop-color:#ffffff;stop-opacity:0;"
         offset="1"
         id="stop4535" />
    </linearGradient>
    <clipPath
       clipPathUnits="userSpaceOnUse"
       id="clipPath5978">
      <rect
         style="color:#000000;fill:#cccccc;fill-opacity:1;fill-rule:nonzero;stroke:#003a00;stroke-width:0.89999998;stroke-linecap:butt;stroke-linejoin:miter;stroke-miterlimit:4;stroke-opacity:1;stroke-dasharray:none;stroke-dashoffset:0;marker:none;visibility:visible;display:inline;overflow:visible;enable-background:accumulate"
         id="rect5980"
         width="173.74623"
         height="1608.1628"
         x="610.13214"
         y="-378.01382"
         transform="matrix(0,-1,1,0,0,0)" />
    </clipPath>
    <inkscape:perspective
       id="perspective2497"
       inkscape:persp3d-origin="372.04724 : 350.78739 : 1"
       inkscape:vp_z="744.09448 : 526.18109 : 1"
       inkscape:vp_y="0 : 1000 : 0"
       inkscape:vp_x="0 : 526.18109 : 1"
       sodipodi:type="inkscape:persp3d" />
    <linearGradient
       inkscape:collect="always"
       xlink:href="#linearGradient4531"
       id="linearGradient4823"
       gradientUnits="userSpaceOnUse"
       x1="182.81697"
       y1="175.83376"
       x2="183.58928"
       y2="-16.309107"
       gradientTransform="translate(53.033008,825.69937)" />
    <radialGradient
       inkscape:collect="always"
       xlink:href="#linearGradient4835"
       id="radialGradient4845"
       cx="7.3256431"
       cy="198.2952"
       fx="7.3256431"
       fy="198.2952"
       r="109.27257"
       gradientTransform="matrix(0.19829552,0.15553474,-0.16582027,0.21140881,93.302602,945.5672)"
       gradientUnits="userSpaceOnUse" />
    <linearGradient
       id="linearGradient4925-6">
      <stop
         style="stop-color:#bd9800;stop-opacity:1;"
         offset="0"
         id="stop4927-7" />
      <stop
         id="stop3784-5"
         offset="0.5"
         style="stop-color:#ffcc04;stop-opacity:1;" />
      <stop
         offset="1"
         id="stop4929-3"
         style="stop-color:#a98500;stop-opacity:1;" />
    </linearGradient>
    <linearGradient
       gradientTransform="translate(-17.649337,-11.359598)"
       y2="38.317909"
       x2="313.61914"
       y1="142.8687"
       x1="50.479298"
       gradientUnits="userSpaceOnUse"
       id="linearGradient3802"
       xlink:href="#linearGradient4925-6"
       inkscape:collect="always" />
    <linearGradient
       id="linearGradient4925-2">
      <stop
         style="stop-color:#bd9800;stop-opacity:1;"
         offset="0"
         id="stop4927-3" />
      <stop
         id="stop3784-7"
         offset="0.38554054"
         style="stop-color:#ffcc04;stop-opacity:1;" />
      <stop
         offset="1"
         id="stop4929-5"
         style="stop-color:#a98500;stop-opacity:1;" />
    </linearGradient>
    <linearGradient
       y2="38.317909"
       x2="313.61914"
       y1="83.269699"
       x1="19.16457"
       gradientTransform="translate(-17.649337,-11.359581)"
       gradientUnits="userSpaceOnUse"
       id="linearGradient4077"
       xlink:href="#linearGradient4925-2"
       inkscape:collect="always" />
    <linearGradient
       id="linearGradient4925-28">
      <stop
         style="stop-color:#bd9800;stop-opacity:1;"
         offset="0"
         id="stop4927-9" />
      <stop
         id="stop3784-73"
         offset="0.51732481"
         style="stop-color:#ffcc04;stop-opacity:1;" />
      <stop
         offset="1"
         id="stop4929-6"
         style="stop-color:#a98500;stop-opacity:1;" />
    </linearGradient>
    <linearGradient
       y2="19.746481"
       x2="180.76199"
       y1="166.12685"
       x1="180.59314"
       gradientTransform="translate(-17.649337,-11.359581)"
       gradientUnits="userSpaceOnUse"
       id="linearGradient4113"
       xlink:href="#linearGradient4925-28"
       inkscape:collect="always" />
    <linearGradient
       id="linearGradient4925-7">
      <stop
         style="stop-color:#bd9800;stop-opacity:1;"
         offset="0"
         id="stop4927-5" />
      <stop
         id="stop3784-3"
         offset="0.51732481"
         style="stop-color:#ffcc04;stop-opacity:1;" />
      <stop
         offset="1"
         id="stop4929-56"
         style="stop-color:#a98500;stop-opacity:1;" />
    </linearGradient>
    <linearGradient
       y2="19.746481"
       x2="180.76199"
       y1="166.12685"
       x1="180.59314"
       gradientTransform="translate(-17.649337,-11.359581)"
       gradientUnits="userSpaceOnUse"
       id="linearGradient3327"
       xlink:href="#linearGradient4925-7"
       inkscape:collect="always" />
    <linearGradient
       id="linearGradient4925-7-1">
      <stop
         style="stop-color:#bd9800;stop-opacity:1;"
         offset="0"
         id="stop4927-5-2" />
      <stop
         id="stop3784-3-7"
         offset="0.51732481"
         style="stop-color:#ffcc04;stop-opacity:1;" />
      <stop
         offset="1"
         id="stop4929-56-0"
         style="stop-color:#a98500;stop-opacity:1;" />
    </linearGradient>
    <linearGradient
       y2="19.032196"
       x2="138.61914"
       y1="166.12685"
       x1="180.59314"
       gradientTransform="translate(-17.649337,-7.9568844)"
       gradientUnits="userSpaceOnUse"
       id="linearGradient3455"
       xlink:href="#linearGradient4925-7-1"
       inkscape:collect="always" />
    <linearGradient
       inkscape:collect="always"
       xlink:href="#linearGradient4925-7-6"
       id="linearGradient3350-3"
       gradientUnits="userSpaceOnUse"
       gradientTransform="translate(54.548237,823.78353)"
       x1="180.59314"
       y1="166.12685"
       x2="138.61914"
       y2="19.032196" />
    <linearGradient
       id="linearGradient4925-7-6">
      <stop
         style="stop-color:#bd9800;stop-opacity:1;"
         offset="0"
         id="stop4927-5-0" />
      <stop
         id="stop3784-3-6"
         offset="0.51732481"
         style="stop-color:#ffcc04;stop-opacity:1;" />
      <stop
         offset="1"
         id="stop4929-56-2"
         style="stop-color:#a98500;stop-opacity:1;" />
    </linearGradient>
    <linearGradient
       y2="19.032196"
       x2="138.61914"
       y1="166.12685"
       x1="180.59314"
       gradientTransform="translate(-17.649337,-7.9568844)"
       gradientUnits="userSpaceOnUse"
       id="linearGradient3491"
       xlink:href="#linearGradient4925-7-6"
       inkscape:collect="always" />
    <linearGradient
       id="linearGradient4835-7">
      <stop
         style="stop-color:#000000;stop-opacity:0.61572052"
         offset="0"
         id="stop4837-5" />
      <stop
         style="stop-color:#000000;stop-opacity:0;"
         offset="1"
         id="stop4839-9" />
    </linearGradient>
    <radialGradient
       r="109.27257"
       fy="198.2952"
       fx="7.3256431"
       cy="198.2952"
       cx="7.3256431"
       gradientTransform="matrix(0.19829552,0.15553474,-0.16582027,0.21140881,132.487,52.51516)"
       gradientUnits="userSpaceOnUse"
       id="radialGradient3545"
       xlink:href="#linearGradient4835-7"
       inkscape:collect="always" />
    <linearGradient
       id="linearGradient4835-8">
      <stop
         style="stop-color:#000000;stop-opacity:0.61572052"
         offset="0"
         id="stop4837-9" />
      <stop
         style="stop-color:#000000;stop-opacity:0;"
         offset="1"
         id="stop4839-7" />
    </linearGradient>
    <radialGradient
       r="109.27257"
       fy="198.2952"
       fx="7.3256431"
       cy="198.2952"
       cx="7.3256431"
       gradientTransform="matrix(0.19829552,0.15553474,-0.16582027,0.21140881,132.487,52.51516)"
       gradientUnits="userSpaceOnUse"
       id="radialGradient3578"
       xlink:href="#linearGradient4835-8"
       inkscape:collect="always" />
    <linearGradient
       inkscape:collect="always"
       xlink:href="#linearGradient4925-7-6-1"
       id="linearGradient3350-3-6"
       gradientUnits="userSpaceOnUse"
       gradientTransform="translate(54.548237,823.78353)"
       x1="180.59314"
       y1="166.12685"
       x2="138.61914"
       y2="19.032196" />
    <linearGradient
       id="linearGradient4925-7-6-1">
      <stop
         style="stop-color:#bd9800;stop-opacity:1;"
         offset="0"
         id="stop4927-5-0-2" />
      <stop
         id="stop3784-3-6-9"
         offset="0.51732481"
         style="stop-color:#ffcc04;stop-opacity:1;" />
      <stop
         offset="1"
         id="stop4929-56-2-3"
         style="stop-color:#a98500;stop-opacity:1;" />
    </linearGradient>
    <linearGradient
       y2="19.032196"
       x2="138.61914"
       y1="166.12685"
       x1="180.59314"
       gradientTransform="translate(-17.649337,-14.676051)"
       gradientUnits="userSpaceOnUse"
       id="linearGradient3612"
       xlink:href="#linearGradient4925-7-6-1"
       inkscape:collect="always" />
  </defs>
  <sodipodi:namedview
     id="base"
     pagecolor="#5271a5"
     bordercolor="#666666"
     borderopacity="1.0"
     inkscape:pageopacity="1"
     inkscape:pageshadow="2"
     inkscape:zoom="2.8"
     inkscape:cx="225.75924"
     inkscape:cy="170.6403"
     inkscape:document-units="px"
     inkscape:current-layer="layer1"
     showgrid="false"
     units="mm"
     inkscape:window-width="1918"
     inkscape:window-height="1059"
     inkscape:window-x="1366"
     inkscape:window-y="19"
     inkscape:window-maximized="1"
     showguides="true"
     inkscape:guide-bbox="true" />
  <metadata
     id="metadata7">
    <rdf:RDF>
      <cc:Work
         rdf:about="">
        <dc:format>image/svg+xml</dc:format>
        <dc:type
           rdf:resource="http://purl.org/dc/dcmitype/StillImage" />
        <dc:title></dc:title>
      </cc:Work>
    </rdf:RDF>
  </metadata>
  <g
     inkscape:label="Calque 1"
     inkscape:groupmode="layer"
     id="layer1"
     transform="translate(0,-768.89763)">
    <path
       id="Shape"
       d="m 164.96754,896.78747 c -2.61169,0 -4.82157,2.10944 -4.82157,4.82159 0,3.81708 -0.60269,4.8216 -4.82159,4.8216 l -0.40182,0 c -2.41075,0.201 -4.31933,2.20987 -4.31933,4.72112 l 0,0.1005 c 0,3.71664 -0.70314,4.62068 -4.8216,4.62068 -0.201,0 -0.40178,0 -0.50222,0.1005 -2.41081,0.3015 -4.31934,2.31035 -4.31934,4.72116 0,2.61169 2.10944,4.82159 4.82156,4.82159 2.51126,0 4.62072,-2.00899 4.72116,-4.41981 l 0,-0.40178 c 0,-3.4153 1.10495,-4.72116 4.72112,-4.82159 l 0.1005,0 c 2.51125,0 4.62072,-2.009 4.72115,-4.52025 l 0,-0.3012 c 0,-3.51573 1.10496,-4.82159 4.8216,-4.82159 2.61169,3e-5 4.82159,-2.1094 4.82159,-4.82156 0,-2.51125 -2.10943,-4.62068 -4.72115,-4.62068 l 0,0 z m -28.3268,9.64319 0,0 c 2.41078,0.201 4.31933,2.20987 4.41977,4.62068 0,2.71213 -2.10943,4.82159 -4.82159,4.82159 -2.71213,0 -4.82159,-2.2099 -4.82159,-4.82159 0,-3.41529 -1.10496,-4.72115 -4.8216,-4.72115 -3.71664,0 -4.82156,1.30586 -4.82156,4.82159 l 0,0.3012 c -0.1005,2.41081 -2.2099,4.4198 -4.72115,4.4198 -2.71213,0 -4.82159,-2.2099 -4.82159,-4.82159 0,-2.51125 1.90855,-4.52025 4.31933,-4.72115 l 0.40182,0 c 4.21887,0 4.82159,-0.90405 4.82159,-4.72113 0,-2.71216 2.20987,-4.82159 4.82156,-4.82159 2.71216,0 4.8216,2.2099 4.8216,4.82159 0,3.81708 0.60269,4.82159 4.82159,4.82159 l 0.40182,0 z m -29.13041,19.08543 c -2.66288,0 -4.82159,-2.15868 -4.82159,-4.82159 0,-2.66289 2.15871,-4.82157 4.82159,-4.82157 2.66289,0 4.82156,2.15868 4.82156,4.82157 0,2.66291 -2.1587,4.82159 -4.82156,4.82159 z"
       inkscape:connector-curvature="0"
       style="color:#000000;fill:#4a90e2;fill-opacity:1;fill-rule:nonzero;stroke:none;marker:none;visibility:visible;display:inline;overflow:visible;enable-background:accumulate" />
    <g
       transform="matrix(0.36694678,0,0,0.36694678,35.781214,834.31592)"
       id="g3105"
       style="opacity:0.8;color:#000000;fill:#ffffff;fill-opacity:1;fill-rule:nonzero;stroke:none;stroke-width:1;marker:none;visibility:visible;display:inline;overflow:visible;enable-background:accumulate">
      <path
         inkscape:connector-curvature="0"
         class="st1"
         d="m 109.3,0.8 c -0.3,0 -0.6,0.1 -0.8,0.4 -0.2,0.2 -0.3,0.5 -0.3,0.9 V 25 L 90.7,1.4 C 90.4,1 90.1,0.8 89.7,0.8 89.3,0.8 89,0.9 88.8,1.2 88.6,1.4 88.5,1.7 88.5,2.1 v 26 c 0,0.4 0.1,0.7 0.3,0.9 0.2,0.2 0.5,0.3 0.9,0.3 0.3,0 0.6,-0.1 0.8,-0.4 0.2,-0.2 0.3,-0.5 0.3,-0.9 V 5.2 l 17.5,23.6 c 0.3,0.4 0.7,0.6 1.1,0.6 0.4,0 0.7,-0.1 0.9,-0.4 0.2,-0.2 0.3,-0.5 0.3,-0.9 v -26 c 0,-0.4 -0.1,-0.7 -0.3,-0.9 -0.3,-0.3 -0.6,-0.4 -1,-0.4 z m 92,-0.8 c -8.1,0 -14.7,6.6 -14.7,14.7 0,8.1 6.6,14.7 14.7,14.7 8.1,0 14.7,-6.6 14.7,-14.7 C 216,6.6 209.4,0 201.3,0 z m 0,27 C 194.5,27 189,21.5 189,14.7 c 0,-6.8 5.5,-12.3 12.3,-12.3 6.8,0 12.3,5.5 12.3,12.3 0,6.8 -5.5,12.3 -12.3,12.3 z M 177,0.8 c -0.3,0 -0.6,0.1 -0.8,0.4 -0.2,0.2 -0.3,0.5 -0.3,0.9 V 25 L 158.4,1.4 c -0.3,-0.4 -0.6,-0.6 -1,-0.6 -0.4,0 -0.7,0.1 -0.9,0.4 -0.2,0.2 -0.3,0.5 -0.3,0.9 v 26 c 0,0.4 0.1,0.7 0.3,0.9 0.2,0.2 0.5,0.3 0.9,0.3 0.3,0 0.6,-0.1 0.8,-0.4 0.2,-0.2 0.3,-0.5 0.3,-0.9 V 5.2 L 176,28.8 c 0.3,0.4 0.7,0.6 1.1,0.6 0.4,0 0.7,-0.1 0.9,-0.4 0.2,-0.2 0.3,-0.5 0.3,-0.9 v -26 c 0,-0.4 -0.1,-0.7 -0.3,-0.9 -0.3,-0.3 -0.6,-0.4 -1,-0.4 z m -42.3,0.8 c -0.1,-0.3 -0.3,-0.5 -0.5,-0.6 -0.3,-0.2 -0.5,-0.2 -0.8,-0.2 -0.6,0 -1.1,0.3 -1.3,0.9 l -11.7,26.2 c -0.1,0.1 -0.1,0.3 -0.1,0.4 0,0.3 0.1,0.6 0.3,0.8 0.2,0.2 0.5,0.3 0.8,0.3 0.5,0 0.9,-0.3 1.1,-0.8 l 3.1,-7 h 15.5 l 3,7 c 0.1,0.2 0.3,0.4 0.5,0.6 0.2,0.1 0.4,0.2 0.6,0.2 0.3,0 0.6,-0.1 0.8,-0.3 0.2,-0.2 0.4,-0.4 0.4,-0.7 0,-0.2 0,-0.3 -0.1,-0.5 L 134.7,1.6 z m -8.2,17.9 6.8,-15.5 6.8,15.5 h -13.6 z"
         id="path3107"
         style="color:#000000;fill:#ffffff;fill-opacity:1;fill-rule:nonzero;stroke:none;stroke-width:1;marker:none;visibility:visible;display:inline;overflow:visible;enable-background:accumulate" />
    </g>
    <g
       id="g3959"
       transform="matrix(0.70599154,0,0,0.70599154,118.83282,287.0678)">
      <path
         inkscape:connector-curvature="0"
         id="path3187"
         d="m 321.84731,777.85237 6.51967,0 0,34.77155"
         style="opacity:0.8;fill:none;stroke:#ffffff;stroke-width:5.40890741;stroke-linecap:round;stroke-linejoin:round;stroke-miterlimit:4;stroke-opacity:1;stroke-dasharray:none" />
      <path
         id="path3957"
         d="m 390.64892,783.65333 c -2.10633,0 -3.88861,1.70127 -3.88861,3.88862 0,3.07849 -0.48607,3.88864 -3.88862,3.88864 l -0.32407,0 c -1.94428,0.16211 -3.48355,1.78226 -3.48355,3.80759 l 0,0.081 c 0,2.99748 -0.56709,3.72659 -3.88864,3.72659 -0.1621,0 -0.32404,0 -0.40503,0.081 -1.94434,0.24316 -3.48356,1.86331 -3.48356,3.80763 0,2.10634 1.70126,3.88862 3.88859,3.88862 2.02534,0 3.72662,-1.62026 3.80763,-3.56459 l 0,-0.32403 c 0,-2.75445 0.89115,-3.80763 3.8076,-3.88863 l 0.081,0 c 2.02533,0 3.72662,-1.62026 3.80762,-3.64559 l 0,-0.24292 c 0,-2.83545 0.89115,-3.88862 3.88863,-3.88862 2.10634,2e-5 3.88862,-1.70124 3.88862,-3.8886 0,-2.02533 -1.70125,-3.7266 -3.80761,-3.7266 l 0,0 z m -22.84563,7.77726 0,0 c 1.94429,0.16211 3.48355,1.78226 3.56455,3.72659 0,2.18733 -1.70126,3.88862 -3.88862,3.88862 -2.18734,0 -3.88863,-1.78229 -3.88863,-3.88862 0,-2.75444 -0.89115,-3.80763 -3.88864,-3.80763 -2.99747,0 -3.88859,1.05319 -3.88859,3.88863 l 0,0.24292 c -0.081,1.94432 -1.78229,3.56458 -3.80762,3.56458 -2.18734,0 -3.88863,-1.78229 -3.88863,-3.88862 0,-2.02533 1.53925,-3.6456 3.48355,-3.80763 l 0.32408,0 c 3.40253,0 3.88862,-0.72911 3.88862,-3.8076 0,-2.18736 1.78226,-3.88862 3.88859,-3.88862 2.18737,0 3.88864,1.78228 3.88864,3.88862 0,3.07849 0.48608,3.88863 3.88863,3.88863 l 0.32407,0 z m -23.49376,15.39244 c -2.14762,0 -3.88862,-1.74097 -3.88862,-3.88862 0,-2.14763 1.741,-3.88861 3.88862,-3.88861 2.14763,0 3.8886,1.74098 3.8886,3.88861 0,2.14765 -1.74099,3.88862 -3.8886,3.88862 z"
         inkscape:connector-curvature="0"
         style="opacity:0.8;color:#000000;fill:#ffffff;fill-opacity:1;fill-rule:nonzero;stroke:none;marker:none;visibility:visible;display:inline;overflow:visible;enable-background:accumulate" />
    </g>
  </g>
</svg>
