<?xml version="1.0" encoding="UTF-8" standalone="no"?>
<!-- Created with Inkscape (http://www.inkscape.org/) -->

<svg
   xmlns:dc="http://purl.org/dc/elements/1.1/"
   xmlns:cc="http://creativecommons.org/ns#"
   xmlns:rdf="http://www.w3.org/1999/02/22-rdf-syntax-ns#"
   xmlns:svg="http://www.w3.org/2000/svg"
   xmlns="http://www.w3.org/2000/svg"
   xmlns:xlink="http://www.w3.org/1999/xlink"
   xmlns:sodipodi="http://sodipodi.sourceforge.net/DTD/sodipodi-0.dtd"
   xmlns:inkscape="http://www.inkscape.org/namespaces/inkscape"
   width="460.62991"
   height="283.46457"
   id="svg2"
   version="1.1"
   inkscape:version="0.48.5 r10040"
   sodipodi:docname="banknote_bg_template.svg"
   inkscape:export-filename="/home/mammique/Documents/daat/banknote/cryptos/dash.png"
   inkscape:export-xdpi="156.31"
   inkscape:export-ydpi="156.31">
  <defs
     id="defs4">
    <linearGradient
       id="linearGradient4925">
      <stop
         style="stop-color:#bd9800;stop-opacity:1;"
         offset="0"
         id="stop4927" />
      <stop
         id="stop3784"
         offset="0.51732481"
         style="stop-color:#ffcc04;stop-opacity:1;" />
      <stop
         offset="1"
         id="stop4929"
         style="stop-color:#a98500;stop-opacity:1;" />
    </linearGradient>
    <linearGradient
       id="linearGradient4835">
      <stop
         style="stop-color:#000000;stop-opacity:0.61572052"
         offset="0"
         id="stop4837" />
      <stop
         style="stop-color:#000000;stop-opacity:0;"
         offset="1"
         id="stop4839" />
    </linearGradient>
    <linearGradient
       inkscape:collect="always"
       id="linearGradient4531">
      <stop
         style="stop-color:#ffffff;stop-opacity:1;"
         offset="0"
         id="stop4533" />
      <stop
         style="stop-color:#ffffff;stop-opacity:0;"
         offset="1"
         id="stop4535" />
    </linearGradient>
    <clipPath
       clipPathUnits="userSpaceOnUse"
       id="clipPath5978">
      <rect
         style="color:#000000;fill:#cccccc;fill-opacity:1;fill-rule:nonzero;stroke:#003a00;stroke-width:0.89999998;stroke-linecap:butt;stroke-linejoin:miter;stroke-miterlimit:4;stroke-opacity:1;stroke-dasharray:none;stroke-dashoffset:0;marker:none;visibility:visible;display:inline;overflow:visible;enable-background:accumulate"
         id="rect5980"
         width="173.74623"
         height="1608.1628"
         x="610.13214"
         y="-378.01382"
         transform="matrix(0,-1,1,0,0,0)" />
    </clipPath>
    <inkscape:perspective
       id="perspective2497"
       inkscape:persp3d-origin="372.04724 : 350.78739 : 1"
       inkscape:vp_z="744.09448 : 526.18109 : 1"
       inkscape:vp_y="0 : 1000 : 0"
       inkscape:vp_x="0 : 526.18109 : 1"
       sodipodi:type="inkscape:persp3d" />
    <linearGradient
       inkscape:collect="always"
       xlink:href="#linearGradient4531"
       id="linearGradient4823"
       gradientUnits="userSpaceOnUse"
       x1="182.81697"
       y1="175.83376"
       x2="183.58928"
       y2="-16.309107"
       gradientTransform="translate(53.033008,825.69937)" />
    <radialGradient
       inkscape:collect="always"
       xlink:href="#linearGradient4835"
       id="radialGradient4845"
       cx="7.3256431"
       cy="198.2952"
       fx="7.3256431"
       fy="198.2952"
       r="109.27257"
       gradientTransform="matrix(0.19829552,0.15553474,-0.16582027,0.21140881,93.302602,945.5672)"
       gradientUnits="userSpaceOnUse" />
    <linearGradient
       id="linearGradient4925-6">
      <stop
         style="stop-color:#bd9800;stop-opacity:1;"
         offset="0"
         id="stop4927-7" />
      <stop
         id="stop3784-5"
         offset="0.5"
         style="stop-color:#ffcc04;stop-opacity:1;" />
      <stop
         offset="1"
         id="stop4929-3"
         style="stop-color:#a98500;stop-opacity:1;" />
    </linearGradient>
    <linearGradient
       gradientTransform="translate(-17.649337,-11.359598)"
       y2="38.317909"
       x2="313.61914"
       y1="142.8687"
       x1="50.479298"
       gradientUnits="userSpaceOnUse"
       id="linearGradient3802"
       xlink:href="#linearGradient4925-6"
       inkscape:collect="always" />
    <linearGradient
       id="linearGradient4925-2">
      <stop
         style="stop-color:#bd9800;stop-opacity:1;"
         offset="0"
         id="stop4927-3" />
      <stop
         id="stop3784-7"
         offset="0.38554054"
         style="stop-color:#ffcc04;stop-opacity:1;" />
      <stop
         offset="1"
         id="stop4929-5"
         style="stop-color:#a98500;stop-opacity:1;" />
    </linearGradient>
    <linearGradient
       y2="38.317909"
       x2="313.61914"
       y1="83.269699"
       x1="19.16457"
       gradientTransform="translate(-17.649337,-11.359581)"
       gradientUnits="userSpaceOnUse"
       id="linearGradient4077"
       xlink:href="#linearGradient4925-2"
       inkscape:collect="always" />
    <linearGradient
       id="linearGradient4925-28">
      <stop
         style="stop-color:#bd9800;stop-opacity:1;"
         offset="0"
         id="stop4927-9" />
      <stop
         id="stop3784-73"
         offset="0.51732481"
         style="stop-color:#ffcc04;stop-opacity:1;" />
      <stop
         offset="1"
         id="stop4929-6"
         style="stop-color:#a98500;stop-opacity:1;" />
    </linearGradient>
    <linearGradient
       y2="19.746481"
       x2="180.76199"
       y1="166.12685"
       x1="180.59314"
       gradientTransform="translate(-17.649337,-11.359581)"
       gradientUnits="userSpaceOnUse"
       id="linearGradient4113"
       xlink:href="#linearGradient4925-28"
       inkscape:collect="always" />
    <linearGradient
       id="linearGradient4925-7">
      <stop
         style="stop-color:#bd9800;stop-opacity:1;"
         offset="0"
         id="stop4927-5" />
      <stop
         id="stop3784-3"
         offset="0.51732481"
         style="stop-color:#ffcc04;stop-opacity:1;" />
      <stop
         offset="1"
         id="stop4929-56"
         style="stop-color:#a98500;stop-opacity:1;" />
    </linearGradient>
    <linearGradient
       y2="19.746481"
       x2="180.76199"
       y1="166.12685"
       x1="180.59314"
       gradientTransform="translate(-17.649337,-11.359581)"
       gradientUnits="userSpaceOnUse"
       id="linearGradient3327"
       xlink:href="#linearGradient4925-7"
       inkscape:collect="always" />
    <linearGradient
       id="linearGradient4925-7-1">
      <stop
         style="stop-color:#bd9800;stop-opacity:1;"
         offset="0"
         id="stop4927-5-2" />
      <stop
         id="stop3784-3-7"
         offset="0.51732481"
         style="stop-color:#ffcc04;stop-opacity:1;" />
      <stop
         offset="1"
         id="stop4929-56-0"
         style="stop-color:#a98500;stop-opacity:1;" />
    </linearGradient>
    <linearGradient
       y2="19.032196"
       x2="138.61914"
       y1="166.12685"
       x1="180.59314"
       gradientTransform="translate(-17.649337,-7.9568844)"
       gradientUnits="userSpaceOnUse"
       id="linearGradient3455"
       xlink:href="#linearGradient4925-7-1"
       inkscape:collect="always" />
    <linearGradient
       inkscape:collect="always"
       xlink:href="#linearGradient4925-7-6"
       id="linearGradient3350-3"
       gradientUnits="userSpaceOnUse"
       gradientTransform="translate(54.548237,823.78353)"
       x1="180.59314"
       y1="166.12685"
       x2="138.61914"
       y2="19.032196" />
    <linearGradient
       id="linearGradient4925-7-6">
      <stop
         style="stop-color:#bd9800;stop-opacity:1;"
         offset="0"
         id="stop4927-5-0" />
      <stop
         id="stop3784-3-6"
         offset="0.51732481"
         style="stop-color:#ffcc04;stop-opacity:1;" />
      <stop
         offset="1"
         id="stop4929-56-2"
         style="stop-color:#a98500;stop-opacity:1;" />
    </linearGradient>
    <linearGradient
       y2="19.032196"
       x2="138.61914"
       y1="166.12685"
       x1="180.59314"
       gradientTransform="translate(-17.649337,-7.9568844)"
       gradientUnits="userSpaceOnUse"
       id="linearGradient3491"
       xlink:href="#linearGradient4925-7-6"
       inkscape:collect="always" />
    <linearGradient
       id="linearGradient4835-7">
      <stop
         style="stop-color:#000000;stop-opacity:0.61572052"
         offset="0"
         id="stop4837-5" />
      <stop
         style="stop-color:#000000;stop-opacity:0;"
         offset="1"
         id="stop4839-9" />
    </linearGradient>
    <radialGradient
       r="109.27257"
       fy="198.2952"
       fx="7.3256431"
       cy="198.2952"
       cx="7.3256431"
       gradientTransform="matrix(0.19829552,0.15553474,-0.16582027,0.21140881,132.487,52.51516)"
       gradientUnits="userSpaceOnUse"
       id="radialGradient3545"
       xlink:href="#linearGradient4835-7"
       inkscape:collect="always" />
    <linearGradient
       id="linearGradient4835-8">
      <stop
         style="stop-color:#000000;stop-opacity:0.61572052"
         offset="0"
         id="stop4837-9" />
      <stop
         style="stop-color:#000000;stop-opacity:0;"
         offset="1"
         id="stop4839-7" />
    </linearGradient>
    <radialGradient
       r="109.27257"
       fy="198.2952"
       fx="7.3256431"
       cy="198.2952"
       cx="7.3256431"
       gradientTransform="matrix(0.19829552,0.15553474,-0.16582027,0.21140881,132.487,52.51516)"
       gradientUnits="userSpaceOnUse"
       id="radialGradient3578"
       xlink:href="#linearGradient4835-8"
       inkscape:collect="always" />
    <linearGradient
       inkscape:collect="always"
       xlink:href="#linearGradient4925-7-6-1"
       id="linearGradient3350-3-6"
       gradientUnits="userSpaceOnUse"
       gradientTransform="translate(54.548237,823.78353)"
       x1="180.59314"
       y1="166.12685"
       x2="138.61914"
       y2="19.032196" />
    <linearGradient
       id="linearGradient4925-7-6-1">
      <stop
         style="stop-color:#bd9800;stop-opacity:1;"
         offset="0"
         id="stop4927-5-0-2" />
      <stop
         id="stop3784-3-6-9"
         offset="0.51732481"
         style="stop-color:#ffcc04;stop-opacity:1;" />
      <stop
         offset="1"
         id="stop4929-56-2-3"
         style="stop-color:#a98500;stop-opacity:1;" />
    </linearGradient>
    <linearGradient
       y2="19.032196"
       x2="138.61914"
       y1="166.12685"
       x1="180.59314"
       gradientTransform="translate(-17.649337,-14.676051)"
       gradientUnits="userSpaceOnUse"
       id="linearGradient3612"
       xlink:href="#linearGradient4925-7-6-1"
       inkscape:collect="always" />
    <clipPath
       clipPathUnits="userSpaceOnUse"
       id="clipPath3292">
      <path
         inkscape:connector-curvature="0"
         d="m 161.128,547.047 273.02,0 0,130.393 -273.02,0 0,-130.393 z"
         id="path3294" />
    </clipPath>
  </defs>
  <sodipodi:namedview
     id="base"
     pagecolor="#5271a5"
     bordercolor="#666666"
     borderopacity="1.0"
     inkscape:pageopacity="1"
     inkscape:pageshadow="2"
     inkscape:zoom="1.979899"
     inkscape:cx="209.55114"
     inkscape:cy="187.49727"
     inkscape:document-units="px"
     inkscape:current-layer="layer1"
     showgrid="false"
     units="mm"
     inkscape:window-width="1918"
     inkscape:window-height="1059"
     inkscape:window-x="1366"
     inkscape:window-y="19"
     inkscape:window-maximized="1"
     showguides="true"
     inkscape:guide-bbox="true" />
  <metadata
     id="metadata7">
    <rdf:RDF>
      <cc:Work
         rdf:about="">
        <dc:format>image/svg+xml</dc:format>
        <dc:type
           rdf:resource="http://purl.org/dc/dcmitype/StillImage" />
        <dc:title></dc:title>
      </cc:Work>
    </rdf:RDF>
  </metadata>
  <g
     inkscape:label="Calque 1"
     inkscape:groupmode="layer"
     id="layer1"
     transform="translate(0,-768.89763)">
    <g
       id="g3457"
       style="opacity:0.80000000000000004;color:#000000;fill:#ffffff;fill-opacity:1;fill-rule:nonzero;stroke:#ffffff;stroke-width:1;marker:none;visibility:visible;display:inline;overflow:visible;enable-background:accumulate"
       transform="matrix(0.18506769,0,0,0.18506769,70.621177,685.64691)">
      <g
         transform="matrix(1.25,0,0,-1.25,5.218705,805.4719)"
         id="g3296"
         style="color:#000000;fill:#ffffff;fill-opacity:1;fill-rule:nonzero;stroke:#ffffff;stroke-width:0.80000000999999998;marker:none;visibility:visible;display:inline;overflow:visible;enable-background:accumulate">
        <path
           inkscape:connector-curvature="0"
           id="path3298"
           style="color:#000000;fill:#ffffff;fill-opacity:1;fill-rule:nonzero;stroke:#ffffff;stroke-width:0.80000000999999998;marker:none;visibility:visible;display:inline;overflow:visible;enable-background:accumulate"
           d="m 0,0 c -1.743,0 -3.377,-0.339 -4.898,-1.013 -1.522,-0.676 -2.86,-1.584 -4.014,-2.725 -1.155,-1.142 -2.063,-2.473 -2.725,-3.997 -0.664,-1.522 -0.994,-3.143 -0.994,-4.861 0,-1.719 0.33,-3.34 0.994,-4.861 0.662,-1.522 1.57,-2.854 2.725,-3.995 1.154,-1.141 2.492,-2.051 4.014,-2.725 1.521,-0.676 3.155,-1.013 4.898,-1.013 1.718,0 3.345,0.337 4.88,1.013 1.534,0.674 2.872,1.584 4.013,2.725 1.143,1.141 2.049,2.479 2.727,4.013 0.674,1.534 1.011,3.149 1.011,4.843 0,1.718 -0.337,3.339 -1.011,4.861 -0.678,1.524 -1.584,2.855 -2.727,3.997 C 7.752,-2.597 6.414,-1.689 4.88,-1.013 3.345,-0.339 1.718,0 0,0 m 0,1.656 c 1.939,0 3.788,-0.374 5.543,-1.123 1.754,-0.748 3.284,-1.774 4.584,-3.074 1.301,-1.303 2.339,-2.818 3.112,-4.549 0.774,-1.731 1.16,-3.567 1.16,-5.506 0,-1.965 -0.386,-3.805 -1.16,-5.523 -0.773,-1.72 -1.811,-3.23 -3.112,-4.53 -1.3,-1.301 -2.83,-2.326 -4.584,-3.075 -1.755,-0.75 -3.604,-1.123 -5.543,-1.123 -1.964,0 -3.819,0.373 -5.56,1.123 -1.745,0.749 -3.267,1.774 -4.567,3.075 -1.301,1.3 -2.339,2.81 -3.112,4.53 -0.774,1.718 -1.16,3.558 -1.16,5.523 0,1.939 0.38,3.775 1.141,5.506 0.761,1.731 1.799,3.246 3.112,4.549 1.313,1.3 2.841,2.326 4.586,3.074 1.741,0.749 3.596,1.123 5.56,1.123" />
      </g>
      <g
         transform="matrix(1.25,0,0,-1.25,52.79508,820.61715)"
         id="g3300"
         style="color:#000000;fill:#ffffff;fill-opacity:1;fill-rule:nonzero;stroke:#ffffff;stroke-width:0.80000000999999998;marker:none;visibility:visible;display:inline;overflow:visible;enable-background:accumulate">
        <path
           inkscape:connector-curvature="0"
           id="path3302"
           style="color:#000000;fill:#ffffff;fill-opacity:1;fill-rule:nonzero;stroke:#ffffff;stroke-width:0.80000000999999998;marker:none;visibility:visible;display:inline;overflow:visible;enable-background:accumulate"
           d="m 0,0 0.074,0 c 0.49,0.933 1.177,1.669 2.062,2.208 0.883,0.542 1.877,0.811 2.984,0.811 1.104,0 2.011,-0.166 2.725,-0.496 0.711,-0.331 1.282,-0.805 1.712,-1.419 0.43,-0.614 0.73,-1.356 0.903,-2.227 0.17,-0.872 0.257,-1.861 0.257,-2.965 l 0,-10.276 -1.659,0 0,10.276 c 0,0.761 -0.035,1.479 -0.109,2.155 C 8.874,-1.259 8.697,-0.67 8.415,-0.167 8.132,0.337 7.721,0.736 7.181,1.032 6.641,1.325 5.903,1.472 4.973,1.472 3.891,1.472 3.025,1.247 2.376,0.792 1.724,0.337 1.228,-0.246 0.883,-0.957 0.54,-1.671 0.306,-2.467 0.184,-3.352 0.062,-4.235 0,-5.107 0,-5.967 l 0,-8.397 -1.656,0 0,17.015 L 0,2.651 0,0 z" />
      </g>
      <g
         transform="matrix(1.25,0,0,-1.25,98.11633,838.57178)"
         id="g3304"
         style="color:#000000;fill:#ffffff;fill-opacity:1;fill-rule:nonzero;stroke:#ffffff;stroke-width:0.80000000999999998;marker:none;visibility:visible;display:inline;overflow:visible;enable-background:accumulate">
        <path
           inkscape:connector-curvature="0"
           id="path3306"
           style="color:#000000;fill:#ffffff;fill-opacity:1;fill-rule:nonzero;stroke:#ffffff;stroke-width:0.80000000999999998;marker:none;visibility:visible;display:inline;overflow:visible;enable-background:accumulate"
           d="m 0,0 -1.658,0 0,15.468 -1.878,0 0,1.547 1.878,0 0,6.077 1.658,0 0,-6.077 2.982,0 0,-1.547 L 0,15.468 0,0 z" />
      </g>
      <g
         transform="matrix(1.25,0,0,-1.25,140.25958,818.7759)"
         id="g3308"
         style="color:#000000;fill:#ffffff;fill-opacity:1;fill-rule:nonzero;stroke:#ffffff;stroke-width:0.80000000999999998;marker:none;visibility:visible;display:inline;overflow:visible;enable-background:accumulate">
        <path
           inkscape:connector-curvature="0"
           id="path3310"
           style="color:#000000;fill:#ffffff;fill-opacity:1;fill-rule:nonzero;stroke:#ffffff;stroke-width:0.80000000999999998;marker:none;visibility:visible;display:inline;overflow:visible;enable-background:accumulate"
           d="m 0,0 c -1.007,0 -1.946,-0.196 -2.816,-0.589 -0.873,-0.393 -1.621,-0.927 -2.248,-1.603 -0.624,-0.676 -1.116,-1.462 -1.472,-2.357 -0.356,-0.895 -0.533,-1.834 -0.533,-2.818 0,-0.955 0.177,-1.878 0.533,-2.76 0.356,-0.885 0.852,-1.665 1.491,-2.339 0.639,-0.676 1.387,-1.21 2.245,-1.602 0.861,-0.393 1.793,-0.59 2.8,-0.59 1.032,0 2.001,0.184 2.909,0.552 0.908,0.368 1.696,0.883 2.357,1.547 0.664,0.664 1.185,1.437 1.566,2.32 0.38,0.885 0.57,1.842 0.57,2.872 0,1.056 -0.19,2.032 -0.57,2.93 C 6.451,-3.542 5.93,-2.762 5.266,-2.101 4.605,-1.437 3.825,-0.92 2.928,-0.552 2.03,-0.184 1.057,0 0,0 m 0.112,1.547 c 1.251,0 2.423,-0.228 3.515,-0.683 1.093,-0.453 2.038,-1.073 2.837,-1.859 0.798,-0.785 1.428,-1.724 1.896,-2.818 0.467,-1.092 0.701,-2.264 0.701,-3.515 0,-1.253 -0.234,-2.425 -0.701,-3.519 -0.468,-1.092 -1.098,-2.03 -1.896,-2.816 -0.799,-0.786 -1.744,-1.406 -2.837,-1.859 -1.092,-0.455 -2.264,-0.682 -3.515,-0.682 -1.231,0 -2.376,0.233 -3.445,0.699 -1.067,0.467 -2.002,1.106 -2.798,1.916 -0.8,0.809 -1.43,1.747 -1.898,2.816 -0.465,1.069 -0.699,2.203 -0.699,3.406 0,1.228 0.228,2.382 0.681,3.463 0.455,1.08 1.081,2.024 1.879,2.835 0.796,0.811 1.737,1.449 2.816,1.917 1.082,0.465 2.233,0.699 3.464,0.699" />
      </g>
      <path
         inkscape:connector-curvature="0"
         id="path3312"
         style="color:#000000;fill:#ffffff;fill-opacity:1;fill-rule:nonzero;stroke:#ffffff;stroke-width:1;marker:none;visibility:visible;display:inline;overflow:visible;enable-background:accumulate"
         d="m 181.16183,838.57065 -2.07,0 0,-37.9775 2.07,0 0,37.9775 z" />
      <g
         transform="matrix(1.25,0,0,-1.25,219.57683,818.7759)"
         id="g3314"
         style="color:#000000;fill:#ffffff;fill-opacity:1;fill-rule:nonzero;stroke:#ffffff;stroke-width:0.80000000999999998;marker:none;visibility:visible;display:inline;overflow:visible;enable-background:accumulate">
        <path
           inkscape:connector-curvature="0"
           id="path3316"
           style="color:#000000;fill:#ffffff;fill-opacity:1;fill-rule:nonzero;stroke:#ffffff;stroke-width:0.80000000999999998;marker:none;visibility:visible;display:inline;overflow:visible;enable-background:accumulate"
           d="m 0,0 c -1.007,0 -1.946,-0.196 -2.816,-0.589 -0.873,-0.393 -1.621,-0.927 -2.248,-1.603 -0.626,-0.676 -1.116,-1.462 -1.474,-2.357 -0.354,-0.895 -0.533,-1.834 -0.533,-2.818 0,-0.955 0.179,-1.878 0.533,-2.76 0.358,-0.885 0.854,-1.665 1.493,-2.339 0.639,-0.676 1.385,-1.21 2.245,-1.602 0.86,-0.393 1.793,-0.59 2.8,-0.59 1.032,0 2.001,0.184 2.909,0.552 0.908,0.368 1.696,0.883 2.357,1.547 0.664,0.664 1.185,1.437 1.566,2.32 0.38,0.885 0.57,1.842 0.57,2.872 0,1.056 -0.19,2.032 -0.57,2.93 C 6.451,-3.542 5.93,-2.762 5.266,-2.101 4.605,-1.437 3.825,-0.92 2.928,-0.552 2.03,-0.184 1.055,0 0,0 m 0.112,1.547 c 1.251,0 2.423,-0.228 3.515,-0.683 1.093,-0.453 2.038,-1.073 2.837,-1.859 0.798,-0.785 1.428,-1.724 1.896,-2.818 0.467,-1.092 0.701,-2.264 0.701,-3.515 0,-1.253 -0.234,-2.425 -0.701,-3.519 -0.468,-1.092 -1.098,-2.03 -1.896,-2.816 -0.799,-0.786 -1.744,-1.406 -2.837,-1.859 -1.092,-0.455 -2.264,-0.682 -3.515,-0.682 -1.231,0 -2.376,0.233 -3.445,0.699 -1.067,0.467 -2.002,1.106 -2.798,1.916 -0.8,0.809 -1.43,1.747 -1.898,2.816 -0.465,1.069 -0.699,2.203 -0.699,3.406 0,1.228 0.228,2.382 0.681,3.463 0.454,1.08 1.081,2.024 1.879,2.835 0.796,0.811 1.735,1.449 2.816,1.917 1.082,0.465 2.233,0.699 3.464,0.699" />
      </g>
      <g
         transform="matrix(1.25,0,0,-1.25,269.04108,818.7759)"
         id="g3318"
         style="color:#000000;fill:#ffffff;fill-opacity:1;fill-rule:nonzero;stroke:#ffffff;stroke-width:0.80000000999999998;marker:none;visibility:visible;display:inline;overflow:visible;enable-background:accumulate">
        <path
           inkscape:connector-curvature="0"
           id="path3320"
           style="color:#000000;fill:#ffffff;fill-opacity:1;fill-rule:nonzero;stroke:#ffffff;stroke-width:0.80000000999999998;marker:none;visibility:visible;display:inline;overflow:visible;enable-background:accumulate"
           d="m 0,0 c -0.982,0 -1.88,-0.203 -2.688,-0.608 -0.81,-0.405 -1.505,-0.945 -2.082,-1.621 -0.577,-0.674 -1.026,-1.447 -1.344,-2.32 -0.318,-0.872 -0.478,-1.762 -0.478,-2.669 0,-0.982 0.153,-1.921 0.459,-2.818 0.308,-0.896 0.755,-1.688 1.346,-2.374 0.588,-0.689 1.295,-1.235 2.116,-1.64 0.822,-0.405 1.751,-0.608 2.781,-0.608 1.081,0 2.038,0.203 2.872,0.608 0.835,0.405 1.536,0.958 2.1,1.656 0.565,0.701 0.993,1.512 1.288,2.432 0.296,0.92 0.443,1.896 0.443,2.928 0,0.982 -0.159,1.902 -0.48,2.762 C 6.015,-3.414 5.556,-2.671 4.954,-2.045 4.35,-1.418 3.633,-0.92 2.8,-0.552 1.964,-0.184 1.032,0 0,0 m 8.36,-15.026 c 0,-1.325 -0.081,-2.578 -0.24,-3.757 -0.159,-1.178 -0.643,-2.332 -1.454,-3.461 -0.786,-1.104 -1.774,-1.927 -2.965,-2.469 -1.191,-0.537 -2.462,-0.808 -3.813,-0.808 -1.104,0 -2.152,0.159 -3.147,0.477 -0.994,0.321 -1.873,0.792 -2.634,1.419 -0.761,0.626 -1.369,1.387 -1.821,2.282 -0.455,0.898 -0.72,1.934 -0.792,3.112 l 1.656,0 c 0.047,-0.883 0.258,-1.681 0.626,-2.394 0.368,-0.711 0.852,-1.311 1.454,-1.803 0.602,-0.49 1.29,-0.873 2.063,-1.141 0.774,-0.271 1.588,-0.406 2.449,-0.406 1.079,0 2.1,0.197 3.058,0.59 0.957,0.393 1.755,1.044 2.392,1.952 0.664,0.982 1.081,2.011 1.253,3.093 0.172,1.079 0.258,2.198 0.258,3.351 l 0,2.099 -0.074,0 C 5.868,-13.922 4.898,-14.732 3.72,-15.321 2.541,-15.909 1.301,-16.204 0,-16.204 c -1.228,0 -2.351,0.24 -3.37,0.717 -1.02,0.48 -1.89,1.129 -2.616,1.952 -0.724,0.823 -1.282,1.774 -1.675,2.853 -0.393,1.082 -0.589,2.211 -0.589,3.389 0,1.229 0.209,2.376 0.626,3.445 0.418,1.067 1.001,1.999 1.75,2.798 0.748,0.798 1.639,1.43 2.669,1.898 1.032,0.465 2.173,0.699 3.426,0.699 1.4,0 2.62,-0.284 3.664,-0.848 1.042,-0.565 1.958,-1.388 2.744,-2.467 l 0.074,0 0,2.947 1.657,0 0,-16.205 z" />
      </g>
      <g
         transform="matrix(1.25,0,0,-1.25,306.99583,817.30315)"
         id="g3322"
         style="color:#000000;fill:#ffffff;fill-opacity:1;fill-rule:nonzero;stroke:#ffffff;stroke-width:0.80000000999999998;marker:none;visibility:visible;display:inline;overflow:visible;enable-background:accumulate">
        <path
           inkscape:connector-curvature="0"
           id="path3324"
           style="color:#000000;fill:#ffffff;fill-opacity:1;fill-rule:nonzero;stroke:#ffffff;stroke-width:0.80000000999999998;marker:none;visibility:visible;display:inline;overflow:visible;enable-background:accumulate"
           d="M 0,0 1.731,0 8.986,-15.394 15.505,0 17.199,0 5.781,-26.958 l -1.693,0 4.088,9.65 L 0,0 z" />
      </g>
    </g>
    <path
       id="path3495"
       d="m 163.62403,935.27905 -44.10806,-43.14919 c 4.67575,-4.5741 11.13522,-7.40323 18.27016,-7.40323 14.26989,0 25.8379,11.31653 25.8379,25.27622 z m -52.85026,-48.25458 44.10806,43.14919 c -4.67572,4.5741 -11.13519,7.40323 -18.27016,7.40323 -14.26986,0 -25.8379,-11.31653 -25.8379,-25.27622 z"
       inkscape:connector-curvature="0"
       style="color:#000000;fill:#32a4be;fill-opacity:1;fill-rule:nonzero;stroke-width:1;stroke-linecap:butt;stroke-linejoin:miter;stroke-miterlimit:4;stroke-opacity:1;stroke-dasharray:none;stroke-dashoffset:0;marker:none;visibility:visible;display:inline;overflow:visible;enable-background:accumulate" />
    <g
       id="g3529"
       style="opacity:0.8"
       transform="matrix(0.502645,0,0,0.502645,248.556,404.54511)">
      <g
         id="flowRoot3516"
         style="font-size:40px;font-style:normal;font-variant:normal;font-weight:normal;font-stretch:normal;line-height:125%;letter-spacing:0px;word-spacing:0px;fill:#ffffff;fill-opacity:1;stroke:none;font-family:Comfortaa;-inkscape-font-specification:Comfortaa"
         transform="matrix(2.1709584,0,0,2.1709584,-131.25294,846.70812)">
        <path
           inkscape:connector-curvature="0"
           id="path3527"
           d="m 161.51953,3.8279011 0.23438,0 c 0.88541,0.1953403 1.32811,0.618517 1.32812,1.2695312 l 0,25.3906247 c -0.16928,0.937501 -0.63803,1.40625 -1.40625,1.40625 l -0.0781,0 c -0.93751,-0.195312 -1.40626,-0.611978 -1.40625,-1.25 l 0,-23.3984372 c -1.32813,0.4427326 -2.19402,0.6640865 -2.59766,0.6640625 -0.61198,2.4e-5 -1.02865,-0.4491943 -1.25,-1.3476562 l 0,-0.3710938 c 0,-0.7291402 0.98958,-1.2955459 2.96875,-1.6992187 l 2.20703,-0.6640625" />
      </g>
      <path
         id="path3524"
         d="m 295.95401,913.30037 -50.85253,-49.74704 c 5.39071,-5.27351 12.83788,-8.53524 21.06381,-8.53524 16.45187,0 29.78872,13.04692 29.78872,29.14115 z m -60.93148,-55.63308 50.85253,49.74704 c -5.39068,5.27351 -12.83785,8.53524 -21.06381,8.53524 -16.45184,0 -29.78872,-13.04692 -29.78872,-29.14115 z"
         inkscape:connector-curvature="0"
         style="color:#000000;fill:#ffffff;fill-opacity:1;fill-rule:nonzero;stroke-width:1;stroke-linecap:butt;stroke-linejoin:miter;stroke-miterlimit:4;stroke-opacity:1;stroke-dasharray:none;stroke-dashoffset:0;marker:none;visibility:visible;display:inline;overflow:visible;enable-background:accumulate" />
    </g>
  </g>
</svg>
