<?xml version="1.0" encoding="UTF-8" standalone="no"?>
<!-- Created with Inkscape (http://www.inkscape.org/) -->

<svg
   xmlns:dc="http://purl.org/dc/elements/1.1/"
   xmlns:cc="http://creativecommons.org/ns#"
   xmlns:rdf="http://www.w3.org/1999/02/22-rdf-syntax-ns#"
   xmlns:svg="http://www.w3.org/2000/svg"
   xmlns="http://www.w3.org/2000/svg"
   xmlns:xlink="http://www.w3.org/1999/xlink"
   xmlns:sodipodi="http://sodipodi.sourceforge.net/DTD/sodipodi-0.dtd"
   xmlns:inkscape="http://www.inkscape.org/namespaces/inkscape"
   width="460.62991"
   height="283.46457"
   id="svg2"
   version="1.1"
   inkscape:version="0.48.5 r10040"
   sodipodi:docname="ox.svg"
   inkscape:export-filename="/home/mammique/Documents/daat/banknote/cryptos/dash.png"
   inkscape:export-xdpi="156.31"
   inkscape:export-ydpi="156.31">
  <defs
     id="defs4">
    <linearGradient
       id="linearGradient4925">
      <stop
         style="stop-color:#bd9800;stop-opacity:1;"
         offset="0"
         id="stop4927" />
      <stop
         id="stop3784"
         offset="0.51732481"
         style="stop-color:#ffcc04;stop-opacity:1;" />
      <stop
         offset="1"
         id="stop4929"
         style="stop-color:#a98500;stop-opacity:1;" />
    </linearGradient>
    <linearGradient
       id="linearGradient4835">
      <stop
         style="stop-color:#000000;stop-opacity:0.61572052"
         offset="0"
         id="stop4837" />
      <stop
         style="stop-color:#000000;stop-opacity:0;"
         offset="1"
         id="stop4839" />
    </linearGradient>
    <clipPath
       clipPathUnits="userSpaceOnUse"
       id="clipPath5978">
      <rect
         style="color:#000000;fill:#cccccc;fill-opacity:1;fill-rule:nonzero;stroke:#003a00;stroke-width:0.89999998;stroke-linecap:butt;stroke-linejoin:miter;stroke-miterlimit:4;stroke-opacity:1;stroke-dasharray:none;stroke-dashoffset:0;marker:none;visibility:visible;display:inline;overflow:visible;enable-background:accumulate"
         id="rect5980"
         width="173.74623"
         height="1608.1628"
         x="610.13214"
         y="-378.01382"
         transform="matrix(0,-1,1,0,0,0)" />
    </clipPath>
    <inkscape:perspective
       id="perspective2497"
       inkscape:persp3d-origin="372.04724 : 350.78739 : 1"
       inkscape:vp_z="744.09448 : 526.18109 : 1"
       inkscape:vp_y="0 : 1000 : 0"
       inkscape:vp_x="0 : 526.18109 : 1"
       sodipodi:type="inkscape:persp3d" />
    <linearGradient
       id="linearGradient4925-6">
      <stop
         style="stop-color:#bd9800;stop-opacity:1;"
         offset="0"
         id="stop4927-7" />
      <stop
         id="stop3784-5"
         offset="0.5"
         style="stop-color:#ffcc04;stop-opacity:1;" />
      <stop
         offset="1"
         id="stop4929-3"
         style="stop-color:#a98500;stop-opacity:1;" />
    </linearGradient>
    <linearGradient
       gradientTransform="translate(-17.649337,-11.359598)"
       y2="38.317909"
       x2="313.61914"
       y1="142.8687"
       x1="50.479298"
       gradientUnits="userSpaceOnUse"
       id="linearGradient3802"
       xlink:href="#linearGradient4925-6"
       inkscape:collect="always" />
    <linearGradient
       id="linearGradient4925-2">
      <stop
         style="stop-color:#bd9800;stop-opacity:1;"
         offset="0"
         id="stop4927-3" />
      <stop
         id="stop3784-7"
         offset="0.38554054"
         style="stop-color:#ffcc04;stop-opacity:1;" />
      <stop
         offset="1"
         id="stop4929-5"
         style="stop-color:#a98500;stop-opacity:1;" />
    </linearGradient>
    <linearGradient
       y2="38.317909"
       x2="313.61914"
       y1="83.269699"
       x1="19.16457"
       gradientTransform="translate(-17.649337,-11.359581)"
       gradientUnits="userSpaceOnUse"
       id="linearGradient4077"
       xlink:href="#linearGradient4925-2"
       inkscape:collect="always" />
    <linearGradient
       id="linearGradient4925-28">
      <stop
         style="stop-color:#bd9800;stop-opacity:1;"
         offset="0"
         id="stop4927-9" />
      <stop
         id="stop3784-73"
         offset="0.51732481"
         style="stop-color:#ffcc04;stop-opacity:1;" />
      <stop
         offset="1"
         id="stop4929-6"
         style="stop-color:#a98500;stop-opacity:1;" />
    </linearGradient>
    <linearGradient
       y2="19.746481"
       x2="180.76199"
       y1="166.12685"
       x1="180.59314"
       gradientTransform="translate(-17.649337,-11.359581)"
       gradientUnits="userSpaceOnUse"
       id="linearGradient4113"
       xlink:href="#linearGradient4925-28"
       inkscape:collect="always" />
    <linearGradient
       id="linearGradient4925-7">
      <stop
         style="stop-color:#bd9800;stop-opacity:1;"
         offset="0"
         id="stop4927-5" />
      <stop
         id="stop3784-3"
         offset="0.51732481"
         style="stop-color:#ffcc04;stop-opacity:1;" />
      <stop
         offset="1"
         id="stop4929-56"
         style="stop-color:#a98500;stop-opacity:1;" />
    </linearGradient>
    <linearGradient
       y2="19.746481"
       x2="180.76199"
       y1="166.12685"
       x1="180.59314"
       gradientTransform="translate(-17.649337,-11.359581)"
       gradientUnits="userSpaceOnUse"
       id="linearGradient3327"
       xlink:href="#linearGradient4925-7"
       inkscape:collect="always" />
    <linearGradient
       id="linearGradient4925-7-1">
      <stop
         style="stop-color:#bd9800;stop-opacity:1;"
         offset="0"
         id="stop4927-5-2" />
      <stop
         id="stop3784-3-7"
         offset="0.51732481"
         style="stop-color:#ffcc04;stop-opacity:1;" />
      <stop
         offset="1"
         id="stop4929-56-0"
         style="stop-color:#a98500;stop-opacity:1;" />
    </linearGradient>
    <linearGradient
       y2="19.032196"
       x2="138.61914"
       y1="166.12685"
       x1="180.59314"
       gradientTransform="translate(-17.649337,-7.9568844)"
       gradientUnits="userSpaceOnUse"
       id="linearGradient3455"
       xlink:href="#linearGradient4925-7-1"
       inkscape:collect="always" />
    <linearGradient
       id="linearGradient4925-7-6">
      <stop
         style="stop-color:#bd9800;stop-opacity:1;"
         offset="0"
         id="stop4927-5-0" />
      <stop
         id="stop3784-3-6"
         offset="0.51732481"
         style="stop-color:#ffcc04;stop-opacity:1;" />
      <stop
         offset="1"
         id="stop4929-56-2"
         style="stop-color:#a98500;stop-opacity:1;" />
    </linearGradient>
    <linearGradient
       y2="19.032196"
       x2="138.61914"
       y1="166.12685"
       x1="180.59314"
       gradientTransform="translate(-17.649337,-7.9568844)"
       gradientUnits="userSpaceOnUse"
       id="linearGradient3491"
       xlink:href="#linearGradient4925-7-6"
       inkscape:collect="always" />
    <linearGradient
       id="linearGradient4835-7">
      <stop
         style="stop-color:#000000;stop-opacity:0.61572052"
         offset="0"
         id="stop4837-5" />
      <stop
         style="stop-color:#000000;stop-opacity:0;"
         offset="1"
         id="stop4839-9" />
    </linearGradient>
    <radialGradient
       r="109.27257"
       fy="198.2952"
       fx="7.3256431"
       cy="198.2952"
       cx="7.3256431"
       gradientTransform="matrix(0.19829552,0.15553474,-0.16582027,0.21140881,132.487,52.51516)"
       gradientUnits="userSpaceOnUse"
       id="radialGradient3545"
       xlink:href="#linearGradient4835-7"
       inkscape:collect="always" />
    <linearGradient
       id="linearGradient4835-8">
      <stop
         style="stop-color:#000000;stop-opacity:0.61572052"
         offset="0"
         id="stop4837-9" />
      <stop
         style="stop-color:#000000;stop-opacity:0;"
         offset="1"
         id="stop4839-7" />
    </linearGradient>
    <radialGradient
       r="109.27257"
       fy="198.2952"
       fx="7.3256431"
       cy="198.2952"
       cx="7.3256431"
       gradientTransform="matrix(0.19829552,0.15553474,-0.16582027,0.21140881,132.487,52.51516)"
       gradientUnits="userSpaceOnUse"
       id="radialGradient3578"
       xlink:href="#linearGradient4835-8"
       inkscape:collect="always" />
    <linearGradient
       id="linearGradient4925-7-6-1">
      <stop
         style="stop-color:#bd9800;stop-opacity:1;"
         offset="0"
         id="stop4927-5-0-2" />
      <stop
         id="stop3784-3-6-9"
         offset="0.51732481"
         style="stop-color:#ffcc04;stop-opacity:1;" />
      <stop
         offset="1"
         id="stop4929-56-2-3"
         style="stop-color:#a98500;stop-opacity:1;" />
    </linearGradient>
    <linearGradient
       y2="19.032196"
       x2="138.61914"
       y1="166.12685"
       x1="180.59314"
       gradientTransform="translate(-17.649337,-14.676051)"
       gradientUnits="userSpaceOnUse"
       id="linearGradient3612"
       xlink:href="#linearGradient4925-7-6-1"
       inkscape:collect="always" />
  </defs>
  <sodipodi:namedview
     id="base"
     pagecolor="#5271a5"
     bordercolor="#666666"
     borderopacity="1.0"
     inkscape:pageopacity="1"
     inkscape:pageshadow="2"
     inkscape:zoom="2.8"
     inkscape:cx="84.098385"
     inkscape:cy="197.07418"
     inkscape:document-units="px"
     inkscape:current-layer="layer1"
     showgrid="false"
     units="mm"
     inkscape:window-width="1918"
     inkscape:window-height="1059"
     inkscape:window-x="1366"
     inkscape:window-y="19"
     inkscape:window-maximized="1"
     showguides="true"
     inkscape:guide-bbox="true" />
  <metadata
     id="metadata7">
    <rdf:RDF>
      <cc:Work
         rdf:about="">
        <dc:format>image/svg+xml</dc:format>
        <dc:type
           rdf:resource="http://purl.org/dc/dcmitype/StillImage" />
        <dc:title></dc:title>
      </cc:Work>
    </rdf:RDF>
  </metadata>
  <g
     inkscape:label="Calque 1"
     inkscape:groupmode="layer"
     id="layer1"
     transform="translate(0,-768.89763)">
    <path
       style="opacity:0.8;color:#000000;fill:#ffffff;fill-opacity:1;fill-rule:nonzero;stroke:none;stroke-width:1;marker:none;visibility:visible;display:inline;overflow:visible;enable-background:accumulate"
       d="m 77.199848,834.31593 c -2.090546,0 -3.509304,0.25578 -4.822011,0.87372 -0.798329,0.39197 -1.662112,0.87794 -2.096937,1.36018 -0.0082,0.009 -0.01569,0.0192 -0.02362,0.0283 -0.04552,0.0482 -0.08914,0.0978 -0.127516,0.15113 -6.05e-4,0.001 6.05e-4,0.004 0,0.005 -0.09476,0.13174 -0.184251,0.2635 -0.269201,0.39672 0.08537,0.0621 0.173109,0.11883 0.264478,0.17002 1.056636,0.59298 2.250275,1.0343 3.2682,1.0343 l 7.400677,0 c 1.017926,0 2.205962,-0.4422 3.263477,-1.0343 0.133341,-0.0748 0.261908,-0.16174 0.38255,-0.25976 l -0.609246,-0.59035 c -1.541115,-1.48544 -3.560462,-2.13472 -6.630856,-2.13472 z m 10.95697,0.5998 -2.682568,0.005 -2.682569,0.009 0.528957,0.40616 c 0.290927,0.22296 0.782537,0.66808 1.090975,0.9918 l 0.269201,0.28337 0.08973,0.11334 c 0.373876,-0.4151 0.671079,-0.96562 0.892615,-1.65771 0.151326,0.64929 0.226696,1.15027 0.226696,1.50658 0,0.52109 -0.07289,0.98247 -0.193636,1.39324 -4.54e-4,0.002 4.53e-4,0.003 0,0.005 0.08784,0.21485 0.176377,0.46485 0.25031,0.75566 0.02313,0.091 0.0401,0.17291 0.05667,0.25031 0.0018,0.005 0.0029,0.009 0.0047,0.0142 6.05e-4,0.003 -6.04e-4,0.007 0,0.009 0.287939,0.8329 0.636159,2.59428 0.637582,3.49018 7.56e-4,0.44004 -0.469664,1.34379 -2.356693,4.52447 -1.297133,2.18638 -2.394627,4.06933 -2.436981,4.17971 -0.06282,0.1637 0.512752,0.19389 3.131238,0.16057 l 3.211525,-0.0425 0.869001,-1.63883 0.873724,-1.63882 0.878447,1.67661 0.878447,1.6766 3.225694,0 3.220971,0 -0.179468,-0.34004 c -0.09972,-0.18703 -1.210984,-2.04228 -2.470041,-4.12303 l -2.290573,-3.78299 2.460595,-4.00024 c 1.351927,-2.20002 2.461389,-4.05125 2.465319,-4.11359 0.0039,-0.0623 -1.443514,-0.11335 -3.211526,-0.11335 l -3.211526,0 -0.883169,1.77579 -0.88317,1.77578 -0.892615,-1.77578 -0.887892,-1.77579 z m -2.781748,3.85383 c -0.173942,0.32921 -0.381939,0.61152 -0.599799,0.85955 -0.603541,0.68712 -2.168838,1.11049 -3.055673,1.56798 0,1.51589 -0.642754,2.56059 -1.662436,3.72632 -0.523479,0.59826 -0.812327,2.02569 -0.812327,2.59756 0,0.36247 0.05667,0.72782 0.05667,1.53019 0,0.80238 -0.321455,1.85135 -1.454633,1.85135 l -1.511306,0 c -1.133177,0 -1.449909,-1.04897 -1.449909,-1.85135 0,-0.80237 0.05667,-1.16772 0.05667,-1.53019 0,-0.57187 -0.288849,-1.9993 -0.812327,-2.59756 -1.019683,-1.16573 -1.662437,-2.21131 -1.662437,-3.72632 -0.886835,-0.45837 -2.456855,-0.87613 -3.060395,-1.56325 -0.166593,-0.18967 -0.323949,-0.40119 -0.467561,-0.63759 -0.159056,0.42767 -0.272949,0.81954 -0.354212,1.14293 -0.0035,10e-4 -0.006,0.003 -0.0094,0.005 -0.02273,0.0978 -0.04102,0.19505 -0.0614,0.29754 -0.0028,0.0139 -0.0067,0.0286 -0.0094,0.0425 -0.07285,0.34189 -0.103902,0.56202 -0.103902,0.56202 l 0.0094,0.005 c -0.206981,1.4367 -0.210082,3.14929 0.01417,4.43946 0.626642,3.60513 2.72338,5.77599 6.205801,6.42305 1.396698,0.25952 4.386655,0.20457 5.591833,-0.1039 l 1.071326,-0.44617 2.206319,-3.82799 2.521992,-4.08053 0,-1.20904 c 4.54e-4,-0.6843 -0.11824,-1.66933 -0.273924,-2.26696 -0.06681,-0.25645 -0.118048,-0.47379 -0.151131,-0.65648 -6.04e-4,-0.003 6.05e-4,-0.006 0,-0.009 -0.04708,-0.135 -0.120499,-0.31824 -0.221973,-0.54313 z"
       id="path3092"
       inkscape:connector-curvature="0"
       sodipodi:nodetypes="ccccccccsscccccccccccccscccccccsccccccccccccccscccccccsccssssssccccccccccsscccccccccc" />
    <path
       style="color:#000000;fill:#4392cd;fill-opacity:1;fill-rule:nonzero;stroke-width:1;stroke-linecap:butt;stroke-linejoin:miter;stroke-miterlimit:4;stroke-opacity:1;stroke-dasharray:none;stroke-dashoffset:0;marker:none;visibility:visible;display:inline;overflow:visible;enable-background:accumulate"
       inkscape:connector-curvature="0"
       d="m 138.68096,941.29512 h -4.98443 c -3.74119,0 -4.80139,-3.46817 -4.80139,-6.11721 0,-2.64905 0.18881,-3.84867 0.18881,-5.04539 0,-1.88802 -0.95274,-6.60228 -2.68101,-8.57744 -3.36649,-3.84867 -5.48689,-7.29647 -5.48689,-12.29832 -2.92789,-1.51332 -8.10399,-2.90176 -10.09658,-5.17029 -1.9926,-2.26851 -3.6773,-5.48979 -3.6773,-10.09658 0,-1.17635 0.2498,-2.83783 0.7494,-4.98149 1.14734,3.58435 2.91337,6.04169 5.29809,7.37783 3.48849,1.95774 7.4214,3.40716 10.78208,3.40716 h 24.43401 c 3.36068,0 7.29068,-1.45233 10.78208,-3.40716 2.38181,-1.33614 4.15075,-3.79348 5.29809,-7.37783 0.4996,2.14366 0.7494,3.80511 0.7494,4.98149 0,4.60391 -1.6847,7.82223 -3.6773,10.09081 -1.99259,2.2685 -7.16869,3.65986 -10.09658,5.17028 0,5.0047 -2.1204,8.45252 -5.48689,12.30122 -1.72827,1.97513 -2.68101,6.68942 -2.68101,8.57741 0,1.19676 0.18881,2.39637 0.18881,5.0454 0,2.64904 -1.0602,6.1172 -4.80139,6.1172 z"
       id="path3131" />
    <g
       id="g3171"
       transform="translate(115.27539,1.6144836)"
       style="opacity:0.80000000000000004;color:#000000;fill:#ffffff;fill-opacity:1;fill-rule:nonzero;stroke:none;stroke-width:1;marker:none;visibility:visible;display:inline;overflow:visible;enable-background:accumulate">
      <g
         transform="translate(32,768.89763)"
         style="font-size:40px;font-style:normal;font-variant:normal;font-weight:bold;font-stretch:normal;line-height:125%;letter-spacing:0px;word-spacing:0px;color:#000000;fill:#ffffff;marker:none;visibility:visible;display:inline;overflow:visible;enable-background:accumulate;font-family:Sans;-inkscape-font-specification:Sans Bold"
         id="flowRoot3161">
        <path
           d="m 197.90625,87.768404 6.64062,0 0,-18.847656 -6.8164,1.40625 0,-5.117188 6.77734,-1.40625 7.14844,0 0,23.964844 6.64062,0 0,5.195312 -20.39062,0 0,-5.195312"
           style="marker:none"
           id="path3196" />
      </g>
      <path
         style="color:#000000;fill:#ffffff;fill-opacity:1;fill-rule:nonzero;stroke-width:1;stroke-linecap:butt;stroke-linejoin:miter;stroke-miterlimit:4;stroke-opacity:1;stroke-dasharray:none;stroke-dashoffset:0;marker:none;visibility:visible;display:inline;overflow:visible;enable-background:accumulate;stroke:none"
         inkscape:connector-curvature="0"
         d="m 267.23116,861.86127 h -2.77978 c -2.08645,0 -2.67772,-1.93418 -2.67772,-3.41153 0,-1.47736 0.10535,-2.14639 0.10535,-2.81379 0,-1.05293 -0.53135,-3.68205 -1.49519,-4.78359 -1.87748,-2.14637 -3.06002,-4.06919 -3.06002,-6.8587 -1.63286,-0.84397 -4.51954,-1.6183 -5.63079,-2.88343 -1.11127,-1.26514 -2.05081,-3.06163 -2.05081,-5.63081 0,-0.65604 0.1393,-1.58265 0.41793,-2.77815 0.63986,1.99896 1.62478,3.36941 2.95472,4.11457 1.9455,1.09183 4.13887,1.90016 6.0131,1.90016 h 13.6267 c 1.87423,0 4.06598,-0.80996 6.01311,-1.90016 1.32833,-0.74516 2.31486,-2.11561 2.95472,-4.11457 0.27863,1.1955 0.41793,2.12208 0.41793,2.77815 0,2.56757 -0.93955,4.36241 -2.05081,5.62759 -1.11125,1.26512 -3.99793,2.04107 -5.6308,2.88343 0,2.79109 -1.18253,4.71392 -3.06001,6.86032 -0.96384,1.10152 -1.49519,3.73066 -1.49519,4.78357 0,0.66743 0.10535,1.33644 0.10535,2.81379 0,1.47735 -0.59127,3.41153 -2.67772,3.41153 z"
         id="path3169" />
    </g>
  </g>
</svg>
