<?xml version="1.0" encoding="UTF-8" standalone="no"?>
<!-- Created with Inkscape (http://www.inkscape.org/) -->

<svg
   xmlns:dc="http://purl.org/dc/elements/1.1/"
   xmlns:cc="http://creativecommons.org/ns#"
   xmlns:rdf="http://www.w3.org/1999/02/22-rdf-syntax-ns#"
   xmlns:svg="http://www.w3.org/2000/svg"
   xmlns="http://www.w3.org/2000/svg"
   xmlns:xlink="http://www.w3.org/1999/xlink"
   xmlns:sodipodi="http://sodipodi.sourceforge.net/DTD/sodipodi-0.dtd"
   xmlns:inkscape="http://www.inkscape.org/namespaces/inkscape"
   width="460.62991"
   height="283.46457"
   id="svg2"
   version="1.1"
   inkscape:version="0.48.5 r10040"
   sodipodi:docname="banknote_bg_template.svg"
   inkscape:export-filename="/home/mammique/Documents/daat/banknote/cryptos/dash.png"
   inkscape:export-xdpi="156.31"
   inkscape:export-ydpi="156.31">
  <defs
     id="defs4">
    <linearGradient
       id="linearGradient4925">
      <stop
         style="stop-color:#bd9800;stop-opacity:1;"
         offset="0"
         id="stop4927" />
      <stop
         id="stop3784"
         offset="0.51732481"
         style="stop-color:#ffcc04;stop-opacity:1;" />
      <stop
         offset="1"
         id="stop4929"
         style="stop-color:#a98500;stop-opacity:1;" />
    </linearGradient>
    <linearGradient
       id="linearGradient4835">
      <stop
         style="stop-color:#000000;stop-opacity:0.61572052"
         offset="0"
         id="stop4837" />
      <stop
         style="stop-color:#000000;stop-opacity:0;"
         offset="1"
         id="stop4839" />
    </linearGradient>
    <linearGradient
       inkscape:collect="always"
       id="linearGradient4531">
      <stop
         style="stop-color:#ffffff;stop-opacity:1;"
         offset="0"
         id="stop4533" />
      <stop
         style="stop-color:#ffffff;stop-opacity:0;"
         offset="1"
         id="stop4535" />
    </linearGradient>
    <clipPath
       clipPathUnits="userSpaceOnUse"
       id="clipPath5978">
      <rect
         style="color:#000000;fill:#cccccc;fill-opacity:1;fill-rule:nonzero;stroke:#003a00;stroke-width:0.89999998;stroke-linecap:butt;stroke-linejoin:miter;stroke-miterlimit:4;stroke-opacity:1;stroke-dasharray:none;stroke-dashoffset:0;marker:none;visibility:visible;display:inline;overflow:visible;enable-background:accumulate"
         id="rect5980"
         width="173.74623"
         height="1608.1628"
         x="610.13214"
         y="-378.01382"
         transform="matrix(0,-1,1,0,0,0)" />
    </clipPath>
    <inkscape:perspective
       id="perspective2497"
       inkscape:persp3d-origin="372.04724 : 350.78739 : 1"
       inkscape:vp_z="744.09448 : 526.18109 : 1"
       inkscape:vp_y="0 : 1000 : 0"
       inkscape:vp_x="0 : 526.18109 : 1"
       sodipodi:type="inkscape:persp3d" />
    <linearGradient
       inkscape:collect="always"
       xlink:href="#linearGradient4531"
       id="linearGradient4823"
       gradientUnits="userSpaceOnUse"
       x1="182.81697"
       y1="175.83376"
       x2="183.58928"
       y2="-16.309107"
       gradientTransform="translate(53.033008,825.69937)" />
    <radialGradient
       inkscape:collect="always"
       xlink:href="#linearGradient4835"
       id="radialGradient4845"
       cx="7.3256431"
       cy="198.2952"
       fx="7.3256431"
       fy="198.2952"
       r="109.27257"
       gradientTransform="matrix(0.19829552,0.15553474,-0.16582027,0.21140881,93.302602,945.5672)"
       gradientUnits="userSpaceOnUse" />
    <linearGradient
       id="linearGradient4925-6">
      <stop
         style="stop-color:#bd9800;stop-opacity:1;"
         offset="0"
         id="stop4927-7" />
      <stop
         id="stop3784-5"
         offset="0.5"
         style="stop-color:#ffcc04;stop-opacity:1;" />
      <stop
         offset="1"
         id="stop4929-3"
         style="stop-color:#a98500;stop-opacity:1;" />
    </linearGradient>
    <linearGradient
       gradientTransform="translate(-17.649337,-11.359598)"
       y2="38.317909"
       x2="313.61914"
       y1="142.8687"
       x1="50.479298"
       gradientUnits="userSpaceOnUse"
       id="linearGradient3802"
       xlink:href="#linearGradient4925-6"
       inkscape:collect="always" />
    <linearGradient
       id="linearGradient4925-2">
      <stop
         style="stop-color:#bd9800;stop-opacity:1;"
         offset="0"
         id="stop4927-3" />
      <stop
         id="stop3784-7"
         offset="0.38554054"
         style="stop-color:#ffcc04;stop-opacity:1;" />
      <stop
         offset="1"
         id="stop4929-5"
         style="stop-color:#a98500;stop-opacity:1;" />
    </linearGradient>
    <linearGradient
       y2="38.317909"
       x2="313.61914"
       y1="83.269699"
       x1="19.16457"
       gradientTransform="translate(-17.649337,-11.359581)"
       gradientUnits="userSpaceOnUse"
       id="linearGradient4077"
       xlink:href="#linearGradient4925-2"
       inkscape:collect="always" />
    <linearGradient
       id="linearGradient4925-28">
      <stop
         style="stop-color:#bd9800;stop-opacity:1;"
         offset="0"
         id="stop4927-9" />
      <stop
         id="stop3784-73"
         offset="0.51732481"
         style="stop-color:#ffcc04;stop-opacity:1;" />
      <stop
         offset="1"
         id="stop4929-6"
         style="stop-color:#a98500;stop-opacity:1;" />
    </linearGradient>
    <linearGradient
       y2="19.746481"
       x2="180.76199"
       y1="166.12685"
       x1="180.59314"
       gradientTransform="translate(-17.649337,-11.359581)"
       gradientUnits="userSpaceOnUse"
       id="linearGradient4113"
       xlink:href="#linearGradient4925-28"
       inkscape:collect="always" />
    <linearGradient
       id="linearGradient4925-7">
      <stop
         style="stop-color:#bd9800;stop-opacity:1;"
         offset="0"
         id="stop4927-5" />
      <stop
         id="stop3784-3"
         offset="0.51732481"
         style="stop-color:#ffcc04;stop-opacity:1;" />
      <stop
         offset="1"
         id="stop4929-56"
         style="stop-color:#a98500;stop-opacity:1;" />
    </linearGradient>
    <linearGradient
       y2="19.746481"
       x2="180.76199"
       y1="166.12685"
       x1="180.59314"
       gradientTransform="translate(-17.649337,-11.359581)"
       gradientUnits="userSpaceOnUse"
       id="linearGradient3327"
       xlink:href="#linearGradient4925-7"
       inkscape:collect="always" />
    <linearGradient
       id="linearGradient4925-7-1">
      <stop
         style="stop-color:#bd9800;stop-opacity:1;"
         offset="0"
         id="stop4927-5-2" />
      <stop
         id="stop3784-3-7"
         offset="0.51732481"
         style="stop-color:#ffcc04;stop-opacity:1;" />
      <stop
         offset="1"
         id="stop4929-56-0"
         style="stop-color:#a98500;stop-opacity:1;" />
    </linearGradient>
    <linearGradient
       y2="19.032196"
       x2="138.61914"
       y1="166.12685"
       x1="180.59314"
       gradientTransform="translate(-17.649337,-7.9568844)"
       gradientUnits="userSpaceOnUse"
       id="linearGradient3455"
       xlink:href="#linearGradient4925-7-1"
       inkscape:collect="always" />
    <linearGradient
       inkscape:collect="always"
       xlink:href="#linearGradient4925-7-6"
       id="linearGradient3350-3"
       gradientUnits="userSpaceOnUse"
       gradientTransform="translate(54.548237,823.78353)"
       x1="180.59314"
       y1="166.12685"
       x2="138.61914"
       y2="19.032196" />
    <linearGradient
       id="linearGradient4925-7-6">
      <stop
         style="stop-color:#bd9800;stop-opacity:1;"
         offset="0"
         id="stop4927-5-0" />
      <stop
         id="stop3784-3-6"
         offset="0.51732481"
         style="stop-color:#ffcc04;stop-opacity:1;" />
      <stop
         offset="1"
         id="stop4929-56-2"
         style="stop-color:#a98500;stop-opacity:1;" />
    </linearGradient>
    <linearGradient
       y2="19.032196"
       x2="138.61914"
       y1="166.12685"
       x1="180.59314"
       gradientTransform="translate(-17.649337,-7.9568844)"
       gradientUnits="userSpaceOnUse"
       id="linearGradient3491"
       xlink:href="#linearGradient4925-7-6"
       inkscape:collect="always" />
    <linearGradient
       id="linearGradient4835-7">
      <stop
         style="stop-color:#000000;stop-opacity:0.61572052"
         offset="0"
         id="stop4837-5" />
      <stop
         style="stop-color:#000000;stop-opacity:0;"
         offset="1"
         id="stop4839-9" />
    </linearGradient>
    <radialGradient
       r="109.27257"
       fy="198.2952"
       fx="7.3256431"
       cy="198.2952"
       cx="7.3256431"
       gradientTransform="matrix(0.19829552,0.15553474,-0.16582027,0.21140881,132.487,52.51516)"
       gradientUnits="userSpaceOnUse"
       id="radialGradient3545"
       xlink:href="#linearGradient4835-7"
       inkscape:collect="always" />
    <linearGradient
       id="linearGradient4835-8">
      <stop
         style="stop-color:#000000;stop-opacity:0.61572052"
         offset="0"
         id="stop4837-9" />
      <stop
         style="stop-color:#000000;stop-opacity:0;"
         offset="1"
         id="stop4839-7" />
    </linearGradient>
    <radialGradient
       r="109.27257"
       fy="198.2952"
       fx="7.3256431"
       cy="198.2952"
       cx="7.3256431"
       gradientTransform="matrix(0.19829552,0.15553474,-0.16582027,0.21140881,132.487,52.51516)"
       gradientUnits="userSpaceOnUse"
       id="radialGradient3578"
       xlink:href="#linearGradient4835-8"
       inkscape:collect="always" />
    <linearGradient
       inkscape:collect="always"
       xlink:href="#linearGradient4925-7-6-1"
       id="linearGradient3350-3-6"
       gradientUnits="userSpaceOnUse"
       gradientTransform="translate(54.548237,823.78353)"
       x1="180.59314"
       y1="166.12685"
       x2="138.61914"
       y2="19.032196" />
    <linearGradient
       id="linearGradient4925-7-6-1">
      <stop
         style="stop-color:#bd9800;stop-opacity:1;"
         offset="0"
         id="stop4927-5-0-2" />
      <stop
         id="stop3784-3-6-9"
         offset="0.51732481"
         style="stop-color:#ffcc04;stop-opacity:1;" />
      <stop
         offset="1"
         id="stop4929-56-2-3"
         style="stop-color:#a98500;stop-opacity:1;" />
    </linearGradient>
    <linearGradient
       y2="19.032196"
       x2="138.61914"
       y1="166.12685"
       x1="180.59314"
       gradientTransform="translate(-17.649337,-14.676051)"
       gradientUnits="userSpaceOnUse"
       id="linearGradient3612"
       xlink:href="#linearGradient4925-7-6-1"
       inkscape:collect="always" />
  </defs>
  <sodipodi:namedview
     id="base"
     pagecolor="#5271a5"
     bordercolor="#666666"
     borderopacity="1.0"
     inkscape:pageopacity="1"
     inkscape:pageshadow="2"
     inkscape:zoom="1.979899"
     inkscape:cx="218.98373"
     inkscape:cy="159.7922"
     inkscape:document-units="px"
     inkscape:current-layer="layer1"
     showgrid="false"
     units="mm"
     inkscape:window-width="1918"
     inkscape:window-height="1059"
     inkscape:window-x="1366"
     inkscape:window-y="19"
     inkscape:window-maximized="1"
     showguides="true"
     inkscape:guide-bbox="true" />
  <metadata
     id="metadata7">
    <rdf:RDF>
      <cc:Work
         rdf:about="">
        <dc:format>image/svg+xml</dc:format>
        <dc:type
           rdf:resource="http://purl.org/dc/dcmitype/StillImage" />
        <dc:title></dc:title>
      </cc:Work>
    </rdf:RDF>
  </metadata>
  <g
     inkscape:label="Calque 1"
     inkscape:groupmode="layer"
     id="layer1"
     transform="translate(0,-768.89763)">
    <path
       style="color:#000000;fill:#4273b9;fill-opacity:1;fill-rule:nonzero;stroke:none;stroke-width:1;marker:none;visibility:visible;display:inline;overflow:visible;enable-background:accumulate;stroke-miterlimit:4;stroke-dasharray:none"
       d="m 136.18875,880.48104 c -16.94019,0 -30.67075,13.73057 -30.67075,30.67068 0,16.94025 13.73056,30.67077 30.67075,30.67077 16.94017,0 30.67074,-13.73052 30.67074,-30.67077 0,-16.94011 -13.73057,-30.67068 -30.67074,-30.67068 z"
       id="path3893"
       inkscape:connector-curvature="0"
       sodipodi:nodetypes="sssss" />
    <path
       style="opacity:0.8;color:#000000;fill:#ffffff;fill-opacity:1;fill-rule:nonzero;stroke:none;stroke-width:1;marker:none;visibility:visible;display:inline;overflow:visible;enable-background:accumulate"
       d="m 86.386728,847.33403 c -0.285564,-0.46206 0.135736,-1.14307 0.707142,-1.14307 0.579143,0 1.467251,-1.11544 1.469003,-1.84503 4.58e-4,-0.19601 -0.565979,-1.67076 -1.25878,-3.27721 -0.6928,-1.60647 -1.259636,-3.01778 -1.259636,-3.13626 0,-0.11848 0.347781,-0.21542 0.772844,-0.21542 0.76926,0 0.776853,0.0107 1.636569,2.30265 0.475051,1.26646 0.935887,2.21978 1.024082,2.11848 0.0882,-0.1013 0.498052,-1.13749 0.910788,-2.30265 l 0.75043,-2.11848 0.798005,0 c 0.546769,0 0.76197,0.0902 0.683542,0.28628 -0.06295,0.15745 -0.85325,2.16464 -1.756214,4.46039 -1.175651,2.98906 -1.809089,4.30574 -2.231173,4.63776 -0.617416,0.48566 -2.001624,0.62894 -2.246602,0.23256 z m -14.843246,-3.06411 c -1.575312,-0.58698 -2.535884,-1.63321 -3.040285,-3.31141 -0.961309,-3.1984 0.971658,-6.21582 4.228998,-6.6016 4.641137,-0.54968 7.498596,4.54577 4.678937,8.34354 -1.126598,1.51739 -3.967828,2.27736 -5.86765,1.56947 z m 2.833734,-1.28514 c 2.37301,-0.65923 3.266358,-4.12524 1.563222,-6.065 -1.595526,-1.81721 -4.505443,-1.5178 -5.587631,0.57492 -0.674157,1.30367 -0.277213,3.99968 0.709457,4.81854 0.329063,0.2731 1.86269,0.87341 2.271321,0.88907 0.125964,0.005 0.595597,-0.0931 1.043631,-0.21753 z m 21.171768,1.25879 c -1.672319,-0.59164 -2.590978,-2.31114 -2.185166,-4.09008 0.532083,-2.33248 3.511446,-3.41635 5.370735,-1.95383 l 0.598254,0.47059 -0.513206,0.41557 c -0.448201,0.36293 -0.571005,0.37509 -0.969517,0.096 -1.69044,-1.18404 -3.764822,0.94197 -2.779063,2.84822 0.614363,1.18805 1.821496,1.53474 2.845783,0.81729 0.482779,-0.33815 0.557346,-0.33529 0.968914,0.0371 0.416615,0.37703 0.420958,0.43106 0.06615,0.82311 -0.342327,0.37827 -1.675184,0.8912 -2.257769,0.86889 -0.125964,-0.005 -0.64127,-0.15463 -1.145124,-0.33289 z m 6.641716,-4.5e-4 c -2.471907,-0.87345 -3.10642,-4.08625 -1.14682,-5.80679 2.30566,-2.0244 5.84182,-0.51211 5.84182,2.49832 0,2.53232 -2.30167,4.1543 -4.695,3.30855 z m 2.3449,-1.37987 c 0.73008,-0.51136 1.03406,-1.81561 0.64192,-2.75414 -0.53042,-1.26946 -2.09322,-1.67902 -3.04025,-0.79673 -1.87839,1.74998 0.3208,5.00603 2.39833,3.55087 z m -25.361885,1.30064 c 0,-0.10718 0.515306,-0.87557 1.145124,-1.70755 0.629818,-0.83197 1.145123,-1.57068 1.145123,-1.64159 0,-0.071 -0.463711,-0.7196 -1.030467,-1.44155 -0.566757,-0.72194 -1.030533,-1.38992 -1.03061,-1.48439 -8.1e-5,-0.0945 0.355324,-0.17177 0.789787,-0.17177 0.648332,0 0.902653,0.15395 1.418769,0.85884 0.34586,0.47236 0.693036,0.93797 0.7715,1.03467 0.07846,0.0967 0.477033,-0.28976 0.885709,-0.85884 0.63351,-0.88214 0.859113,-1.03467 1.530403,-1.03467 0.433045,0 0.787355,0.0594 0.787355,0.13191 0,0.0725 -0.463776,0.73461 -1.030611,1.47126 -0.566836,0.73665 -1.028565,1.42449 -1.026063,1.52852 0.0024,0.10404 0.517808,0.84543 1.145123,1.64753 0.627317,0.8021 1.140575,1.55551 1.140575,1.67425 0,0.11875 -0.383458,0.18391 -0.852132,0.14482 -0.733738,-0.0613 -0.96598,-0.2344 -1.671558,-1.24656 l -0.819427,-1.17547 -0.861452,1.23273 c -0.758289,1.08511 -0.955792,1.23272 -1.649298,1.23272 -0.433317,0 -0.78785,-0.0877 -0.78785,-0.19486 z m 29.315175,-3.12599 0,-3.32086 0.68707,0 0.68707,0 0,3.32086 0,3.32085 -0.68707,0 -0.68707,0 z m 3.43536,0 0,-3.32086 0.68707,0 c 0.44015,0 0.68708,0.11663 0.68708,0.32451 0,0.25217 0.19792,0.2161 0.88784,-0.16181 0.73865,-0.4046 1.03321,-0.44951 1.753,-0.26725 1.48399,0.37575 1.81276,1.08933 1.9021,4.12841 l 0.0769,2.61785 -0.82131,0 -0.82129,0 0,-2.30529 c 0,-2.66595 -0.18983,-3.19129 -1.15318,-3.19129 -1.28434,0 -1.59511,0.62468 -1.59511,3.20634 l 0,2.29024 -0.80159,0 -0.80159,0 z m -3.37972,-4.96 c -0.75653,-0.75652 0.38572,-2.01729 1.20879,-1.3342 0.56934,0.47251 0.34424,1.47066 -0.34995,1.55178 -0.31579,0.0369 -0.70227,-0.061 -0.85884,-0.21758 z"
       id="path3088"
       inkscape:connector-curvature="0"
       sodipodi:nodetypes="sscsssssscsssssssssssssscsssscsssssscscssccsssssssscssssssscsssscssscccccccccccssssscccsssccccssss" />
    <path
       inkscape:connector-curvature="0"
       id="path3858"
       d="m 133.14277,934.59077 c -5.51095,-0.77633 -10.22675,-3.18946 -14.06958,-7.19959 -1.41654,-1.47822 -3.23797,-3.92228 -3.57223,-4.79336 -0.1159,-0.30202 0.26927,-0.33028 4.50326,-0.33028 l 4.62999,0 0.90728,0.75768 c 3.27967,2.73892 6.65487,4.01014 10.64726,4.01014 11.61245,0 19.25101,-11.85831 14.52385,-22.54723 l -0.48833,-1.10423 4.14736,0 4.14736,0 0.31503,0.94845 c 0.6083,1.83143 0.90958,4.04928 0.90958,6.69585 0,3.08795 -0.34889,5.33467 -1.20891,7.78486 -2.80712,7.99759 -9.35097,13.732 -17.67473,15.48852 -1.79079,0.37789 -5.97453,0.53469 -7.71719,0.28919 z m -19.4994,-16.35125 c -0.70727,-2.12534 -1.00947,-4.21955 -1.00947,-6.99544 0,-3.09359 0.3498,-5.34059 1.21192,-7.78487 2.81911,-7.99281 9.2087,-13.59051 17.70399,-15.50988 2.11167,-0.47709 7.07232,-0.472 9.31015,0.01 6.05801,1.30361 11.52883,4.94451 14.85936,9.88906 0.93955,1.39486 1.63897,2.60794 1.63897,2.84262 0,0.0601 -2.05526,0.10926 -4.56724,0.10926 -4.56152,0 -4.56763,-5.9e-4 -4.87025,-0.46244 -0.48765,-0.74425 -2.6818,-2.4257 -4.2855,-3.28412 -2.60311,-1.39338 -4.01632,-1.71975 -7.44655,-1.71975 -3.43023,0 -4.84345,0.32637 -7.44656,1.71975 -7.653,4.09647 -10.68534,13.39686 -6.87616,21.08969 l 0.66438,1.34173 -4.23633,0 -4.23634,0 -0.41437,-1.24517 z"
       style="fill:#f2ba14;fill-opacity:1"
       sodipodi:nodetypes="sssscssscccssssscssssssscssssccccc" />
    <g
       transform="matrix(1.1886058,0,0,1.1886058,32.745663,-147.44514)"
       id="g3899"
       style="opacity:0.8">
      <g
         transform="translate(0,767.57727)"
         style="font-size:40px;font-style:normal;font-variant:normal;font-weight:normal;font-stretch:normal;line-height:125%;letter-spacing:0px;word-spacing:0px;fill:#ffffff;fill-opacity:1;stroke:none;font-family:Ubuntu;-inkscape-font-specification:Ubuntu"
         id="flowRoot3889">
        <path
           d="m 271.9075,64.119506 c 1.51999,-0.586644 2.99999,-1.33331 4.44,-2.24 1.43999,-0.933308 2.75999,-2.093307 3.96,-3.48 l 2.64,0 0,27.72 -3.72,0 0,-22.56 c -0.32001,0.293356 -0.72001,0.600022 -1.2,0.92 -0.45334,0.320021 -0.96001,0.626688 -1.52,0.92 -0.53334,0.293354 -1.10667,0.573354 -1.72,0.84 -0.58667,0.266686 -1.16001,0.493353 -1.72,0.68 l -1.16,-2.8"
           style=""
           id="path3985" />
      </g>
      <path
         inkscape:connector-curvature="0"
         id="path3897"
         d="m 296.66127,843.74908 c -2.08405,-0.29358 -3.8674,-1.20615 -5.32063,-2.72264 -0.53569,-0.55901 -1.22449,-1.48327 -1.35089,-1.81268 -0.0438,-0.11422 0.10182,-0.1249 1.70297,-0.1249 l 1.75091,0 0.3431,0.28652 c 1.24026,1.03577 2.51664,1.5165 4.02643,1.5165 4.39143,0 7.28007,-4.48441 5.49242,-8.52659 l -0.18467,-0.41758 1.56839,0 1.56839,0 0.11914,0.35867 c 0.23003,0.69258 0.34397,1.5313 0.34397,2.53214 0,1.16776 -0.13194,2.01739 -0.45717,2.94397 -1.06156,3.02441 -3.53622,5.19297 -6.68398,5.85723 -0.67721,0.1429 -2.25936,0.2022 -2.91838,0.10936 z m -7.374,-6.18348 c -0.26747,-0.80373 -0.38175,-1.59569 -0.38175,-2.64544 0,-1.16989 0.13228,-2.01963 0.45831,-2.94397 1.06609,-3.02261 3.48241,-5.13947 6.69504,-5.86531 0.79856,-0.18042 2.67451,-0.17849 3.52078,0.004 2.29093,0.49299 4.35981,1.86985 5.6193,3.73971 0.35531,0.52749 0.61981,0.98623 0.61981,1.07498 0,0.0227 -0.77723,0.0413 -1.72718,0.0413 -1.72501,0 -1.72732,-2.2e-4 -1.84176,-0.17488 -0.18441,-0.28145 -1.01417,-0.91732 -1.62063,-1.24194 -0.98441,-0.52693 -1.51883,-0.65035 -2.81603,-0.65035 -1.2972,0 -1.83163,0.12342 -2.81603,0.65035 -2.89411,1.54914 -4.04083,5.06623 -2.60033,7.9754 l 0.25124,0.50739 -1.60203,0 -1.60204,0 -0.1567,-0.47088 z"
         style="fill:#f2ba14;fill-opacity:1;opacity:0.80000000000000004;color:#000000;fill-rule:nonzero;stroke-width:0.84132182;stroke-linecap:butt;stroke-linejoin:miter;stroke-miterlimit:4;stroke-opacity:1;stroke-dasharray:none;stroke-dashoffset:0;marker:none;visibility:visible;display:inline;overflow:visible;enable-background:accumulate"
         sodipodi:nodetypes="sssscssscccssssscssssssscssssccccc" />
    </g>
  </g>
</svg>
