<?xml version="1.0" encoding="UTF-8" standalone="no"?>
<!-- Created with Inkscape (http://www.inkscape.org/) -->

<svg
   xmlns:dc="http://purl.org/dc/elements/1.1/"
   xmlns:cc="http://creativecommons.org/ns#"
   xmlns:rdf="http://www.w3.org/1999/02/22-rdf-syntax-ns#"
   xmlns:svg="http://www.w3.org/2000/svg"
   xmlns="http://www.w3.org/2000/svg"
   xmlns:xlink="http://www.w3.org/1999/xlink"
   xmlns:sodipodi="http://sodipodi.sourceforge.net/DTD/sodipodi-0.dtd"
   xmlns:inkscape="http://www.inkscape.org/namespaces/inkscape"
   width="460.62991"
   height="283.46457"
   id="svg2"
   version="1.1"
   inkscape:version="0.48.5 r10040"
   sodipodi:docname="ppt.svg"
   inkscape:export-filename="/home/mammique/Documents/daat/banknote/cryptos/dash.png"
   inkscape:export-xdpi="156.31"
   inkscape:export-ydpi="156.31">
  <defs
     id="defs4">
    <linearGradient
       id="linearGradient4925">
      <stop
         style="stop-color:#bd9800;stop-opacity:1;"
         offset="0"
         id="stop4927" />
      <stop
         id="stop3784"
         offset="0.51732481"
         style="stop-color:#ffcc04;stop-opacity:1;" />
      <stop
         offset="1"
         id="stop4929"
         style="stop-color:#a98500;stop-opacity:1;" />
    </linearGradient>
    <linearGradient
       id="linearGradient4835">
      <stop
         style="stop-color:#000000;stop-opacity:0.61572052"
         offset="0"
         id="stop4837" />
      <stop
         style="stop-color:#000000;stop-opacity:0;"
         offset="1"
         id="stop4839" />
    </linearGradient>
    <linearGradient
       inkscape:collect="always"
       id="linearGradient4531">
      <stop
         style="stop-color:#ffffff;stop-opacity:1;"
         offset="0"
         id="stop4533" />
      <stop
         style="stop-color:#ffffff;stop-opacity:0;"
         offset="1"
         id="stop4535" />
    </linearGradient>
    <clipPath
       clipPathUnits="userSpaceOnUse"
       id="clipPath5978">
      <rect
         style="color:#000000;fill:#cccccc;fill-opacity:1;fill-rule:nonzero;stroke:#003a00;stroke-width:0.89999998;stroke-linecap:butt;stroke-linejoin:miter;stroke-miterlimit:4;stroke-opacity:1;stroke-dasharray:none;stroke-dashoffset:0;marker:none;visibility:visible;display:inline;overflow:visible;enable-background:accumulate"
         id="rect5980"
         width="173.74623"
         height="1608.1628"
         x="610.13214"
         y="-378.01382"
         transform="matrix(0,-1,1,0,0,0)" />
    </clipPath>
    <inkscape:perspective
       id="perspective2497"
       inkscape:persp3d-origin="372.04724 : 350.78739 : 1"
       inkscape:vp_z="744.09448 : 526.18109 : 1"
       inkscape:vp_y="0 : 1000 : 0"
       inkscape:vp_x="0 : 526.18109 : 1"
       sodipodi:type="inkscape:persp3d" />
    <linearGradient
       inkscape:collect="always"
       xlink:href="#linearGradient4531"
       id="linearGradient4823"
       gradientUnits="userSpaceOnUse"
       x1="182.81697"
       y1="175.83376"
       x2="183.58928"
       y2="-16.309107"
       gradientTransform="translate(53.033008,825.69937)" />
    <radialGradient
       inkscape:collect="always"
       xlink:href="#linearGradient4835"
       id="radialGradient4845"
       cx="7.3256431"
       cy="198.2952"
       fx="7.3256431"
       fy="198.2952"
       r="109.27257"
       gradientTransform="matrix(0.19829552,0.15553474,-0.16582027,0.21140881,93.302602,945.5672)"
       gradientUnits="userSpaceOnUse" />
    <linearGradient
       id="linearGradient4925-6">
      <stop
         style="stop-color:#bd9800;stop-opacity:1;"
         offset="0"
         id="stop4927-7" />
      <stop
         id="stop3784-5"
         offset="0.5"
         style="stop-color:#ffcc04;stop-opacity:1;" />
      <stop
         offset="1"
         id="stop4929-3"
         style="stop-color:#a98500;stop-opacity:1;" />
    </linearGradient>
    <linearGradient
       gradientTransform="translate(-17.649337,-11.359598)"
       y2="38.317909"
       x2="313.61914"
       y1="142.8687"
       x1="50.479298"
       gradientUnits="userSpaceOnUse"
       id="linearGradient3802"
       xlink:href="#linearGradient4925-6"
       inkscape:collect="always" />
    <linearGradient
       id="linearGradient4925-2">
      <stop
         style="stop-color:#bd9800;stop-opacity:1;"
         offset="0"
         id="stop4927-3" />
      <stop
         id="stop3784-7"
         offset="0.38554054"
         style="stop-color:#ffcc04;stop-opacity:1;" />
      <stop
         offset="1"
         id="stop4929-5"
         style="stop-color:#a98500;stop-opacity:1;" />
    </linearGradient>
    <linearGradient
       y2="38.317909"
       x2="313.61914"
       y1="83.269699"
       x1="19.16457"
       gradientTransform="translate(-17.649337,-11.359581)"
       gradientUnits="userSpaceOnUse"
       id="linearGradient4077"
       xlink:href="#linearGradient4925-2"
       inkscape:collect="always" />
    <linearGradient
       id="linearGradient4925-28">
      <stop
         style="stop-color:#bd9800;stop-opacity:1;"
         offset="0"
         id="stop4927-9" />
      <stop
         id="stop3784-73"
         offset="0.51732481"
         style="stop-color:#ffcc04;stop-opacity:1;" />
      <stop
         offset="1"
         id="stop4929-6"
         style="stop-color:#a98500;stop-opacity:1;" />
    </linearGradient>
    <linearGradient
       y2="19.746481"
       x2="180.76199"
       y1="166.12685"
       x1="180.59314"
       gradientTransform="translate(-17.649337,-11.359581)"
       gradientUnits="userSpaceOnUse"
       id="linearGradient4113"
       xlink:href="#linearGradient4925-28"
       inkscape:collect="always" />
    <linearGradient
       id="linearGradient4925-7">
      <stop
         style="stop-color:#bd9800;stop-opacity:1;"
         offset="0"
         id="stop4927-5" />
      <stop
         id="stop3784-3"
         offset="0.51732481"
         style="stop-color:#ffcc04;stop-opacity:1;" />
      <stop
         offset="1"
         id="stop4929-56"
         style="stop-color:#a98500;stop-opacity:1;" />
    </linearGradient>
    <linearGradient
       y2="19.746481"
       x2="180.76199"
       y1="166.12685"
       x1="180.59314"
       gradientTransform="translate(-17.649337,-11.359581)"
       gradientUnits="userSpaceOnUse"
       id="linearGradient3327"
       xlink:href="#linearGradient4925-7"
       inkscape:collect="always" />
    <linearGradient
       id="linearGradient4925-7-1">
      <stop
         style="stop-color:#bd9800;stop-opacity:1;"
         offset="0"
         id="stop4927-5-2" />
      <stop
         id="stop3784-3-7"
         offset="0.51732481"
         style="stop-color:#ffcc04;stop-opacity:1;" />
      <stop
         offset="1"
         id="stop4929-56-0"
         style="stop-color:#a98500;stop-opacity:1;" />
    </linearGradient>
    <linearGradient
       y2="19.032196"
       x2="138.61914"
       y1="166.12685"
       x1="180.59314"
       gradientTransform="translate(-17.649337,-7.9568844)"
       gradientUnits="userSpaceOnUse"
       id="linearGradient3455"
       xlink:href="#linearGradient4925-7-1"
       inkscape:collect="always" />
    <linearGradient
       inkscape:collect="always"
       xlink:href="#linearGradient4925-7-6"
       id="linearGradient3350-3"
       gradientUnits="userSpaceOnUse"
       gradientTransform="translate(54.548237,823.78353)"
       x1="180.59314"
       y1="166.12685"
       x2="138.61914"
       y2="19.032196" />
    <linearGradient
       id="linearGradient4925-7-6">
      <stop
         style="stop-color:#bd9800;stop-opacity:1;"
         offset="0"
         id="stop4927-5-0" />
      <stop
         id="stop3784-3-6"
         offset="0.51732481"
         style="stop-color:#ffcc04;stop-opacity:1;" />
      <stop
         offset="1"
         id="stop4929-56-2"
         style="stop-color:#a98500;stop-opacity:1;" />
    </linearGradient>
    <linearGradient
       y2="19.032196"
       x2="138.61914"
       y1="166.12685"
       x1="180.59314"
       gradientTransform="translate(-17.649337,-7.9568844)"
       gradientUnits="userSpaceOnUse"
       id="linearGradient3491"
       xlink:href="#linearGradient4925-7-6"
       inkscape:collect="always" />
    <linearGradient
       id="linearGradient4835-7">
      <stop
         style="stop-color:#000000;stop-opacity:0.61572052"
         offset="0"
         id="stop4837-5" />
      <stop
         style="stop-color:#000000;stop-opacity:0;"
         offset="1"
         id="stop4839-9" />
    </linearGradient>
    <radialGradient
       r="109.27257"
       fy="198.2952"
       fx="7.3256431"
       cy="198.2952"
       cx="7.3256431"
       gradientTransform="matrix(0.19829552,0.15553474,-0.16582027,0.21140881,132.487,52.51516)"
       gradientUnits="userSpaceOnUse"
       id="radialGradient3545"
       xlink:href="#linearGradient4835-7"
       inkscape:collect="always" />
    <linearGradient
       id="linearGradient4835-8">
      <stop
         style="stop-color:#000000;stop-opacity:0.61572052"
         offset="0"
         id="stop4837-9" />
      <stop
         style="stop-color:#000000;stop-opacity:0;"
         offset="1"
         id="stop4839-7" />
    </linearGradient>
    <radialGradient
       r="109.27257"
       fy="198.2952"
       fx="7.3256431"
       cy="198.2952"
       cx="7.3256431"
       gradientTransform="matrix(0.19829552,0.15553474,-0.16582027,0.21140881,132.487,52.51516)"
       gradientUnits="userSpaceOnUse"
       id="radialGradient3578"
       xlink:href="#linearGradient4835-8"
       inkscape:collect="always" />
    <linearGradient
       inkscape:collect="always"
       xlink:href="#linearGradient4925-7-6-1"
       id="linearGradient3350-3-6"
       gradientUnits="userSpaceOnUse"
       gradientTransform="translate(54.548237,823.78353)"
       x1="180.59314"
       y1="166.12685"
       x2="138.61914"
       y2="19.032196" />
    <linearGradient
       id="linearGradient4925-7-6-1">
      <stop
         style="stop-color:#bd9800;stop-opacity:1;"
         offset="0"
         id="stop4927-5-0-2" />
      <stop
         id="stop3784-3-6-9"
         offset="0.51732481"
         style="stop-color:#ffcc04;stop-opacity:1;" />
      <stop
         offset="1"
         id="stop4929-56-2-3"
         style="stop-color:#a98500;stop-opacity:1;" />
    </linearGradient>
    <linearGradient
       y2="19.032196"
       x2="138.61914"
       y1="166.12685"
       x1="180.59314"
       gradientTransform="translate(-17.649337,-14.676051)"
       gradientUnits="userSpaceOnUse"
       id="linearGradient3612"
       xlink:href="#linearGradient4925-7-6-1"
       inkscape:collect="always" />
  </defs>
  <sodipodi:namedview
     id="base"
     pagecolor="#5271a5"
     bordercolor="#666666"
     borderopacity="1.0"
     inkscape:pageopacity="1"
     inkscape:pageshadow="2"
     inkscape:zoom="1.979899"
     inkscape:cx="235.21264"
     inkscape:cy="209.79475"
     inkscape:document-units="px"
     inkscape:current-layer="layer1"
     showgrid="false"
     units="mm"
     inkscape:window-width="1918"
     inkscape:window-height="1059"
     inkscape:window-x="1366"
     inkscape:window-y="19"
     inkscape:window-maximized="1"
     showguides="true"
     inkscape:guide-bbox="true" />
  <metadata
     id="metadata7">
    <rdf:RDF>
      <cc:Work
         rdf:about="">
        <dc:format>image/svg+xml</dc:format>
        <dc:type
           rdf:resource="http://purl.org/dc/dcmitype/StillImage" />
        <dc:title></dc:title>
      </cc:Work>
    </rdf:RDF>
  </metadata>
  <g
     inkscape:label="Calque 1"
     inkscape:groupmode="layer"
     id="layer1"
     transform="translate(0,-768.89763)">
    <path
       style="opacity:0.8;color:#000000;fill:#ffffff;fill-opacity:1;fill-rule:nonzero;stroke:none;stroke-width:1;marker:none;visibility:visible;display:inline;overflow:visible;enable-background:accumulate"
       d="m 77.169879,846.63601 c -0.782191,-0.0636 -1.012805,-0.12864 -1.260603,-0.35533 -0.354208,-0.32404 -0.381636,-0.77626 -0.352825,-5.81813 0.03057,-5.34938 0.01147,-5.1898 0.655541,-5.48083 0.462567,-0.20901 3.261671,-0.20901 3.724237,0 0.65068,0.29403 0.628309,0.0876 0.628309,5.79659 0,5.02023 -0.0021,5.08488 -0.179474,5.32436 -0.09871,0.13335 -0.291938,0.2981 -0.429383,0.3661 -0.29953,0.14821 -1.864791,0.24218 -2.785802,0.16724 z m 1.184276,-5.82995 c 0.02044,-4.42464 0.0099,-4.86119 -0.119205,-4.95606 -0.0986,-0.0724 -0.190201,-0.078 -0.301513,-0.0185 -0.153008,0.0818 -0.159896,0.2919 -0.159896,4.87447 0,5.0507 -0.0015,5.03228 0.385442,4.97683 0.170457,-0.0245 0.173058,-0.0893 0.195172,-4.8768 z m 9.707472,5.8226 c -0.36367,-0.0329 -0.773655,-0.11811 -0.911083,-0.18917 -0.493329,-0.25511 -0.488751,-0.1975 -0.488751,-6.1487 l 0,-5.45317 1.07346,0 c 1.05279,0 1.073667,0.004 1.084194,0.19322 0.0059,0.10628 0.01557,2.52862 0.02147,5.38298 0.01054,5.07619 0.01443,5.19094 0.179242,5.24325 0.09268,0.0294 0.247256,0.0113 0.343507,-0.0402 0.173214,-0.0927 0.175,-0.1484 0.175,-5.45792 l 0,-5.36429 1.075289,0 1.075281,0 -0.02329,5.57575 c -0.02302,5.50859 -0.02547,5.57864 -0.20328,5.81674 -0.103755,0.13896 -0.327611,0.28377 -0.528572,0.34195 -0.433316,0.12546 -1.991295,0.17944 -2.872476,0.0996 z m 9.542038,0.0131 c -0.748055,-0.0678 -1.062415,-0.1966 -1.315946,-0.53901 -0.176628,-0.23856 -0.179832,-0.32243 -0.201901,-5.28142 -0.02073,-4.66684 -0.01123,-5.06124 0.128813,-5.3396 0.255034,-0.50684 0.642384,-0.63441 2.040536,-0.67201 2.097593,-0.0564 2.614803,0.1519 2.794803,1.12564 0.0598,0.32343 0.0824,2.10992 0.0653,5.15188 -0.0239,4.26005 -0.0392,4.68042 -0.17793,4.93441 -0.20727,0.37923 -0.5645,0.54198 -1.293141,0.58911 -0.338899,0.0218 -0.790069,0.0512 -1.002616,0.065 -0.212548,0.0138 -0.679617,-0.002 -1.037943,-0.034 z m 1.192526,-1.04375 c 0.07763,-0.0776 0.103048,-1.27151 0.103048,-4.8459 0,-4.19718 -0.01552,-4.75838 -0.13495,-4.8778 -0.07425,-0.0742 -0.163106,-0.13495 -0.197515,-0.13495 -0.255026,0 -0.268679,0.25537 -0.268679,5.02666 0,2.6513 0.02577,4.84631 0.05724,4.87779 0.09114,0.0911 0.328559,0.0664 0.440838,-0.0459 z m 4.349689,1.04175 c -0.84233,-0.0659 -1.15192,-0.20257 -1.34816,-0.59529 -0.13823,-0.27662 -0.15016,-0.73499 -0.15029,-5.77512 l 0,-5.47464 1.07281,0 1.07282,0 0.0221,5.37942 c 0.0207,5.01588 0.0323,5.38583 0.17239,5.47421 0.1096,0.0692 0.19097,0.0692 0.30058,10e-6 0.13974,-0.0882 0.15329,-0.47055 0.19322,-5.45274 l 0.0429,-5.35796 1.07346,0 1.07345,0 0,5.45317 c 0,5.96502 0.005,5.89293 -0.49761,6.15328 -0.14574,0.0754 -0.56233,0.14971 -0.95401,0.17024 -0.38241,0.02 -0.84988,0.0462 -1.03881,0.058 -0.18892,0.0118 -0.65457,-0.002 -1.03477,-0.0326 z m 5.56919,-0.006 c -0.34001,-0.0304 -0.7651,-0.12699 -0.94464,-0.21469 -0.55567,-0.27144 -0.58407,-0.4066 -0.58407,-2.77871 l 0,-2.10399 1.07346,0 1.07346,0 0.0429,2.00886 c 0.0374,1.75172 0.0613,2.02041 0.18603,2.09901 0.10376,0.0654 0.18047,0.0592 0.2791,-0.0227 0.11687,-0.097 0.136,-0.39023 0.136,-2.08318 0,-1.08366 -0.0364,-2.03833 -0.0809,-2.12149 -0.0464,-0.0867 -0.4964,-0.30516 -1.05486,-0.51212 -1.16971,-0.43347 -1.50225,-0.6247 -1.61866,-0.93086 -0.0539,-0.14162 -0.0779,-1.01602 -0.0622,-2.25424 0.0291,-2.28877 0.0611,-2.42697 0.62684,-2.70987 0.30534,-0.15268 0.51525,-0.17175 1.88928,-0.17175 1.37403,0 1.58395,0.0191 1.88929,0.17175 0.59204,0.29602 0.6438,0.50133 0.64393,2.55484 l 0,1.78194 -1.1164,0 -1.11639,0 0,-1.71452 c 0,-1.55448 -0.0142,-1.72214 -0.1525,-1.79613 -0.0967,-0.0518 -0.20664,-0.0512 -0.30056,0.002 -0.133,0.0744 -0.14808,0.27026 -0.14808,1.92274 l 0,1.83988 0.23616,0.11984 c 0.12989,0.0659 0.6394,0.26702 1.13224,0.44694 0.49284,0.1799 1.01453,0.4329 1.15933,0.5622 l 0.26327,0.23513 0.0254,2.32599 c 0.0236,2.15832 0.0132,2.35355 -0.14352,2.70794 -0.15342,0.34681 -0.21098,0.39371 -0.62655,0.51033 -0.5244,0.14716 -1.8027,0.20647 -2.70747,0.12565 z m -38.630964,-0.095 c -0.02257,-0.0591 -0.03101,-2.71585 -0.01878,-5.90403 l 0.02224,-5.79667 1.159337,-0.0249 c 1.499494,-0.0322 2.979392,0.0912 3.341595,0.27854 0.493954,0.25543 0.522861,0.43842 0.522861,3.31019 0,2.07424 -0.02476,2.64107 -0.125912,2.88317 -0.181406,0.43417 -0.639602,0.61028 -1.784847,0.68602 l -0.923176,0.0611 0,2.30695 0,2.30695 -1.076157,0 c -0.781796,0 -1.087372,-0.0293 -1.117162,-0.10735 z m 2.777281,-5.66358 c 0.134002,-0.134 0.147055,-4.63512 0.01415,-4.88344 -0.05721,-0.10688 -0.179672,-0.16611 -0.343508,-0.16611 l -0.254607,0 0,2.57631 0,2.5763 0.240456,0 c 0.132249,0 0.286827,-0.0464 0.343506,-0.10303 z m 8.347227,-0.16784 0,-5.93876 1.91076,0.0522 c 2.199958,0.0601 2.583295,0.13612 2.875782,0.57014 0.191686,0.28444 0.194314,0.32519 0.194314,3.011 0,2.68208 -0.0028,2.7269 -0.193222,3.00674 -0.251345,0.36953 -0.616167,0.48791 -1.734532,0.56282 l -0.906181,0.0607 0,2.30695 0,2.30696 -1.07346,0 -1.073461,0 0,-5.93876 z m 2.813823,-2.20909 c 0.01618,-1.72635 -0.0057,-2.4714 -0.07492,-2.55484 -0.05377,-0.0647 -0.208955,-0.11778 -0.344864,-0.11778 l -0.24712,0 0,2.58149 0,2.5815 0.322038,-0.0267 0.322038,-0.0267 0.02283,-2.43705 z m 8.264287,2.22236 0,-5.92549 1.07346,0 1.07346,0 0,5.40647 0,5.40648 0.622606,0.0253 0.62261,0.0252 0.02577,0.4938 0.02577,0.49379 -1.72182,0 -1.721822,0 0,-5.9255 z m -24.006255,1.18069 c -0.02268,-0.0592 -0.03113,-1.67251 -0.01878,-3.58535 l 0.02246,-3.47789 0.708484,-0.025 0.708484,-0.0249 0,3.61029 0,3.61031 -0.689712,0 c -0.472931,0 -0.702669,-0.0337 -0.73094,-0.10747 z m 1.904242,-7.62308 c -1.422069,-0.90185 -0.662961,-3.12566 1.019332,-2.98616 0.895712,0.0742 1.502766,0.72651 1.502766,1.6146 0,0.96648 -0.673936,1.63082 -1.654365,1.63082 -0.363035,0 -0.544347,-0.0542 -0.867733,-0.25926 z"
       id="path3119"
       inkscape:connector-curvature="0" />
    <g
       id="g3203"
       transform="matrix(0.50263094,0,0,0.50263094,237.89221,436.67358)"
       style="opacity:0.8">
      <g
         id="g3185"
         transform="matrix(0.45184089,0,0,0.45184089,242.94818,409.97594)"
         style="color:#000000;fill:#ffffff;fill-opacity:1;fill-rule:nonzero;stroke-width:2.41070532999999987;stroke-linecap:butt;stroke-linejoin:miter;stroke-miterlimit:4;stroke-opacity:1;stroke-dasharray:none;stroke-dashoffset:0;marker:none;visibility:visible;display:inline;overflow:visible;enable-background:accumulate">
        <path
           d="m 140.07621,865.69072 c 0,7.38921 -6.15768,13.39294 -13.73932,13.39294 -7.58163,0 -13.73931,-6.00373 -13.73931,-13.39294 0,-7.38922 6.15768,-13.39295 13.73931,-13.39295 7.58164,0 13.73932,6.00373 13.73932,13.39295 z"
           class="st1"
           id="path3187"
           inkscape:connector-curvature="0"
           style="color:#000000;fill:#ffffff;fill-opacity:1;fill-rule:nonzero;stroke-width:2.41070532999999987;stroke-linecap:butt;stroke-linejoin:miter;stroke-miterlimit:4;stroke-opacity:1;stroke-dasharray:none;stroke-dashoffset:0;marker:none;visibility:visible;display:inline;overflow:visible;enable-background:accumulate" />
        <path
           d="m 93.508783,904.63802 c 0,-9.0056 7.504667,-16.31784 16.702697,-16.31784 v 69.88964 H 93.508783 v -53.5718 z"
           class="st1"
           id="path3189"
           inkscape:connector-curvature="0"
           style="color:#000000;fill:#ffffff;fill-opacity:1;fill-rule:nonzero;stroke-width:2.41070532999999987;stroke-linecap:butt;stroke-linejoin:miter;stroke-miterlimit:4;stroke-opacity:1;stroke-dasharray:none;stroke-dashoffset:0;marker:none;visibility:visible;display:inline;overflow:visible;enable-background:accumulate" />
        <path
           d="m 142.7702,888.35866 h -25.09254 v 15.1248 h 25.09254 c 3.30975,0 5.96524,2.61701 5.96524,5.8113 v 27.94046 c 0,3.2328 -2.65549,5.8113 -5.96524,5.8113 h -25.09254 v 15.1248 h 25.09254 c 11.89201,0 21.51338,-9.3904 21.51338,-20.9746 v -27.94044 c 0,-11.50716 -9.62137,-20.89762 -21.51338,-20.89762 z"
           class="st2"
           id="path3191"
           inkscape:connector-curvature="0"
           style="color:#000000;fill:#ffffff;fill-opacity:1;fill-rule:nonzero;stroke-width:2.41070532999999987;stroke-linecap:butt;stroke-linejoin:miter;stroke-miterlimit:4;stroke-opacity:1;stroke-dasharray:none;stroke-dashoffset:0;marker:none;visibility:visible;display:inline;overflow:visible;enable-background:accumulate" />
        <path
           d="m 117.71615,888.35866 h 16.70269 v 98.98466 h -16.70269 v -98.98466 z"
           class="st2"
           id="path3193"
           inkscape:connector-curvature="0"
           style="color:#000000;fill:#ffffff;fill-opacity:1;fill-rule:nonzero;stroke-width:2.41070532999999987;stroke-linecap:butt;stroke-linejoin:miter;stroke-miterlimit:4;stroke-opacity:1;stroke-dasharray:none;stroke-dashoffset:0;marker:none;visibility:visible;display:inline;overflow:visible;enable-background:accumulate" />
      </g>
      <g
         transform="matrix(2.7966946,0,0,2.7966946,-138.02412,662.04739)"
         style="font-size:40px;font-style:normal;font-variant:normal;font-weight:normal;font-stretch:normal;line-height:125%;letter-spacing:0px;word-spacing:0px;fill:#ffffff;fill-opacity:1;stroke:none;font-family:Abyssinica SIL;-inkscape-font-specification:Abyssinica SIL"
         id="flowRoot3195">
        <path
           d="m 142.77344,70.800781 0,-19.765625 c -0.33855,0.31252 -0.75522,0.625019 -1.25,0.9375 -0.48178,0.299498 -0.98959,0.585956 -1.52344,0.859375 -0.53386,0.260435 -1.0612,0.50132 -1.58203,0.722656 -0.52084,0.208351 -0.97657,0.371111 -1.36719,0.488282 l 0,-3.847657 c 0.4427,-0.18227 0.95052,-0.455708 1.52344,-0.820312 0.58593,-0.364562 1.15234,-0.748676 1.69922,-1.152344 0.54686,-0.416643 1.04166,-0.813778 1.48437,-1.191406 0.4427,-0.37758 0.74218,-0.670548 0.89844,-0.878906 l 4.19922,0 0,24.648437 -4.08203,0"
           style=""
           id="path3296" />
      </g>
    </g>
    <g
       id="g3281">
      <g
         style="color:#000000;fill:#152743;fill-opacity:1;fill-rule:nonzero;stroke-width:2.41070533;stroke-linecap:butt;stroke-linejoin:miter;stroke-miterlimit:4;stroke-opacity:1;stroke-dasharray:none;stroke-dashoffset:0;marker:none;visibility:visible;display:inline;overflow:visible;enable-background:accumulate"
         transform="matrix(0.3947498,0,0,0.3947498,85.307002,548.05278)"
         id="g3126">
        <path
           style="color:#000000;fill:#152743;fill-opacity:1;fill-rule:nonzero;stroke-width:2.41070533;stroke-linecap:butt;stroke-linejoin:miter;stroke-miterlimit:4;stroke-opacity:1;stroke-dasharray:none;stroke-dashoffset:0;marker:none;visibility:visible;display:inline;overflow:visible;enable-background:accumulate"
           inkscape:connector-curvature="0"
           id="path1_fill"
           class="st1"
           d="m 140.07621,865.69072 c 0,7.38921 -6.15768,13.39294 -13.73932,13.39294 -7.58163,0 -13.73931,-6.00373 -13.73931,-13.39294 0,-7.38922 6.15768,-13.39295 13.73931,-13.39295 7.58164,0 13.73932,6.00373 13.73932,13.39295 z" />
        <path
           style="color:#000000;fill:#152743;fill-opacity:1;fill-rule:nonzero;stroke-width:2.41070533;stroke-linecap:butt;stroke-linejoin:miter;stroke-miterlimit:4;stroke-opacity:1;stroke-dasharray:none;stroke-dashoffset:0;marker:none;visibility:visible;display:inline;overflow:visible;enable-background:accumulate"
           inkscape:connector-curvature="0"
           id="path2_fill"
           class="st1"
           d="m 93.508783,904.63802 c 0,-9.0056 7.504667,-16.31784 16.702697,-16.31784 v 69.88964 H 93.508783 v -53.5718 z" />
        <path
           style="color:#000000;fill:#152743;fill-opacity:1;fill-rule:nonzero;stroke-width:2.41070533;stroke-linecap:butt;stroke-linejoin:miter;stroke-miterlimit:4;stroke-opacity:1;stroke-dasharray:none;stroke-dashoffset:0;marker:none;visibility:visible;display:inline;overflow:visible;enable-background:accumulate"
           inkscape:connector-curvature="0"
           id="path3_fill"
           class="st2"
           d="m 142.7702,888.35866 h -25.09254 v 15.1248 h 25.09254 c 3.30975,0 5.96524,2.61701 5.96524,5.8113 v 27.94046 c 0,3.2328 -2.65549,5.8113 -5.96524,5.8113 h -25.09254 v 15.1248 h 25.09254 c 11.89201,0 21.51338,-9.3904 21.51338,-20.9746 v -27.94044 c 0,-11.50716 -9.62137,-20.89762 -21.51338,-20.89762 z" />
        <path
           style="color:#000000;fill:#152743;fill-opacity:1;fill-rule:nonzero;stroke-width:2.41070533;stroke-linecap:butt;stroke-linejoin:miter;stroke-miterlimit:4;stroke-opacity:1;stroke-dasharray:none;stroke-dashoffset:0;marker:none;visibility:visible;display:inline;overflow:visible;enable-background:accumulate"
           inkscape:connector-curvature="0"
           id="path4_fill"
           class="st2"
           d="m 117.71615,888.35866 h 16.70269 v 98.98466 h -16.70269 v -98.98466 z" />
      </g>
      <g
         id="g3273">
        <path
           style="fill:#152743"
           inkscape:connector-curvature="0"
           id="path0_fill-6"
           class="st0"
           d="m 167.43969,911.15175 c 0,17.25314 -13.99782,31.25096 -31.25095,31.25096 -17.25312,0 -31.25094,-13.99782 -31.25094,-31.25096 0,-17.25313 13.99782,-31.25095 31.25094,-31.25095 17.25313,0 31.25095,13.99782 31.25095,31.25095 z" />
        <g
           id="g3267"
           transform="translate(-2.597735,0)">
          <path
             d="m 142.56914,892.76578 c 0,2.50007 -2.08339,4.53138 -4.64857,4.53138 -2.56518,0 -4.64858,-2.03131 -4.64858,-4.53138 0,-2.50008 2.0834,-4.53139 4.64858,-4.53139 2.56518,0 4.64857,2.03131 4.64857,4.53139 z"
             class="st1"
             id="path1_fill-1"
             inkscape:connector-curvature="0"
             style="fill:#c6b458" />
          <path
             d="m 126.81346,905.94326 c 0,-3.04697 2.53914,-5.521 5.65121,-5.521 v 23.64655 h -5.65121 v -18.12555 z"
             class="st1"
             id="path2_fill-3"
             inkscape:connector-curvature="0"
             style="fill:#c6b458" />
          <path
             d="m 143.48063,900.43528 h -8.48984 v 5.11734 h 8.48984 c 1.11983,0 2.01829,0.88544 2.01829,1.9662 v 9.45342 c 0,1.09379 -0.89846,1.9662 -2.01829,1.9662 h -8.48984 v 5.11734 h 8.48984 c 4.02356,0 7.27887,-3.17716 7.27887,-7.09657 v -9.45341 c 0,-3.89334 -3.25531,-7.07052 -7.27887,-7.07052 z"
             class="st2"
             id="path3_fill-2"
             inkscape:connector-curvature="0"
             style="fill:#ffffff" />
          <path
             d="m 135.00381,900.43528 h 5.65121 v 33.49059 h -5.65121 v -33.49059 z"
             class="st2"
             id="path4_fill-1"
             inkscape:connector-curvature="0"
             style="fill:#ffffff" />
        </g>
      </g>
    </g>
  </g>
</svg>
