<?xml version="1.0" encoding="UTF-8" standalone="no"?>
<!-- Created with Inkscape (http://www.inkscape.org/) -->

<svg
   xmlns:dc="http://purl.org/dc/elements/1.1/"
   xmlns:cc="http://creativecommons.org/ns#"
   xmlns:rdf="http://www.w3.org/1999/02/22-rdf-syntax-ns#"
   xmlns:svg="http://www.w3.org/2000/svg"
   xmlns="http://www.w3.org/2000/svg"
   xmlns:xlink="http://www.w3.org/1999/xlink"
   xmlns:sodipodi="http://sodipodi.sourceforge.net/DTD/sodipodi-0.dtd"
   xmlns:inkscape="http://www.inkscape.org/namespaces/inkscape"
   width="460.62991"
   height="283.46457"
   id="svg2"
   version="1.1"
   inkscape:version="0.48.5 r10040"
   sodipodi:docname="banknote_bg_template.svg"
   inkscape:export-filename="/home/mammique/Documents/daat/banknote/cryptos/dash.png"
   inkscape:export-xdpi="156.31"
   inkscape:export-ydpi="156.31">
  <defs
     id="defs4">
    <linearGradient
       id="linearGradient4925">
      <stop
         style="stop-color:#bd9800;stop-opacity:1;"
         offset="0"
         id="stop4927" />
      <stop
         id="stop3784"
         offset="0.51732481"
         style="stop-color:#ffcc04;stop-opacity:1;" />
      <stop
         offset="1"
         id="stop4929"
         style="stop-color:#a98500;stop-opacity:1;" />
    </linearGradient>
    <linearGradient
       id="linearGradient4835">
      <stop
         style="stop-color:#000000;stop-opacity:0.61572052"
         offset="0"
         id="stop4837" />
      <stop
         style="stop-color:#000000;stop-opacity:0;"
         offset="1"
         id="stop4839" />
    </linearGradient>
    <linearGradient
       inkscape:collect="always"
       id="linearGradient4531">
      <stop
         style="stop-color:#ffffff;stop-opacity:1;"
         offset="0"
         id="stop4533" />
      <stop
         style="stop-color:#ffffff;stop-opacity:0;"
         offset="1"
         id="stop4535" />
    </linearGradient>
    <clipPath
       clipPathUnits="userSpaceOnUse"
       id="clipPath5978">
      <rect
         style="color:#000000;fill:#cccccc;fill-opacity:1;fill-rule:nonzero;stroke:#003a00;stroke-width:0.89999998;stroke-linecap:butt;stroke-linejoin:miter;stroke-miterlimit:4;stroke-opacity:1;stroke-dasharray:none;stroke-dashoffset:0;marker:none;visibility:visible;display:inline;overflow:visible;enable-background:accumulate"
         id="rect5980"
         width="173.74623"
         height="1608.1628"
         x="610.13214"
         y="-378.01382"
         transform="matrix(0,-1,1,0,0,0)" />
    </clipPath>
    <inkscape:perspective
       id="perspective2497"
       inkscape:persp3d-origin="372.04724 : 350.78739 : 1"
       inkscape:vp_z="744.09448 : 526.18109 : 1"
       inkscape:vp_y="0 : 1000 : 0"
       inkscape:vp_x="0 : 526.18109 : 1"
       sodipodi:type="inkscape:persp3d" />
    <linearGradient
       inkscape:collect="always"
       xlink:href="#linearGradient4531"
       id="linearGradient4823"
       gradientUnits="userSpaceOnUse"
       x1="182.81697"
       y1="175.83376"
       x2="183.58928"
       y2="-16.309107"
       gradientTransform="translate(53.033008,825.69937)" />
    <radialGradient
       inkscape:collect="always"
       xlink:href="#linearGradient4835"
       id="radialGradient4845"
       cx="7.3256431"
       cy="198.2952"
       fx="7.3256431"
       fy="198.2952"
       r="109.27257"
       gradientTransform="matrix(0.19829552,0.15553474,-0.16582027,0.21140881,93.302602,945.5672)"
       gradientUnits="userSpaceOnUse" />
    <linearGradient
       id="linearGradient4925-6">
      <stop
         style="stop-color:#bd9800;stop-opacity:1;"
         offset="0"
         id="stop4927-7" />
      <stop
         id="stop3784-5"
         offset="0.5"
         style="stop-color:#ffcc04;stop-opacity:1;" />
      <stop
         offset="1"
         id="stop4929-3"
         style="stop-color:#a98500;stop-opacity:1;" />
    </linearGradient>
    <linearGradient
       gradientTransform="translate(-17.649337,-11.359598)"
       y2="38.317909"
       x2="313.61914"
       y1="142.8687"
       x1="50.479298"
       gradientUnits="userSpaceOnUse"
       id="linearGradient3802"
       xlink:href="#linearGradient4925-6"
       inkscape:collect="always" />
    <linearGradient
       id="linearGradient4925-2">
      <stop
         style="stop-color:#bd9800;stop-opacity:1;"
         offset="0"
         id="stop4927-3" />
      <stop
         id="stop3784-7"
         offset="0.38554054"
         style="stop-color:#ffcc04;stop-opacity:1;" />
      <stop
         offset="1"
         id="stop4929-5"
         style="stop-color:#a98500;stop-opacity:1;" />
    </linearGradient>
    <linearGradient
       y2="38.317909"
       x2="313.61914"
       y1="83.269699"
       x1="19.16457"
       gradientTransform="translate(-17.649337,-11.359581)"
       gradientUnits="userSpaceOnUse"
       id="linearGradient4077"
       xlink:href="#linearGradient4925-2"
       inkscape:collect="always" />
    <linearGradient
       id="linearGradient4925-28">
      <stop
         style="stop-color:#bd9800;stop-opacity:1;"
         offset="0"
         id="stop4927-9" />
      <stop
         id="stop3784-73"
         offset="0.51732481"
         style="stop-color:#ffcc04;stop-opacity:1;" />
      <stop
         offset="1"
         id="stop4929-6"
         style="stop-color:#a98500;stop-opacity:1;" />
    </linearGradient>
    <linearGradient
       y2="19.746481"
       x2="180.76199"
       y1="166.12685"
       x1="180.59314"
       gradientTransform="translate(-17.649337,-11.359581)"
       gradientUnits="userSpaceOnUse"
       id="linearGradient4113"
       xlink:href="#linearGradient4925-28"
       inkscape:collect="always" />
    <linearGradient
       id="linearGradient4925-7">
      <stop
         style="stop-color:#bd9800;stop-opacity:1;"
         offset="0"
         id="stop4927-5" />
      <stop
         id="stop3784-3"
         offset="0.51732481"
         style="stop-color:#ffcc04;stop-opacity:1;" />
      <stop
         offset="1"
         id="stop4929-56"
         style="stop-color:#a98500;stop-opacity:1;" />
    </linearGradient>
    <linearGradient
       y2="19.746481"
       x2="180.76199"
       y1="166.12685"
       x1="180.59314"
       gradientTransform="translate(-17.649337,-11.359581)"
       gradientUnits="userSpaceOnUse"
       id="linearGradient3327"
       xlink:href="#linearGradient4925-7"
       inkscape:collect="always" />
    <linearGradient
       id="linearGradient4925-7-1">
      <stop
         style="stop-color:#bd9800;stop-opacity:1;"
         offset="0"
         id="stop4927-5-2" />
      <stop
         id="stop3784-3-7"
         offset="0.51732481"
         style="stop-color:#ffcc04;stop-opacity:1;" />
      <stop
         offset="1"
         id="stop4929-56-0"
         style="stop-color:#a98500;stop-opacity:1;" />
    </linearGradient>
    <linearGradient
       y2="19.032196"
       x2="138.61914"
       y1="166.12685"
       x1="180.59314"
       gradientTransform="translate(-17.649337,-7.9568844)"
       gradientUnits="userSpaceOnUse"
       id="linearGradient3455"
       xlink:href="#linearGradient4925-7-1"
       inkscape:collect="always" />
    <linearGradient
       inkscape:collect="always"
       xlink:href="#linearGradient4925-7-6"
       id="linearGradient3350-3"
       gradientUnits="userSpaceOnUse"
       gradientTransform="translate(54.548237,823.78353)"
       x1="180.59314"
       y1="166.12685"
       x2="138.61914"
       y2="19.032196" />
    <linearGradient
       id="linearGradient4925-7-6">
      <stop
         style="stop-color:#bd9800;stop-opacity:1;"
         offset="0"
         id="stop4927-5-0" />
      <stop
         id="stop3784-3-6"
         offset="0.51732481"
         style="stop-color:#ffcc04;stop-opacity:1;" />
      <stop
         offset="1"
         id="stop4929-56-2"
         style="stop-color:#a98500;stop-opacity:1;" />
    </linearGradient>
    <linearGradient
       y2="19.032196"
       x2="138.61914"
       y1="166.12685"
       x1="180.59314"
       gradientTransform="translate(-17.649337,-7.9568844)"
       gradientUnits="userSpaceOnUse"
       id="linearGradient3491"
       xlink:href="#linearGradient4925-7-6"
       inkscape:collect="always" />
    <linearGradient
       id="linearGradient4835-7">
      <stop
         style="stop-color:#000000;stop-opacity:0.61572052"
         offset="0"
         id="stop4837-5" />
      <stop
         style="stop-color:#000000;stop-opacity:0;"
         offset="1"
         id="stop4839-9" />
    </linearGradient>
    <radialGradient
       r="109.27257"
       fy="198.2952"
       fx="7.3256431"
       cy="198.2952"
       cx="7.3256431"
       gradientTransform="matrix(0.19829552,0.15553474,-0.16582027,0.21140881,132.487,52.51516)"
       gradientUnits="userSpaceOnUse"
       id="radialGradient3545"
       xlink:href="#linearGradient4835-7"
       inkscape:collect="always" />
    <linearGradient
       id="linearGradient4835-8">
      <stop
         style="stop-color:#000000;stop-opacity:0.61572052"
         offset="0"
         id="stop4837-9" />
      <stop
         style="stop-color:#000000;stop-opacity:0;"
         offset="1"
         id="stop4839-7" />
    </linearGradient>
    <radialGradient
       r="109.27257"
       fy="198.2952"
       fx="7.3256431"
       cy="198.2952"
       cx="7.3256431"
       gradientTransform="matrix(0.19829552,0.15553474,-0.16582027,0.21140881,132.487,52.51516)"
       gradientUnits="userSpaceOnUse"
       id="radialGradient3578"
       xlink:href="#linearGradient4835-8"
       inkscape:collect="always" />
    <linearGradient
       inkscape:collect="always"
       xlink:href="#linearGradient4925-7-6-1"
       id="linearGradient3350-3-6"
       gradientUnits="userSpaceOnUse"
       gradientTransform="translate(54.548237,823.78353)"
       x1="180.59314"
       y1="166.12685"
       x2="138.61914"
       y2="19.032196" />
    <linearGradient
       id="linearGradient4925-7-6-1">
      <stop
         style="stop-color:#bd9800;stop-opacity:1;"
         offset="0"
         id="stop4927-5-0-2" />
      <stop
         id="stop3784-3-6-9"
         offset="0.51732481"
         style="stop-color:#ffcc04;stop-opacity:1;" />
      <stop
         offset="1"
         id="stop4929-56-2-3"
         style="stop-color:#a98500;stop-opacity:1;" />
    </linearGradient>
    <linearGradient
       y2="19.032196"
       x2="138.61914"
       y1="166.12685"
       x1="180.59314"
       gradientTransform="translate(-17.649337,-14.676051)"
       gradientUnits="userSpaceOnUse"
       id="linearGradient3612"
       xlink:href="#linearGradient4925-7-6-1"
       inkscape:collect="always" />
  </defs>
  <sodipodi:namedview
     id="base"
     pagecolor="#5271a5"
     bordercolor="#666666"
     borderopacity="1.0"
     inkscape:pageopacity="1"
     inkscape:pageshadow="2"
     inkscape:zoom="1.4"
     inkscape:cx="224.70963"
     inkscape:cy="159.34198"
     inkscape:document-units="px"
     inkscape:current-layer="layer1"
     showgrid="false"
     units="mm"
     inkscape:window-width="1918"
     inkscape:window-height="1059"
     inkscape:window-x="1366"
     inkscape:window-y="19"
     inkscape:window-maximized="1"
     showguides="true"
     inkscape:guide-bbox="true" />
  <metadata
     id="metadata7">
    <rdf:RDF>
      <cc:Work
         rdf:about="">
        <dc:format>image/svg+xml</dc:format>
        <dc:type
           rdf:resource="http://purl.org/dc/dcmitype/StillImage" />
        <dc:title></dc:title>
      </cc:Work>
    </rdf:RDF>
  </metadata>
  <g
     inkscape:label="Calque 1"
     inkscape:groupmode="layer"
     id="layer1"
     transform="translate(0,-768.89763)">
    <path
       inkscape:connector-curvature="0"
       style="fill:#2e9ad0;fill-opacity:1;stroke:none"
       d="m 164.81948,930.18717 c -0.40867,0 -0.775,0.075 -1.09063,0.1961 -0.34878,0.1344 -0.65976,0.31542 -0.91712,0.54604 l -5.47649,-4.73474 4.21115,-13.02598 c 0.01,0 0.0457,0 0.0896,0 0.01,0 0.032,0 0.0599,0 0.55055,0 1.04726,-0.20204 1.48413,-0.61044 0.42054,-0.40409 0.63282,-0.92154 0.63282,-1.54902 0,-0.59394 -0.21255,-1.10258 -0.63282,-1.52733 -0.43701,-0.40409 -0.93207,-0.61038 -1.48413,-0.61038 -0.032,0 -0.0599,0 -0.0599,0 -0.0457,0 -0.075,0 -0.0896,0 l -3.68753,-11.38959 c 0.2889,-0.16913 0.52962,-0.42054 0.71959,-0.74204 0.16914,-0.28889 0.26788,-0.63882 0.28433,-1.04726 0,-0.59392 -0.21256,-1.10261 -0.63283,-1.52736 -0.42466,-0.42055 -0.93352,-0.63284 -1.52732,-0.63284 -0.26193,0.0137 -0.51316,0.0599 -0.74204,0.13486 -0.25142,0.0896 -0.46379,0.22307 -0.63283,0.3922 l -9.73121,-7.04756 c 0.0457,-0.11974 0.0896,-0.23954 0.13485,-0.37119 0.01,-0.11973 0.0137,-0.27244 0.0137,-0.437 0,-0.59392 -0.21256,-1.10261 -0.63283,-1.52731 -0.437,-0.42055 -0.93206,-0.63289 -1.48413,-0.63289 -0.52362,0.0321 -0.9769,0.1856 -1.35242,0.45781 -0.40821,0.30535 -0.65976,0.70318 -0.74204,1.1789 h -11.80414 c -0.10474,-0.43106 -0.35473,-0.81833 -0.74209,-1.15645 -0.39358,-0.31724 -0.83479,-0.48026 -1.30904,-0.48026 -0.61039,0 -1.12355,0.21257 -1.52733,0.63289 -0.42512,0.42465 -0.63284,0.93352 -0.63284,1.52731 0,0.1632 0.01,0.31131 0.0457,0.437 0.0321,0.1344 0.0599,0.256 0.10474,0.37119 l -9.73129,7.04756 c -0.20753,-0.16913 -0.40912,-0.30535 -0.61098,-0.3922 -0.25096,-0.075 -0.50736,-0.11974 -0.76375,-0.13486 -0.61099,0 -1.12369,0.21257 -1.52737,0.63284 -0.42557,0.42511 -0.63265,0.93357 -0.63265,1.52736 0,0.40821 0.0928,0.7585 0.28342,1.04726 0.16913,0.32181 0.4146,0.573 0.72005,0.74204 h 0.0411 l -3.68739,11.32403 c -0.0329,0 -0.0538,0 -0.0658,0 -0.0434,0 -0.0763,0 -0.0867,0 -0.61099,0 -1.12369,0.21256 -1.52733,0.63284 -0.42549,0.42512 -0.6327,0.93207 -0.6327,1.52736 0,0.61039 0.20735,1.12355 0.6327,1.52733 0.40363,0.42511 0.91634,0.63283 1.52733,0.63283 0,0 0.0109,0 0.0434,0 0.027,0 0.0493,0 0.0658,0 l 3.73105,11.43329 c -0.33827,0.19153 -0.59453,0.44157 -0.76376,0.74204 -0.19107,0.30535 -0.28341,0.65976 -0.28341,1.04725 0,0.61039 0.20708,1.12355 0.6327,1.52732 0.40363,0.42512 0.91634,0.63283 1.52732,0.63283 0.25644,0 0.51271,-0.0457 0.76376,-0.13439 0.20204,-0.075 0.40363,-0.18559 0.61098,-0.34878 l 9.73135,7.00386 c -0.0457,0.13486 -0.075,0.27245 -0.10474,0.39358 -0.032,0.1344 -0.0457,0.28434 -0.0457,0.41415 0,0.60591 0.20798,1.11756 0.63283,1.52737 0.40409,0.42054 0.91707,0.63283 1.52732,0.63283 0.47427,0 0.91712,-0.15861 1.30904,-0.4578 0.38765,-0.27839 0.63883,-0.67023 0.74209,-1.1789 h 11.80414 c 0.075,0.50716 0.33188,0.90061 0.74205,1.1789 0.37712,0.29941 0.82879,0.4578 1.35243,0.4578 0.55054,0 1.04726,-0.21255 1.48412,-0.63283 0.42054,-0.4082 0.63283,-0.92159 0.63283,-1.52737 0,-0.13439 -0.01,-0.27245 -0.0137,-0.41415 -0.0457,-0.11973 -0.0896,-0.25142 -0.13484,-0.39358 l 11.10594,-8.00756 5.4328,4.69109 c -0.14948,0.2185 -0.25599,0.46977 -0.32776,0.74204 -0.0896,0.30535 -0.11974,0.59392 -0.10462,0.85124 -0.0137,0.86176 0.2889,1.58194 0.91707,2.18205 0.59399,0.60591 1.33154,0.91707 2.20373,0.91707 0.84081,0 1.57101,-0.3113 2.18186,-0.91707 0.59397,-0.59993 0.90065,-1.31957 0.91712,-2.18205 -0.0137,-0.85572 -0.32182,-1.59808 -0.91712,-2.22538 -0.61039,-0.59394 -1.34196,-0.89464 -2.18186,-0.89464 z m -7.74576,-31.74676 3.46924,10.7786 c -0.25141,0.14948 -0.44751,0.33233 -0.58945,0.54607 -0.16318,0.20799 -0.27838,0.44751 -0.34877,0.71959 h -1.78917 c -0.0896,-0.37529 -0.25598,-0.69865 -0.50269,-0.96045 -0.27839,-0.25598 -0.58346,-0.46379 -0.91706,-0.61043 z m -1.00388,-0.69866 -0.74203,11.12779 c -0.032,0 -0.0599,0 -0.0599,0 -0.0457,0.0137 -0.075,0.0321 -0.0896,0.0457 l -4.42925,-8.42211 c 0.21256,-0.15863 0.39815,-0.39357 0.54603,-0.69866 0.11974,-0.27244 0.17964,-0.57299 0.1961,-0.89467 0,-0.01 -0.01,-0.0599 -0.0137,-0.15267 -0.032,-0.0599 -0.0457,-0.1344 -0.0137,-0.21851 l 3.57846,-1.52737 c 0.11973,0.1632 0.27244,0.31131 0.48024,0.43701 0.13485,0.16319 0.31587,0.25142 0.52363,0.26193 z M 144.0039,908.9132 c -0.0321,0.0137 -0.075,0.01 -0.15268,-0.0137 -0.0896,-0.01 -0.16318,-0.0137 -0.2185,-0.0137 -0.10462,0 -0.20799,0.01 -0.30535,0.0137 -0.10474,0.0321 -0.21256,0.0599 -0.32775,0.0599 l -5.89124,-10.25498 c 0.10474,-0.075 0.1961,-0.20204 0.28433,-0.34832 0.075,-0.11974 0.15267,-0.26192 0.23952,-0.39357 l 9.53492,1.19984 c 0.01,0.30535 0.10462,0.56253 0.26194,0.76447 0.11973,0.25142 0.30535,0.45346 0.52363,0.61044 z m 4.90936,-7.89849 c 0.0457,0 0.11973,0.01 0.2185,0.0137 0.0457,0.0321 0.10462,0.0457 0.1961,0.0137 0.075,0.0137 0.15268,0.01 0.23953,-0.0137 0.075,-0.01 0.1632,-0.0457 0.28432,-0.0896 l 4.42925,8.444 c -0.19153,0.16319 -0.33232,0.33188 -0.41461,0.50265 -0.13485,0.19153 -0.20798,0.38763 -0.2185,0.58945 h -7.94219 c -0.0896,-0.20204 -0.17964,-0.39815 -0.26192,-0.58945 -0.11974,-0.16913 -0.26787,-0.33826 -0.43701,-0.50265 z m -6.80759,8.46581 c -0.14947,0.14948 -0.25598,0.29941 -0.32775,0.45781 -0.0896,0.16319 -0.16913,0.34421 -0.23953,0.54607 h -11.80414 c -0.032,-0.20204 -0.10462,-0.3817 -0.2185,-0.54607 -0.11974,-0.15862 -0.23496,-0.31129 -0.34878,-0.45781 l 5.9349,-10.25497 c 0.075,0 0.15267,0.01 0.23952,0.0137 0.075,0.032 0.17508,0.0457 0.30536,0.0137 0.10462,0.0137 0.1961,0.01 0.28432,-0.0137 0.075,-0.01 0.16319,-0.0137 0.28433,-0.0137 z m -13.83323,-0.52362 c -0.13485,-0.01 -0.23496,-0.0321 -0.30536,-0.0599 -0.0896,-0.01 -0.1856,-0.0137 -0.28432,-0.0137 -0.0896,0 -0.1632,0.01 -0.2185,0.0137 -0.0896,0.0321 -0.15862,0.0457 -0.19612,0.0137 l -3.94916,-8.3786 c 0.20204,-0.15862 0.37529,-0.36067 0.52362,-0.61039 0.11973,-0.20205 0.20205,-0.4578 0.26193,-0.76448 l 9.53492,-1.26567 c 0.075,0.20799 0.15268,0.36067 0.23954,0.4578 0.0599,0.14948 0.15266,0.26787 0.28431,0.34878 z m -1.96378,0.437 c -0.19153,0.1344 -0.33826,0.2889 -0.437,0.45776 -0.14948,0.20662 -0.22903,0.42055 -0.23954,0.63288 h -7.89849 c -0.0868,-0.18559 -0.1801,-0.37575 -0.26192,-0.56701 -0.11973,-0.16914 -0.26742,-0.33233 -0.43655,-0.48025 l 4.42924,-8.42216 c 0.075,0 0.15268,0.01 0.23953,0.0137 0.075,0.0321 0.16319,0.0457 0.28433,0.0137 0.0599,0.0137 0.13484,0.01 0.2185,-0.0137 0.0599,-0.01 0.13485,-0.0137 0.2185,-0.0137 z m -8.57485,2.16015 h 7.83294 c 0.0599,0.25142 0.15862,0.46379 0.30537,0.63284 0.10461,0.19153 0.24547,0.34421 0.437,0.4578 l -3.94918,8.37846 c -0.0321,0 -0.075,0 -0.15267,0 -0.0896,0 -0.16319,0 -0.21851,0 -0.11974,0 -0.21255,0 -0.28432,0 -0.0896,0.0137 -0.16913,0.0457 -0.23954,0.0599 l -4.42923,-8.48766 c 0.16913,-0.11974 0.31632,-0.28891 0.43654,-0.48025 0.0822,-0.16913 0.17462,-0.36066 0.26193,-0.56701 z m 9.53489,1.57089 c 0.0457,0 0.10462,0.01 0.1961,0.0137 0.0599,0.0457 0.1344,0.0599 0.2185,0.0137 0.10462,0.0321 0.20205,0.0137 0.30535,-0.0137 0.10462,-0.01 0.1961,-0.032 0.28433,-0.0599 l 5.89106,10.21127 c -0.13439,0.11974 -0.22902,0.24548 -0.28433,0.37119 -0.0896,0.16318 -0.16913,0.30078 -0.23953,0.41414 l -9.53488,-1.19984 c -0.0599,-0.25598 -0.14947,-0.51311 -0.26193,-0.76298 -0.14947,-0.21256 -0.3218,-0.42055 -0.52362,-0.61038 z m 1.89822,-0.567 c 0.11973,-0.11974 0.22902,-0.28433 0.34878,-0.45781 0.11974,-0.15862 0.18559,-0.33827 0.2185,-0.54608 h 11.80415 c 0.01,0.20662 0.0896,0.38764 0.2185,0.54608 0.10462,0.17507 0.21851,0.33233 0.34879,0.45781 l -5.89111,10.2114 c -0.0896,0.0137 -0.17964,0.01 -0.26193,-0.0137 -0.10474,-0.0321 -0.20661,-0.0457 -0.30535,-0.0457 -0.1344,0 -0.23496,0.0137 -0.30535,0.0457 -0.0896,0.0321 -0.1856,0.0599 -0.28434,0.0599 v -0.0457 z m 13.83343,0.52362 c 0.11973,0.0321 0.2185,0.0599 0.30536,0.0599 0.075,0.0457 0.16318,0.0599 0.28432,0.0137 0.075,0.0321 0.17508,0.0137 0.26193,-0.0137 0.0599,-0.01 0.13485,-0.0137 0.2185,-0.0137 h -0.0599 l 3.94936,8.37855 c -0.20799,0.19154 -0.37712,0.39815 -0.5027,0.61043 -0.13484,0.25143 -0.20797,0.50718 -0.2185,0.76298 l -9.60042,1.19984 c -0.0896,-0.11974 -0.15862,-0.25141 -0.1961,-0.4146 -0.0896,-0.11974 -0.17966,-0.25141 -0.26194,-0.37118 z m 1.9636,-0.437 c 0.15862,-0.11974 0.30535,-0.26787 0.437,-0.45781 0.11973,-0.16913 0.2185,-0.38169 0.30535,-0.63283 h 7.94219 c 0.075,0.20661 0.15862,0.39815 0.26193,0.567 0.075,0.19154 0.22901,0.33828 0.437,0.43702 l -4.53849,8.53131 c -0.0896,-0.0321 -0.16913,-0.0457 -0.23953,-0.0599 -0.0896,0 -0.16913,0 -0.23953,0 -0.0896,0 -0.15862,0 -0.1961,0 -0.10462,0 -0.17964,0 -0.2185,0 z m 0.0457,-24.80827 9.68769,7.06936 c -0.0457,0.11973 -0.075,0.24547 -0.0896,0.37118 -0.0457,0.16319 -0.0599,0.30078 -0.0599,0.4146 -0.0137,0.0896 -0.01,0.14949 0.0137,0.17508 0.032,0.0599 0.0457,0.11974 0.0457,0.1961 v -0.0599 l -3.60017,1.59286 c -0.20799,-0.22901 -0.44706,-0.437 -0.71959,-0.61039 -0.30536,-0.15862 -0.62685,-0.23952 -0.9605,-0.23952 -0.0896,0 -0.15862,0 -0.1961,0 -0.10462,0.0137 -0.17965,0.0457 -0.2185,0.0599 h 0.0457 l -3.99301,-8.90223 c 0,0.0137 0,0.01 0,-0.0137 0,-0.0319 0.01,-0.0457 0.0457,-0.0457 z m -2.20367,0.37117 c 0.11973,0.0599 0.24547,0.10474 0.39358,0.10474 0.11973,0.0321 0.24547,0.0457 0.39358,0.0457 0.0599,0.032 0.13439,0.0137 0.2185,-0.0137 0.0457,-0.01 0.10474,-0.0137 0.1961,-0.0137 l 4.01473,8.90218 c -0.19154,0.10474 -0.33233,0.23497 -0.41461,0.39359 -0.11974,0.16319 -0.21256,0.33232 -0.28432,0.50118 l -9.57844,-1.26567 c -0.0137,-0.18559 -0.0599,-0.37712 -0.13485,-0.56701 -0.0896,-0.18559 -0.18559,-0.34878 -0.28296,-0.48025 z m -13.06967,-1.46163 h 11.80415 c 0.01,0.14948 0.0599,0.2889 0.15267,0.4146 0.075,0.16319 0.15862,0.29942 0.26193,0.41462 l -5.5857,7.52749 c -0.10462,-0.01 -0.21255,-0.0321 -0.32776,-0.0599 -0.14947,-0.01 -0.27838,-0.0137 -0.39358,-0.0137 -0.16319,0 -0.31129,0.01 -0.437,0.0137 -0.13485,0.0319 -0.25598,0.075 -0.37118,0.13438 v -0.0599 l -5.52019,-7.52762 c 0.075,-0.11974 0.17507,-0.24547 0.26193,-0.39358 0.075,-0.10462 0.11974,-0.24547 0.15267,-0.437 z m -2.051,1.61454 c 0.11974,0 0.25142,-0.01 0.41461,-0.0457 0.11974,-0.01 0.25141,-0.0457 0.37117,-0.10474 l 5.54187,7.59305 c -0.14948,0.13439 -0.25598,0.29484 -0.32775,0.4802 -0.0896,0.19154 -0.13484,0.38169 -0.15267,0.56702 l -9.57863,1.26571 c -0.0896,-0.16914 -0.17964,-0.33828 -0.26192,-0.50119 -0.13486,-0.15862 -0.256,-0.28889 -0.37119,-0.39358 l 3.99288,-8.90222 c 0.01,0 0.0599,0.01 0.15267,0.0137 0.0599,0.0457 0.13486,0.0599 0.21851,0.0137 z m -1.37486,-0.52362 c 0,0 0,0.0137 0,0.0457 0,0.0321 0.0137,0.0457 0.0599,0.0137 l -4.01469,8.90209 c -0.0896,-0.0321 -0.14947,-0.0457 -0.17508,-0.0599 -0.0599,0 -0.11973,0 -0.1961,0 -0.36523,0 -0.68668,0.075 -0.96049,0.23953 -0.30536,0.17508 -0.55056,0.3817 -0.7196,0.61039 l -3.64373,-1.59283 c 0.0275,-0.01 0.0493,-0.0599 0.0658,-0.15267 0,-0.0457 0,-0.10474 0,-0.19611 -0.0183,-0.11974 -0.0411,-0.26787 -0.0658,-0.4146 -0.0411,-0.11974 -0.0763,-0.22308 -0.0868,-0.32775 z m -10.05856,9.164 3.64368,1.52738 c -0.0457,0.0896 -0.0599,0.16319 -0.0599,0.2185 0,0.0896 0,0.16319 0,0.2185 -0.0137,0.29484 0.0457,0.57296 0.1961,0.8288 0.11973,0.30536 0.29484,0.54009 0.54603,0.69866 l -4.42928,8.42211 c -0.032,0 -0.054,0 -0.0658,0 -0.0457,0 -0.0599,0 -0.0457,0 l -0.78542,-11.21496 c 0.20204,-0.0599 0.39814,-0.15862 0.58913,-0.30536 0.16914,-0.11973 0.31084,-0.24547 0.41461,-0.39175 z m -2.00733,26.59748 -3.51287,-10.77874 c 0.21256,-0.11973 0.41461,-0.3113 0.58914,-0.54607 0.14216,-0.18559 0.26193,-0.42512 0.34924,-0.7196 h 1.89822 c 0.0987,0.34832 0.2729,0.65976 0.52363,0.91707 0.22901,0.27839 0.5127,0.48473 0.85097,0.61039 h 0.0411 z m -0.6764,-13.11338 h -1.89828 c -0.0319,-0.25598 -0.13622,-0.51316 -0.30535,-0.76297 -0.20753,-0.21256 -0.40364,-0.39815 -0.58913,-0.54607 l 3.46924,-10.73504 0.74191,10.51677 c -0.36569,0.14948 -0.66548,0.35472 -0.89467,0.61039 -0.25097,0.27838 -0.42558,0.58347 -0.52364,0.91707 z m 1.68004,13.85511 0.78546,-11.21497 c -0.0183,0 0,0 0.0411,0 0.01,0 0.032,0 0.0658,0 l 4.42924,8.42211 c -0.25141,0.20799 -0.43106,0.44112 -0.54607,0.69866 -0.14948,0.29484 -0.21256,0.59394 -0.1961,0.89467 0,0.0896 0,0.14948 0,0.17508 0,0.0599 0.0137,0.11974 0.0599,0.1961 l -3.64378,1.52736 c -0.14673,-0.16913 -0.29438,-0.31724 -0.43655,-0.437 -0.16364,-0.075 -0.35473,-0.17508 -0.56732,-0.26193 z m 11.06225,9.86226 -9.73127,-7.00387 c 0.01,-0.11974 0.0411,-0.23952 0.0868,-0.37117 0.0275,-0.11974 0.0493,-0.27244 0.0658,-0.43701 0,-0.0457 0,-0.10462 0,-0.1961 -0.0183,-0.0599 -0.0411,-0.13486 -0.0658,-0.2185 v 0.0599 l 3.60022,-1.59286 c 0.18559,0.25141 0.42512,0.45345 0.71964,0.61042 0.2889,0.16319 0.61038,0.23953 0.96045,0.23953 0.0457,0 0.11974,0 0.2185,0 0.0457,0 0.10474,-0.0137 0.1961,-0.0599 l 4.01468,8.90205 c -0.0457,0.0457 -0.0599,0.0599 -0.0599,0.0599 z m 2.16015,-0.37118 c -0.11974,-0.01 -0.24547,-0.0457 -0.37118,-0.10462 -0.1632,-0.01 -0.29942,-0.032 -0.41461,-0.0457 -0.0896,0 -0.16319,0.01 -0.2185,0.0137 -0.0896,0.032 -0.15862,0.0457 -0.19611,0.0137 h 0.0457 l -3.99288,-8.90203 c 0.11974,-0.10462 0.23953,-0.22903 0.37118,-0.39359 0.075,-0.13485 0.17509,-0.3113 0.26194,-0.50118 h 0.0457 l 9.53493,1.19984 c 0.01,0.2185 0.0599,0.42055 0.15268,0.58945 0.075,0.19153 0.17964,0.36525 0.32775,0.52364 l -0.9605,1.26566 z m 13.06953,1.46167 h -11.80414 c -0.032,-0.11973 -0.075,-0.26787 -0.15268,-0.437 -0.0896,-0.16319 -0.17964,-0.2889 -0.26193,-0.39358 l 5.5202,-7.63669 c 0.11974,0.0896 0.23953,0.13439 0.37118,0.13439 0.11974,0.0321 0.27245,0.0457 0.43701,0.0137 0.11973,0.0137 0.2514,0.01 0.4146,-0.0137 0.11973,0 0.25142,-0.0457 0.41461,-0.13439 h -0.0457 l 5.52019,7.63669 c -0.10461,0.15862 -0.19153,0.29484 -0.26192,0.41415 -0.0896,0.15862 -0.13485,0.29485 -0.15268,0.41461 z m 2.46552,-1.57101 c -0.0896,0.0137 -0.15862,0.01 -0.1961,-0.0137 -0.0896,-0.01 -0.1632,-0.0137 -0.21852,-0.0137 -0.14947,0.0137 -0.27838,0.032 -0.39357,0.0457 -0.14947,0.0599 -0.27839,0.10462 -0.39358,0.10462 l -5.54204,-7.593 c 0.11973,-0.15862 0.24547,-0.33233 0.34878,-0.52363 0.075,-0.16913 0.11974,-0.37118 0.13484,-0.58945 l 9.57844,-1.19984 c 0.075,0.19153 0.16319,0.35472 0.28433,0.48025 0.10462,0.16318 0.2185,0.29895 0.34879,0.4146 l -3.84025,8.57488 z m 1.00387,0.48024 c -0.032,0 -0.0457,0 -0.0457,0 0,0 0,-0.0137 0,-0.0599 l 0.10462,-0.26192 3.88381,-8.64026 c 0.01,0.0457 0.075,0.0599 0.17507,0.0599 0.0457,0 0.10474,0 0.19611,0 0.33186,0 0.65527,-0.075 0.96044,-0.2185 0.27245,-0.11974 0.51316,-0.31129 0.71964,-0.58946 v -0.0457 l 4.64739,2.00743 z m 6.43672,-10.69138 c -0.0137,-0.075 -0.01,-0.1344 0.0137,-0.1961 0.01,-0.0321 0.0137,-0.0896 0.0137,-0.17508 -0.0137,-0.31724 -0.075,-0.61039 -0.1961,-0.87218 -0.14948,-0.25599 -0.33232,-0.50119 -0.54607,-0.71964 l 4.49464,-8.46564 c 0.01,0 0.0321,0 0.0599,0 0.01,0 0.0137,0 0.0137,0 l 0.80787,12.48036 z m 4.95287,-10.49492 c 0.33232,-0.11973 0.63284,-0.30535 0.89467,-0.567 0.21255,-0.22903 0.37117,-0.52962 0.4578,-0.89467 h 1.85466 c 0.075,0.29484 0.18559,0.53409 0.34878,0.71959 0.1344,0.23496 0.33827,0.42055 0.58945,0.54607 l -3.46924,10.77874 z m 0,0"
       id="path6171" />
    <path
       style="color:#000000;fill:#ffffff;fill-opacity:1;fill-rule:nonzero;stroke:none;marker:none;visibility:visible;display:inline;overflow:visible;enable-background:accumulate;opacity:0.80000000000000004;stroke-width:1"
       d="m 69.471255,846.35405 c -0.07461,-0.019 -0.210443,-0.0835 -0.301837,-0.14335 -0.144225,-0.0945 -0.152151,-0.11913 -0.05999,-0.18652 0.09268,-0.0678 0.08701,-0.0896 -0.04455,-0.17149 -0.137071,-0.0854 -0.142174,-0.0835 -0.05632,0.0204 0.08074,0.0977 0.07786,0.12057 -0.01988,0.15808 -0.116746,0.0448 -0.408058,-0.15869 -0.353518,-0.24695 0.0162,-0.0262 -0.0339,-0.10189 -0.11132,-0.16819 -0.0783,-0.067 -0.123194,-0.16636 -0.101161,-0.22379 0.02179,-0.0568 0.0126,-0.0865 -0.02041,-0.0661 -0.03302,0.0204 -0.07943,-0.0598 -0.103123,-0.17825 -0.0237,-0.11845 -0.04309,-2.31192 -0.04309,-4.87437 0,-5.06408 -0.01278,-4.88804 0.390032,-5.36677 0.10303,-0.12244 0.314609,-0.30546 0.470177,-0.4067 l 0.282849,-0.18407 3.221329,0 3.221334,0 0.277102,0.18152 c 0.365368,0.23935 0.54552,0.44761 0.496865,0.57441 -0.02543,0.0663 -0.007,0.0905 0.05178,0.0679 0.05769,-0.0221 0.132882,0.0689 0.204298,0.2474 0.101086,0.25264 0.113005,0.84849 0.113005,5.64991 l 0,5.36749 -3.688945,-0.008 c -2.028921,-0.004 -3.749995,-0.0236 -3.82461,-0.0425 z m 6.405139,-5.75132 c -0.03839,-5.20124 -0.0099,-4.91094 -0.502283,-5.10798 -0.217873,-0.0872 -0.693019,-0.10506 -2.791953,-0.10506 -2.801481,0 -2.892804,0.0124 -3.146653,0.42881 -0.13621,0.22341 -0.139818,0.33874 -0.140066,4.47932 -2.8e-4,4.7039 -0.01069,4.59015 0.444487,4.86771 0.200011,0.12196 0.399963,0.13013 3.19224,0.13039 l 2.978869,0 -0.03466,-4.69347 z m -6.638822,4.40028 c -0.05141,-0.0514 -0.06042,-0.0244 -0.03031,0.0909 0.0245,0.0937 0.0559,0.12508 0.07319,0.0732 0.01664,-0.05 -0.0027,-0.12381 -0.04291,-0.16407 z m 6.257807,-10.58318 c -0.02356,-0.0381 -0.07399,-0.0693 -0.112091,-0.0693 -0.03812,0 -0.05001,0.0312 -0.02645,0.0693 0.02356,0.0381 0.07399,0.0693 0.112092,0.0693 0.03812,0 0.05001,-0.0312 0.02645,-0.0693 z m 9.147311,11.93459 c -0.308081,-0.0791 -0.820296,-0.48373 -0.752084,-0.5941 0.02379,-0.0384 0.0096,-0.0491 -0.03146,-0.0237 -0.07819,0.0483 -0.277586,-0.20373 -0.415349,-0.52506 -0.05797,-0.13521 -0.08184,-1.19866 -0.08434,-3.75822 l -0.0035,-3.56965 0.520691,0 0.520691,0 0,1.21233 0,1.21234 3.120332,0 3.120337,0 -0.02024,0.53688 -0.02023,0.53689 -3.082781,0.0152 -3.082781,0.0152 -0.01859,1.63115 c -0.01544,1.35704 -8.88e-4,1.6657 0.08777,1.83679 0.213511,0.41288 0.236924,0.41581 3.324803,0.41581 l 2.812034,0 -0.02024,0.53689 -0.02024,0.53689 -2.909591,0.01 c -1.600276,0.005 -2.970641,-0.006 -3.045256,-0.0252 z m 10.491981,-0.0146 c -0.351975,-0.10707 -0.618129,-0.28698 -0.858518,-0.58034 -0.45966,-0.56096 -0.451015,-0.49125 -0.45575,-3.67549 l -0.0044,-2.88415 0.520953,0 0.520948,0 0,2.73985 c 0,2.3135 0.01637,2.77146 0.105089,2.94305 0.21335,0.41258 0.220251,0.41339 3.511141,0.4134 l 2.999624,10e-6 0,-3.03059 0,-3.03059 0.53689,-0.0223 0.53689,-0.0223 0,3.6071 0,3.60709 -3.619669,-0.006 c -1.990819,-0.003 -3.697808,-0.0297 -3.793307,-0.0588 z M 94.63142,845.8778 c -0.02303,-0.023 -0.08277,-0.0255 -0.132775,-0.005 -0.05527,0.0221 -0.03887,0.0385 0.04185,0.0418 0.07303,0.003 0.113946,-0.0134 0.09092,-0.0364 z m 11.10454,-2.53868 0.002,-3.06546 0.18904,-0.34638 c 0.12273,-0.2249 0.30713,-0.42535 0.52577,-0.57153 0.28539,-0.1908 0.39938,-0.22514 0.74734,-0.22514 0.57514,0 0.79462,0.13722 1.72131,1.07621 0.95793,0.97065 1.27737,1.16073 1.95093,1.16088 0.5136,0 0.90203,-0.156 1.27496,-0.51246 0.11681,-0.11164 0.23631,-0.17907 0.26556,-0.14982 0.0292,0.0292 0.0428,0.0192 0.0301,-0.0225 -0.0363,-0.11898 0.91383,-1.12774 1.24966,-1.32672 0.56296,-0.33354 1.42264,-0.1828 1.81712,0.31866 0.36946,0.46961 0.36721,0.44859 0.39357,3.69885 l 0.0246,3.03082 -0.559,0 -0.55899,0 0,-2.93349 c 0,-2.75394 -0.008,-2.94051 -0.1267,-3.04814 -0.25154,-0.22765 -0.43466,-0.14537 -1.04751,0.47068 -0.32026,0.32193 -0.61275,0.56651 -0.64997,0.54351 -0.0372,-0.023 -0.0472,-0.009 -0.022,0.032 0.0894,0.14467 -0.76504,0.7894 -1.16728,0.88077 -0.0381,0.009 -0.13163,0.0439 -0.20783,0.0782 -0.0762,0.0344 -0.41912,0.0616 -0.76204,0.0607 -0.50615,-0.001 -0.69518,-0.0333 -1.0045,-0.16957 -0.56427,-0.24855 -0.719,-0.37013 -1.60875,-1.26417 -0.88546,-0.88973 -1.03608,-0.96365 -1.29439,-0.63526 -0.13881,0.17648 -0.14177,0.24874 -0.12626,3.08278 l 0.0159,2.90206 -0.53689,0 -0.53689,0 0.002,-3.06546 z m 8.07087,-3.84876 c -0.0213,-0.0213 -0.0772,-4e-5 -0.12422,0.0473 -0.0679,0.0684 -0.06,0.0764 0.0388,0.0388 0.0683,-0.026 0.10677,-0.0648 0.0854,-0.0861 z m -33.851356,2.08223 c -0.0045,-0.0286 -0.0049,-0.0742 -8.88e-4,-0.10142 0.004,-0.0272 -0.03901,-0.0317 -0.09571,-0.01 -0.06273,0.0241 -0.103083,-8.8e-4 -0.103083,-0.0633 0,-0.0566 -0.04676,-0.14164 -0.103913,-0.18908 -0.0621,-0.0515 -0.103913,-0.20298 -0.103913,-0.37635 0,-0.52613 0.536307,-0.89752 1.010172,-0.69952 0.281624,0.11767 0.513901,0.42185 0.513901,0.673 0,0.26029 -0.189489,0.63021 -0.290762,0.56763 -0.04542,-0.0281 -0.05763,-0.0163 -0.02973,0.0289 0.02601,0.0421 -0.01389,0.10925 -0.08866,0.14926 -0.155421,0.0832 -0.695105,0.099 -0.707459,0.0208 z"
       id="path3118"
       inkscape:connector-curvature="0"
       sodipodi:nodetypes="ccccccscsccssscccsscsscscccssscccccccccssssscccsscccccccccccssscccccccsscccscsccccccccccccccccccsssccccssscccscscccccsscscccccsccscscscsssccsc" />
    <g
       id="g3164"
       transform="matrix(0.92280866,0,0,0.92280866,98.003638,49.19287)"
       style="opacity:0.8">
      <path
         inkscape:connector-curvature="0"
         style="fill:#ffffff;fill-opacity:1;stroke:none"
         d="m 322.93296,877.51147 c -0.18663,0 -0.35392,0.0343 -0.49806,0.0896 -0.15927,0.0614 -0.30129,0.14404 -0.41881,0.24936 l -2.50093,-2.1622 1.92309,-5.94853 c 0.005,0 0.0209,0 0.0409,0 0.005,0 0.0146,0 0.0274,0 0.25142,0 0.47825,-0.0923 0.67775,-0.27876 0.19205,-0.18454 0.28899,-0.42084 0.28899,-0.70739 0,-0.27123 -0.0971,-0.50351 -0.28899,-0.69748 -0.19957,-0.18453 -0.42564,-0.27874 -0.67775,-0.27874 -0.0146,0 -0.0274,0 -0.0274,0 -0.0209,0 -0.0342,0 -0.0409,0 l -1.68397,-5.20124 c 0.13193,-0.0772 0.24186,-0.19205 0.32861,-0.33887 0.0772,-0.13192 0.12233,-0.29172 0.12984,-0.47824 0,-0.27123 -0.0971,-0.50353 -0.28899,-0.6975 -0.19393,-0.19205 -0.42631,-0.289 -0.69747,-0.289 -0.11962,0.006 -0.23435,0.0274 -0.33887,0.0616 -0.11481,0.0409 -0.2118,0.10187 -0.28899,0.17911 l -4.44392,-3.21839 c 0.0209,-0.0547 0.0409,-0.10939 0.0616,-0.16951 0.005,-0.0547 0.006,-0.12441 0.006,-0.19956 0,-0.27122 -0.0971,-0.50353 -0.28899,-0.69747 -0.19956,-0.19205 -0.42564,-0.28902 -0.67775,-0.28902 -0.23912,0.0147 -0.44612,0.0848 -0.61761,0.20906 -0.18641,0.13945 -0.30129,0.32112 -0.33886,0.53837 h -5.39056 c -0.0478,-0.19685 -0.16199,-0.37371 -0.33888,-0.52811 -0.17974,-0.14488 -0.38122,-0.21932 -0.5978,-0.21932 -0.27874,0 -0.51308,0.0971 -0.69748,0.28902 -0.19414,0.19392 -0.28899,0.4263 -0.28899,0.69747 0,0.0745 0.005,0.14216 0.0209,0.19956 0.0147,0.0614 0.0274,0.11691 0.0478,0.16951 l -4.44396,3.21839 c -0.0948,-0.0772 -0.18683,-0.13945 -0.27901,-0.17911 -0.1146,-0.0343 -0.23169,-0.0547 -0.34878,-0.0616 -0.27902,0 -0.51315,0.0971 -0.6975,0.289 -0.19434,0.19413 -0.28891,0.42633 -0.28891,0.6975 0,0.18641 0.0424,0.34638 0.12943,0.47824 0.0772,0.14696 0.18934,0.26167 0.32882,0.33887 h 0.0188 l -1.6839,5.1713 c -0.015,0 -0.0246,0 -0.0301,0 -0.0198,0 -0.0348,0 -0.0396,0 -0.27901,0 -0.51315,0.0971 -0.69748,0.289 -0.1943,0.19414 -0.28893,0.42564 -0.28893,0.69749 0,0.27875 0.0947,0.51309 0.28893,0.69748 0.18433,0.19414 0.41847,0.28899 0.69748,0.28899 0,0 0.005,0 0.0198,0 0.0123,0 0.0225,0 0.0301,0 l 1.70385,5.2212 c -0.15448,0.0875 -0.2715,0.20165 -0.34879,0.33887 -0.0872,0.13944 -0.12942,0.30129 -0.12942,0.47824 0,0.27875 0.0946,0.51309 0.28893,0.69748 0.18433,0.19413 0.41846,0.28899 0.69748,0.28899 0.11711,0 0.23414,-0.0209 0.34878,-0.0614 0.0923,-0.0342 0.18433,-0.0848 0.27902,-0.15928 l 4.44398,3.19843 c -0.0209,0.0616 -0.0342,0.12442 -0.0478,0.17973 -0.0146,0.0614 -0.0209,0.12985 -0.0209,0.18913 0,0.2767 0.095,0.51035 0.289,0.6975 0.18453,0.19205 0.41879,0.28899 0.69747,0.28899 0.21659,0 0.41882,-0.0724 0.5978,-0.20906 0.17702,-0.12713 0.29173,-0.30607 0.33888,-0.53836 h 5.39056 c 0.0343,0.2316 0.15156,0.41127 0.33887,0.53836 0.17221,0.13673 0.37848,0.20906 0.61761,0.20906 0.25141,0 0.47824,-0.0971 0.67774,-0.28899 0.19205,-0.18641 0.289,-0.42086 0.289,-0.6975 0,-0.0614 -0.005,-0.12442 -0.006,-0.18913 -0.0209,-0.0547 -0.0409,-0.11481 -0.0616,-0.17973 l 5.07171,-3.65678 2.48098,2.14226 c -0.0683,0.0998 -0.1169,0.21453 -0.14968,0.33886 -0.0409,0.13945 -0.0547,0.27123 -0.0478,0.38874 -0.006,0.39353 0.13194,0.72241 0.4188,0.99646 0.27125,0.2767 0.60807,0.4188 1.00637,0.4188 0.38397,0 0.71743,-0.14216 0.99638,-0.4188 0.27125,-0.27396 0.4113,-0.6026 0.41882,-0.99646 -0.006,-0.39078 -0.14697,-0.72979 -0.41882,-1.01626 -0.27874,-0.27123 -0.61283,-0.40855 -0.99638,-0.40855 z m -3.53723,-14.49768 1.58429,4.92222 c -0.11482,0.0683 -0.20437,0.15177 -0.26919,0.24937 -0.0745,0.095 -0.12712,0.20437 -0.15927,0.32862 h -0.81705 c -0.0409,-0.17139 -0.1169,-0.31905 -0.22956,-0.43861 -0.12713,-0.1169 -0.26645,-0.2118 -0.41879,-0.27876 z m -0.45844,-0.31906 -0.33886,5.08169 c -0.0146,0 -0.0274,0 -0.0274,0 -0.0209,0.006 -0.0342,0.0147 -0.0409,0.0209 l -2.02269,-3.84609 c 0.0971,-0.0724 0.18182,-0.17973 0.24935,-0.31906 0.0547,-0.12441 0.082,-0.26166 0.0896,-0.40856 0,-0.005 -0.005,-0.0274 -0.006,-0.0697 -0.0146,-0.0274 -0.0209,-0.0614 -0.006,-0.0998 l 1.63417,-0.6975 c 0.0547,0.0745 0.12441,0.14217 0.21931,0.19957 0.0616,0.0745 0.14424,0.11482 0.23912,0.11962 z m -5.51011,5.10163 c -0.0147,0.006 -0.0343,0.005 -0.0697,-0.006 -0.0409,-0.005 -0.0745,-0.006 -0.0998,-0.006 -0.0478,0 -0.095,0.005 -0.13944,0.006 -0.0478,0.0147 -0.0971,0.0274 -0.14968,0.0274 l -2.69033,-4.68311 c 0.0478,-0.0342 0.0895,-0.0923 0.12985,-0.15906 0.0343,-0.0547 0.0697,-0.11961 0.10938,-0.17973 l 4.35427,0.54792 c 0.005,0.13945 0.0478,0.25689 0.11962,0.34911 0.0547,0.11482 0.13945,0.20708 0.23913,0.27877 z m 2.24194,-3.60697 c 0.0209,0 0.0547,0.005 0.0998,0.006 0.0209,0.0147 0.0478,0.0209 0.0896,0.006 0.0343,0.006 0.0697,0.005 0.10938,-0.006 0.0342,-0.005 0.0745,-0.0209 0.12984,-0.0409 l 2.02269,3.85609 c -0.0875,0.0745 -0.15176,0.15156 -0.18934,0.22955 -0.0616,0.0875 -0.095,0.17702 -0.0998,0.26918 h -3.62693 c -0.0409,-0.0923 -0.082,-0.18182 -0.11961,-0.26918 -0.0547,-0.0772 -0.12233,-0.15447 -0.19957,-0.22955 z m -3.10879,3.86605 c -0.0683,0.0683 -0.1169,0.13673 -0.14968,0.20906 -0.0409,0.0745 -0.0772,0.15719 -0.10938,0.24937 h -5.39055 c -0.0146,-0.0923 -0.0478,-0.17431 -0.0998,-0.24937 -0.0547,-0.0724 -0.10729,-0.14215 -0.15927,-0.20906 l 2.71027,-4.6831 c 0.0342,0 0.0697,0.005 0.10938,0.006 0.0342,0.0146 0.0799,0.0209 0.13944,0.006 0.0478,0.006 0.0896,0.005 0.12984,-0.006 0.0342,-0.005 0.0745,-0.006 0.12985,-0.006 z m -6.31717,-0.23912 c -0.0616,-0.005 -0.1073,-0.0147 -0.13945,-0.0274 -0.0409,-0.005 -0.0848,-0.006 -0.12984,-0.006 -0.0409,0 -0.0745,0.005 -0.0998,0.006 -0.0409,0.0147 -0.0724,0.0209 -0.0896,0.006 l -1.80345,-3.82623 c 0.0923,-0.0724 0.17138,-0.1647 0.23912,-0.27874 0.0547,-0.0923 0.0923,-0.20906 0.11961,-0.34911 l 4.35428,-0.57799 c 0.0342,0.095 0.0697,0.1647 0.10939,0.20906 0.0274,0.0683 0.0697,0.12233 0.12983,0.15928 z m -0.8968,0.19956 c -0.0875,0.0614 -0.15447,0.13193 -0.19956,0.20904 -0.0683,0.0944 -0.10459,0.19205 -0.10939,0.28902 h -3.60697 c -0.0396,-0.0847 -0.0823,-0.17159 -0.11961,-0.25894 -0.0547,-0.0772 -0.12213,-0.15176 -0.19936,-0.21931 l 2.02268,-3.84612 c 0.0342,0 0.0697,0.005 0.10939,0.006 0.0342,0.0147 0.0745,0.0209 0.12984,0.006 0.0274,0.006 0.0616,0.005 0.0998,-0.006 0.0274,-0.005 0.0616,-0.006 0.0998,-0.006 z m -3.91584,0.98647 h 3.57704 c 0.0274,0.11481 0.0724,0.21179 0.13945,0.28899 0.0478,0.0875 0.1121,0.15719 0.19956,0.20907 l -1.80345,3.82616 c -0.0147,0 -0.0342,0 -0.0697,0 -0.0409,0 -0.0745,0 -0.0998,0 -0.0547,0 -0.0971,0 -0.12984,0 -0.0409,0.006 -0.0772,0.0209 -0.10939,0.0273 l -2.02268,-3.87603 c 0.0772,-0.0547 0.14445,-0.13193 0.19935,-0.21931 0.0375,-0.0772 0.0797,-0.1647 0.11962,-0.25894 z m 4.35426,0.71737 c 0.0209,0 0.0478,0.005 0.0895,0.006 0.0274,0.0209 0.0614,0.0274 0.0998,0.006 0.0478,0.0147 0.0923,0.006 0.13944,-0.006 0.0478,-0.005 0.0895,-0.0146 0.12984,-0.0274 l 2.69025,4.66314 c -0.0614,0.0547 -0.10458,0.11211 -0.12984,0.16951 -0.0409,0.0745 -0.0772,0.13736 -0.10939,0.18913 l -4.35426,-0.54793 c -0.0274,-0.1169 -0.0683,-0.23432 -0.11961,-0.34843 -0.0683,-0.0971 -0.14696,-0.19205 -0.23912,-0.27874 z m 0.86685,-0.25893 c 0.0547,-0.0547 0.10459,-0.12984 0.15928,-0.20907 0.0547,-0.0724 0.0848,-0.15447 0.0998,-0.24937 h 5.39056 c 0.005,0.0943 0.0409,0.17702 0.0998,0.24937 0.0478,0.0799 0.0998,0.15177 0.15928,0.20907 l -2.69027,4.6632 c -0.0409,0.006 -0.082,0.005 -0.11961,-0.006 -0.0478,-0.0147 -0.0944,-0.0209 -0.13945,-0.0209 -0.0614,0 -0.1073,0.006 -0.13944,0.0209 -0.0409,0.0147 -0.0848,0.0274 -0.12985,0.0274 v -0.0209 z m 6.31727,0.23912 c 0.0547,0.0147 0.0998,0.0274 0.13944,0.0274 0.0342,0.0209 0.0745,0.0274 0.12984,0.006 0.0342,0.0147 0.08,0.006 0.11962,-0.006 0.0274,-0.005 0.0616,-0.006 0.0998,-0.006 h -0.0274 l 1.80353,3.8262 c -0.095,0.0875 -0.17221,0.18182 -0.22956,0.27876 -0.0616,0.11482 -0.095,0.23161 -0.0998,0.34843 l -4.38419,0.54793 c -0.0409,-0.0547 -0.0724,-0.11481 -0.0896,-0.18934 -0.0409,-0.0547 -0.082,-0.11481 -0.11962,-0.1695 z m 0.89671,-0.19956 c 0.0724,-0.0547 0.13944,-0.12233 0.19956,-0.20907 0.0547,-0.0772 0.0998,-0.17431 0.13944,-0.28899 h 3.62693 c 0.0342,0.0944 0.0724,0.18182 0.11962,0.25893 0.0342,0.0875 0.10458,0.15448 0.19956,0.19957 l -2.07257,3.89596 c -0.0409,-0.0147 -0.0772,-0.0209 -0.10939,-0.0273 -0.0409,0 -0.0772,0 -0.10939,0 -0.0409,0 -0.0724,0 -0.0896,0 -0.0478,0 -0.082,0 -0.0998,0 z m 0.0209,-11.32911 4.42404,3.22834 c -0.0209,0.0547 -0.0342,0.1121 -0.0409,0.16951 -0.0209,0.0745 -0.0274,0.13736 -0.0274,0.18933 -0.006,0.0409 -0.005,0.0683 0.006,0.08 0.0146,0.0274 0.0209,0.0547 0.0209,0.0896 v -0.0274 l -1.64407,0.72741 c -0.095,-0.10458 -0.20416,-0.19956 -0.32862,-0.27875 -0.13944,-0.0724 -0.28626,-0.10938 -0.43862,-0.10938 -0.0409,0 -0.0724,0 -0.0896,0 -0.0478,0.006 -0.082,0.0209 -0.0998,0.0274 h 0.0209 l -1.82347,-4.06535 c 0,0.006 0,0.005 0,-0.006 0,-0.0146 0.005,-0.0209 0.0209,-0.0209 z m -1.00635,0.16951 c 0.0547,0.0273 0.1121,0.0478 0.17974,0.0478 0.0547,0.0147 0.1121,0.0209 0.17973,0.0209 0.0274,0.0146 0.0614,0.006 0.0998,-0.006 0.0209,-0.005 0.0478,-0.006 0.0896,-0.006 l 1.83339,4.06533 c -0.0875,0.0478 -0.15176,0.1073 -0.18934,0.17974 -0.0547,0.0745 -0.0971,0.15176 -0.12984,0.22887 l -4.37415,-0.57799 c -0.006,-0.0847 -0.0274,-0.17222 -0.0616,-0.25893 -0.0409,-0.0848 -0.0848,-0.15928 -0.12922,-0.21932 z m -5.96847,-0.66748 h 5.39055 c 0.005,0.0683 0.0274,0.13193 0.0697,0.18933 0.0342,0.0745 0.0724,0.13674 0.11962,0.18935 l -2.5508,3.43755 c -0.0478,-0.005 -0.0971,-0.0147 -0.14968,-0.0274 -0.0683,-0.005 -0.12713,-0.006 -0.17974,-0.006 -0.0745,0 -0.14215,0.005 -0.19956,0.006 -0.0616,0.0146 -0.1169,0.0342 -0.1695,0.0614 v -0.0274 l -2.52089,-3.43761 c 0.0342,-0.0547 0.0799,-0.11209 0.11962,-0.17973 0.0342,-0.0478 0.0547,-0.1121 0.0697,-0.19956 z m -0.93663,0.7373 c 0.0547,0 0.11482,-0.005 0.18934,-0.0209 0.0547,-0.005 0.11481,-0.0209 0.1695,-0.0478 l 2.53079,3.46749 c -0.0683,0.0614 -0.1169,0.13465 -0.14967,0.2193 -0.0409,0.0875 -0.0616,0.1743 -0.0697,0.25893 l -4.37424,0.57801 c -0.0409,-0.0772 -0.082,-0.15448 -0.11961,-0.22888 -0.0616,-0.0724 -0.11691,-0.13192 -0.16951,-0.17973 l 1.82341,-4.06534 c 0.005,0 0.0274,0.005 0.0697,0.006 0.0274,0.0209 0.0616,0.0274 0.0998,0.006 z m -0.62785,-0.23911 c 0,0 0,0.006 0,0.0209 0,0.0147 0.006,0.0209 0.0274,0.006 l -1.83338,4.06529 c -0.0409,-0.0147 -0.0683,-0.0209 -0.0799,-0.0274 -0.0274,0 -0.0547,0 -0.0895,0 -0.16679,0 -0.31359,0.0343 -0.43863,0.10939 -0.13944,0.08 -0.25142,0.17431 -0.32861,0.27874 l -1.66397,-0.72739 c 0.0126,-0.005 0.0225,-0.0274 0.0301,-0.0697 0,-0.0209 0,-0.0478 0,-0.0896 -0.008,-0.0547 -0.0188,-0.12232 -0.0301,-0.18933 -0.0188,-0.0547 -0.0349,-0.10187 -0.0396,-0.14967 z m -4.5934,4.18489 1.66394,0.6975 c -0.0209,0.0409 -0.0274,0.0745 -0.0274,0.0998 0,0.0409 0,0.0745 0,0.0998 -0.006,0.13464 0.0209,0.26165 0.0895,0.37849 0.0547,0.13944 0.13464,0.24664 0.24935,0.31905 l -2.0227,3.84609 c -0.0146,0 -0.0247,0 -0.0301,0 -0.0209,0 -0.0273,0 -0.0209,0 l -0.35867,-5.12149 c 0.0923,-0.0273 0.18181,-0.0724 0.26903,-0.13945 0.0772,-0.0547 0.14195,-0.1121 0.18934,-0.1789 z m -0.91668,12.14617 -1.60421,-4.92229 c 0.0971,-0.0547 0.18933,-0.14216 0.26904,-0.24937 0.0649,-0.0847 0.11961,-0.19414 0.15948,-0.32862 h 0.86686 c 0.0451,0.15907 0.12462,0.30129 0.23912,0.4188 0.10458,0.12713 0.23413,0.22136 0.38861,0.27874 h 0.0188 z m -0.30889,-5.98844 h -0.86688 c -0.0146,-0.1169 -0.0622,-0.23434 -0.13945,-0.34842 -0.0948,-0.0971 -0.18433,-0.18182 -0.26903,-0.24938 l 1.58428,-4.90233 0.33881,4.80266 c -0.167,0.0683 -0.3039,0.16199 -0.40857,0.27874 -0.11461,0.12713 -0.19435,0.26645 -0.23913,0.4188 z m 0.76721,6.32716 0.3587,-5.1215 c -0.008,0 0,0 0.0188,0 0.005,0 0.0146,0 0.0301,0 l 2.02268,3.8461 c -0.11481,0.095 -0.19685,0.20144 -0.24937,0.31905 -0.0683,0.13464 -0.0971,0.27123 -0.0895,0.40857 0,0.0409 0,0.0683 0,0.0799 0,0.0274 0.006,0.0547 0.0274,0.0896 l -1.66399,0.6975 c -0.067,-0.0772 -0.13444,-0.14488 -0.19936,-0.19957 -0.0747,-0.0343 -0.16199,-0.0799 -0.25908,-0.11961 z m 5.05176,4.50376 -4.44394,-3.19843 c 0.005,-0.0547 0.0188,-0.10938 0.0396,-0.1695 0.0125,-0.0547 0.0225,-0.12441 0.0301,-0.19957 0,-0.0209 0,-0.0478 0,-0.0895 -0.008,-0.0274 -0.0188,-0.0616 -0.0301,-0.0998 v 0.0273 l 1.6441,-0.7274 c 0.0848,0.11481 0.19413,0.20707 0.32863,0.27876 0.13193,0.0745 0.27874,0.10938 0.43861,0.10938 0.0209,0 0.0547,0 0.0998,0 0.0209,0 0.0478,-0.006 0.0895,-0.0274 l 1.83337,4.06526 c -0.0209,0.0209 -0.0273,0.0274 -0.0273,0.0274 z m 0.98647,-0.1695 c -0.0547,-0.005 -0.1121,-0.0209 -0.16951,-0.0478 -0.0745,-0.005 -0.13673,-0.0146 -0.18933,-0.0209 -0.0409,0 -0.0745,0.005 -0.0998,0.006 -0.0409,0.0146 -0.0724,0.0209 -0.0895,0.006 h 0.0209 l -1.82342,-4.06525 c 0.0547,-0.0478 0.10939,-0.10459 0.16951,-0.17974 0.0343,-0.0616 0.08,-0.14216 0.11962,-0.22887 h 0.0209 l 4.35428,0.54792 c 0.005,0.0998 0.0274,0.19205 0.0697,0.26918 0.0342,0.0875 0.082,0.1668 0.14967,0.23913 l -0.43862,0.57799 z m 5.96841,0.66749 h -5.39055 c -0.0146,-0.0547 -0.0343,-0.12232 -0.0697,-0.19956 -0.0409,-0.0745 -0.082,-0.13193 -0.11962,-0.17973 l 2.52089,-3.48742 c 0.0547,0.0409 0.10939,0.0614 0.16951,0.0614 0.0547,0.0147 0.12442,0.0209 0.19956,0.006 0.0547,0.006 0.11481,0.005 0.18934,-0.006 0.0547,0 0.11481,-0.0209 0.18934,-0.0614 h -0.0209 l 2.52088,3.48742 c -0.0478,0.0724 -0.0875,0.13464 -0.11961,0.18912 -0.0409,0.0724 -0.0616,0.13465 -0.0697,0.18934 z m 1.12592,-0.71742 c -0.0409,0.006 -0.0724,0.005 -0.0895,-0.006 -0.0409,-0.005 -0.0745,-0.006 -0.0998,-0.006 -0.0683,0.006 -0.12713,0.0146 -0.17973,0.0209 -0.0683,0.0274 -0.12713,0.0478 -0.17973,0.0478 l -2.53087,-3.46747 c 0.0547,-0.0724 0.1121,-0.15176 0.15928,-0.23912 0.0342,-0.0772 0.0547,-0.16951 0.0616,-0.26918 l 4.37415,-0.54793 c 0.0342,0.0875 0.0745,0.16199 0.12984,0.21931 0.0478,0.0745 0.0998,0.13652 0.15928,0.18934 l -1.75371,3.91586 z m 0.45844,0.21931 c -0.0146,0 -0.0209,0 -0.0209,0 0,0 0,-0.006 0,-0.0274 l 0.0478,-0.11961 1.77361,-3.94571 c 0.005,0.0209 0.0342,0.0274 0.0799,0.0274 0.0209,0 0.0478,0 0.0895,0 0.15155,0 0.29924,-0.0343 0.4386,-0.0998 0.12442,-0.0547 0.23435,-0.14216 0.32864,-0.26919 v -0.0209 l 2.12231,0.91673 z m 2.93943,-4.8824 c -0.006,-0.0342 -0.005,-0.0614 0.006,-0.0895 0.005,-0.0147 0.006,-0.0409 0.006,-0.08 -0.006,-0.14488 -0.0343,-0.27875 -0.0896,-0.3983 -0.0683,-0.1169 -0.15176,-0.22887 -0.24937,-0.32863 l 2.05255,-3.86598 c 0.005,0 0.0147,0 0.0274,0 0.005,0 0.006,0 0.006,0 l 0.36893,5.69936 z m 2.26181,-4.79267 c 0.15176,-0.0547 0.289,-0.13945 0.40856,-0.25893 0.0971,-0.10459 0.16951,-0.24186 0.20907,-0.40857 h 0.84696 c 0.0342,0.13464 0.0847,0.2439 0.15927,0.32861 0.0614,0.1073 0.15448,0.19205 0.26918,0.24937 l -1.58428,4.92229 z m 0,0"
         id="path3154" />
      <g
         transform="matrix(1.2799483,0,0,1.2799483,86.956511,756.94104)"
         style="font-size:40px;font-style:normal;font-variant:normal;font-weight:normal;font-stretch:normal;line-height:125%;letter-spacing:0px;word-spacing:0px;fill:#ffffff;fill-opacity:1;stroke:none;font-family:Comfortaa;-inkscape-font-specification:Comfortaa"
         id="flowRoot3156">
        <path
           d="m 158.11328,73.327901 0.23438,0 c 0.88541,0.19534 1.32811,0.618517 1.32812,1.269531 l 0,25.390625 c -0.16928,0.937503 -0.63803,1.406253 -1.40625,1.406253 l -0.0781,0 c -0.93751,-0.19531 -1.40626,-0.61198 -1.40625,-1.25 l 0,-23.39844 c -1.32813,0.442732 -2.19402,0.664086 -2.59766,0.664062 -0.61198,2.4e-5 -1.02865,-0.449194 -1.25,-1.347656 l 0,-0.371094 c 0,-0.72914 0.98958,-1.295546 2.96875,-1.699218 l 2.20703,-0.664063"
           style=""
           id="path3172" />
      </g>
    </g>
  </g>
</svg>
