<?xml version="1.0" encoding="UTF-8" standalone="no"?>
<!-- Created with Inkscape (http://www.inkscape.org/) -->

<svg
   xmlns:dc="http://purl.org/dc/elements/1.1/"
   xmlns:cc="http://creativecommons.org/ns#"
   xmlns:rdf="http://www.w3.org/1999/02/22-rdf-syntax-ns#"
   xmlns:svg="http://www.w3.org/2000/svg"
   xmlns="http://www.w3.org/2000/svg"
   xmlns:xlink="http://www.w3.org/1999/xlink"
   xmlns:sodipodi="http://sodipodi.sourceforge.net/DTD/sodipodi-0.dtd"
   xmlns:inkscape="http://www.inkscape.org/namespaces/inkscape"
   width="460.62991"
   height="283.46457"
   id="svg2"
   version="1.1"
   inkscape:version="0.48.5 r10040"
   sodipodi:docname="banknote_bg_template.svg"
   inkscape:export-filename="/home/mammique/Documents/daat/banknote/cryptos/dash.png"
   inkscape:export-xdpi="156.31"
   inkscape:export-ydpi="156.31">
  <defs
     id="defs4">
    <linearGradient
       id="linearGradient4925">
      <stop
         style="stop-color:#bd9800;stop-opacity:1;"
         offset="0"
         id="stop4927" />
      <stop
         id="stop3784"
         offset="0.51732481"
         style="stop-color:#ffcc04;stop-opacity:1;" />
      <stop
         offset="1"
         id="stop4929"
         style="stop-color:#a98500;stop-opacity:1;" />
    </linearGradient>
    <linearGradient
       id="linearGradient4835">
      <stop
         style="stop-color:#000000;stop-opacity:0.61572052"
         offset="0"
         id="stop4837" />
      <stop
         style="stop-color:#000000;stop-opacity:0;"
         offset="1"
         id="stop4839" />
    </linearGradient>
    <linearGradient
       inkscape:collect="always"
       id="linearGradient4531">
      <stop
         style="stop-color:#ffffff;stop-opacity:1;"
         offset="0"
         id="stop4533" />
      <stop
         style="stop-color:#ffffff;stop-opacity:0;"
         offset="1"
         id="stop4535" />
    </linearGradient>
    <clipPath
       clipPathUnits="userSpaceOnUse"
       id="clipPath5978">
      <rect
         style="color:#000000;fill:#cccccc;fill-opacity:1;fill-rule:nonzero;stroke:#003a00;stroke-width:0.89999998;stroke-linecap:butt;stroke-linejoin:miter;stroke-miterlimit:4;stroke-opacity:1;stroke-dasharray:none;stroke-dashoffset:0;marker:none;visibility:visible;display:inline;overflow:visible;enable-background:accumulate"
         id="rect5980"
         width="173.74623"
         height="1608.1628"
         x="610.13214"
         y="-378.01382"
         transform="matrix(0,-1,1,0,0,0)" />
    </clipPath>
    <inkscape:perspective
       id="perspective2497"
       inkscape:persp3d-origin="372.04724 : 350.78739 : 1"
       inkscape:vp_z="744.09448 : 526.18109 : 1"
       inkscape:vp_y="0 : 1000 : 0"
       inkscape:vp_x="0 : 526.18109 : 1"
       sodipodi:type="inkscape:persp3d" />
    <linearGradient
       inkscape:collect="always"
       xlink:href="#linearGradient4531"
       id="linearGradient4823"
       gradientUnits="userSpaceOnUse"
       x1="182.81697"
       y1="175.83376"
       x2="183.58928"
       y2="-16.309107"
       gradientTransform="translate(53.033008,825.69937)" />
    <radialGradient
       inkscape:collect="always"
       xlink:href="#linearGradient4835"
       id="radialGradient4845"
       cx="7.3256431"
       cy="198.2952"
       fx="7.3256431"
       fy="198.2952"
       r="109.27257"
       gradientTransform="matrix(0.19829552,0.15553474,-0.16582027,0.21140881,93.302602,945.5672)"
       gradientUnits="userSpaceOnUse" />
    <linearGradient
       id="linearGradient4925-6">
      <stop
         style="stop-color:#bd9800;stop-opacity:1;"
         offset="0"
         id="stop4927-7" />
      <stop
         id="stop3784-5"
         offset="0.5"
         style="stop-color:#ffcc04;stop-opacity:1;" />
      <stop
         offset="1"
         id="stop4929-3"
         style="stop-color:#a98500;stop-opacity:1;" />
    </linearGradient>
    <linearGradient
       gradientTransform="translate(-17.649337,-11.359598)"
       y2="38.317909"
       x2="313.61914"
       y1="142.8687"
       x1="50.479298"
       gradientUnits="userSpaceOnUse"
       id="linearGradient3802"
       xlink:href="#linearGradient4925-6"
       inkscape:collect="always" />
    <linearGradient
       id="linearGradient4925-2">
      <stop
         style="stop-color:#bd9800;stop-opacity:1;"
         offset="0"
         id="stop4927-3" />
      <stop
         id="stop3784-7"
         offset="0.38554054"
         style="stop-color:#ffcc04;stop-opacity:1;" />
      <stop
         offset="1"
         id="stop4929-5"
         style="stop-color:#a98500;stop-opacity:1;" />
    </linearGradient>
    <linearGradient
       y2="38.317909"
       x2="313.61914"
       y1="83.269699"
       x1="19.16457"
       gradientTransform="translate(-17.649337,-11.359581)"
       gradientUnits="userSpaceOnUse"
       id="linearGradient4077"
       xlink:href="#linearGradient4925-2"
       inkscape:collect="always" />
    <linearGradient
       id="linearGradient4925-28">
      <stop
         style="stop-color:#bd9800;stop-opacity:1;"
         offset="0"
         id="stop4927-9" />
      <stop
         id="stop3784-73"
         offset="0.51732481"
         style="stop-color:#ffcc04;stop-opacity:1;" />
      <stop
         offset="1"
         id="stop4929-6"
         style="stop-color:#a98500;stop-opacity:1;" />
    </linearGradient>
    <linearGradient
       y2="19.746481"
       x2="180.76199"
       y1="166.12685"
       x1="180.59314"
       gradientTransform="translate(-17.649337,-11.359581)"
       gradientUnits="userSpaceOnUse"
       id="linearGradient4113"
       xlink:href="#linearGradient4925-28"
       inkscape:collect="always" />
    <linearGradient
       id="linearGradient4925-7">
      <stop
         style="stop-color:#bd9800;stop-opacity:1;"
         offset="0"
         id="stop4927-5" />
      <stop
         id="stop3784-3"
         offset="0.51732481"
         style="stop-color:#ffcc04;stop-opacity:1;" />
      <stop
         offset="1"
         id="stop4929-56"
         style="stop-color:#a98500;stop-opacity:1;" />
    </linearGradient>
    <linearGradient
       y2="19.746481"
       x2="180.76199"
       y1="166.12685"
       x1="180.59314"
       gradientTransform="translate(-17.649337,-11.359581)"
       gradientUnits="userSpaceOnUse"
       id="linearGradient3327"
       xlink:href="#linearGradient4925-7"
       inkscape:collect="always" />
    <linearGradient
       id="linearGradient4925-7-1">
      <stop
         style="stop-color:#bd9800;stop-opacity:1;"
         offset="0"
         id="stop4927-5-2" />
      <stop
         id="stop3784-3-7"
         offset="0.51732481"
         style="stop-color:#ffcc04;stop-opacity:1;" />
      <stop
         offset="1"
         id="stop4929-56-0"
         style="stop-color:#a98500;stop-opacity:1;" />
    </linearGradient>
    <linearGradient
       y2="19.032196"
       x2="138.61914"
       y1="166.12685"
       x1="180.59314"
       gradientTransform="translate(-17.649337,-7.9568844)"
       gradientUnits="userSpaceOnUse"
       id="linearGradient3455"
       xlink:href="#linearGradient4925-7-1"
       inkscape:collect="always" />
    <linearGradient
       inkscape:collect="always"
       xlink:href="#linearGradient4925-7-6"
       id="linearGradient3350-3"
       gradientUnits="userSpaceOnUse"
       gradientTransform="translate(54.548237,823.78353)"
       x1="180.59314"
       y1="166.12685"
       x2="138.61914"
       y2="19.032196" />
    <linearGradient
       id="linearGradient4925-7-6">
      <stop
         style="stop-color:#bd9800;stop-opacity:1;"
         offset="0"
         id="stop4927-5-0" />
      <stop
         id="stop3784-3-6"
         offset="0.51732481"
         style="stop-color:#ffcc04;stop-opacity:1;" />
      <stop
         offset="1"
         id="stop4929-56-2"
         style="stop-color:#a98500;stop-opacity:1;" />
    </linearGradient>
    <linearGradient
       y2="19.032196"
       x2="138.61914"
       y1="166.12685"
       x1="180.59314"
       gradientTransform="translate(-17.649337,-7.9568844)"
       gradientUnits="userSpaceOnUse"
       id="linearGradient3491"
       xlink:href="#linearGradient4925-7-6"
       inkscape:collect="always" />
    <linearGradient
       id="linearGradient4835-7">
      <stop
         style="stop-color:#000000;stop-opacity:0.61572052"
         offset="0"
         id="stop4837-5" />
      <stop
         style="stop-color:#000000;stop-opacity:0;"
         offset="1"
         id="stop4839-9" />
    </linearGradient>
    <radialGradient
       r="109.27257"
       fy="198.2952"
       fx="7.3256431"
       cy="198.2952"
       cx="7.3256431"
       gradientTransform="matrix(0.19829552,0.15553474,-0.16582027,0.21140881,132.487,52.51516)"
       gradientUnits="userSpaceOnUse"
       id="radialGradient3545"
       xlink:href="#linearGradient4835-7"
       inkscape:collect="always" />
    <linearGradient
       id="linearGradient4835-8">
      <stop
         style="stop-color:#000000;stop-opacity:0.61572052"
         offset="0"
         id="stop4837-9" />
      <stop
         style="stop-color:#000000;stop-opacity:0;"
         offset="1"
         id="stop4839-7" />
    </linearGradient>
    <radialGradient
       r="109.27257"
       fy="198.2952"
       fx="7.3256431"
       cy="198.2952"
       cx="7.3256431"
       gradientTransform="matrix(0.19829552,0.15553474,-0.16582027,0.21140881,132.487,52.51516)"
       gradientUnits="userSpaceOnUse"
       id="radialGradient3578"
       xlink:href="#linearGradient4835-8"
       inkscape:collect="always" />
    <linearGradient
       inkscape:collect="always"
       xlink:href="#linearGradient4925-7-6-1"
       id="linearGradient3350-3-6"
       gradientUnits="userSpaceOnUse"
       gradientTransform="translate(54.548237,823.78353)"
       x1="180.59314"
       y1="166.12685"
       x2="138.61914"
       y2="19.032196" />
    <linearGradient
       id="linearGradient4925-7-6-1">
      <stop
         style="stop-color:#bd9800;stop-opacity:1;"
         offset="0"
         id="stop4927-5-0-2" />
      <stop
         id="stop3784-3-6-9"
         offset="0.51732481"
         style="stop-color:#ffcc04;stop-opacity:1;" />
      <stop
         offset="1"
         id="stop4929-56-2-3"
         style="stop-color:#a98500;stop-opacity:1;" />
    </linearGradient>
    <linearGradient
       y2="19.032196"
       x2="138.61914"
       y1="166.12685"
       x1="180.59314"
       gradientTransform="translate(-17.649337,-14.676051)"
       gradientUnits="userSpaceOnUse"
       id="linearGradient3612"
       xlink:href="#linearGradient4925-7-6-1"
       inkscape:collect="always" />
  </defs>
  <sodipodi:namedview
     id="base"
     pagecolor="#5271a5"
     bordercolor="#666666"
     borderopacity="1.0"
     inkscape:pageopacity="1"
     inkscape:pageshadow="2"
     inkscape:zoom="2.8"
     inkscape:cx="241.28279"
     inkscape:cy="157.14554"
     inkscape:document-units="px"
     inkscape:current-layer="layer1"
     showgrid="false"
     units="mm"
     inkscape:window-width="1918"
     inkscape:window-height="1059"
     inkscape:window-x="1366"
     inkscape:window-y="19"
     inkscape:window-maximized="1"
     showguides="true"
     inkscape:guide-bbox="true" />
  <metadata
     id="metadata7">
    <rdf:RDF>
      <cc:Work
         rdf:about="">
        <dc:format>image/svg+xml</dc:format>
        <dc:type
           rdf:resource="http://purl.org/dc/dcmitype/StillImage" />
        <dc:title></dc:title>
      </cc:Work>
    </rdf:RDF>
  </metadata>
  <g
     inkscape:label="Calque 1"
     inkscape:groupmode="layer"
     id="layer1"
     transform="translate(0,-768.89763)">
    <path
       style="color:#000000;fill:#602a52;fill-opacity:1;fill-rule:nonzero;stroke:none;stroke-width:1;marker:none;visibility:visible;display:inline;overflow:visible;enable-background:accumulate;stroke-linecap:butt;stroke-linejoin:miter;stroke-miterlimit:4;stroke-opacity:1;stroke-dasharray:none;stroke-dashoffset:0"
       d="M 136.1875 111.59375 C 119.24731 111.59375 105.53125 125.30989 105.53125 142.25 C 105.53125 159.19025 119.24731 172.9375 136.1875 172.9375 C 153.12767 172.9375 166.875 159.19025 166.875 142.25 C 166.875 125.30989 153.12767 111.59375 136.1875 111.59375 z M 136.1875 118.03125 C 136.87581 118.03125 137.4811 118.38818 137.8125 119 L 156.5 152.53125 C 157.00986 153.398 156.71625 154.52717 155.875 155.0625 L 137.1875 166.21875 C 136.8816 166.39717 136.55014 166.46875 136.21875 166.46875 C 135.88734 166.46875 135.5559 166.3972 135.25 166.21875 L 116.53125 155.03125 C 115.6645 154.5214 115.39064 153.398 115.875 152.53125 L 134.5625 119 C 134.89391 118.38818 135.4992 118.03125 136.1875 118.03125 z M 135.25 121.59375 L 118.46875 151.75 C 119.99832 150.85775 122.53214 149.52629 124.75 148.8125 C 125.8207 148.48109 127.21797 148.77553 128.875 149.71875 C 130.02216 150.38159 130.81815 151.13065 130.84375 151.15625 L 131.53125 151.75 C 131.96463 152.10689 132.39641 152.40133 132.90625 152.65625 C 132.95725 152.68169 133.0485 152.7246 133.125 152.75 C 133.15045 152.7756 133.19315 152.7871 133.21875 152.8125 C 133.29522 152.86345 133.39225 152.88085 133.46875 152.90625 C 133.49419 152.93185 133.537 152.94335 133.5625 152.96875 C 134.22532 153.22368 134.91696 153.35525 135.65625 153.40625 C 135.14639 153.89062 134.6439 154.45642 134.3125 155.09375 C 133.87912 154.99177 133.46463 154.8717 133.03125 154.71875 C 132.98031 154.71875 132.93185 154.6875 132.90625 154.6875 C 132.85529 154.6619 132.83225 154.68165 132.78125 154.65625 C 132.47533 154.52881 132.21791 154.40296 131.9375 154.25 C 131.9375 154.25 131.9006 154.21875 131.875 154.21875 L 131.5625 154.0625 C 131.10363 153.83308 130.69489 153.52469 130.3125 153.21875 L 130.28125 153.15625 C 130.10279 153.0288 129.90296 152.87171 129.75 152.71875 L 129.6875 152.65625 C 128.46384 151.66204 126.30096 150.29361 125.28125 150.625 C 122.681 151.44079 119.50243 153.30592 118.40625 153.96875 L 135.25 164 L 135.25 157.125 C 135.25 154.55023 138.97288 152.83472 139.40625 152.65625 L 139.5625 152.59375 C 140.40377 152.18585 141.13817 151.59457 141.75 150.90625 C 141.7754 150.90625 141.7869 150.86915 141.8125 150.84375 C 141.91446 150.74178 142.01725 150.62747 142.09375 150.5 C 142.11925 150.47455 142.1619 150.43175 142.1875 150.40625 C 142.26397 150.30429 142.361 150.18996 142.4375 150.0625 C 142.4629 150.0625 142.44315 150.0256 142.46875 150 C 142.54523 149.84706 142.64225 149.68421 142.71875 149.53125 C 142.8972 149.19984 143.09129 148.81987 143.21875 148.4375 C 143.52467 149.04931 143.8964 149.73191 144.40625 150.34375 C 144.27879 150.5477 144.15872 150.76481 144.03125 150.96875 C 144.03125 150.99415 144 151.00565 144 151.03125 L 143.6875 151.46875 C 143.662 151.49419 143.6505 151.56825 143.625 151.59375 C 143.52304 151.7212 143.44569 151.83556 143.34375 151.9375 C 143.31831 151.98845 143.2754 152.0115 143.25 152.0625 C 143.14802 152.21546 143.00246 152.34128 142.875 152.46875 L 142.84375 152.53125 C 142.71629 152.63322 142.59622 152.74181 142.46875 152.84375 C 142.41778 152.8692 142.39475 152.94335 142.34375 152.96875 C 142.31831 153.01969 142.2756 153.0371 142.25 153.0625 C 141.86761 153.39392 141.46462 153.71383 141.03125 153.96875 L 140.9375 154 C 140.73355 154.12747 140.5477 154.2418 140.34375 154.34375 L 140.28125 154.375 C 139.28704 154.80838 137.125 156.06006 137.125 157.15625 L 137.125 164.0625 L 153.9375 154 C 152.66287 153.38817 149.41605 151.80586 146.96875 150.53125 C 144.82736 149.43507 143.91444 146.19488 143.8125 145.8125 L 143.5625 144.90625 C 143.48602 144.31991 143.36019 143.7911 143.15625 143.28125 C 143.10529 143.20478 143.051 143.10194 143 143 C 142.97456 142.92351 142.93175 142.8265 142.90625 142.75 C 142.85529 142.67351 142.83225 142.60775 142.78125 142.53125 C 142.73029 142.45479 142.70725 142.389 142.65625 142.3125 C 142.60529 142.26151 142.58225 142.17025 142.53125 142.09375 L 142.375 141.875 C 142.34948 141.79851 142.301 141.73275 142.25 141.65625 L 142.09375 141.4375 C 142.04273 141.3865 141.9885 141.301 141.9375 141.25 C 141.88652 141.19901 141.801 141.139 141.75 141.0625 L 141.625 140.90625 L 141.40625 140.6875 L 141.25 140.53125 C 141.17352 140.45478 141.10775 140.42025 141.03125 140.34375 C 140.98024 140.2928 140.926 140.26975 140.875 140.21875 C 140.79853 140.14226 140.7015 140.051 140.625 140 C 140.57403 139.94905 140.551 139.93165 140.5 139.90625 C 140.39804 139.82977 140.32069 139.76975 140.21875 139.71875 C 140.21875 139.71875 140.18175 139.6875 140.15625 139.6875 C 139.79935 139.45806 139.40788 139.24093 139 139.0625 C 138.3117 138.78206 137.54027 138.58225 136.75 138.53125 C 137.25985 138.04688 137.69985 137.48108 138.03125 136.84375 C 138.46463 136.92024 138.90462 137.0658 139.3125 137.21875 C 139.46545 137.26976 139.62829 137.324 139.78125 137.375 C 139.80665 137.375 139.7869 137.40625 139.8125 137.40625 C 139.99094 137.48274 140.1908 137.5485 140.34375 137.625 C 140.36925 137.625 140.3495 137.65625 140.375 137.65625 C 140.52796 137.73271 140.72204 137.80431 140.875 137.90625 C 140.9006 137.90625 140.9121 137.9375 140.9375 137.9375 C 141.11596 138.03946 141.2533 138.14806 141.40625 138.25 L 141.4375 138.28125 C 141.59046 138.38323 141.75329 138.46628 141.90625 138.59375 L 141.90625 138.625 L 142.375 139.03125 C 143.57315 140.07645 144.49591 141.40795 145.03125 142.9375 C 145.18421 143.42187 145.3125 143.92189 145.3125 144.40625 L 145.53125 145.3125 C 145.76069 146.10278 146.55185 148.26316 147.75 148.875 C 149.81491 149.94569 152.49594 151.29198 154 152.03125 L 137.0625 121.59375 L 137.0625 134.71875 C 137.0625 137.29349 133.33963 139.07157 132.90625 139.25 L 132.09375 139.625 C 131.50742 140.0074 131.02137 140.45888 130.5625 140.96875 C 130.5371 140.99425 130.5256 141.00585 130.5 141.03125 C 130.39803 141.15872 130.3207 141.24754 130.21875 141.375 C 130.19325 141.375 130.1875 141.40625 130.1875 141.40625 C 130.08552 141.53371 129.98275 141.6538 129.90625 141.78125 C 129.88075 141.80675 129.9005 141.8496 129.875 141.875 C 129.79852 142.00247 129.73275 142.09131 129.65625 142.21875 C 129.63075 142.24425 129.61925 142.2869 129.59375 142.3125 C 129.49177 142.43996 129.4515 142.5658 129.375 142.71875 C 129.3496 142.76969 129.3381 142.787 129.3125 142.8125 C 129.26148 142.91447 129.20725 143.06001 129.15625 143.1875 C 129.13085 143.21294 129.1506 143.25585 129.125 143.28125 L 128.96875 143.71875 C 128.96875 143.74425 128.9375 143.787 128.9375 143.8125 C 128.91206 143.93996 128.86935 144.06005 128.84375 144.1875 C 128.84375 144.23847 128.8125 144.2615 128.8125 144.3125 C 128.787 144.49097 128.7756 144.65955 128.75 144.8125 L 128.75 144.84375 C 128.7246 144.99671 128.6875 145.12829 128.6875 145.28125 L 128.6875 145.40625 C 128.6619 145.5847 128.65625 145.75906 128.65625 145.9375 L 128.65625 146.0625 C 128.68175 146.77629 128.79607 147.46219 129 148.125 C 128.26071 147.76811 127.56906 147.46545 126.90625 147.3125 C 126.82991 146.87913 126.8125 146.39636 126.8125 145.9375 L 126.8125 145.5625 C 126.8381 145.46052 126.8125 145.38319 126.8125 145.28125 C 126.8125 145.17928 126.84375 145.10194 126.84375 145 C 126.84375 144.92351 126.875 144.889 126.875 144.8125 C 126.9005 144.71054 126.912 144.60195 126.9375 144.5 C 126.963 144.42351 126.94325 144.35775 126.96875 144.28125 C 126.99425 144.20476 127.00575 144.0765 127.03125 144 C 127.05675 143.94902 127.06825 143.89475 127.09375 143.84375 C 127.1192 143.74177 127.1619 143.59622 127.1875 143.46875 C 127.2129 143.41773 127.19315 143.3635 127.21875 143.3125 C 127.26969 143.21054 127.31835 143.1333 127.34375 143.03125 C 127.36925 142.9803 127.3495 142.95725 127.375 142.90625 L 127.53125 142.53125 C 127.55665 142.4803 127.56815 142.45725 127.59375 142.40625 C 127.64477 142.27877 127.699 142.18998 127.75 142.0625 C 127.75 142.0625 127.78125 142.0254 127.78125 142 C 127.83223 141.89802 127.861 141.78371 127.9375 141.65625 C 127.9629 141.6053 127.9744 141.55685 128 141.53125 L 128.21875 141.15625 C 128.21875 141.13065 128.25 141.11915 128.25 141.09375 C 128.32648 140.96628 128.39225 140.87746 128.46875 140.75 C 128.46875 140.7245 128.5 140.713 128.5 140.6875 C 128.60196 140.56005 128.6793 140.43994 128.78125 140.3125 L 128.8125 140.28125 C 128.99095 140.02633 129.20807 139.79191 129.4375 139.5625 C 129.64144 139.33307 129.90132 139.07894 130.15625 138.875 C 130.56413 138.54359 130.94163 138.25493 131.375 138 L 131.4375 137.96875 C 131.66694 137.84127 131.86431 137.72694 132.09375 137.625 L 132.25 137.53125 C 134.56983 136.48606 135.25 135.27138 135.25 134.8125 L 135.25 121.59375 z "
       transform="translate(0,768.89763)"
       id="path3893" />
    <path
       inkscape:connector-curvature="0"
       class="st0"
       d="m 68.256004,837.60127 c 0,0.29073 0.174444,0.50879 0.639623,0.50879 0.450645,0 0.639626,-0.21806 0.639626,-0.50879 l 0,-0.10177 c 0,-1.1048 0.915824,-2.07877 2.180535,-2.07877 1.250175,0 2.180537,0.91582 2.180537,2.15146 l 0,0.49425 c 0,0.26167 -0.290739,0.43611 -0.65416,0.5088 l -2.427664,0.5524 c -1.74443,0.39249 -2.529425,1.32286 -2.529425,2.76202 0,1.64266 1.468231,3.0382 3.445249,3.0382 1.933409,0 3.445248,-1.30832 3.445248,-3.44524 l 0,-3.91043 c 0,-1.90433 -1.482767,-3.24173 -3.445248,-3.24173 -1.962482,0 -3.445249,1.381 -3.445249,3.13997 l 0,0.13084 z m 3.445249,6.25087 c -1.322862,0 -2.180537,-0.97398 -2.180537,-1.93341 0,-0.97398 0.566939,-1.4973 1.555449,-1.74443 l 2.078777,-0.47972 c 0.348886,-0.0727 0.596013,-0.17445 0.712308,-0.31981 l 0,2.07877 c 0,1.67175 -1.104806,2.3986 -2.165997,2.3986 z m 10.975366,-2.38405 c 0,1.55544 -0.98851,2.39858 -2.20961,2.39858 -1.2211,0 -2.209611,-0.8286 -2.209611,-2.39858 l 0,-6.55616 c 0,-0.29073 -0.174443,-0.50879 -0.639626,-0.50879 -0.450641,0 -0.639623,0.21806 -0.639623,0.50879 l 0,6.64338 c 0,2.20961 1.642671,3.40163 3.474322,3.40163 1.831652,0 3.474321,-1.19202 3.474321,-3.40163 l 0,-6.64338 c 0,-0.29073 -0.174443,-0.50879 -0.639623,-0.50879 -0.465182,0 -0.639626,0.21806 -0.639626,0.50879 l 0,6.55616 z m 8.79483,0 c 0,1.55544 -0.988513,2.39858 -2.209614,2.39858 -1.221102,0 -2.209602,-0.8286 -2.209602,-2.39858 l 0,-3.64878 c 0,-1.55544 0.9885,-2.39858 2.209602,-2.39858 1.221101,0 2.209614,0.8286 2.209614,2.39858 z m -2.427659,6.57068 c -0.639631,0 -1.279249,-0.21806 -1.802586,-0.63963 -0.290735,-0.23259 -0.610544,-0.17444 -0.828602,0.10176 -0.218058,0.27619 -0.218058,0.59602 0.101764,0.82861 0.668691,0.53786 1.657205,0.81405 2.529424,0.81405 2.093307,0 3.692378,-1.2647 3.692378,-3.57607 l 0,-7.84993 c 0,-2.20961 -1.642675,-3.40164 -3.474333,-3.40164 -1.831646,0 -3.47432,1.19203 -3.47432,3.40164 l 0,3.83775 c 0,2.20961 1.59907,3.40163 3.299878,3.40163 1.032117,0 1.91888,-0.45065 2.398586,-1.09027 l 0,1.62813 c -0.01453,1.59906 -0.944896,2.54397 -2.442189,2.54397 z m 11.426,-6.57068 c 0,1.55544 -0.988498,2.39858 -2.209599,2.39858 -1.221101,0 -2.209615,-0.8286 -2.209615,-2.39858 l 0,-6.55616 c 0,-0.29073 -0.174441,-0.50879 -0.639631,-0.50879 -0.450633,0 -0.639617,0.21806 -0.639617,0.50879 l 0,6.64338 c 0,2.20961 1.642674,3.40163 3.47432,3.40163 1.831662,0 3.488862,-1.17749 3.488862,-3.40163 l 0,-6.64338 c 0,-0.29073 -0.17444,-0.50879 -0.63963,-0.50879 -0.45063,0 -0.63962,0.21806 -0.63962,0.50879 l 0,6.55616 z m 9.49261,-5.84385 c -0.59602,-0.88675 -1.75897,-1.30832 -2.79109,-1.30832 -1.86072,0 -3.40164,1.27925 -3.40164,3.2272 l 0,6.8178 c 0,0.29074 0.17446,0.5088 0.63963,0.5088 0.46518,0 0.63962,-0.21805 0.63962,-0.5088 l 0,-6.75965 c 0,-1.38101 1.03213,-2.18054 2.13692,-2.18054 0.785,0 1.33741,0.33435 1.74444,0.81407 0.20352,0.23259 0.45065,0.34888 0.78499,0.14537 0.33435,-0.21806 0.40704,-0.49427 0.24713,-0.75593 z"
       id="path5"
       sodipodi:nodetypes="cssssssccssssssccsscccsscsssssssssssccsssssssscccsssssssccscssssssssssscccsssssssccc"
       style="opacity:0.8;color:#000000;fill:#ffffff;fill-opacity:1;fill-rule:nonzero;stroke:none;stroke-width:1;marker:none;visibility:visible;display:inline;overflow:visible;enable-background:accumulate" />
    <g
       id="g3125"
       transform="matrix(0.47002283,0,0,0.47002283,258.78639,435.59044)"
       style="opacity:0.8">
      <path
         id="path3114"
         d="m 278.60476,883.11811 c -0.73652,-2.10434 -1.99913,-3.96318 -3.64754,-5.40115 l -0.63131,-0.52611 -0.0352,-0.0349 c -0.21044,-0.17537 -0.42088,-0.31566 -0.63133,-0.45596 l -0.035,-0.0352 c -0.21042,-0.14025 -0.42087,-0.28058 -0.66639,-0.42086 -0.0349,0 -0.0349,-0.0349 -0.0702,-0.0349 -0.21044,-0.14025 -0.45593,-0.24553 -0.66638,-0.35071 -0.035,0 -0.035,-0.0351 -0.0702,-0.0351 -0.21043,-0.10525 -0.45595,-0.21044 -0.70145,-0.31568 -0.0352,0 -0.0352,-0.0352 -0.0702,-0.0352 -0.21044,-0.0702 -0.42087,-0.17534 -0.6313,-0.24552 -0.56117,-0.21043 -1.15741,-0.38577 -1.75365,-0.49101 -0.45594,0.87683 -1.08726,1.64841 -1.78871,2.31481 1.08725,0.0702 2.13944,0.35071 3.0864,0.73654 0.56116,0.24548 1.12232,0.52606 1.61334,0.84172 0.035,0 0.0702,0.0352 0.0702,0.0352 0.14025,0.0702 0.24552,0.17534 0.38579,0.28057 0.0702,0.0349 0.10525,0.0702 0.17538,0.14026 0.10525,0.0702 0.2455,0.17535 0.35071,0.28058 0.0702,0.0702 0.14026,0.10525 0.21044,0.17535 0.10525,0.10524 0.21045,0.17536 0.31567,0.28057 l 0.21042,0.21043 0.28059,0.28062 0.21043,0.21041 c 0.0702,0.10525 0.17538,0.21044 0.24552,0.2806 0.0702,0.0702 0.14024,0.17533 0.21043,0.2455 l 0.21045,0.31565 c 0.0702,0.10525 0.14024,0.17533 0.17536,0.28057 l 0.21044,0.31568 c 0.0702,0.10525 0.10524,0.21042 0.17535,0.28057 0.0702,0.10525 0.10525,0.21043 0.17536,0.31563 0.0702,0.10525 0.10525,0.21044 0.17536,0.31568 0.0351,0.10525 0.10525,0.21042 0.14025,0.31565 0.0702,0.14025 0.10525,0.28058 0.17536,0.38579 0.28057,0.70145 0.49102,1.43798 0.59624,2.24466 l 0.31567,1.22754 c 0.14025,0.52607 1.40287,5.0154 4.34899,6.52351 3.36698,1.7536 7.82121,3.92812 9.57483,4.76987 l -23.11286,13.81859 0,-9.46957 c 0,-1.50813 2.98117,-3.26177 4.34899,-3.85802 l 0.0702,-0.0349 c 0.28059,-0.14026 0.56116,-0.28058 0.84175,-0.45595 l 0.10525,-0.0702 c 0.59622,-0.35072 1.15739,-0.77159 1.68347,-1.22756 0.0352,-0.0349 0.10525,-0.0702 0.14025,-0.14025 0.0702,-0.0349 0.10525,-0.10525 0.17538,-0.14026 0.17537,-0.14025 0.31565,-0.31562 0.49101,-0.45591 l 0.0702,-0.0702 c 0.17536,-0.17538 0.35072,-0.35075 0.49102,-0.56119 0.0349,-0.0702 0.10524,-0.10525 0.14024,-0.17534 0.14025,-0.14025 0.24553,-0.31567 0.38581,-0.49102 0.035,-0.035 0.0702,-0.10524 0.10525,-0.14025 l 0.42088,-0.63133 c 0,-0.0352 0.0352,-0.0352 0.0352,-0.0702 0.17537,-0.28057 0.35073,-0.59621 0.52608,-0.8768 -0.70144,-0.84177 -1.22751,-1.75365 -1.6484,-2.59537 -0.17535,0.52607 -0.42086,1.05217 -0.66638,1.50813 -0.10525,0.21043 -0.24551,0.42087 -0.35072,0.63129 -0.0352,0.0352 -0.0352,0.0702 -0.0702,0.0702 -0.10525,0.17536 -0.24551,0.35073 -0.35072,0.49101 -0.0352,0.0351 -0.0702,0.10525 -0.10525,0.14027 -0.10525,0.17537 -0.24551,0.31566 -0.38578,0.45595 -0.0352,0.0349 -0.0352,0.0702 -0.0702,0.0702 -0.84175,0.94699 -1.85885,1.75363 -3.01626,2.31482 l -0.21043,0.10525 c -0.59623,0.24553 -5.7519,2.59538 -5.7519,6.13772 l 0,9.46962 -23.14794,-13.78354 c 1.50811,-0.91191 5.85712,-3.50726 9.43453,-4.62961 1.4029,-0.45593 4.38407,1.43798 6.06757,2.80581 l 0.10525,0.10524 c 0.21044,0.21044 0.45594,0.42089 0.70146,0.59623 l 0.0702,0.0702 c 0.52609,0.42091 1.08725,0.84177 1.71856,1.15739 l 0.42086,0.21045 c 0.0352,0 0.0702,0.0351 0.0702,0.0351 0.38579,0.21044 0.77158,0.38582 1.19247,0.56116 0.0702,0.0349 0.10525,0.0349 0.17536,0.0702 0.0352,0 0.0702,0.0351 0.14025,0.0351 0.59624,0.21043 1.19246,0.38577 1.78871,0.52607 0.45594,-0.87684 1.12231,-1.64842 1.82377,-2.31481 -1.0171,-0.0702 -1.96406,-0.28057 -2.87596,-0.6313 -0.0351,-0.0349 -0.10525,-0.0349 -0.14025,-0.0702 -0.10525,-0.0349 -0.21045,-0.0702 -0.31565,-0.14027 -0.0352,-0.0349 -0.10525,-0.0349 -0.14027,-0.0702 -0.10525,-0.0349 -0.2104,-0.10525 -0.28057,-0.14025 -0.70144,-0.35071 -1.33275,-0.73655 -1.92899,-1.22755 l -0.91187,-0.84172 c -0.0352,-0.0352 -1.15742,-1.05217 -2.73567,-1.9641 -2.27973,-1.29768 -4.20872,-1.71855 -5.68178,-1.2626 -3.05132,0.98203 -6.52351,2.84087 -8.62787,4.06842 l 23.11285,-41.52597 0,18.20267 c 0,0.63132 -0.94694,2.31481 -4.13855,3.75277 l -0.21044,0.10525 c -0.31566,0.14025 -0.59622,0.31564 -0.91189,0.49103 l -0.0702,0.0349 c -0.59622,0.35073 -1.15739,0.7716 -1.71854,1.22755 -0.35074,0.28058 -0.66639,0.59625 -0.94697,0.91189 l -0.0352,0.0352 c -0.31564,0.31563 -0.59622,0.6313 -0.84173,0.98202 l -0.0352,0.0352 c -0.14026,0.17532 -0.24552,0.35072 -0.3858,0.52607 0,0.035 -0.0352,0.035 -0.0352,0.0702 -0.10524,0.17536 -0.21044,0.31565 -0.31566,0.49101 0,0.0349 -0.0352,0.0349 -0.0352,0.0702 l -0.31567,0.52607 c -0.0352,0.0352 -0.0352,0.0702 -0.0701,0.14026 -0.10525,0.17535 -0.17536,0.35071 -0.2455,0.49102 0,0.0349 -0.0352,0.0702 -0.0352,0.0702 -0.0702,0.17539 -0.14025,0.31566 -0.21044,0.49105 -0.0352,0.0702 -0.0352,0.10525 -0.0702,0.17535 l -0.21043,0.52608 c -0.0351,0.0702 -0.0351,0.10525 -0.0702,0.17535 -0.0349,0.1404 -0.0702,0.24554 -0.14025,0.38582 -0.0352,0.0702 -0.0352,0.14025 -0.0702,0.21044 -0.0352,0.17536 -0.10525,0.35071 -0.14026,0.49102 -0.0351,0.0702 -0.0351,0.17537 -0.0702,0.24551 -0.0351,0.10525 -0.0351,0.24549 -0.0702,0.35072 -0.0351,0.10525 -0.0351,0.21043 -0.0702,0.31567 -0.0351,0.14026 -0.0351,0.28058 -0.0701,0.42085 0,0.10525 -0.0352,0.17536 -0.0352,0.2806 0,0.14025 -0.0351,0.24548 -0.0351,0.38577 0,0.14025 0,0.24552 -0.0352,0.38583 l 0,0.52609 c 0,0.6313 0.0352,1.29767 0.14024,1.8939 0.91189,0.21043 1.85885,0.59624 2.87597,1.08725 -0.28057,-0.91189 -0.42088,-1.85884 -0.45596,-2.84087 l 0,-0.17538 c 0,-0.24549 0,-0.45592 0.0352,-0.70144 l 0,-0.17538 c 0,-0.21044 0.0352,-0.38577 0.0702,-0.59622 l 0,-0.0702 c 0.0352,-0.21042 0.0702,-0.42085 0.10525,-0.66639 0,-0.0702 0.0352,-0.10525 0.0352,-0.17537 0.0352,-0.17535 0.10524,-0.35072 0.14024,-0.52608 0,-0.035 0.0352,-0.0702 0.0352,-0.10525 l 0.21045,-0.63129 c 0.0352,-0.0349 0.0352,-0.10525 0.0702,-0.14025 0.0702,-0.17541 0.14025,-0.35075 0.21045,-0.49103 0.0352,-0.0351 0.0352,-0.0702 0.0702,-0.14025 0.10525,-0.21043 0.17536,-0.38581 0.31566,-0.56117 0.0351,-0.0352 0.0351,-0.0702 0.0702,-0.10524 0.10525,-0.17533 0.17537,-0.31564 0.28059,-0.49101 0.0351,-0.0349 0.0351,-0.0702 0.0702,-0.10525 0.10524,-0.17535 0.24549,-0.35071 0.3858,-0.52607 0,0 0,-0.0351 0.0351,-0.0351 0.14026,-0.17536 0.24551,-0.31563 0.38579,-0.491 0.0352,-0.0349 0.0352,-0.0702 0.0702,-0.10525 0.63132,-0.70147 1.33278,-1.29769 2.13945,-1.82379 l 1.08725,-0.52611 c 0.59623,-0.24548 5.71683,-2.66551 5.71683,-6.20782 l 0,-18.09749 23.32328,41.87671 c -2.06928,-1.01708 -5.75188,-2.84086 -8.59277,-4.31391 -1.64841,-0.84176 -2.73566,-3.82291 -3.05132,-4.91018 l -0.31566,-1.26261 c 0,-0.66637 -0.17536,-1.33276 -0.38581,-1.99916 z m 15.78269,13.18732 -25.70824,-46.12051 c -0.45594,-0.84174 -1.29768,-1.33276 -2.24465,-1.33276 -0.94695,0 -1.78869,0.49102 -2.24464,1.33276 l -25.70824,46.12051 c -0.66638,1.19248 -0.28058,2.73569 0.91189,3.43713 l 25.74332,15.39688 c 0.42085,0.24551 0.87681,0.35072 1.33275,0.35072 0.45593,0 0.91189,-0.10525 1.33275,-0.35072 l 25.70825,-15.36182 c 1.15739,-0.7365 1.57827,-2.27971 0.87681,-3.47219 z"
         class="st0"
         inkscape:connector-curvature="0"
         sodipodi:nodetypes="ccccccccccccccccccccccccccsccccccccccccccsccccccccccccccccccccccccccsccccccccccccccccccccccccccsccccccccccccccccccccccccccccsscscccscsccccccccccccccccccccsccccccccsccccsccc"
         style="color:#000000;fill:#ffffff;fill-opacity:1;fill-rule:nonzero;stroke-width:1;stroke-linecap:butt;stroke-linejoin:miter;stroke-miterlimit:4;stroke-opacity:1;stroke-dasharray:none;stroke-dashoffset:0;marker:none;visibility:visible;display:inline;overflow:visible;enable-background:accumulate" />
      <g
         transform="matrix(2.3742917,0,0,2.3742917,-108.37608,781.86782)"
         style="font-size:40px;font-style:normal;font-variant:normal;font-weight:normal;font-stretch:normal;line-height:125%;letter-spacing:0px;word-spacing:0px;fill:#ffffff;fill-opacity:1;stroke:none;font-family:Comfortaa;-inkscape-font-specification:Comfortaa"
         id="flowRoot3117">
        <path
           d="m 140.95703,27.984151 0.23438,0 c 0.88541,0.19534 1.32811,0.618517 1.32812,1.269531 l 0,25.390625 c -0.16928,0.937501 -0.63803,1.40625 -1.40625,1.40625 l -0.0781,0 c -0.93751,-0.195312 -1.40626,-0.611978 -1.40625,-1.25 l 0,-23.398437 c -1.32813,0.442732 -2.19402,0.664086 -2.59766,0.664062 -0.61198,2.4e-5 -1.02865,-0.449194 -1.25,-1.347656 l 0,-0.371094 c 0,-0.72914 0.98958,-1.295546 2.96875,-1.699218 l 2.20703,-0.664063"
           id="path3133"
           inkscape:connector-curvature="0" />
      </g>
    </g>
  </g>
</svg>
