<?xml version="1.0" encoding="UTF-8" standalone="no"?>
<!-- Created with Inkscape (http://www.inkscape.org/) -->

<svg
   xmlns:dc="http://purl.org/dc/elements/1.1/"
   xmlns:cc="http://creativecommons.org/ns#"
   xmlns:rdf="http://www.w3.org/1999/02/22-rdf-syntax-ns#"
   xmlns:svg="http://www.w3.org/2000/svg"
   xmlns="http://www.w3.org/2000/svg"
   xmlns:xlink="http://www.w3.org/1999/xlink"
   xmlns:sodipodi="http://sodipodi.sourceforge.net/DTD/sodipodi-0.dtd"
   xmlns:inkscape="http://www.inkscape.org/namespaces/inkscape"
   width="460.62991"
   height="283.46457"
   id="svg2"
   version="1.1"
   inkscape:version="0.48.5 r10040"
   sodipodi:docname="rhoc.svg"
   inkscape:export-filename="/home/mammique/Documents/daat/banknote/cryptos/dash.png"
   inkscape:export-xdpi="156.31"
   inkscape:export-ydpi="156.31">
  <defs
     id="defs4">
    <linearGradient
       id="linearGradient4925">
      <stop
         style="stop-color:#bd9800;stop-opacity:1;"
         offset="0"
         id="stop4927" />
      <stop
         id="stop3784"
         offset="0.51732481"
         style="stop-color:#ffcc04;stop-opacity:1;" />
      <stop
         offset="1"
         id="stop4929"
         style="stop-color:#a98500;stop-opacity:1;" />
    </linearGradient>
    <linearGradient
       id="linearGradient4835">
      <stop
         style="stop-color:#000000;stop-opacity:0.61572052"
         offset="0"
         id="stop4837" />
      <stop
         style="stop-color:#000000;stop-opacity:0;"
         offset="1"
         id="stop4839" />
    </linearGradient>
    <linearGradient
       inkscape:collect="always"
       id="linearGradient4531">
      <stop
         style="stop-color:#ffffff;stop-opacity:1;"
         offset="0"
         id="stop4533" />
      <stop
         style="stop-color:#ffffff;stop-opacity:0;"
         offset="1"
         id="stop4535" />
    </linearGradient>
    <clipPath
       clipPathUnits="userSpaceOnUse"
       id="clipPath5978">
      <rect
         style="color:#000000;fill:#cccccc;fill-opacity:1;fill-rule:nonzero;stroke:#003a00;stroke-width:0.89999998;stroke-linecap:butt;stroke-linejoin:miter;stroke-miterlimit:4;stroke-opacity:1;stroke-dasharray:none;stroke-dashoffset:0;marker:none;visibility:visible;display:inline;overflow:visible;enable-background:accumulate"
         id="rect5980"
         width="173.74623"
         height="1608.1628"
         x="610.13214"
         y="-378.01382"
         transform="matrix(0,-1,1,0,0,0)" />
    </clipPath>
    <inkscape:perspective
       id="perspective2497"
       inkscape:persp3d-origin="372.04724 : 350.78739 : 1"
       inkscape:vp_z="744.09448 : 526.18109 : 1"
       inkscape:vp_y="0 : 1000 : 0"
       inkscape:vp_x="0 : 526.18109 : 1"
       sodipodi:type="inkscape:persp3d" />
    <linearGradient
       inkscape:collect="always"
       xlink:href="#linearGradient4531"
       id="linearGradient4823"
       gradientUnits="userSpaceOnUse"
       x1="182.81697"
       y1="175.83376"
       x2="183.58928"
       y2="-16.309107"
       gradientTransform="translate(53.033008,825.69937)" />
    <radialGradient
       inkscape:collect="always"
       xlink:href="#linearGradient4835"
       id="radialGradient4845"
       cx="7.3256431"
       cy="198.2952"
       fx="7.3256431"
       fy="198.2952"
       r="109.27257"
       gradientTransform="matrix(0.19829552,0.15553474,-0.16582027,0.21140881,93.302602,945.5672)"
       gradientUnits="userSpaceOnUse" />
    <linearGradient
       id="linearGradient4925-6">
      <stop
         style="stop-color:#bd9800;stop-opacity:1;"
         offset="0"
         id="stop4927-7" />
      <stop
         id="stop3784-5"
         offset="0.5"
         style="stop-color:#ffcc04;stop-opacity:1;" />
      <stop
         offset="1"
         id="stop4929-3"
         style="stop-color:#a98500;stop-opacity:1;" />
    </linearGradient>
    <linearGradient
       gradientTransform="translate(-17.649337,-11.359598)"
       y2="38.317909"
       x2="313.61914"
       y1="142.8687"
       x1="50.479298"
       gradientUnits="userSpaceOnUse"
       id="linearGradient3802"
       xlink:href="#linearGradient4925-6"
       inkscape:collect="always" />
    <linearGradient
       id="linearGradient4925-2">
      <stop
         style="stop-color:#bd9800;stop-opacity:1;"
         offset="0"
         id="stop4927-3" />
      <stop
         id="stop3784-7"
         offset="0.38554054"
         style="stop-color:#ffcc04;stop-opacity:1;" />
      <stop
         offset="1"
         id="stop4929-5"
         style="stop-color:#a98500;stop-opacity:1;" />
    </linearGradient>
    <linearGradient
       y2="38.317909"
       x2="313.61914"
       y1="83.269699"
       x1="19.16457"
       gradientTransform="translate(-17.649337,-11.359581)"
       gradientUnits="userSpaceOnUse"
       id="linearGradient4077"
       xlink:href="#linearGradient4925-2"
       inkscape:collect="always" />
    <linearGradient
       id="linearGradient4925-28">
      <stop
         style="stop-color:#bd9800;stop-opacity:1;"
         offset="0"
         id="stop4927-9" />
      <stop
         id="stop3784-73"
         offset="0.51732481"
         style="stop-color:#ffcc04;stop-opacity:1;" />
      <stop
         offset="1"
         id="stop4929-6"
         style="stop-color:#a98500;stop-opacity:1;" />
    </linearGradient>
    <linearGradient
       y2="19.746481"
       x2="180.76199"
       y1="166.12685"
       x1="180.59314"
       gradientTransform="translate(-17.649337,-11.359581)"
       gradientUnits="userSpaceOnUse"
       id="linearGradient4113"
       xlink:href="#linearGradient4925-28"
       inkscape:collect="always" />
    <linearGradient
       id="linearGradient4925-7">
      <stop
         style="stop-color:#bd9800;stop-opacity:1;"
         offset="0"
         id="stop4927-5" />
      <stop
         id="stop3784-3"
         offset="0.51732481"
         style="stop-color:#ffcc04;stop-opacity:1;" />
      <stop
         offset="1"
         id="stop4929-56"
         style="stop-color:#a98500;stop-opacity:1;" />
    </linearGradient>
    <linearGradient
       y2="19.746481"
       x2="180.76199"
       y1="166.12685"
       x1="180.59314"
       gradientTransform="translate(-17.649337,-11.359581)"
       gradientUnits="userSpaceOnUse"
       id="linearGradient3327"
       xlink:href="#linearGradient4925-7"
       inkscape:collect="always" />
    <linearGradient
       id="linearGradient4925-7-1">
      <stop
         style="stop-color:#bd9800;stop-opacity:1;"
         offset="0"
         id="stop4927-5-2" />
      <stop
         id="stop3784-3-7"
         offset="0.51732481"
         style="stop-color:#ffcc04;stop-opacity:1;" />
      <stop
         offset="1"
         id="stop4929-56-0"
         style="stop-color:#a98500;stop-opacity:1;" />
    </linearGradient>
    <linearGradient
       y2="19.032196"
       x2="138.61914"
       y1="166.12685"
       x1="180.59314"
       gradientTransform="translate(-17.649337,-7.9568844)"
       gradientUnits="userSpaceOnUse"
       id="linearGradient3455"
       xlink:href="#linearGradient4925-7-1"
       inkscape:collect="always" />
    <linearGradient
       inkscape:collect="always"
       xlink:href="#linearGradient4925-7-6"
       id="linearGradient3350-3"
       gradientUnits="userSpaceOnUse"
       gradientTransform="translate(54.548237,823.78353)"
       x1="180.59314"
       y1="166.12685"
       x2="138.61914"
       y2="19.032196" />
    <linearGradient
       id="linearGradient4925-7-6">
      <stop
         style="stop-color:#bd9800;stop-opacity:1;"
         offset="0"
         id="stop4927-5-0" />
      <stop
         id="stop3784-3-6"
         offset="0.51732481"
         style="stop-color:#ffcc04;stop-opacity:1;" />
      <stop
         offset="1"
         id="stop4929-56-2"
         style="stop-color:#a98500;stop-opacity:1;" />
    </linearGradient>
    <linearGradient
       y2="19.032196"
       x2="138.61914"
       y1="166.12685"
       x1="180.59314"
       gradientTransform="translate(-17.649337,-7.9568844)"
       gradientUnits="userSpaceOnUse"
       id="linearGradient3491"
       xlink:href="#linearGradient4925-7-6"
       inkscape:collect="always" />
    <linearGradient
       id="linearGradient4835-7">
      <stop
         style="stop-color:#000000;stop-opacity:0.61572052"
         offset="0"
         id="stop4837-5" />
      <stop
         style="stop-color:#000000;stop-opacity:0;"
         offset="1"
         id="stop4839-9" />
    </linearGradient>
    <radialGradient
       r="109.27257"
       fy="198.2952"
       fx="7.3256431"
       cy="198.2952"
       cx="7.3256431"
       gradientTransform="matrix(0.19829552,0.15553474,-0.16582027,0.21140881,132.487,52.51516)"
       gradientUnits="userSpaceOnUse"
       id="radialGradient3545"
       xlink:href="#linearGradient4835-7"
       inkscape:collect="always" />
    <linearGradient
       id="linearGradient4835-8">
      <stop
         style="stop-color:#000000;stop-opacity:0.61572052"
         offset="0"
         id="stop4837-9" />
      <stop
         style="stop-color:#000000;stop-opacity:0;"
         offset="1"
         id="stop4839-7" />
    </linearGradient>
    <radialGradient
       r="109.27257"
       fy="198.2952"
       fx="7.3256431"
       cy="198.2952"
       cx="7.3256431"
       gradientTransform="matrix(0.19829552,0.15553474,-0.16582027,0.21140881,132.487,52.51516)"
       gradientUnits="userSpaceOnUse"
       id="radialGradient3578"
       xlink:href="#linearGradient4835-8"
       inkscape:collect="always" />
    <linearGradient
       inkscape:collect="always"
       xlink:href="#linearGradient4925-7-6-1"
       id="linearGradient3350-3-6"
       gradientUnits="userSpaceOnUse"
       gradientTransform="translate(54.548237,823.78353)"
       x1="180.59314"
       y1="166.12685"
       x2="138.61914"
       y2="19.032196" />
    <linearGradient
       id="linearGradient4925-7-6-1">
      <stop
         style="stop-color:#bd9800;stop-opacity:1;"
         offset="0"
         id="stop4927-5-0-2" />
      <stop
         id="stop3784-3-6-9"
         offset="0.51732481"
         style="stop-color:#ffcc04;stop-opacity:1;" />
      <stop
         offset="1"
         id="stop4929-56-2-3"
         style="stop-color:#a98500;stop-opacity:1;" />
    </linearGradient>
    <linearGradient
       y2="19.032196"
       x2="138.61914"
       y1="166.12685"
       x1="180.59314"
       gradientTransform="translate(-17.649337,-14.676051)"
       gradientUnits="userSpaceOnUse"
       id="linearGradient3612"
       xlink:href="#linearGradient4925-7-6-1"
       inkscape:collect="always" />
    <clipPath
       id="clipPath3128"
       clipPathUnits="userSpaceOnUse">
      <path
         id="path3130"
         d="m 54,787 1074.5,0 0,-732.996 L 54,54.004 54,787 z" />
    </clipPath>
    <clipPath
       id="clipPath3118"
       clipPathUnits="userSpaceOnUse">
      <path
         id="path3120"
         d="m 54,787 1082.004,0 0,-732.996 L 54,54.004 54,787 z" />
    </clipPath>
  </defs>
  <sodipodi:namedview
     id="base"
     pagecolor="#5271a5"
     bordercolor="#666666"
     borderopacity="1.0"
     inkscape:pageopacity="1"
     inkscape:pageshadow="2"
     inkscape:zoom="3.959798"
     inkscape:cx="229.32815"
     inkscape:cy="161.67487"
     inkscape:document-units="px"
     inkscape:current-layer="layer1"
     showgrid="false"
     units="mm"
     inkscape:window-width="1918"
     inkscape:window-height="1059"
     inkscape:window-x="1366"
     inkscape:window-y="19"
     inkscape:window-maximized="1"
     showguides="true"
     inkscape:guide-bbox="true" />
  <metadata
     id="metadata7">
    <rdf:RDF>
      <cc:Work
         rdf:about="">
        <dc:format>image/svg+xml</dc:format>
        <dc:type
           rdf:resource="http://purl.org/dc/dcmitype/StillImage" />
        <dc:title></dc:title>
      </cc:Work>
    </rdf:RDF>
  </metadata>
  <g
     inkscape:label="Calque 1"
     inkscape:groupmode="layer"
     id="layer1"
     transform="translate(0,-768.89763)">
    <path
       style="fill:#cc1e46;fill-opacity:1;fill-rule:nonzero;stroke:none"
       d="m 136.19069,880.48128 c -1.04058,-8e-4 -2.0815,0.051 -3.117,0.157 -5.93492,0.6003 -11.67557,2.9782 -16.28719,6.7621 -3.08966,2.5326 -5.69653,5.6605 -7.58556,9.1826 -2.62296,4.837 -3.90082,10.3917 -3.6522,15.8875 0.27807,7.0076 3.07052,13.8894 7.76538,19.1031 2.80445,3.1506 6.23298,5.6844 10.06746,7.4414 5.14037,2.377 10.9481,3.2763 16.56835,2.5761 6.10527,-0.7433 11.96939,-3.3835 16.56407,-7.4742 3.14588,-2.7833 5.71833,-6.215 7.48137,-10.029 2.42356,-5.1724 3.33993,-11.0323 2.63033,-16.6996 -0.74123,-6.1064 -3.38486,-11.9708 -7.4771,-16.5655 -2.41288,-2.7206 -5.30243,-5.0207 -8.51609,-6.7235 -4.41737,-2.3772 -9.42813,-3.6138 -14.44182,-3.618 z m 3.15839,13.4856 c 0.35677,0 0.69386,0.2476 0.68077,0.6394 0.0395,1.0726 0.0128,2.1491 0.0128,3.2226 0.0263,0.3327 -0.14973,0.7656 -0.53376,0.775 -3.53723,0.3913 -6.89959,1.838 -9.82199,3.8363 -0.27584,0.1554 -0.21408,0.5141 -0.19267,0.7764 0.20534,1.8834 0.0663,3.7798 0.12274,5.6688 9.53483,0.026 19.07245,0 28.61105,0.014 0.45311,-0.039 0.93361,0.2205 0.89771,0.7307 0.0469,3.2099 0.009,6.4218 0.0186,9.6336 0.007,1.7461 -0.36439,3.552 -1.42006,4.9781 -1.66714,2.2427 -4.59855,3.5881 -7.38718,3.0913 -1.9733,-0.2955 -3.68057,-1.5201 -4.87674,-3.0742 -3.23466,2.4372 -7.16162,3.9337 -11.20351,4.2459 -0.4112,0.01 -0.72073,-0.3986 -0.65651,-0.7935 0.0132,-1.1235 -0.0241,-2.2509 0.0171,-3.3739 0.0961,-0.5963 0.82983,-0.4798 1.2645,-0.5794 3.34364,-0.5212 6.54137,-1.9222 9.27108,-3.9091 -0.15255,-2.0864 -0.18063,-4.1788 -0.14985,-6.2711 -9.56806,-0.061 -19.14016,-0.01 -28.70953,-0.031 -0.42348,0.047 -0.82726,-0.2673 -0.78781,-0.7151 -0.007,-3.3822 -0.007,-6.7633 0.003,-10.1445 0.0208,-1.7686 0.57801,-3.5559 1.74832,-4.9053 1.5432,-1.7557 3.87096,-2.8793 6.23257,-2.7402 2.26365,0.09 4.33691,1.3774 5.68025,3.1613 3.19139,-2.3935 7.04865,-3.8968 11.02654,-4.2217 0.0508,-0.01 0.10174,-0.014 0.15271,-0.014 z m -17.64303,5.9786 c -1.74763,0.028 -3.30007,1.5742 -3.34393,3.3239 -0.004,1.9822 -0.007,3.9653 0.004,5.95 2.3647,0 4.72655,0.032 7.09033,-0.02 0.004,-1.9323 0.0283,-3.8652 -0.0114,-5.7973 -0.0359,-1.8531 -1.71046,-3.4897 -3.56942,-3.4538 -0.0567,0 -0.11346,0 -0.16983,0 z m 30.31084,13.4627 c -1.18085,6e-4 -2.36153,0 -3.54231,0.01 -0.017,1.8852 -0.004,3.7697 -0.0114,5.6532 -0.0118,0.7528 0.21774,1.4897 0.65367,2.1037 0.90695,1.2983 2.71647,1.865 4.19738,1.293 1.36589,-0.5062 2.26726,-1.9387 2.25212,-3.3782 0,-1.8892 0.0116,-3.7784 -0.007,-5.6674 -1.18077,-0.01 -2.36145,-0.011 -3.5423,-0.01 z"
       id="path3132"
       inkscape:connector-curvature="0" />
    <g
       id="g3206"
       transform="matrix(0.09744923,0,0,0.09744923,65.574649,760.29273)">
      <path
         sodipodi:nodetypes="cscccssscssscccccsscsscccccss"
         inkscape:connector-curvature="0"
         id="path3202"
         d="m 27.799936,855.35768 c -0.26359,-0.6875 -0.36196,-21.95 -0.21862,-47.25 l 0.26063,-46 24.499999,0 24.5,0 5.31885,2.9464 c 9.04144,5.00855 14.63826,13.07493 15.77083,22.72959 0.78157,6.66257 -0.68371,12.2424 -4.85327,18.48135 -2.75656,4.12466 -10.14677,10.31278 -13.75086,11.51414 -0.58375,0.19459 3.26216,8.36408 8.54647,18.15444 7.75395,14.36591 9.37776,18.07787 8.41546,19.23736 -0.86298,1.03983 -3.50761,1.43672 -9.5734,1.43672 l -8.38104,0 -9.23397,-18.5 -9.23397,-18.5 -7.26255,0 -7.262549,0 0,17.3 c 0,12.12222 -0.35915,17.65915 -1.2,18.5 -1.66279,1.66279 -15.70181,1.61984 -16.34201,-0.05 z M 75.206635,801.2402 c 6.0874,-5.83798 6.52409,-12.92501 1.16624,-18.92674 l -2.86186,-3.20578 -14.08453,-0.32558 -14.084539,-0.32559 0,13.15307 0,13.15306 13.437349,-0.32748 c 13.23549,-0.32256 13.48227,-0.37056 16.42734,-3.19496 z"
         style="opacity:0.6;fill:#ffffff" />
      <path
         style="opacity:0.8;fill:#ffffff"
         d="m 160.04043,856.51215 c -20.31383,-4.78053 -36.69848,-25.70905 -36.69848,-46.87587 0,-16.94347 8.7548,-32.88748 23.12006,-42.10564 14.9903,-9.61925 36.80064,-9.59932 51.8337,0.0474 9.53123,6.11617 9.65066,7.16901 1.69251,14.91983 l -4.5076,4.39016 -4.79972,-3.1792 c -16.93892,-11.21987 -36.62645,-5.86535 -44.88501,12.20763 -2.3259,5.08997 -2.61095,6.82233 -2.30362,14 0.533,12.448 5.75387,20.91371 16.34968,26.51121 4.1849,2.21078 6.30416,2.64453 13,2.66071 7.38942,0.0179 8.5178,-0.26688 14.78442,-3.73067 3.73144,-2.0625 7.38236,-3.75 8.11316,-3.75 1.45748,0 10.60242,9.35055 10.60242,10.8408 0,1.45064 -7.50591,7.86681 -11.70494,10.00558 -9.40503,4.79042 -24.14024,6.51882 -34.59658,4.05809 z m 396.05152,-29.4227 -27.75,-30.57238 -0.0153,28.79531 c -0.008,15.83741 -0.385,29.37805 -0.83683,30.0903 -0.58711,0.92549 -3.07943,1.21083 -8.73469,1 l -7.91318,-0.295 -0.26219,-47 c -0.24154,-43.29726 -0.12801,-47.09848 1.44113,-48.25 0.93682,-0.6875 2.24316,-1.25 2.90297,-1.25 0.65981,0 13.7363,13.34713 29.05887,29.66028 l 27.85922,29.66029 0.5,-28.41029 0.5,-28.41028 8.5,0 8.5,0 0,47.5 0,47.5 -3,0.27707 c -2.7718,0.25599 -5.11089,-2.04851 -30.75,-30.2953 z m -319.60514,28.19278 c -0.85816,-1.03402 -1.09666,-13.49567 -0.90504,-47.28928 l 0.26018,-45.88527 8.5,0 8.5,0 0.27207,18.75 0.27206,18.75 21.95587,0 21.95587,0 0.27206,-18.75 0.27207,-18.75 8.5,0 8.5,0 0,47 0,47 -8.5,0 -8.5,0 -0.27114,-19.75 -0.27114,-19.75 -21.95772,0 -21.95772,0 -0.27114,19.75 -0.27114,19.75 -7.59496,0.28927 c -5.58136,0.21258 -7.90389,-0.083 -8.76018,-1.11472 z m 104.03167,0.0382 c -0.88314,-1.06411 3.59716,-11.60464 20.28092,-47.71368 11.77796,-25.49131 22.07962,-46.72007 22.89257,-47.17503 0.81295,-0.45495 2.12257,-0.57987 2.91027,-0.2776 1.93001,0.74061 44.07248,93.14404 43.34493,95.04001 -0.4582,1.19404 -2.23762,1.43648 -8.83945,1.2043 l -8.26577,-0.29075 -3.93144,-8.25 -3.93145,-8.25 -20.06855,0.0273 -20.06856,0.0272 -4,8.22275 -4,8.22275 -7.59496,0.28927 c -5.48741,0.20901 -7.90951,-0.0897 -8.72851,-1.07657 z m 56.82584,-32.46275 c 0.003,-0.86398 -12.33166,-28.27718 -12.5804,-27.95998 -0.19471,0.24829 -11.42154,25.63947 -12.14156,27.45998 -0.37971,0.96004 2.43001,1.25 12.1126,1.25 6.93385,0 12.60805,-0.3375 12.60936,-0.75 z m 58.19763,32.55 c -1.7271,-1.7271 -1.7271,-90.8729 0,-92.6 0.72535,-0.72535 4.24289,-1.2 8.89301,-1.2 6.09253,0 7.81929,0.32908 8.3,1.58179 0.33385,0.86998 0.60699,21.70498 0.60699,46.3 0,33.4475 -0.30245,45.02066 -1.2,45.91821 -0.70798,0.70798 -4.11111,1.2 -8.3,1.2 -4.18889,0 -7.59202,-0.49202 -8.3,-1.2 z"
         id="path3204"
         inkscape:connector-curvature="0"
         sodipodi:nodetypes="csssscsssssssssccsccsscsssscccccccsscscccccccccccccccccccccsccssssscccccccsccccsscssssssss" />
    </g>
    <g
       id="g3241"
       transform="matrix(0.79786801,0,0,0.79786801,151.71212,142.13655)">
      <path
         sodipodi:nodetypes="ccccccccccccccccccccccccccccccccccccccccccccc"
         style="opacity:0.8;fill:#ffffff;fill-opacity:1;fill-rule:nonzero;stroke:none"
         d="m 288.02425,867.53588 c 0.35677,0 0.69386,0.2476 0.68077,0.6394 0.0395,1.0726 0.0128,2.1491 0.0128,3.2226 0.0263,0.3327 -0.14973,0.7656 -0.53376,0.775 -3.53723,0.3913 -6.89959,1.838 -9.82199,3.8363 -0.27584,0.1554 -0.21408,0.5141 -0.19267,0.7764 0.20534,1.8834 0.0663,3.7798 0.12274,5.6688 9.53483,0.026 19.07245,0 28.61105,0.014 0.45311,-0.039 0.93361,0.2205 0.89771,0.7307 0.0469,3.2099 0.009,6.4218 0.0186,9.6336 0.007,1.7461 -0.36439,3.552 -1.42006,4.9781 -1.66714,2.2427 -4.59855,3.5881 -7.38718,3.0913 -1.9733,-0.2955 -3.68057,-1.5201 -4.87674,-3.0742 -3.23466,2.4372 -7.16162,3.9337 -11.20351,4.2459 -0.4112,0.01 -0.72073,-0.3986 -0.65651,-0.7935 0.0132,-1.1235 -0.0241,-2.2509 0.0171,-3.3739 0.0961,-0.5963 0.82983,-0.4798 1.2645,-0.5794 3.34364,-0.5212 6.54137,-1.9222 9.27108,-3.9091 -0.15255,-2.0864 -0.18063,-4.1788 -0.14985,-6.2711 -9.56806,-0.061 -19.14016,-0.01 -28.70953,-0.031 -0.42348,0.047 -0.82726,-0.2673 -0.78781,-0.7151 -0.007,-3.3822 -0.007,-6.7633 0.003,-10.1445 0.0208,-1.7686 0.57801,-3.5559 1.74832,-4.9053 1.5432,-1.7557 3.87096,-2.8793 6.23257,-2.7402 2.26365,0.09 4.33691,1.3774 5.68025,3.1613 3.19139,-2.3935 7.04865,-3.8968 11.02654,-4.2217 0.0508,-0.01 0.10174,-0.014 0.15271,-0.014 z m -17.64303,5.9786 c -1.74763,0.028 -3.30007,1.5742 -3.34393,3.3239 -0.004,1.9822 -0.007,3.9653 0.004,5.95 2.3647,0 4.72655,0.032 7.09033,-0.02 0.004,-1.9323 0.0283,-3.8652 -0.0114,-5.7973 -0.0359,-1.8531 -1.71046,-3.4897 -3.56942,-3.4538 -0.0567,0 -0.11346,0 -0.16983,0 z m 30.31084,13.4627 c -1.18085,6e-4 -2.36153,0 -3.54231,0.01 -0.017,1.8852 -0.004,3.7697 -0.0114,5.6532 -0.0118,0.7528 0.21774,1.4897 0.65367,2.1037 0.90695,1.2983 2.71647,1.865 4.19738,1.293 1.36589,-0.5062 2.26726,-1.9387 2.25212,-3.3782 0,-1.8892 0.0116,-3.7784 -0.007,-5.6674 -1.18077,-0.01 -2.36145,-0.011 -3.5423,-0.01 z"
         id="path3229"
         inkscape:connector-curvature="0" />
      <g
         transform="matrix(1.1844244,0,0,1.1844244,55.805904,784.11861)"
         style="font-size:40px;font-style:normal;font-variant:normal;font-weight:bold;font-stretch:normal;line-height:125%;letter-spacing:0px;word-spacing:0px;opacity:0.8;fill:#ffffff;fill-opacity:1;stroke:none;font-family:Sans;-inkscape-font-specification:Sans Bold"
         id="flowRoot3233">
        <path
           d="m 154.9375,94.393404 6.64062,0 0,-18.847656 -6.8164,1.40625 0,-5.117188 6.77734,-1.40625 7.14844,0 0,23.964844 6.64062,0 0,5.195312 -20.39062,0 0,-5.195312"
           style=""
           id="path3249" />
      </g>
    </g>
  </g>
</svg>
