<?xml version="1.0" encoding="UTF-8" standalone="no"?>
<!-- Created with Inkscape (http://www.inkscape.org/) -->

<svg
   xmlns:dc="http://purl.org/dc/elements/1.1/"
   xmlns:cc="http://creativecommons.org/ns#"
   xmlns:rdf="http://www.w3.org/1999/02/22-rdf-syntax-ns#"
   xmlns:svg="http://www.w3.org/2000/svg"
   xmlns="http://www.w3.org/2000/svg"
   xmlns:xlink="http://www.w3.org/1999/xlink"
   xmlns:sodipodi="http://sodipodi.sourceforge.net/DTD/sodipodi-0.dtd"
   xmlns:inkscape="http://www.inkscape.org/namespaces/inkscape"
   width="460.62991"
   height="283.46457"
   id="svg2"
   version="1.1"
   inkscape:version="0.48.5 r10040"
   sodipodi:docname="banknote_bg_template.svg"
   inkscape:export-filename="/home/mammique/Documents/daat/banknote/cryptos/dash.png"
   inkscape:export-xdpi="156.31"
   inkscape:export-ydpi="156.31">
  <defs
     id="defs4">
    <linearGradient
       id="linearGradient4925">
      <stop
         style="stop-color:#bd9800;stop-opacity:1;"
         offset="0"
         id="stop4927" />
      <stop
         id="stop3784"
         offset="0.51732481"
         style="stop-color:#ffcc04;stop-opacity:1;" />
      <stop
         offset="1"
         id="stop4929"
         style="stop-color:#a98500;stop-opacity:1;" />
    </linearGradient>
    <linearGradient
       id="linearGradient4835">
      <stop
         style="stop-color:#000000;stop-opacity:0.61572052"
         offset="0"
         id="stop4837" />
      <stop
         style="stop-color:#000000;stop-opacity:0;"
         offset="1"
         id="stop4839" />
    </linearGradient>
    <linearGradient
       inkscape:collect="always"
       id="linearGradient4531">
      <stop
         style="stop-color:#ffffff;stop-opacity:1;"
         offset="0"
         id="stop4533" />
      <stop
         style="stop-color:#ffffff;stop-opacity:0;"
         offset="1"
         id="stop4535" />
    </linearGradient>
    <clipPath
       clipPathUnits="userSpaceOnUse"
       id="clipPath5978">
      <rect
         style="color:#000000;fill:#cccccc;fill-opacity:1;fill-rule:nonzero;stroke:#003a00;stroke-width:0.89999998;stroke-linecap:butt;stroke-linejoin:miter;stroke-miterlimit:4;stroke-opacity:1;stroke-dasharray:none;stroke-dashoffset:0;marker:none;visibility:visible;display:inline;overflow:visible;enable-background:accumulate"
         id="rect5980"
         width="173.74623"
         height="1608.1628"
         x="610.13214"
         y="-378.01382"
         transform="matrix(0,-1,1,0,0,0)" />
    </clipPath>
    <inkscape:perspective
       id="perspective2497"
       inkscape:persp3d-origin="372.04724 : 350.78739 : 1"
       inkscape:vp_z="744.09448 : 526.18109 : 1"
       inkscape:vp_y="0 : 1000 : 0"
       inkscape:vp_x="0 : 526.18109 : 1"
       sodipodi:type="inkscape:persp3d" />
    <linearGradient
       inkscape:collect="always"
       xlink:href="#linearGradient4531"
       id="linearGradient4823"
       gradientUnits="userSpaceOnUse"
       x1="182.81697"
       y1="175.83376"
       x2="183.58928"
       y2="-16.309107"
       gradientTransform="translate(53.033008,825.69937)" />
    <radialGradient
       inkscape:collect="always"
       xlink:href="#linearGradient4835"
       id="radialGradient4845"
       cx="7.3256431"
       cy="198.2952"
       fx="7.3256431"
       fy="198.2952"
       r="109.27257"
       gradientTransform="matrix(0.19829552,0.15553474,-0.16582027,0.21140881,93.302602,945.5672)"
       gradientUnits="userSpaceOnUse" />
    <linearGradient
       id="linearGradient4925-6">
      <stop
         style="stop-color:#bd9800;stop-opacity:1;"
         offset="0"
         id="stop4927-7" />
      <stop
         id="stop3784-5"
         offset="0.5"
         style="stop-color:#ffcc04;stop-opacity:1;" />
      <stop
         offset="1"
         id="stop4929-3"
         style="stop-color:#a98500;stop-opacity:1;" />
    </linearGradient>
    <linearGradient
       gradientTransform="translate(-17.649337,-11.359598)"
       y2="38.317909"
       x2="313.61914"
       y1="142.8687"
       x1="50.479298"
       gradientUnits="userSpaceOnUse"
       id="linearGradient3802"
       xlink:href="#linearGradient4925-6"
       inkscape:collect="always" />
    <linearGradient
       id="linearGradient4925-2">
      <stop
         style="stop-color:#bd9800;stop-opacity:1;"
         offset="0"
         id="stop4927-3" />
      <stop
         id="stop3784-7"
         offset="0.38554054"
         style="stop-color:#ffcc04;stop-opacity:1;" />
      <stop
         offset="1"
         id="stop4929-5"
         style="stop-color:#a98500;stop-opacity:1;" />
    </linearGradient>
    <linearGradient
       y2="38.317909"
       x2="313.61914"
       y1="83.269699"
       x1="19.16457"
       gradientTransform="translate(-17.649337,-11.359581)"
       gradientUnits="userSpaceOnUse"
       id="linearGradient4077"
       xlink:href="#linearGradient4925-2"
       inkscape:collect="always" />
    <linearGradient
       id="linearGradient4925-28">
      <stop
         style="stop-color:#bd9800;stop-opacity:1;"
         offset="0"
         id="stop4927-9" />
      <stop
         id="stop3784-73"
         offset="0.51732481"
         style="stop-color:#ffcc04;stop-opacity:1;" />
      <stop
         offset="1"
         id="stop4929-6"
         style="stop-color:#a98500;stop-opacity:1;" />
    </linearGradient>
    <linearGradient
       y2="19.746481"
       x2="180.76199"
       y1="166.12685"
       x1="180.59314"
       gradientTransform="translate(-17.649337,-11.359581)"
       gradientUnits="userSpaceOnUse"
       id="linearGradient4113"
       xlink:href="#linearGradient4925-28"
       inkscape:collect="always" />
    <linearGradient
       id="linearGradient4925-7">
      <stop
         style="stop-color:#bd9800;stop-opacity:1;"
         offset="0"
         id="stop4927-5" />
      <stop
         id="stop3784-3"
         offset="0.51732481"
         style="stop-color:#ffcc04;stop-opacity:1;" />
      <stop
         offset="1"
         id="stop4929-56"
         style="stop-color:#a98500;stop-opacity:1;" />
    </linearGradient>
    <linearGradient
       y2="19.746481"
       x2="180.76199"
       y1="166.12685"
       x1="180.59314"
       gradientTransform="translate(-17.649337,-11.359581)"
       gradientUnits="userSpaceOnUse"
       id="linearGradient3327"
       xlink:href="#linearGradient4925-7"
       inkscape:collect="always" />
    <linearGradient
       id="linearGradient4925-7-1">
      <stop
         style="stop-color:#bd9800;stop-opacity:1;"
         offset="0"
         id="stop4927-5-2" />
      <stop
         id="stop3784-3-7"
         offset="0.51732481"
         style="stop-color:#ffcc04;stop-opacity:1;" />
      <stop
         offset="1"
         id="stop4929-56-0"
         style="stop-color:#a98500;stop-opacity:1;" />
    </linearGradient>
    <linearGradient
       y2="19.032196"
       x2="138.61914"
       y1="166.12685"
       x1="180.59314"
       gradientTransform="translate(-17.649337,-7.9568844)"
       gradientUnits="userSpaceOnUse"
       id="linearGradient3455"
       xlink:href="#linearGradient4925-7-1"
       inkscape:collect="always" />
    <linearGradient
       inkscape:collect="always"
       xlink:href="#linearGradient4925-7-6"
       id="linearGradient3350-3"
       gradientUnits="userSpaceOnUse"
       gradientTransform="translate(54.548237,823.78353)"
       x1="180.59314"
       y1="166.12685"
       x2="138.61914"
       y2="19.032196" />
    <linearGradient
       id="linearGradient4925-7-6">
      <stop
         style="stop-color:#bd9800;stop-opacity:1;"
         offset="0"
         id="stop4927-5-0" />
      <stop
         id="stop3784-3-6"
         offset="0.51732481"
         style="stop-color:#ffcc04;stop-opacity:1;" />
      <stop
         offset="1"
         id="stop4929-56-2"
         style="stop-color:#a98500;stop-opacity:1;" />
    </linearGradient>
    <linearGradient
       y2="19.032196"
       x2="138.61914"
       y1="166.12685"
       x1="180.59314"
       gradientTransform="translate(-17.649337,-7.9568844)"
       gradientUnits="userSpaceOnUse"
       id="linearGradient3491"
       xlink:href="#linearGradient4925-7-6"
       inkscape:collect="always" />
    <linearGradient
       id="linearGradient4835-7">
      <stop
         style="stop-color:#000000;stop-opacity:0.61572052"
         offset="0"
         id="stop4837-5" />
      <stop
         style="stop-color:#000000;stop-opacity:0;"
         offset="1"
         id="stop4839-9" />
    </linearGradient>
    <radialGradient
       r="109.27257"
       fy="198.2952"
       fx="7.3256431"
       cy="198.2952"
       cx="7.3256431"
       gradientTransform="matrix(0.19829552,0.15553474,-0.16582027,0.21140881,132.487,52.51516)"
       gradientUnits="userSpaceOnUse"
       id="radialGradient3545"
       xlink:href="#linearGradient4835-7"
       inkscape:collect="always" />
    <linearGradient
       id="linearGradient4835-8">
      <stop
         style="stop-color:#000000;stop-opacity:0.61572052"
         offset="0"
         id="stop4837-9" />
      <stop
         style="stop-color:#000000;stop-opacity:0;"
         offset="1"
         id="stop4839-7" />
    </linearGradient>
    <radialGradient
       r="109.27257"
       fy="198.2952"
       fx="7.3256431"
       cy="198.2952"
       cx="7.3256431"
       gradientTransform="matrix(0.19829552,0.15553474,-0.16582027,0.21140881,132.487,52.51516)"
       gradientUnits="userSpaceOnUse"
       id="radialGradient3578"
       xlink:href="#linearGradient4835-8"
       inkscape:collect="always" />
    <linearGradient
       inkscape:collect="always"
       xlink:href="#linearGradient4925-7-6-1"
       id="linearGradient3350-3-6"
       gradientUnits="userSpaceOnUse"
       gradientTransform="translate(54.548237,823.78353)"
       x1="180.59314"
       y1="166.12685"
       x2="138.61914"
       y2="19.032196" />
    <linearGradient
       id="linearGradient4925-7-6-1">
      <stop
         style="stop-color:#bd9800;stop-opacity:1;"
         offset="0"
         id="stop4927-5-0-2" />
      <stop
         id="stop3784-3-6-9"
         offset="0.51732481"
         style="stop-color:#ffcc04;stop-opacity:1;" />
      <stop
         offset="1"
         id="stop4929-56-2-3"
         style="stop-color:#a98500;stop-opacity:1;" />
    </linearGradient>
    <linearGradient
       y2="19.032196"
       x2="138.61914"
       y1="166.12685"
       x1="180.59314"
       gradientTransform="translate(-17.649337,-14.676051)"
       gradientUnits="userSpaceOnUse"
       id="linearGradient3612"
       xlink:href="#linearGradient4925-7-6-1"
       inkscape:collect="always" />
  </defs>
  <sodipodi:namedview
     id="base"
     pagecolor="#5271a5"
     bordercolor="#666666"
     borderopacity="1.0"
     inkscape:pageopacity="1"
     inkscape:pageshadow="2"
     inkscape:zoom="1.979899"
     inkscape:cx="184.70501"
     inkscape:cy="169.89373"
     inkscape:document-units="px"
     inkscape:current-layer="layer1"
     showgrid="false"
     units="mm"
     inkscape:window-width="1918"
     inkscape:window-height="1059"
     inkscape:window-x="1366"
     inkscape:window-y="19"
     inkscape:window-maximized="1"
     showguides="true"
     inkscape:guide-bbox="true" />
  <metadata
     id="metadata7">
    <rdf:RDF>
      <cc:Work
         rdf:about="">
        <dc:format>image/svg+xml</dc:format>
        <dc:type
           rdf:resource="http://purl.org/dc/dcmitype/StillImage" />
        <dc:title></dc:title>
      </cc:Work>
    </rdf:RDF>
  </metadata>
  <g
     inkscape:label="Calque 1"
     inkscape:groupmode="layer"
     id="layer1"
     transform="translate(0,-768.89763)">
    <path
       style="fill:#5b6dee"
       d="m 136.18874,880.48126 c -16.93924,0 -30.67543,13.72633 -30.67543,30.66557 0,16.93924 13.73619,30.67543 30.67543,30.67543 16.93924,0 30.67544,-13.73619 30.67544,-30.67543 0,-16.93924 -13.7362,-30.66557 -30.67544,-30.66557 z m 7.1336,14.98745 c 4.86844,0 8.19919,2.37559 8.19919,7.31119 0,4.93564 -4.0053,7.32106 -9.84693,7.32106 -4.31174,-3.1e-4 -6.35348,-0.8288 -10.66585,-0.8288 a 17.528594,17.528594 0 0 0 -3.18693,0.27627 c 0.86647,-8.01378 7.54932,-14.08035 15.50052,-14.07972 z m -12.61946,16.72398 c 4.31175,0 6.35348,0.82852 10.66586,0.8288 a 17.528594,17.528594 0 0 0 3.18693,-0.2664 c -0.86615,8.01378 -7.5484,14.07972 -15.50052,14.07972 -4.86844,0 -8.19919,-2.38546 -8.19919,-7.32106 0,-4.9356 4.00558,-7.32106 9.84692,-7.32106 z"
       id="circle3085"
       inkscape:connector-curvature="0" />
    <g
       transform="matrix(0.44901509,0,0,0.44901509,60.378947,828.36065)"
       style="font-size:40px;font-style:normal;font-variant:normal;font-weight:normal;font-stretch:normal;line-height:125%;letter-spacing:0px;word-spacing:0px;opacity:0.8;color:#000000;fill:#ffffff;fill-opacity:1;fill-rule:nonzero;stroke:none;stroke-width:1.97553194;marker:none;visibility:visible;display:inline;overflow:visible;enable-background:accumulate;font-family:font robotoAlbertsthal Typewriter;-inkscape-font-specification:font robotoAlbertsthal Typewriter"
       id="flowRoot3155">
      <path
         d="m 33.089844,31.817656 c -1.7e-5,1.184902 -0.221371,2.239588 -0.664063,3.164063 -0.429703,0.924482 -1.035171,1.712242 -1.816406,2.363281 -0.768243,0.638022 -1.6797,1.119792 -2.734375,1.445312 -1.041677,0.325521 -2.167978,0.488281 -3.378906,0.488282 -0.846362,-10e-7 -1.634122,-0.07162 -2.363282,-0.214844 -0.716151,-0.143229 -1.360681,-0.31901 -1.933593,-0.527344 -0.5599,-0.208333 -1.03516,-0.423176 -1.425782,-0.644531 -0.377606,-0.221353 -0.644533,-0.410155 -0.800781,-0.566406 -0.143231,-0.156249 -0.253908,-0.351561 -0.332031,-0.585938 -0.06511,-0.247393 -0.09766,-0.572914 -0.09766,-0.976562 -2e-6,-0.286455 0.01302,-0.52083 0.03906,-0.703125 0.02604,-0.195309 0.0651,-0.351559 0.117188,-0.46875 0.05208,-0.117183 0.117186,-0.195308 0.195312,-0.234375 0.07812,-0.05208 0.169269,-0.07812 0.273438,-0.07813 0.182289,4e-6 0.436195,0.110681 0.761718,0.332031 0.338539,0.221358 0.768226,0.462243 1.289063,0.722656 0.520829,0.26042 1.145828,0.507816 1.875,0.742188 0.742181,0.221357 1.595045,0.332033 2.558594,0.332031 0.729157,2e-6 1.393219,-0.09765 1.992187,-0.292969 0.611968,-0.195309 1.132801,-0.468746 1.5625,-0.820312 0.442696,-0.36458 0.781237,-0.807287 1.015625,-1.328125 0.234362,-0.520828 0.351549,-1.113275 0.351563,-1.777344 -1.4e-5,-0.716138 -0.162774,-1.328117 -0.488282,-1.835938 -0.325533,-0.507803 -0.75522,-0.950511 -1.289062,-1.328125 C 27.26301,28.634073 26.651031,28.282511 25.960937,27.97 25.283845,27.64449 24.587231,27.31897 23.871094,26.993437 23.154941,26.654908 22.458327,26.283815 21.78125,25.880156 c -0.677088,-0.403632 -1.282556,-0.878892 -1.816406,-1.425781 -0.533858,-0.54686 -0.970055,-1.18488 -1.308594,-1.914063 -0.325523,-0.74217 -0.488283,-1.627586 -0.488281,-2.65625 -2e-6,-1.054667 0.1888,-1.992166 0.566406,-2.8125 0.390622,-0.83331 0.924476,-1.529924 1.601562,-2.089843 0.6901,-0.559872 1.503901,-0.983048 2.441407,-1.269532 0.950513,-0.299453 1.972647,-0.449193 3.066406,-0.449218 0.559886,2.5e-5 1.119781,0.05211 1.679687,0.15625 0.572905,0.09117 1.106759,0.221379 1.601563,0.390625 0.507799,0.156275 0.957017,0.338566 1.347656,0.546875 0.390611,0.195337 0.644517,0.358097 0.761719,0.488281 0.130193,0.117211 0.214828,0.214868 0.253906,0.292969 0.03905,0.06513 0.0716,0.156273 0.09766,0.273437 0.02603,0.10419 0.04556,0.234399 0.05859,0.390625 0.01301,0.156273 0.01952,0.358096 0.01953,0.605469 -1.5e-5,0.234397 -0.01304,0.44273 -0.03906,0.625 -0.01304,0.182313 -0.03908,0.338563 -0.07813,0.46875 -0.03908,0.117209 -0.09767,0.208355 -0.175781,0.273437 -0.06512,0.05211 -0.143244,0.07815 -0.234375,0.07813 -0.143244,2.2e-5 -0.371109,-0.09112 -0.683594,-0.273437 -0.299493,-0.18227 -0.670587,-0.384093 -1.113281,-0.605469 -0.442721,-0.234353 -0.970065,-0.442686 -1.582032,-0.625 -0.598969,-0.195289 -1.276051,-0.292946 -2.03125,-0.292969 -0.703133,2.3e-5 -1.315112,0.09768 -1.835937,0.292969 -0.520841,0.182314 -0.950528,0.42971 -1.289063,0.742188 -0.338547,0.312521 -0.592453,0.683615 -0.761718,1.113281 -0.169277,0.429708 -0.253912,0.885436 -0.253907,1.367187 -5e-6,0.703144 0.162755,1.308612 0.488282,1.816407 0.325514,0.507829 0.755201,0.957048 1.289062,1.347656 0.546867,0.390641 1.165356,0.748713 1.855469,1.074219 0.690094,0.325535 1.393219,0.657566 2.109375,0.996093 0.716134,0.325535 1.419258,0.690118 2.109375,1.09375 0.69009,0.390638 1.302069,0.859388 1.835937,1.40625 0.54686,0.533866 0.983057,1.171886 1.308594,1.914063 0.338525,0.729176 0.507796,1.59506 0.507813,2.597656"
         style="color:#000000;fill:#ffffff;marker:none;visibility:visible;display:inline;overflow:visible;enable-background:accumulate;font-family:Calibri;-inkscape-font-specification:Calibri"
         id="path3181" />
      <path
         d="m 46.644531,37.130156 c -1.2e-5,0.377606 -0.02605,0.677085 -0.07813,0.898438 -0.0521,0.221355 -0.13022,0.384115 -0.234375,0.488281 -0.104178,0.104167 -0.260428,0.201823 -0.46875,0.292969 -0.208344,0.09115 -0.449229,0.16276 -0.722656,0.214843 -0.260427,0.0651 -0.540375,0.117188 -0.839844,0.15625 -0.299488,0.03906 -0.598967,0.05859 -0.898437,0.05859 -0.911467,0 -1.692716,-0.117187 -2.34375,-0.351562 -0.651048,-0.247396 -1.184901,-0.611979 -1.601563,-1.09375 -0.416671,-0.49479 -0.72266,-1.113279 -0.917969,-1.855469 -0.182295,-0.755205 -0.273441,-1.64062 -0.273437,-2.65625 l 0,-10.273438 -2.460938,0 c -0.195313,1.6e-5 -0.351563,-0.10415 -0.46875,-0.3125 -0.117188,-0.208316 -0.175781,-0.546858 -0.175781,-1.015625 0,-0.247378 0.01302,-0.455711 0.03906,-0.625 0.03906,-0.169252 0.08463,-0.305971 0.136718,-0.410156 0.05208,-0.117169 0.117187,-0.195294 0.195313,-0.234375 0.09114,-0.05206 0.188801,-0.07811 0.292969,-0.07813 l 2.441406,0 0,-4.179687 c -4e-6,-0.09112 0.01953,-0.175759 0.05859,-0.253907 0.05208,-0.0781 0.136715,-0.143206 0.253906,-0.195312 0.130204,-0.06508 0.299475,-0.110654 0.507812,-0.136719 0.208329,-0.02602 0.468745,-0.03904 0.78125,-0.03906 0.325516,2.3e-5 0.592442,0.01304 0.800782,0.03906 0.208327,0.02607 0.371087,0.07164 0.488281,0.136719 0.117181,0.05211 0.201816,0.117211 0.253906,0.195312 0.05208,0.07815 0.07812,0.162784 0.07813,0.253907 l 0,4.179687 4.511719,0 c 0.104155,1.9e-5 0.195301,0.02606 0.273437,0.07813 0.07811,0.03908 0.143218,0.117206 0.195313,0.234375 0.06509,0.104185 0.110665,0.240904 0.136719,0.410156 0.02603,0.169289 0.03905,0.377622 0.03906,0.625 -1.2e-5,0.468767 -0.05861,0.807309 -0.175781,1.015625 -0.117199,0.20835 -0.273449,0.312516 -0.46875,0.3125 l -4.511719,0 0,9.804688 c -7e-6,1.210942 0.175774,2.12891 0.527344,2.753906 0.364575,0.611982 1.009106,0.917971 1.933594,0.917969 0.299469,2e-6 0.566396,-0.02604 0.800781,-0.07813 0.234365,-0.0651 0.442698,-0.130206 0.625,-0.195313 0.182281,-0.0651 0.33853,-0.123695 0.46875,-0.175781 0.130197,-0.0651 0.247384,-0.09765 0.351562,-0.09766 0.06509,3e-6 0.123687,0.01953 0.175782,0.05859 0.06509,0.02604 0.110665,0.08464 0.136718,0.175781 0.03905,0.09115 0.0716,0.214846 0.09766,0.371094 0.02603,0.156252 0.03905,0.351564 0.03906,0.585937"
         style="color:#000000;fill:#ffffff;marker:none;visibility:visible;display:inline;overflow:visible;enable-background:accumulate;font-family:Calibri;-inkscape-font-specification:Calibri"
         id="path3183" />
      <path
         d="m 63.714844,38.43875 c -1.6e-5,0.15625 -0.0521,0.273438 -0.15625,0.351562 -0.104183,0.07813 -0.247412,0.136719 -0.429688,0.175782 -0.182307,0.03906 -0.449234,0.05859 -0.800781,0.05859 -0.338556,0 -0.611993,-0.01953 -0.820313,-0.05859 -0.195326,-0.03906 -0.338555,-0.09766 -0.429687,-0.175782 -0.09116,-0.07812 -0.136732,-0.195312 -0.136719,-0.351562 l 0,-1.757813 c -0.768242,0.820314 -1.627616,1.458335 -2.578125,1.914063 -0.93751,0.455729 -1.933602,0.683593 -2.988281,0.683594 -0.924486,-10e-7 -1.764329,-0.123698 -2.519531,-0.371094 -0.742192,-0.234375 -1.380213,-0.579427 -1.914063,-1.035156 -0.520836,-0.455728 -0.930992,-1.015623 -1.230469,-1.679688 -0.28646,-0.664059 -0.429689,-1.419266 -0.429687,-2.265625 -2e-6,-0.989577 0.201821,-1.848951 0.605469,-2.578125 0.403643,-0.729158 0.983069,-1.334626 1.738281,-1.816406 0.755203,-0.481761 1.679682,-0.839834 2.773437,-1.074219 1.093742,-0.247385 2.32421,-0.371083 3.691407,-0.371094 l 2.421875,0 0,-1.367187 c -1.3e-5,-0.67707 -0.07163,-1.276028 -0.214844,-1.796875 -0.143242,-0.520819 -0.377617,-0.950506 -0.703125,-1.289063 -0.312512,-0.351546 -0.722668,-0.611963 -1.230469,-0.78125 -0.507823,-0.182275 -1.132822,-0.273421 -1.875,-0.273437 -0.794279,1.6e-5 -1.510424,0.09767 -2.148437,0.292969 -0.625006,0.182307 -1.178391,0.39064 -1.660157,0.625 -0.468754,0.221369 -0.865889,0.429702 -1.191406,0.625 -0.312503,0.182306 -0.546878,0.273452 -0.703125,0.273437 -0.10417,1.5e-5 -0.195315,-0.02603 -0.273437,-0.07813 -0.07813,-0.05207 -0.149743,-0.130193 -0.214844,-0.234375 -0.05209,-0.104151 -0.09115,-0.23436 -0.117188,-0.390625 -0.02604,-0.169255 -0.03907,-0.351547 -0.03906,-0.546875 -3e-6,-0.325504 0.01953,-0.57941 0.05859,-0.761719 0.05208,-0.195295 0.162757,-0.377587 0.332031,-0.546875 0.182288,-0.169253 0.488278,-0.364565 0.917969,-0.585937 0.429683,-0.234357 0.924474,-0.44269 1.484375,-0.625 0.55989,-0.195294 1.171868,-0.351544 1.835937,-0.46875 0.664055,-0.130189 1.334627,-0.195294 2.011719,-0.195313 1.26301,1.9e-5 2.337228,0.143248 3.222656,0.429688 0.885404,0.286477 1.601549,0.709653 2.148438,1.269531 0.54686,0.546892 0.943995,1.230485 1.191406,2.050781 0.24738,0.820327 0.371078,1.777358 0.371094,2.871094 l 0,11.855469 m -3.203125,-8.027344 -2.753907,0 c -0.885426,9e-6 -1.653654,0.07813 -2.304687,0.234375 -0.651049,0.143238 -1.191413,0.364591 -1.621094,0.664063 -0.429693,0.286465 -0.748703,0.638028 -0.957031,1.054687 -0.195318,0.403652 -0.292974,0.872402 -0.292969,1.40625 -5e-6,0.911463 0.286453,1.640629 0.859375,2.1875 0.585931,0.533857 1.399732,0.800784 2.441406,0.800781 0.846345,3e-6 1.627595,-0.214841 2.34375,-0.644531 0.729156,-0.429684 1.490874,-1.087235 2.285157,-1.972656 l 0,-3.730469"
         style="color:#000000;fill:#ffffff;marker:none;visibility:visible;display:inline;overflow:visible;enable-background:accumulate;font-family:Calibri;-inkscape-font-specification:Calibri"
         id="path3185" />
      <path
         d="m 78.363281,37.130156 c -1.2e-5,0.377606 -0.02605,0.677085 -0.07813,0.898438 -0.05209,0.221355 -0.13022,0.384115 -0.234375,0.488281 -0.104178,0.104167 -0.260428,0.201823 -0.46875,0.292969 -0.208344,0.09115 -0.449229,0.16276 -0.722656,0.214843 -0.260427,0.0651 -0.540375,0.117188 -0.839844,0.15625 -0.299488,0.03906 -0.598967,0.05859 -0.898437,0.05859 -0.911467,0 -1.692716,-0.117187 -2.34375,-0.351562 -0.651048,-0.247396 -1.184901,-0.611979 -1.601563,-1.09375 -0.416671,-0.49479 -0.72266,-1.113279 -0.917969,-1.855469 -0.182295,-0.755205 -0.273441,-1.64062 -0.273437,-2.65625 l 0,-10.273438 -2.460938,0 c -0.195313,1.6e-5 -0.351563,-0.10415 -0.46875,-0.3125 -0.117188,-0.208316 -0.175781,-0.546858 -0.175781,-1.015625 0,-0.247378 0.01302,-0.455711 0.03906,-0.625 0.03906,-0.169252 0.08463,-0.305971 0.136718,-0.410156 0.05208,-0.117169 0.117187,-0.195294 0.195313,-0.234375 0.09114,-0.05206 0.188801,-0.07811 0.292969,-0.07813 l 2.441406,0 0,-4.179687 c -4e-6,-0.09112 0.01953,-0.175759 0.05859,-0.253907 0.05208,-0.0781 0.136715,-0.143206 0.253906,-0.195312 0.130204,-0.06508 0.299475,-0.110654 0.507812,-0.136719 0.208329,-0.02602 0.468745,-0.03904 0.78125,-0.03906 0.325516,2.3e-5 0.592442,0.01304 0.800782,0.03906 0.208327,0.02607 0.371087,0.07164 0.488281,0.136719 0.117181,0.05211 0.201816,0.117211 0.253906,0.195312 0.05208,0.07815 0.07812,0.162784 0.07813,0.253907 l 0,4.179687 4.511719,0 c 0.104155,1.9e-5 0.195301,0.02606 0.273437,0.07813 0.07811,0.03908 0.143218,0.117206 0.195313,0.234375 0.06509,0.104185 0.110665,0.240904 0.136719,0.410156 0.02603,0.169289 0.03905,0.377622 0.03906,0.625 -1.2e-5,0.468767 -0.05861,0.807309 -0.175781,1.015625 -0.117199,0.20835 -0.273449,0.312516 -0.46875,0.3125 l -4.511719,0 0,9.804688 c -7e-6,1.210942 0.175774,2.12891 0.527344,2.753906 0.364575,0.611982 1.009106,0.917971 1.933594,0.917969 0.299469,2e-6 0.566396,-0.02604 0.800781,-0.07813 0.234365,-0.0651 0.442698,-0.130206 0.625,-0.195313 0.182281,-0.0651 0.33853,-0.123695 0.46875,-0.175781 0.130197,-0.0651 0.247384,-0.09765 0.351562,-0.09766 0.06509,3e-6 0.123687,0.01953 0.175782,0.05859 0.06509,0.02604 0.110665,0.08464 0.136718,0.175781 0.03905,0.09115 0.0716,0.214846 0.09766,0.371094 0.02603,0.156252 0.03905,0.351564 0.03906,0.585937"
         style="color:#000000;fill:#ffffff;marker:none;visibility:visible;display:inline;overflow:visible;enable-background:accumulate;font-family:Calibri;-inkscape-font-specification:Calibri"
         id="path3187" />
      <path
         d="m 97.71875,38.419219 c -1.8e-5,0.104167 -0.02606,0.195313 -0.07813,0.273437 -0.03908,0.06511 -0.117205,0.123698 -0.234375,0.175781 -0.117205,0.05208 -0.273455,0.09115 -0.46875,0.117188 -0.182309,0.02604 -0.410173,0.03906 -0.683594,0.03906 -0.299495,0 -0.546891,-0.01302 -0.742187,-0.03906 -0.182308,-0.02604 -0.332047,-0.0651 -0.449219,-0.117188 -0.104182,-0.05208 -0.175796,-0.110676 -0.214844,-0.175781 -0.03908,-0.07812 -0.05861,-0.16927 -0.05859,-0.273437 l 0,-2.324219 c -1.002618,1.106773 -1.9922,1.914063 -2.96875,2.421875 -0.976573,0.507812 -1.966156,0.761718 -2.96875,0.761719 -1.171883,-10e-7 -2.161465,-0.195313 -2.96875,-0.585938 -0.794276,-0.390624 -1.438806,-0.917967 -1.933593,-1.582031 -0.494796,-0.677081 -0.852868,-1.45833 -1.074219,-2.34375 -0.208336,-0.898432 -0.312503,-1.985671 -0.3125,-3.261719 l 0,-10.664062 c -3e-6,-0.104149 0.01953,-0.188784 0.05859,-0.253907 0.05208,-0.07811 0.143226,-0.14321 0.273437,-0.195312 0.130205,-0.06509 0.299476,-0.104148 0.507813,-0.117188 0.208329,-0.02602 0.468746,-0.03904 0.78125,-0.03906 0.312495,1.9e-5 0.572911,0.01304 0.78125,0.03906 0.208328,0.01304 0.371088,0.0521 0.488281,0.117188 0.130202,0.0521 0.221348,0.117206 0.273437,0.195312 0.05208,0.06512 0.07812,0.149758 0.07813,0.253907 l 0,10.234375 c -6e-6,1.028652 0.07161,1.855474 0.214844,2.480468 0.156244,0.611984 0.384108,1.139328 0.683594,1.582032 0.312493,0.429691 0.703117,0.768232 1.171875,1.015625 0.468741,0.234377 1.015616,0.351565 1.640625,0.351562 0.807281,3e-6 1.608061,-0.286455 2.402344,-0.859375 0.807278,-0.572913 1.660142,-1.412755 2.558593,-2.519531 l 0,-12.285156 c -1.4e-5,-0.104149 0.01952,-0.188784 0.05859,-0.253907 0.05207,-0.07811 0.143214,-0.14321 0.273438,-0.195312 0.130193,-0.06509 0.292953,-0.104148 0.488281,-0.117188 0.208317,-0.02602 0.475244,-0.03904 0.800781,-0.03906 0.312484,1.9e-5 0.5729,0.01304 0.78125,0.03906 0.208316,0.01304 0.371076,0.0521 0.488281,0.117188 0.11717,0.0521 0.201806,0.117206 0.253907,0.195312 0.06509,0.06512 0.09764,0.149758 0.09766,0.253907 l 0,17.578125"
         style="color:#000000;fill:#ffffff;marker:none;visibility:visible;display:inline;overflow:visible;enable-background:accumulate;font-family:Calibri;-inkscape-font-specification:Calibri"
         id="path3189" />
      <path
         d="m 114.71094,33.634062 c -2e-5,0.898442 -0.16929,1.699223 -0.50781,2.402344 -0.32554,0.703127 -0.79429,1.295575 -1.40625,1.777344 -0.612,0.481771 -1.34116,0.846354 -2.1875,1.09375 -0.84637,0.247396 -1.77736,0.371093 -2.79297,0.371094 -0.62501,-10e-7 -1.22397,-0.05208 -1.79688,-0.15625 -0.5599,-0.09115 -1.06771,-0.208334 -1.52344,-0.351563 -0.44271,-0.156249 -0.82031,-0.312499 -1.13281,-0.46875 -0.3125,-0.16927 -0.54037,-0.319009 -0.68359,-0.449219 -0.14323,-0.130207 -0.2474,-0.312498 -0.3125,-0.546875 -0.0651,-0.234373 -0.0977,-0.553383 -0.0977,-0.957031 0,-0.247393 0.013,-0.455726 0.0391,-0.625 0.026,-0.169267 0.0586,-0.305986 0.0977,-0.410156 0.0391,-0.104163 0.0911,-0.175777 0.15625,-0.214844 0.0781,-0.05208 0.16276,-0.07812 0.25391,-0.07813 0.14322,4e-6 0.35156,0.09115 0.625,0.273438 0.28645,0.169274 0.6315,0.358076 1.03515,0.566406 0.41666,0.208336 0.90495,0.403648 1.46485,0.585937 0.55989,0.169274 1.20442,0.253909 1.93359,0.253907 0.54687,2e-6 1.04166,-0.05859 1.48438,-0.175782 0.44269,-0.117185 0.82681,-0.286455 1.15234,-0.507812 0.32551,-0.234372 0.57291,-0.52734 0.74219,-0.878906 0.18228,-0.351559 0.27342,-0.768225 0.27343,-1.25 -10e-6,-0.494786 -0.13022,-0.911453 -0.39062,-1.25 -0.24741,-0.338535 -0.57944,-0.638014 -0.99609,-0.898438 -0.41668,-0.260409 -0.88543,-0.488273 -1.40625,-0.683594 -0.52085,-0.208325 -1.06121,-0.423168 -1.6211,-0.644531 -0.54688,-0.221345 -1.08724,-0.468741 -1.62109,-0.742187 -0.52084,-0.286449 -0.98959,-0.631501 -1.40625,-1.035157 -0.41667,-0.403635 -0.75521,-0.885405 -1.01563,-1.445312 -0.2474,-0.559884 -0.37109,-1.230456 -0.37109,-2.011719 0,-0.690089 0.1302,-1.347641 0.39062,-1.972656 0.27344,-0.638004 0.67708,-1.191389 1.21094,-1.660156 0.53385,-0.481753 1.19791,-0.865867 1.99219,-1.152344 0.80728,-0.28644 1.74478,-0.429669 2.8125,-0.429688 0.46874,1.9e-5 0.93749,0.03908 1.40625,0.117188 0.46874,0.07814 0.89192,0.1758 1.26953,0.292969 0.37759,0.117206 0.6966,0.247414 0.95703,0.390625 0.27343,0.130226 0.47525,0.247413 0.60547,0.351562 0.14322,0.104185 0.23436,0.19533 0.27344,0.273438 0.0521,0.07814 0.0846,0.169288 0.0977,0.273437 0.026,0.09116 0.0456,0.208351 0.0586,0.351563 0.026,0.143246 0.0391,0.319027 0.0391,0.527343 -1e-5,0.221371 -0.013,0.416683 -0.0391,0.585938 -0.013,0.156266 -0.0456,0.286474 -0.0977,0.390625 -0.0391,0.104182 -0.0912,0.182307 -0.15625,0.234375 -0.0651,0.03908 -0.13673,0.05861 -0.21484,0.05859 -0.1172,1.5e-5 -0.28647,-0.0716 -0.50781,-0.214844 -0.22137,-0.143214 -0.50783,-0.292953 -0.85938,-0.449219 -0.35157,-0.169255 -0.76824,-0.325504 -1.25,-0.46875 -0.46876,-0.143213 -1.00912,-0.214827 -1.62109,-0.214844 -0.54689,1.7e-5 -1.02866,0.06512 -1.44532,0.195313 -0.41667,0.117204 -0.76172,0.292985 -1.03515,0.527344 -0.26042,0.221369 -0.46225,0.488296 -0.60547,0.800781 -0.13021,0.312515 -0.19532,0.651056 -0.19531,1.015625 -1e-5,0.507826 0.1302,0.937513 0.39062,1.289062 0.26041,0.338554 0.59895,0.638033 1.01563,0.898438 0.41666,0.260428 0.89192,0.494803 1.42578,0.703125 0.53384,0.208344 1.07421,0.423188 1.62109,0.644531 0.55989,0.221365 1.10676,0.46876 1.64063,0.742188 0.54686,0.273447 1.02863,0.605478 1.44531,0.996093 0.41665,0.390634 0.74868,0.859383 0.99609,1.40625 0.26041,0.546882 0.39061,1.197923 0.39063,1.953125"
         style="color:#000000;fill:#ffffff;marker:none;visibility:visible;display:inline;overflow:visible;enable-background:accumulate;font-family:Calibri;-inkscape-font-specification:Calibri"
         id="path3191" />
    </g>
    <g
       id="g3204"
       transform="matrix(1.1045344,0,0,1.1045344,34.229261,-76.489725)"
       style="opacity:0.8">
      <path
         style="fill:#ffffff"
         inkscape:connector-curvature="0"
         d="m 312.0833,835.80705 a 14.220866,14.220866 0 0 0 -2.58786,0.22272 c 0.70296,-6.50154 6.12131,-11.42448 12.57208,-11.42397 3.94974,0 6.65607,1.93393 6.65607,5.93816 0,4.00425 -3.24829,5.93818 -7.98758,5.93818 -3.4981,-2.6e-4 -5.1541,-0.67509 -8.65271,-0.67509 m -0.25554,2.37138 c -4.73905,0 -7.98758,1.93396 -7.98758,5.93819 0,4.00423 2.70633,5.93818 6.65608,5.93818 6.45151,0 11.86937,-4.92243 12.57207,-11.42397 a 14.220866,14.220866 0 0 1 -2.58786,0.22269 c -3.49861,-2.3e-4 -5.15461,-0.67509 -8.65271,-0.67509"
         id="path3152" />
      <g
         id="flowRoot3193"
         style="font-size:40px;font-style:normal;font-variant:normal;font-weight:normal;font-stretch:normal;line-height:125%;letter-spacing:0px;word-spacing:0px;fill:#ffffff;fill-opacity:1;stroke:none;font-family:Calibri;-inkscape-font-specification:Calibri"
         transform="translate(133.34014,794.45992)">
        <path
           inkscape:connector-curvature="0"
           id="path3202"
           style="fill:#ffffff"
           d="m 166.60547,54.266875 c -2e-5,0.247397 -0.0196,0.45573 -0.0586,0.625 -0.0391,0.169271 -0.0912,0.30599 -0.15625,0.410156 -0.0651,0.104167 -0.14324,0.182292 -0.23437,0.234375 -0.0781,0.03906 -0.16278,0.05859 -0.25391,0.05859 l -13.20312,0 c -0.0911,0 -0.17579,-0.01953 -0.25391,-0.05859 -0.0781,-0.05208 -0.15625,-0.130208 -0.23437,-0.234375 -0.0651,-0.104166 -0.11719,-0.240885 -0.15625,-0.410156 -0.0391,-0.16927 -0.0586,-0.377603 -0.0586,-0.625 0,-0.234373 0.0195,-0.436196 0.0586,-0.605469 0.0391,-0.169268 0.0846,-0.305987 0.13672,-0.410156 0.0651,-0.117185 0.13671,-0.20182 0.21484,-0.253906 0.0911,-0.0651 0.1888,-0.09765 0.29297,-0.09766 l 5.27344,0 0,-19.21875 -4.88282,2.910157 c -0.2474,0.130227 -0.44922,0.208352 -0.60547,0.234375 -0.14323,0.02606 -0.26042,1.9e-5 -0.35156,-0.07813 -0.0911,-0.09113 -0.15625,-0.234356 -0.19531,-0.429688 -0.026,-0.195293 -0.0391,-0.442688 -0.0391,-0.742187 -1e-5,-0.221334 0.007,-0.410136 0.0195,-0.566407 0.026,-0.156229 0.0586,-0.286437 0.0977,-0.390625 0.0391,-0.104145 0.0911,-0.195291 0.15625,-0.273437 0.0781,-0.0781 0.17578,-0.156229 0.29297,-0.234375 l 5.82032,-3.730469 c 0.0521,-0.03904 0.11717,-0.07159 0.19531,-0.09766 0.0781,-0.02602 0.17577,-0.05206 0.29297,-0.07813 0.11717,-0.02602 0.25389,-0.03904 0.41015,-0.03906 0.15624,-0.013 0.35156,-0.0195 0.58594,-0.01953 0.31249,2.6e-5 0.57291,0.01305 0.78125,0.03906 0.20832,0.02607 0.37108,0.06513 0.48828,0.117187 0.11718,0.03909 0.1953,0.09768 0.23438,0.175781 0.0391,0.06513 0.0586,0.136744 0.0586,0.214844 l 0,22.207031 4.57031,0 c 0.10415,3e-6 0.20181,0.03256 0.29297,0.09766 0.0911,0.05209 0.16275,0.136721 0.21485,0.253906 0.0651,0.104169 0.11066,0.240888 0.13671,0.410156 0.039,0.169273 0.0586,0.371096 0.0586,0.605469" />
      </g>
    </g>
  </g>
</svg>
