<?xml version="1.0" encoding="UTF-8" standalone="no"?>
<!-- Created with Inkscape (http://www.inkscape.org/) -->

<svg
   xmlns:dc="http://purl.org/dc/elements/1.1/"
   xmlns:cc="http://creativecommons.org/ns#"
   xmlns:rdf="http://www.w3.org/1999/02/22-rdf-syntax-ns#"
   xmlns:svg="http://www.w3.org/2000/svg"
   xmlns="http://www.w3.org/2000/svg"
   xmlns:xlink="http://www.w3.org/1999/xlink"
   xmlns:sodipodi="http://sodipodi.sourceforge.net/DTD/sodipodi-0.dtd"
   xmlns:inkscape="http://www.inkscape.org/namespaces/inkscape"
   width="460.62991"
   height="283.46457"
   id="svg2"
   version="1.1"
   inkscape:version="0.48.5 r10040"
   sodipodi:docname="trx.svg"
   inkscape:export-filename="/home/mammique/Documents/daat/banknote/cryptos/dash.png"
   inkscape:export-xdpi="156.31"
   inkscape:export-ydpi="156.31">
  <defs
     id="defs4">
    <linearGradient
       id="linearGradient4925">
      <stop
         style="stop-color:#bd9800;stop-opacity:1;"
         offset="0"
         id="stop4927" />
      <stop
         id="stop3784"
         offset="0.51732481"
         style="stop-color:#ffcc04;stop-opacity:1;" />
      <stop
         offset="1"
         id="stop4929"
         style="stop-color:#a98500;stop-opacity:1;" />
    </linearGradient>
    <linearGradient
       id="linearGradient4835">
      <stop
         style="stop-color:#000000;stop-opacity:0.61572052"
         offset="0"
         id="stop4837" />
      <stop
         style="stop-color:#000000;stop-opacity:0;"
         offset="1"
         id="stop4839" />
    </linearGradient>
    <linearGradient
       inkscape:collect="always"
       id="linearGradient4531">
      <stop
         style="stop-color:#ffffff;stop-opacity:1;"
         offset="0"
         id="stop4533" />
      <stop
         style="stop-color:#ffffff;stop-opacity:0;"
         offset="1"
         id="stop4535" />
    </linearGradient>
    <clipPath
       clipPathUnits="userSpaceOnUse"
       id="clipPath5978">
      <rect
         style="color:#000000;fill:#cccccc;fill-opacity:1;fill-rule:nonzero;stroke:#003a00;stroke-width:0.89999998;stroke-linecap:butt;stroke-linejoin:miter;stroke-miterlimit:4;stroke-opacity:1;stroke-dasharray:none;stroke-dashoffset:0;marker:none;visibility:visible;display:inline;overflow:visible;enable-background:accumulate"
         id="rect5980"
         width="173.74623"
         height="1608.1628"
         x="610.13214"
         y="-378.01382"
         transform="matrix(0,-1,1,0,0,0)" />
    </clipPath>
    <inkscape:perspective
       id="perspective2497"
       inkscape:persp3d-origin="372.04724 : 350.78739 : 1"
       inkscape:vp_z="744.09448 : 526.18109 : 1"
       inkscape:vp_y="0 : 1000 : 0"
       inkscape:vp_x="0 : 526.18109 : 1"
       sodipodi:type="inkscape:persp3d" />
    <linearGradient
       inkscape:collect="always"
       xlink:href="#linearGradient4531"
       id="linearGradient4823"
       gradientUnits="userSpaceOnUse"
       x1="182.81697"
       y1="175.83376"
       x2="183.58928"
       y2="-16.309107"
       gradientTransform="translate(53.033008,825.69937)" />
    <radialGradient
       inkscape:collect="always"
       xlink:href="#linearGradient4835"
       id="radialGradient4845"
       cx="7.3256431"
       cy="198.2952"
       fx="7.3256431"
       fy="198.2952"
       r="109.27257"
       gradientTransform="matrix(0.19829552,0.15553474,-0.16582027,0.21140881,93.302602,945.5672)"
       gradientUnits="userSpaceOnUse" />
    <linearGradient
       id="linearGradient4925-6">
      <stop
         style="stop-color:#bd9800;stop-opacity:1;"
         offset="0"
         id="stop4927-7" />
      <stop
         id="stop3784-5"
         offset="0.5"
         style="stop-color:#ffcc04;stop-opacity:1;" />
      <stop
         offset="1"
         id="stop4929-3"
         style="stop-color:#a98500;stop-opacity:1;" />
    </linearGradient>
    <linearGradient
       gradientTransform="translate(-17.649337,-11.359598)"
       y2="38.317909"
       x2="313.61914"
       y1="142.8687"
       x1="50.479298"
       gradientUnits="userSpaceOnUse"
       id="linearGradient3802"
       xlink:href="#linearGradient4925-6"
       inkscape:collect="always" />
    <linearGradient
       id="linearGradient4925-2">
      <stop
         style="stop-color:#bd9800;stop-opacity:1;"
         offset="0"
         id="stop4927-3" />
      <stop
         id="stop3784-7"
         offset="0.38554054"
         style="stop-color:#ffcc04;stop-opacity:1;" />
      <stop
         offset="1"
         id="stop4929-5"
         style="stop-color:#a98500;stop-opacity:1;" />
    </linearGradient>
    <linearGradient
       y2="38.317909"
       x2="313.61914"
       y1="83.269699"
       x1="19.16457"
       gradientTransform="translate(-17.649337,-11.359581)"
       gradientUnits="userSpaceOnUse"
       id="linearGradient4077"
       xlink:href="#linearGradient4925-2"
       inkscape:collect="always" />
    <linearGradient
       id="linearGradient4925-28">
      <stop
         style="stop-color:#bd9800;stop-opacity:1;"
         offset="0"
         id="stop4927-9" />
      <stop
         id="stop3784-73"
         offset="0.51732481"
         style="stop-color:#ffcc04;stop-opacity:1;" />
      <stop
         offset="1"
         id="stop4929-6"
         style="stop-color:#a98500;stop-opacity:1;" />
    </linearGradient>
    <linearGradient
       y2="19.746481"
       x2="180.76199"
       y1="166.12685"
       x1="180.59314"
       gradientTransform="translate(-17.649337,-11.359581)"
       gradientUnits="userSpaceOnUse"
       id="linearGradient4113"
       xlink:href="#linearGradient4925-28"
       inkscape:collect="always" />
    <linearGradient
       id="linearGradient4925-7">
      <stop
         style="stop-color:#bd9800;stop-opacity:1;"
         offset="0"
         id="stop4927-5" />
      <stop
         id="stop3784-3"
         offset="0.51732481"
         style="stop-color:#ffcc04;stop-opacity:1;" />
      <stop
         offset="1"
         id="stop4929-56"
         style="stop-color:#a98500;stop-opacity:1;" />
    </linearGradient>
    <linearGradient
       y2="19.746481"
       x2="180.76199"
       y1="166.12685"
       x1="180.59314"
       gradientTransform="translate(-17.649337,-11.359581)"
       gradientUnits="userSpaceOnUse"
       id="linearGradient3327"
       xlink:href="#linearGradient4925-7"
       inkscape:collect="always" />
    <linearGradient
       id="linearGradient4925-7-1">
      <stop
         style="stop-color:#bd9800;stop-opacity:1;"
         offset="0"
         id="stop4927-5-2" />
      <stop
         id="stop3784-3-7"
         offset="0.51732481"
         style="stop-color:#ffcc04;stop-opacity:1;" />
      <stop
         offset="1"
         id="stop4929-56-0"
         style="stop-color:#a98500;stop-opacity:1;" />
    </linearGradient>
    <linearGradient
       y2="19.032196"
       x2="138.61914"
       y1="166.12685"
       x1="180.59314"
       gradientTransform="translate(-17.649337,-7.9568844)"
       gradientUnits="userSpaceOnUse"
       id="linearGradient3455"
       xlink:href="#linearGradient4925-7-1"
       inkscape:collect="always" />
    <linearGradient
       inkscape:collect="always"
       xlink:href="#linearGradient4925-7-6"
       id="linearGradient3350-3"
       gradientUnits="userSpaceOnUse"
       gradientTransform="translate(54.548237,823.78353)"
       x1="180.59314"
       y1="166.12685"
       x2="138.61914"
       y2="19.032196" />
    <linearGradient
       id="linearGradient4925-7-6">
      <stop
         style="stop-color:#bd9800;stop-opacity:1;"
         offset="0"
         id="stop4927-5-0" />
      <stop
         id="stop3784-3-6"
         offset="0.51732481"
         style="stop-color:#ffcc04;stop-opacity:1;" />
      <stop
         offset="1"
         id="stop4929-56-2"
         style="stop-color:#a98500;stop-opacity:1;" />
    </linearGradient>
    <linearGradient
       y2="19.032196"
       x2="138.61914"
       y1="166.12685"
       x1="180.59314"
       gradientTransform="translate(-17.649337,-7.9568844)"
       gradientUnits="userSpaceOnUse"
       id="linearGradient3491"
       xlink:href="#linearGradient4925-7-6"
       inkscape:collect="always" />
    <linearGradient
       id="linearGradient4835-7">
      <stop
         style="stop-color:#000000;stop-opacity:0.61572052"
         offset="0"
         id="stop4837-5" />
      <stop
         style="stop-color:#000000;stop-opacity:0;"
         offset="1"
         id="stop4839-9" />
    </linearGradient>
    <radialGradient
       r="109.27257"
       fy="198.2952"
       fx="7.3256431"
       cy="198.2952"
       cx="7.3256431"
       gradientTransform="matrix(0.19829552,0.15553474,-0.16582027,0.21140881,132.487,52.51516)"
       gradientUnits="userSpaceOnUse"
       id="radialGradient3545"
       xlink:href="#linearGradient4835-7"
       inkscape:collect="always" />
    <linearGradient
       id="linearGradient4835-8">
      <stop
         style="stop-color:#000000;stop-opacity:0.61572052"
         offset="0"
         id="stop4837-9" />
      <stop
         style="stop-color:#000000;stop-opacity:0;"
         offset="1"
         id="stop4839-7" />
    </linearGradient>
    <radialGradient
       r="109.27257"
       fy="198.2952"
       fx="7.3256431"
       cy="198.2952"
       cx="7.3256431"
       gradientTransform="matrix(0.19829552,0.15553474,-0.16582027,0.21140881,132.487,52.51516)"
       gradientUnits="userSpaceOnUse"
       id="radialGradient3578"
       xlink:href="#linearGradient4835-8"
       inkscape:collect="always" />
    <linearGradient
       inkscape:collect="always"
       xlink:href="#linearGradient4925-7-6-1"
       id="linearGradient3350-3-6"
       gradientUnits="userSpaceOnUse"
       gradientTransform="translate(54.548237,823.78353)"
       x1="180.59314"
       y1="166.12685"
       x2="138.61914"
       y2="19.032196" />
    <linearGradient
       id="linearGradient4925-7-6-1">
      <stop
         style="stop-color:#bd9800;stop-opacity:1;"
         offset="0"
         id="stop4927-5-0-2" />
      <stop
         id="stop3784-3-6-9"
         offset="0.51732481"
         style="stop-color:#ffcc04;stop-opacity:1;" />
      <stop
         offset="1"
         id="stop4929-56-2-3"
         style="stop-color:#a98500;stop-opacity:1;" />
    </linearGradient>
    <linearGradient
       y2="19.032196"
       x2="138.61914"
       y1="166.12685"
       x1="180.59314"
       gradientTransform="translate(-17.649337,-14.676051)"
       gradientUnits="userSpaceOnUse"
       id="linearGradient3612"
       xlink:href="#linearGradient4925-7-6-1"
       inkscape:collect="always" />
  </defs>
  <sodipodi:namedview
     id="base"
     pagecolor="#5271a5"
     bordercolor="#666666"
     borderopacity="1.0"
     inkscape:pageopacity="1"
     inkscape:pageshadow="2"
     inkscape:zoom="1.979899"
     inkscape:cx="247.33447"
     inkscape:cy="140.1555"
     inkscape:document-units="px"
     inkscape:current-layer="layer1"
     showgrid="false"
     units="mm"
     inkscape:window-width="1364"
     inkscape:window-height="747"
     inkscape:window-x="0"
     inkscape:window-y="19"
     inkscape:window-maximized="1"
     showguides="true"
     inkscape:guide-bbox="true" />
  <metadata
     id="metadata7">
    <rdf:RDF>
      <cc:Work
         rdf:about="">
        <dc:format>image/svg+xml</dc:format>
        <dc:type
           rdf:resource="http://purl.org/dc/dcmitype/StillImage" />
        <dc:title></dc:title>
      </cc:Work>
    </rdf:RDF>
  </metadata>
  <g
     inkscape:label="Calque 1"
     inkscape:groupmode="layer"
     id="layer1"
     transform="translate(0,-768.89763)">
    <path
       style="fill:#000000"
       inkscape:connector-curvature="0"
       d="m 168.0052,898.11729 c -2.5784,-1.80339 -5.33566,-3.72602 -8.03329,-5.63374 -0.0596,-0.0447 -0.11924,-0.0894 -0.19376,-0.13414 -0.29808,-0.22356 -0.64088,-0.46202 -1.05819,-0.59616 l -0.0299,-0.0148 c -7.21358,-1.74379 -14.54639,-3.53228 -21.64073,-5.26114 -6.43856,-1.56494 -12.86222,-3.12986 -19.30078,-4.69479 -0.16395,-0.0447 -0.32789,-0.0894 -0.50674,-0.13414 -0.58126,-0.16395 -1.25194,-0.3428 -1.96734,-0.25337 -0.20866,0.0299 -0.3875,0.10433 -0.55145,0.20866 l -0.17885,0.14904 c -0.28318,0.26827 -0.43222,0.61107 -0.50673,0.80481 l -0.0447,0.11924 v 0.68559 l 0.0298,0.10433 c 4.0688,11.40162 8.24195,22.96718 12.26605,34.16015 3.10005,8.61456 6.31933,17.5421 9.46409,26.30571 0.19376,0.59615 0.74521,0.98367 1.4308,1.04327 h 0.14904 c 0.64087,0 1.20723,-0.31298 1.4904,-0.81972 l 11.80404,-17.21421 c 2.87648,-4.18804 5.75297,-8.391 8.62945,-12.57905 1.17743,-1.71396 2.35485,-3.44284 3.53228,-5.1568 1.93753,-2.83178 3.93467,-5.75298 5.91691,-8.59966 l 0.10433,-0.14904 v -0.17884 c 0.0447,-0.52165 0.0596,-1.59475 -0.80482,-2.16111 m -13.83098,6.27463 c -2.77217,1.44569 -5.60394,2.9361 -8.45061,4.4116 1.65435,-1.77358 3.3236,-3.56207 4.97796,-5.33565 2.07166,-2.23562 4.23275,-4.54575 6.34913,-6.81117 l 0.0447,-0.0447 c 0.17885,-0.23847 0.40242,-0.46204 0.64088,-0.7005 0.16395,-0.16395 0.34279,-0.32789 0.50674,-0.52164 1.1029,0.7601 2.22071,1.53512 3.2938,2.29523 0.77502,0.55145 1.56493,1.1029 2.36975,1.65435 -3.2789,1.66926 -6.55779,3.38323 -9.73236,5.05248 m -7.12416,-0.71539 c -2.13128,2.31013 -4.33708,4.67988 -6.52798,7.01982 -4.24766,-5.15681 -8.58475,-10.38815 -12.7877,-15.44063 -1.90773,-2.29523 -3.83035,-4.60537 -5.73808,-6.90059 l -0.0149,-0.0149 c -0.43221,-0.49183 -0.84953,-1.02837 -1.26684,-1.53511 -0.26828,-0.3428 -0.55145,-0.67069 -0.83463,-1.01348 1.72887,0.44713 3.47265,0.86444 5.18661,1.26685 1.50532,0.35769 3.07025,0.73029 4.60537,1.1178 8.64436,2.10147 17.30363,4.20295 25.948,6.30443 -2.87649,3.07024 -5.76788,6.18519 -8.56984,9.19581 m -7.49676,29.04806 c 0.16395,-1.56493 0.3428,-3.17458 0.49184,-4.7544 0.13414,-1.26685 0.26828,-2.56351 0.40241,-3.80055 0.20865,-1.98224 0.43222,-4.039 0.61106,-6.05106 l 0.0447,-0.35769 c 0.14905,-1.28175 0.29809,-2.60821 0.38751,-3.93468 0.16394,-0.0894 0.3428,-0.17884 0.53655,-0.25337 0.22356,-0.10433 0.44712,-0.19375 0.67069,-0.32789 3.44284,-1.80339 6.88568,-3.60678 10.34343,-5.39527 3.44284,-1.78849 6.97511,-3.6366 10.47756,-5.4698 -3.18947,4.62026 -6.39385,9.28524 -9.4939,13.83098 -2.66783,3.88997 -5.41017,7.89917 -8.13762,11.84874 -1.0731,1.57984 -2.19091,3.18948 -3.24909,4.73951 -1.19233,1.72887 -2.41446,3.50246 -3.60679,5.27604 0.14904,-1.78849 0.32789,-3.59188 0.52164,-5.35056 m -20.77629,-43.41559 c -0.19375,-0.53655 -0.40241,-1.088 -0.58125,-1.60964 4.02409,4.85873 8.07801,9.74727 12.02759,14.48677 2.04185,2.45917 4.08372,4.90344 6.12558,7.37751 0.40241,0.46203 0.80482,0.95386 1.19232,1.4308 0.50673,0.61107 1.01348,1.25194 1.56493,1.86301 -0.17885,1.53511 -0.32789,3.08514 -0.49184,4.57554 -0.10432,1.0433 -0.20865,2.08658 -0.32788,3.14477 v 0.0149 c -0.0447,0.67067 -0.13414,1.34136 -0.20867,1.99714 -0.10432,0.90915 -0.34278,2.96591 -0.34278,2.96591 l -0.0149,0.10433 c -0.26827,3.01062 -0.59616,6.05106 -0.90915,9.00207 -0.13413,1.22213 -0.25337,2.47408 -0.3875,3.72602 -0.0745,-0.22357 -0.16395,-0.44713 -0.23847,-0.65578 -0.22356,-0.59616 -0.44712,-1.22214 -0.65578,-1.8332 l -1.59473,-4.42652 c -5.05239,-14.05461 -10.10488,-28.09425 -15.15736,-42.1637"
       id="path3118" />
    <path
       style="fill:#000000;opacity:0.80000000000000004"
       d="m 97.691496,845.94448 c 2.340054,-0.60743 3.612974,-1.93181 4.098714,-4.26441 0.2351,-1.129 0.23573,-1.71352 0.003,-2.81202 -0.38433,-1.81418 -1.33095,-3.18721 -2.662631,-3.86202 -1.953496,-0.98991 -4.577862,-0.90679 -6.23134,0.19735 -1.516025,1.01237 -2.189275,2.33925 -2.328019,4.5882 -0.164959,2.6739 0.915304,4.77411 2.931557,5.69944 1.408889,0.64658 2.845567,0.80212 4.188705,0.45346 z m -2.742689,-2.34211 c -0.742188,-0.3486 -0.956966,-0.57285 -1.331137,-1.38983 -0.237427,-0.51841 -0.282678,-0.82764 -0.281592,-1.9243 0.0011,-1.10034 0.04735,-1.40963 0.29301,-1.95892 1.134445,-2.53664 4.422577,-2.3133 5.170299,0.35117 0.439153,1.5649 0.186007,3.42271 -0.586225,4.30223 -0.809659,0.92215 -2.099181,1.16693 -3.264355,0.61965 z m -20.251433,-2.34971 0.03261,-4.69768 1.865134,0 1.865132,0 0,-1.05776 0,-1.05776 -5.10212,0 -5.102122,0 0,1.05776 0,1.05776 1.86663,0 1.866629,0 0,4.64583 c 0,2.55521 0.03917,4.685 0.08704,4.73287 0.04787,0.0479 0.64986,0.0712 1.337752,0.0519 l 1.25071,-0.0352 z m 7.620573,2.51995 0,-2.23995 0.787431,0 0.78743,0 1.354928,2.12972 c 0.745211,1.17134 1.415808,2.15308 1.490217,2.18163 0.07441,0.0286 0.840649,0.0362 1.702756,0.0169 l 1.567467,-0.035 -1.665159,-2.22878 -1.665159,-2.22879 0.702144,-0.28537 c 1.458381,-0.59273 2.111826,-1.67882 2.003924,-3.33073 -0.07026,-1.07555 -0.385001,-1.74476 -1.114147,-2.36888 -0.91444,-0.78273 -1.356247,-0.8608 -5.174069,-0.91423 l -3.391044,-0.0475 0,5.79545 0,5.79546 1.306641,0 1.30664,0 z m 0.08296,-4.31399 c -0.04563,-0.0456 -0.08296,-0.71761 -0.08296,-1.4933 l 0,-1.41034 1.648857,0.002 c 1.875625,0.002 2.163072,0.0908 2.495778,0.76998 0.435416,0.8889 -0.002,1.83328 -0.961021,2.07476 -0.597867,0.15055 -2.963633,0.19409 -3.100652,0.0571 z m 23.443891,2.54069 c 0.006,-3.15385 0.0391,-3.96362 0.15555,-3.78149 0.0815,0.12748 1.05963,1.66745 2.17355,3.42216 1.11393,1.75471 2.19591,3.45638 2.4044,3.78149 l 0.37909,0.5911 1.29775,0 1.29774,0 0,-5.78655 0,-5.78656 -1.24784,0 -1.24784,0 0.0345,3.91999 c 0.019,2.15599 0.0242,3.91996 0.0117,3.91992 -0.0126,-3e-5 -1.12446,-1.76403 -2.47089,-3.91998 l -2.44805,-3.91993 -1.41792,0 -1.41791,0 0,5.78656 0,5.78655 1.24442,0 1.24442,0 0.007,-4.01326 z"
       id="path3155"
       inkscape:connector-curvature="0"
       sodipodi:nodetypes="cssssssccsscssssccccccccccccscsccccccscscccsssscccccccscssscccssscccccccscsccccccccc" />
    <path
       id="path3157"
       d="m 396.85779,843.65751 c -1.43841,-1.00606 -2.9766,-2.07863 -4.48152,-3.14289 -0.0333,-0.0249 -0.0665,-0.0499 -0.10809,-0.0748 -0.16629,-0.12472 -0.35753,-0.25775 -0.59034,-0.33258 l -0.0167,-0.008 c -4.02423,-0.97281 -8.11497,-1.97055 -12.07269,-2.93503 -3.59187,-0.87303 -7.17543,-1.74605 -10.7673,-2.61907 -0.0915,-0.0249 -0.18292,-0.0499 -0.28269,-0.0748 -0.32427,-0.0915 -0.69842,-0.19123 -1.09752,-0.14134 -0.11641,0.0167 -0.21618,0.0582 -0.30764,0.1164 l -0.0998,0.0831 c -0.15798,0.14966 -0.24113,0.34089 -0.28269,0.44897 l -0.0249,0.0665 v 0.38247 l 0.0166,0.0582 c 2.26985,6.36061 4.59792,12.81267 6.84284,19.05688 1.72942,4.8058 3.52536,9.78619 5.27972,14.67514 0.1081,0.33257 0.41573,0.54876 0.7982,0.58201 h 0.0831 c 0.35752,0 0.67347,-0.17461 0.83144,-0.4573 l 6.58511,-9.60327 c 1.6047,-2.33638 3.2094,-4.68108 4.8141,-7.01746 0.65685,-0.95617 1.3137,-1.92066 1.97055,-2.87682 1.08089,-1.57976 2.19503,-3.20941 3.30086,-4.79748 l 0.0582,-0.0831 v -0.0998 c 0.0249,-0.29101 0.0333,-0.88966 -0.44898,-1.20561 m -7.71587,3.50042 c -1.54651,0.8065 -3.12627,1.63796 -4.71434,2.46109 0.92292,-0.98942 1.85414,-1.98717 2.77705,-2.97659 1.15572,-1.24718 2.36132,-2.53593 3.54199,-3.79974 l 0.0249,-0.0249 c 0.0998,-0.13303 0.2245,-0.25776 0.35753,-0.39079 0.0915,-0.0915 0.19123,-0.18292 0.28269,-0.291 0.61528,0.42403 1.23887,0.85639 1.83751,1.28044 0.43236,0.30763 0.87303,0.61527 1.32201,0.92291 -1.82919,0.93122 -3.65838,1.88739 -5.42938,2.81862 m -3.97435,-0.3991 c -1.18897,1.28875 -2.41952,2.61076 -3.64175,3.91614 -2.36964,-2.87682 -4.78917,-5.79522 -7.13386,-8.61384 -1.06427,-1.28044 -2.13684,-2.5692 -3.2011,-3.84963 l -0.008,-0.008 c -0.24112,-0.27438 -0.47393,-0.5737 -0.70673,-0.85639 -0.14967,-0.19124 -0.30764,-0.37416 -0.46562,-0.56539 0.96449,0.24944 1.93729,0.48224 2.89345,0.70674 0.83977,0.19954 1.7128,0.4074 2.5692,0.62358 4.82241,1.17235 9.65315,2.3447 14.47558,3.51705 -1.60471,1.71279 -3.21772,3.45052 -4.78085,5.13005 m -4.18221,16.20501 c 0.0915,-0.87302 0.19124,-1.771 0.27438,-2.65233 0.0748,-0.70674 0.14967,-1.4301 0.2245,-2.12021 0.11639,-1.10583 0.24112,-2.25323 0.34089,-3.3757 l 0.0249,-0.19954 c 0.0831,-0.71505 0.1663,-1.45504 0.21618,-2.19504 0.0915,-0.0499 0.19124,-0.0998 0.29933,-0.14134 0.12471,-0.0582 0.24943,-0.10809 0.37415,-0.18292 1.92066,-1.00606 3.84131,-2.01211 5.77028,-3.00986 1.92066,-0.99774 3.8912,-2.02874 5.84511,-3.05143 -1.77931,2.5775 -3.56693,5.17995 -5.29635,7.71588 -1.4883,2.17009 -3.01817,4.4067 -4.53973,6.61004 -0.59865,0.88134 -1.22224,1.77931 -1.81257,2.64402 -0.66516,0.96449 -1.34695,1.95392 -2.01211,2.94334 0.0831,-0.99774 0.18292,-2.0038 0.29101,-2.98491 m -11.59045,-24.2202 c -0.10809,-0.29933 -0.22449,-0.60697 -0.32426,-0.89797 2.24491,2.71053 4.50647,5.4377 6.70982,8.08172 1.13908,1.37189 2.27818,2.73547 3.41727,4.11568 0.22449,0.25775 0.44898,0.53213 0.66516,0.7982 0.28268,0.34089 0.56538,0.69842 0.87302,1.03931 -0.0998,0.85639 -0.18292,1.72111 -0.27438,2.55255 -0.0582,0.58203 -0.1164,1.16404 -0.18292,1.75437 v 0.008 c -0.0249,0.37414 -0.0748,0.7483 -0.11641,1.11414 -0.0582,0.50718 -0.19122,1.65459 -0.19122,1.65459 l -0.008,0.0582 c -0.14966,1.67953 -0.33258,3.3757 -0.50719,5.02197 -0.0748,0.68179 -0.14135,1.38022 -0.21617,2.07863 -0.0416,-0.12472 -0.0915,-0.24944 -0.13304,-0.36584 -0.12472,-0.33257 -0.24943,-0.68179 -0.36584,-1.02268 l -0.88965,-2.46942 c -2.81857,-7.84063 -5.6372,-15.67291 -8.45582,-23.52181"
       inkscape:connector-curvature="0"
       style="opacity:0.8;fill:#ffffff" />
    <g
       transform="matrix(1.1018299,0,0,1.1018299,137.53327,801.48385)"
       style="font-size:40px;font-style:normal;font-variant:normal;font-weight:600;font-stretch:normal;line-height:125%;letter-spacing:0px;word-spacing:0px;opacity:0.8;fill:#ffffff;fill-opacity:1;stroke:none;font-family:Conthrax;-inkscape-font-specification:Conthrax Semi-Bold"
       id="flowRoot3159">
      <path
         d="m 200.0975,33.010417 c 1.33332,2.8e-5 2.27999,0.280027 2.84,0.84 0.55999,0.53336 0.83999,1.386692 0.84,2.56 l 0,23.72 c -1e-5,0.586667 -0.29334,0.88 -0.88,0.88 l -4.12,0 c -0.58667,0 -0.88,-0.293333 -0.88,-0.88 l 0,-20.96 c 0,-0.559978 -0.28,-0.839978 -0.84,-0.84 l -2.28,0 c -0.61333,2.2e-5 -0.92,-0.293311 -0.92,-0.88 l 0,-3.56 c 0,-0.586639 0.30667,-0.879972 0.92,-0.88 l 5.32,0"
         style=""
         id="path3180" />
    </g>
  </g>
</svg>
