<?xml version="1.0" encoding="UTF-8" standalone="no"?>
<!-- Created with Inkscape (http://www.inkscape.org/) -->

<svg
   xmlns:dc="http://purl.org/dc/elements/1.1/"
   xmlns:cc="http://creativecommons.org/ns#"
   xmlns:rdf="http://www.w3.org/1999/02/22-rdf-syntax-ns#"
   xmlns:svg="http://www.w3.org/2000/svg"
   xmlns="http://www.w3.org/2000/svg"
   xmlns:xlink="http://www.w3.org/1999/xlink"
   xmlns:sodipodi="http://sodipodi.sourceforge.net/DTD/sodipodi-0.dtd"
   xmlns:inkscape="http://www.inkscape.org/namespaces/inkscape"
   width="460.62991"
   height="283.46457"
   id="svg2"
   version="1.1"
   inkscape:version="0.48.5 r10040"
   sodipodi:docname="usdt.svg"
   inkscape:export-filename="/home/mammique/Documents/daat/banknote/cryptos/dash.png"
   inkscape:export-xdpi="156.31"
   inkscape:export-ydpi="156.31">
  <defs
     id="defs4">
    <linearGradient
       id="linearGradient4925">
      <stop
         style="stop-color:#bd9800;stop-opacity:1;"
         offset="0"
         id="stop4927" />
      <stop
         id="stop3784"
         offset="0.51732481"
         style="stop-color:#ffcc04;stop-opacity:1;" />
      <stop
         offset="1"
         id="stop4929"
         style="stop-color:#a98500;stop-opacity:1;" />
    </linearGradient>
    <linearGradient
       id="linearGradient4835">
      <stop
         style="stop-color:#000000;stop-opacity:0.61572052"
         offset="0"
         id="stop4837" />
      <stop
         style="stop-color:#000000;stop-opacity:0;"
         offset="1"
         id="stop4839" />
    </linearGradient>
    <linearGradient
       inkscape:collect="always"
       id="linearGradient4531">
      <stop
         style="stop-color:#ffffff;stop-opacity:1;"
         offset="0"
         id="stop4533" />
      <stop
         style="stop-color:#ffffff;stop-opacity:0;"
         offset="1"
         id="stop4535" />
    </linearGradient>
    <clipPath
       clipPathUnits="userSpaceOnUse"
       id="clipPath5978">
      <rect
         style="color:#000000;fill:#cccccc;fill-opacity:1;fill-rule:nonzero;stroke:#003a00;stroke-width:0.89999998;stroke-linecap:butt;stroke-linejoin:miter;stroke-miterlimit:4;stroke-opacity:1;stroke-dasharray:none;stroke-dashoffset:0;marker:none;visibility:visible;display:inline;overflow:visible;enable-background:accumulate"
         id="rect5980"
         width="173.74623"
         height="1608.1628"
         x="610.13214"
         y="-378.01382"
         transform="matrix(0,-1,1,0,0,0)" />
    </clipPath>
    <inkscape:perspective
       id="perspective2497"
       inkscape:persp3d-origin="372.04724 : 350.78739 : 1"
       inkscape:vp_z="744.09448 : 526.18109 : 1"
       inkscape:vp_y="0 : 1000 : 0"
       inkscape:vp_x="0 : 526.18109 : 1"
       sodipodi:type="inkscape:persp3d" />
    <linearGradient
       inkscape:collect="always"
       xlink:href="#linearGradient4531"
       id="linearGradient4823"
       gradientUnits="userSpaceOnUse"
       x1="182.81697"
       y1="175.83376"
       x2="183.58928"
       y2="-16.309107"
       gradientTransform="translate(53.033008,825.69937)" />
    <radialGradient
       inkscape:collect="always"
       xlink:href="#linearGradient4835"
       id="radialGradient4845"
       cx="7.3256431"
       cy="198.2952"
       fx="7.3256431"
       fy="198.2952"
       r="109.27257"
       gradientTransform="matrix(0.19829552,0.15553474,-0.16582027,0.21140881,93.302602,945.5672)"
       gradientUnits="userSpaceOnUse" />
    <linearGradient
       id="linearGradient4925-6">
      <stop
         style="stop-color:#bd9800;stop-opacity:1;"
         offset="0"
         id="stop4927-7" />
      <stop
         id="stop3784-5"
         offset="0.5"
         style="stop-color:#ffcc04;stop-opacity:1;" />
      <stop
         offset="1"
         id="stop4929-3"
         style="stop-color:#a98500;stop-opacity:1;" />
    </linearGradient>
    <linearGradient
       gradientTransform="translate(-17.649337,-11.359598)"
       y2="38.317909"
       x2="313.61914"
       y1="142.8687"
       x1="50.479298"
       gradientUnits="userSpaceOnUse"
       id="linearGradient3802"
       xlink:href="#linearGradient4925-6"
       inkscape:collect="always" />
    <linearGradient
       id="linearGradient4925-2">
      <stop
         style="stop-color:#bd9800;stop-opacity:1;"
         offset="0"
         id="stop4927-3" />
      <stop
         id="stop3784-7"
         offset="0.38554054"
         style="stop-color:#ffcc04;stop-opacity:1;" />
      <stop
         offset="1"
         id="stop4929-5"
         style="stop-color:#a98500;stop-opacity:1;" />
    </linearGradient>
    <linearGradient
       y2="38.317909"
       x2="313.61914"
       y1="83.269699"
       x1="19.16457"
       gradientTransform="translate(-17.649337,-11.359581)"
       gradientUnits="userSpaceOnUse"
       id="linearGradient4077"
       xlink:href="#linearGradient4925-2"
       inkscape:collect="always" />
    <linearGradient
       id="linearGradient4925-28">
      <stop
         style="stop-color:#bd9800;stop-opacity:1;"
         offset="0"
         id="stop4927-9" />
      <stop
         id="stop3784-73"
         offset="0.51732481"
         style="stop-color:#ffcc04;stop-opacity:1;" />
      <stop
         offset="1"
         id="stop4929-6"
         style="stop-color:#a98500;stop-opacity:1;" />
    </linearGradient>
    <linearGradient
       y2="19.746481"
       x2="180.76199"
       y1="166.12685"
       x1="180.59314"
       gradientTransform="translate(-17.649337,-11.359581)"
       gradientUnits="userSpaceOnUse"
       id="linearGradient4113"
       xlink:href="#linearGradient4925-28"
       inkscape:collect="always" />
    <linearGradient
       id="linearGradient4925-7">
      <stop
         style="stop-color:#bd9800;stop-opacity:1;"
         offset="0"
         id="stop4927-5" />
      <stop
         id="stop3784-3"
         offset="0.51732481"
         style="stop-color:#ffcc04;stop-opacity:1;" />
      <stop
         offset="1"
         id="stop4929-56"
         style="stop-color:#a98500;stop-opacity:1;" />
    </linearGradient>
    <linearGradient
       y2="19.746481"
       x2="180.76199"
       y1="166.12685"
       x1="180.59314"
       gradientTransform="translate(-17.649337,-11.359581)"
       gradientUnits="userSpaceOnUse"
       id="linearGradient3327"
       xlink:href="#linearGradient4925-7"
       inkscape:collect="always" />
    <linearGradient
       id="linearGradient4925-7-1">
      <stop
         style="stop-color:#bd9800;stop-opacity:1;"
         offset="0"
         id="stop4927-5-2" />
      <stop
         id="stop3784-3-7"
         offset="0.51732481"
         style="stop-color:#ffcc04;stop-opacity:1;" />
      <stop
         offset="1"
         id="stop4929-56-0"
         style="stop-color:#a98500;stop-opacity:1;" />
    </linearGradient>
    <linearGradient
       y2="19.032196"
       x2="138.61914"
       y1="166.12685"
       x1="180.59314"
       gradientTransform="translate(-17.649337,-7.9568844)"
       gradientUnits="userSpaceOnUse"
       id="linearGradient3455"
       xlink:href="#linearGradient4925-7-1"
       inkscape:collect="always" />
    <linearGradient
       inkscape:collect="always"
       xlink:href="#linearGradient4925-7-6"
       id="linearGradient3350-3"
       gradientUnits="userSpaceOnUse"
       gradientTransform="translate(54.548237,823.78353)"
       x1="180.59314"
       y1="166.12685"
       x2="138.61914"
       y2="19.032196" />
    <linearGradient
       id="linearGradient4925-7-6">
      <stop
         style="stop-color:#bd9800;stop-opacity:1;"
         offset="0"
         id="stop4927-5-0" />
      <stop
         id="stop3784-3-6"
         offset="0.51732481"
         style="stop-color:#ffcc04;stop-opacity:1;" />
      <stop
         offset="1"
         id="stop4929-56-2"
         style="stop-color:#a98500;stop-opacity:1;" />
    </linearGradient>
    <linearGradient
       y2="19.032196"
       x2="138.61914"
       y1="166.12685"
       x1="180.59314"
       gradientTransform="translate(-17.649337,-7.9568844)"
       gradientUnits="userSpaceOnUse"
       id="linearGradient3491"
       xlink:href="#linearGradient4925-7-6"
       inkscape:collect="always" />
    <linearGradient
       id="linearGradient4835-7">
      <stop
         style="stop-color:#000000;stop-opacity:0.61572052"
         offset="0"
         id="stop4837-5" />
      <stop
         style="stop-color:#000000;stop-opacity:0;"
         offset="1"
         id="stop4839-9" />
    </linearGradient>
    <radialGradient
       r="109.27257"
       fy="198.2952"
       fx="7.3256431"
       cy="198.2952"
       cx="7.3256431"
       gradientTransform="matrix(0.19829552,0.15553474,-0.16582027,0.21140881,132.487,52.51516)"
       gradientUnits="userSpaceOnUse"
       id="radialGradient3545"
       xlink:href="#linearGradient4835-7"
       inkscape:collect="always" />
    <linearGradient
       id="linearGradient4835-8">
      <stop
         style="stop-color:#000000;stop-opacity:0.61572052"
         offset="0"
         id="stop4837-9" />
      <stop
         style="stop-color:#000000;stop-opacity:0;"
         offset="1"
         id="stop4839-7" />
    </linearGradient>
    <radialGradient
       r="109.27257"
       fy="198.2952"
       fx="7.3256431"
       cy="198.2952"
       cx="7.3256431"
       gradientTransform="matrix(0.19829552,0.15553474,-0.16582027,0.21140881,132.487,52.51516)"
       gradientUnits="userSpaceOnUse"
       id="radialGradient3578"
       xlink:href="#linearGradient4835-8"
       inkscape:collect="always" />
    <linearGradient
       inkscape:collect="always"
       xlink:href="#linearGradient4925-7-6-1"
       id="linearGradient3350-3-6"
       gradientUnits="userSpaceOnUse"
       gradientTransform="translate(54.548237,823.78353)"
       x1="180.59314"
       y1="166.12685"
       x2="138.61914"
       y2="19.032196" />
    <linearGradient
       id="linearGradient4925-7-6-1">
      <stop
         style="stop-color:#bd9800;stop-opacity:1;"
         offset="0"
         id="stop4927-5-0-2" />
      <stop
         id="stop3784-3-6-9"
         offset="0.51732481"
         style="stop-color:#ffcc04;stop-opacity:1;" />
      <stop
         offset="1"
         id="stop4929-56-2-3"
         style="stop-color:#a98500;stop-opacity:1;" />
    </linearGradient>
    <linearGradient
       y2="19.032196"
       x2="138.61914"
       y1="166.12685"
       x1="180.59314"
       gradientTransform="translate(-17.649337,-14.676051)"
       gradientUnits="userSpaceOnUse"
       id="linearGradient3612"
       xlink:href="#linearGradient4925-7-6-1"
       inkscape:collect="always" />
  </defs>
  <sodipodi:namedview
     id="base"
     pagecolor="#5271a5"
     bordercolor="#666666"
     borderopacity="1.0"
     inkscape:pageopacity="1"
     inkscape:pageshadow="2"
     inkscape:zoom="1.979899"
     inkscape:cx="232.26884"
     inkscape:cy="192.98876"
     inkscape:document-units="px"
     inkscape:current-layer="layer1"
     showgrid="false"
     units="mm"
     inkscape:window-width="1364"
     inkscape:window-height="747"
     inkscape:window-x="0"
     inkscape:window-y="19"
     inkscape:window-maximized="1"
     showguides="true"
     inkscape:guide-bbox="true" />
  <metadata
     id="metadata7">
    <rdf:RDF>
      <cc:Work
         rdf:about="">
        <dc:format>image/svg+xml</dc:format>
        <dc:type
           rdf:resource="http://purl.org/dc/dcmitype/StillImage" />
        <dc:title></dc:title>
      </cc:Work>
    </rdf:RDF>
  </metadata>
  <g
     inkscape:label="Calque 1"
     inkscape:groupmode="layer"
     id="layer1"
     transform="translate(0,-768.89763)">
    <g
       style="fill:none"
       id="g4"
       transform="matrix(1.9169216,0,0,1.9169203,105.518,880.48104)">
      <circle
         style="fill:#26a17b"
         sodipodi:ry="16"
         sodipodi:rx="16"
         sodipodi:cy="16"
         sodipodi:cx="16"
         cx="16"
         cy="16"
         r="16"
         id="circle6"
         d="M 32,16 C 32,24.836556 24.836556,32 16,32 7.163444,32 0,24.836556 0,16 0,7.163444 7.163444,0 16,0 24.836556,0 32,7.163444 32,16 z" />
      <path
         style="fill:#ffffff"
         inkscape:connector-curvature="0"
         d="m 17.922,17.383 v -0.002 c -0.11,0.008 -0.677,0.042 -1.942,0.042 -1.01,0 -1.721,-0.03 -1.971,-0.042 v 0.003 c -3.888,-0.171 -6.79,-0.848 -6.79,-1.658 0,-0.809 2.902,-1.486 6.79,-1.66 v 2.644 c 0.254,0.018 0.982,0.061 1.988,0.061 1.207,0 1.812,-0.05 1.925,-0.06 v -2.643 c 3.88,0.173 6.775,0.85 6.775,1.658 0,0.81 -2.895,1.485 -6.775,1.657 m 0,-3.59 v -2.366 h 5.414 V 7.819 H 8.595 v 3.608 h 5.414 v 2.365 C 9.609,13.994 6.3,14.866 6.3,15.91 c 0,1.044 3.309,1.915 7.709,2.118 v 7.582 h 3.913 v -7.584 c 4.393,-0.202 7.694,-1.073 7.694,-2.116 0,-1.043 -3.301,-1.914 -7.694,-2.117"
         id="path8" />
    </g>
    <path
       style="fill:#ffffff;opacity:0.80000000000000004"
       d="m 78.756838,846.2538 c -0.776171,-0.0888 -1.294705,-0.26893 -1.937048,-0.67297 -0.777924,-0.48932 -1.288387,-1.15952 -1.585367,-2.08148 -0.227672,-0.70679 -0.199007,-2.56926 0.04943,-3.21142 0.688902,-1.78069 2.101208,-2.66121 4.237612,-2.64198 1.163723,0.0105 1.830887,0.20713 2.559073,0.75427 0.992458,0.74572 1.424917,1.71829 1.45137,3.26404 l 0.01656,0.96852 -3.24936,0.0269 -3.249361,0.0269 0.06491,0.32456 c 0.143206,0.71603 0.724993,1.21586 1.71853,1.47644 0.587564,0.15411 0.757031,0.16024 1.318429,0.0476 0.354314,-0.0711 0.887366,-0.25013 1.184562,-0.39793 l 0.540355,-0.26874 0.575484,0.57548 c 0.551612,0.55161 0.568219,0.5835 0.400438,0.7689 -0.656163,0.72505 -2.580537,1.21407 -4.095629,1.04078 z m 2.905571,-5.44082 c 0,-0.35105 -0.528622,-1.0219 -0.982161,-1.24642 -0.615004,-0.30444 -1.986172,-0.27702 -2.559196,0.0512 -0.481734,0.27592 -0.944437,0.86917 -0.944437,1.21089 0,0.22379 0.0012,0.22391 2.242897,0.22391 l 2.242897,0 z m 22.072141,5.44154 c -2.08409,-0.24372 -3.333,-1.43136 -3.71864,-3.5362 -0.07357,-0.40154 -0.10406,-0.90619 -0.06776,-1.12145 0.03629,-0.21527 0.09254,-0.55196 0.124984,-0.74822 0.1017,-0.61494 0.54909,-1.45891 1.04416,-1.96972 1.63607,-1.68807 4.94382,-1.69429 6.42457,-0.0121 0.63037,0.71614 0.86426,1.41422 0.91166,2.72093 l 0.0397,1.09596 -3.21442,0 c -1.92131,0 -3.23852,0.039 -3.27432,0.0969 -0.1193,0.19304 0.36888,1.00733 0.77096,1.28598 0.4181,0.28974 1.25192,0.55417 1.74745,0.55417 0.4237,0 1.51754,-0.31628 1.82708,-0.5283 0.14884,-0.10194 0.33391,-0.18535 0.41128,-0.18535 0.0774,0 0.39143,0.25544 0.69792,0.56765 l 0.55724,0.56765 -0.30585,0.25394 c -0.29516,0.24506 -0.78772,0.50053 -1.4273,0.74026 -0.26093,0.0978 -1.73441,0.33234 -1.88607,0.3002 -0.028,-0.006 -0.32624,-0.043 -0.66268,-0.0823 z m 2.90389,-5.38038 c -0.003,-0.36707 -0.46527,-0.99456 -0.91894,-1.24859 -0.38737,-0.21691 -0.58563,-0.25498 -1.32227,-0.25394 -1.0394,0.001 -1.56694,0.22987 -2.04037,0.88341 -0.58651,0.80967 -0.61677,0.79754 1.98939,0.79754 2.11732,0 2.29374,-0.0137 2.29219,-0.17842 z m -35.466187,5.10921 c -0.543394,-0.27078 -1.132129,-0.92368 -1.132129,-1.25551 0,-0.0925 -0.04499,-0.2132 -0.09998,-0.26819 -0.05785,-0.0579 -0.111548,-1.08665 -0.127437,-2.4417 l -0.02746,-2.34172 -0.764624,-0.051 -0.764624,-0.051 0,-0.76462 0,-0.76463 0.764624,-0.051 0.764624,-0.051 0.02876,-1.07839 0.02876,-1.07838 0.914277,-0.0946 0.914278,-0.0946 0,1.07612 c 0,0.70105 0.04264,1.11876 0.12234,1.19846 0.07938,0.0794 0.492578,0.12234 1.176712,0.12234 l 1.054373,0 -0.02978,0.79011 -0.02978,0.79011 -1.146935,0.0288 -1.146937,0.0288 0,2.02058 c 0,1.93626 0.0097,2.03504 0.233193,2.367 0.348768,0.5181 0.705496,0.65496 1.330904,0.5106 0.281023,-0.0649 0.545102,-0.0825 0.586841,-0.0391 0.08241,0.0856 0.499759,1.28801 0.499759,1.43983 0,0.16158 -0.873729,0.32117 -1.758276,0.32117 -0.716507,0 -0.938325,-0.0428 -1.39149,-0.26865 z m 15.815901,0.0306 c -0.569582,-0.20657 -1.052307,-0.67354 -1.322522,-1.27935 -0.248686,-0.55756 -0.254972,-0.6297 -0.239606,-2.74969 0.01101,-1.52074 -0.0198,-2.21999 -0.102279,-2.31936 -0.08006,-0.0965 -0.343722,-0.14225 -0.819224,-0.14225 l -0.701168,0 0,-0.8156 0,-0.8156 0.752735,0 c 0.886851,0 0.875379,0.0168 0.840787,-1.23309 -0.01235,-0.44583 0.0033,-0.85215 0.03464,-0.90294 0.03138,-0.0508 0.456252,-0.12473 0.944136,-0.16431 l 0.887068,-0.072 0.02894,1.16067 0.02894,1.16068 1.121448,0.051 1.121449,0.051 0.02971,0.78673 0.02971,0.78674 -1.15116,0.0289 -1.151163,0.0289 -0.03091,1.98802 c -0.04366,2.80818 0.07737,2.98822 1.898914,2.82486 0.207265,-0.0186 0.267344,0.0678 0.481631,0.69241 0.134644,0.39251 0.246007,0.7408 0.247452,0.77398 0.01178,0.27018 -2.280759,0.39571 -2.929562,0.1604 z m 3.951692,-5.777 0,-5.92103 0.89206,0.0294 0.892063,0.0295 0.02747,2.21741 c 0.02917,2.35399 0.06015,2.48013 0.491963,2.00266 0.555584,-0.61433 1.766635,-0.94948 2.84491,-0.7873 0.873669,0.1314 1.329617,0.35403 1.806785,0.88219 0.806639,0.89285 0.899872,1.37623 0.902143,4.67751 l 0.0017,2.73177 -0.922116,0.0293 -0.922129,0.0293 0,-2.3545 c 0,-2.60223 -0.0659,-3.04652 -0.536611,-3.61757 -0.729321,-0.88479 -2.065839,-0.89915 -2.919539,-0.0313 -0.61853,0.62874 -0.655833,0.81043 -0.718083,3.49801 l -0.05668,2.4468 -0.892063,0.0294 -0.89206,0.0294 0,-5.92103 z m 18.908814,5.7894 c -0.0278,-0.0724 -0.0385,-1.92078 -0.0238,-4.10747 l 0.0267,-3.9758 0.89206,-0.0295 0.89206,-0.0294 0,0.31301 c 0,0.46879 0.25402,0.4985 0.69535,0.0813 0.49889,-0.47158 0.88489,-0.60882 1.72723,-0.6141 0.74464,-0.005 1.5429,0.20843 1.94805,0.52002 l 0.24166,0.18585 -0.1878,0.39811 c -0.1033,0.21895 -0.29505,0.59092 -0.42612,0.8266 l -0.23831,0.4285 -0.40022,-0.20861 c -0.54094,-0.28195 -1.12008,-0.34511 -1.70274,-0.18569 -0.57766,0.15804 -0.89021,0.38244 -1.24257,0.89208 -0.26026,0.37643 -0.26187,0.39169 -0.31258,2.97808 l -0.051,2.59973 -0.89373,0.0295 c -0.65824,0.0217 -0.90704,-0.005 -0.94425,-0.10219 z"
       id="path3089"
       inkscape:connector-curvature="0"
       sodipodi:nodetypes="ssssssscccsssscsssssssscsssscssscssssssccsscscsssscsssscccccccccccssscccccsssssssssssscccsscscccccccccssccsccccssssccccssssccccccscccssssccscsscscsc" />
    <g
       id="g3148"
       style="opacity:0.8"
       transform="matrix(0.90257171,0,0,0.90257171,3.895238,87.901959)">
      <path
         id="path3136"
         d="m 421.13963,845.31887 v -0.004 c -0.21086,0.0153 -1.29776,0.0805 -3.72266,0.0805 -1.93609,0 -3.29902,-0.0575 -3.77826,-0.0805 v 0.006 c -7.45299,-0.32779 -13.01589,-1.62555 -13.01589,-3.17825 0,-1.55079 5.5629,-2.84854 13.01589,-3.18209 v 5.06834 c 0.4869,0.0345 1.88242,0.11693 3.81084,0.11693 2.31373,0 3.47347,-0.0959 3.69008,-0.11501 v -5.06643 c 7.43765,0.33163 12.98714,1.62939 12.98714,3.17826 0,1.5527 -5.54949,2.84663 -12.98714,3.17634 m 0,-6.88175 v -4.53543 h 10.37821 v -6.91625 H 403.2605 v 6.91625 h 10.37821 v 4.53351 c -8.43445,0.38722 -14.77754,2.05878 -14.77754,4.06004 0,2.00127 6.34309,3.6709 14.77754,4.06004 v 14.53409 h 7.50092 v -14.53801 c 8.42104,-0.38722 14.74879,-2.05686 14.74879,-4.05621 0,-1.99935 -6.32775,-3.66898 -14.74879,-4.05812"
         inkscape:connector-curvature="0"
         style="fill:#ffffff" />
      <g
         transform="matrix(1.230303,0,0,1.230303,94.194467,848.33186)"
         style="font-size:40px;font-style:normal;font-variant:normal;font-weight:500;font-stretch:normal;line-height:125%;letter-spacing:0px;word-spacing:0px;fill:#ffffff;fill-opacity:1;stroke:none;font-family:Ubuntu;-inkscape-font-specification:Ubuntu Medium"
         id="flowRoot3140">
        <path
           d="m 231.38125,-11.590494 c 1.54666,-0.613311 3.09333,-1.399977 4.64,-2.36 1.57332,-0.959975 2.95999,-2.093307 4.16,-3.4 l 3.4,0 0,27.72 -4.84,0 0,-21.24 c -0.72001,0.560021 -1.62668,1.1066869 -2.72,1.6400001 -1.09334,0.5333524 -2.14667,0.973352 -3.16,1.32 l -1.48,-3.6800001"
           style=""
           id="path3175" />
      </g>
    </g>
  </g>
</svg>
