<?xml version="1.0" encoding="UTF-8" standalone="no"?>
<!-- Created with Inkscape (http://www.inkscape.org/) -->

<svg
   xmlns:dc="http://purl.org/dc/elements/1.1/"
   xmlns:cc="http://creativecommons.org/ns#"
   xmlns:rdf="http://www.w3.org/1999/02/22-rdf-syntax-ns#"
   xmlns:svg="http://www.w3.org/2000/svg"
   xmlns="http://www.w3.org/2000/svg"
   xmlns:xlink="http://www.w3.org/1999/xlink"
   xmlns:sodipodi="http://sodipodi.sourceforge.net/DTD/sodipodi-0.dtd"
   xmlns:inkscape="http://www.inkscape.org/namespaces/inkscape"
   width="460.62991"
   height="283.46457"
   id="svg2"
   version="1.1"
   inkscape:version="0.48.5 r10040"
   sodipodi:docname="veri.svg"
   inkscape:export-filename="/home/mammique/Documents/daat/banknote/cryptos/dash.png"
   inkscape:export-xdpi="156.31"
   inkscape:export-ydpi="156.31">
  <defs
     id="defs4">
    <linearGradient
       id="linearGradient4925">
      <stop
         style="stop-color:#bd9800;stop-opacity:1;"
         offset="0"
         id="stop4927" />
      <stop
         id="stop3784"
         offset="0.51732481"
         style="stop-color:#ffcc04;stop-opacity:1;" />
      <stop
         offset="1"
         id="stop4929"
         style="stop-color:#a98500;stop-opacity:1;" />
    </linearGradient>
    <linearGradient
       id="linearGradient4835">
      <stop
         style="stop-color:#000000;stop-opacity:0.61572052"
         offset="0"
         id="stop4837" />
      <stop
         style="stop-color:#000000;stop-opacity:0;"
         offset="1"
         id="stop4839" />
    </linearGradient>
    <linearGradient
       inkscape:collect="always"
       id="linearGradient4531">
      <stop
         style="stop-color:#ffffff;stop-opacity:1;"
         offset="0"
         id="stop4533" />
      <stop
         style="stop-color:#ffffff;stop-opacity:0;"
         offset="1"
         id="stop4535" />
    </linearGradient>
    <clipPath
       clipPathUnits="userSpaceOnUse"
       id="clipPath5978">
      <rect
         style="color:#000000;fill:#cccccc;fill-opacity:1;fill-rule:nonzero;stroke:#003a00;stroke-width:0.89999998;stroke-linecap:butt;stroke-linejoin:miter;stroke-miterlimit:4;stroke-opacity:1;stroke-dasharray:none;stroke-dashoffset:0;marker:none;visibility:visible;display:inline;overflow:visible;enable-background:accumulate"
         id="rect5980"
         width="173.74623"
         height="1608.1628"
         x="610.13214"
         y="-378.01382"
         transform="matrix(0,-1,1,0,0,0)" />
    </clipPath>
    <inkscape:perspective
       id="perspective2497"
       inkscape:persp3d-origin="372.04724 : 350.78739 : 1"
       inkscape:vp_z="744.09448 : 526.18109 : 1"
       inkscape:vp_y="0 : 1000 : 0"
       inkscape:vp_x="0 : 526.18109 : 1"
       sodipodi:type="inkscape:persp3d" />
    <linearGradient
       inkscape:collect="always"
       xlink:href="#linearGradient4531"
       id="linearGradient4823"
       gradientUnits="userSpaceOnUse"
       x1="182.81697"
       y1="175.83376"
       x2="183.58928"
       y2="-16.309107"
       gradientTransform="translate(53.033008,825.69937)" />
    <radialGradient
       inkscape:collect="always"
       xlink:href="#linearGradient4835"
       id="radialGradient4845"
       cx="7.3256431"
       cy="198.2952"
       fx="7.3256431"
       fy="198.2952"
       r="109.27257"
       gradientTransform="matrix(0.19829552,0.15553474,-0.16582027,0.21140881,93.302602,945.5672)"
       gradientUnits="userSpaceOnUse" />
    <linearGradient
       id="linearGradient4925-6">
      <stop
         style="stop-color:#bd9800;stop-opacity:1;"
         offset="0"
         id="stop4927-7" />
      <stop
         id="stop3784-5"
         offset="0.5"
         style="stop-color:#ffcc04;stop-opacity:1;" />
      <stop
         offset="1"
         id="stop4929-3"
         style="stop-color:#a98500;stop-opacity:1;" />
    </linearGradient>
    <linearGradient
       gradientTransform="translate(-17.649337,-11.359598)"
       y2="38.317909"
       x2="313.61914"
       y1="142.8687"
       x1="50.479298"
       gradientUnits="userSpaceOnUse"
       id="linearGradient3802"
       xlink:href="#linearGradient4925-6"
       inkscape:collect="always" />
    <linearGradient
       id="linearGradient4925-2">
      <stop
         style="stop-color:#bd9800;stop-opacity:1;"
         offset="0"
         id="stop4927-3" />
      <stop
         id="stop3784-7"
         offset="0.38554054"
         style="stop-color:#ffcc04;stop-opacity:1;" />
      <stop
         offset="1"
         id="stop4929-5"
         style="stop-color:#a98500;stop-opacity:1;" />
    </linearGradient>
    <linearGradient
       y2="38.317909"
       x2="313.61914"
       y1="83.269699"
       x1="19.16457"
       gradientTransform="translate(-17.649337,-11.359581)"
       gradientUnits="userSpaceOnUse"
       id="linearGradient4077"
       xlink:href="#linearGradient4925-2"
       inkscape:collect="always" />
    <linearGradient
       id="linearGradient4925-28">
      <stop
         style="stop-color:#bd9800;stop-opacity:1;"
         offset="0"
         id="stop4927-9" />
      <stop
         id="stop3784-73"
         offset="0.51732481"
         style="stop-color:#ffcc04;stop-opacity:1;" />
      <stop
         offset="1"
         id="stop4929-6"
         style="stop-color:#a98500;stop-opacity:1;" />
    </linearGradient>
    <linearGradient
       y2="19.746481"
       x2="180.76199"
       y1="166.12685"
       x1="180.59314"
       gradientTransform="translate(-17.649337,-11.359581)"
       gradientUnits="userSpaceOnUse"
       id="linearGradient4113"
       xlink:href="#linearGradient4925-28"
       inkscape:collect="always" />
    <linearGradient
       id="linearGradient4925-7">
      <stop
         style="stop-color:#bd9800;stop-opacity:1;"
         offset="0"
         id="stop4927-5" />
      <stop
         id="stop3784-3"
         offset="0.51732481"
         style="stop-color:#ffcc04;stop-opacity:1;" />
      <stop
         offset="1"
         id="stop4929-56"
         style="stop-color:#a98500;stop-opacity:1;" />
    </linearGradient>
    <linearGradient
       y2="19.746481"
       x2="180.76199"
       y1="166.12685"
       x1="180.59314"
       gradientTransform="translate(-17.649337,-11.359581)"
       gradientUnits="userSpaceOnUse"
       id="linearGradient3327"
       xlink:href="#linearGradient4925-7"
       inkscape:collect="always" />
    <linearGradient
       id="linearGradient4925-7-1">
      <stop
         style="stop-color:#bd9800;stop-opacity:1;"
         offset="0"
         id="stop4927-5-2" />
      <stop
         id="stop3784-3-7"
         offset="0.51732481"
         style="stop-color:#ffcc04;stop-opacity:1;" />
      <stop
         offset="1"
         id="stop4929-56-0"
         style="stop-color:#a98500;stop-opacity:1;" />
    </linearGradient>
    <linearGradient
       y2="19.032196"
       x2="138.61914"
       y1="166.12685"
       x1="180.59314"
       gradientTransform="translate(-17.649337,-7.9568844)"
       gradientUnits="userSpaceOnUse"
       id="linearGradient3455"
       xlink:href="#linearGradient4925-7-1"
       inkscape:collect="always" />
    <linearGradient
       inkscape:collect="always"
       xlink:href="#linearGradient4925-7-6"
       id="linearGradient3350-3"
       gradientUnits="userSpaceOnUse"
       gradientTransform="translate(54.548237,823.78353)"
       x1="180.59314"
       y1="166.12685"
       x2="138.61914"
       y2="19.032196" />
    <linearGradient
       id="linearGradient4925-7-6">
      <stop
         style="stop-color:#bd9800;stop-opacity:1;"
         offset="0"
         id="stop4927-5-0" />
      <stop
         id="stop3784-3-6"
         offset="0.51732481"
         style="stop-color:#ffcc04;stop-opacity:1;" />
      <stop
         offset="1"
         id="stop4929-56-2"
         style="stop-color:#a98500;stop-opacity:1;" />
    </linearGradient>
    <linearGradient
       y2="19.032196"
       x2="138.61914"
       y1="166.12685"
       x1="180.59314"
       gradientTransform="translate(-17.649337,-7.9568844)"
       gradientUnits="userSpaceOnUse"
       id="linearGradient3491"
       xlink:href="#linearGradient4925-7-6"
       inkscape:collect="always" />
    <linearGradient
       id="linearGradient4835-7">
      <stop
         style="stop-color:#000000;stop-opacity:0.61572052"
         offset="0"
         id="stop4837-5" />
      <stop
         style="stop-color:#000000;stop-opacity:0;"
         offset="1"
         id="stop4839-9" />
    </linearGradient>
    <radialGradient
       r="109.27257"
       fy="198.2952"
       fx="7.3256431"
       cy="198.2952"
       cx="7.3256431"
       gradientTransform="matrix(0.19829552,0.15553474,-0.16582027,0.21140881,132.487,52.51516)"
       gradientUnits="userSpaceOnUse"
       id="radialGradient3545"
       xlink:href="#linearGradient4835-7"
       inkscape:collect="always" />
    <linearGradient
       id="linearGradient4835-8">
      <stop
         style="stop-color:#000000;stop-opacity:0.61572052"
         offset="0"
         id="stop4837-9" />
      <stop
         style="stop-color:#000000;stop-opacity:0;"
         offset="1"
         id="stop4839-7" />
    </linearGradient>
    <radialGradient
       r="109.27257"
       fy="198.2952"
       fx="7.3256431"
       cy="198.2952"
       cx="7.3256431"
       gradientTransform="matrix(0.19829552,0.15553474,-0.16582027,0.21140881,132.487,52.51516)"
       gradientUnits="userSpaceOnUse"
       id="radialGradient3578"
       xlink:href="#linearGradient4835-8"
       inkscape:collect="always" />
    <linearGradient
       inkscape:collect="always"
       xlink:href="#linearGradient4925-7-6-1"
       id="linearGradient3350-3-6"
       gradientUnits="userSpaceOnUse"
       gradientTransform="translate(54.548237,823.78353)"
       x1="180.59314"
       y1="166.12685"
       x2="138.61914"
       y2="19.032196" />
    <linearGradient
       id="linearGradient4925-7-6-1">
      <stop
         style="stop-color:#bd9800;stop-opacity:1;"
         offset="0"
         id="stop4927-5-0-2" />
      <stop
         id="stop3784-3-6-9"
         offset="0.51732481"
         style="stop-color:#ffcc04;stop-opacity:1;" />
      <stop
         offset="1"
         id="stop4929-56-2-3"
         style="stop-color:#a98500;stop-opacity:1;" />
    </linearGradient>
    <linearGradient
       y2="19.032196"
       x2="138.61914"
       y1="166.12685"
       x1="180.59314"
       gradientTransform="translate(-17.649337,-14.676051)"
       gradientUnits="userSpaceOnUse"
       id="linearGradient3612"
       xlink:href="#linearGradient4925-7-6-1"
       inkscape:collect="always" />
  </defs>
  <sodipodi:namedview
     id="base"
     pagecolor="#5271a5"
     bordercolor="#666666"
     borderopacity="1.0"
     inkscape:pageopacity="1"
     inkscape:pageshadow="2"
     inkscape:zoom="1.979899"
     inkscape:cx="236.18021"
     inkscape:cy="154.86166"
     inkscape:document-units="px"
     inkscape:current-layer="layer1"
     showgrid="false"
     units="mm"
     inkscape:window-width="1918"
     inkscape:window-height="1059"
     inkscape:window-x="1366"
     inkscape:window-y="19"
     inkscape:window-maximized="1"
     showguides="true"
     inkscape:guide-bbox="true" />
  <metadata
     id="metadata7">
    <rdf:RDF>
      <cc:Work
         rdf:about="">
        <dc:format>image/svg+xml</dc:format>
        <dc:type
           rdf:resource="http://purl.org/dc/dcmitype/StillImage" />
        <dc:title />
      </cc:Work>
    </rdf:RDF>
  </metadata>
  <g
     inkscape:label="Calque 1"
     inkscape:groupmode="layer"
     id="layer1"
     transform="translate(0,-768.89763)">
    <g
       style="fill:none"
       id="g4"
       transform="matrix(1.9169063,0,0,1.9169063,105.51824,880.48126)">
      <circle
         style="fill:#ff9933"
         sodipodi:ry="16"
         sodipodi:rx="16"
         sodipodi:cy="16"
         sodipodi:cx="16"
         cx="16"
         cy="16"
         r="16"
         id="circle6"
         d="M 32,16 C 32,24.836556 24.836556,32 16,32 7.163444,32 0,24.836556 0,16 0,7.163444 7.163444,0 16,0 24.836556,0 32,7.163444 32,16 z" />
      <path
         style="fill:#ffffff"
         inkscape:connector-curvature="0"
         d="m 6,8 c 1.104,0.002 2.209,0.002 3.312,0 l 2.091,11.18 c 0.033,0.165 0.073,0.328 0.116,0.49 0.164,-0.65 0.267,-1.314 0.404,-1.97 L 13.827,8 17.031,8.001 c -1.175,5.232 -2.35,10.465 -3.527,15.697 H 9.527 C 8.35,18.469 7.175,13.24 6,8.01 V 8 z m 12.314,4.932 c 0.697,-0.876 1.811,-1.273 2.885,-1.343 1.06,-0.074 2.202,0.022 3.1,0.654 0.795,0.556 1.231,1.496 1.438,2.431 0.251,1.172 0.264,2.376 0.263,3.57 h -5.87 c 0.005,0.883 -0.05,1.794 0.245,2.64 0.143,0.416 0.41,0.83 0.834,0.981 0.452,0.147 0.996,0.051 1.326,-0.313 0.44,-0.498 0.532,-1.196 0.628,-1.835 h 2.664 c -0.06,1.06 -0.256,2.18 -0.95,3.013 -0.696,0.866 -1.818,1.22 -2.88,1.263 C 20.843,24.037 19.59,23.88 18.67,23.103 17.815,22.39 17.442,21.26 17.294,20.177 17.146,18.93 17.138,17.668 17.207,16.415 17.3,15.193 17.521,13.899 18.313,12.931 z m 2.274,1.245 c -0.454,0.654 -0.466,1.496 -0.458,2.267 h 3.032 C 23.115,15.711 23.12,14.937 22.79,14.266 22.38,13.438 21.084,13.435 20.59,14.178 h -0.002 z"
         id="path8" />
    </g>
    <path
       style="opacity:0.8;color:#000000;fill:#ffffff;fill-opacity:1;fill-rule:nonzero;stroke:none;stroke-width:1;marker:none;visibility:visible;display:inline;overflow:visible;enable-background:accumulate"
       d="m 77.233887,843.78222 c -0.719742,-0.101 -1.119525,-0.26602 -1.494749,-0.617 -0.475075,-0.44437 -0.696576,-1.10187 -0.758025,-2.25008 -0.07505,-1.40238 0.06186,-2.56011 0.375436,-3.17477 0.236721,-0.46401 0.710669,-0.86251 1.245072,-1.04684 0.37956,-0.13093 1.253157,-0.18282 1.717237,-0.10201 0.619202,0.10784 1.146784,0.45034 1.425027,0.92512 0.290485,0.49568 0.455846,1.32768 0.45614,2.29502 l 1.78e-4,0.62887 -1.763391,0 -1.763391,0 0.02976,0.5814 c 0.05593,1.09243 0.333516,1.57809 0.901992,1.57809 0.474125,0 0.77392,-0.33951 0.892062,-1.01021 l 0.05196,-0.29498 0.78357,0 0.783567,0 -0.03191,0.32036 c -0.111042,1.11478 -0.657392,1.83697 -1.569408,2.07452 -0.285694,0.0744 -1.028096,0.12802 -1.281145,0.0925 z m 1.285535,-4.78888 c -0.07398,-0.91187 -0.316748,-1.25811 -0.882114,-1.25811 -0.363765,0 -0.599115,0.15484 -0.780473,0.5135 -0.08821,0.17444 -0.199557,0.95145 -0.15353,1.0714 0.02546,0.0663 0.147298,0.0763 0.93904,0.0763 l 0.90978,0 z m 14.556189,4.71922 c -0.506438,-0.19964 -0.854899,-0.69614 -0.997861,-1.4218 -0.06594,-0.33469 -0.06896,-0.45754 -0.02065,-0.84003 0.13014,-1.03039 0.555839,-1.45168 1.835686,-1.81668 1.188788,-0.33903 1.280325,-0.37264 1.424329,-0.52295 0.124569,-0.13003 0.141973,-0.1847 0.155415,-0.48824 0.01944,-0.43905 -0.07106,-0.63126 -0.367673,-0.78083 -0.269332,-0.13583 -0.541875,-0.13583 -0.80771,0 -0.250976,0.12822 -0.375297,0.34461 -0.414126,0.72083 l -0.02725,0.26398 -0.800201,0 -0.800201,0 0,-0.27479 c 0,-0.31796 0.09922,-0.736 0.240349,-1.01262 0.359498,-0.70468 1.275555,-1.0842 2.464942,-1.02123 1.457488,0.0772 2.079634,0.52741 2.227523,1.61203 0.02983,0.21866 0.05088,1.29158 0.05116,2.61037 4.43e-4,1.88005 0.01238,2.28097 0.07429,2.50014 0.04058,0.14357 0.07773,0.29307 0.08252,0.33223 0.0072,0.0605 -0.114774,0.0731 -0.808142,0.0841 -0.936638,0.0149 -0.907073,0.0281 -1.022147,-0.45636 -0.03198,-0.13465 -0.07446,-0.24481 -0.09438,-0.24481 -0.01993,0 -0.03623,0.0222 -0.03623,0.0495 0,0.11314 -0.46487,0.5407 -0.711918,0.65477 -0.224966,0.10388 -0.339736,0.12257 -0.830572,0.13524 -0.485564,0.0126 -0.606046,2.6e-4 -0.817177,-0.0829 z m 1.779792,-1.20998 c 0.233992,-0.0978 0.429651,-0.28693 0.537357,-0.51956 0.07431,-0.16051 0.08806,-0.31244 0.08893,-0.98322 l 0.0011,-0.79337 -0.154249,0.0906 c -0.08484,0.0498 -0.35428,0.15522 -0.598763,0.23426 -0.748714,0.24206 -0.952617,0.48561 -0.954551,1.14016 -0.0012,0.40999 0.1202,0.72203 0.324011,0.83273 0.166995,0.0907 0.537154,0.0899 0.756215,-0.002 z m 4.81297,1.21158 c -0.674432,-0.17667 -1.140792,-0.55061 -1.335388,-1.07072 -0.100268,-0.26799 -0.218909,-1.1162 -0.172897,-1.2361 0.02115,-0.0552 0.169553,-0.065 0.821869,-0.0543 l 0.796029,0.013 0.01202,0.16611 c 0.03263,0.45004 0.06977,0.57838 0.215864,0.74472 0.19238,0.21911 0.38873,0.29945 0.73166,0.29936 0.47924,-1.8e-4 0.78002,-0.24516 0.8467,-0.68977 0.0393,-0.26242 -0.0978,-0.56846 -0.3224,-0.71959 -0.0852,-0.0573 -0.53633,-0.24353 -1.00246,-0.41375 -0.466137,-0.17023 -0.945331,-0.36683 -1.064885,-0.43689 -0.352237,-0.20642 -0.615902,-0.48266 -0.781035,-0.81825 -0.149109,-0.30304 -0.154242,-0.33325 -0.154242,-0.90758 0,-0.54521 0.01048,-0.61644 0.1272,-0.8655 0.252268,-0.53823 0.746646,-0.92633 1.415284,-1.11102 0.482828,-0.13336 1.524138,-0.1213 1.993378,0.0231 0.58927,0.18132 0.92722,0.43986 1.15643,0.88471 0.11857,0.23011 0.21708,0.71582 0.21901,1.07975 l 9e-4,0.17798 -0.80267,0 -0.80267,0 -0.0305,-0.20171 c -0.0616,-0.40799 -0.0837,-0.46754 -0.2324,-0.62519 -0.11418,-0.12107 -0.20751,-0.1692 -0.37755,-0.1947 -0.89281,-0.13388 -1.34453,0.84291 -0.61665,1.33342 0.0821,0.0553 0.50868,0.2233 0.9481,0.37336 0.92676,0.31649 1.27883,0.49039 1.55792,0.76948 0.34308,0.34308 0.49598,0.77161 0.49702,1.39301 9.1e-4,0.6459 -0.21441,1.17039 -0.64038,1.5586 -0.29877,0.27229 -0.5654,0.40761 -1.04467,0.53018 -0.50408,0.12893 -1.46331,0.1281 -1.958699,-0.002 z m 6.184657,0.0479 c -0.93836,-0.18708 -1.52615,-0.78469 -1.7845,-1.81431 -0.0776,-0.30953 -0.10374,-0.60223 -0.12412,-1.39322 -0.0463,-1.79481 0.15462,-2.68807 0.74478,-3.31208 0.43216,-0.45695 0.99343,-0.68238 1.80456,-0.72479 1.32579,-0.0693 2.15055,0.44038 2.50787,1.54983 0.13891,0.43131 0.1917,0.81295 0.22811,1.64928 l 0.0315,0.72378 -1.76344,0 -1.76345,0 0,0.5121 c 0,0.77435 0.18005,1.33955 0.4884,1.53322 0.19993,0.12557 0.63795,0.10645 0.829,-0.0362 0.17998,-0.13437 0.34023,-0.46755 0.40404,-0.84005 l 0.054,-0.31476 0.81869,0 0.8187,0 -0.0259,0.24916 c -0.12764,1.22473 -0.67442,1.93029 -1.7,2.19364 -0.30317,0.0778 -1.22783,0.0922 -1.56811,0.0244 z m 1.62205,-4.8284 c -0.0376,-0.52732 -0.13872,-0.82493 -0.34074,-1.0023 -0.29315,-0.2574 -0.76706,-0.23832 -1.05423,0.0425 -0.19984,0.19539 -0.34574,0.63936 -0.34574,1.05213 l 0,0.32302 0.88514,0 0.88514,0 z m 3.83599,4.81009 c -0.4739,-0.15026 -0.7299,-0.35689 -0.9313,-0.75166 -0.21477,-0.42099 -0.22981,-0.65303 -0.23068,-3.56008 l -8e-4,-2.7409 0.90024,0 0.90022,0 0.0134,2.62224 c 0.0145,2.85065 0.009,2.78972 0.28277,2.99242 0.2995,0.22159 0.92385,0.12787 1.15063,-0.17271 0.20758,-0.27515 0.21687,-0.40291 0.21715,-2.98582 l 2.6e-4,-2.45613 0.90208,0 0.90207,0 -0.0122,3.47654 -0.0122,3.47654 -0.83058,0 -0.83056,0 -0.0138,-0.39271 -0.0138,-0.3927 -0.15442,0.20247 c -0.37945,0.49749 -0.93546,0.75124 -1.63435,0.74588 -0.22787,-0.002 -0.49973,-0.0303 -0.60414,-0.0634 z m -21.594872,-0.0948 c -0.308662,-0.0759 -0.40695,-0.13206 -0.584167,-0.3339 -0.261506,-0.29783 -0.263906,-0.32301 -0.28197,-2.95758 l -0.01667,-2.43239 -0.448491,0 -0.448492,0 0,-0.61699 0,-0.617 0.450881,0 0.450882,0 0,-0.99773 0,-0.99774 0.889899,0.0129 0.889898,0.0129 0.01282,0.98483 0.01283,0.98481 0.497381,0 0.497381,0 0,0.617 0,0.61699 -0.499765,0 -0.499765,0 0.01329,2.11617 0.01329,2.11617 0.133166,0.11451 c 0.114965,0.0989 0.181454,0.11451 0.486477,0.11451 l 0.353314,0 0,0.63377 0,0.63376 -0.363121,0.0307 c -0.550868,0.0465 -1.293571,0.0295 -1.559061,-0.0357 z m -8.677499,-0.0127 c -0.01741,-0.0174 -0.03164,-1.58718 -0.03164,-3.4884 l 0,-3.45676 0.878033,0 0.878032,0 0,0.46017 0,0.46018 0.139754,-0.22037 c 0.360044,-0.56773 0.842515,-0.85987 1.426468,-0.86373 l 0.35596,-0.003 0.01293,0.86478 0.01293,0.86479 -0.47735,-0.004 c -0.424579,-0.003 -0.505914,0.0106 -0.735745,0.12306 -0.286503,0.14017 -0.497604,0.36513 -0.593485,0.63243 -0.04812,0.13416 -0.06764,0.71073 -0.08189,2.41869 l -0.01872,2.24254 -0.866817,0 c -0.47675,0 -0.881055,-0.0143 -0.898457,-0.0316 z m 4.382254,-3.45676 0,-3.49049 0.889899,0.0129 0.889899,0.0129 0,3.46467 0,3.46467 -0.889899,0.0129 -0.889899,0.0129 z m 31.214727,3.4578 c -0.018,-0.018 -0.0327,-1.58822 -0.0327,-3.48944 l 0,-3.45676 0.85431,0 0.85429,0 0,0.33945 0,0.33945 0.27546,-0.26274 c 0.32842,-0.31325 0.64187,-0.48135 1.04571,-0.56081 0.85643,-0.16848 1.68768,0.18699 1.97846,0.84608 l 0.0872,0.19772 0.13159,-0.23039 c 0.17439,-0.30536 0.51893,-0.59278 0.87065,-0.72634 0.39625,-0.15046 1.11041,-0.14802 1.50546,0.005 0.37272,0.14451 0.69326,0.49851 0.84834,0.93689 l 0.11525,0.3258 0.0136,2.88433 0.0136,2.88433 -0.89164,-0.0129 -0.89164,-0.0129 -0.0238,-2.65784 c -0.0253,-2.8348 -0.0192,-2.76766 -0.26713,-2.96265 -0.15392,-0.12106 -0.61375,-0.13638 -0.82439,-0.0275 -0.1361,0.0704 -0.32591,0.291 -0.40836,0.47466 -0.0234,0.0522 -0.0533,1.23756 -0.0663,2.6341 l -0.0237,2.53918 -0.88697,0.0129 -0.88696,0.0129 -0.0148,-2.59954 c -0.0144,-2.53063 -0.0174,-2.6053 -0.1152,-2.81658 -0.12579,-0.27192 -0.28863,-0.34809 -0.68323,-0.31955 -0.33906,0.0245 -0.49468,0.12347 -0.66393,0.42213 l -0.11865,0.20938 -0.0238,2.53917 -0.0238,2.53918 -0.85722,0.0129 c -0.47147,0.007 -0.87193,-0.002 -0.8899,-0.0198 z m -46.275292,-0.0524 c -0.01152,-0.0196 -0.03589,-0.11036 -0.05415,-0.20172 -0.02976,-0.14894 -0.348401,-1.54561 -0.595535,-2.61037 -0.0515,-0.22188 -0.318803,-1.38586 -0.594007,-2.58663 -0.813435,-3.54919 -0.837636,-3.65297 -0.860456,-3.69012 -0.01203,-0.0196 0.423823,-0.0356 0.96856,-0.0356 l 0.990428,0 0.08163,0.41529 c 0.0449,0.22841 0.336322,1.74737 0.64761,3.37548 0.311287,1.62811 0.577133,2.97135 0.590766,2.98499 0.01363,0.0136 0.03559,-0.005 0.04879,-0.0413 0.0132,-0.0363 0.312979,-1.51843 0.666184,-3.29348 0.353204,-1.77505 0.653001,-3.27542 0.666215,-3.33416 0.02393,-0.10639 0.02754,-0.10678 0.975545,-0.10678 0.884232,0 0.949724,0.005 0.926147,0.0831 -0.01396,0.0456 -0.122844,0.51021 -0.241977,1.03228 -0.119134,0.52208 -0.353933,1.54724 -0.521776,2.27815 -0.167843,0.7309 -0.434908,1.89488 -0.593477,2.58663 -0.158569,0.69175 -0.388825,1.69021 -0.511679,2.21882 l -0.223374,0.96109 -1.172249,0 c -0.644736,0 -1.181676,-0.016 -1.193199,-0.0356 z m 15.060565,-8.48476 0,-0.78415 0.889899,0.0129 0.889899,0.0129 0.01365,0.66446 c 0.0075,0.36545 0.0017,0.71251 -0.01277,0.77125 -0.0262,0.10593 -0.03339,0.10678 -0.903544,0.10678 l -0.87713,0 z"
       id="path3088"
       inkscape:connector-curvature="0"
       sodipodi:nodetypes="cssssssccccssscccssccssscscscsssssssscccsssscscssssssccsscsscscccssscsscssssssssssscccsssssssssccssssssscccsssscccssssssscccscsscccsssscccccccccssccssscccccccccccccccccccccsscccsscscccccscccccssscsccccccccccccscccccssscsssscccccscccscccscsscccsccssssscsssssssssssscscccccscscc" />
    <g
       id="g3181"
       transform="matrix(0.93423791,0,0,0.93423791,26.128318,54.866344)">
      <g
         style="opacity:0.8;fill:#ffffff"
         transform="matrix(0.02044993,0,0,0.02044993,370.86623,853.53612)"
         id="g3128">
        <path
           style="fill:#ffffff"
           inkscape:connector-curvature="0"
           id="path1_fill"
           class="st0"
           d="m -880.88772,722.24704 c -43.7631,0 -79.14046,34.59119 -79.14046,77.04403 v 119.75891 c 0,42.45283 35.37736,77.04403 79.14046,77.04403 h 123.16562 c 14.67505,0 26.46751,-11.5304 26.46751,-25.6814 0,-14.1509 -11.79246,-25.68129 -26.46751,-25.68129 h -123.16562 c -14.67505,0 -26.4675,-11.5304 -26.4675,-25.68134 V 799.29107 c 0,-14.15095 11.79245,-25.68135 26.4675,-25.68135 h 290.61845 c 14.67506,0 26.46751,11.5304 26.46751,25.68135 v 77.04402 c 0,14.15095 11.79245,25.68134 26.4675,25.68134 14.67506,0 26.46751,-11.53039 26.46751,-25.68134 v -77.04402 c 0,-42.45284 -35.37736,-77.04403 -79.14046,-77.04403 h -290.88051 z" />
        <path
           style="fill:#ffffff"
           inkscape:connector-curvature="0"
           id="path1_fill_1_"
           class="st0"
           d="m 1214.2381,996.09401 c 43.7631,0 79.1404,-34.5912 79.1404,-77.04403 V 799.29107 c 0,-42.45284 -35.3773,-77.04403 -79.1404,-77.04403 h -123.1657 c -14.675,0 -26.4675,11.5304 -26.4675,25.68134 0,14.15095 11.7925,25.68134 26.4675,25.68134 h 123.1657 c 14.675,0 26.4675,11.5304 26.4675,25.68135 v 119.75891 c 0,14.15094 -11.7925,25.68134 -26.4675,25.68134 H 923.61962 c -14.675,0 -26.4675,-11.5304 -26.4675,-25.68134 v -77.04403 c 0,-14.15094 -11.7924,-25.68134 -26.4675,-25.68134 -14.675,0 -26.4675,11.5304 -26.4675,25.68134 v 77.04403 c 0,42.45283 35.3774,77.04403 79.1405,77.04403 h 290.88048 z" />
        <path
           style="fill:#ffffff"
           inkscape:connector-curvature="0"
           id="path2_fill"
           class="st0"
           d="m -361.49568,722.24704 c -43.7631,0 -79.14046,34.59119 -79.14046,77.04403 v 77.04402 c 0,14.15095 11.79245,25.68134 26.4675,25.68134 14.67506,0 26.46751,-11.53039 26.46751,-25.68134 v -77.04402 c 0,-14.15095 11.79245,-25.68135 26.46751,-25.68135 h 290.09434 c 14.67505,0 26.4675,11.5304 26.4675,25.68135 v 77.04402 c 0,14.15095 11.79246,25.68134 26.46751,25.68134 14.67505,0 26.4675,-11.53039 26.4675,-25.68134 v -77.04402 c 0,-42.45284 -35.37735,-77.04403 -79.14046,-77.04403 h -290.61845 z" />
        <path
           style="fill:#ffffff"
           inkscape:connector-curvature="0"
           id="path2_fill_1_"
           class="st0"
           d="m -335.29023,996.09401 c 43.76311,0 79.14046,-34.5912 79.14046,-77.04403 v -77.04403 c 0,-14.15094 -11.79245,-25.68134 -26.4675,-25.68134 -14.67505,0 -26.46751,11.5304 -26.46751,25.68134 v 77.04403 c 0,14.15094 -11.79245,25.68134 -26.4675,25.68134 h -290.09435 c -14.67505,0 -26.4675,-11.5304 -26.4675,-25.68134 v -77.04403 c 0,-14.15094 -11.79245,-25.68134 -26.46751,-25.68134 -14.67505,0 -26.4675,11.5304 -26.4675,25.68134 v 77.04403 c 0,42.45283 35.37736,77.04403 79.14046,77.04403 h 290.61845 z" />
        <path
           style="fill:#ffffff"
           inkscape:connector-curvature="0"
           id="path2_fill_2_"
           class="st0"
           d="m 184.10182,996.09401 c 43.7631,0 79.1405,-34.5912 79.1405,-77.04403 v -77.04403 c 0,-14.15094 -11.7925,-25.68134 -26.4676,-25.68134 -14.675,0 -26.4675,11.5304 -26.4675,25.68134 v 77.04403 c 0,14.15094 -11.7924,25.68134 -26.4675,25.68134 h -290.09431 c -14.67505,0 -26.4675,-11.5304 -26.4675,-25.68134 v -77.04403 c 0,-14.15094 -11.79245,-25.68134 -26.46751,-25.68134 -14.67505,0 -26.4675,11.5304 -26.4675,25.68134 v 77.04403 c 0,42.45283 35.37736,77.04403 79.14046,77.04403 h 290.61846 z" />
        <path
           style="fill:#ffffff"
           inkscape:connector-curvature="0"
           id="path2_fill_3_"
           class="st0"
           d="m 694.84602,996.09401 c 43.7631,0 79.1405,-34.5912 79.1405,-77.04403 v -77.04403 c 0,-14.15094 -11.7925,-25.68134 -26.4675,-25.68134 -14.6751,0 -26.4675,11.5304 -26.4675,25.68134 v 77.04403 c 0,14.15094 -11.7925,25.68134 -26.4675,25.68134 h -290.3564 c -14.6751,0 -26.4675,-11.5304 -26.4675,-25.68134 v -77.04403 c 0,-14.15094 -11.7925,-25.68134 -26.4675,-25.68134 -14.6751,0 -26.4675,11.5304 -26.4675,25.68134 v 77.04403 c 0,42.45283 35.3773,77.04403 79.1404,77.04403 h 290.8805 z" />
        <path
           style="fill:#ffffff"
           inkscape:connector-curvature="0"
           id="path2_fill_4_"
           class="st0"
           d="m 148.98652,722.24704 c -43.7631,0 -79.1405,34.59119 -79.1405,77.04403 v 77.04402 c 0,14.15095 11.7925,25.68134 26.4675,25.68134 14.6751,0 26.4675,-11.53039 26.4675,-25.68134 v -77.04402 c 0,-14.15095 11.7925,-25.68135 26.4675,-25.68135 h 290.6185 c 14.675,0 26.4675,11.5304 26.4675,25.68135 v 77.04402 c 0,14.15095 11.7925,25.68134 26.4675,25.68134 14.6751,0 26.4675,-11.53039 26.4675,-25.68134 v -77.04402 c 0,-42.45284 -35.3773,-77.04403 -79.1405,-77.04403 h -291.1425 z" />
        <path
           style="fill:#ffffff"
           inkscape:connector-curvature="0"
           id="path2_fill_5_"
           class="st0"
           d="m 668.37852,722.24704 c -43.7631,0 -79.1404,34.59119 -79.1404,77.04403 v 77.04402 c 0,14.15095 11.7924,25.68134 26.4675,25.68134 14.675,0 26.4675,-11.53039 26.4675,-25.68134 v -77.04402 c 0,-14.15095 11.7924,-25.68135 26.4675,-25.68135 h 290.0943 c 14.6751,0 26.4675,11.5304 26.4675,25.68135 v 77.04402 c 0,14.15095 11.7925,25.68134 26.46748,25.68134 14.6751,0 26.4675,-11.53039 26.4675,-25.68134 v -77.04402 c 0,-42.45284 -35.3773,-77.04403 -79.14038,-77.04403 h -290.6185 z" />
      </g>
      <g
         transform="matrix(1.3177447,0,0,1.3177447,-126.24499,-265.09939)"
         id="g3174">
        <path
           style="opacity:0.8;fill:#ffffff"
           inkscape:connector-curvature="0"
           d="m 381.43984,844.46185 c 0.87635,0.002 1.75349,0.002 2.62905,0 l 1.65983,8.87464 c 0.0262,0.13097 0.0579,0.26036 0.0921,0.38896 0.13018,-0.51597 0.21194,-1.04305 0.32069,-1.56378 l 1.51139,-7.69982 2.54332,8.2e-4 c -0.93271,4.15314 -1.86542,8.30708 -2.79972,12.46022 h -3.15692 c -0.9343,-4.15076 -1.86701,-8.30152 -2.79972,-12.45307 v -0.008 z m 9.7748,3.915 c 0.55328,-0.69537 1.43757,-1.0105 2.2901,-1.06607 0.84143,-0.0587 1.74794,0.0175 2.46077,0.51914 0.63107,0.44135 0.97717,1.18752 1.14148,1.92972 0.19924,0.93033 0.20956,1.88606 0.20877,2.83385 h -4.65959 c 0.004,0.70093 -0.0397,1.42407 0.19449,2.09562 0.11351,0.33022 0.32545,0.65885 0.66202,0.77872 0.3588,0.11669 0.79062,0.0405 1.05257,-0.24846 0.34927,-0.39531 0.42231,-0.94938 0.49851,-1.45662 h 2.11467 c -0.0476,0.84143 -0.20321,1.73048 -0.7541,2.39171 -0.55249,0.68743 -1.44313,0.96844 -2.28614,1.00257 -0.91604,0.0349 -1.91067,-0.0897 -2.64096,-0.70648 -0.67869,-0.56598 -0.97478,-1.46297 -1.09226,-2.32265 -0.11748,-0.98986 -0.12383,-1.99163 -0.0691,-2.98626 0.0738,-0.97002 0.24925,-1.99719 0.87794,-2.76558 z m 1.8051,0.98827 c -0.36039,0.51915 -0.36991,1.18752 -0.36357,1.79954 h 2.40679 c -0.0373,-0.58185 -0.0333,-1.19625 -0.29529,-1.72889 -0.32545,-0.65726 -1.35421,-0.65964 -1.74635,-0.0699 h -0.002 z"
           id="path3142" />
        <g
           transform="matrix(0.78349046,0,0,0.78349046,223.2666,766.67318)"
           style="font-size:40px;font-style:normal;font-variant:normal;font-weight:bold;font-stretch:normal;line-height:125%;letter-spacing:0px;word-spacing:0px;opacity:0.8;fill:#ffffff;fill-opacity:1;stroke:none;font-family:Sans;-inkscape-font-specification:Sans Bold"
           id="flowRoot3154">
          <path
             d="m 177.6875,110.29965 6.64062,0 0,-18.847652 -6.8164,1.40625 0,-5.117188 6.77734,-1.40625 7.14844,0 0,23.96484 6.64062,0 0,5.19532 -20.39062,0 0,-5.19532"
             style=""
             id="path3063" />
        </g>
      </g>
    </g>
  </g>
</svg>
