<?xml version="1.0" encoding="UTF-8" standalone="no"?>
<!-- Created with Inkscape (http://www.inkscape.org/) -->

<svg
   xmlns:dc="http://purl.org/dc/elements/1.1/"
   xmlns:cc="http://creativecommons.org/ns#"
   xmlns:rdf="http://www.w3.org/1999/02/22-rdf-syntax-ns#"
   xmlns:svg="http://www.w3.org/2000/svg"
   xmlns="http://www.w3.org/2000/svg"
   xmlns:xlink="http://www.w3.org/1999/xlink"
   xmlns:sodipodi="http://sodipodi.sourceforge.net/DTD/sodipodi-0.dtd"
   xmlns:inkscape="http://www.inkscape.org/namespaces/inkscape"
   width="460.62991"
   height="283.46457"
   id="svg2"
   version="1.1"
   inkscape:version="0.48.5 r10040"
   sodipodi:docname="banknote_bg_template.svg"
   inkscape:export-filename="/home/mammique/Documents/daat/banknote/cryptos/dash.png"
   inkscape:export-xdpi="156.31"
   inkscape:export-ydpi="156.31">
  <defs
     id="defs4">
    <linearGradient
       id="linearGradient4925">
      <stop
         style="stop-color:#bd9800;stop-opacity:1;"
         offset="0"
         id="stop4927" />
      <stop
         id="stop3784"
         offset="0.51732481"
         style="stop-color:#ffcc04;stop-opacity:1;" />
      <stop
         offset="1"
         id="stop4929"
         style="stop-color:#a98500;stop-opacity:1;" />
    </linearGradient>
    <linearGradient
       id="linearGradient4835">
      <stop
         style="stop-color:#000000;stop-opacity:0.61572052"
         offset="0"
         id="stop4837" />
      <stop
         style="stop-color:#000000;stop-opacity:0;"
         offset="1"
         id="stop4839" />
    </linearGradient>
    <linearGradient
       inkscape:collect="always"
       id="linearGradient4531">
      <stop
         style="stop-color:#ffffff;stop-opacity:1;"
         offset="0"
         id="stop4533" />
      <stop
         style="stop-color:#ffffff;stop-opacity:0;"
         offset="1"
         id="stop4535" />
    </linearGradient>
    <clipPath
       clipPathUnits="userSpaceOnUse"
       id="clipPath5978">
      <rect
         style="color:#000000;fill:#cccccc;fill-opacity:1;fill-rule:nonzero;stroke:#003a00;stroke-width:0.89999998;stroke-linecap:butt;stroke-linejoin:miter;stroke-miterlimit:4;stroke-opacity:1;stroke-dasharray:none;stroke-dashoffset:0;marker:none;visibility:visible;display:inline;overflow:visible;enable-background:accumulate"
         id="rect5980"
         width="173.74623"
         height="1608.1628"
         x="610.13214"
         y="-378.01382"
         transform="matrix(0,-1,1,0,0,0)" />
    </clipPath>
    <inkscape:perspective
       id="perspective2497"
       inkscape:persp3d-origin="372.04724 : 350.78739 : 1"
       inkscape:vp_z="744.09448 : 526.18109 : 1"
       inkscape:vp_y="0 : 1000 : 0"
       inkscape:vp_x="0 : 526.18109 : 1"
       sodipodi:type="inkscape:persp3d" />
    <linearGradient
       inkscape:collect="always"
       xlink:href="#linearGradient4531"
       id="linearGradient4823"
       gradientUnits="userSpaceOnUse"
       x1="182.81697"
       y1="175.83376"
       x2="183.58928"
       y2="-16.309107"
       gradientTransform="translate(53.033008,825.69937)" />
    <radialGradient
       inkscape:collect="always"
       xlink:href="#linearGradient4835"
       id="radialGradient4845"
       cx="7.3256431"
       cy="198.2952"
       fx="7.3256431"
       fy="198.2952"
       r="109.27257"
       gradientTransform="matrix(0.19829552,0.15553474,-0.16582027,0.21140881,93.302602,945.5672)"
       gradientUnits="userSpaceOnUse" />
    <linearGradient
       id="linearGradient4925-6">
      <stop
         style="stop-color:#bd9800;stop-opacity:1;"
         offset="0"
         id="stop4927-7" />
      <stop
         id="stop3784-5"
         offset="0.5"
         style="stop-color:#ffcc04;stop-opacity:1;" />
      <stop
         offset="1"
         id="stop4929-3"
         style="stop-color:#a98500;stop-opacity:1;" />
    </linearGradient>
    <linearGradient
       gradientTransform="translate(-17.649337,-11.359598)"
       y2="38.317909"
       x2="313.61914"
       y1="142.8687"
       x1="50.479298"
       gradientUnits="userSpaceOnUse"
       id="linearGradient3802"
       xlink:href="#linearGradient4925-6"
       inkscape:collect="always" />
    <linearGradient
       id="linearGradient4925-2">
      <stop
         style="stop-color:#bd9800;stop-opacity:1;"
         offset="0"
         id="stop4927-3" />
      <stop
         id="stop3784-7"
         offset="0.38554054"
         style="stop-color:#ffcc04;stop-opacity:1;" />
      <stop
         offset="1"
         id="stop4929-5"
         style="stop-color:#a98500;stop-opacity:1;" />
    </linearGradient>
    <linearGradient
       y2="38.317909"
       x2="313.61914"
       y1="83.269699"
       x1="19.16457"
       gradientTransform="translate(-17.649337,-11.359581)"
       gradientUnits="userSpaceOnUse"
       id="linearGradient4077"
       xlink:href="#linearGradient4925-2"
       inkscape:collect="always" />
    <linearGradient
       id="linearGradient4925-28">
      <stop
         style="stop-color:#bd9800;stop-opacity:1;"
         offset="0"
         id="stop4927-9" />
      <stop
         id="stop3784-73"
         offset="0.51732481"
         style="stop-color:#ffcc04;stop-opacity:1;" />
      <stop
         offset="1"
         id="stop4929-6"
         style="stop-color:#a98500;stop-opacity:1;" />
    </linearGradient>
    <linearGradient
       y2="19.746481"
       x2="180.76199"
       y1="166.12685"
       x1="180.59314"
       gradientTransform="translate(-17.649337,-11.359581)"
       gradientUnits="userSpaceOnUse"
       id="linearGradient4113"
       xlink:href="#linearGradient4925-28"
       inkscape:collect="always" />
    <linearGradient
       id="linearGradient4925-7">
      <stop
         style="stop-color:#bd9800;stop-opacity:1;"
         offset="0"
         id="stop4927-5" />
      <stop
         id="stop3784-3"
         offset="0.51732481"
         style="stop-color:#ffcc04;stop-opacity:1;" />
      <stop
         offset="1"
         id="stop4929-56"
         style="stop-color:#a98500;stop-opacity:1;" />
    </linearGradient>
    <linearGradient
       y2="19.746481"
       x2="180.76199"
       y1="166.12685"
       x1="180.59314"
       gradientTransform="translate(-17.649337,-11.359581)"
       gradientUnits="userSpaceOnUse"
       id="linearGradient3327"
       xlink:href="#linearGradient4925-7"
       inkscape:collect="always" />
    <linearGradient
       id="linearGradient4925-7-1">
      <stop
         style="stop-color:#bd9800;stop-opacity:1;"
         offset="0"
         id="stop4927-5-2" />
      <stop
         id="stop3784-3-7"
         offset="0.51732481"
         style="stop-color:#ffcc04;stop-opacity:1;" />
      <stop
         offset="1"
         id="stop4929-56-0"
         style="stop-color:#a98500;stop-opacity:1;" />
    </linearGradient>
    <linearGradient
       y2="19.032196"
       x2="138.61914"
       y1="166.12685"
       x1="180.59314"
       gradientTransform="translate(-17.649337,-7.9568844)"
       gradientUnits="userSpaceOnUse"
       id="linearGradient3455"
       xlink:href="#linearGradient4925-7-1"
       inkscape:collect="always" />
    <linearGradient
       inkscape:collect="always"
       xlink:href="#linearGradient4925-7-6"
       id="linearGradient3350-3"
       gradientUnits="userSpaceOnUse"
       gradientTransform="translate(54.548237,823.78353)"
       x1="180.59314"
       y1="166.12685"
       x2="138.61914"
       y2="19.032196" />
    <linearGradient
       id="linearGradient4925-7-6">
      <stop
         style="stop-color:#bd9800;stop-opacity:1;"
         offset="0"
         id="stop4927-5-0" />
      <stop
         id="stop3784-3-6"
         offset="0.51732481"
         style="stop-color:#ffcc04;stop-opacity:1;" />
      <stop
         offset="1"
         id="stop4929-56-2"
         style="stop-color:#a98500;stop-opacity:1;" />
    </linearGradient>
    <linearGradient
       y2="19.032196"
       x2="138.61914"
       y1="166.12685"
       x1="180.59314"
       gradientTransform="translate(-17.649337,-7.9568844)"
       gradientUnits="userSpaceOnUse"
       id="linearGradient3491"
       xlink:href="#linearGradient4925-7-6"
       inkscape:collect="always" />
    <linearGradient
       id="linearGradient4835-7">
      <stop
         style="stop-color:#000000;stop-opacity:0.61572052"
         offset="0"
         id="stop4837-5" />
      <stop
         style="stop-color:#000000;stop-opacity:0;"
         offset="1"
         id="stop4839-9" />
    </linearGradient>
    <radialGradient
       r="109.27257"
       fy="198.2952"
       fx="7.3256431"
       cy="198.2952"
       cx="7.3256431"
       gradientTransform="matrix(0.19829552,0.15553474,-0.16582027,0.21140881,132.487,52.51516)"
       gradientUnits="userSpaceOnUse"
       id="radialGradient3545"
       xlink:href="#linearGradient4835-7"
       inkscape:collect="always" />
    <linearGradient
       id="linearGradient4835-8">
      <stop
         style="stop-color:#000000;stop-opacity:0.61572052"
         offset="0"
         id="stop4837-9" />
      <stop
         style="stop-color:#000000;stop-opacity:0;"
         offset="1"
         id="stop4839-7" />
    </linearGradient>
    <radialGradient
       r="109.27257"
       fy="198.2952"
       fx="7.3256431"
       cy="198.2952"
       cx="7.3256431"
       gradientTransform="matrix(0.19829552,0.15553474,-0.16582027,0.21140881,132.487,52.51516)"
       gradientUnits="userSpaceOnUse"
       id="radialGradient3578"
       xlink:href="#linearGradient4835-8"
       inkscape:collect="always" />
    <linearGradient
       inkscape:collect="always"
       xlink:href="#linearGradient4925-7-6-1"
       id="linearGradient3350-3-6"
       gradientUnits="userSpaceOnUse"
       gradientTransform="translate(54.548237,823.78353)"
       x1="180.59314"
       y1="166.12685"
       x2="138.61914"
       y2="19.032196" />
    <linearGradient
       id="linearGradient4925-7-6-1">
      <stop
         style="stop-color:#bd9800;stop-opacity:1;"
         offset="0"
         id="stop4927-5-0-2" />
      <stop
         id="stop3784-3-6-9"
         offset="0.51732481"
         style="stop-color:#ffcc04;stop-opacity:1;" />
      <stop
         offset="1"
         id="stop4929-56-2-3"
         style="stop-color:#a98500;stop-opacity:1;" />
    </linearGradient>
    <linearGradient
       y2="19.032196"
       x2="138.61914"
       y1="166.12685"
       x1="180.59314"
       gradientTransform="translate(-17.649337,-14.676051)"
       gradientUnits="userSpaceOnUse"
       id="linearGradient3612"
       xlink:href="#linearGradient4925-7-6-1"
       inkscape:collect="always" />
  </defs>
  <sodipodi:namedview
     id="base"
     pagecolor="#5271a5"
     bordercolor="#666666"
     borderopacity="1.0"
     inkscape:pageopacity="1"
     inkscape:pageshadow="2"
     inkscape:zoom="2.8"
     inkscape:cx="235.36005"
     inkscape:cy="165.24198"
     inkscape:document-units="px"
     inkscape:current-layer="layer1"
     showgrid="false"
     units="mm"
     inkscape:window-width="1364"
     inkscape:window-height="747"
     inkscape:window-x="0"
     inkscape:window-y="19"
     inkscape:window-maximized="1"
     showguides="true"
     inkscape:guide-bbox="true" />
  <metadata
     id="metadata7">
    <rdf:RDF>
      <cc:Work
         rdf:about="">
        <dc:format>image/svg+xml</dc:format>
        <dc:type
           rdf:resource="http://purl.org/dc/dcmitype/StillImage" />
        <dc:title></dc:title>
      </cc:Work>
    </rdf:RDF>
  </metadata>
  <g
     inkscape:label="Calque 1"
     inkscape:groupmode="layer"
     id="layer1"
     transform="translate(0,-768.89763)">
    <g
       transform="matrix(0.04066153,0,0,0.04066153,175.09465,813.72564)"
       id="g3855">
      <path
         inkscape:connector-curvature="0"
         style="fill:#ff1e26;fill-opacity:1"
         d="m -955.75,1005.1875 c -1.0005,0.013 -2.00252,0.036 -3.03125,0.094 -13.983,0.7842 -23.3807,5.1595 -34.3125,15.9688 -10.61565,10.4966 -6.69668,-4.3405 -65.62505,247.7812 -29.3739,125.6751 -53.7135,229.7376 -54.0937,231.25 l -0.6875,2.75 -270.1875,0 c -295.7605,10e-5 -274.6613,-0.4306 -287.4375,5.75 -7.4002,3.58 -18.8387,14.961 -22.5,22.375 -10.134,20.5207 -6.5556,44.6007 8.9688,60.375 8.2102,8.3427 18.7938,13.7346 30.2812,15.4376 3.0761,0.4559 137.4437,0.7615 298.5938,0.6874 l 293,-0.125 6.5624,-2.2187 c 13.179,-4.4822 25.5931,-15.0523 31.25,-26.625 3.5337,-7.2287 0.9424,3.3418 37.7813,-154.4063 17.2433,-73.8375 31.58605,-134.25 31.90625,-134.25 0.543,0 7.02965,27.3509 49.65625,210 18.00353,77.1425 19.0204,80.4526 28.03125,90.1563 6.35495,6.8436 15.12189,12.4005 23.78125,15.125 l 7.03125,2.2187 294,0 c 282.56111,0 294.2334,-0.076 300,-1.8437 23.6938,-7.2609 38.50675,-26.7722 38.46875,-50.625 -0.0232,-14.7353 -4.7719,-26.061 -15.375,-36.5313 -4.1982,-4.1456 -9.42435,-8.126 -12.78125,-9.75 -12.7747,-6.18 8.20196,-5.75 -286.03125,-5.75 -147.8344,0 -268.78125,-0.1709 -268.78125,-0.375 0,-0.2041 -24.31101,-104.2666 -54,-231.25 -60.10151,-257.0611 -55.3584,-239.4209 -67.125,-251.1874 -10.42828,-10.4282 -22.33621,-15.2318 -37.34375,-15.0313 z"
         transform="translate(0,768.89763)"
         id="path3857" />
      <path
         inkscape:connector-curvature="0"
         id="path3859"
         d="m -1257.2858,3104.0513 c -15.0032,-4.8415 -25.3979,-13.739 -32.4136,-27.7447 -1.8388,-3.6709 -17.6385,-69.5624 -55.6299,-232 -29.184,-124.7801 -53.5229,-228.999 -54.0866,-231.5975 l -1.0247,-4.7245 -128.1726,-0.2755 -128.1726,-0.2754 -6.4618,-2.332 c -9.0629,-3.2707 -14.6269,-6.7547 -21.0177,-13.1606 -9.7577,-9.7806 -15.0205,-22.5619 -15.0205,-36.4788 0,-9.3815 1.934,-17.7516 5.7658,-24.9538 3.7768,-7.0987 15.509,-18.6394 22.2342,-21.871 12.5027,-6.008 3.518,-5.7038 168.5,-5.7038 132.4348,0 151.8053,0.1889 156.9585,1.5311 14.4575,3.7657 27.6618,14.5393 33.8404,27.6108 2.9118,6.1603 8.8247,30.2691 36.3248,148.1081 18.0657,77.4125 33.0784,140.7466 33.3615,140.7425 0.2832,0 18.4,-76.6166 40.2597,-170.25 44.2072,-189.356 41.41,-179.2375 52.6579,-190.4853 10.2228,-10.2229 22.4707,-15.2655 37.0287,-15.2454 15.2959,0.021 26.698,4.6379 37.1616,15.0468 10.692,10.6361 16.8687,26.6656 15.5079,40.2455 -0.5215,5.2036 -126.7821,547.5408 -131.6906,565.6608 -5.2232,19.2818 -18.3904,33.02 -36.8419,38.4397 -7.3731,2.1657 -21.9128,2.0221 -29.0685,-0.287 z m 573.00002,-0.3934 c -8.9956,-3.0782 -15.1581,-6.9116 -21.54764,-13.4041 -11.02806,-11.2057 -5.52073,9.9943 -78.49689,-302.1662 -36.30342,-155.2904 -66.26088,-284.8904 -66.57214,-288 -1.30299,-13.0176 4.88918,-29.2993 15.11667,-39.7479 10.10594,-10.3244 22.42721,-15.3732 37.5685,-15.3942 14.55797,-0.02 26.80587,5.0225 37.0287,15.2454 11.27272,11.2727 8.47767,1.1759 52.52564,189.7428 21.77676,93.225 39.89836,169.8306 40.27016,170.2346 0.3719,0.404 14.7956,-59.671 32.0527,-133.5001 37.7925,-161.6831 34.3958,-147.8454 38.2058,-155.6444 3.9052,-7.9943 13.1989,-17.4522 21.4301,-21.809 12.5838,-6.6605 2.4727,-6.2811 167.4184,-6.2811 163.33661,0 154.50231,-0.3018 167.00001,5.7038 7.5105,3.609 18.7649,15.0211 22.7578,23.0767 4.1789,8.4307 5.5569,15.772 5.0045,26.662 -1.2541,24.7272 -19.2859,44.5145 -44.2623,48.5713 -3.6607,0.5946 -53.80981,0.9768 -128.62501,0.9804 l -122.625,0.01 -0.5725,2.75 c -0.3149,1.5125 -24.6598,105.7218 -54.0999,231.5763 -44.5231,190.3336 -54.0713,229.9312 -56.7609,235.3945 -5.9907,12.1687 -18.7632,22.5761 -32.7482,26.6838 -8.1478,2.3933 -22.0022,2.0797 -30.0685,-0.6804 z m -788.50002,-958.3778 c -17.9392,-2.6422 -33.6689,-13.6826 -41.0082,-28.783 -2.891,-5.9481 -8.5185,-28.7746 -35.6398,-144.5634 -29.9769,-127.9805 -32.2036,-138.1231 -32.1629,-146.5 0.071,-14.5699 4.9137,-26.1143 15.3034,-36.4796 9.931,-9.9076 22.528,-15.0204 37.0075,-15.0204 14.7402,0 26.8811,5.0276 37.1358,15.3782 11.1591,11.2634 9.273,4.6694 44.9424,157.1218 17.7142,75.7113 32.2942,140.1315 32.591,144 1.7257,22.4918 -14.233,45.6518 -36.1138,52.4101 -6.4645,1.9967 -17.0791,3.1692 -22.0554,2.4363 z m 1021.26342,-0.3294 c -12.4631,-2.2298 -22.9472,-7.979 -31.1596,-17.0869 -9.2003,-10.2037 -14.6193,-26.0946 -13.2554,-38.8709 0.3265,-3.0576 15.0064,-67.2092 32.6221,-142.5592 35.6992,-152.7008 33.7675,-145.9543 44.9607,-157.0193 10.9423,-10.8169 22.0868,-15.4807 36.9926,-15.4807 14.8082,0 27.1822,5.1049 37.576,15.502 10.2716,10.2747 16.4293,26.5538 15.0913,39.8965 -0.3253,3.2443 -15.0002,67.5943 -32.6108,143 -35.6392,152.6012 -33.843,146.3041 -44.8831,157.3443 -11.7075,11.7074 -30.2849,17.9667 -45.3338,15.2742 z"
         style="fill:#000000"
         sodipodi:nodetypes="sssccccsssscsssscsssscssscsssscsscscsssssscccsscccsssscssssssssscsssscss" />
    </g>
    <path
       style="opacity:0.8;color:#000000;fill:#ffffff;fill-opacity:1;fill-rule:nonzero;stroke:none;stroke-width:1;marker:none;visibility:visible;display:inline;overflow:visible;enable-background:accumulate"
       d="m 78.094532,834.31739 c -0.526704,0.0191 -0.890381,0.35893 -0.892045,0.86655 -8.15e-4,0.22491 0.02599,0.35826 0.127435,0.51824 0.124548,0.19639 0.354524,0.33388 0.62868,0.37381 0.67734,0.0986 1.191136,-0.32495 1.146914,-0.94302 -0.03142,-0.43927 -0.322823,-0.74565 -0.773105,-0.80709 -0.08093,-0.0111 -0.162636,-0.0112 -0.237879,-0.008 z m -5.2928,0.0849 c -0.495274,-5e-5 -0.977488,0.0507 -1.393289,0.15292 -1.740714,0.42806 -2.862009,1.74503 -3.109414,3.65314 -0.04801,0.37034 -0.05891,1.19535 -0.01699,1.58019 0.162742,1.49402 0.816941,2.5687 1.954004,3.21986 0.44187,0.25305 1.097036,0.46175 1.656655,0.52673 0.139259,0.0161 0.295369,0.0373 0.339826,0.0425 0.183972,0.0215 0.802663,0.009 1.07895,-0.017 0.537952,-0.0503 1.536498,-0.20588 1.937013,-0.30585 0.375657,-0.0937 0.680384,-0.29502 0.798592,-0.52673 0.135295,-0.2652 0.14077,-0.34639 0.152922,-1.85205 0.01223,-1.51503 0.0016,-1.66144 -0.118939,-1.91153 -0.05166,-0.10711 -0.100018,-0.15631 -0.195401,-0.21239 l -0.127434,-0.0764 -1.359307,-0.008 c -0.93637,-0.005 -1.391417,-0.004 -1.461255,0.0169 -0.11842,0.0347 -0.274335,0.17014 -0.331331,0.28036 -0.105245,0.20351 -0.09568,0.5218 0.02548,0.69664 0.03822,0.0551 0.135207,0.13563 0.212391,0.17841 l 0.144427,0.0764 0.662662,0.008 0.671157,0.008 0,0.97701 0,0.97699 -0.118939,0.0255 c -0.23665,0.0588 -0.609111,0.11695 -0.977002,0.14443 -0.574568,0.0429 -1.049907,-0.0172 -1.478246,-0.17841 -0.753372,-0.28357 -1.203003,-0.92756 -1.39329,-2.00498 -0.05495,-0.31109 -0.05128,-1.42355 0.0085,-1.74161 0.100026,-0.5323 0.238922,-0.90416 0.467261,-1.25736 0.425596,-0.65832 1.103116,-0.96932 2.089934,-0.96851 0.717222,5.5e-4 1.257573,0.11335 2.174891,0.45028 0.302563,0.11113 0.688606,-0.13026 0.790097,-0.49275 0.04095,-0.14626 0.01713,-0.41999 -0.04248,-0.53523 -0.15219,-0.29431 -0.745816,-0.58659 -1.580193,-0.77311 -0.457943,-0.10231 -0.965982,-0.15287 -1.461256,-0.15292 z m 24.433537,0.1954 c -0.252182,0.0132 -0.402396,0.0761 -0.586199,0.23788 -0.178548,0.15716 -0.245219,0.31911 -0.25487,0.5947 -0.0078,0.223 0.01544,0.31653 0.866554,3.69561 0.594018,2.35831 0.892119,3.52323 0.943025,3.62765 0.146336,0.30017 0.509758,0.5763 0.866554,0.66266 0.211883,0.0513 0.528606,0.0504 0.722131,0 0.409186,-0.10658 0.776606,-0.40746 0.943026,-0.7731 0.0491,-0.10798 0.47899,-1.50542 0.95151,-3.10941 0.56368,-1.9134 0.86172,-2.90222 0.87506,-2.87154 0.0112,0.0258 0.40798,1.34531 0.87505,2.931 0.57908,1.96601 0.87613,2.94612 0.94301,3.08393 0.22877,0.47129 0.74302,0.7816 1.29135,0.7816 0.51384,0 0.99381,-0.27255 1.21488,-0.68814 0.0697,-0.13112 0.25422,-0.82464 0.96851,-3.67864 0.82594,-3.30013 0.87987,-3.52735 0.86655,-3.69561 -0.0182,-0.23046 -0.11008,-0.40848 -0.28885,-0.5692 -0.19729,-0.17739 -0.38498,-0.24344 -0.66266,-0.22939 -0.19132,0.01 -0.23886,0.0213 -0.37381,0.10195 -0.16244,0.0971 -0.28202,0.23222 -0.36532,0.41628 -0.0273,0.0604 -0.3793,1.49865 -0.7731,3.19438 -0.3938,1.69573 -0.71861,3.09696 -0.72213,3.10941 -0.004,0.0124 -0.37416,-1.22854 -0.82408,-2.7526 -0.44992,-1.52405 -0.85155,-2.87737 -0.90054,-3.01595 -0.26587,-0.75198 -0.69091,-1.06813 -1.36781,-1.01948 -0.26183,0.0188 -0.42034,0.0617 -0.60319,0.1869 -0.27703,0.18961 -0.44975,0.51276 -0.66266,1.20638 -0.0795,0.25901 -0.47553,1.57127 -0.87506,2.92251 -0.399511,1.35124 -0.730178,2.44832 -0.739117,2.43826 -0.0091,-0.0101 -0.334058,-1.3865 -0.722131,-3.05844 -0.388073,-1.67194 -0.726274,-3.10612 -0.75611,-3.18587 -0.07661,-0.20468 -0.254666,-0.39266 -0.458771,-0.48426 -0.148974,-0.0669 -0.19454,-0.0698 -0.390802,-0.0595 z m 19.675971,0.45877 c -0.23149,0.0151 -0.37251,0.0775 -0.50974,0.22938 -0.18169,0.2011 -0.21295,0.35491 -0.35682,1.61418 l -0.051,0.41628 -0.33984,0 c -0.42602,0 -0.58115,0.0383 -0.69664,0.17842 -0.10536,0.12782 -0.15523,0.31837 -0.11894,0.50974 0.0315,0.1659 0.0582,0.21672 0.14443,0.29734 0.12259,0.11462 0.24339,0.14443 0.6032,0.14443 l 0.33132,0 0,1.5717 c 0,1.6142 0.0128,1.86481 0.11045,2.22586 0.18735,0.69242 0.72213,1.1315 1.46974,1.21488 0.23132,0.0258 0.99087,0.004 1.21488,-0.034 0.0889,-0.015 0.23897,-0.058 0.33133,-0.10195 0.13252,-0.063 0.17445,-0.11014 0.22939,-0.20389 0.16879,-0.28801 0.085,-0.69875 -0.17841,-0.85806 -0.0783,-0.0473 -0.1402,-0.0592 -0.53522,-0.0595 -0.407,-2.8e-4 -0.44946,-0.005 -0.55223,-0.0595 -0.1383,-0.0736 -0.21525,-0.17529 -0.28885,-0.39079 -0.0546,-0.15995 -0.0599,-0.22019 -0.068,-1.73312 l -0.008,-1.5717 0.50974,0 c 0.27854,-8e-5 0.55068,-0.0109 0.6032,-0.0255 0.10834,-0.0301 0.24632,-0.16754 0.28885,-0.28035 0.0464,-0.12301 0.0312,-0.41889 -0.0255,-0.54373 -0.10552,-0.23233 -0.25399,-0.28008 -0.89205,-0.28035 l -0.47575,0 -0.008,-0.84107 c -0.0138,-0.94232 -0.028,-1.0363 -0.1954,-1.23187 -0.1311,-0.15317 -0.28445,-0.20327 -0.53523,-0.18691 z m 4.36677,0 c -0.23149,0.0151 -0.3725,0.0775 -0.50974,0.22938 -0.18169,0.2011 -0.22144,0.35491 -0.36531,1.61418 l -0.0425,0.41628 -0.33983,0 c -0.42602,0 -0.58965,0.0383 -0.70514,0.17842 -0.10535,0.12782 -0.14673,0.31837 -0.11044,0.50974 0.0315,0.1659 0.0582,0.21672 0.14442,0.29734 0.1226,0.11462 0.2434,0.14443 0.6032,0.14443 l 0.33133,0 0,1.5717 c 0,1.6142 0.0128,1.86481 0.11045,2.22586 0.18735,0.69242 0.71363,1.1315 1.46125,1.21488 0.2313,0.0258 0.99936,0.004 1.22337,-0.034 0.0889,-0.015 0.23047,-0.058 0.32284,-0.10195 0.13251,-0.063 0.18294,-0.11014 0.23788,-0.20389 0.16879,-0.28801 0.085,-0.69875 -0.17841,-0.85806 -0.0783,-0.0473 -0.1402,-0.0592 -0.53522,-0.0595 -0.407,-2.8e-4 -0.44946,-0.005 -0.55223,-0.0595 -0.1383,-0.0736 -0.21525,-0.17529 -0.28885,-0.39079 -0.0546,-0.15995 -0.0599,-0.22019 -0.068,-1.73312 l -0.008,-1.5717 0.50974,0 c 0.27854,-8e-5 0.54218,-0.0109 0.5947,-0.0255 0.10834,-0.0301 0.25482,-0.16754 0.29735,-0.28035 0.0463,-0.12301 0.0312,-0.41889 -0.0255,-0.54373 -0.10552,-0.23233 -0.254,-0.28008 -0.89205,-0.28035 l -0.47575,0 -0.017,-0.84107 c -0.0138,-0.94232 -0.028,-1.0363 -0.1954,-1.23187 -0.1311,-0.15317 -0.27595,-0.20327 -0.52674,-0.18691 z m -31.5699,2.16639 c -0.684262,0.025 -1.410388,0.17176 -1.954004,0.42478 -0.103737,0.0483 -0.221686,0.1124 -0.25487,0.14443 -0.264999,0.25573 -0.163522,0.78493 0.186905,0.96851 0.105319,0.0551 0.324542,0.0479 0.475757,-0.017 0.252831,-0.1084 0.645459,-0.24208 0.900541,-0.29735 0.987988,-0.21405 1.521222,-0.069 1.724621,0.45877 0.04608,0.11957 0.05769,0.2245 0.06797,0.52673 l 0.01699,0.38231 -0.730628,0.0169 c -1.522535,0.0328 -2.249479,0.20329 -2.701622,0.65417 -0.302953,0.30211 -0.411176,0.62295 -0.416288,1.19789 -0.0043,0.48502 0.0731,0.74537 0.31434,1.06195 0.271062,0.35573 0.705717,0.59221 1.257359,0.69665 0.292553,0.0554 0.867365,0.0398 1.146915,-0.034 0.467643,-0.12339 0.893347,-0.4373 1.087446,-0.79859 l 0.08496,-0.16142 0,0.13593 c 0.0014,0.28192 0.117855,0.52331 0.322835,0.67965 0.310412,0.23676 0.7735,0.19054 1.036472,-0.10195 0.215371,-0.23955 0.205649,-0.17402 0.1954,-2.25135 l -0.0085,-1.83506 -0.06797,-0.25487 c -0.08211,-0.30063 -0.241093,-0.62591 -0.399297,-0.82408 -0.229541,-0.28752 -0.7043,-0.56759 -1.155411,-0.67965 -0.327698,-0.0814 -0.719366,-0.10849 -1.129924,-0.0935 z m 21.94431,0 c -0.69171,0.0273 -1.42326,0.18006 -1.97099,0.44177 -0.18986,0.0907 -0.2349,0.12282 -0.29735,0.22939 -0.16528,0.28203 -0.0372,0.70912 0.26336,0.86656 0.10532,0.0551 0.32455,0.0479 0.47576,-0.017 0.25283,-0.1084 0.64546,-0.24208 0.90054,-0.29735 0.98799,-0.21405 1.52123,-0.069 1.72462,0.45877 0.0461,0.11957 0.0577,0.2245 0.068,0.52673 l 0.008,0.38231 -0.72213,0.0169 c -1.52254,0.0328 -2.24949,0.20329 -2.70163,0.65417 -0.30295,0.30211 -0.41118,0.62295 -0.41629,1.19789 -0.005,0.48502 0.0731,0.74537 0.31434,1.06195 0.27107,0.35573 0.69723,0.59221 1.24887,0.69665 0.29255,0.0554 0.86736,0.0398 1.14692,-0.034 0.46612,-0.12299 0.89835,-0.44275 1.08743,-0.79859 l 0.0849,-0.15292 0.017,0.1869 c 0.0344,0.47313 0.35275,0.77106 0.80709,0.76461 0.21329,-0.003 0.39947,-0.086 0.54372,-0.24638 0.21539,-0.23955 0.20564,-0.17402 0.19541,-2.25135 l -0.008,-1.83506 -0.068,-0.25487 c -0.0821,-0.30063 -0.24108,-0.62591 -0.3993,-0.82408 -0.22953,-0.28752 -0.70429,-0.56759 -1.1554,-0.67965 -0.33373,-0.083 -0.73189,-0.10984 -1.14692,-0.0935 z m -28.936245,0.017 c -0.247464,-2.7e-4 -0.499335,0.0245 -0.662662,0.0595 -1.11632,0.23908 -1.84767,1.03154 -2.115421,2.29382 -0.06987,0.3294 -0.08948,1.00604 -0.03398,1.3848 0.223339,1.52409 1.290009,2.42655 2.86304,2.42976 0.774495,0.002 1.355352,-0.27442 1.673646,-0.7901 0.05364,-0.0869 0.10305,-0.16141 0.110444,-0.16141 0.0074,0 0.0079,0.26279 0,0.5777 -0.02088,0.83698 -0.112496,1.16596 -0.407792,1.46126 -0.310672,0.31067 -0.732829,0.42997 -1.418776,0.40779 -0.452995,-0.0147 -0.639855,-0.0521 -1.257359,-0.24638 -0.167928,-0.0529 -0.34276,-0.0934 -0.382305,-0.0934 -0.551803,9.1e-4 -0.778836,0.71062 -0.331331,1.03647 0.306322,0.22306 1.053517,0.41692 1.792585,0.46727 0.163017,0.0111 0.328265,0.0238 0.365314,0.0255 0.156492,0.007 0.785438,-0.0527 0.985498,-0.0934 1.210419,-0.24684 1.972006,-1.01231 2.217369,-2.24286 0.0406,-0.2036 0.04198,-0.52529 0.05097,-2.87153 0.01058,-2.75508 0.0088,-2.88591 -0.101948,-3.1434 -0.07274,-0.16908 -0.278651,-0.35363 -0.441776,-0.3993 -0.160694,-0.045 -0.511031,-0.0274 -0.628678,0.034 -0.268352,0.1399 -0.407792,0.38883 -0.407792,0.71364 l 0,0.17841 -0.110444,-0.16992 c -0.27539,-0.42608 -0.624357,-0.67068 -1.129924,-0.79859 -0.139732,-0.0354 -0.381215,-0.0591 -0.628679,-0.0595 z m -4.562173,0.0595 c -0.136219,-0.002 -0.274707,0.0202 -0.382305,0.068 -0.190575,0.0846 -0.334632,0.25289 -0.407792,0.47576 -0.05741,0.17513 -0.05097,0.18875 -0.05097,2.49773 0,2.24172 -2.72e-4,2.33169 0.05097,2.49772 0.08608,0.27872 0.280112,0.46439 0.560714,0.53523 0.145079,0.0366 0.477636,0.008 0.611688,-0.0509 0.234828,-0.10388 0.386522,-0.33302 0.441775,-0.65416 0.02017,-0.11769 0.03095,-0.87706 0.02548,-2.42977 l -0.0085,-2.26834 -0.05946,-0.14443 c -0.08276,-0.2045 -0.225561,-0.36111 -0.407792,-0.45026 -0.104175,-0.051 -0.237591,-0.0744 -0.37381,-0.0764 z m 4.96147,1.03647 c 0.896509,9e-4 1.328978,0.51417 1.418777,1.69064 0.09356,1.22579 -0.288038,2.02605 -1.053464,2.22587 -0.09753,0.0255 -0.271157,0.0425 -0.382304,0.0425 -0.686097,0 -1.169059,-0.4153 -1.376299,-1.17241 -0.05179,-0.18923 -0.05866,-0.27637 -0.05947,-0.7731 -0.0011,-0.66346 0.03846,-0.88899 0.237878,-1.29984 0.241019,-0.49655 0.615687,-0.71445 1.21488,-0.71364 z m 7.357248,2.31932 0.399296,0 -0.01699,0.26336 c -0.01952,0.27785 -0.107612,0.57869 -0.220888,0.77311 -0.20548,0.35266 -0.560316,0.62858 -0.943019,0.73062 -0.190718,0.0509 -0.483824,0.0419 -0.654166,-0.0169 -0.19636,-0.0678 -0.329355,-0.17985 -0.424784,-0.36532 -0.07406,-0.14394 -0.07646,-0.17612 -0.07646,-0.42478 0,-0.39887 0.09175,-0.59988 0.365314,-0.73912 0.293838,-0.14956 0.819039,-0.22034 1.571698,-0.22089 z m 21.9528,0 0.40779,0 -0.0169,0.26336 c -0.0495,0.70393 -0.45976,1.26724 -1.06196,1.47825 -0.0753,0.0264 -0.23827,0.0453 -0.37381,0.0509 -0.40444,0.017 -0.65269,-0.10774 -0.80709,-0.40779 -0.0741,-0.14394 -0.0849,-0.17612 -0.0849,-0.42478 0,-0.39888 0.10026,-0.59989 0.37382,-0.73912 0.29384,-0.14957 0.81054,-0.22035 1.5632,-0.22089 z"
       id="path3863"
       inkscape:connector-curvature="0"
       sodipodi:nodetypes="scssssssscsscccscscccccsscccccccssssscssscscscsscccscssscssscscscscsssscsccccsccssscscssscsscssscccccccccsccsccssscscssscsscssscccccccccscssccssccccscscscccsccccsssssscssscccssscscccsscccsssssssssssscccsccccsscsscccssccsccscccccscscsscsccccscssscccccsccssc" />
    <g
       id="g3901"
       transform="matrix(1.2208147,0,0,1.2208147,65.325286,-217.88225)">
      <g
         style="opacity:0.8;fill:#ffffff"
         transform="matrix(0.02107027,0,0,0.02107027,276.4574,824.50472)"
         id="g3887">
        <path
           inkscape:connector-curvature="0"
           style="fill:#ffffff;fill-opacity:1"
           d="m -955.75,1005.1875 c -1.0005,0.013 -2.00252,0.036 -3.03125,0.094 -13.983,0.7842 -23.3807,5.1595 -34.3125,15.9688 -10.61565,10.4966 -6.69668,-4.3405 -65.62505,247.7812 -29.3739,125.6751 -53.7135,229.7376 -54.0937,231.25 l -0.6875,2.75 -270.1875,0 c -295.7605,10e-5 -274.6613,-0.4306 -287.4375,5.75 -7.4002,3.58 -18.8387,14.961 -22.5,22.375 -10.134,20.5207 -6.5556,44.6007 8.9688,60.375 8.2102,8.3427 18.7938,13.7346 30.2812,15.4376 3.0761,0.4559 137.4437,0.7615 298.5938,0.6874 l 293,-0.125 6.5624,-2.2187 c 13.179,-4.4822 25.5931,-15.0523 31.25,-26.625 3.5337,-7.2287 0.9424,3.3418 37.7813,-154.4063 17.2433,-73.8375 31.58605,-134.25 31.90625,-134.25 0.543,0 7.02965,27.3509 49.65625,210 18.00353,77.1425 19.0204,80.4526 28.03125,90.1563 6.35495,6.8436 15.12189,12.4005 23.78125,15.125 l 7.03125,2.2187 294,0 c 282.56111,0 294.2334,-0.076 300,-1.8437 23.6938,-7.2609 38.50675,-26.7722 38.46875,-50.625 -0.0232,-14.7353 -4.7719,-26.061 -15.375,-36.5313 -4.1982,-4.1456 -9.42435,-8.126 -12.78125,-9.75 -12.7747,-6.18 8.20196,-5.75 -286.03125,-5.75 -147.8344,0 -268.78125,-0.1709 -268.78125,-0.375 0,-0.2041 -24.31101,-104.2666 -54,-231.25 -60.10151,-257.0611 -55.3584,-239.4209 -67.125,-251.1874 -10.42828,-10.4282 -22.33621,-15.2318 -37.34375,-15.0313 z"
           transform="translate(0,768.89763)"
           id="path3889" />
        <path
           inkscape:connector-curvature="0"
           id="path3891"
           d="m -1257.2858,3104.0513 c -15.0032,-4.8415 -25.3979,-13.739 -32.4136,-27.7447 -1.8388,-3.6709 -17.6385,-69.5624 -55.6299,-232 -29.184,-124.7801 -53.5229,-228.999 -54.0866,-231.5975 l -1.0247,-4.7245 -128.1726,-0.2755 -128.1726,-0.2754 -6.4618,-2.332 c -9.0629,-3.2707 -14.6269,-6.7547 -21.0177,-13.1606 -9.7577,-9.7806 -15.0205,-22.5619 -15.0205,-36.4788 0,-9.3815 1.934,-17.7516 5.7658,-24.9538 3.7768,-7.0987 15.509,-18.6394 22.2342,-21.871 12.5027,-6.008 3.518,-5.7038 168.5,-5.7038 132.4348,0 151.8053,0.1889 156.9585,1.5311 14.4575,3.7657 27.6618,14.5393 33.8404,27.6108 2.9118,6.1603 8.8247,30.2691 36.3248,148.1081 18.0657,77.4125 33.0784,140.7466 33.3615,140.7425 0.2832,0 18.4,-76.6166 40.2597,-170.25 44.2072,-189.356 41.41,-179.2375 52.6579,-190.4853 10.2228,-10.2229 22.4707,-15.2655 37.0287,-15.2454 15.2959,0.021 26.698,4.6379 37.1616,15.0468 10.692,10.6361 16.8687,26.6656 15.5079,40.2455 -0.5215,5.2036 -126.7821,547.5408 -131.6906,565.6608 -5.2232,19.2818 -18.3904,33.02 -36.8419,38.4397 -7.3731,2.1657 -21.9128,2.0221 -29.0685,-0.287 z m 573.00002,-0.3934 c -8.9956,-3.0782 -15.1581,-6.9116 -21.54764,-13.4041 -11.02806,-11.2057 -5.52073,9.9943 -78.49689,-302.1662 -36.30342,-155.2904 -66.26088,-284.8904 -66.57214,-288 -1.30299,-13.0176 4.88918,-29.2993 15.11667,-39.7479 10.10594,-10.3244 22.42721,-15.3732 37.5685,-15.3942 14.55797,-0.02 26.80587,5.0225 37.0287,15.2454 11.27272,11.2727 8.47767,1.1759 52.52564,189.7428 21.77676,93.225 39.89836,169.8306 40.27016,170.2346 0.3719,0.404 14.7956,-59.671 32.0527,-133.5001 37.7925,-161.6831 34.3958,-147.8454 38.2058,-155.6444 3.9052,-7.9943 13.1989,-17.4522 21.4301,-21.809 12.5838,-6.6605 2.4727,-6.2811 167.4184,-6.2811 163.33661,0 154.50231,-0.3018 167.00001,5.7038 7.5105,3.609 18.7649,15.0211 22.7578,23.0767 4.1789,8.4307 5.5569,15.772 5.0045,26.662 -1.2541,24.7272 -19.2859,44.5145 -44.2623,48.5713 -3.6607,0.5946 -53.80981,0.9768 -128.62501,0.9804 l -122.625,0.01 -0.5725,2.75 c -0.3149,1.5125 -24.6598,105.7218 -54.0999,231.5763 -44.5231,190.3336 -54.0713,229.9312 -56.7609,235.3945 -5.9907,12.1687 -18.7632,22.5761 -32.7482,26.6838 -8.1478,2.3933 -22.0022,2.0797 -30.0685,-0.6804 z m -788.50002,-958.3778 c -17.9392,-2.6422 -33.6689,-13.6826 -41.0082,-28.783 -2.891,-5.9481 -8.5185,-28.7746 -35.6398,-144.5634 -29.9769,-127.9805 -32.2036,-138.1231 -32.1629,-146.5 0.071,-14.5699 4.9137,-26.1143 15.3034,-36.4796 9.931,-9.9076 22.528,-15.0204 37.0075,-15.0204 14.7402,0 26.8811,5.0276 37.1358,15.3782 11.1591,11.2634 9.273,4.6694 44.9424,157.1218 17.7142,75.7113 32.2942,140.1315 32.591,144 1.7257,22.4918 -14.233,45.6518 -36.1138,52.4101 -6.4645,1.9967 -17.0791,3.1692 -22.0554,2.4363 z m 1021.26342,-0.3294 c -12.4631,-2.2298 -22.9472,-7.979 -31.1596,-17.0869 -9.2003,-10.2037 -14.6193,-26.0946 -13.2554,-38.8709 0.3265,-3.0576 15.0064,-67.2092 32.6221,-142.5592 35.6992,-152.7008 33.7675,-145.9543 44.9607,-157.0193 10.9423,-10.8169 22.0868,-15.4807 36.9926,-15.4807 14.8082,0 27.1822,5.1049 37.576,15.502 10.2716,10.2747 16.4293,26.5538 15.0913,39.8965 -0.3253,3.2443 -15.0002,67.5943 -32.6108,143 -35.6392,152.6012 -33.843,146.3041 -44.8831,157.3443 -11.7075,11.7074 -30.2849,17.9667 -45.3338,15.2742 z"
           style="fill:#ffffff"
           sodipodi:nodetypes="sssccccsssscsssscsssscssscsssscsscscsssssscccsscccsssscssssssssscsssscss" />
      </g>
      <g
         transform="translate(116.42857,821.39763)"
         style="font-size:40px;font-style:normal;font-variant:normal;font-weight:normal;font-stretch:normal;line-height:125%;letter-spacing:0px;word-spacing:0px;opacity:0.8;fill:#ffffff;fill-opacity:1;stroke:none;font-family:Comfortaa;-inkscape-font-specification:Comfortaa"
         id="flowRoot3893">
        <path
           d="m 117.01953,40.484151 0.23438,0 c 0.88541,0.19534 1.32811,0.618517 1.32812,1.269531 l 0,25.390625 c -0.16928,0.937501 -0.63803,1.40625 -1.40625,1.40625 l -0.0781,0 c -0.93751,-0.195312 -1.40626,-0.611978 -1.40625,-1.25 l 0,-23.398437 c -1.32813,0.442732 -2.19402,0.664086 -2.59766,0.664062 -0.61198,2.4e-5 -1.02865,-0.449194 -1.25,-1.347656 l 0,-0.371094 c 0,-0.72914 0.98958,-1.295546 2.96875,-1.699218 l 2.20703,-0.664063"
           style=""
           id="path3911" />
      </g>
    </g>
  </g>
</svg>
