<?xml version="1.0" encoding="UTF-8" standalone="no"?>
<!-- Created with Inkscape (http://www.inkscape.org/) -->

<svg
   xmlns:dc="http://purl.org/dc/elements/1.1/"
   xmlns:cc="http://creativecommons.org/ns#"
   xmlns:rdf="http://www.w3.org/1999/02/22-rdf-syntax-ns#"
   xmlns:svg="http://www.w3.org/2000/svg"
   xmlns="http://www.w3.org/2000/svg"
   xmlns:xlink="http://www.w3.org/1999/xlink"
   xmlns:sodipodi="http://sodipodi.sourceforge.net/DTD/sodipodi-0.dtd"
   xmlns:inkscape="http://www.inkscape.org/namespaces/inkscape"
   width="460.62991"
   height="283.46457"
   id="svg2"
   version="1.1"
   inkscape:version="0.48.5 r10040"
   sodipodi:docname="xmr.svg"
   inkscape:export-filename="/home/mammique/Documents/daat/banknote/cryptos/dash.png"
   inkscape:export-xdpi="156.31"
   inkscape:export-ydpi="156.31">
  <defs
     id="defs4">
    <linearGradient
       id="linearGradient4925">
      <stop
         style="stop-color:#bd9800;stop-opacity:1;"
         offset="0"
         id="stop4927" />
      <stop
         id="stop3784"
         offset="0.51732481"
         style="stop-color:#ffcc04;stop-opacity:1;" />
      <stop
         offset="1"
         id="stop4929"
         style="stop-color:#a98500;stop-opacity:1;" />
    </linearGradient>
    <linearGradient
       id="linearGradient4835">
      <stop
         style="stop-color:#000000;stop-opacity:0.61572052"
         offset="0"
         id="stop4837" />
      <stop
         style="stop-color:#000000;stop-opacity:0;"
         offset="1"
         id="stop4839" />
    </linearGradient>
    <linearGradient
       inkscape:collect="always"
       id="linearGradient4531">
      <stop
         style="stop-color:#ffffff;stop-opacity:1;"
         offset="0"
         id="stop4533" />
      <stop
         style="stop-color:#ffffff;stop-opacity:0;"
         offset="1"
         id="stop4535" />
    </linearGradient>
    <clipPath
       clipPathUnits="userSpaceOnUse"
       id="clipPath5978">
      <rect
         style="color:#000000;fill:#cccccc;fill-opacity:1;fill-rule:nonzero;stroke:#003a00;stroke-width:0.89999998;stroke-linecap:butt;stroke-linejoin:miter;stroke-miterlimit:4;stroke-opacity:1;stroke-dasharray:none;stroke-dashoffset:0;marker:none;visibility:visible;display:inline;overflow:visible;enable-background:accumulate"
         id="rect5980"
         width="173.74623"
         height="1608.1628"
         x="610.13214"
         y="-378.01382"
         transform="matrix(0,-1,1,0,0,0)" />
    </clipPath>
    <inkscape:perspective
       id="perspective2497"
       inkscape:persp3d-origin="372.04724 : 350.78739 : 1"
       inkscape:vp_z="744.09448 : 526.18109 : 1"
       inkscape:vp_y="0 : 1000 : 0"
       inkscape:vp_x="0 : 526.18109 : 1"
       sodipodi:type="inkscape:persp3d" />
    <linearGradient
       inkscape:collect="always"
       xlink:href="#linearGradient4531"
       id="linearGradient4823"
       gradientUnits="userSpaceOnUse"
       x1="182.81697"
       y1="175.83376"
       x2="183.58928"
       y2="-16.309107"
       gradientTransform="translate(53.033008,825.69937)" />
    <radialGradient
       inkscape:collect="always"
       xlink:href="#linearGradient4835"
       id="radialGradient4845"
       cx="7.3256431"
       cy="198.2952"
       fx="7.3256431"
       fy="198.2952"
       r="109.27257"
       gradientTransform="matrix(0.19829552,0.15553474,-0.16582027,0.21140881,93.302602,945.5672)"
       gradientUnits="userSpaceOnUse" />
    <linearGradient
       id="linearGradient4925-6">
      <stop
         style="stop-color:#bd9800;stop-opacity:1;"
         offset="0"
         id="stop4927-7" />
      <stop
         id="stop3784-5"
         offset="0.5"
         style="stop-color:#ffcc04;stop-opacity:1;" />
      <stop
         offset="1"
         id="stop4929-3"
         style="stop-color:#a98500;stop-opacity:1;" />
    </linearGradient>
    <linearGradient
       gradientTransform="translate(-17.649337,-11.359598)"
       y2="38.317909"
       x2="313.61914"
       y1="142.8687"
       x1="50.479298"
       gradientUnits="userSpaceOnUse"
       id="linearGradient3802"
       xlink:href="#linearGradient4925-6"
       inkscape:collect="always" />
    <linearGradient
       id="linearGradient4925-2">
      <stop
         style="stop-color:#bd9800;stop-opacity:1;"
         offset="0"
         id="stop4927-3" />
      <stop
         id="stop3784-7"
         offset="0.38554054"
         style="stop-color:#ffcc04;stop-opacity:1;" />
      <stop
         offset="1"
         id="stop4929-5"
         style="stop-color:#a98500;stop-opacity:1;" />
    </linearGradient>
    <linearGradient
       y2="38.317909"
       x2="313.61914"
       y1="83.269699"
       x1="19.16457"
       gradientTransform="translate(-17.649337,-11.359581)"
       gradientUnits="userSpaceOnUse"
       id="linearGradient4077"
       xlink:href="#linearGradient4925-2"
       inkscape:collect="always" />
    <linearGradient
       id="linearGradient4925-28">
      <stop
         style="stop-color:#bd9800;stop-opacity:1;"
         offset="0"
         id="stop4927-9" />
      <stop
         id="stop3784-73"
         offset="0.51732481"
         style="stop-color:#ffcc04;stop-opacity:1;" />
      <stop
         offset="1"
         id="stop4929-6"
         style="stop-color:#a98500;stop-opacity:1;" />
    </linearGradient>
    <linearGradient
       y2="19.746481"
       x2="180.76199"
       y1="166.12685"
       x1="180.59314"
       gradientTransform="translate(-17.649337,-11.359581)"
       gradientUnits="userSpaceOnUse"
       id="linearGradient4113"
       xlink:href="#linearGradient4925-28"
       inkscape:collect="always" />
    <linearGradient
       id="linearGradient4925-7">
      <stop
         style="stop-color:#bd9800;stop-opacity:1;"
         offset="0"
         id="stop4927-5" />
      <stop
         id="stop3784-3"
         offset="0.51732481"
         style="stop-color:#ffcc04;stop-opacity:1;" />
      <stop
         offset="1"
         id="stop4929-56"
         style="stop-color:#a98500;stop-opacity:1;" />
    </linearGradient>
    <linearGradient
       y2="19.746481"
       x2="180.76199"
       y1="166.12685"
       x1="180.59314"
       gradientTransform="translate(-17.649337,-11.359581)"
       gradientUnits="userSpaceOnUse"
       id="linearGradient3327"
       xlink:href="#linearGradient4925-7"
       inkscape:collect="always" />
    <linearGradient
       id="linearGradient4925-7-1">
      <stop
         style="stop-color:#bd9800;stop-opacity:1;"
         offset="0"
         id="stop4927-5-2" />
      <stop
         id="stop3784-3-7"
         offset="0.51732481"
         style="stop-color:#ffcc04;stop-opacity:1;" />
      <stop
         offset="1"
         id="stop4929-56-0"
         style="stop-color:#a98500;stop-opacity:1;" />
    </linearGradient>
    <linearGradient
       y2="19.032196"
       x2="138.61914"
       y1="166.12685"
       x1="180.59314"
       gradientTransform="translate(-17.649337,-7.9568844)"
       gradientUnits="userSpaceOnUse"
       id="linearGradient3455"
       xlink:href="#linearGradient4925-7-1"
       inkscape:collect="always" />
    <linearGradient
       inkscape:collect="always"
       xlink:href="#linearGradient4925-7-6"
       id="linearGradient3350-3"
       gradientUnits="userSpaceOnUse"
       gradientTransform="translate(54.548237,823.78353)"
       x1="180.59314"
       y1="166.12685"
       x2="138.61914"
       y2="19.032196" />
    <linearGradient
       id="linearGradient4925-7-6">
      <stop
         style="stop-color:#bd9800;stop-opacity:1;"
         offset="0"
         id="stop4927-5-0" />
      <stop
         id="stop3784-3-6"
         offset="0.51732481"
         style="stop-color:#ffcc04;stop-opacity:1;" />
      <stop
         offset="1"
         id="stop4929-56-2"
         style="stop-color:#a98500;stop-opacity:1;" />
    </linearGradient>
    <linearGradient
       y2="19.032196"
       x2="138.61914"
       y1="166.12685"
       x1="180.59314"
       gradientTransform="translate(-17.649337,-7.9568844)"
       gradientUnits="userSpaceOnUse"
       id="linearGradient3491"
       xlink:href="#linearGradient4925-7-6"
       inkscape:collect="always" />
    <linearGradient
       id="linearGradient4835-7">
      <stop
         style="stop-color:#000000;stop-opacity:0.61572052"
         offset="0"
         id="stop4837-5" />
      <stop
         style="stop-color:#000000;stop-opacity:0;"
         offset="1"
         id="stop4839-9" />
    </linearGradient>
    <radialGradient
       r="109.27257"
       fy="198.2952"
       fx="7.3256431"
       cy="198.2952"
       cx="7.3256431"
       gradientTransform="matrix(0.19829552,0.15553474,-0.16582027,0.21140881,132.487,52.51516)"
       gradientUnits="userSpaceOnUse"
       id="radialGradient3545"
       xlink:href="#linearGradient4835-7"
       inkscape:collect="always" />
    <linearGradient
       id="linearGradient4835-8">
      <stop
         style="stop-color:#000000;stop-opacity:0.61572052"
         offset="0"
         id="stop4837-9" />
      <stop
         style="stop-color:#000000;stop-opacity:0;"
         offset="1"
         id="stop4839-7" />
    </linearGradient>
    <radialGradient
       r="109.27257"
       fy="198.2952"
       fx="7.3256431"
       cy="198.2952"
       cx="7.3256431"
       gradientTransform="matrix(0.19829552,0.15553474,-0.16582027,0.21140881,132.487,52.51516)"
       gradientUnits="userSpaceOnUse"
       id="radialGradient3578"
       xlink:href="#linearGradient4835-8"
       inkscape:collect="always" />
    <linearGradient
       inkscape:collect="always"
       xlink:href="#linearGradient4925-7-6-1"
       id="linearGradient3350-3-6"
       gradientUnits="userSpaceOnUse"
       gradientTransform="translate(54.548237,823.78353)"
       x1="180.59314"
       y1="166.12685"
       x2="138.61914"
       y2="19.032196" />
    <linearGradient
       id="linearGradient4925-7-6-1">
      <stop
         style="stop-color:#bd9800;stop-opacity:1;"
         offset="0"
         id="stop4927-5-0-2" />
      <stop
         id="stop3784-3-6-9"
         offset="0.51732481"
         style="stop-color:#ffcc04;stop-opacity:1;" />
      <stop
         offset="1"
         id="stop4929-56-2-3"
         style="stop-color:#a98500;stop-opacity:1;" />
    </linearGradient>
    <linearGradient
       y2="19.032196"
       x2="138.61914"
       y1="166.12685"
       x1="180.59314"
       gradientTransform="translate(-17.649337,-14.676051)"
       gradientUnits="userSpaceOnUse"
       id="linearGradient3612"
       xlink:href="#linearGradient4925-7-6-1"
       inkscape:collect="always" />
  </defs>
  <sodipodi:namedview
     id="base"
     pagecolor="#5271a5"
     bordercolor="#666666"
     borderopacity="1.0"
     inkscape:pageopacity="1"
     inkscape:pageshadow="2"
     inkscape:zoom="1.4"
     inkscape:cx="328.25515"
     inkscape:cy="203.71645"
     inkscape:document-units="px"
     inkscape:current-layer="layer1"
     showgrid="false"
     units="mm"
     inkscape:window-width="1364"
     inkscape:window-height="747"
     inkscape:window-x="0"
     inkscape:window-y="19"
     inkscape:window-maximized="1"
     showguides="true"
     inkscape:guide-bbox="true" />
  <metadata
     id="metadata7">
    <rdf:RDF>
      <cc:Work
         rdf:about="">
        <dc:format>image/svg+xml</dc:format>
        <dc:type
           rdf:resource="http://purl.org/dc/dcmitype/StillImage" />
        <dc:title></dc:title>
      </cc:Work>
    </rdf:RDF>
  </metadata>
  <g
     inkscape:label="Calque 1"
     inkscape:groupmode="layer"
     id="layer1"
     transform="translate(0,-768.89763)">
    <g
       id="g3167"
       transform="matrix(0.83110667,0,0,0.83112077,-81.01903,377.2712)">
      <path
         style="fill:#ff6600"
         id="path22"
         d="m 261.34715,605.45935 c -20.377,0 -36.903,16.524 -36.903,36.902 0,4.074 0.66,7.992 1.88,11.657 l 11.036,0 0,-31.049 23.987,23.987 23.987,-23.987 0,31.049 11.037,0 c 1.22,-3.665 1.88,-7.583 1.88,-11.657 0,-20.378 -16.526,-36.902 -36.904,-36.902"
         inkscape:connector-curvature="0" />
      <path
         style="fill:#4c4c4c"
         id="path26"
         d="m 245.36355,642.00205 0,19.537 -15.55,0 c 6.478,10.628 18.178,17.726 31.533,17.726 13.355,0 25.056,-7.098 31.533,-17.726 l -15.549,0 0,-19.537 -15.984,15.984 z"
         inkscape:connector-curvature="0" />
    </g>
    <g
       id="g3285"
       transform="matrix(0.7225228,0,0,0.7225228,16.875101,229.09864)">
      <g
         transform="matrix(0.24414779,0,0,0.24414779,0.27165126,684.73563)"
         id="g3253"
         style="opacity:0.8;fill:#ffffff">
        <path
           inkscape:connector-curvature="0"
           d="m 327.06144,616.17363 c -20.377,0 -36.903,16.524 -36.903,36.902 0,4.074 0.66,7.992 1.88,11.657 l 11.036,0 0,-31.049 23.987,23.987 23.987,-23.987 0,31.049 11.037,0 c 1.22,-3.665 1.88,-7.583 1.88,-11.657 0,-20.378 -16.526,-36.902 -36.904,-36.902"
           id="path22-3"
           style="fill:#ffffff" />
        <path
           inkscape:connector-curvature="0"
           d="m 311.07784,652.71633 0,19.537 -15.55,0 c 6.478,10.628 18.178,17.726 31.533,17.726 13.355,0 25.056,-7.098 31.533,-17.726 l -15.549,0 0,-19.537 -15.984,15.984 z"
           id="path26-6"
           style="fill:#ffffff" />
      </g>
      <g
         transform="translate(-2,0)"
         id="g3277">
        <path
           inkscape:connector-curvature="0"
           d="m 155.82359,847.56103 c -0.62738,0.64604 -1.38822,0.96793 -2.28283,0.96793 -0.79043,0 -1.4892,-0.24825 -2.10083,-0.74733 -0.78624,-0.63639 -1.17888,-1.50303 -1.17888,-2.59958 0,-0.98176 0.31257,-1.79309 0.9377,-2.4298 0.62289,-0.63896 1.39273,-0.95635 2.31017,-0.95635 0.90587,0 1.67603,0.32672 2.30792,0.97919 0.63446,0.65278 0.95153,1.45092 0.95153,2.39538 0,0.94703 -0.3145,1.74227 -0.94478,2.39056 m 1.31748,-6.08959 c -1.00716,-1.01327 -2.21145,-1.52136 -3.61382,-1.52136 -0.92419,0 -1.78826,0.2325 -2.588,0.69653 -0.80265,0.46434 -1.4326,1.09398 -1.88988,1.88955 -0.45759,0.79524 -0.6872,1.6667 -0.6872,2.61341 0,1.41395 0.49169,2.63431 1.47602,3.66237 0.98336,1.02967 2.21819,1.54226 3.70257,1.54226 1.41845,0 2.62563,-0.49876 3.62089,-1.5011 0.99526,-1.00008 1.49177,-2.22495 1.49177,-3.67105 0,-1.45769 -0.50358,-2.69413 -1.51235,-3.71061"
           id="path30"
           style="opacity:0.8;fill:#ffffff" />
        <path
           inkscape:connector-curvature="0"
           d="m 144.76077,843.76938 c -0.23893,0.16658 -0.3518,0.24858 -0.98401,0.24858 l -2.48767,0 0,-2.12816 2.4105,0 c 0.48332,0 0.56886,0.0363 0.76694,0.11094 0.19745,0.0724 0.35437,0.19327 0.47271,0.35952 0.11834,0.16657 0.17622,0.36434 0.17622,0.59105 0,0.38138 -0.11833,0.65407 -0.35469,0.81807 m 0.29906,1.95934 c 0.6589,-0.23668 1.15348,-0.58398 1.48148,-1.04222 0.32832,-0.46081 0.49007,-1.03063 0.49007,-1.71558 0,-0.64925 -0.14695,-1.21393 -0.44409,-1.68921 -0.29681,-0.47528 -0.69009,-0.81551 -1.17727,-1.02067 -0.4875,-0.20516 -1.30558,-0.30871 -2.45648,-0.30871 l -3.64308,0 0,10.39961 1.97863,0 0,-4.40359 1.72684,0 2.34103,4.40359 2.16418,0 -2.46131,-4.62322 z"
           id="path34"
           style="opacity:0.8;fill:#ffffff" />
        <path
           inkscape:connector-curvature="0"
           d="m 130.44082,839.95008 6.74271,0 0,1.93747 -4.77598,0 0,2.12848 4.77598,0 0,1.9037 -4.77598,0 0,2.4851 4.77598,0 0,1.94519 -6.74271,0 0,-10.39994 z"
           id="path38"
           style="opacity:0.8;fill:#ffffff" />
        <path
           inkscape:connector-curvature="0"
           d="m 119.99352,839.95008 1.89438,0 4.46147,6.84304 0,-6.84304 1.97863,0 0,10.39961 -1.90145,0 -4.4544,-6.82116 0,6.82116 -1.97863,0 0,-10.39961 z"
           id="path42"
           style="opacity:0.8;fill:#ffffff" />
        <use
           style="opacity:0.8;fill:#ffffff"
           transform="translate(-40.215239,1.5454974e-6)"
           id="use46"
           x="0"
           y="0"
           width="282"
           height="75"
           xlink:href="#path30" />
        <path
           inkscape:connector-curvature="0"
           d="m 96.969476,839.94979 1.937466,0 2.403098,7.25368 2.43976,-7.25368 1.90853,0 1.75224,10.39994 -1.90885,0 -1.11713,-6.56809 -2.21274,6.56809 -1.74484,0 -2.183469,-6.56809 -1.139005,6.56809 -1.930392,0 1.795332,-10.39994 z"
           id="path50"
           style="opacity:0.8;fill:#ffffff" />
      </g>
    </g>
    <g
       id="g3332"
       transform="matrix(1.1473165,0,0,1.1473165,23.181414,-118.56636)">
      <g
         style="opacity:0.8;fill:#ffffff"
         id="g3297"
         transform="matrix(0.37557437,0,0,0.37558075,214.07968,603.13219)">
        <path
           style="fill:#ffffff"
           id="path3299"
           d="m 261.34715,605.45935 c -20.377,0 -36.903,16.524 -36.903,36.902 0,4.074 0.66,7.992 1.88,11.657 l 11.036,0 0,-31.049 23.987,23.987 23.987,-23.987 0,31.049 11.037,0 c 1.22,-3.665 1.88,-7.583 1.88,-11.657 0,-20.378 -16.526,-36.902 -36.904,-36.902"
           inkscape:connector-curvature="0" />
        <path
           style="fill:#ffffff"
           id="path3301"
           d="m 245.36355,642.00205 0,19.537 -15.55,0 c 6.478,10.628 18.178,17.726 31.533,17.726 13.355,0 25.056,-7.098 31.533,-17.726 l -15.549,0 0,-19.537 -15.984,15.984 z"
           inkscape:connector-curvature="0" />
      </g>
      <g
         transform="translate(60.714285,823.50656)"
         style="font-size:40px;font-style:normal;font-variant:normal;font-weight:500;font-stretch:normal;line-height:125%;letter-spacing:0px;word-spacing:0px;opacity:0.8;color:#000000;fill:#ffffff;fill-opacity:1;fill-rule:nonzero;stroke:none;stroke-width:0.37557757;marker:none;visibility:visible;display:inline;overflow:visible;enable-background:accumulate;font-family:Ubuntu;-inkscape-font-specification:Ubuntu Medium"
         id="flowRoot3303">
        <path
           d="m 219.31875,12.784506 c 1.54666,-0.613311 3.09333,-1.399977 4.64,-2.36 1.57332,-0.9599746 2.95999,-2.0933068 4.16,-3.3999999 l 3.4,0 0,27.7199999 -4.84,0 0,-21.24 c -0.72001,0.560021 -1.62668,1.106687 -2.72,1.64 -1.09334,0.533352 -2.14667,0.973352 -3.16,1.32 l -1.48,-3.68"
           style="marker:none"
           id="path3477" />
      </g>
    </g>
  </g>
</svg>
