<?xml version="1.0" encoding="UTF-8" standalone="no"?>
<!-- Created with Inkscape (http://www.inkscape.org/) -->

<svg
   xmlns:dc="http://purl.org/dc/elements/1.1/"
   xmlns:cc="http://creativecommons.org/ns#"
   xmlns:rdf="http://www.w3.org/1999/02/22-rdf-syntax-ns#"
   xmlns:svg="http://www.w3.org/2000/svg"
   xmlns="http://www.w3.org/2000/svg"
   xmlns:xlink="http://www.w3.org/1999/xlink"
   xmlns:sodipodi="http://sodipodi.sourceforge.net/DTD/sodipodi-0.dtd"
   xmlns:inkscape="http://www.inkscape.org/namespaces/inkscape"
   width="460.62991"
   height="283.46457"
   id="svg2"
   version="1.1"
   inkscape:version="0.48.5 r10040"
   sodipodi:docname="xrp.svg"
   inkscape:export-filename="/home/mammique/Documents/daat/banknote/cryptos/dash.png"
   inkscape:export-xdpi="156.31"
   inkscape:export-ydpi="156.31">
  <defs
     id="defs4">
    <linearGradient
       id="linearGradient4925">
      <stop
         style="stop-color:#bd9800;stop-opacity:1;"
         offset="0"
         id="stop4927" />
      <stop
         id="stop3784"
         offset="0.51732481"
         style="stop-color:#ffcc04;stop-opacity:1;" />
      <stop
         offset="1"
         id="stop4929"
         style="stop-color:#a98500;stop-opacity:1;" />
    </linearGradient>
    <linearGradient
       id="linearGradient4835">
      <stop
         style="stop-color:#000000;stop-opacity:0.61572052"
         offset="0"
         id="stop4837" />
      <stop
         style="stop-color:#000000;stop-opacity:0;"
         offset="1"
         id="stop4839" />
    </linearGradient>
    <linearGradient
       inkscape:collect="always"
       id="linearGradient4531">
      <stop
         style="stop-color:#ffffff;stop-opacity:1;"
         offset="0"
         id="stop4533" />
      <stop
         style="stop-color:#ffffff;stop-opacity:0;"
         offset="1"
         id="stop4535" />
    </linearGradient>
    <clipPath
       clipPathUnits="userSpaceOnUse"
       id="clipPath5978">
      <rect
         style="color:#000000;fill:#cccccc;fill-opacity:1;fill-rule:nonzero;stroke:#003a00;stroke-width:0.89999998;stroke-linecap:butt;stroke-linejoin:miter;stroke-miterlimit:4;stroke-opacity:1;stroke-dasharray:none;stroke-dashoffset:0;marker:none;visibility:visible;display:inline;overflow:visible;enable-background:accumulate"
         id="rect5980"
         width="173.74623"
         height="1608.1628"
         x="610.13214"
         y="-378.01382"
         transform="matrix(0,-1,1,0,0,0)" />
    </clipPath>
    <inkscape:perspective
       id="perspective2497"
       inkscape:persp3d-origin="372.04724 : 350.78739 : 1"
       inkscape:vp_z="744.09448 : 526.18109 : 1"
       inkscape:vp_y="0 : 1000 : 0"
       inkscape:vp_x="0 : 526.18109 : 1"
       sodipodi:type="inkscape:persp3d" />
    <linearGradient
       inkscape:collect="always"
       xlink:href="#linearGradient4531"
       id="linearGradient4823"
       gradientUnits="userSpaceOnUse"
       x1="182.81697"
       y1="175.83376"
       x2="183.58928"
       y2="-16.309107"
       gradientTransform="translate(53.033008,825.69937)" />
    <radialGradient
       inkscape:collect="always"
       xlink:href="#linearGradient4835"
       id="radialGradient4845"
       cx="7.3256431"
       cy="198.2952"
       fx="7.3256431"
       fy="198.2952"
       r="109.27257"
       gradientTransform="matrix(0.19829552,0.15553474,-0.16582027,0.21140881,93.302602,945.5672)"
       gradientUnits="userSpaceOnUse" />
    <linearGradient
       id="linearGradient4925-6">
      <stop
         style="stop-color:#bd9800;stop-opacity:1;"
         offset="0"
         id="stop4927-7" />
      <stop
         id="stop3784-5"
         offset="0.5"
         style="stop-color:#ffcc04;stop-opacity:1;" />
      <stop
         offset="1"
         id="stop4929-3"
         style="stop-color:#a98500;stop-opacity:1;" />
    </linearGradient>
    <linearGradient
       gradientTransform="translate(-17.649337,-11.359598)"
       y2="38.317909"
       x2="313.61914"
       y1="142.8687"
       x1="50.479298"
       gradientUnits="userSpaceOnUse"
       id="linearGradient3802"
       xlink:href="#linearGradient4925-6"
       inkscape:collect="always" />
    <linearGradient
       id="linearGradient4925-2">
      <stop
         style="stop-color:#bd9800;stop-opacity:1;"
         offset="0"
         id="stop4927-3" />
      <stop
         id="stop3784-7"
         offset="0.38554054"
         style="stop-color:#ffcc04;stop-opacity:1;" />
      <stop
         offset="1"
         id="stop4929-5"
         style="stop-color:#a98500;stop-opacity:1;" />
    </linearGradient>
    <linearGradient
       y2="38.317909"
       x2="313.61914"
       y1="83.269699"
       x1="19.16457"
       gradientTransform="translate(-17.649337,-11.359581)"
       gradientUnits="userSpaceOnUse"
       id="linearGradient4077"
       xlink:href="#linearGradient4925-2"
       inkscape:collect="always" />
    <linearGradient
       id="linearGradient4925-28">
      <stop
         style="stop-color:#bd9800;stop-opacity:1;"
         offset="0"
         id="stop4927-9" />
      <stop
         id="stop3784-73"
         offset="0.51732481"
         style="stop-color:#ffcc04;stop-opacity:1;" />
      <stop
         offset="1"
         id="stop4929-6"
         style="stop-color:#a98500;stop-opacity:1;" />
    </linearGradient>
    <linearGradient
       y2="19.746481"
       x2="180.76199"
       y1="166.12685"
       x1="180.59314"
       gradientTransform="translate(-17.649337,-11.359581)"
       gradientUnits="userSpaceOnUse"
       id="linearGradient4113"
       xlink:href="#linearGradient4925-28"
       inkscape:collect="always" />
    <linearGradient
       id="linearGradient4925-7">
      <stop
         style="stop-color:#bd9800;stop-opacity:1;"
         offset="0"
         id="stop4927-5" />
      <stop
         id="stop3784-3"
         offset="0.51732481"
         style="stop-color:#ffcc04;stop-opacity:1;" />
      <stop
         offset="1"
         id="stop4929-56"
         style="stop-color:#a98500;stop-opacity:1;" />
    </linearGradient>
    <linearGradient
       y2="19.746481"
       x2="180.76199"
       y1="166.12685"
       x1="180.59314"
       gradientTransform="translate(-17.649337,-11.359581)"
       gradientUnits="userSpaceOnUse"
       id="linearGradient3327"
       xlink:href="#linearGradient4925-7"
       inkscape:collect="always" />
    <linearGradient
       id="linearGradient4925-7-1">
      <stop
         style="stop-color:#bd9800;stop-opacity:1;"
         offset="0"
         id="stop4927-5-2" />
      <stop
         id="stop3784-3-7"
         offset="0.51732481"
         style="stop-color:#ffcc04;stop-opacity:1;" />
      <stop
         offset="1"
         id="stop4929-56-0"
         style="stop-color:#a98500;stop-opacity:1;" />
    </linearGradient>
    <linearGradient
       y2="19.032196"
       x2="138.61914"
       y1="166.12685"
       x1="180.59314"
       gradientTransform="translate(-17.649337,-7.9568844)"
       gradientUnits="userSpaceOnUse"
       id="linearGradient3455"
       xlink:href="#linearGradient4925-7-1"
       inkscape:collect="always" />
    <linearGradient
       inkscape:collect="always"
       xlink:href="#linearGradient4925-7-6"
       id="linearGradient3350-3"
       gradientUnits="userSpaceOnUse"
       gradientTransform="translate(54.548237,823.78353)"
       x1="180.59314"
       y1="166.12685"
       x2="138.61914"
       y2="19.032196" />
    <linearGradient
       id="linearGradient4925-7-6">
      <stop
         style="stop-color:#bd9800;stop-opacity:1;"
         offset="0"
         id="stop4927-5-0" />
      <stop
         id="stop3784-3-6"
         offset="0.51732481"
         style="stop-color:#ffcc04;stop-opacity:1;" />
      <stop
         offset="1"
         id="stop4929-56-2"
         style="stop-color:#a98500;stop-opacity:1;" />
    </linearGradient>
    <linearGradient
       y2="19.032196"
       x2="138.61914"
       y1="166.12685"
       x1="180.59314"
       gradientTransform="translate(-17.649337,-7.9568844)"
       gradientUnits="userSpaceOnUse"
       id="linearGradient3491"
       xlink:href="#linearGradient4925-7-6"
       inkscape:collect="always" />
    <linearGradient
       id="linearGradient4835-7">
      <stop
         style="stop-color:#000000;stop-opacity:0.61572052"
         offset="0"
         id="stop4837-5" />
      <stop
         style="stop-color:#000000;stop-opacity:0;"
         offset="1"
         id="stop4839-9" />
    </linearGradient>
    <radialGradient
       r="109.27257"
       fy="198.2952"
       fx="7.3256431"
       cy="198.2952"
       cx="7.3256431"
       gradientTransform="matrix(0.19829552,0.15553474,-0.16582027,0.21140881,132.487,52.51516)"
       gradientUnits="userSpaceOnUse"
       id="radialGradient3545"
       xlink:href="#linearGradient4835-7"
       inkscape:collect="always" />
    <linearGradient
       id="linearGradient4835-8">
      <stop
         style="stop-color:#000000;stop-opacity:0.61572052"
         offset="0"
         id="stop4837-9" />
      <stop
         style="stop-color:#000000;stop-opacity:0;"
         offset="1"
         id="stop4839-7" />
    </linearGradient>
    <radialGradient
       r="109.27257"
       fy="198.2952"
       fx="7.3256431"
       cy="198.2952"
       cx="7.3256431"
       gradientTransform="matrix(0.19829552,0.15553474,-0.16582027,0.21140881,132.487,52.51516)"
       gradientUnits="userSpaceOnUse"
       id="radialGradient3578"
       xlink:href="#linearGradient4835-8"
       inkscape:collect="always" />
    <linearGradient
       inkscape:collect="always"
       xlink:href="#linearGradient4925-7-6-1"
       id="linearGradient3350-3-6"
       gradientUnits="userSpaceOnUse"
       gradientTransform="translate(54.548237,823.78353)"
       x1="180.59314"
       y1="166.12685"
       x2="138.61914"
       y2="19.032196" />
    <linearGradient
       id="linearGradient4925-7-6-1">
      <stop
         style="stop-color:#bd9800;stop-opacity:1;"
         offset="0"
         id="stop4927-5-0-2" />
      <stop
         id="stop3784-3-6-9"
         offset="0.51732481"
         style="stop-color:#ffcc04;stop-opacity:1;" />
      <stop
         offset="1"
         id="stop4929-56-2-3"
         style="stop-color:#a98500;stop-opacity:1;" />
    </linearGradient>
    <linearGradient
       y2="19.032196"
       x2="138.61914"
       y1="166.12685"
       x1="180.59314"
       gradientTransform="translate(-17.649337,-14.676051)"
       gradientUnits="userSpaceOnUse"
       id="linearGradient3612"
       xlink:href="#linearGradient4925-7-6-1"
       inkscape:collect="always" />
    <linearGradient
       id="linear-gradient"
       x1="83.681999"
       y1="72.488297"
       x2="231.177"
       y2="219.9832"
       gradientUnits="userSpaceOnUse">
      <stop
         offset="0"
         stop-color="#00aae4"
         id="stop3134" />
      <stop
         offset="1"
         stop-color="#006097"
         id="stop3136" />
    </linearGradient>
    <linearGradient
       gradientTransform="matrix(0.28324188,0,0,0.28324188,95.106058,868.35241)"
       y2="219.9832"
       x2="231.177"
       y1="72.488297"
       x1="83.681999"
       gradientUnits="userSpaceOnUse"
       id="linearGradient3172"
       xlink:href="#linear-gradient"
       inkscape:collect="always" />
    <clipPath
       clipPathUnits="userSpaceOnUse"
       id="clipPath36">
      <path
         inkscape:connector-curvature="0"
         d="m 0,595.28 841.89,0 L 841.89,0 0,0 0,595.28 z"
         id="path38" />
    </clipPath>
    <clipPath
       clipPathUnits="userSpaceOnUse"
       id="clipPath16">
      <path
         inkscape:connector-curvature="0"
         d="m 171.631,380.727 c -10.867,-6.277 -17.563,-17.873 -17.563,-30.426 l 0,0 c 0,-6.807 2.421,-13.07 5.509,-18.88 l 0,0 c 2.598,-4.885 3.913,-13.954 -4.998,-19.099 l 0,0 c -6.628,-3.826 -14.898,-1.404 -19.031,5.209 l 0,0 c -3.49,5.586 -7.705,10.82 -13.603,14.226 l 0,0 c -10.869,6.276 -24.263,6.276 -35.132,0 l 0,0 C 75.945,325.482 69.249,313.883 69.249,301.332 l 0,0 c 0,-12.552 6.696,-24.149 17.564,-30.425 l 0,0 c 10.869,-6.275 24.263,-6.275 35.132,0 l 0,0 c 5.898,3.407 10.111,8.635 13.598,14.217 l 0,0 c 2.865,4.586 10.018,10.426 19.036,5.217 l 0,0 c 6.618,-3.822 8.664,-12.203 4.995,-19.105 l 0,0 c -3.088,-5.805 -5.506,-12.069 -5.506,-18.873 l 0,0 c 0,-12.552 6.696,-24.149 17.563,-30.423 l 0,0 c 10.87,-6.277 24.262,-6.277 35.131,0 l 0,0 c 10.87,6.274 17.565,17.871 17.565,30.423 l 0,0 c 0,12.55 -6.695,24.148 -17.565,30.421 l 0,0 c -5.945,3.436 -12.642,4.428 -19.277,4.663 l 0,0 c -5.566,0.193 -13.868,3.761 -13.868,13.885 l 0,0 c 0,7.543 6.114,13.614 13.87,13.886 l 0,0 c 6.635,0.231 13.333,1.227 19.275,4.662 l 0,0 c 10.87,6.275 17.565,17.871 17.565,30.421 l 0,0 c 0,12.553 -6.695,24.149 -17.565,30.426 l 0,0 c -5.433,3.136 -11.498,4.707 -17.564,4.707 l 0,0 c -6.065,0 -12.13,-1.571 -17.567,-4.707"
         id="path18" />
    </clipPath>
    <linearGradient
       x1="0"
       y1="0"
       x2="1"
       y2="0"
       gradientUnits="userSpaceOnUse"
       gradientTransform="matrix(116.60439,-116.60439,116.60439,116.60439,100.22021,346.96484)"
       spreadMethod="pad"
       id="linearGradient24">
      <stop
         style="stop-opacity:1;stop-color:#23a8e0"
         offset="0"
         id="stop26" />
      <stop
         style="stop-opacity:1;stop-color:#075993"
         offset="1"
         id="stop28" />
    </linearGradient>
  </defs>
  <sodipodi:namedview
     id="base"
     pagecolor="#5271a5"
     bordercolor="#666666"
     borderopacity="1.0"
     inkscape:pageopacity="1"
     inkscape:pageshadow="2"
     inkscape:zoom="1.979899"
     inkscape:cx="236.6256"
     inkscape:cy="145.61094"
     inkscape:document-units="px"
     inkscape:current-layer="layer1"
     showgrid="false"
     units="mm"
     inkscape:window-width="1364"
     inkscape:window-height="747"
     inkscape:window-x="0"
     inkscape:window-y="19"
     inkscape:window-maximized="1"
     showguides="true"
     inkscape:guide-bbox="true" />
  <metadata
     id="metadata7">
    <rdf:RDF>
      <cc:Work
         rdf:about="">
        <dc:format>image/svg+xml</dc:format>
        <dc:type
           rdf:resource="http://purl.org/dc/dcmitype/StillImage" />
        <dc:title></dc:title>
      </cc:Work>
    </rdf:RDF>
  </metadata>
  <g
     inkscape:label="Calque 1"
     inkscape:groupmode="layer"
     id="layer1"
     transform="translate(0,-768.89763)">
    <path
       inkscape:connector-curvature="0"
       d="m 152.41491,916.41885 c -2.13119,-1.23049 -4.53118,-1.58721 -6.90843,-1.67021 -1.99451,-0.0696 -4.97022,-1.34775 -4.97022,-4.976 0,-2.70329 2.19141,-4.87891 4.97124,-4.97598 2.37704,-0.083 4.77681,-0.44013 6.90741,-1.67024 a 12.58945,12.58945 0 1 0 -18.88413,-10.90238 c 0,2.43919 0.86754,4.68385 1.97451,6.76574 0.93102,1.751 1.40205,5.00089 -1.79108,6.84437 -2.37532,1.37138 -5.33976,0.50302 -6.82047,-1.86671 -1.25074,-2.00155 -2.76059,-3.87696 -4.87445,-5.09761 a 12.589393,12.589393 0 1 0 0,21.8054 c 2.11327,-1.22019 3.62326,-3.09433 4.87321,-5.09467 1.02641,-1.64266 3.58989,-3.73643 6.82159,-1.86918 2.3717,1.37028 3.10491,4.37266 1.79009,6.84563 -1.10679,2.08153 -1.97323,4.32572 -1.97323,6.7645 a 12.58928,12.58928 0 1 0 18.88396,-10.90266 z"
       style="fill:url(#linearGradient3172)"
       id="path3152" />
    <g
       id="g3441"
       transform="matrix(0.0584354,0,0,0.0584354,77.81301,802.15274)"
       style="opacity:0.8">
      <g
         style="fill:#ffffff"
         id="g12"
         transform="matrix(1.25,0,0,-1.25,-250.10957,1046.5545)">
        <g
           style="fill:#ffffff"
           clip-path="url(#clipPath16)"
           id="g14">
          <g
             style="fill:#ffffff"
             id="g20">
            <g
               style="fill:#ffffff"
               id="g22">
              <path
                 id="path30"
                 style="fill:#ffffff;stroke:none"
                 d="m 171.631,380.727 c -10.867,-6.277 -17.563,-17.873 -17.563,-30.426 l 0,0 c 0,-6.807 2.421,-13.07 5.509,-18.88 l 0,0 c 2.598,-4.885 3.913,-13.954 -4.998,-19.099 l 0,0 c -6.628,-3.826 -14.898,-1.404 -19.031,5.209 l 0,0 c -3.49,5.586 -7.705,10.82 -13.603,14.226 l 0,0 c -10.869,6.276 -24.263,6.276 -35.132,0 l 0,0 C 75.945,325.482 69.249,313.883 69.249,301.332 l 0,0 c 0,-12.552 6.696,-24.149 17.564,-30.425 l 0,0 c 10.869,-6.275 24.263,-6.275 35.132,0 l 0,0 c 5.898,3.407 10.111,8.635 13.598,14.217 l 0,0 c 2.865,4.586 10.018,10.426 19.036,5.217 l 0,0 c 6.618,-3.822 8.664,-12.203 4.995,-19.105 l 0,0 c -3.088,-5.805 -5.506,-12.069 -5.506,-18.873 l 0,0 c 0,-12.552 6.696,-24.149 17.563,-30.423 l 0,0 c 10.87,-6.277 24.262,-6.277 35.131,0 l 0,0 c 10.87,6.274 17.565,17.871 17.565,30.423 l 0,0 c 0,12.55 -6.695,24.148 -17.565,30.421 l 0,0 c -5.945,3.436 -12.642,4.428 -19.277,4.663 l 0,0 c -5.566,0.193 -13.868,3.761 -13.868,13.885 l 0,0 c 0,7.543 6.114,13.614 13.87,13.886 l 0,0 c 6.635,0.231 13.333,1.227 19.275,4.662 l 0,0 c 10.87,6.275 17.565,17.871 17.565,30.421 l 0,0 c 0,12.553 -6.695,24.149 -17.565,30.426 l 0,0 c -5.433,3.136 -11.498,4.707 -17.564,4.707 l 0,0 c -6.065,0 -12.13,-1.571 -17.567,-4.707"
                 inkscape:connector-curvature="0" />
            </g>
          </g>
        </g>
      </g>
      <g
         style="fill:#ffffff"
         transform="matrix(1.25,0,0,-1.25,150.9353,644.1155)"
         id="g44">
        <path
           id="path46"
           style="fill:#ffffff;fill-opacity:1;fill-rule:nonzero;stroke:none"
           d="m 0,0 c -1.825,0.607 -5.673,1.014 -9.524,1.014 -11.547,0 -23.909,-9.356 -23.909,-20.906 l 0,-55.074 -26.338,0 0,98.267 25.326,0 0,-9.928 c 5.876,7.295 16.615,11.954 28.57,11.954 3.849,0 6.079,-0.405 8.914,-0.81 L 0,0 z"
           inkscape:connector-curvature="0" />
      </g>
      <path
         id="path48"
         style="fill:#ffffff;fill-opacity:1;fill-rule:nonzero;stroke:none"
         d="m 204.62793,737.82575 -32.9275,0 0,-122.835 32.9275,0 0,122.835 z m -16.46375,-187.42 c 11.905,0 21.53,9.11625 21.53,21.02 0,11.905 -9.625,21.0225 -21.53,21.0225 -11.9025,0 -21.5275,-9.1175 -21.5275,-21.0225 0,-11.90375 9.625,-21.02 21.5275,-21.02"
         inkscape:connector-curvature="0" />
      <g
         style="fill:#ffffff"
         transform="matrix(1.25,0,0,-1.25,297.88606,710.46925)"
         id="g50">
        <path
           id="path52"
           style="fill:#ffffff;fill-opacity:1;fill-rule:nonzero;stroke:none"
           d="m 0,0 c -16.365,0 -27.118,11.291 -27.118,27.062 0,15.771 10.753,27.063 27.118,27.063 13.963,0 25.289,-12.119 25.289,-27.063 C 25.289,12.117 13.963,0 0,0 m 3.201,78.415 c -11.153,0 -21.079,-3.652 -28.77,-9.936 l 0,7.906 -25.333,0 0,-146.893 26.34,0 0,55.51 c 7.908,-6.08 16.416,-8.916 26.343,-8.916 14.588,0 28.567,6.488 37.278,16.619 7.702,8.918 12.357,21.068 12.357,34.443 0,28.974 -21.478,51.267 -48.215,51.267"
           inkscape:connector-curvature="0" />
      </g>
      <path
         id="path54"
         style="fill:#ffffff;fill-opacity:1;fill-rule:nonzero;stroke:none"
         d="m 561.99043,737.82575 -32.92625,0 0,-179.8225 32.92625,0 0,179.8225 z"
         inkscape:connector-curvature="0" />
      <g
         style="fill:#ffffff"
         transform="matrix(1.25,0,0,-1.25,665.57531,660.57737)"
         id="g56">
        <path
           id="path58"
           style="fill:#ffffff;fill-opacity:1;fill-rule:nonzero;stroke:none"
           d="M 0,0 C -0.81,8.711 -8.71,17.224 -19.451,17.224 -30.393,17.224 -39.307,8.916 -40.523,0 L 0,0 z m 24.519,-46.195 c -9.525,-11.349 -25.128,-17.629 -40.324,-17.629 -29.376,0 -51.464,20.262 -51.464,51.059 0,27.353 18.641,51.263 47.818,51.263 27.15,0 46.4,-22.896 46.4,-50.25 0,-2.632 -0.203,-5.267 -0.608,-7.498 l -68.079,0 c 1.42,-13.777 12.561,-23.298 26.544,-23.298 11.141,0 20.057,6.281 24.718,11.345 l 14.995,-14.992 z"
           inkscape:connector-curvature="0" />
      </g>
      <g
         style="fill:#ffffff"
         transform="matrix(1.25,0,0,-1.25,445.28843,710.46925)"
         id="g60">
        <path
           id="path62"
           style="fill:#ffffff;fill-opacity:1;fill-rule:nonzero;stroke:none"
           d="m 0,0 c -16.363,0 -27.117,11.291 -27.117,27.062 0,15.771 10.754,27.063 27.117,27.063 13.969,0 25.289,-12.119 25.289,-27.063 C 25.289,12.117 13.969,0 0,0 m 3.201,78.415 c -11.151,0 -21.078,-3.652 -28.77,-9.936 l 0,7.906 -25.333,0 0,-146.893 26.344,0 0,55.51 c 7.907,-6.08 16.413,-8.916 26.339,-8.916 14.593,0 28.569,6.488 37.282,16.619 7.704,8.918 12.354,21.068 12.354,34.443 0,28.974 -21.477,51.267 -48.216,51.267"
           inkscape:connector-curvature="0" />
      </g>
    </g>
    <g
       id="g3532"
       transform="matrix(0.90429809,0,0,0.90429809,242.22194,130.93082)">
      <g
         transform="matrix(1.255089,0,0,1.255089,-32.240064,762.18318)"
         style="font-size:40px;font-style:normal;font-variant:normal;font-weight:500;font-stretch:normal;line-height:125%;letter-spacing:0px;word-spacing:0px;opacity:0.8;fill:#ffffff;fill-opacity:1;stroke:none;font-family:Ubuntu;-inkscape-font-specification:Ubuntu Medium"
         id="flowRoot3477">
        <path
           d="m 120.2875,18.222006 c 1.54666,-0.613311 3.09333,-1.399977 4.64,-2.36 1.57332,-0.959975 2.95999,-2.093307 4.16,-3.4 l 3.4,0 0,27.72 -4.84,0 0,-21.24 c -0.72001,0.560021 -1.62668,1.106687 -2.72,1.64 -1.09334,0.533352 -2.14667,0.973352 -3.16,1.32 l -1.48,-3.68"
           style=""
           id="path3544" />
      </g>
      <g
         transform="matrix(0.20332096,0,0,-0.20332096,125.89706,856.48698)"
         id="g3487"
         style="opacity:0.8;fill:#ffffff">
        <g
           id="g3489"
           clip-path="url(#clipPath16)"
           style="fill:#ffffff">
          <g
             id="g3491"
             style="fill:#ffffff">
            <g
               id="g3493"
               style="fill:#ffffff">
              <path
                 inkscape:connector-curvature="0"
                 d="m 171.631,380.727 c -10.867,-6.277 -17.563,-17.873 -17.563,-30.426 l 0,0 c 0,-6.807 2.421,-13.07 5.509,-18.88 l 0,0 c 2.598,-4.885 3.913,-13.954 -4.998,-19.099 l 0,0 c -6.628,-3.826 -14.898,-1.404 -19.031,5.209 l 0,0 c -3.49,5.586 -7.705,10.82 -13.603,14.226 l 0,0 c -10.869,6.276 -24.263,6.276 -35.132,0 l 0,0 C 75.945,325.482 69.249,313.883 69.249,301.332 l 0,0 c 0,-12.552 6.696,-24.149 17.564,-30.425 l 0,0 c 10.869,-6.275 24.263,-6.275 35.132,0 l 0,0 c 5.898,3.407 10.111,8.635 13.598,14.217 l 0,0 c 2.865,4.586 10.018,10.426 19.036,5.217 l 0,0 c 6.618,-3.822 8.664,-12.203 4.995,-19.105 l 0,0 c -3.088,-5.805 -5.506,-12.069 -5.506,-18.873 l 0,0 c 0,-12.552 6.696,-24.149 17.563,-30.423 l 0,0 c 10.87,-6.277 24.262,-6.277 35.131,0 l 0,0 c 10.87,6.274 17.565,17.871 17.565,30.423 l 0,0 c 0,12.55 -6.695,24.148 -17.565,30.421 l 0,0 c -5.945,3.436 -12.642,4.428 -19.277,4.663 l 0,0 c -5.566,0.193 -13.868,3.761 -13.868,13.885 l 0,0 c 0,7.543 6.114,13.614 13.87,13.886 l 0,0 c 6.635,0.231 13.333,1.227 19.275,4.662 l 0,0 c 10.87,6.275 17.565,17.871 17.565,30.421 l 0,0 c 0,12.553 -6.695,24.149 -17.565,30.426 l 0,0 c -5.433,3.136 -11.498,4.707 -17.564,4.707 l 0,0 c -6.065,0 -12.13,-1.571 -17.567,-4.707"
                 style="fill:#ffffff;stroke:none"
                 id="path3495" />
            </g>
          </g>
        </g>
      </g>
    </g>
  </g>
</svg>
