<?xml version="1.0" encoding="UTF-8" standalone="no"?>
<!-- Created with Inkscape (http://www.inkscape.org/) -->

<svg
   xmlns:dc="http://purl.org/dc/elements/1.1/"
   xmlns:cc="http://creativecommons.org/ns#"
   xmlns:rdf="http://www.w3.org/1999/02/22-rdf-syntax-ns#"
   xmlns:svg="http://www.w3.org/2000/svg"
   xmlns="http://www.w3.org/2000/svg"
   xmlns:xlink="http://www.w3.org/1999/xlink"
   xmlns:sodipodi="http://sodipodi.sourceforge.net/DTD/sodipodi-0.dtd"
   xmlns:inkscape="http://www.inkscape.org/namespaces/inkscape"
   width="460.62991"
   height="283.46457"
   id="svg2"
   version="1.1"
   inkscape:version="0.48.5 r10040"
   sodipodi:docname="banknote_bg_template.svg"
   inkscape:export-filename="/home/mammique/Documents/daat/banknote/cryptos/dash.png"
   inkscape:export-xdpi="156.31"
   inkscape:export-ydpi="156.31">
  <defs
     id="defs4">
    <linearGradient
       id="linearGradient4925">
      <stop
         style="stop-color:#bd9800;stop-opacity:1;"
         offset="0"
         id="stop4927" />
      <stop
         id="stop3784"
         offset="0.51732481"
         style="stop-color:#ffcc04;stop-opacity:1;" />
      <stop
         offset="1"
         id="stop4929"
         style="stop-color:#a98500;stop-opacity:1;" />
    </linearGradient>
    <linearGradient
       id="linearGradient4835">
      <stop
         style="stop-color:#000000;stop-opacity:0.61572052"
         offset="0"
         id="stop4837" />
      <stop
         style="stop-color:#000000;stop-opacity:0;"
         offset="1"
         id="stop4839" />
    </linearGradient>
    <linearGradient
       inkscape:collect="always"
       id="linearGradient4531">
      <stop
         style="stop-color:#ffffff;stop-opacity:1;"
         offset="0"
         id="stop4533" />
      <stop
         style="stop-color:#ffffff;stop-opacity:0;"
         offset="1"
         id="stop4535" />
    </linearGradient>
    <clipPath
       clipPathUnits="userSpaceOnUse"
       id="clipPath5978">
      <rect
         style="color:#000000;fill:#cccccc;fill-opacity:1;fill-rule:nonzero;stroke:#003a00;stroke-width:0.89999998;stroke-linecap:butt;stroke-linejoin:miter;stroke-miterlimit:4;stroke-opacity:1;stroke-dasharray:none;stroke-dashoffset:0;marker:none;visibility:visible;display:inline;overflow:visible;enable-background:accumulate"
         id="rect5980"
         width="173.74623"
         height="1608.1628"
         x="610.13214"
         y="-378.01382"
         transform="matrix(0,-1,1,0,0,0)" />
    </clipPath>
    <inkscape:perspective
       id="perspective2497"
       inkscape:persp3d-origin="372.04724 : 350.78739 : 1"
       inkscape:vp_z="744.09448 : 526.18109 : 1"
       inkscape:vp_y="0 : 1000 : 0"
       inkscape:vp_x="0 : 526.18109 : 1"
       sodipodi:type="inkscape:persp3d" />
    <linearGradient
       inkscape:collect="always"
       xlink:href="#linearGradient4531"
       id="linearGradient4823"
       gradientUnits="userSpaceOnUse"
       x1="182.81697"
       y1="175.83376"
       x2="183.58928"
       y2="-16.309107"
       gradientTransform="translate(53.033008,825.69937)" />
    <radialGradient
       inkscape:collect="always"
       xlink:href="#linearGradient4835"
       id="radialGradient4845"
       cx="7.3256431"
       cy="198.2952"
       fx="7.3256431"
       fy="198.2952"
       r="109.27257"
       gradientTransform="matrix(0.19829552,0.15553474,-0.16582027,0.21140881,93.302602,945.5672)"
       gradientUnits="userSpaceOnUse" />
    <linearGradient
       id="linearGradient4925-6">
      <stop
         style="stop-color:#bd9800;stop-opacity:1;"
         offset="0"
         id="stop4927-7" />
      <stop
         id="stop3784-5"
         offset="0.5"
         style="stop-color:#ffcc04;stop-opacity:1;" />
      <stop
         offset="1"
         id="stop4929-3"
         style="stop-color:#a98500;stop-opacity:1;" />
    </linearGradient>
    <linearGradient
       gradientTransform="translate(-17.649337,-11.359598)"
       y2="38.317909"
       x2="313.61914"
       y1="142.8687"
       x1="50.479298"
       gradientUnits="userSpaceOnUse"
       id="linearGradient3802"
       xlink:href="#linearGradient4925-6"
       inkscape:collect="always" />
    <linearGradient
       id="linearGradient4925-2">
      <stop
         style="stop-color:#bd9800;stop-opacity:1;"
         offset="0"
         id="stop4927-3" />
      <stop
         id="stop3784-7"
         offset="0.38554054"
         style="stop-color:#ffcc04;stop-opacity:1;" />
      <stop
         offset="1"
         id="stop4929-5"
         style="stop-color:#a98500;stop-opacity:1;" />
    </linearGradient>
    <linearGradient
       y2="38.317909"
       x2="313.61914"
       y1="83.269699"
       x1="19.16457"
       gradientTransform="translate(-17.649337,-11.359581)"
       gradientUnits="userSpaceOnUse"
       id="linearGradient4077"
       xlink:href="#linearGradient4925-2"
       inkscape:collect="always" />
    <linearGradient
       id="linearGradient4925-28">
      <stop
         style="stop-color:#bd9800;stop-opacity:1;"
         offset="0"
         id="stop4927-9" />
      <stop
         id="stop3784-73"
         offset="0.51732481"
         style="stop-color:#ffcc04;stop-opacity:1;" />
      <stop
         offset="1"
         id="stop4929-6"
         style="stop-color:#a98500;stop-opacity:1;" />
    </linearGradient>
    <linearGradient
       y2="19.746481"
       x2="180.76199"
       y1="166.12685"
       x1="180.59314"
       gradientTransform="translate(-17.649337,-11.359581)"
       gradientUnits="userSpaceOnUse"
       id="linearGradient4113"
       xlink:href="#linearGradient4925-28"
       inkscape:collect="always" />
    <linearGradient
       id="linearGradient4925-7">
      <stop
         style="stop-color:#bd9800;stop-opacity:1;"
         offset="0"
         id="stop4927-5" />
      <stop
         id="stop3784-3"
         offset="0.51732481"
         style="stop-color:#ffcc04;stop-opacity:1;" />
      <stop
         offset="1"
         id="stop4929-56"
         style="stop-color:#a98500;stop-opacity:1;" />
    </linearGradient>
    <linearGradient
       y2="19.746481"
       x2="180.76199"
       y1="166.12685"
       x1="180.59314"
       gradientTransform="translate(-17.649337,-11.359581)"
       gradientUnits="userSpaceOnUse"
       id="linearGradient3327"
       xlink:href="#linearGradient4925-7"
       inkscape:collect="always" />
    <linearGradient
       id="linearGradient4925-7-1">
      <stop
         style="stop-color:#bd9800;stop-opacity:1;"
         offset="0"
         id="stop4927-5-2" />
      <stop
         id="stop3784-3-7"
         offset="0.51732481"
         style="stop-color:#ffcc04;stop-opacity:1;" />
      <stop
         offset="1"
         id="stop4929-56-0"
         style="stop-color:#a98500;stop-opacity:1;" />
    </linearGradient>
    <linearGradient
       y2="19.032196"
       x2="138.61914"
       y1="166.12685"
       x1="180.59314"
       gradientTransform="translate(-17.649337,-7.9568844)"
       gradientUnits="userSpaceOnUse"
       id="linearGradient3455"
       xlink:href="#linearGradient4925-7-1"
       inkscape:collect="always" />
    <linearGradient
       inkscape:collect="always"
       xlink:href="#linearGradient4925-7-6"
       id="linearGradient3350-3"
       gradientUnits="userSpaceOnUse"
       gradientTransform="translate(54.548237,823.78353)"
       x1="180.59314"
       y1="166.12685"
       x2="138.61914"
       y2="19.032196" />
    <linearGradient
       id="linearGradient4925-7-6">
      <stop
         style="stop-color:#bd9800;stop-opacity:1;"
         offset="0"
         id="stop4927-5-0" />
      <stop
         id="stop3784-3-6"
         offset="0.51732481"
         style="stop-color:#ffcc04;stop-opacity:1;" />
      <stop
         offset="1"
         id="stop4929-56-2"
         style="stop-color:#a98500;stop-opacity:1;" />
    </linearGradient>
    <linearGradient
       y2="19.032196"
       x2="138.61914"
       y1="166.12685"
       x1="180.59314"
       gradientTransform="translate(-17.649337,-7.9568844)"
       gradientUnits="userSpaceOnUse"
       id="linearGradient3491"
       xlink:href="#linearGradient4925-7-6"
       inkscape:collect="always" />
    <linearGradient
       id="linearGradient4835-7">
      <stop
         style="stop-color:#000000;stop-opacity:0.61572052"
         offset="0"
         id="stop4837-5" />
      <stop
         style="stop-color:#000000;stop-opacity:0;"
         offset="1"
         id="stop4839-9" />
    </linearGradient>
    <radialGradient
       r="109.27257"
       fy="198.2952"
       fx="7.3256431"
       cy="198.2952"
       cx="7.3256431"
       gradientTransform="matrix(0.19829552,0.15553474,-0.16582027,0.21140881,132.487,52.51516)"
       gradientUnits="userSpaceOnUse"
       id="radialGradient3545"
       xlink:href="#linearGradient4835-7"
       inkscape:collect="always" />
    <linearGradient
       id="linearGradient4835-8">
      <stop
         style="stop-color:#000000;stop-opacity:0.61572052"
         offset="0"
         id="stop4837-9" />
      <stop
         style="stop-color:#000000;stop-opacity:0;"
         offset="1"
         id="stop4839-7" />
    </linearGradient>
    <radialGradient
       r="109.27257"
       fy="198.2952"
       fx="7.3256431"
       cy="198.2952"
       cx="7.3256431"
       gradientTransform="matrix(0.19829552,0.15553474,-0.16582027,0.21140881,132.487,52.51516)"
       gradientUnits="userSpaceOnUse"
       id="radialGradient3578"
       xlink:href="#linearGradient4835-8"
       inkscape:collect="always" />
    <linearGradient
       inkscape:collect="always"
       xlink:href="#linearGradient4925-7-6-1"
       id="linearGradient3350-3-6"
       gradientUnits="userSpaceOnUse"
       gradientTransform="translate(54.548237,823.78353)"
       x1="180.59314"
       y1="166.12685"
       x2="138.61914"
       y2="19.032196" />
    <linearGradient
       id="linearGradient4925-7-6-1">
      <stop
         style="stop-color:#bd9800;stop-opacity:1;"
         offset="0"
         id="stop4927-5-0-2" />
      <stop
         id="stop3784-3-6-9"
         offset="0.51732481"
         style="stop-color:#ffcc04;stop-opacity:1;" />
      <stop
         offset="1"
         id="stop4929-56-2-3"
         style="stop-color:#a98500;stop-opacity:1;" />
    </linearGradient>
    <linearGradient
       y2="19.032196"
       x2="138.61914"
       y1="166.12685"
       x1="180.59314"
       gradientTransform="translate(-17.649337,-14.676051)"
       gradientUnits="userSpaceOnUse"
       id="linearGradient3612"
       xlink:href="#linearGradient4925-7-6-1"
       inkscape:collect="always" />
    <clipPath
       id="clipPath3090"
       clipPathUnits="userSpaceOnUse">
      <path
         id="path3092"
         d="m 54,787 24,0 0,-24 -24,0 0,24 z" />
    </clipPath>
    <clipPath
       id="clipPath3080"
       clipPathUnits="userSpaceOnUse">
      <path
         id="path3082"
         d="m 54,787 1082,0 0,-733 -1082,0 0,733 z" />
    </clipPath>
  </defs>
  <sodipodi:namedview
     id="base"
     pagecolor="#5271a5"
     bordercolor="#666666"
     borderopacity="1.0"
     inkscape:pageopacity="1"
     inkscape:pageshadow="2"
     inkscape:zoom="1.4"
     inkscape:cx="293.08067"
     inkscape:cy="168.1403"
     inkscape:document-units="px"
     inkscape:current-layer="layer1"
     showgrid="false"
     units="mm"
     inkscape:window-width="1364"
     inkscape:window-height="747"
     inkscape:window-x="0"
     inkscape:window-y="19"
     inkscape:window-maximized="1"
     showguides="true"
     inkscape:guide-bbox="true" />
  <metadata
     id="metadata7">
    <rdf:RDF>
      <cc:Work
         rdf:about="">
        <dc:format>image/svg+xml</dc:format>
        <dc:type
           rdf:resource="http://purl.org/dc/dcmitype/StillImage" />
        <dc:title></dc:title>
      </cc:Work>
    </rdf:RDF>
  </metadata>
  <g
     inkscape:label="Calque 1"
     inkscape:groupmode="layer"
     id="layer1"
     transform="translate(0,-768.89763)">
    <g
       id="g3167"
       transform="matrix(2.0447,0,0,2.0447,-332.63175,-884.25121)">
      <path
         id="path3094-3"
         style="fill:#a6e000;fill-opacity:1;fill-rule:evenodd;stroke:none"
         d="m 244.28571,878.07648 c 0,8.28625 -6.7137,15 -15,15 -8.2862,0 -15,-6.71375 -15,-15 0,-8.28625 6.7138,-15 15,-15 8.2863,0 15,6.71375 15,15"
         inkscape:connector-curvature="0" />
      <path
         id="path3096-6"
         style="fill:#000000;fill-opacity:1;fill-rule:evenodd;stroke:none"
         d="m 231.33701,887.45148 c -1.3675,0 -2.3638,-0.3225 -2.9888,-0.96625 -0.625,-0.645 -0.9425,-1.33875 -0.9425,-2.085 0,-0.26875 0.059,-0.49875 0.1663,-0.68375 0.1075,-0.18625 0.2637,-0.3375 0.4487,-0.445 0.1863,-0.1025 0.42,-0.16125 0.6988,-0.16125 0.2737,0 0.5075,0.0588 0.6975,0.16125 0.1912,0.1125 0.3375,0.25375 0.445,0.445 0.1125,0.185 0.1662,0.415 0.1662,0.68375 0,0.33125 -0.079,0.6 -0.24,0.805 -0.1612,0.21 -0.3512,0.34625 -0.5662,0.41 0.1862,0.25875 0.4837,0.44 0.8937,0.5475 0.405,0.11625 0.815,0.17 1.2213,0.17 0.5462,0.01 1.0837,-0.15125 1.5425,-0.44875 0.4587,-0.3025 0.7962,-0.7475 1.0112,-1.3325 0.2188,-0.58625 0.3313,-1.25 0.3313,-1.9975 0,-0.81 -0.1213,-1.49875 -0.3613,-2.07 -0.2337,-0.58125 -0.5812,-1.01125 -1.04,-1.28875 -0.4437,-0.27875 -0.9575,-0.42 -1.4837,-0.42 -0.3475,0 -0.7863,0.14125 -1.3088,0.42875 l -0.9625,0.47375 0,-0.47375 4.3263,-5.66875 -5.9863,0 0,5.88375 c 0,0.48875 0.1125,0.88875 0.3325,1.20125 0.215,0.3175 0.5513,0.47375 1,0.47375 0.3525,0 0.6838,-0.1125 1.0063,-0.34125 0.3225,-0.235 0.6012,-0.5175 0.83,-0.84 0.02,-0.0537 0.059,-0.1025 0.1075,-0.1425 0.039,-0.0337 0.092,-0.0488 0.1412,-0.0488 0.084,0 0.1763,0.04 0.2838,0.1175 0.1025,0.1075 0.1562,0.24875 0.1562,0.39625 -0.015,0.1025 -0.034,0.2 -0.054,0.3025 -0.2488,0.54125 -0.5913,0.95625 -1.03,1.245 -0.425,0.2825 -0.9275,0.43 -1.4413,0.43 -1.2937,0 -2.1875,-0.255 -2.685,-0.7525 -0.4925,-0.5025 -0.7425,-1.18125 -0.7425,-2.04125 l 0,-5.88375 -3.0562,0 0,-1.09875 3.0562,0 0,-2.49 -0.6975,-0.68875 0,-0.55625 2.0313,0 0.7612,0.38625 0,3.34875 7.905,-0.0187 0.7863,0.77125 -4.8488,4.77 c 0.2988,-0.1175 0.6063,-0.19 0.9188,-0.215 0.5275,0 1.1125,0.16125 1.7725,0.49375 0.6587,0.3225 1.1712,0.76625 1.5225,1.3325 0.3612,0.5575 0.5912,1.09375 0.6887,1.61125 0.1025,0.45 0.1613,0.90875 0.1663,1.3725 0.01,0.88875 -0.195,1.7625 -0.5913,2.55875 -0.375,0.77125 -1.01,1.39125 -1.7862,1.7575 -0.8113,0.39125 -1.7,0.58625 -2.6025,0.58125 z"
         inkscape:connector-curvature="0" />
    </g>
    <g
       transform="matrix(0.35583188,0,0,0.35583188,30.679603,797.81158)"
       style="font-size:40px;font-style:normal;font-variant:normal;font-weight:normal;font-stretch:normal;line-height:125%;letter-spacing:0px;word-spacing:0px;opacity:0.8;color:#000000;fill:#ffffff;fill-opacity:1;fill-rule:nonzero;stroke:none;stroke-width:1;marker:none;visibility:visible;display:inline;overflow:visible;enable-background:accumulate;font-family:font robotoAlbertsthal Typewriter;-inkscape-font-specification:font robotoAlbertsthal Typewriter"
       id="flowRoot3206">
      <path
         d="m 105.60156,103.11606 24.66797,0 0,3.32031 -10.35156,0 0,25.83985 -3.96484,0 0,-25.83985 -10.35157,0 0,-3.32031"
         style="color:#000000;fill:#ffffff;fill-opacity:1;fill-rule:nonzero;stroke:none;stroke-width:1;marker:none;visibility:visible;display:inline;overflow:visible;enable-background:accumulate"
         id="path3215"
         inkscape:connector-curvature="0" />
      <path
         d="m 134.09766,103.11606 18.4375,0 0,3.32031 -14.49219,0 0,8.63282 13.88672,0 0,3.32031 -13.88672,0 0,10.5664 14.84375,0 0,3.32032 -18.78906,0 0,-29.16016"
         style="color:#000000;fill:#ffffff;fill-opacity:1;fill-rule:nonzero;stroke:none;stroke-width:1;marker:none;visibility:visible;display:inline;overflow:visible;enable-background:accumulate"
         id="path3217"
         inkscape:connector-curvature="0" />
      <path
         d="m 157.73047,103.11606 22.91015,0 0,3.00781 -18.4375,22.83203 18.88672,0 0,3.32032 -23.80859,0 0,-3.00782 18.4375,-22.83203 -17.98828,0 0,-3.32031"
         style="color:#000000;fill:#ffffff;fill-opacity:1;fill-rule:nonzero;stroke:none;stroke-width:1;marker:none;visibility:visible;display:inline;overflow:visible;enable-background:accumulate"
         id="path3219"
         inkscape:connector-curvature="0" />
      <path
         d="m 198.66797,105.79184 c -2.8646,3e-5 -5.14324,1.06774 -6.83594,3.20313 -1.67969,2.13543 -2.51954,5.04559 -2.51953,8.73047 -1e-5,3.67188 0.83984,6.57552 2.51953,8.71093 1.6927,2.13542 3.97134,3.20313 6.83594,3.20313 2.86456,0 5.13019,-1.06771 6.79687,-3.20313 1.67967,-2.13541 2.51951,-5.03905 2.51953,-8.71093 -2e-5,-3.68488 -0.83986,-6.59504 -2.51953,-8.73047 -1.66668,-2.13539 -3.93231,-3.2031 -6.79687,-3.20313 m 0,-3.20312 c 4.08852,3e-5 7.35675,1.37372 9.80469,4.12109 2.44788,2.7344 3.67184,6.40627 3.67187,11.01563 -3e-5,4.59636 -1.22399,8.26823 -3.67187,11.01562 -2.44794,2.73438 -5.71617,4.10156 -9.80469,4.10156 -4.10158,0 -7.38282,-1.36718 -9.84375,-4.10156 -2.44792,-2.73437 -3.67188,-6.40624 -3.67188,-11.01562 0,-4.60936 1.22396,-8.28123 3.67188,-11.01563 2.46093,-2.74737 5.74217,-4.12106 9.84375,-4.12109"
         style="color:#000000;fill:#ffffff;fill-opacity:1;fill-rule:nonzero;stroke:none;stroke-width:1;marker:none;visibility:visible;display:inline;overflow:visible;enable-background:accumulate"
         id="path3221"
         inkscape:connector-curvature="0" />
      <path
         d="m 235.79687,104.07309 0,3.84766 c -1.49741,-0.71612 -2.91017,-1.24998 -4.23828,-1.60156 -1.32814,-0.35154 -2.61069,-0.52732 -3.84765,-0.52735 -2.14845,3e-5 -3.80861,0.41669 -4.98047,1.25 -1.15886,0.83336 -1.73829,2.01825 -1.73828,3.55469 -1e-5,1.28908 0.38411,2.26564 1.15234,2.92969 0.78124,0.65106 2.2526,1.1784 4.41406,1.58203 l 2.38282,0.48828 c 2.94269,0.55991 5.11065,1.54949 6.5039,2.96875 1.40623,1.40626 2.10935,3.29428 2.10938,5.66406 -3e-5,2.82553 -0.95055,4.96745 -2.85157,6.42578 -1.88803,1.45834 -4.66147,2.1875 -8.32031,2.1875 -1.38022,0 -2.85157,-0.15625 -4.41406,-0.46875 -1.54949,-0.3125 -3.15756,-0.77474 -4.82422,-1.38672 l 0,-4.0625 c 1.60156,0.89845 3.17057,1.57553 4.70703,2.03125 1.53645,0.45574 3.04687,0.6836 4.53125,0.6836 2.25259,0 3.99087,-0.44271 5.21485,-1.32813 1.22394,-0.88541 1.83591,-2.14843 1.83593,-3.78906 -2e-5,-1.43228 -0.44272,-2.55207 -1.32812,-3.35937 -0.87241,-0.80728 -2.31121,-1.41275 -4.31641,-1.81641 l -2.40234,-0.46875 C 222.444,118.29186 220.3151,117.37389 219,116.12387 c -1.31511,-1.24998 -1.97266,-2.98826 -1.97266,-5.21484 0,-2.5781 0.90495,-4.60935 2.71485,-6.09375 1.82291,-1.48435 4.32941,-2.22653 7.51953,-2.22656 1.36717,3e-5 2.7604,0.12372 4.17969,0.37109 1.41925,0.24743 2.87107,0.61852 4.35546,1.11328"
         style="color:#000000;fill:#ffffff;fill-opacity:1;fill-rule:nonzero;stroke:none;stroke-width:1;marker:none;visibility:visible;display:inline;overflow:visible;enable-background:accumulate"
         id="path3224"
         inkscape:connector-curvature="0" />
    </g>
    <g
       id="g3308"
       transform="matrix(1.1434801,0,0,1.1434801,129.83093,-135.0342)">
      <path
         inkscape:connector-curvature="0"
         d="m 226.17687,876.879 c -2.12672,0 -3.67615,-0.50155 -4.64814,-1.5027 -0.972,-1.0031 -1.46577,-2.08201 -1.46577,-3.24256 0,-0.41797 0.0918,-0.77566 0.25863,-1.06337 0.16718,-0.28965 0.4101,-0.52487 0.69781,-0.69206 0.28974,-0.1594 0.65318,-0.25077 1.08677,-0.25077 0.42565,0 0.78925,0.0915 1.08474,0.25077 0.29735,0.17496 0.52487,0.39463 0.69206,0.69206 0.17495,0.28771 0.25847,0.6454 0.25847,1.06337 0,0.51515 -0.12286,0.93311 -0.37324,1.25192 -0.2507,0.32659 -0.54619,0.53848 -0.88055,0.63763 0.28957,0.4024 0.75224,0.68427 1.38987,0.85146 0.62985,0.18079 1.26748,0.26438 1.89935,0.26438 0.84944,0.0155 1.68535,-0.23522 2.39888,-0.69789 0.71336,-0.47044 1.23823,-1.1625 1.5726,-2.07228 0.34027,-0.91174 0.51523,-1.94399 0.51523,-3.10649 0,-1.2597 -0.18864,-2.33084 -0.56189,-3.21924 -0.36345,-0.90395 -0.90387,-1.57268 -1.61739,-2.00425 -0.69003,-0.4335 -1.48909,-0.65317 -2.30743,-0.65317 -0.54043,0 -1.22285,0.21967 -2.03543,0.66678 l -1.49687,0.73677 0,-0.73677 6.72821,-8.81596 -9.30982,0 0,9.15033 c 0,0.76009 0.17496,1.38217 0.5171,1.86817 0.33437,0.49377 0.85738,0.73677 1.55519,0.73677 0.5482,0 1.06344,-0.17496 1.56498,-0.53071 0.50155,-0.36547 0.93498,-0.80481 1.2908,-1.30636 0.0311,-0.0835 0.0918,-0.15941 0.16719,-0.22162 0.0606,-0.0524 0.14308,-0.0759 0.21959,-0.0759 0.13064,0 0.27418,0.0622 0.44137,0.18274 0.1594,0.16718 0.24292,0.38685 0.24292,0.61624 -0.0233,0.1594 -0.0529,0.31104 -0.084,0.47044 -0.38694,0.84174 -0.91959,1.48715 -1.60184,1.93621 -0.66096,0.43934 -1.44244,0.66873 -2.2415,0.66873 -2.01194,0 -3.40197,-0.39658 -4.17567,-1.17028 -0.76594,-0.78148 -1.15473,-1.83707 -1.15473,-3.17453 l 0,-9.15032 -4.75296,0 0,-1.70877 4.75296,0 0,-3.87241 -1.08474,-1.07114 0,-0.86507 3.15905,0 1.18381,0.6007 0,5.20792 12.29375,-0.0291 1.22284,1.19943 -7.54079,7.41824 c 0.46469,-0.18273 0.94291,-0.29548 1.42891,-0.33436 0.82036,0 1.73015,0.25077 2.75657,0.76787 1.0244,0.50155 1.82143,1.19166 2.36777,2.07228 0.56173,0.86703 0.91942,1.701 1.07106,2.5058 0.1594,0.69983 0.25085,1.41328 0.25862,2.1345 0.0155,1.38217 -0.30326,2.74101 -0.91958,3.97933 -0.58319,1.19944 -1.57074,2.16365 -2.77787,2.73324 -1.26173,0.60847 -2.64382,0.91173 -4.04737,0.90396 z"
         style="opacity:0.8;color:#000000;fill:#ffffff;fill-opacity:1;fill-rule:nonzero;stroke:none;stroke-width:1;marker:none;visibility:visible;display:inline;overflow:visible;enable-background:accumulate"
         id="path3096-6-5" />
      <g
         id="flowRoot3278"
         style="font-size:40px;font-style:normal;font-variant:normal;font-weight:normal;font-stretch:normal;line-height:125%;letter-spacing:0px;word-spacing:0px;opacity:0.8;color:#000000;fill:#ffffff;fill-opacity:1;fill-rule:nonzero;stroke:none;stroke-width:1;marker:none;visibility:visible;display:inline;overflow:visible;enable-background:accumulate;font-family:font robotoAlbertsthal Typewriter;-inkscape-font-specification:font robotoAlbertsthal Typewriter"
         transform="translate(94.357143,723.54049)">
        <path
           inkscape:connector-curvature="0"
           id="path3287"
           style="color:#000000;fill:#ffffff;fill-opacity:1;fill-rule:nonzero;stroke:none;stroke-width:1;marker:none;visibility:visible;display:inline;overflow:visible;enable-background:accumulate"
           d="m 100.30469,150.0184 6.44531,0 0,-22.24609 -7.011719,1.40625 0,-3.59375 6.972659,-1.40625 3.94531,0 0,25.83984 6.44531,0 0,3.32032 -16.79687,0 0,-3.32032" />
      </g>
    </g>
  </g>
</svg>
