<?xml version="1.0" encoding="UTF-8" standalone="no"?>
<!-- Created with Inkscape (http://www.inkscape.org/) -->

<svg
   xmlns:dc="http://purl.org/dc/elements/1.1/"
   xmlns:cc="http://creativecommons.org/ns#"
   xmlns:rdf="http://www.w3.org/1999/02/22-rdf-syntax-ns#"
   xmlns:svg="http://www.w3.org/2000/svg"
   xmlns="http://www.w3.org/2000/svg"
   xmlns:xlink="http://www.w3.org/1999/xlink"
   xmlns:sodipodi="http://sodipodi.sourceforge.net/DTD/sodipodi-0.dtd"
   xmlns:inkscape="http://www.inkscape.org/namespaces/inkscape"
   width="460.62991"
   height="283.46457"
   id="svg2"
   version="1.1"
   inkscape:version="0.48.5 r10040"
   sodipodi:docname="zec.svg"
   inkscape:export-filename="/home/mammique/Documents/daat/banknote/cryptos/dash.png"
   inkscape:export-xdpi="156.31"
   inkscape:export-ydpi="156.31">
  <defs
     id="defs4">
    <linearGradient
       id="linearGradient4925">
      <stop
         style="stop-color:#bd9800;stop-opacity:1;"
         offset="0"
         id="stop4927" />
      <stop
         id="stop3784"
         offset="0.51732481"
         style="stop-color:#ffcc04;stop-opacity:1;" />
      <stop
         offset="1"
         id="stop4929"
         style="stop-color:#a98500;stop-opacity:1;" />
    </linearGradient>
    <linearGradient
       id="linearGradient4835">
      <stop
         style="stop-color:#000000;stop-opacity:0.61572052"
         offset="0"
         id="stop4837" />
      <stop
         style="stop-color:#000000;stop-opacity:0;"
         offset="1"
         id="stop4839" />
    </linearGradient>
    <clipPath
       clipPathUnits="userSpaceOnUse"
       id="clipPath5978">
      <rect
         style="color:#000000;fill:#cccccc;fill-opacity:1;fill-rule:nonzero;stroke:#003a00;stroke-width:0.89999998;stroke-linecap:butt;stroke-linejoin:miter;stroke-miterlimit:4;stroke-opacity:1;stroke-dasharray:none;stroke-dashoffset:0;marker:none;visibility:visible;display:inline;overflow:visible;enable-background:accumulate"
         id="rect5980"
         width="173.74623"
         height="1608.1628"
         x="610.13214"
         y="-378.01382"
         transform="matrix(0,-1,1,0,0,0)" />
    </clipPath>
    <inkscape:perspective
       id="perspective2497"
       inkscape:persp3d-origin="372.04724 : 350.78739 : 1"
       inkscape:vp_z="744.09448 : 526.18109 : 1"
       inkscape:vp_y="0 : 1000 : 0"
       inkscape:vp_x="0 : 526.18109 : 1"
       sodipodi:type="inkscape:persp3d" />
    <linearGradient
       id="linearGradient4925-6">
      <stop
         style="stop-color:#bd9800;stop-opacity:1;"
         offset="0"
         id="stop4927-7" />
      <stop
         id="stop3784-5"
         offset="0.5"
         style="stop-color:#ffcc04;stop-opacity:1;" />
      <stop
         offset="1"
         id="stop4929-3"
         style="stop-color:#a98500;stop-opacity:1;" />
    </linearGradient>
    <linearGradient
       gradientTransform="translate(-17.649337,-11.359598)"
       y2="38.317909"
       x2="313.61914"
       y1="142.8687"
       x1="50.479298"
       gradientUnits="userSpaceOnUse"
       id="linearGradient3802"
       xlink:href="#linearGradient4925-6"
       inkscape:collect="always" />
    <linearGradient
       id="linearGradient4925-2">
      <stop
         style="stop-color:#bd9800;stop-opacity:1;"
         offset="0"
         id="stop4927-3" />
      <stop
         id="stop3784-7"
         offset="0.38554054"
         style="stop-color:#ffcc04;stop-opacity:1;" />
      <stop
         offset="1"
         id="stop4929-5"
         style="stop-color:#a98500;stop-opacity:1;" />
    </linearGradient>
    <linearGradient
       y2="38.317909"
       x2="313.61914"
       y1="83.269699"
       x1="19.16457"
       gradientTransform="translate(-17.649337,-11.359581)"
       gradientUnits="userSpaceOnUse"
       id="linearGradient4077"
       xlink:href="#linearGradient4925-2"
       inkscape:collect="always" />
    <linearGradient
       id="linearGradient4925-28">
      <stop
         style="stop-color:#bd9800;stop-opacity:1;"
         offset="0"
         id="stop4927-9" />
      <stop
         id="stop3784-73"
         offset="0.51732481"
         style="stop-color:#ffcc04;stop-opacity:1;" />
      <stop
         offset="1"
         id="stop4929-6"
         style="stop-color:#a98500;stop-opacity:1;" />
    </linearGradient>
    <linearGradient
       y2="19.746481"
       x2="180.76199"
       y1="166.12685"
       x1="180.59314"
       gradientTransform="translate(-17.649337,-11.359581)"
       gradientUnits="userSpaceOnUse"
       id="linearGradient4113"
       xlink:href="#linearGradient4925-28"
       inkscape:collect="always" />
    <linearGradient
       id="linearGradient4925-7">
      <stop
         style="stop-color:#bd9800;stop-opacity:1;"
         offset="0"
         id="stop4927-5" />
      <stop
         id="stop3784-3"
         offset="0.51732481"
         style="stop-color:#ffcc04;stop-opacity:1;" />
      <stop
         offset="1"
         id="stop4929-56"
         style="stop-color:#a98500;stop-opacity:1;" />
    </linearGradient>
    <linearGradient
       y2="19.746481"
       x2="180.76199"
       y1="166.12685"
       x1="180.59314"
       gradientTransform="translate(-17.649337,-11.359581)"
       gradientUnits="userSpaceOnUse"
       id="linearGradient3327"
       xlink:href="#linearGradient4925-7"
       inkscape:collect="always" />
    <linearGradient
       id="linearGradient4925-7-1">
      <stop
         style="stop-color:#bd9800;stop-opacity:1;"
         offset="0"
         id="stop4927-5-2" />
      <stop
         id="stop3784-3-7"
         offset="0.51732481"
         style="stop-color:#ffcc04;stop-opacity:1;" />
      <stop
         offset="1"
         id="stop4929-56-0"
         style="stop-color:#a98500;stop-opacity:1;" />
    </linearGradient>
    <linearGradient
       y2="19.032196"
       x2="138.61914"
       y1="166.12685"
       x1="180.59314"
       gradientTransform="translate(-17.649337,-7.9568844)"
       gradientUnits="userSpaceOnUse"
       id="linearGradient3455"
       xlink:href="#linearGradient4925-7-1"
       inkscape:collect="always" />
    <linearGradient
       id="linearGradient4925-7-6">
      <stop
         style="stop-color:#bd9800;stop-opacity:1;"
         offset="0"
         id="stop4927-5-0" />
      <stop
         id="stop3784-3-6"
         offset="0.51732481"
         style="stop-color:#ffcc04;stop-opacity:1;" />
      <stop
         offset="1"
         id="stop4929-56-2"
         style="stop-color:#a98500;stop-opacity:1;" />
    </linearGradient>
    <linearGradient
       y2="19.032196"
       x2="138.61914"
       y1="166.12685"
       x1="180.59314"
       gradientTransform="translate(-17.649337,-7.9568844)"
       gradientUnits="userSpaceOnUse"
       id="linearGradient3491"
       xlink:href="#linearGradient4925-7-6"
       inkscape:collect="always" />
    <linearGradient
       id="linearGradient4835-7">
      <stop
         style="stop-color:#000000;stop-opacity:0.61572052"
         offset="0"
         id="stop4837-5" />
      <stop
         style="stop-color:#000000;stop-opacity:0;"
         offset="1"
         id="stop4839-9" />
    </linearGradient>
    <radialGradient
       r="109.27257"
       fy="198.2952"
       fx="7.3256431"
       cy="198.2952"
       cx="7.3256431"
       gradientTransform="matrix(0.19829552,0.15553474,-0.16582027,0.21140881,132.487,52.51516)"
       gradientUnits="userSpaceOnUse"
       id="radialGradient3545"
       xlink:href="#linearGradient4835-7"
       inkscape:collect="always" />
    <linearGradient
       id="linearGradient4835-8">
      <stop
         style="stop-color:#000000;stop-opacity:0.61572052"
         offset="0"
         id="stop4837-9" />
      <stop
         style="stop-color:#000000;stop-opacity:0;"
         offset="1"
         id="stop4839-7" />
    </linearGradient>
    <radialGradient
       r="109.27257"
       fy="198.2952"
       fx="7.3256431"
       cy="198.2952"
       cx="7.3256431"
       gradientTransform="matrix(0.19829552,0.15553474,-0.16582027,0.21140881,132.487,52.51516)"
       gradientUnits="userSpaceOnUse"
       id="radialGradient3578"
       xlink:href="#linearGradient4835-8"
       inkscape:collect="always" />
    <linearGradient
       id="linearGradient4925-7-6-1">
      <stop
         style="stop-color:#bd9800;stop-opacity:1;"
         offset="0"
         id="stop4927-5-0-2" />
      <stop
         id="stop3784-3-6-9"
         offset="0.51732481"
         style="stop-color:#ffcc04;stop-opacity:1;" />
      <stop
         offset="1"
         id="stop4929-56-2-3"
         style="stop-color:#a98500;stop-opacity:1;" />
    </linearGradient>
    <linearGradient
       y2="19.032196"
       x2="138.61914"
       y1="166.12685"
       x1="180.59314"
       gradientTransform="translate(-17.649337,-14.676051)"
       gradientUnits="userSpaceOnUse"
       id="linearGradient3612"
       xlink:href="#linearGradient4925-7-6-1"
       inkscape:collect="always" />
    <linearGradient
       id="XMLID_3_"
       gradientUnits="userSpaceOnUse"
       x1="403.92139"
       y1="198.9214"
       x2="121.0786"
       y2="-83.921303"
       gradientTransform="matrix(1,0,0,-1,0,320)">
      <stop
         offset="0"
         style="stop-color:#FFD25C"
         id="stop5" />
      <stop
         offset="1"
         style="stop-color:#CD8421"
         id="stop7" />
    </linearGradient>
    <linearGradient
       id="XMLID_3_-5"
       gradientUnits="userSpaceOnUse"
       x1="403.92139"
       y1="198.9214"
       x2="121.0786"
       y2="-83.921303"
       gradientTransform="matrix(1,0,0,-1,0,320)">
      <stop
         offset="0"
         style="stop-color:#FFD25C"
         id="stop5-3" />
      <stop
         offset="1"
         style="stop-color:#CD8421"
         id="stop7-5" />
    </linearGradient>
    <linearGradient
       inkscape:collect="always"
       xlink:href="#XMLID_3_-5"
       id="linearGradient3378"
       gradientUnits="userSpaceOnUse"
       gradientTransform="matrix(1,0,0,-1,0,320)"
       x1="403.92139"
       y1="198.9214"
       x2="115.0786"
       y2="-79.921303" />
  </defs>
  <sodipodi:namedview
     id="base"
     pagecolor="#5271a5"
     bordercolor="#666666"
     borderopacity="1.0"
     inkscape:pageopacity="1"
     inkscape:pageshadow="2"
     inkscape:zoom="1.979899"
     inkscape:cx="252.68312"
     inkscape:cy="188.31969"
     inkscape:document-units="px"
     inkscape:current-layer="layer1"
     showgrid="false"
     units="mm"
     inkscape:window-width="1364"
     inkscape:window-height="747"
     inkscape:window-x="0"
     inkscape:window-y="19"
     inkscape:window-maximized="1"
     showguides="true"
     inkscape:guide-bbox="true" />
  <metadata
     id="metadata7">
    <rdf:RDF>
      <cc:Work
         rdf:about="">
        <dc:format>image/svg+xml</dc:format>
        <dc:type
           rdf:resource="http://purl.org/dc/dcmitype/StillImage" />
        <dc:title></dc:title>
      </cc:Work>
    </rdf:RDF>
  </metadata>
  <g
     inkscape:label="Calque 1"
     inkscape:groupmode="layer"
     id="layer1"
     transform="translate(0,-768.89763)">
    <g
       id="g3364"
       transform="matrix(0.98559556,0,0,0.98559492,10.82342,138.48726)">
      <circle
         transform="matrix(0.12108559,0,0,0.12108559,95.412567,752.17251)"
         sodipodi:ry="257"
         sodipodi:rx="257"
         sodipodi:cy="262.5"
         sodipodi:cx="262.5"
         id="circle3366"
         cx="262.5"
         cy="262.5"
         r="257"
         d="m 519.5,262.5 c 0,141.93718 -115.06282,257 -257,257 -141.93718,0 -257,-115.06282 -257,-257 0,-141.93718 115.06282,-257 257,-257 141.93718,0 257,115.06282 257,257 z" />
      <circle
         transform="matrix(0.12108559,0,0,0.12108559,95.412567,752.17251)"
         sodipodi:ry="200"
         sodipodi:rx="200"
         sodipodi:cy="262.5"
         sodipodi:cx="262.5"
         style="fill:url(#linearGradient3378)"
         id="circle3368"
         class="st0"
         cx="262.5"
         cy="262.5"
         r="200"
         d="m 462.5,262.5 c 0,110.45695 -89.54305,200 -200,200 -110.45695,0 -200,-89.54305 -200,-200 0,-110.45695 89.54305,-200 200,-200 110.45695,0 200,89.54305 200,200 z" />
      <g
         transform="matrix(0.12108559,0,0,0.12108559,95.412567,752.17251)"
         id="g3370">
        <path
           inkscape:connector-curvature="0"
           id="path3372"
           d="M 166.2,342.2 236,245.4 c 12.7,-16.6 22.7,-28.6 35.3,-43.6 v -1 h -97.4 v -60.3 h 181.2 v 45.6 l -66.6,92.8 C 276.3,295 264.9,310.5 252.3,324 v 1 h 106.5 v 60.7 H 166.2 v -43.5 z" />
        <rect
           id="rect3374"
           x="233.89999"
           y="95.800003"
           width="55.299999"
           height="54" />
        <rect
           id="rect3376"
           x="233.89999"
           y="375.20001"
           width="55.299999"
           height="54" />
      </g>
    </g>
    <g
       id="g3416"
       style="opacity:0.80000000000000004;fill:#000000"
       transform="matrix(0.25856356,0,0,0.25856356,43.409662,639.66019)">
      <path
         id="XMLID_4_"
         transform="translate(0,768.89763)"
         d="m 127.1875,-16.0625 c -17.18655,0 -31.09375,13.9384527 -31.09375,31.125 0,17.186547 13.9072,31.125 31.09375,31.125 17.18655,0 31.125,-13.938453 31.125,-31.125 0,-17.1865473 -13.93845,-31.125 -31.125,-31.125 z m 0,6.90625 c 13.37474,0 24.21875,10.844005 24.21875,24.21875 0,13.374745 -10.84401,24.21875 -24.21875,24.21875 -13.37474,0 -24.21875,-10.844005 -24.21875,-24.21875 0,-13.374745 10.84401,-24.21875 24.21875,-24.21875 z"
         style="fill:#000000"
         inkscape:connector-curvature="0" />
      <g
         id="XMLID_2_"
         transform="matrix(0.12108559,0,0,0.12108559,95.412567,752.17251)"
         style="fill:#000000">
        <path
           d="M 166.2,342.2 236,245.4 c 12.7,-16.6 22.7,-28.6 35.3,-43.6 v -1 h -97.4 v -60.3 h 181.2 v 45.6 l -66.6,92.8 C 276.3,295 264.9,310.5 252.3,324 v 1 h 106.5 v 60.7 H 166.2 v -43.5 z"
           id="XMLID_6_"
           inkscape:connector-curvature="0"
           style="fill:#000000" />
        <path
           style="fill:#000000"
           d="m 233.89999,95.800003 55.3,0 0,53.999997 -55.3,0 z"
           id="XMLID_5_" />
        <path
           style="fill:#000000"
           d="m 233.89999,375.20001 55.3,0 0,54 -55.3,0 z"
           id="XMLID_8_" />
      </g>
      <g
         transform="matrix(0.12108559,0,0,0.12108559,90.811317,752.17251)"
         id="g23"
         style="fill:#000000">
        <path
           inkscape:connector-curvature="0"
           id="path15"
           d="m 798,306.3 0.6,1.2 c 0.6,26.1 -8.1,47.8 -25.5,64 -17.4,16.8 -41.6,24.8 -71.4,24.8 -30.4,0 -55.3,-9.9 -73.9,-30.4 -19.3,-20.5 -28.6,-46.6 -28.6,-78.3 V 238 c 0,-31.7 9.3,-57.8 28,-78.3 18.7,-20.5 42.9,-31.1 73.3,-31.1 30.4,0 54.7,8.1 72.7,24.2 18,16.2 26.1,37.9 26.1,65.2 l -0.6,1.2 h -42.2 c 0,-17.4 -5,-31.1 -14.3,-41 -9.3,-9.9 -23.6,-14.9 -41.6,-14.9 -18,0 -31.7,6.8 -42.2,21.1 -10.6,14.3 -15.5,31.7 -15.5,52.8 V 287 c 0,21.1 5.6,39.1 16.2,53.4 10.6,14.3 24.8,21.1 42.9,21.1 18,0 31.7,-5 41,-14.3 9.3,-9.3 13.7,-23 13.7,-41 -0.3,0.1 41.3,0.1 41.3,0.1 z"
           style="fill:#000000" />
        <path
           inkscape:connector-curvature="0"
           id="path17"
           d="M 981.9,331.8 H 880 l -20.5,60.9 H 815.4 L 911.1,133 h 41 l 94.4,259.6 h -44.1 z m -89.5,-36.7 h 77 L 931.5,183.9 h -1.2 z"
           style="fill:#000000" />
        <path
           inkscape:connector-curvature="0"
           id="path19"
           d="m 1217.3,325.5 c 0,-10.6 -3.7,-19.9 -11.8,-26.7 -8.1,-6.8 -22.4,-13 -42.9,-18.6 -29.2,-7.5 -51.6,-17.4 -67.1,-30.4 -15.5,-12.4 -23.6,-29.2 -23.6,-49.1 0,-21.1 8.7,-37.9 26.1,-51.6 17.4,-13.7 39.8,-20.5 67.1,-20.5 28.6,0 51.6,7.5 68.9,23 17.4,15.5 25.5,34.2 24.8,55.3 l -0.6,1.2 h -41.6 c 0,-13 -4.3,-24.2 -13.7,-32.3 -9.4,-8.1 -21.7,-12.4 -38.5,-12.4 -15.5,0 -28,3.7 -36.6,10.6 -8.7,6.8 -13,15.5 -13,26.7 0,9.9 4.3,18 13.7,24.8 9.3,6.8 24.2,12.4 46,18.6 28,7.5 49.1,18 64,31.1 14.9,13 21.7,29.8 21.7,50.3 0,21.7 -8.7,39.1 -26.1,51.6 -17.4,13 -40.4,19.3 -68.3,19.3 -27.3,0 -50.9,-7.5 -71.4,-21.7 -20.5,-14.3 -30.4,-34.2 -29.8,-59 l 0.6,-1.2 h 41.6 c 0,15.5 5.6,27.3 16.2,35.4 11.2,8.1 25.5,11.8 42.9,11.8 16.2,0 28.6,-3.1 37.3,-9.9 9.7,-7 14.1,-15.7 14.1,-26.3 z"
           style="fill:#000000" />
        <path
           inkscape:connector-curvature="0"
           id="path21"
           d="m 1509.2,392 h -43.5 V 281.4 H 1349.5 V 392 H 1306 V 132.4 h 43.5 v 114.3 h 116.2 V 132.4 h 43.5 z"
           style="fill:#000000" />
      </g>
    </g>
    <g
       id="g3455"
       style="opacity:0.8;fill:#ffffff"
       transform="matrix(0.86110403,0,0,0.86110403,106.38163,196.4011)">
      <g
         transform="matrix(0.08713845,0,0,0.08713845,306.59653,733.0711)"
         id="g3408"
         style="fill:#ffffff">
        <path
           inkscape:connector-curvature="0"
           id="path3410"
           d="M 166.2,342.2 236,245.4 c 12.7,-16.6 22.7,-28.6 35.3,-43.6 v -1 h -97.4 v -60.3 h 181.2 v 45.6 l -66.6,92.8 C 276.3,295 264.9,310.5 252.3,324 v 1 h 106.5 v 60.7 H 166.2 v -43.5 z"
           style="fill:#ffffff" />
        <path
           style="fill:#ffffff"
           d="m 233.89999,95.800003 55.3,0 0,53.999997 -55.3,0 z"
           id="rect3412" />
        <path
           style="fill:#ffffff"
           d="m 233.89999,375.20001 55.3,0 0,54 -55.3,0 z"
           id="rect3414" />
      </g>
      <g
         transform="matrix(1.3717348,0,0,1.3717348,-46.112789,764.05614)"
         style="font-size:40px;font-style:normal;font-weight:bold;line-height:125%;letter-spacing:0px;word-spacing:0px;fill:#ffffff;fill-opacity:1;stroke:none;font-family:Sans;-inkscape-font-specification:Sans Bold"
         id="flowRoot3447">
        <path
           d="m 248.625,7.0184039 6.64062,0 0,-18.8476559 -6.8164,1.40625 0,-5.117188 6.77734,-1.40625 7.14844,0 0,23.9648439 6.64062,0 0,5.1953121 -20.39062,0 0,-5.1953121"
           style=""
           id="path3470" />
      </g>
    </g>
  </g>
</svg>
